<?xml version="1.0" encoding="UTF-8" standalone="no"?>
<!-- Created with Inkscape (http://www.inkscape.org/) -->
<svg
   xmlns:dc="http://purl.org/dc/elements/1.1/"
   xmlns:cc="http://creativecommons.org/ns#"
   xmlns:rdf="http://www.w3.org/1999/02/22-rdf-syntax-ns#"
   xmlns:svg="http://www.w3.org/2000/svg"
   xmlns="http://www.w3.org/2000/svg"
   xmlns:xlink="http://www.w3.org/1999/xlink"
   xmlns:sodipodi="http://sodipodi.sourceforge.net/DTD/sodipodi-0.dtd"
   xmlns:inkscape="http://www.inkscape.org/namespaces/inkscape"
   width="64"
   height="64"
   id="svg3217"
   sodipodi:version="0.32"
   inkscape:version="0.46"
   sodipodi:docname="epiphany.svg"
   inkscape:output_extension="org.inkscape.output.svg.inkscape"
   version="1.0"
   style="display:inline">
  <defs
     id="defs3219">
    <linearGradient
       id="linearGradient3210">
      <stop
         id="stop3212"
         offset="0"
         style="stop-color:#ffffff;stop-opacity:0" />
      <stop
         id="stop3214"
         offset="1"
         style="stop-color:#acabab;stop-opacity:1;" />
    </linearGradient>
    <linearGradient
       id="linearGradient4152">
      <stop
         style="stop-color:#ffffff;stop-opacity:1;"
         offset="0"
         id="stop4154" />
      <stop
         style="stop-color:#acabab;stop-opacity:1;"
         offset="1"
         id="stop4156" />
    </linearGradient>
    <inkscape:perspective
       sodipodi:type="inkscape:persp3d"
       inkscape:vp_x="0 : 32 : 1"
       inkscape:vp_y="0 : 1000 : 0"
       inkscape:vp_z="64 : 32 : 1"
       inkscape:persp3d-origin="32 : 21.333333 : 1"
       id="perspective3225" />
    <inkscape:perspective
       id="perspective3591"
       inkscape:persp3d-origin="372.04724 : 350.78739 : 1"
       inkscape:vp_z="744.09448 : 526.18109 : 1"
       inkscape:vp_y="0 : 1000 : 0"
       inkscape:vp_x="0 : 526.18109 : 1"
       sodipodi:type="inkscape:persp3d" />
    <linearGradient
       inkscape:collect="always"
       xlink:href="#linearGradient4152"
       id="linearGradient4166"
       x1="23.862328"
       y1="11.303422"
       x2="21.983887"
       y2="58.758259"
       gradientUnits="userSpaceOnUse" />
    <inkscape:perspective
       id="perspective2398"
       inkscape:persp3d-origin="372.04724 : 350.78739 : 1"
       inkscape:vp_z="744.09448 : 526.18109 : 1"
       inkscape:vp_y="0 : 1000 : 0"
       inkscape:vp_x="0 : 526.18109 : 1"
       sodipodi:type="inkscape:persp3d" />
    <linearGradient
       inkscape:collect="always"
       xlink:href="#linearGradient4152"
       id="linearGradient3208"
       x1="37.414642"
       y1="17.683659"
       x2="39.18634"
       y2="55.665409"
       gradientUnits="userSpaceOnUse" />
    <linearGradient
       y2="-52.35125"
       x2="206.95113"
       y1="298.58011"
       x1="216.66357"
       gradientUnits="userSpaceOnUse"
       id="linearGradient5676"
       xlink:href="#linearGradient5630"
       inkscape:collect="always" />
    <linearGradient
       y2="-52.35125"
       x2="206.95113"
       y1="298.58011"
       x1="216.66357"
       gradientUnits="userSpaceOnUse"
       id="linearGradient5674"
       xlink:href="#linearGradient5630"
       inkscape:collect="always" />
    <linearGradient
       y2="-52.35125"
       x2="206.95113"
       y1="298.58011"
       x1="216.66357"
       gradientUnits="userSpaceOnUse"
       id="linearGradient5672"
       xlink:href="#linearGradient5630"
       inkscape:collect="always" />
    <linearGradient
       y2="-52.35125"
       x2="206.95113"
       y1="298.58011"
       x1="216.66357"
       gradientUnits="userSpaceOnUse"
       id="linearGradient5670"
       xlink:href="#linearGradient5630"
       inkscape:collect="always" />
    <linearGradient
       y2="-52.35125"
       x2="206.95113"
       y1="298.58011"
       x1="216.66357"
       gradientUnits="userSpaceOnUse"
       id="linearGradient5668"
       xlink:href="#linearGradient5630"
       inkscape:collect="always" />
    <linearGradient
       y2="-52.35125"
       x2="206.95113"
       y1="298.58011"
       x1="216.66357"
       gradientUnits="userSpaceOnUse"
       id="linearGradient5666"
       xlink:href="#linearGradient5630"
       inkscape:collect="always" />
    <linearGradient
       y2="-52.35125"
       x2="206.95113"
       y1="298.58011"
       x1="216.66357"
       gradientUnits="userSpaceOnUse"
       id="linearGradient5664"
       xlink:href="#linearGradient5630"
       inkscape:collect="always" />
    <linearGradient
       y2="-52.35125"
       x2="206.95113"
       y1="298.58011"
       x1="216.66357"
       gradientUnits="userSpaceOnUse"
       id="linearGradient5662"
       xlink:href="#linearGradient5630"
       inkscape:collect="always" />
    <linearGradient
       y2="-52.35125"
       x2="206.95113"
       y1="298.58011"
       x1="216.66357"
       gradientUnits="userSpaceOnUse"
       id="linearGradient5660"
       xlink:href="#linearGradient5630"
       inkscape:collect="always" />
    <linearGradient
       gradientUnits="userSpaceOnUse"
       y2="-52.35125"
       x2="206.95113"
       y1="298.58011"
       x1="216.66357"
       id="linearGradient5636"
       xlink:href="#linearGradient5630"
       inkscape:collect="always" />
    <inkscape:perspective
       sodipodi:type="inkscape:persp3d"
       inkscape:vp_x="0 : 526.18109 : 1"
       inkscape:vp_y="0 : 1000 : 0"
       inkscape:vp_z="744.09448 : 526.18109 : 1"
       inkscape:persp3d-origin="372.04724 : 350.78739 : 1"
       id="perspective4908" />
    <inkscape:perspective
       id="perspective4132"
       inkscape:persp3d-origin="372.04724 : 350.78739 : 1"
       inkscape:vp_z="744.09448 : 526.18109 : 1"
       inkscape:vp_y="0 : 1000 : 0"
       inkscape:vp_x="0 : 526.18109 : 1"
       sodipodi:type="inkscape:persp3d" />
    <linearGradient
       id="linearGradient5630">
      <stop
         id="stop5632"
         offset="0"
         style="stop-color:#999999;stop-opacity:1;" />
      <stop
         id="stop5634"
         offset="1"
         style="stop-color:#ffffff;stop-opacity:1;" />
    </linearGradient>
    <linearGradient
       inkscape:collect="always"
       xlink:href="#linearGradient4152"
       id="linearGradient3325"
       x1="27.304617"
       y1="23.393307"
       x2="19.656971"
       y2="63.676872"
       gradientUnits="userSpaceOnUse"
       gradientTransform="matrix(1.0930675,0,0,1.1346934,-2.986628,-3.4340407)" />
  </defs>
  <sodipodi:namedview
     id="base"
     pagecolor="#ffffff"
     bordercolor="#666666"
     borderopacity="1.0"
     inkscape:pageopacity="0.0"
     inkscape:pageshadow="2"
     inkscape:zoom="4.6420916"
     inkscape:cx="24.930169"
     inkscape:cy="37.226332"
     inkscape:current-layer="layer3"
     showgrid="true"
     inkscape:document-units="px"
     inkscape:grid-bbox="true"
     inkscape:window-width="821"
     inkscape:window-height="839"
     inkscape:window-x="611"
     inkscape:window-y="53"
     showguides="true"
     inkscape:guide-bbox="true" />
  <metadata
     id="metadata3222">
    <rdf:RDF>
      <cc:Work
         rdf:about="">
        <dc:format>image/svg+xml</dc:format>
        <dc:type
           rdf:resource="http://purl.org/dc/dcmitype/StillImage" />
      </cc:Work>
    </rdf:RDF>
  </metadata>
  <g
     inkscape:groupmode="layer"
     id="layer3"
     style="opacity:1;display:inline">
    <g
       style="display:inline"
       id="g3295"
       transform="matrix(0.8763365,0,0,0.8763365,7.3793015,-3.3828613e-2)">
      <g
         style="opacity:1;display:inline"
         id="g3297">
        <path
           transform="matrix(0.2094221,-1.5804879e-3,1.6913482e-3,0.216141,-10.99567,-0.922093)"
           d="M 350.89035,152.37476 A 145.56166,139.77774 0 1 1 59.767029,152.37476 A 145.56166,139.77774 0 1 1 350.89035,152.37476 z"
           sodipodi:ry="139.77774"
           sodipodi:rx="145.56166"
           sodipodi:cy="152.37476"
           sodipodi:cx="205.32869"
           id="path5549"
           style="fill:#4d4d4d;fill-opacity:1;stroke:none;stroke-width:3.00181937;stroke-linejoin:round;stroke-miterlimit:4;stroke-dasharray:none;stroke-opacity:1"
           sodipodi:type="arc" />
      </g>
      <g
         transform="matrix(0.2138875,0,0,0.2194231,-12.926061,-2.2049755)"
         style="fill:url(#linearGradient5636);fill-opacity:1;stroke:none"
         id="g5615">
        <path
           style="opacity:1;fill:url(#linearGradient5660);fill-opacity:1;fill-rule:evenodd;stroke:none;stroke-width:1px;stroke-linecap:butt;stroke-linejoin:miter;stroke-opacity:1"
           d="M 212.99792,23.300998 C 213.36056,23.996663 212.77282,27.839953 212.31524,30.127855 C 211.85881,32.410001 212.54208,33.142688 214.02195,33.882626 C 216.68866,35.215979 214.65111,36.720419 214.02195,37.97874 C 208.8491,44.103055 199.11335,36.433485 196.95481,50.267081 C 196.95481,51.849595 196.95481,53.089764 196.95481,54.704538 C 196.65459,68.210345 198.33672,59.360573 190.81064,56.06991 C 190.13772,55.90168 189.78661,60.540453 189.78661,61.190052 C 193.85237,68.935059 185.54362,64.328541 182.27707,62.21408 C 180.37539,60.787817 179.89528,60.81825 180.57036,58.117966 C 180.90705,56.771183 183.34754,55.876019 184.32513,55.387224 C 185.32491,54.887333 183.70202,55.876692 182.27707,57.776624 C 181.39609,58.951262 180.60627,60.776879 179.88767,62.21408 C 183.47605,63.170271 179.80494,79.440804 174.76753,71.430337 C 173.65925,69.952628 174.08484,74.41432 174.08484,75.526451 C 174.08484,78.050106 173.41577,77.91585 171.01276,77.91585 C 162.88569,84.726967 162.68928,82.700194 171.69544,76.891822 C 174.05721,75.710939 169.76436,73.878222 169.64738,73.819736 C 168.24987,73.12098 166.58557,73.224955 164.86859,72.795708 C 155.07927,68.522903 144.11825,83.853071 136.87847,90.204192 C 135.66806,91.414607 134.92848,92.201357 134.48907,93.958963 C 134.13944,95.357482 133.46505,96.556672 133.46505,98.39642 C 133.46505,100.29545 135.11111,100.88632 136.87847,100.44448 C 138.30971,100.08667 139.95056,95.840222 139.95056,99.420448 C 139.95056,100.70376 138.27716,102.01791 137.9025,103.51656 C 137.21779,107.96493 142.63779,106.07409 144.72936,104.54059 C 145.74936,103.77559 146.12063,102.09939 146.77742,100.78582 C 147.31532,99.710021 146.77742,96.900158 146.77742,95.665677 C 146.77742,93.955894 147.42598,92.047379 147.80144,90.545535 C 148.8505,88.068965 150.56826,86.130962 152.58024,84.401364 C 154.27911,82.702498 154.6283,83.456938 154.6283,85.766735 C 154.6283,87.60582 153.74841,89.036026 152.92159,89.862849 C 151.67079,91.113642 150.19084,89.508516 150.19084,92.252249 C 150.19084,94.265652 149.88729,95.399907 150.53219,96.689706 C 151.47363,98.572585 153.57015,95.119498 152.58024,99.079106 C 152.13141,100.87445 150.50287,101.80985 148.82547,101.80985 C 147.59531,101.80985 147.52629,105.09091 147.11876,105.90596 C 146.19484,107.7538 146.15301,107.61268 143.70533,107.61268 C 140.39197,107.58416 138.38089,107.7606 134.99,106.91448 C 133.50462,107.65717 132.57805,111.81094 131.41699,112.39148 C 130.21347,112.99324 128.54621,113.14418 127.32087,113.75685 C 126.22627,114.30415 124.26155,114.86302 123.22476,115.12222 C 120.69953,117.7929 120.1372,119.32242 116.05656,119.21833 C 115.00755,119.21833 113.92274,119.43189 112.98448,119.90102 C 111.42771,120.6794 114.0085,123.28065 114.0085,125.02116 C 114.0085,127.33534 114.07767,128.36543 112.98448,129.45862 C 111.46909,130.974 113.34238,131.50253 110.59508,132.18936 C 108.92299,132.60738 107.08896,131.19652 106.15762,130.82399 C 103.26923,135.22855 100.77153,142.24747 103.08553,147.54979 C 103.81864,149.01601 104.53672,149.64075 105.81628,150.28053 C 107.06735,150.90607 109.42992,149.88913 110.59508,149.59784 C 113.11303,148.96836 113.82277,146.92737 114.34985,144.81904 C 115.09715,141.73778 115.95711,139.08744 117.42193,136.28547 C 117.77589,134.86966 119.32648,134.19785 120.83536,133.89607 C 123.14696,133.43375 124.04594,134.78405 125.9555,135.26145 C 129.09108,136.67561 129.17897,138.46536 131.32857,141.23551 C 143.6422,150.05938 126.60019,152.38356 135.85445,150.96322 C 137.79888,150.47711 137.99023,149.92962 138.58519,147.54979 C 139.08758,145.5402 139.61133,144.81482 140.2919,143.45367 C 141.04234,141.95279 137.15643,141.00426 136.36477,140.2126 C 134.59005,138.43788 135.79467,136.86788 133.46505,136.28547 C 131.41357,135.77261 131.678,133.19338 132.09967,131.50667 C 134.78946,131.90311 138.25428,134.79659 139.78157,137.4354 C 142.25292,140.78449 144.69301,140.15488 146.09473,144.81904 C 146.60267,146.85082 147.09236,148.80955 147.4601,150.28053 C 148.16214,153.0887 148.72435,151.02636 149.16682,149.2565 C 149.71951,147.0457 148.891,145.08115 148.48413,143.45367 C 147.95991,141.35679 149.47718,140.56775 150.53219,140.04024 C 152.04694,139.28287 153.31368,138.67487 155.31099,138.67487 C 157.38468,138.67487 159.06576,138.68538 159.06576,141.06427 C 159.06576,142.63635 156.36045,143.10597 154.96964,143.45367 C 153.09034,143.9235 152.02725,144.35994 150.19084,144.81904 C 157.19399,145.38193 163.18794,149.69808 170.67141,150.96322 C 172.861,151.51061 173.81232,149.80154 174.42618,148.57382 C 175.04168,147.34282 175.53951,151.63006 175.10887,153.35262 C 174.67095,155.10428 174.50749,157.12352 174.08484,158.8141 C 173.61898,160.67755 172.70951,162.60873 172.37813,163.93424 C 172.07468,165.14804 168.55406,164.61693 167.59933,164.61693 C 163.84456,164.61693 160.08978,164.61693 156.33501,164.61693 C 154.52771,164.61693 152.95568,164.62545 151.55622,164.27559 C 149.56706,163.7783 147.36647,163.84062 146.09473,162.56887 C 144.95644,161.43058 145.78628,164.144 145.41204,165.64096 C 145.06508,167.02882 143.58828,168.94714 143.02264,170.07841 C 140.08693,170.81047 124.27961,160.12366 124.24879,156.76604 C 124.24879,155.29072 125.27282,154.77311 125.27282,152.66993 C 125.27282,150.34302 124.12742,150.62187 121.85939,150.62187 C 120.14802,150.62187 118.44636,151.56047 116.73925,151.98724 C 112.10853,154.31723 106.6519,152.71586 102.06151,154.71799 C 100.46507,155.5162 100.32695,157.21875 100.01345,158.47276 C 99.809342,159.28918 97.105267,160.48322 96.60002,160.86216 C 96.246631,165.44646 93.105194,168.09678 90.797192,171.78513 C 90.155215,173.39007 89.764316,175.23395 89.431821,176.56393 C 88.905477,178.6693 88.066449,179.00406 88.066449,181.34273 C 90.157767,192.69256 96.52011,205.11154 102.40285,215.81835 C 103.45642,217.9255 103.57186,220.46273 105.47493,220.93849 C 111.72355,226.00296 123.97445,223.3677 128.3449,229.47207 C 142.40543,237.14719 135.96389,245.91621 149.16682,254.39009 C 157.96669,259.86104 147.69936,263.40602 160.08979,269.06783 C 161.52356,269.78472 163.01058,270.99273 164.86859,271.45723 C 168.59063,275.83758 169.57893,276.92119 171.69544,278.96678 C 173.06609,279.6521 174.73824,280.61491 175.45021,282.03886 C 176.08671,283.31185 180.69032,284.42826 182.27707,284.42826 C 190.35838,283.39398 198.0995,287.78079 206.17107,286.47632 C 208.82759,283.51093 207.69537,278.69983 211.9739,277.26006 C 214.04808,276.74152 215.52073,277.45233 215.04598,275.55335 C 207.97442,273.0005 208.08061,269.15978 215.04598,266.33709 C 216.62276,265.5487 218.07366,264.67478 219.14209,263.60635 C 221.80668,260.56323 217.39068,258.04939 215.04598,256.43815 C 212.95059,254.10218 211.19877,250.63208 210.26718,247.56324 C 209.76868,245.56925 209.24315,244.81745 209.24315,242.44309 C 216.39715,231.4392 223.78063,222.93728 227.67567,210.01552 C 228.12614,208.21363 228.25611,206.32837 228.69969,204.55404 C 229.27918,202.23609 228.63521,201.20983 226.99298,200.79927 C 226.11743,200.58038 223.58671,203.01263 222.89687,203.53001 C 218.60727,206.16608 213.48677,211.11266 208.21912,210.01552 C 206.4358,209.56969 205.10172,208.28615 203.78167,207.62612 C 196.73891,190.69537 184.00263,188.89197 173.59497,178.14997 C 171.68451,177.19474 171.88362,173.06006 170.67141,171.44378 C 168.29871,168.28018 175.50815,171.88816 176.47424,172.46781 C 178.15962,173.47904 180.21437,175.85196 180.9117,177.24661 C 188.2561,184.93377 198.74658,191.95448 204.12301,201.48195 C 205.05752,203.35098 205.65039,203.69202 206.85375,204.89538 C 207.55477,205.5964 211.97302,202.16552 212.65658,201.48195 C 213.22549,200.91305 213.79439,200.34414 214.3633,199.77524 C 220.46456,189.71788 235.37237,185.81544 235.52655,171.10244 C 235.52655,168.8455 235.5618,168.0656 234.50252,167.00633 C 231.23403,164.73741 227.21792,167.79787 225.28627,163.93424 C 224.2241,161.80991 223.0319,166.4662 222.89687,167.00633 C 222.57321,168.30097 220.35045,169.55274 219.48344,170.41976 C 215.58396,174.4761 209.87037,168.26898 205.82972,166.32364 C 204.35438,165.58597 203.48374,162.74254 203.09898,161.2035 C 202.42572,158.51046 201.08218,157.04537 204.8057,157.79007 C 209.78094,159.35343 214.56818,161.57927 219.48344,163.25156 C 221.25237,163.69379 223.50004,163.12064 224.60358,162.56887 C 228.46568,158.95545 228.8716,160.98626 231.77178,164.61693 C 232.50951,165.35466 235.33961,162.41447 235.86789,161.88619 C 239.34382,157.4415 241.42247,154.39636 247.13221,153.35262 C 249.72539,152.70432 251.23913,152.76338 252.93503,154.0353 C 255.29618,155.80616 256.9023,156.97853 258.73786,158.8141 C 260.42907,160.50531 260.45803,162.09581 262.15129,159.83813 C 263.24159,158.3844 264.94005,157.93173 266.58875,157.10739 C 271.81768,162.26145 280.32955,174.1647 287.41066,179.63601 C 288.92365,181.149 289.64481,180.28786 290.48275,178.61198 C 291.17989,177.2177 291.00764,174.83145 291.50677,173.83318 C 292.31463,172.21747 291.84812,169.45027 291.84812,167.68901 C 288.13828,157.81581 285.76407,148.50265 288.77603,137.99219 C 289.0942,136.71951 291.46421,135.34657 292.18946,133.89607 C 292.89088,132.49324 293.79113,131.61171 294.57886,130.82399 C 295.95514,129.44771 297.68805,129.79996 300.04034,129.79996 C 302.42595,129.79996 304.4778,134.04135 304.4778,135.94413 C 304.4778,136.79938 305.8248,138.97948 306.18452,139.6989 C 310.52976,143.21743 308.86064,128.63845 314.37674,141.06427 C 315.37856,143.06791 316.11015,143.48037 317.44883,144.81904 C 319.16628,146.53649 319.89429,146.0673 320.52091,148.57382 C 320.92823,150.20306 320.47541,152.14655 320.86226,153.69396 C 321.27146,155.33076 323.18498,150.95524 323.25166,150.62187 C 323.7249,148.25563 322.30443,146.49164 321.88629,144.81904 C 321.51458,143.33223 320.51862,141.74236 319.83823,140.38159 C 319.03658,138.77829 316.86107,137.65085 320.17957,137.65085 C 322.32926,137.65085 323.43053,138.20758 325.29971,138.67487 C 327.31455,139.17858 328.01265,139.78869 329.73717,139.35756 C 331.41681,136.50068 329.52283,132.58822 328.71314,129.45862 C 328.15722,127.23492 327.53069,125.41149 327.00643,123.31445 C 326.53925,121.44575 325.0423,119.9178 323.25166,119.55968 C 321.60413,119.23017 320.09717,118.87699 318.13151,118.87699 C 315.00019,116.82164 315.74211,112.70012 315.74211,109.31939 C 315.74211,107.61268 315.74211,105.90596 315.74211,104.19925 C 315.22736,90.294552 311.83599,75.958127 297.3096,71.77168 C 295.49634,71.318364 296.62692,69.142008 296.62692,67.675566 C 296.62692,66.165793 292.89668,67.334223 292.18946,67.334223 C 290.08954,67.334223 289.17556,66.339288 287.752,65.627509 C 285.04365,64.273334 288.15761,61.875598 289.11737,61.190052 C 291.0853,59.784388 292.57925,59.580786 294.9202,60.166023 C 297.25454,60.318065 301.04992,65.223736 301.40572,62.555423 C 301.40572,62.345229 296.41145,60.740976 295.94423,60.507366 C 294.25694,59.663722 293.37464,59.267619 291.50677,58.800652 C 289.97289,58.417182 287.45479,56.455387 286.72797,55.728567 C 285.65022,54.650816 285.36216,53.337386 285.02126,51.973796 C 281.73093,38.070667 268.59652,42.190518 260.10323,36.954711 C 258.36147,36.083828 257.76784,38.320083 255.66578,38.320083 C 253.08433,38.320083 251.69739,37.892859 250.88698,36.272026 C 245.81818,28.643583 236.55389,28.276272 229.38238,23.642341 C 228.38303,22.642987 225.84113,22.586357 224.60358,22.27697 C 222.8617,21.841501 222.03904,22.150082 220.16612,22.618312 C 218.58677,23.013152 217.09298,23.301264 215.72867,23.642341 C 214.08898,24.052262 215.44065,24.278088 212.99792,23.300998 z"
           id="path5555"
           sodipodi:nodetypes="cssccccccsssccsccsccssssccssccsssssssccssccssssccssccscccsssscccsssssssccssssccsssccssccsccsccccccccsccccccccccssccccssccssccccsccsccccccsssccssccssssccssssssssccssccccssssccsssccsccsssc" />
        <path
           style="opacity:1;fill:url(#linearGradient5662);fill-opacity:1;fill-rule:evenodd;stroke:none;stroke-width:1px;stroke-linecap:butt;stroke-linejoin:miter;stroke-opacity:1"
           d="M 339.29477,166.32364 C 340.29006,168.81188 337.56601,168.55339 335.88134,169.39573 C 334.35082,170.16099 332.61185,169.34638 331.44388,169.05439 C 330.04839,168.70551 328.98722,166.5753 328.03046,165.29961 C 326.6454,163.45287 327.17762,162.22753 324.27569,162.22753 C 322.31704,162.22753 320.90771,162.07959 319.83823,161.54484 C 318.76544,161.00845 321.60523,160.84708 322.91031,160.52081 C 324.49423,160.12483 326.73172,160.52081 328.3718,160.52081 C 330.19229,160.52081 332.01279,160.52081 333.83328,160.52081 C 336.28172,160.52081 336.11577,161.09659 337.24671,162.22753 C 338.32139,163.30221 338.93474,164.52349 339.29477,166.32364 z"
           id="path5563" />
        <path
           style="opacity:1;fill:url(#linearGradient5664);fill-opacity:1;fill-rule:evenodd;stroke:none;stroke-width:1px;stroke-linecap:butt;stroke-linejoin:miter;stroke-opacity:1"
           d="M 332.12657,155.05933 C 333.46907,156.40183 334.25006,157.44873 330.7612,157.44873 C 328.37242,157.44873 328.45639,156.85063 327.34777,155.74201 C 326.42751,154.82176 326.21888,152.59184 325.9824,151.6459 C 325.51973,149.79522 323.96432,148.26245 325.9824,150.28053 C 327.29208,151.59021 329.0842,152.17277 330.7612,153.01127 C 332.48221,153.87178 332.39064,155.11214 333.83328,155.40067"
           id="path5565" />
        <path
           style="opacity:1;fill:url(#linearGradient5666);fill-opacity:1;fill-rule:evenodd;stroke:none;stroke-width:1px;stroke-linecap:butt;stroke-linejoin:miter;stroke-opacity:1"
           d="M 338.95343,149.2565 C 340.39265,149.97612 338.4983,152.89749 339.63611,154.0353 C 340.95745,155.35663 343.09531,154.52443 344.07357,154.0353 C 344.59958,153.7723 345.0976,150.79224 345.0976,149.93919 C 345.0976,148.35559 345.46456,146.96958 345.0976,145.50173 C 344.78383,144.24664 344.41406,142.42795 343.73223,141.06427 C 343.00018,139.60017 342.73676,137.76509 342.36686,136.28547 C 341.96664,134.6846 341.0669,133.13372 340.66014,131.50667 C 340.23447,129.80398 339.69727,128.67922 339.29477,127.06922 C 339.27849,127.00411 337.0442,130.20498 336.90537,130.48265 C 336.26245,131.76849 336.56403,133.73411 336.56403,135.26145 C 336.56403,137.08285 337.48604,138.26683 337.9294,140.04024 C 338.34515,141.70326 338.83796,142.9918 339.29477,144.81904 C 339.60867,146.07464 339.1845,148.10114 338.95343,149.2565 z"
           id="path5567" />
        <path
           style="opacity:1;fill:url(#linearGradient5668);fill-opacity:1;fill-rule:evenodd;stroke:none;stroke-width:1px;stroke-linecap:butt;stroke-linejoin:miter;stroke-opacity:1"
           d="M 339.29477,118.87699 C 339.7639,120.75351 335.9047,117.01128 334.17463,116.14625 C 333.50088,115.80937 333.1506,113.15297 333.1506,112.05013 C 333.1506,109.98996 332.75836,108.87626 332.12657,107.61268 C 331.58009,106.51972 329.01174,104.49784 328.3718,103.85791 C 327.48865,102.97475 326.63141,101.33381 326.32374,100.10313 C 325.52954,96.926321 326.8526,100.29065 327.68911,101.12716 C 329.25263,102.69068 329.9237,103.7805 331.44388,104.54059 C 333.03786,105.33758 333.29118,106.65894 334.51597,107.27133 C 335.62897,107.82784 336.52376,108.93778 337.24671,109.66073 C 338.29334,110.70736 339.44511,112.00948 339.97746,113.07416 C 340.70189,114.52302 341.00148,115.77435 341.00148,117.85296 C 341.00148,119.11582 341.22463,118.49102 339.29477,118.87699 z"
           id="path5569" />
        <path
           style="opacity:1;fill:url(#linearGradient5670);fill-opacity:1;fill-rule:evenodd;stroke:none;stroke-width:1px;stroke-linecap:butt;stroke-linejoin:miter;stroke-opacity:1"
           d="M 110.59508,75.185108 C 110.59508,77.220483 114.23607,73.364613 116.05656,72.454365 C 117.7853,71.589995 120.03758,70.770669 121.85939,70.406308 C 123.5571,70.066766 123.88043,69.218362 125.9555,68.699594 C 127.73292,68.255241 129.03106,67.672093 130.05162,66.651537 C 131.11499,65.588165 132.55494,64.916342 133.80639,64.60348 C 135.17969,64.260154 136.71866,63.192728 137.9025,62.896766 C 140.05429,62.358819 141.82912,61.700886 143.02264,60.507366 C 144.05234,59.477672 145.63135,58.691 146.77742,58.117966 C 148.77885,57.117247 149.34053,56.063817 150.19084,54.363195 C 150.88086,52.983167 152.47611,51.855193 153.60427,51.29111 C 155.16559,50.510449 155.90414,50.267081 158.04173,50.267081 C 158.32764,50.267081 160.39314,52.296145 161.11381,52.656481 C 163.034,53.616575 161.39653,53.353823 164.1859,52.656481 C 166.1707,52.160282 168.40236,52.114379 170.33007,51.632453 C 171.97065,51.222308 173.8407,51.010802 175.45021,50.608424 C 177.17665,50.176815 177.97876,48.832139 179.20498,48.219024 C 180.56708,47.537976 181.71596,47.134208 182.95976,46.51231 C 184.32814,45.828118 186.13113,44.731132 187.39721,43.781568 C 188.78496,42.740755 189.15894,42.146435 190.81064,41.733511 C 192.37444,41.34256 193.28036,39.344111 195.58944,39.344111 C 196.54674,39.344111 199.71341,38.135485 200.70958,37.637397 C 202.59774,36.693316 204.01908,36.138535 204.8057,34.565311 C 205.6513,32.874104 204.31589,30.320734 203.78167,29.786512 C 202.80674,28.811585 202.81407,26.059957 204.8057,27.055769 C 206.12273,27.714288 207.1951,28.999669 207.1951,26.373084 C 207.1951,23.969705 204.77444,24.325027 202.75764,24.325027 C 202.2719,23.852715 210.68435,20.98525 199.34421,20.911598 C 173.95165,21.694417 127.98895,40.673303 119.46999,60.848709 C 119.71759,61.343918 126.08134,56.487547 126.63819,56.06991 C 127.91148,55.114943 130.47578,54.8338 131.41699,54.363195 C 133.0873,53.52804 135.31026,51.152609 132.78236,53.68051 C 131.19499,55.267884 129.45818,56.663346 128.00356,58.117966 C 126.46683,59.654696 124.96717,61.142454 123.90745,62.555423 C 122.91428,63.879639 121.51686,64.604665 120.49402,65.627509 C 118.97011,67.151419 117.33533,67.420823 116.05656,68.699594 C 114.40801,70.348142 113.11966,69.865555 112.64313,71.77168 C 112.52766,72.233552 110.92953,74.627691 110.59508,75.185108 z"
           id="path5571"
           sodipodi:nodetypes="cssssssssssssssssssssssssscccssssssssc" />
        <path
           style="opacity:1;fill:url(#linearGradient5672);fill-opacity:1;fill-rule:evenodd;stroke:none;stroke-width:1px;stroke-linecap:butt;stroke-linejoin:miter;stroke-opacity:1"
           d="M 233.16862,271.56575 C 234.54748,273.98738 236.13094,274.83085 239.5979,274.13746 C 240.03048,274.05094 241.0788,269.65622 241.741,268.99403 C 242.74656,267.98847 242.16962,264.06102 242.16962,262.56475 C 245.24416,252.50262 237.2515,251.63234 236.16895,258.27856 C 234.50766,259.52453 233.41221,259.01869 232.74,261.70751 C 232.0744,264.36992 233.8663,264.9769 234.8831,265.9937 C 235.91782,267.02842 233.45024,270.8617 233.16862,271.56575 z"
           id="path5577"
           sodipodi:nodetypes="cssccssc" />
        <path
           style="fill:url(#linearGradient5674);fill-opacity:1;fill-rule:evenodd;stroke:none;stroke-width:1px;stroke-linecap:butt;stroke-linejoin:miter;stroke-opacity:1"
           d="M 115.67563,115.58936 C 118.3661,114.81768 117.68133,113.75685 120.15268,113.75685 C 121.79734,113.75685 122.47539,111.63417 122.88342,110.00208 C 123.4005,107.93374 122.0907,107.05127 121.51805,105.90596 C 120.74426,104.35839 122.01372,101.14682 122.90453,99.489066 C 125.23235,95.15709 120.36117,93.879225 120.36117,97.430451 C 120.36117,99.137171 119.80077,102.91305 119.80077,104.61977 C 119.80077,106.32549 119.02284,107.62875 118.01488,108.6367 C 116.9126,109.73898 115.21249,111.39626 114.80291,113.03457 C 114.55187,114.03873 115.20407,114.78531 115.67563,115.58936 z"
           id="path5573"
           sodipodi:nodetypes="cssssssssc" />
        <path
           style="fill:url(#linearGradient5676);fill-opacity:1;fill-rule:evenodd;stroke:none;stroke-width:1px;stroke-linecap:butt;stroke-linejoin:miter;stroke-opacity:1"
           d="M 114.0085,109.31939 C 115.73556,108.88763 116.77811,106.7644 117.42193,105.90596 C 118.53703,104.41917 118.19637,103.19816 116.73925,102.83388 C 115.712,102.57706 112.83653,106.89968 112.30179,107.61268 C 111.77185,108.879 112.54097,110.20682 114.0085,109.31939 z"
           id="path5575"
           sodipodi:nodetypes="csscc" />
      </g>
      <g
         style="fill:#4d4d4d;fill-opacity:1;stroke:none"
         transform="translate(1.3957224,0.1552796)"
         id="g5698">
        <path
           style="opacity:1;fill:#4d4d4d;fill-opacity:1;fill-rule:evenodd;stroke:none;stroke-width:0.21413605px;stroke-linecap:butt;stroke-linejoin:miter;stroke-opacity:1"
           d="M 22.291403,27.857514 C 22.095921,27.915076 21.711454,28.254153 21.281156,28.254153 C 20.816749,28.254153 20.649856,28.373631 20.540318,27.857514 C 20.492692,27.633152 21.010189,26.907432 21.146458,26.746918 C 21.418116,26.426945 21.483204,26.037314 21.483204,25.636331 C 21.483204,25.163338 22.151783,25.551206 22.224051,25.636331 C 22.489387,25.948853 22.735473,26.056507 22.964896,26.191624 C 22.988515,26.205539 23.358488,25.343769 23.368996,25.319014 C 23.558316,24.873031 23.724794,24.694826 23.840439,25.23969 C 23.983491,25.913679 23.894975,25.684502 24.379235,26.112293 C 24.608509,26.314834 24.990944,26.393217 25.187434,26.508941 C 25.537553,26.71514 25.52418,26.984001 25.52418,27.460874 C 25.52418,27.863985 25.213427,27.936838 24.918032,27.936838 C 24.472398,27.936838 24.39666,27.803146 24.042489,27.69886 C 23.671491,27.589609 23.556901,27.460874 23.166945,27.460874 C 22.743048,27.460874 22.712149,27.857514 22.291403,27.857514 z"
           id="path5557" />
        <g
           id="g5626"
           style="fill:#4d4d4d;fill-opacity:1;stroke:none"
           transform="matrix(0.2138875,0,0,0.2194231,-13.390824,-2.360255)">
          <path
             id="path5559"
             d="M 197.6375,132.5307 C 195.94149,132.5307 194.22407,133.37407 194.22407,135.60279 C 194.22407,136.1964 196.91983,137.70995 197.29615,137.99219 C 198.49588,138.89198 200.28907,139.1473 201.39227,139.6989 C 202.52878,140.26716 204.56894,140.72293 206.17107,140.72293 C 207.63884,140.72293 208.90651,139.52588 209.92584,139.01622 C 211.63559,138.16134 210.24485,135.58046 209.5845,134.9201 C 208.54725,133.88285 206.61136,133.83547 205.48838,133.55473 C 204.00527,133.18395 204.20955,131.1605 204.46435,130.1413 C 204.93213,128.27018 206.66491,128.6343 204.12301,126.72787 C 202.73323,125.68554 201.38975,125.70133 200.36824,124.67982 C 199.29242,123.604 199.00289,122.6318 198.32018,121.26639 C 197.40194,119.4299 201.19724,118.87699 202.4163,118.87699 C 204.42274,118.87699 202.40838,114.77296 202.07495,114.43953 C 200.92962,113.2942 199.67018,112.72513 198.32018,112.05013 C 196.98256,111.38132 195.79147,111.36745 193.88273,111.36745 C 191.90848,111.36745 190.62909,111.45822 189.44527,112.05013 C 188.35481,112.59536 188.76258,115.7066 188.76258,116.82893 C 188.76258,118.82729 188.74227,120.20174 189.44527,121.60773 C 190.17664,123.07048 190.57403,124.20659 191.15198,125.3625 C 191.79611,126.65075 193.31741,127.63992 194.22407,128.09325 C 195.72687,128.84465 196.01262,129.54046 196.95481,130.48265 C 197.7064,131.23423 197.2646,130.6662 197.6375,132.5307 z"
             style="opacity:1;fill:#4d4d4d;fill-opacity:1;fill-rule:evenodd;stroke:none;stroke-width:1px;stroke-linecap:butt;stroke-linejoin:miter;stroke-opacity:1" />
          <path
             id="path5561"
             d="M 218.45941,121.26639 C 219.63086,122.43784 214.85206,121.07246 213.68061,119.90102 C 213.17051,119.39092 213.68061,115.59194 213.68061,114.78088 C 213.68061,112.47459 212.99833,111.87966 211.29121,111.0261 C 209.89035,110.32567 209.5845,113.29069 209.5845,114.43953 C 209.5845,116.02998 210.61733,117.52042 211.29121,118.1943 C 211.96512,118.86822 212.97627,121.38292 213.33927,122.29042 C 213.93456,123.77866 217.89222,121.72014 218.45941,121.26639 z"
             style="opacity:1;fill:#4d4d4d;fill-opacity:1;fill-rule:evenodd;stroke:none;stroke-width:1px;stroke-linecap:butt;stroke-linejoin:miter;stroke-opacity:1" />
        </g>
      </g>
    </g>
    <path
       style="fill:url(#linearGradient3325);fill-opacity:1;fill-rule:evenodd;stroke:#4d4d4d;stroke-width:1.55916035;stroke-linecap:butt;stroke-linejoin:round;stroke-miterlimit:4;stroke-dasharray:none;stroke-opacity:1"
       d="M 2.6646219,42.053964 L 32.233439,26.811896 L 22.564287,58.832988 L 14.969142,52.780124 L 8.3359206,60.689118 L 3.1355593,56.318289 L 10.199622,48.653731 L 2.6646219,42.053964 z"
       id="path3317"
       sodipodi:nodetypes="cccccccc" />
  </g>
</svg>
