<?xml version="1.0" encoding="UTF-8" standalone="no"?>
<!-- Created with Inkscape (http://www.inkscape.org/) -->
<svg
   xmlns:dc="http://purl.org/dc/elements/1.1/"
   xmlns:cc="http://creativecommons.org/ns#"
   xmlns:rdf="http://www.w3.org/1999/02/22-rdf-syntax-ns#"
   xmlns:svg="http://www.w3.org/2000/svg"
   xmlns="http://www.w3.org/2000/svg"
   xmlns:xlink="http://www.w3.org/1999/xlink"
   xmlns:sodipodi="http://sodipodi.sourceforge.net/DTD/sodipodi-0.dtd"
   xmlns:inkscape="http://www.inkscape.org/namespaces/inkscape"
   width="64"
   height="64"
   id="svg2421"
   sodipodi:version="0.32"
   inkscape:version="0.46"
   sodipodi:docname="frozen-bubble.svg"
   inkscape:output_extension="org.inkscape.output.svg.inkscape"
   version="1.0">
  <defs
     id="defs2423">
    <linearGradient
       id="linearGradient3205">
      <stop
         style="stop-color:#ffffff;stop-opacity:0.43103448;"
         offset="0"
         id="stop3207" />
      <stop
         style="stop-color:#acabab;stop-opacity:0;"
         offset="1"
         id="stop3209" />
    </linearGradient>
    <inkscape:perspective
       sodipodi:type="inkscape:persp3d"
       inkscape:vp_x="0 : 24 : 1"
       inkscape:vp_y="0 : 1000 : 0"
       inkscape:vp_z="48 : 24 : 1"
       inkscape:persp3d-origin="24 : 16 : 1"
       id="perspective2429" />
    <linearGradient
       y2="41.365002"
       x2="41.631321"
       y1="3.7373753"
       x1="30.922298"
       gradientUnits="userSpaceOnUse"
       id="linearGradient3187"
       xlink:href="#linearGradient4152"
       inkscape:collect="always" />
    <linearGradient
       gradientUnits="userSpaceOnUse"
       y2="41.365002"
       x2="41.631321"
       y1="3.7373753"
       x1="30.922298"
       id="linearGradient3181"
       xlink:href="#linearGradient4152"
       inkscape:collect="always" />
    <linearGradient
       y2="58.758259"
       x2="21.983887"
       y1="11.303422"
       x1="23.862328"
       gradientUnits="userSpaceOnUse"
       id="linearGradient2397"
       xlink:href="#linearGradient4152"
       inkscape:collect="always" />
    <inkscape:perspective
       sodipodi:type="inkscape:persp3d"
       inkscape:vp_x="0 : 526.18109 : 1"
       inkscape:vp_y="0 : 1000 : 0"
       inkscape:vp_z="744.09448 : 526.18109 : 1"
       inkscape:persp3d-origin="372.04724 : 350.78739 : 1"
       id="perspective2398" />
    <linearGradient
       gradientUnits="userSpaceOnUse"
       y2="58.758259"
       x2="21.983887"
       y1="11.303422"
       x1="23.862328"
       id="linearGradient4166"
       xlink:href="#linearGradient4152"
       inkscape:collect="always" />
    <inkscape:perspective
       sodipodi:type="inkscape:persp3d"
       inkscape:vp_x="0 : 526.18109 : 1"
       inkscape:vp_y="0 : 1000 : 0"
       inkscape:vp_z="744.09448 : 526.18109 : 1"
       inkscape:persp3d-origin="372.04724 : 350.78739 : 1"
       id="perspective3591" />
    <inkscape:perspective
       id="perspective3225"
       inkscape:persp3d-origin="32 : 21.333333 : 1"
       inkscape:vp_z="64 : 32 : 1"
       inkscape:vp_y="0 : 1000 : 0"
       inkscape:vp_x="0 : 32 : 1"
       sodipodi:type="inkscape:persp3d" />
    <linearGradient
       id="linearGradient4152">
      <stop
         id="stop4154"
         offset="0"
         style="stop-color:#ffffff;stop-opacity:1;" />
      <stop
         id="stop4156"
         offset="1"
         style="stop-color:#acabab;stop-opacity:1;" />
    </linearGradient>
    <linearGradient
       inkscape:collect="always"
       xlink:href="#linearGradient4152"
       id="linearGradient3249"
       x1="22.842712"
       y1="5.8571429"
       x2="37.285713"
       y2="35.5"
       gradientUnits="userSpaceOnUse"
       gradientTransform="matrix(1.1061502,0,0,1.0732369,-2.8210274,-1.4680487)" />
    <linearGradient
       inkscape:collect="always"
       xlink:href="#linearGradient4152"
       id="linearGradient3255"
       gradientUnits="userSpaceOnUse"
       gradientTransform="matrix(1.1061502,0,0,1.0732369,-2.8210274,-1.4680487)"
       x1="22.842712"
       y1="5.8571429"
       x2="37.285713"
       y2="35.5" />
    <inkscape:perspective
       id="perspective3186"
       inkscape:persp3d-origin="372.04724 : 350.78739 : 1"
       inkscape:vp_z="744.09448 : 526.18109 : 1"
       inkscape:vp_y="0 : 1000 : 0"
       inkscape:vp_x="0 : 526.18109 : 1"
       sodipodi:type="inkscape:persp3d" />
    <linearGradient
       inkscape:collect="always"
       xlink:href="#linearGradient4152"
       id="linearGradient3310"
       gradientUnits="userSpaceOnUse"
       x1="45.342312"
       y1="41.087662"
       x2="50.165962"
       y2="50.011414" />
    <linearGradient
       inkscape:collect="always"
       xlink:href="#linearGradient4152"
       id="linearGradient3312"
       gradientUnits="userSpaceOnUse"
       gradientTransform="translate(-6.9249464e-2,0.2398965)"
       x1="25.071703"
       y1="16.970697"
       x2="22.98172"
       y2="35.461357" />
    <linearGradient
       inkscape:collect="always"
       xlink:href="#linearGradient4152"
       id="linearGradient3314"
       gradientUnits="userSpaceOnUse"
       x1="17.893038"
       y1="30.697212"
       x2="30.270344"
       y2="32.94825" />
    <linearGradient
       inkscape:collect="always"
       xlink:href="#linearGradient4152"
       id="linearGradient3316"
       gradientUnits="userSpaceOnUse"
       x1="14.310162"
       y1="45.268158"
       x2="27.494806"
       y2="46.876041" />
    <linearGradient
       inkscape:collect="always"
       xlink:href="#linearGradient3205"
       id="linearGradient3318"
       gradientUnits="userSpaceOnUse"
       x1="30.853725"
       y1="47.625961"
       x2="24.447205"
       y2="33.3158" />
    <linearGradient
       inkscape:collect="always"
       xlink:href="#linearGradient4152"
       id="linearGradient3330"
       x1="60.831936"
       y1="31.76194"
       x2="51.559116"
       y2="46.554466"
       gradientUnits="userSpaceOnUse" />
    <linearGradient
       inkscape:collect="always"
       xlink:href="#linearGradient4152"
       id="linearGradient3334"
       gradientUnits="userSpaceOnUse"
       x1="60.831936"
       y1="31.76194"
       x2="51.559116"
       y2="46.554466" />
    <linearGradient
       inkscape:collect="always"
       xlink:href="#linearGradient4152"
       id="linearGradient3338"
       gradientUnits="userSpaceOnUse"
       x1="60.831936"
       y1="31.76194"
       x2="51.559116"
       y2="46.554466" />
    <linearGradient
       inkscape:collect="always"
       xlink:href="#linearGradient4152"
       id="linearGradient3195"
       x1="38.410778"
       y1="32.807064"
       x2="52.75621"
       y2="32.807064"
       gradientUnits="userSpaceOnUse" />
    <linearGradient
       inkscape:collect="always"
       xlink:href="#linearGradient4152"
       id="linearGradient3203"
       x1="41.94812"
       y1="23.320551"
       x2="49.218868"
       y2="23.320551"
       gradientUnits="userSpaceOnUse" />
    <linearGradient
       inkscape:collect="always"
       xlink:href="#linearGradient3205"
       id="linearGradient3217"
       x1="34.069492"
       y1="46.322796"
       x2="25.8943"
       y2="36.997074"
       gradientUnits="userSpaceOnUse" />
  </defs>
  <sodipodi:namedview
     id="base"
     pagecolor="#ffffff"
     bordercolor="#666666"
     borderopacity="1.0"
     inkscape:pageopacity="0.0"
     inkscape:pageshadow="2"
     inkscape:zoom="6.2193565"
     inkscape:cx="8.2788404"
     inkscape:cy="23.954648"
     inkscape:current-layer="layer2"
     showgrid="true"
     inkscape:grid-bbox="true"
     inkscape:document-units="px"
     inkscape:window-width="1396"
     inkscape:window-height="997"
     inkscape:window-x="0"
     inkscape:window-y="0"
     showguides="true"
     inkscape:guide-bbox="true" />
  <metadata
     id="metadata2426">
    <rdf:RDF>
      <cc:Work
         rdf:about="">
        <dc:format>image/svg+xml</dc:format>
        <dc:type
           rdf:resource="http://purl.org/dc/dcmitype/StillImage" />
      </cc:Work>
    </rdf:RDF>
  </metadata>
  <g
     id="layer1"
     inkscape:label="Layer 1"
     inkscape:groupmode="layer"
     style="display:inline" />
  <g
     inkscape:groupmode="layer"
     id="layer2"
     style="display:inline;opacity:1">
    <g
       id="g3360">
      <path
         transform="translate(-8.2002053,-5.3060152)"
         sodipodi:type="arc"
         style="opacity:1;fill:url(#linearGradient3334);fill-opacity:1;stroke:#4d4d4d;stroke-width:1.5;stroke-miterlimit:4;stroke-dasharray:none;stroke-opacity:1"
         id="path3332"
         sodipodi:cx="50.246357"
         sodipodi:cy="42.37397"
         sodipodi:rx="12.13952"
         sodipodi:ry="12.13952"
         d="M 62.385877,42.37397 A 12.13952,12.13952 0 1 1 38.106837,42.37397 A 12.13952,12.13952 0 1 1 62.385877,42.37397 z" />
      <path
         transform="translate(0.3215767,2.0902484)"
         d="M 62.385877,42.37397 A 12.13952,12.13952 0 1 1 38.106837,42.37397 A 12.13952,12.13952 0 1 1 62.385877,42.37397 z"
         sodipodi:ry="12.13952"
         sodipodi:rx="12.13952"
         sodipodi:cy="42.37397"
         sodipodi:cx="50.246357"
         id="path3322"
         style="opacity:1;fill:url(#linearGradient3330);fill-opacity:1;stroke:#4d4d4d;stroke-width:1.5;stroke-miterlimit:4;stroke-dasharray:none;stroke-opacity:1"
         sodipodi:type="arc" />
      <path
         d="M 62.385877,42.37397 A 12.13952,12.13952 0 1 1 38.106837,42.37397 A 12.13952,12.13952 0 1 1 62.385877,42.37397 z"
         sodipodi:ry="12.13952"
         sodipodi:rx="12.13952"
         sodipodi:cy="42.37397"
         sodipodi:cx="50.246357"
         id="path3336"
         style="opacity:1;fill:url(#linearGradient3338);fill-opacity:1;stroke:#4d4d4d;stroke-width:1.5;stroke-miterlimit:4;stroke-dasharray:none;stroke-opacity:1"
         sodipodi:type="arc"
         transform="translate(-36.659741,2.7334018)" />
      <g
         transform="translate(-4.0197085,7.2354752)"
         id="g3298">
        <path
           style="fill:#4c4c4c;fill-opacity:1;fill-rule:evenodd;stroke:none;stroke-width:1px;stroke-linecap:butt;stroke-linejoin:miter;stroke-opacity:1"
           d="M 9.4865123,51.136933 L 60.456415,50.654568 C 57.347841,47.280474 54.078478,44.176988 50.969904,42.936727 C 52.100162,41.513818 52.727269,38.991271 52.416999,36.987559 L 55.632765,37.309136 C 55.776593,32.881351 55.382984,28.382602 49.040443,24.606857 C 45.513077,18.408628 37.506588,11.99324 31.192938,9.9751181 C 21.596764,12.584272 20.340644,15.632377 18.651447,18.657688 C 12.312616,17.773271 14.269688,27.588986 16.400411,27.340259 L 15.435681,33.289427 C 14.49157,35.88266 13.340972,38.912559 13.184643,42.293575 C 14.974057,41.959885 16.282601,40.825243 18.008294,40.846479 L 19.616177,43.258304 C 15.860344,45.2043 12.407226,47.103141 9.4865123,51.136933 z"
           id="path3193"
           sodipodi:nodetypes="cccccccccccccc" />
        <g
           id="g3291">
          <path
             sodipodi:nodetypes="cccc"
             id="path3237"
             d="M 58.04459,49.850627 L 37.463683,50.011415 C 38.029627,47.733792 41.968945,43.226359 46.628618,42.775939 C 50.929743,43.619743 54.169216,45.175063 58.04459,49.850627 z"
             style="fill:url(#linearGradient3310);fill-opacity:1;fill-rule:evenodd;stroke:none;stroke-width:1px;stroke-linecap:butt;stroke-linejoin:miter;stroke-opacity:1" />
          <g
             id="g3286">
            <path
               style="opacity:1;fill:url(#linearGradient3312);fill-opacity:1;stroke:none;stroke-width:0.60000002;stroke-miterlimit:4;stroke-dasharray:none;stroke-opacity:1;display:inline"
               d="M 26.462001,15.521147 C 23.508915,15.521147 20.986648,17.356704 19.930751,19.958647 C 19.381328,19.303794 18.659115,18.896147 17.868251,18.896147 C 16.137525,18.896147 14.712001,20.794135 14.712001,23.146147 C 14.712001,25.498159 16.137526,27.427397 17.868251,27.427397 C 18.797962,27.427397 19.640437,26.86979 20.212001,25.989897 C 21.392304,28.268447 23.742144,29.833646 26.462001,29.833647 C 30.367228,29.833647 33.524499,26.627003 33.524501,22.677397 C 33.524501,18.727792 30.367228,15.521147 26.462001,15.521147 z M 23.337001,20.177397 C 24.535195,20.177396 25.493251,21.184825 25.493251,22.427397 C 25.49325,23.66997 24.535196,24.677397 23.337001,24.677397 C 22.138806,24.677396 21.149501,23.669969 21.149501,22.427397 C 21.149501,21.184825 22.138806,20.177397 23.337001,20.177397 z M 16.337001,21.302397 C 16.869532,21.302397 17.305751,22.039845 17.305751,22.927397 C 17.305752,23.814949 16.869532,24.521147 16.337001,24.521147 C 15.80447,24.521147 15.368251,23.814949 15.368251,22.927397 C 15.368251,22.039845 15.80447,21.302397 16.337001,21.302397 z"
               id="path3195" />
            <path
               style="fill:url(#linearGradient3314);fill-opacity:1;fill-rule:evenodd;stroke:none;stroke-width:1px;stroke-linecap:butt;stroke-linejoin:miter;stroke-opacity:1"
               d="M 29.424266,29.912872 C 29.955602,30.825162 30.846237,31.647628 29.745843,32.967851 C 27.671517,36.403829 20.646914,39.52686 18.169082,38.273866 C 15.69125,37.020872 16.181448,32.877984 16.882776,27.983412 C 18.10832,28.38725 18.609038,28.635416 20.259331,27.340259 C 23.621864,31.580901 26.466341,30.122917 29.424266,29.912872 z"
               id="path3217"
               sodipodi:nodetypes="cczccc" />
            <path
               style="fill:url(#linearGradient3316);fill-opacity:1;fill-rule:evenodd;stroke:none;stroke-width:1px;stroke-linecap:butt;stroke-linejoin:miter;stroke-opacity:1"
               d="M 27.494806,49.850626 L 12.059125,50.172203 C 12.937788,47.665639 16.95883,45.682805 20.259331,43.579881 C 22.117819,45.828226 22.853645,48.397331 27.494806,49.850626 z"
               id="path3247"
               sodipodi:nodetypes="cccc" />
          </g>
        </g>
        <path
           style="opacity:0.34615383000000000;fill:none;fill-rule:evenodd;stroke:url(#linearGradient3195);stroke-width:1px;stroke-linecap:butt;stroke-linejoin:miter;stroke-opacity:1"
           d="M 52.25621,36.505194 C 44.512461,34.523857 40.440032,31.625207 38.910777,27.501047"
           id="path3260"
           sodipodi:nodetypes="cc" />
        <path
           style="opacity:0.26223776;fill:none;fill-rule:evenodd;stroke:url(#linearGradient3203);stroke-width:1px;stroke-linecap:butt;stroke-linejoin:miter;stroke-opacity:1"
           d="M 42.287333,23.159762 C 45.057005,23.490002 46.695371,24.064317 48.558079,25.089222"
           id="path3262"
           sodipodi:nodetypes="cc" />
        <path
           style="opacity:0.43706294000000001;fill:url(#linearGradient3217);fill-rule:evenodd;stroke:url(#linearGradient3318);stroke-width:1px;stroke-linecap:butt;stroke-linejoin:miter;stroke-opacity:1;fill-opacity:1"
           d="M 18.008294,38.756231 C 21.438445,46.29338 25.318734,48.655566 32.640033,47.760377 C 40.119777,46.845815 45.189113,35.405098 31.192938,30.234449"
           id="path3268"
           sodipodi:nodetypes="czc" />
      </g>
    </g>
  </g>
</svg>
