<?xml version="1.0" encoding="UTF-8" standalone="no"?>
<!-- Created with Inkscape (http://www.inkscape.org/) -->
<svg
   xmlns:dc="http://purl.org/dc/elements/1.1/"
   xmlns:cc="http://creativecommons.org/ns#"
   xmlns:rdf="http://www.w3.org/1999/02/22-rdf-syntax-ns#"
   xmlns:svg="http://www.w3.org/2000/svg"
   xmlns="http://www.w3.org/2000/svg"
   xmlns:xlink="http://www.w3.org/1999/xlink"
   xmlns:sodipodi="http://sodipodi.sourceforge.net/DTD/sodipodi-0.dtd"
   xmlns:inkscape="http://www.inkscape.org/namespaces/inkscape"
   width="64"
   height="64"
   id="svg3217"
   sodipodi:version="0.32"
   inkscape:version="0.46"
   sodipodi:docname="gksu.svg"
   inkscape:output_extension="org.inkscape.output.svg.inkscape"
   version="1.0"
   style="display:inline">
  <defs
     id="defs3219">
    <linearGradient
       id="linearGradient4152">
      <stop
         style="stop-color:#ffffff;stop-opacity:1;"
         offset="0"
         id="stop4154" />
      <stop
         style="stop-color:#acabab;stop-opacity:1;"
         offset="1"
         id="stop4156" />
    </linearGradient>
    <inkscape:perspective
       sodipodi:type="inkscape:persp3d"
       inkscape:vp_x="0 : 32 : 1"
       inkscape:vp_y="0 : 1000 : 0"
       inkscape:vp_z="64 : 32 : 1"
       inkscape:persp3d-origin="32 : 21.333333 : 1"
       id="perspective3225" />
    <inkscape:perspective
       id="perspective3591"
       inkscape:persp3d-origin="372.04724 : 350.78739 : 1"
       inkscape:vp_z="744.09448 : 526.18109 : 1"
       inkscape:vp_y="0 : 1000 : 0"
       inkscape:vp_x="0 : 526.18109 : 1"
       sodipodi:type="inkscape:persp3d" />
    <linearGradient
       inkscape:collect="always"
       xlink:href="#linearGradient4152"
       id="linearGradient4166"
       x1="23.862328"
       y1="11.303422"
       x2="21.983887"
       y2="58.758259"
       gradientUnits="userSpaceOnUse" />
    <inkscape:perspective
       id="perspective2398"
       inkscape:persp3d-origin="372.04724 : 350.78739 : 1"
       inkscape:vp_z="744.09448 : 526.18109 : 1"
       inkscape:vp_y="0 : 1000 : 0"
       inkscape:vp_x="0 : 526.18109 : 1"
       sodipodi:type="inkscape:persp3d" />
    <linearGradient
       inkscape:collect="always"
       xlink:href="#linearGradient4152"
       id="linearGradient2397"
       gradientUnits="userSpaceOnUse"
       x1="23.862328"
       y1="11.303422"
       x2="21.983887"
       y2="58.758259" />
    <linearGradient
       inkscape:collect="always"
       xlink:href="#linearGradient4152"
       id="linearGradient3181"
       x1="30.922298"
       y1="3.7373753"
       x2="41.631321"
       y2="41.365002"
       gradientUnits="userSpaceOnUse" />
    <linearGradient
       inkscape:collect="always"
       xlink:href="#linearGradient4152"
       id="linearGradient3196"
       x1="27.174141"
       y1="20.561533"
       x2="35.875221"
       y2="43.853653"
       gradientUnits="userSpaceOnUse"
       gradientTransform="matrix(0.9970588,0,0,1,0.1622102,0)" />
    <linearGradient
       inkscape:collect="always"
       xlink:href="#linearGradient4152"
       id="linearGradient3208"
       x1="32.910782"
       y1="38.025593"
       x2="44.694378"
       y2="59.979084"
       gradientUnits="userSpaceOnUse" />
    <linearGradient
       inkscape:collect="always"
       xlink:href="#linearGradient4152"
       id="linearGradient12396"
       gradientUnits="userSpaceOnUse"
       gradientTransform="matrix(0.9970588,0,0,1,0.1622102,0)"
       x1="27.174141"
       y1="20.561533"
       x2="35.875221"
       y2="43.853653" />
    <linearGradient
       inkscape:collect="always"
       xlink:href="#linearGradient4152"
       id="linearGradient12398"
       gradientUnits="userSpaceOnUse"
       x1="32.910782"
       y1="38.025593"
       x2="44.694378"
       y2="59.979084" />
    <linearGradient
       inkscape:collect="always"
       xlink:href="#linearGradient4152"
       id="linearGradient12413"
       gradientUnits="userSpaceOnUse"
       gradientTransform="matrix(0.9970588,0,0,1,0.1622102,0)"
       x1="27.174141"
       y1="20.561533"
       x2="35.875221"
       y2="43.853653" />
    <linearGradient
       inkscape:collect="always"
       xlink:href="#linearGradient4152"
       id="linearGradient12415"
       gradientUnits="userSpaceOnUse"
       x1="32.910782"
       y1="38.025593"
       x2="44.694378"
       y2="59.979084" />
    <linearGradient
       inkscape:collect="always"
       xlink:href="#linearGradient4152"
       id="linearGradient12419"
       gradientUnits="userSpaceOnUse"
       x1="32.910782"
       y1="38.025593"
       x2="44.694378"
       y2="59.979084" />
    <linearGradient
       inkscape:collect="always"
       xlink:href="#linearGradient4152"
       id="linearGradient12423"
       gradientUnits="userSpaceOnUse"
       gradientTransform="matrix(0.9970588,0,0,1,0.1622102,0)"
       x1="27.174141"
       y1="20.561533"
       x2="35.875221"
       y2="43.853653" />
    <linearGradient
       inkscape:collect="always"
       xlink:href="#linearGradient4152"
       id="linearGradient12431"
       gradientUnits="userSpaceOnUse"
       x1="32.910782"
       y1="38.025593"
       x2="44.694378"
       y2="59.979084" />
    <linearGradient
       inkscape:collect="always"
       xlink:href="#linearGradient4152"
       id="linearGradient12441"
       gradientUnits="userSpaceOnUse"
       x1="32.910782"
       y1="38.025593"
       x2="44.694378"
       y2="59.979084" />
    <linearGradient
       inkscape:collect="always"
       xlink:href="#linearGradient4152"
       id="linearGradient13221"
       x1="44.159451"
       y1="12.677093"
       x2="58.636169"
       y2="38.396984"
       gradientUnits="userSpaceOnUse"
       gradientTransform="matrix(1,0,0,0.9274194,1.1358632,3.3062472)" />
    <linearGradient
       inkscape:collect="always"
       xlink:href="#linearGradient4152"
       id="linearGradient13225"
       gradientUnits="userSpaceOnUse"
       x1="44.159451"
       y1="12.677093"
       x2="58.636169"
       y2="38.396984" />
    <linearGradient
       inkscape:collect="always"
       xlink:href="#linearGradient4152"
       id="linearGradient13228"
       gradientUnits="userSpaceOnUse"
       gradientTransform="matrix(1,0,0,0.9274194,0.7572421,1.7917629)"
       x1="44.159451"
       y1="12.677093"
       x2="58.636169"
       y2="38.396984" />
    <linearGradient
       inkscape:collect="always"
       xlink:href="#linearGradient4152"
       id="linearGradient13233"
       gradientUnits="userSpaceOnUse"
       gradientTransform="matrix(1,0,0,0.9274194,-5.6793161,0.2772786)"
       x1="44.159451"
       y1="12.677093"
       x2="58.636169"
       y2="38.396984" />
    <linearGradient
       inkscape:collect="always"
       xlink:href="#linearGradient4152"
       id="linearGradient13246"
       gradientUnits="userSpaceOnUse"
       gradientTransform="matrix(0.9040871,-0.4273483,0.3963311,0.8384679,-15.653775,17.204524)"
       x1="44.159451"
       y1="12.677093"
       x2="58.636169"
       y2="38.396984" />
    <linearGradient
       inkscape:collect="always"
       xlink:href="#linearGradient4152"
       id="linearGradient13248"
       gradientUnits="userSpaceOnUse"
       x1="32.910782"
       y1="38.025593"
       x2="44.694378"
       y2="59.979084" />
    <linearGradient
       inkscape:collect="always"
       xlink:href="#linearGradient4152"
       id="linearGradient13250"
       gradientUnits="userSpaceOnUse"
       x1="32.910782"
       y1="38.025593"
       x2="44.694378"
       y2="59.979084" />
  </defs>
  <sodipodi:namedview
     id="base"
     pagecolor="#ffffff"
     bordercolor="#666666"
     borderopacity="1.0"
     inkscape:pageopacity="0.0"
     inkscape:pageshadow="2"
     inkscape:zoom="5.2823262"
     inkscape:cx="51.3433"
     inkscape:cy="13.583087"
     inkscape:current-layer="g13235"
     showgrid="false"
     inkscape:document-units="px"
     inkscape:grid-bbox="true"
     inkscape:window-width="1440"
     inkscape:window-height="850"
     inkscape:window-x="0"
     inkscape:window-y="0"
     showguides="false"
     inkscape:guide-bbox="true" />
  <metadata
     id="metadata3222">
    <rdf:RDF>
      <cc:Work
         rdf:about="">
        <dc:format>image/svg+xml</dc:format>
        <dc:type
           rdf:resource="http://purl.org/dc/dcmitype/StillImage" />
      </cc:Work>
    </rdf:RDF>
  </metadata>
  <g
     inkscape:groupmode="layer"
     id="layer4"
     style="opacity:1;display:inline" />
  <g
     inkscape:groupmode="layer"
     id="layer3"
     style="opacity:1;display:inline" />
  <g
     inkscape:groupmode="layer"
     id="layer5"
     style="display:inline">
    <g
       id="g13235">
      <g
         id="g12433"
         transform="matrix(0.9513443,-0.30813,0.30813,0.9513443,-31.153239,-1.1503641)">
        <path
           sodipodi:nodetypes="ccccsscccccz"
           id="path12435"
           d="M 61.380761,46.751481 C 62.258433,53.943144 61.405236,60.181239 46.739701,57.279994 C 45.451642,59.10085 43.759292,59.772578 42.027635,56.270265 L 21.496496,61.992058 C 20.665154,59.756668 21.846418,58.072425 23.46869,56.971355 C 23.64384,56.852477 24.024988,56.845934 24.007583,56.635155 C 23.869436,54.962148 24.827061,52.802969 25.874409,55.760098 C 26.756127,53.871201 27.317051,52.875614 28.98526,54.313984 C 29.47587,52.497379 29.784597,49.639884 32.824296,53.3463 L 39.734778,50.580059 C 39.044841,45.844016 39.861821,46.593376 42.259098,46.267638 C 48.365605,34.874144 60.503089,39.559818 61.380761,46.751481 z"
           style="fill:#4d4d4d;fill-opacity:1;fill-rule:evenodd;stroke:none;stroke-width:1px;stroke-linecap:butt;stroke-linejoin:miter;stroke-opacity:1" />
        <path
           style="fill:url(#linearGradient13250);fill-opacity:1;fill-rule:evenodd;stroke:none;stroke-width:1px;stroke-linecap:butt;stroke-linejoin:miter;stroke-opacity:1"
           d="M 60.621662,47.744998 C 61.628562,54.249505 59.518389,59.529832 46.019554,56.47089 C 44.876243,58.087125 44.043386,58.281779 42.506326,55.173041 L 22.274453,61.188881 C 21.508737,59.12995 22.775559,58.072309 24.353981,57.341042 C 24.634294,57.211176 24.49652,54.882346 24.807897,54.871483 C 25.493697,54.847558 25.755693,56.773608 26.018617,56.676561 C 26.676379,54.813705 27.370094,53.282696 29.454278,55.481548 C 29.889756,53.869086 29.743698,50.996632 32.441807,54.286536 L 40.642,50.943958 C 39.360282,47.141721 40.620903,47.570486 42.748784,47.281353 C 50.011535,35.50169 59.614762,41.240491 60.621662,47.744998 z"
           id="path12437"
           sodipodi:nodetypes="ccccsscccccz" />
        <path
           sodipodi:nodetypes="ccc"
           id="path12439"
           d="M 52.072615,42.71582 L 56.490086,54.629606 C 61.403068,52.306615 57.940046,40.649772 52.072615,42.71582 z"
           style="fill:#4d4d4d;fill-opacity:1;fill-rule:evenodd;stroke:none;stroke-width:1px;stroke-linecap:butt;stroke-linejoin:miter;stroke-opacity:1" />
      </g>
      <g
         transform="matrix(0.7939589,-0.6079714,0.6079714,0.7939589,-34.734783,24.590621)"
         id="g12426">
        <path
           style="fill:#4d4d4d;fill-opacity:1;fill-rule:evenodd;stroke:none;stroke-width:1px;stroke-linecap:butt;stroke-linejoin:miter;stroke-opacity:1"
           d="M 61.380761,46.751481 C 62.258433,53.943144 61.405236,60.181239 46.739701,57.279994 C 45.451642,59.10085 43.759292,59.772578 42.027635,56.270265 L 21.496496,61.992058 C 20.337962,58.876883 23.087992,56.832057 25.493255,55.944255 C 26.204315,53.613252 26.523428,50.954981 28.98526,54.313984 C 29.47587,52.497379 29.784597,49.639884 32.824296,53.3463 L 39.734778,50.580059 C 39.044841,45.844016 39.861821,46.593376 42.259098,46.267638 C 48.365605,34.874144 60.503089,39.559818 61.380761,46.751481 z"
           id="path3198"
           sodipodi:nodetypes="cccccccccz" />
        <path
           sodipodi:nodetypes="cccccccccz"
           id="path3200"
           d="M 60.621662,47.744998 C 61.628562,54.249505 59.518389,59.529832 46.019554,56.47089 C 44.876243,58.087125 44.043386,58.281779 42.506326,55.173041 L 22.274453,61.188881 C 21.246111,58.423777 23.883648,57.464595 26.018617,56.676561 C 26.649771,54.607506 27.269097,52.500016 29.454278,55.481548 C 29.889756,53.869086 29.743698,50.996632 32.441807,54.286536 L 40.642,50.943958 C 39.360282,47.141721 40.620903,47.570486 42.748784,47.281353 C 50.011535,35.50169 59.614762,41.240491 60.621662,47.744998 z"
           style="fill:url(#linearGradient13248);fill-opacity:1;fill-rule:evenodd;stroke:none;stroke-width:1px;stroke-linecap:butt;stroke-linejoin:miter;stroke-opacity:1" />
        <path
           style="fill:#4d4d4d;fill-opacity:1;fill-rule:evenodd;stroke:none;stroke-width:1px;stroke-linecap:butt;stroke-linejoin:miter;stroke-opacity:1"
           d="M 52.072615,42.71582 L 56.490086,54.629606 C 61.403068,52.306615 57.940046,40.649772 52.072615,42.71582 z"
           id="path3210"
           sodipodi:nodetypes="ccc" />
      </g>
      <path
         id="path12443"
         d="M 38.264407,9.0237822 C 33.678167,11.191628 31.078196,15.73908 31.391014,20.222739 L 33.897253,20.04047 C 33.589461,16.492657 35.647552,12.887689 39.279359,11.170989 C 43.861082,9.0052782 49.222951,10.708539 51.231474,14.95772 C 53.239997,19.206899 51.139358,24.403011 46.557634,26.568722 C 44.2517,27.658703 41.763076,27.755644 39.599342,27.058015 L 39.585385,29.587876 C 42.125633,30.176268 44.949313,29.95591 47.572586,28.715929 C 53.430133,25.947156 56.116009,19.295044 53.548197,13.86264 C 50.980385,8.4302352 44.121954,6.2550087 38.264407,9.0237822 z"
         style="opacity:1;fill:url(#linearGradient13246);fill-opacity:1;stroke:#4d4d4d;stroke-width:0.86199999;stroke-linejoin:round;stroke-miterlimit:4;stroke-dasharray:none;stroke-dashoffset:0;stroke-opacity:1" />
    </g>
  </g>
</svg>
