<?xml version="1.0" encoding="UTF-8" standalone="no"?>
<!-- Created with Inkscape (http://www.inkscape.org/) -->
<svg
   xmlns:dc="http://purl.org/dc/elements/1.1/"
   xmlns:cc="http://creativecommons.org/ns#"
   xmlns:rdf="http://www.w3.org/1999/02/22-rdf-syntax-ns#"
   xmlns:svg="http://www.w3.org/2000/svg"
   xmlns="http://www.w3.org/2000/svg"
   xmlns:xlink="http://www.w3.org/1999/xlink"
   xmlns:sodipodi="http://sodipodi.sourceforge.net/DTD/sodipodi-0.dtd"
   xmlns:inkscape="http://www.inkscape.org/namespaces/inkscape"
   width="48px"
   height="48px"
   id="svg2383"
   sodipodi:version="0.32"
   inkscape:version="0.46"
   sodipodi:docname="konqueror.svg"
   inkscape:output_extension="org.inkscape.output.svg.inkscape">
  <sodipodi:namedview
     id="base"
     pagecolor="#ffffff"
     bordercolor="#666666"
     borderopacity="1.0"
     inkscape:pageopacity="0.0"
     inkscape:pageshadow="2"
     inkscape:zoom="7.046985"
     inkscape:cx="25.553097"
     inkscape:cy="9.5144509"
     inkscape:current-layer="svg2383"
     showgrid="true"
     inkscape:grid-bbox="true"
     inkscape:document-units="px"
     inkscape:window-width="1440"
     inkscape:window-height="840"
     inkscape:window-x="-5"
     inkscape:window-y="-3"
     showguides="true"
     inkscape:guide-bbox="true" />
  <defs
     id="defs2385">
    <inkscape:perspective
       sodipodi:type="inkscape:persp3d"
       inkscape:vp_x="0 : 24 : 1"
       inkscape:vp_y="0 : 1000 : 0"
       inkscape:vp_z="48 : 24 : 1"
       inkscape:persp3d-origin="24 : 16 : 1"
       id="perspective2391" />
    <inkscape:perspective
       id="perspective2400"
       inkscape:persp3d-origin="372.04724 : 350.78739 : 1"
       inkscape:vp_z="744.09448 : 526.18109 : 1"
       inkscape:vp_y="0 : 1000 : 0"
       inkscape:vp_x="0 : 526.18109 : 1"
       sodipodi:type="inkscape:persp3d" />
    <linearGradient
       gradientUnits="userSpaceOnUse"
       y2="62.322315"
       x2="58.237587"
       y1="11.289592"
       x1="33.390312"
       id="linearGradient3181"
       xlink:href="#linearGradient4152"
       inkscape:collect="always" />
    <linearGradient
       y2="55.665409"
       x2="39.18634"
       y1="17.683659"
       x1="37.414642"
       gradientUnits="userSpaceOnUse"
       id="linearGradient3220"
       xlink:href="#linearGradient4152"
       inkscape:collect="always" />
    <linearGradient
       gradientUnits="userSpaceOnUse"
       y2="55.665409"
       x2="39.18634"
       y1="17.683659"
       x1="37.414642"
       id="linearGradient3208"
       xlink:href="#linearGradient4152"
       inkscape:collect="always" />
    <inkscape:perspective
       sodipodi:type="inkscape:persp3d"
       inkscape:vp_x="0 : 526.18109 : 1"
       inkscape:vp_y="0 : 1000 : 0"
       inkscape:vp_z="744.09448 : 526.18109 : 1"
       inkscape:persp3d-origin="372.04724 : 350.78739 : 1"
       id="perspective2398" />
    <linearGradient
       gradientUnits="userSpaceOnUse"
       y2="58.758259"
       x2="21.983887"
       y1="11.303422"
       x1="23.862328"
       id="linearGradient4166"
       xlink:href="#linearGradient4152"
       inkscape:collect="always" />
    <inkscape:perspective
       sodipodi:type="inkscape:persp3d"
       inkscape:vp_x="0 : 526.18109 : 1"
       inkscape:vp_y="0 : 1000 : 0"
       inkscape:vp_z="744.09448 : 526.18109 : 1"
       inkscape:persp3d-origin="372.04724 : 350.78739 : 1"
       id="perspective3591" />
    <inkscape:perspective
       id="perspective3225"
       inkscape:persp3d-origin="32 : 21.333333 : 1"
       inkscape:vp_z="64 : 32 : 1"
       inkscape:vp_y="0 : 1000 : 0"
       inkscape:vp_x="0 : 32 : 1"
       sodipodi:type="inkscape:persp3d" />
    <linearGradient
       id="linearGradient4152">
      <stop
         id="stop4154"
         offset="0"
         style="stop-color:#ffffff;stop-opacity:1;" />
      <stop
         id="stop4156"
         offset="1"
         style="stop-color:#acabab;stop-opacity:1;" />
    </linearGradient>
    <linearGradient
       id="linearGradient3210">
      <stop
         style="stop-color:#ffffff;stop-opacity:0"
         offset="0"
         id="stop3212" />
      <stop
         style="stop-color:#acabab;stop-opacity:1;"
         offset="1"
         id="stop3214" />
    </linearGradient>
    <linearGradient
       inkscape:collect="always"
       xlink:href="#linearGradient4152"
       id="linearGradient3209"
       x1="6.3941975"
       y1="5.4199681"
       x2="34.530388"
       y2="45.248993"
       gradientUnits="userSpaceOnUse" />
    <linearGradient
       inkscape:collect="always"
       xlink:href="#linearGradient4152"
       id="linearGradient4031"
       x1="32.28331"
       y1="0.67479652"
       x2="36.951881"
       y2="34.859535"
       gradientUnits="userSpaceOnUse" />
  </defs>
  <metadata
     id="metadata2388">
    <rdf:RDF>
      <cc:Work
         rdf:about="">
        <dc:format>image/svg+xml</dc:format>
        <dc:type
           rdf:resource="http://purl.org/dc/dcmitype/StillImage" />
      </cc:Work>
    </rdf:RDF>
  </metadata>
  <g
     id="layer1"
     inkscape:label="Layer 1"
     inkscape:groupmode="layer" />
  <g
     id="g4037">
    <g
       transform="translate(0.140625,0.140625)"
       id="g4019">
      <path
         style="fill:#4d4d4d;fill-opacity:1;stroke:none"
         d="M 20.46875,1.8125 L 12.28125,4.78125 L 14.5625,9.9375 L 10.78125,13.40625 L 5.84375,10.6875 L 2.1875,18.5625 L 7.4375,20.59375 L 7.21875,25.6875 L 1.8125,27.25 L 4.78125,35.4375 L 9.9375,33.15625 L 13.375,36.9375 L 10.65625,41.875 L 18.53125,45.53125 L 20.5625,40.28125 L 25.6875,40.5 L 27.25,45.90625 L 35.4375,42.9375 L 33.125,37.78125 L 36.90625,34.34375 L 41.84375,37.0625 L 45.53125,29.1875 L 40.25,27.15625 L 40.46875,22.03125 L 45.90625,20.46875 L 42.9375,12.28125 L 37.78125,14.59375 L 34.3125,10.8125 L 37.03125,5.875 L 29.15625,2.1875 L 27.125,7.46875 L 22.03125,7.25 L 20.46875,1.8125 z M 23.84375,12.875 C 29.914431,12.875 34.84375,17.804318 34.84375,23.875 C 34.843751,29.945681 29.914432,34.875 23.84375,34.875 C 17.773068,34.874999 12.84375,29.945682 12.84375,23.875 C 12.84375,17.804318 17.773068,12.875 23.84375,12.875 z"
         id="path3961" />
      <path
         style="fill:#4d4d4d;fill-opacity:1;stroke:none;stroke-width:2.0999999;stroke-linecap:butt;stroke-linejoin:round;stroke-miterlimit:4;stroke-dasharray:none;stroke-dashoffset:0;stroke-opacity:1"
         d="M 23.875,6.90625 C 14.514401,6.90625 6.90625,14.514401 6.90625,23.875 C 6.90625,33.235599 14.5144,40.812501 23.875,40.8125 C 33.235599,40.8125 40.8125,33.2356 40.8125,23.875 C 40.8125,14.514401 33.235599,6.9062501 23.875,6.90625 z M 23.65625,12.65625 C 29.726931,12.65625 34.65625,17.585568 34.65625,23.65625 C 34.656251,29.726931 29.726932,34.65625 23.65625,34.65625 C 17.585568,34.656249 12.65625,29.726932 12.65625,23.65625 C 12.65625,17.585568 17.585568,12.65625 23.65625,12.65625 z"
         id="path4001" />
    </g>
    <path
       transform="translate(-3.8314258,0.5676186)"
       d="M 46.970442,19.122402 A 14.687132,14.687132 0 1 1 17.596178,19.122402 A 14.687132,14.687132 0 1 1 46.970442,19.122402 z"
       sodipodi:ry="14.687132"
       sodipodi:rx="14.687132"
       sodipodi:cy="19.122402"
       sodipodi:cx="32.28331"
       id="path4023"
       style="opacity:1;fill:url(#linearGradient4031);fill-opacity:1;stroke:#4d4d4d;stroke-width:1.2;stroke-linecap:butt;stroke-linejoin:round;stroke-miterlimit:4;stroke-dasharray:none;stroke-dashoffset:0;stroke-opacity:1"
       sodipodi:type="arc" />
    <path
       sodipodi:nodetypes="csc"
       id="path4033"
       d="M 13.197133,17.632403 C 7.8218695,23.417173 18.71789,30.240499 26.520787,30.53859 C 36.126988,30.905571 48.25726,27.305724 42.997112,22.882875"
       style="opacity:1;fill:none;fill-opacity:1;stroke:#4d4d4d;stroke-width:1.20000005000000010;stroke-linecap:butt;stroke-linejoin:round;stroke-miterlimit:4;stroke-dasharray:none;stroke-dashoffset:0;stroke-opacity:1" />
    <path
       style="opacity:1;fill:none;fill-opacity:1;stroke:#4d4d4d;stroke-width:1.20000005;stroke-linecap:butt;stroke-linejoin:round;stroke-miterlimit:4;stroke-dasharray:none;stroke-dashoffset:0;stroke-opacity:1"
       d="M 12.131967,18.088893 C 9.5613547,25.555417 22.28752,27.37908 29.542083,24.490243 C 38.473225,20.933774 47.821015,12.444194 40.794286,10.957487"
       id="path4035"
       sodipodi:nodetypes="csc" />
  </g>
</svg>
