<?xml version="1.0" encoding="UTF-8" standalone="no"?>
<!-- Created with Inkscape (http://www.inkscape.org/) -->
<svg
   xmlns:dc="http://purl.org/dc/elements/1.1/"
   xmlns:cc="http://creativecommons.org/ns#"
   xmlns:rdf="http://www.w3.org/1999/02/22-rdf-syntax-ns#"
   xmlns:svg="http://www.w3.org/2000/svg"
   xmlns="http://www.w3.org/2000/svg"
   xmlns:xlink="http://www.w3.org/1999/xlink"
   xmlns:sodipodi="http://sodipodi.sourceforge.net/DTD/sodipodi-0.dtd"
   xmlns:inkscape="http://www.inkscape.org/namespaces/inkscape"
   width="64"
   height="64"
   id="svg3217"
   sodipodi:version="0.32"
   inkscape:version="0.46"
   sodipodi:docname="mirage.svg"
   inkscape:output_extension="org.inkscape.output.svg.inkscape"
   version="1.0"
   style="display:inline">
  <defs
     id="defs3219">
    <linearGradient
       id="linearGradient3210">
      <stop
         id="stop3212"
         offset="0"
         style="stop-color:#ffffff;stop-opacity:0" />
      <stop
         id="stop3214"
         offset="1"
         style="stop-color:#acabab;stop-opacity:1;" />
    </linearGradient>
    <linearGradient
       id="linearGradient4152">
      <stop
         style="stop-color:#ffffff;stop-opacity:1;"
         offset="0"
         id="stop4154" />
      <stop
         style="stop-color:#acabab;stop-opacity:1;"
         offset="1"
         id="stop4156" />
    </linearGradient>
    <inkscape:perspective
       sodipodi:type="inkscape:persp3d"
       inkscape:vp_x="0 : 32 : 1"
       inkscape:vp_y="0 : 1000 : 0"
       inkscape:vp_z="64 : 32 : 1"
       inkscape:persp3d-origin="32 : 21.333333 : 1"
       id="perspective3225" />
    <inkscape:perspective
       id="perspective3591"
       inkscape:persp3d-origin="372.04724 : 350.78739 : 1"
       inkscape:vp_z="744.09448 : 526.18109 : 1"
       inkscape:vp_y="0 : 1000 : 0"
       inkscape:vp_x="0 : 526.18109 : 1"
       sodipodi:type="inkscape:persp3d" />
    <linearGradient
       inkscape:collect="always"
       xlink:href="#linearGradient4152"
       id="linearGradient4166"
       x1="23.862328"
       y1="11.303422"
       x2="21.983887"
       y2="58.758259"
       gradientUnits="userSpaceOnUse" />
    <inkscape:perspective
       id="perspective2398"
       inkscape:persp3d-origin="372.04724 : 350.78739 : 1"
       inkscape:vp_z="744.09448 : 526.18109 : 1"
       inkscape:vp_y="0 : 1000 : 0"
       inkscape:vp_x="0 : 526.18109 : 1"
       sodipodi:type="inkscape:persp3d" />
    <linearGradient
       inkscape:collect="always"
       xlink:href="#linearGradient4152"
       id="linearGradient3208"
       x1="37.414642"
       y1="17.683659"
       x2="39.18634"
       y2="55.665409"
       gradientUnits="userSpaceOnUse" />
    <linearGradient
       gradientUnits="userSpaceOnUse"
       y2="-52.35125"
       x2="206.95113"
       y1="298.58011"
       x1="216.66357"
       id="linearGradient5636"
       xlink:href="#linearGradient5630"
       inkscape:collect="always" />
    <inkscape:perspective
       sodipodi:type="inkscape:persp3d"
       inkscape:vp_x="0 : 526.18109 : 1"
       inkscape:vp_y="0 : 1000 : 0"
       inkscape:vp_z="744.09448 : 526.18109 : 1"
       inkscape:persp3d-origin="372.04724 : 350.78739 : 1"
       id="perspective4908" />
    <inkscape:perspective
       id="perspective4132"
       inkscape:persp3d-origin="372.04724 : 350.78739 : 1"
       inkscape:vp_z="744.09448 : 526.18109 : 1"
       inkscape:vp_y="0 : 1000 : 0"
       inkscape:vp_x="0 : 526.18109 : 1"
       sodipodi:type="inkscape:persp3d" />
    <linearGradient
       id="linearGradient5630">
      <stop
         id="stop5632"
         offset="0"
         style="stop-color:#999999;stop-opacity:1;" />
      <stop
         id="stop5634"
         offset="1"
         style="stop-color:#ffffff;stop-opacity:1;" />
    </linearGradient>
    <linearGradient
       inkscape:collect="always"
       xlink:href="#linearGradient4152"
       id="linearGradient3379"
       x1="34.944939"
       y1="3.7400925"
       x2="33.936222"
       y2="56.461449"
       gradientUnits="userSpaceOnUse" />
    <linearGradient
       inkscape:collect="always"
       xlink:href="#linearGradient4152"
       id="linearGradient3407"
       gradientUnits="userSpaceOnUse"
       x1="34.944939"
       y1="3.7400925"
       x2="33.936222"
       y2="56.461449" />
    <linearGradient
       inkscape:collect="always"
       xlink:href="#linearGradient4152"
       id="linearGradient3409"
       gradientUnits="userSpaceOnUse"
       x1="34.944939"
       y1="3.7400925"
       x2="33.936222"
       y2="56.461449" />
    <linearGradient
       inkscape:collect="always"
       xlink:href="#linearGradient4152"
       id="linearGradient3411"
       gradientUnits="userSpaceOnUse"
       x1="34.944939"
       y1="3.7400925"
       x2="33.936222"
       y2="56.461449" />
  </defs>
  <sodipodi:namedview
     id="base"
     pagecolor="#ffffff"
     bordercolor="#666666"
     borderopacity="1.0"
     inkscape:pageopacity="0.0"
     inkscape:pageshadow="2"
     inkscape:zoom="3.9856894"
     inkscape:cx="80.202137"
     inkscape:cy="34.977507"
     inkscape:current-layer="layer3"
     showgrid="true"
     inkscape:document-units="px"
     inkscape:grid-bbox="true"
     inkscape:window-width="1069"
     inkscape:window-height="839"
     inkscape:window-x="344"
     inkscape:window-y="48"
     showguides="true"
     inkscape:guide-bbox="true" />
  <metadata
     id="metadata3222">
    <rdf:RDF>
      <cc:Work
         rdf:about="">
        <dc:format>image/svg+xml</dc:format>
        <dc:type
           rdf:resource="http://purl.org/dc/dcmitype/StillImage" />
      </cc:Work>
    </rdf:RDF>
  </metadata>
  <g
     inkscape:groupmode="layer"
     id="layer3"
     style="opacity:1;display:inline">
    <g
       id="g3401"
       transform="matrix(1.4540931,0,0,1.4540931,-16.510267,-10.289339)">
      <path
         sodipodi:nodetypes="cccccccccccccccsccccc"
         id="path3347"
         d="M 11.554029,42.849183 C 9.5533427,53.587273 59.258281,52.073725 53.274218,42.922703 C 50.84455,39.428531 45.765074,36.577672 37.264747,35.852013 C 36.411632,33.112061 40.185949,30.877039 37.627941,29.534247 C 37.949545,28.436689 38.336737,27.39053 38.776358,26.804368 C 40.013326,25.323198 38.371921,25.34963 38.274201,24.578115 C 38.667374,23.746413 39.999656,21.920505 39.568191,21.41446 C 38.907676,20.718049 39.252865,20.600885 39.494671,19.910923 C 42.992181,25.272708 44.334727,26.519219 45.238229,29.963618 C 47.518249,25.968185 47.645433,21.593466 46.309456,18.251538 C 49.631888,19.63504 52.881546,21.912928 55.144618,25.155261 C 54.224531,1.7811827 19.980206,2.8664785 17.233611,22.854754 C 19.751376,20.875904 22.192086,19.381897 25.274739,18.546351 C 23.870739,22.327776 24.209537,25.20978 25.346056,27.809417 C 27.002441,25.12686 28.410289,21.121681 31.163868,19.906519 C 31.061323,21.337157 31.42986,22.989859 31.51972,23.573799 C 31.711928,24.822832 30.818729,23.858335 30.518342,24.650901 C 29.935131,26.055752 30.918884,26.94764 30.877131,29.032088 C 29.38421,29.51629 29.29567,29.895888 29.727979,31.762701 C 29.926861,33.601796 31.102113,34.767255 28.866298,35.349122 C 15.402768,37.917416 12.370719,39.1793 11.554029,42.849183 z"
         style="fill:#4d4d4d;fill-rule:evenodd;stroke:none;stroke-width:1px;stroke-linecap:butt;stroke-linejoin:miter;stroke-opacity:1" />
      <g
         style="fill:url(#linearGradient3411);fill-opacity:1"
         id="g3369">
        <path
           style="fill:url(#linearGradient3407);fill-opacity:1;fill-rule:evenodd;stroke:none;stroke-width:1px;stroke-linecap:butt;stroke-linejoin:miter;stroke-opacity:1"
           d="M 27.235438,17.022473 C 24.088231,17.399352 21.830177,18.352397 18.877474,20.192735 C 20.965432,13.83648 28.072842,9.5250278 35.4493,8.6645072 C 44.29234,8.1919449 53.253539,14.503396 53.894464,22.282227 C 50.128391,18.459641 48.100941,17.381973 44.527779,16.446061 C 45.383323,19.766499 46.937018,22.537726 45.392397,27.03762 C 43.632504,23.176388 42.185593,21.216434 38.97982,18.031192 C 38.564822,21.85881 36.93318,26.235734 35.016992,29.487368 C 32.004508,25.984204 31.948989,22.433733 31.774678,18.103244 C 28.553614,19.969876 27.115833,22.103245 25.578255,25.740694 C 24.953716,22.256405 25.863087,20.086419 27.235438,17.022473 z"
           id="path3349"
           sodipodi:nodetypes="ccccccccccc" />
        <path
           style="fill:url(#linearGradient3409);fill-opacity:1;fill-rule:evenodd;stroke:none;stroke-width:1px;stroke-linecap:butt;stroke-linejoin:miter;stroke-opacity:1"
           d="M 37.826997,37.052768 C 41.677963,37.366884 49.530844,39.514182 52.021127,42.960984 C 56.854155,50.894311 12.677622,51.673981 12.320793,43.177139 C 12.424445,39.022688 23.888652,37.496091 28.604414,36.548408 C 30.295164,36.304293 29.654228,36.370965 29.869881,38.445758 C 29.998762,39.685717 30.445487,42.360706 32.610835,42.570902 C 35.674291,42.868279 36.211751,41.11884 36.734996,39.209688 C 37.284631,37.204247 37.210053,37.024819 37.826997,37.052768 z"
           id="path3367"
           sodipodi:nodetypes="ccccsssc" />
      </g>
    </g>
  </g>
</svg>
