<?xml version="1.0" encoding="UTF-8" standalone="no"?>
<svg
   xmlns:dc="http://purl.org/dc/elements/1.1/"
   xmlns:cc="http://creativecommons.org/ns#"
   xmlns:rdf="http://www.w3.org/1999/02/22-rdf-syntax-ns#"
   xmlns:svg="http://www.w3.org/2000/svg"
   xmlns="http://www.w3.org/2000/svg"
   xmlns:xlink="http://www.w3.org/1999/xlink"
   xmlns:sodipodi="http://sodipodi.sourceforge.net/DTD/sodipodi-0.dtd"
   xmlns:inkscape="http://www.inkscape.org/namespaces/inkscape"
   sodipodi:docname="preferences-desktop-screensaver.svg"
   sodipodi:version="0.32"
   height="48"
   width="48"
   _SVGFile__filename="scalable/apps/abiword.svg"
   version="1.0"
   y="0"
   x="0"
   inkscape:version="0.46"
   id="svg1"
   sodipodi:docbase="/home/qwerty/.icons/qw3rtY_old/48x48/apps"
   inkscape:output_extension="org.inkscape.output.svg.inkscape">
  <sodipodi:namedview
     bordercolor="#666666"
     inkscape:pageshadow="2"
     inkscape:window-y="153"
     pagecolor="#ffffff"
     inkscape:window-height="716"
     inkscape:zoom="6.5059605"
     inkscape:window-x="403"
     borderopacity="1.0"
     inkscape:cx="33.287092"
     inkscape:cy="18.556497"
     inkscape:window-width="1016"
     inkscape:pageopacity="0.0"
     id="base"
     width="48px"
     height="48px"
     showgrid="true"
     objecttolerance="10000"
     gridtolerance="10000"
     guidetolerance="10000"
     inkscape:current-layer="svg1" />
  <defs
     id="defs3">
    <inkscape:perspective
       sodipodi:type="inkscape:persp3d"
       inkscape:vp_x="0 : 24 : 1"
       inkscape:vp_y="0 : 1000 : 0"
       inkscape:vp_z="48 : 24 : 1"
       inkscape:persp3d-origin="24 : 16 : 1"
       id="perspective15" />
    <linearGradient
       id="linearGradient900">
      <stop
         style="stop-color:#000;stop-opacity:1;"
         id="stop901"
         offset="0" />
      <stop
         style="stop-color:#fff;stop-opacity:1;"
         id="stop902"
         offset="1" />
    </linearGradient>
    <linearGradient
       xlink:href="#linearGradient900"
       id="linearGradient903" />
    <linearGradient
       xlink:href="#linearGradient900"
       id="linearGradient904" />
    <linearGradient
       xlink:href="#linearGradient900"
       id="linearGradient905" />
    <linearGradient
       xlink:href="#linearGradient900"
       id="linearGradient906" />
    <linearGradient
       xlink:href="#linearGradient900"
       id="linearGradient907" />
    <linearGradient
       inkscape:collect="always"
       xlink:href="#linearGradient4152"
       id="linearGradient3164"
       x1="12.622301"
       y1="4.0000003e-08"
       x2="32.323917"
       y2="43.340622"
       gradientUnits="userSpaceOnUse"
       gradientTransform="matrix(0.9236555,0,0,0.9236555,2.035855,2.035855)" />
    <linearGradient
       gradientUnits="userSpaceOnUse"
       y2="31.392906"
       x2="62.151173"
       y1="31.392906"
       x1="44.876583"
       id="linearGradient3624"
       xlink:href="#linearGradient4152"
       inkscape:collect="always" />
    <linearGradient
       gradientTransform="matrix(0.8273624,0,0,0.8682416,1.4733583,4.1359029)"
       gradientUnits="userSpaceOnUse"
       y2="29.44434"
       x2="16.037794"
       y1="29.44434"
       x1="3.9041464"
       id="linearGradient3600"
       xlink:href="#linearGradient4152"
       inkscape:collect="always" />
    <linearGradient
       gradientUnits="userSpaceOnUse"
       y2="21.462198"
       x2="41.408092"
       y1="21.462198"
       x1="28.451471"
       id="linearGradient3590"
       xlink:href="#linearGradient4152"
       inkscape:collect="always" />
    <linearGradient
       gradientUnits="userSpaceOnUse"
       y2="18.085072"
       x2="56.356224"
       y1="18.085072"
       x1="49.529224"
       id="linearGradient3568"
       xlink:href="#linearGradient4152"
       inkscape:collect="always" />
    <linearGradient
       gradientUnits="userSpaceOnUse"
       y2="28.459436"
       x2="60.773697"
       y1="28.459436"
       x1="51.537163"
       id="linearGradient3558"
       xlink:href="#linearGradient4152"
       inkscape:collect="always" />
    <linearGradient
       gradientUnits="userSpaceOnUse"
       y2="16.077129"
       x2="36.678398"
       y1="6.0374222"
       x1="30.654573"
       id="linearGradient3548"
       xlink:href="#linearGradient4152"
       inkscape:collect="always" />
    <linearGradient
       gradientUnits="userSpaceOnUse"
       y2="17.01417"
       x2="51.537163"
       y1="17.01417"
       x1="33.733418"
       id="linearGradient3538"
       xlink:href="#linearGradient4152"
       inkscape:collect="always" />
    <linearGradient
       gradientUnits="userSpaceOnUse"
       y2="18.218935"
       x2="19.543964"
       y1="14.203053"
       x1="11.110609"
       id="linearGradient3528"
       xlink:href="#linearGradient4152"
       inkscape:collect="always" />
    <linearGradient
       gradientUnits="userSpaceOnUse"
       y2="17.884277"
       x2="31.725475"
       y1="17.884277"
       x1="17.536022"
       id="linearGradient3510"
       xlink:href="#linearGradient4152"
       inkscape:collect="always" />
    <linearGradient
       gradientUnits="userSpaceOnUse"
       y2="23.506514"
       x2="10.842884"
       y1="23.506514"
       x1="3.0788436"
       id="linearGradient3498"
       xlink:href="#linearGradient4152"
       inkscape:collect="always" />
    <linearGradient
       gradientTransform="matrix(0.9903846,0,0,1.0662252,0.1119814,-2.4210683)"
       gradientUnits="userSpaceOnUse"
       y2="57.775383"
       x2="35.875221"
       y1="30.19965"
       x1="35.607494"
       id="linearGradient3371"
       xlink:href="#linearGradient4152"
       inkscape:collect="always" />
    <linearGradient
       gradientUnits="userSpaceOnUse"
       y2="15.943267"
       x2="50.563087"
       y1="14.738502"
       x1="9.9428835"
       id="linearGradient3361"
       xlink:href="#linearGradient4152"
       inkscape:collect="always" />
    <linearGradient
       gradientUnits="userSpaceOnUse"
       y2="30.795204"
       x2="40.254993"
       y1="25.604765"
       x1="18.582514"
       id="linearGradient3353"
       xlink:href="#linearGradient4152"
       inkscape:collect="always" />
    <linearGradient
       y2="58.758259"
       x2="21.983887"
       y1="11.303422"
       x1="23.862328"
       gradientUnits="userSpaceOnUse"
       id="linearGradient2397"
       xlink:href="#linearGradient4152"
       inkscape:collect="always" />
    <inkscape:perspective
       sodipodi:type="inkscape:persp3d"
       inkscape:vp_x="0 : 526.18109 : 1"
       inkscape:vp_y="0 : 1000 : 0"
       inkscape:vp_z="744.09448 : 526.18109 : 1"
       inkscape:persp3d-origin="372.04724 : 350.78739 : 1"
       id="perspective2398" />
    <linearGradient
       gradientUnits="userSpaceOnUse"
       y2="58.758259"
       x2="21.983887"
       y1="11.303422"
       x1="23.862328"
       id="linearGradient4166"
       xlink:href="#linearGradient4152"
       inkscape:collect="always" />
    <inkscape:perspective
       sodipodi:type="inkscape:persp3d"
       inkscape:vp_x="0 : 526.18109 : 1"
       inkscape:vp_y="0 : 1000 : 0"
       inkscape:vp_z="744.09448 : 526.18109 : 1"
       inkscape:persp3d-origin="372.04724 : 350.78739 : 1"
       id="perspective3591" />
    <inkscape:perspective
       id="perspective3225"
       inkscape:persp3d-origin="32 : 21.333333 : 1"
       inkscape:vp_z="64 : 32 : 1"
       inkscape:vp_y="0 : 1000 : 0"
       inkscape:vp_x="0 : 32 : 1"
       sodipodi:type="inkscape:persp3d" />
    <linearGradient
       id="linearGradient4152">
      <stop
         id="stop4154"
         offset="0"
         style="stop-color:#ffffff;stop-opacity:1;" />
      <stop
         id="stop4156"
         offset="1"
         style="stop-color:#acabab;stop-opacity:1;" />
    </linearGradient>
    <inkscape:perspective
       id="perspective2416"
       inkscape:persp3d-origin="372.04724 : 350.78739 : 1"
       inkscape:vp_z="744.09448 : 526.18109 : 1"
       inkscape:vp_y="0 : 1000 : 0"
       inkscape:vp_x="0 : 526.18109 : 1"
       sodipodi:type="inkscape:persp3d" />
    <filter
       inkscape:collect="always"
       id="filter3444"
       x="-0.22044903"
       width="1.4408981"
       y="-0.082776052"
       height="1.1655521">
      <feGaussianBlur
         inkscape:collect="always"
         stdDeviation="0.69175346"
         id="feGaussianBlur3446" />
    </filter>
    <filter
       inkscape:collect="always"
       id="filter3448"
       x="-0.27327468"
       width="1.5465494"
       y="-0.079547906"
       height="1.1590958">
      <feGaussianBlur
         inkscape:collect="always"
         stdDeviation="0.69175346"
         id="feGaussianBlur3450" />
    </filter>
    <filter
       inkscape:collect="always"
       id="filter3452"
       x="-0.10589481"
       width="1.2117896"
       y="-0.10322589"
       height="1.2064518">
      <feGaussianBlur
         inkscape:collect="always"
         stdDeviation="0.69175346"
         id="feGaussianBlur3454" />
    </filter>
    <linearGradient
       y2="29.430996"
       x2="19.362156"
       y1="24.904778"
       x1="16.62129"
       gradientUnits="userSpaceOnUse"
       id="linearGradient3666"
       xlink:href="#linearGradient3430"
       inkscape:collect="always" />
    <linearGradient
       gradientUnits="userSpaceOnUse"
       y2="38.947701"
       x2="30.518665"
       y1="25.87711"
       x1="30.315365"
       id="linearGradient3270"
       xlink:href="#linearGradient3264"
       inkscape:collect="always" />
    <linearGradient
       gradientUnits="userSpaceOnUse"
       y2="38.947701"
       x2="34.591988"
       y1="25.89934"
       x1="34.388687"
       id="linearGradient3262"
       xlink:href="#linearGradient3256"
       inkscape:collect="always" />
    <linearGradient
       y2="50.702427"
       x2="31.613102"
       y1="21.033102"
       x1="35.946201"
       gradientTransform="matrix(1.0831966,0,0,1.0680628,-2.1741718,-0.998459)"
       gradientUnits="userSpaceOnUse"
       id="linearGradient2415"
       xlink:href="#linearGradient4152"
       inkscape:collect="always" />
    <linearGradient
       y2="53.838646"
       x2="31.613102"
       y1="11.813293"
       x1="34.623875"
       gradientTransform="matrix(1.0831966,0,0,1.0680628,-2.1741718,-0.998459)"
       gradientUnits="userSpaceOnUse"
       id="linearGradient3517"
       xlink:href="#linearGradient4152"
       inkscape:collect="always" />
    <linearGradient
       y2="53.838646"
       x2="31.613102"
       y1="11.813293"
       x1="34.623875"
       gradientTransform="matrix(1.0831966,0,0,1.0680628,-2.1741718,-0.998459)"
       gradientUnits="userSpaceOnUse"
       id="linearGradient3508"
       xlink:href="#linearGradient4152"
       inkscape:collect="always" />
    <linearGradient
       y2="53.838646"
       x2="31.613102"
       y1="11.813293"
       x1="34.623875"
       gradientTransform="matrix(1.0548523,0,0,1.0680628,-1.3645867,-0.998459)"
       gradientUnits="userSpaceOnUse"
       id="linearGradient3483"
       xlink:href="#linearGradient4152"
       inkscape:collect="always" />
    <linearGradient
       id="linearGradient3430">
      <stop
         style="stop-color:#ffffff;stop-opacity:1;"
         offset="0"
         id="stop3432" />
      <stop
         style="stop-color:#acabab;stop-opacity:1;"
         offset="1"
         id="stop3434" />
    </linearGradient>
    <inkscape:perspective
       sodipodi:type="inkscape:persp3d"
       inkscape:vp_x="0 : 32 : 1"
       inkscape:vp_y="0 : 1000 : 0"
       inkscape:vp_z="64 : 32 : 1"
       inkscape:persp3d-origin="32 : 21.333333 : 1"
       id="perspective3436" />
    <inkscape:perspective
       id="perspective3438"
       inkscape:persp3d-origin="372.04724 : 350.78739 : 1"
       inkscape:vp_z="744.09448 : 526.18109 : 1"
       inkscape:vp_y="0 : 1000 : 0"
       inkscape:vp_x="0 : 526.18109 : 1"
       sodipodi:type="inkscape:persp3d" />
    <linearGradient
       inkscape:collect="always"
       xlink:href="#linearGradient4152"
       id="linearGradient3440"
       x1="23.862328"
       y1="11.303422"
       x2="21.983887"
       y2="58.758259"
       gradientUnits="userSpaceOnUse" />
    <inkscape:perspective
       id="perspective3442"
       inkscape:persp3d-origin="372.04724 : 350.78739 : 1"
       inkscape:vp_z="744.09448 : 526.18109 : 1"
       inkscape:vp_y="0 : 1000 : 0"
       inkscape:vp_x="0 : 526.18109 : 1"
       sodipodi:type="inkscape:persp3d" />
    <linearGradient
       y2="56.461449"
       x2="33.936222"
       y1="3.7400925"
       x1="34.944939"
       gradientUnits="userSpaceOnUse"
       id="linearGradient3411"
       xlink:href="#linearGradient4152"
       inkscape:collect="always" />
    <linearGradient
       gradientUnits="userSpaceOnUse"
       y2="56.461449"
       x2="33.936222"
       y1="3.7400925"
       x1="34.944939"
       id="linearGradient3379"
       xlink:href="#linearGradient4152"
       inkscape:collect="always" />
    <linearGradient
       id="linearGradient5630">
      <stop
         style="stop-color:#999999;stop-opacity:1;"
         offset="0"
         id="stop5632" />
      <stop
         style="stop-color:#ffffff;stop-opacity:1;"
         offset="1"
         id="stop5634" />
    </linearGradient>
    <inkscape:perspective
       sodipodi:type="inkscape:persp3d"
       inkscape:vp_x="0 : 526.18109 : 1"
       inkscape:vp_y="0 : 1000 : 0"
       inkscape:vp_z="744.09448 : 526.18109 : 1"
       inkscape:persp3d-origin="372.04724 : 350.78739 : 1"
       id="perspective4132" />
    <inkscape:perspective
       id="perspective4908"
       inkscape:persp3d-origin="372.04724 : 350.78739 : 1"
       inkscape:vp_z="744.09448 : 526.18109 : 1"
       inkscape:vp_y="0 : 1000 : 0"
       inkscape:vp_x="0 : 526.18109 : 1"
       sodipodi:type="inkscape:persp3d" />
    <linearGradient
       inkscape:collect="always"
       xlink:href="#linearGradient5630"
       id="linearGradient5636"
       x1="216.66357"
       y1="298.58011"
       x2="206.95113"
       y2="-52.35125"
       gradientUnits="userSpaceOnUse" />
    <linearGradient
       gradientUnits="userSpaceOnUse"
       y2="55.665409"
       x2="39.18634"
       y1="17.683659"
       x1="37.414642"
       id="linearGradient3208"
       xlink:href="#linearGradient4152"
       inkscape:collect="always" />
    <inkscape:perspective
       sodipodi:type="inkscape:persp3d"
       inkscape:vp_x="0 : 526.18109 : 1"
       inkscape:vp_y="0 : 1000 : 0"
       inkscape:vp_z="744.09448 : 526.18109 : 1"
       inkscape:persp3d-origin="372.04724 : 350.78739 : 1"
       id="perspective3636" />
    <inkscape:perspective
       sodipodi:type="inkscape:persp3d"
       inkscape:vp_x="0 : 526.18109 : 1"
       inkscape:vp_y="0 : 1000 : 0"
       inkscape:vp_z="744.09448 : 526.18109 : 1"
       inkscape:persp3d-origin="372.04724 : 350.78739 : 1"
       id="perspective3634" />
    <inkscape:perspective
       id="perspective3632"
       inkscape:persp3d-origin="32 : 21.333333 : 1"
       inkscape:vp_z="64 : 32 : 1"
       inkscape:vp_y="0 : 1000 : 0"
       inkscape:vp_x="0 : 32 : 1"
       sodipodi:type="inkscape:persp3d" />
    <linearGradient
       id="linearGradient3626"
       x1="15.110802"
       y1="27.167887"
       x2="22.343666"
       y2="27.167887"
       gradientUnits="userSpaceOnUse">
      <stop
         id="stop3628"
         offset="0"
         style="stop-color:#ffffff;stop-opacity:1;" />
      <stop
         id="stop3630"
         offset="1"
         style="stop-color:#acabab;stop-opacity:0;" />
    </linearGradient>
    <linearGradient
       id="linearGradient3210">
      <stop
         style="stop-color:#ffffff;stop-opacity:0"
         offset="0"
         id="stop3212" />
      <stop
         style="stop-color:#acabab;stop-opacity:1;"
         offset="1"
         id="stop3214" />
    </linearGradient>
    <linearGradient
       id="linearGradient3248">
      <stop
         id="stop3250"
         offset="0"
         style="stop-color:#000000;stop-opacity:1;" />
      <stop
         id="stop3252"
         offset="1"
         style="stop-color:#000000;stop-opacity:0;" />
    </linearGradient>
    <linearGradient
       id="linearGradient3256">
      <stop
         id="stop3258"
         offset="0"
         style="stop-color:#4d4d4d;stop-opacity:1;" />
      <stop
         id="stop3260"
         offset="1"
         style="stop-color:#4d4d4d;stop-opacity:0;" />
    </linearGradient>
    <linearGradient
       id="linearGradient3264"
       inkscape:collect="always">
      <stop
         id="stop3266"
         offset="0"
         style="stop-color:#4d4d4d;stop-opacity:1;" />
      <stop
         id="stop3268"
         offset="1"
         style="stop-color:#4d4d4d;stop-opacity:0;" />
    </linearGradient>
    <linearGradient
       inkscape:collect="always"
       xlink:href="#linearGradient3430"
       id="linearGradient3991"
       gradientUnits="userSpaceOnUse"
       gradientTransform="matrix(0.1916692,7.5141514e-2,-7.5141514e-2,0.1916692,4.7046383,31.35902)"
       x1="17.784286"
       y1="3.6867507"
       x2="43.531315"
       y2="56.159569" />
    <linearGradient
       inkscape:collect="always"
       xlink:href="#linearGradient3430"
       id="linearGradient3995"
       gradientUnits="userSpaceOnUse"
       gradientTransform="matrix(0.1271794,-7.4332854e-3,7.4332854e-3,0.1271794,9.7324675,29.985393)"
       x1="17.784286"
       y1="3.6867507"
       x2="43.531315"
       y2="56.159569" />
    <linearGradient
       inkscape:collect="always"
       xlink:href="#linearGradient4152"
       id="linearGradient4015"
       gradientUnits="userSpaceOnUse"
       gradientTransform="matrix(0.9181716,0,0,0.9181716,1.587733,2.1053119)"
       x1="9.7721043"
       y1="20.515957"
       x2="39.699173"
       y2="20.515957" />
    <linearGradient
       inkscape:collect="always"
       xlink:href="#linearGradient4152"
       id="linearGradient4035"
       gradientUnits="userSpaceOnUse"
       gradientTransform="matrix(0.9181716,0,0,0.9181716,1.587733,2.1053119)"
       x1="9.7721043"
       y1="20.515957"
       x2="39.699173"
       y2="20.515957" />
    <linearGradient
       inkscape:collect="always"
       xlink:href="#linearGradient4152"
       id="linearGradient4055"
       gradientUnits="userSpaceOnUse"
       gradientTransform="matrix(0.9181716,0,0,0.9181716,1.587733,2.1053119)"
       x1="9.7721043"
       y1="20.515957"
       x2="39.699173"
       y2="20.515957" />
    <linearGradient
       inkscape:collect="always"
       xlink:href="#linearGradient4152"
       id="linearGradient2561"
       gradientUnits="userSpaceOnUse"
       gradientTransform="matrix(0.9181716,0,0,0.9181716,1.587733,2.1053119)"
       x1="9.7721043"
       y1="20.515957"
       x2="39.699173"
       y2="20.515957" />
    <linearGradient
       inkscape:collect="always"
       xlink:href="#linearGradient4152"
       id="linearGradient2563"
       gradientUnits="userSpaceOnUse"
       gradientTransform="matrix(0.9181716,0,0,0.9181716,1.587733,2.1053119)"
       x1="9.7721043"
       y1="20.515957"
       x2="39.699173"
       y2="20.515957" />
    <linearGradient
       inkscape:collect="always"
       xlink:href="#linearGradient4152"
       id="linearGradient2565"
       gradientUnits="userSpaceOnUse"
       gradientTransform="matrix(0.9181716,0,0,0.9181716,1.587733,2.1053119)"
       x1="9.7721043"
       y1="20.515957"
       x2="39.699173"
       y2="20.515957" />
  </defs>
  <metadata
     id="metadata17">
    <rdf:RDF>
      <cc:Work
         rdf:about="">
        <dc:format>image/svg+xml</dc:format>
        <dc:type
           rdf:resource="http://purl.org/dc/dcmitype/StillImage" />
      </cc:Work>
    </rdf:RDF>
  </metadata>
  <path
     style="fill:#4d4d4d;fill-opacity:1;stroke:none;stroke-width:2.5;stroke-linecap:butt;stroke-linejoin:round;stroke-miterlimit:4;stroke-dasharray:none;stroke-dashoffset:0;stroke-opacity:1"
     d="M 1.1165807,21.872144 C -0.35228467,28.235791 4.5024491,28.381734 1.1165807,32.533953 C 5.656174,31.79471 10.755796,30.635447 11.77839,32.533953 C 15.461794,28.356109 9.3652637,25.872023 11.77839,21.872144 C 9.3689467,24.54263 4.7451509,22.04629 1.1165807,21.872144 z"
     id="rect3303"
     sodipodi:nodetypes="ccccc" />
  <g
     id="g3456"
     transform="matrix(0.945211,0,0,0.945211,7.1688281,1.7222754)">
    <path
       sodipodi:nodetypes="cccc"
       id="path3306"
       d="M 16.490426,42.299606 C 25.993289,37.232736 30.387426,31.825284 31.759339,26.216351 L 32.16651,28.862963 C 32.295575,35.861574 25.535562,39.618266 16.490426,42.299606 z"
       style="opacity:1;fill:#4d4d4d;fill-opacity:1;stroke:none;stroke-width:2.5;stroke-linecap:butt;stroke-linejoin:round;stroke-miterlimit:4;stroke-dasharray:none;stroke-dashoffset:0;stroke-opacity:1;filter:url(#filter3452)" />
    <path
       style="opacity:1;fill:#4d4d4d;fill-opacity:1;stroke:none;stroke-width:2.5;stroke-linecap:butt;stroke-linejoin:round;stroke-miterlimit:4;stroke-dasharray:none;stroke-dashoffset:0;stroke-opacity:1;filter:url(#filter3448)"
       d="M 29.308442,47.059997 C 33.590997,37.725187 33.663482,31.143092 31.24537,26.18945 L 33.211629,27.906683 C 37.669517,33.004994 34.717861,39.758055 29.308442,47.059997 z"
       id="path3308"
       sodipodi:nodetypes="cccc" />
    <path
       sodipodi:nodetypes="cccc"
       id="path3310"
       d="M 37.342221,46.620081 C 37.782514,36.359228 35.363998,30.237136 31.254265,26.563455 L 33.72342,27.411005 C 39.776524,30.448351 39.593622,37.816027 37.342221,46.620081 z"
       style="opacity:1;fill:#4d4d4d;fill-opacity:1;stroke:none;stroke-width:2.5;stroke-linecap:butt;stroke-linejoin:round;stroke-miterlimit:4;stroke-dasharray:none;stroke-dashoffset:0;stroke-opacity:1;filter:url(#filter3444)" />
  </g>
  <g
     id="g4001">
    <path
       id="path3487"
       d="M 9.3689077,34.15574 L 8.9494857,35.225592 C 8.5426217,35.180646 8.1358497,35.192642 7.7400356,35.252208 L 7.2791597,34.196951 L 5.0409927,35.174455 L 5.4981521,36.221202 C 5.1812238,36.473519 4.8979635,36.76915 4.6518662,37.102547 L 3.5820137,36.683125 L 2.6904415,38.957326 L 3.7602941,39.376748 C 3.7142377,39.788569 3.7211099,40.197943 3.7821165,40.598424 L 2.7353692,41.055584 L 3.7128726,43.293751 L 4.7681295,42.832875 C 5.01824,43.146105 5.305376,43.436591 5.6348521,43.680481 L 5.2178262,44.74422 L 7.49814,45.638189 L 7.9151658,44.574449 C 8.3234807,44.619557 8.7359737,44.604255 9.1331257,44.544117 L 9.5878887,45.596978 L 11.83217,44.621871 L 11.371293,43.566614 C 11.686441,43.315085 11.970245,43.023207 12.215182,42.691382 L 13.285035,43.110804 L 14.176607,40.836603 L 13.106755,40.417181 C 13.152593,40.007301 13.142772,39.600311 13.082536,39.201617 L 14.137793,38.740742 L 13.154176,36.500178 L 12.105032,36.96345 C 11.854781,36.649904 11.559555,36.363658 11.2298,36.119561 L 11.649222,35.049708 L 9.3689077,34.15574 z M 9.1531937,38.070244 C 10.161743,38.465633 10.653776,39.603831 10.258387,40.612379 C 9.8629967,41.620927 8.7285167,42.121471 7.7199676,41.726082 C 6.7114202,41.330693 6.2132732,40.190098 6.608662,39.18155 C 7.0040508,38.173002 8.144645,37.674855 9.1531937,38.070244 z"
       style="opacity:1;fill:url(#linearGradient3991);fill-opacity:1;stroke:#4d4d4d;stroke-width:0.38499999;stroke-linecap:butt;stroke-linejoin:round;stroke-miterlimit:4;stroke-dasharray:none;stroke-dashoffset:0;stroke-opacity:1" />
    <path
       style="opacity:1;fill:url(#linearGradient3995);fill-opacity:1;stroke:#4d4d4d;stroke-width:0.27599999;stroke-linecap:butt;stroke-linejoin:round;stroke-miterlimit:4;stroke-dasharray:none;stroke-dashoffset:0;stroke-opacity:1"
       d="M 13.078216,30.348566 L 13.119708,31.058451 C 12.87942,31.138608 12.653938,31.25074 12.446939,31.386766 L 11.914535,30.913162 L 10.910034,32.042371 L 11.438143,32.512157 C 11.325417,32.736063 11.24283,32.975587 11.190914,33.226706 L 10.481029,33.268196 L 10.569228,34.777208 L 11.279112,34.735717 C 11.359929,34.979078 11.469856,35.20735 11.607902,35.416599 L 11.138115,35.944708 L 12.267327,36.949209 L 12.740932,36.416805 C 12.962639,36.528028 13.199261,36.616875 13.447605,36.668567 L 13.488858,37.374395 L 15.001927,37.28596 L 14.960674,36.580133 C 15.201817,36.499688 15.429658,36.384217 15.637261,36.247522 L 16.165608,36.721363 L 17.174164,35.591916 L 16.641761,35.118312 C 16.753692,34.895312 16.837557,34.657755 16.889229,34.407821 L 17.599113,34.36633 L 17.510915,32.857317 L 16.801031,32.898809 C 16.720594,32.656595 16.609626,32.430426 16.472478,32.221983 L 16.946083,31.689581 L 15.812815,30.685316 L 15.343268,31.217483 C 15.121399,31.10612 14.881329,31.021751 14.632776,30.970015 L 14.591285,30.26013 L 13.078216,30.348566 z M 13.97121,32.604256 C 14.640417,32.565142 15.211819,33.077283 15.250933,33.746491 C 15.290045,34.415699 14.782198,34.990919 14.112989,35.030033 C 13.443783,35.069147 12.868324,34.557242 12.829211,33.888035 C 12.790098,33.218826 13.302002,32.643368 13.97121,32.604256 z"
       id="path3993" />
  </g>
  <g
     id="g2532"
     transform="matrix(1.2245691,0,0,1.2245691,-10.91439,3.2150786)">
    <g
       transform="matrix(0.5773295,0,0,0.5773295,25.604085,-1.2512996)"
       id="g4037">
      <g
         id="g4039"
         transform="matrix(0.6283875,0,0,0.6283875,15.157848,-1.0983441)">
        <path
           sodipodi:nodetypes="cccccccccc"
           id="path4041"
           d="M 25.577499,34.364008 L 37.783869,24.581942 L 37.783869,14.019378 C 37.894612,12.324495 36.99864,10.965184 34.430674,10.163204 L 26.550666,8.4866067 C 22.984472,8.4328298 22.347672,8.9649313 20.850233,9.3249054 L 12.970225,13.516398 C 10.484163,14.792772 10.476619,16.895319 10.62299,19.049171 L 10.790649,29.276415 L 25.577499,34.364008 z"
           style="fill:#4d4d4d;fill-opacity:1;stroke:#4d4d4d;stroke-width:2.05883694;stroke-linecap:butt;stroke-linejoin:round;stroke-miterlimit:4;stroke-dasharray:none;stroke-dashoffset:0;stroke-opacity:1" />
        <path
           style="fill:#4d4d4d;fill-opacity:1;stroke:none;stroke-width:2.5;stroke-linecap:butt;stroke-linejoin:round;stroke-miterlimit:4;stroke-dasharray:none;stroke-dashoffset:0;stroke-opacity:1"
           d="M 21.162355,14.001194 C 23.717576,15.688819 13.731558,21.809842 13.685297,19.048207 L 3.5912698,16.244311 C 2.506933,15.122797 6.6462289,11.283819 8.264431,12.692709 L 21.162355,14.001194 z"
           id="path4043"
           sodipodi:nodetypes="ccccc" />
        <path
           sodipodi:nodetypes="cccccccccc"
           id="path4045"
           d="M 10.747128,28.793391 L 25.514316,33.840406 L 38.038388,23.933304 L 37.664535,14.21313 C 37.941895,11.568036 36.35043,10.791765 34.673712,10.100748 L 27.383581,8.6053371 C 25.768531,8.389503 24.971468,7.519281 21.028082,9.1661163 L 12.803318,13.465424 C 10.236887,15.563709 10.794274,16.412465 10.560202,17.577807 L 10.747128,28.793391 z"
           style="fill:url(#linearGradient2561);fill-opacity:1;stroke:none;stroke-width:2.5;stroke-linecap:butt;stroke-linejoin:round;stroke-miterlimit:4;stroke-dasharray:none;stroke-dashoffset:0;stroke-opacity:1" />
        <rect
           transform="matrix(0.9783242,0.207079,-0.8879212,0.4599957,0,0)"
           y="4.8720112"
           x="29.256777"
           height="10.981535"
           width="3.8343601"
           id="rect4047"
           style="fill:#4d4d4d;fill-opacity:1;stroke:none;stroke-width:2.5;stroke-linecap:butt;stroke-linejoin:round;stroke-miterlimit:4;stroke-dasharray:none;stroke-dashoffset:0;stroke-opacity:1" />
        <rect
           style="fill:#4d4d4d;fill-opacity:1;stroke:none;stroke-width:2.5;stroke-linecap:butt;stroke-linejoin:round;stroke-miterlimit:4;stroke-dasharray:none;stroke-dashoffset:0;stroke-opacity:1"
           id="rect4049"
           width="3.8526368"
           height="11.006107"
           x="35.302715"
           y="6.2842093"
           transform="matrix(0.9824118,0.1867273,-0.8808922,0.473317,0,0)" />
        <path
           sodipodi:nodetypes="ccccc"
           id="path4051"
           d="M 29.065919,24.68101 C 26.510699,22.993386 36.496717,16.872362 36.542977,19.633998 L 46.637004,22.437893 C 47.721341,23.559408 43.582045,27.398387 41.963843,25.989495 L 29.065919,24.68101 z"
           style="fill:#4d4d4d;fill-opacity:1;stroke:none;stroke-width:2.5;stroke-linecap:butt;stroke-linejoin:round;stroke-miterlimit:4;stroke-dasharray:none;stroke-dashoffset:0;stroke-opacity:1" />
        <path
           transform="matrix(0.9569561,0.2902327,-0.2902327,0.9569561,8.0240457,-2.8343397)"
           d="M 20.969308,28.557585 A 3.4609535,0.91613477 0 1 1 14.047401,28.557585 A 3.4609535,0.91613477 0 1 1 20.969308,28.557585 z"
           sodipodi:ry="0.91613477"
           sodipodi:rx="3.4609535"
           sodipodi:cy="28.557585"
           sodipodi:cx="17.508354"
           id="path4053"
           style="opacity:1;fill:#4d4d4d;fill-opacity:1;stroke:none;stroke-width:2.5;stroke-linecap:butt;stroke-linejoin:round;stroke-miterlimit:4;stroke-dasharray:none;stroke-dashoffset:0;stroke-opacity:1"
           sodipodi:type="arc" />
      </g>
    </g>
    <g
       transform="translate(-0.4611156,1.9981676)"
       id="g4005">
      <g
         id="g3292"
         transform="matrix(0.6283875,0,0,0.6283875,15.157848,-1.0983441)">
        <path
           sodipodi:nodetypes="cccccccccc"
           id="path3250"
           d="M 25.577499,34.364008 L 37.783869,24.581942 L 37.783869,14.019378 C 37.894612,12.324495 36.99864,10.965184 34.430674,10.163204 L 26.550666,8.4866067 C 22.984472,8.4328298 22.347672,8.9649313 20.850233,9.3249054 L 12.970225,13.516398 C 10.484163,14.792772 10.476619,16.895319 10.62299,19.049171 L 10.790649,29.276415 L 25.577499,34.364008 z"
           style="fill:#4d4d4d;fill-opacity:1;stroke:#4d4d4d;stroke-width:2.05883694;stroke-linecap:butt;stroke-linejoin:round;stroke-miterlimit:4;stroke-dasharray:none;stroke-dashoffset:0;stroke-opacity:1" />
        <path
           style="fill:#4d4d4d;fill-opacity:1;stroke:none;stroke-width:2.5;stroke-linecap:butt;stroke-linejoin:round;stroke-miterlimit:4;stroke-dasharray:none;stroke-dashoffset:0;stroke-opacity:1"
           d="M 21.162355,14.001194 C 23.717576,15.688819 13.731558,21.809842 13.685297,19.048207 L 3.5912698,16.244311 C 2.506933,15.122797 6.6462289,11.283819 8.264431,12.692709 L 21.162355,14.001194 z"
           id="path3268"
           sodipodi:nodetypes="ccccc" />
        <path
           sodipodi:nodetypes="cccccccccc"
           id="path3252"
           d="M 10.747128,28.793391 L 25.514316,33.840406 L 38.038388,23.933304 L 37.664535,14.21313 C 37.941895,11.568036 36.35043,10.791765 34.673712,10.100748 L 27.383581,8.6053371 C 25.768531,8.389503 24.971468,7.519281 21.028082,9.1661163 L 12.803318,13.465424 C 10.236887,15.563709 10.794274,16.412465 10.560202,17.577807 L 10.747128,28.793391 z"
           style="fill:url(#linearGradient2563);fill-opacity:1;stroke:none;stroke-width:2.5;stroke-linecap:butt;stroke-linejoin:round;stroke-miterlimit:4;stroke-dasharray:none;stroke-dashoffset:0;stroke-opacity:1" />
        <rect
           transform="matrix(0.9783242,0.207079,-0.8879212,0.4599957,0,0)"
           y="4.8720112"
           x="29.256777"
           height="10.981535"
           width="3.8343601"
           id="rect3262"
           style="fill:#4d4d4d;fill-opacity:1;stroke:none;stroke-width:2.5;stroke-linecap:butt;stroke-linejoin:round;stroke-miterlimit:4;stroke-dasharray:none;stroke-dashoffset:0;stroke-opacity:1" />
        <rect
           style="fill:#4d4d4d;fill-opacity:1;stroke:none;stroke-width:2.5;stroke-linecap:butt;stroke-linejoin:round;stroke-miterlimit:4;stroke-dasharray:none;stroke-dashoffset:0;stroke-opacity:1"
           id="rect3264"
           width="3.8526368"
           height="11.006107"
           x="35.302715"
           y="6.2842093"
           transform="matrix(0.9824118,0.1867273,-0.8808922,0.473317,0,0)" />
        <path
           sodipodi:nodetypes="ccccc"
           id="path3266"
           d="M 29.065919,24.68101 C 26.510699,22.993386 36.496717,16.872362 36.542977,19.633998 L 46.637004,22.437893 C 47.721341,23.559408 43.582045,27.398387 41.963843,25.989495 L 29.065919,24.68101 z"
           style="fill:#4d4d4d;fill-opacity:1;stroke:none;stroke-width:2.5;stroke-linecap:butt;stroke-linejoin:round;stroke-miterlimit:4;stroke-dasharray:none;stroke-dashoffset:0;stroke-opacity:1" />
        <path
           transform="matrix(0.9569561,0.2902327,-0.2902327,0.9569561,8.0240457,-2.8343397)"
           d="M 20.969308,28.557585 A 3.4609535,0.91613477 0 1 1 14.047401,28.557585 A 3.4609535,0.91613477 0 1 1 20.969308,28.557585 z"
           sodipodi:ry="0.91613477"
           sodipodi:rx="3.4609535"
           sodipodi:cy="28.557585"
           sodipodi:cx="17.508354"
           id="path3290"
           style="opacity:1;fill:#4d4d4d;fill-opacity:1;stroke:none;stroke-width:2.5;stroke-linecap:butt;stroke-linejoin:round;stroke-miterlimit:4;stroke-dasharray:none;stroke-dashoffset:0;stroke-opacity:1"
           sodipodi:type="arc" />
      </g>
    </g>
    <g
       id="g4017"
       transform="matrix(0.5773295,0,0,0.5773295,-3.1387884,-1.7124152)">
      <g
         transform="matrix(0.6283875,0,0,0.6283875,15.157848,-1.0983441)"
         id="g4019">
        <path
           style="fill:#4d4d4d;fill-opacity:1;stroke:#4d4d4d;stroke-width:2.05883694;stroke-linecap:butt;stroke-linejoin:round;stroke-miterlimit:4;stroke-dasharray:none;stroke-dashoffset:0;stroke-opacity:1"
           d="M 25.577499,34.364008 L 37.783869,24.581942 L 37.783869,14.019378 C 37.894612,12.324495 36.99864,10.965184 34.430674,10.163204 L 26.550666,8.4866067 C 22.984472,8.4328298 22.347672,8.9649313 20.850233,9.3249054 L 12.970225,13.516398 C 10.484163,14.792772 10.476619,16.895319 10.62299,19.049171 L 10.790649,29.276415 L 25.577499,34.364008 z"
           id="path4021"
           sodipodi:nodetypes="cccccccccc" />
        <path
           sodipodi:nodetypes="ccccc"
           id="path4023"
           d="M 21.162355,14.001194 C 23.717576,15.688819 13.731558,21.809842 13.685297,19.048207 L 3.5912698,16.244311 C 2.506933,15.122797 6.6462289,11.283819 8.264431,12.692709 L 21.162355,14.001194 z"
           style="fill:#4d4d4d;fill-opacity:1;stroke:none;stroke-width:2.5;stroke-linecap:butt;stroke-linejoin:round;stroke-miterlimit:4;stroke-dasharray:none;stroke-dashoffset:0;stroke-opacity:1" />
        <path
           style="fill:url(#linearGradient2565);fill-opacity:1;stroke:none;stroke-width:2.5;stroke-linecap:butt;stroke-linejoin:round;stroke-miterlimit:4;stroke-dasharray:none;stroke-dashoffset:0;stroke-opacity:1"
           d="M 10.747128,28.793391 L 25.514316,33.840406 L 38.038388,23.933304 L 37.664535,14.21313 C 37.941895,11.568036 36.35043,10.791765 34.673712,10.100748 L 27.383581,8.6053371 C 25.768531,8.389503 24.971468,7.519281 21.028082,9.1661163 L 12.803318,13.465424 C 10.236887,15.563709 10.794274,16.412465 10.560202,17.577807 L 10.747128,28.793391 z"
           id="path4025"
           sodipodi:nodetypes="cccccccccc" />
        <rect
           style="fill:#4d4d4d;fill-opacity:1;stroke:none;stroke-width:2.5;stroke-linecap:butt;stroke-linejoin:round;stroke-miterlimit:4;stroke-dasharray:none;stroke-dashoffset:0;stroke-opacity:1"
           id="rect4027"
           width="3.8343601"
           height="10.981535"
           x="29.256777"
           y="4.8720112"
           transform="matrix(0.9783242,0.207079,-0.8879212,0.4599957,0,0)" />
        <rect
           transform="matrix(0.9824118,0.1867273,-0.8808922,0.473317,0,0)"
           y="6.2842093"
           x="35.302715"
           height="11.006107"
           width="3.8526368"
           id="rect4029"
           style="fill:#4d4d4d;fill-opacity:1;stroke:none;stroke-width:2.5;stroke-linecap:butt;stroke-linejoin:round;stroke-miterlimit:4;stroke-dasharray:none;stroke-dashoffset:0;stroke-opacity:1" />
        <path
           style="fill:#4d4d4d;fill-opacity:1;stroke:none;stroke-width:2.5;stroke-linecap:butt;stroke-linejoin:round;stroke-miterlimit:4;stroke-dasharray:none;stroke-dashoffset:0;stroke-opacity:1"
           d="M 29.065919,24.68101 C 26.510699,22.993386 36.496717,16.872362 36.542977,19.633998 L 46.637004,22.437893 C 47.721341,23.559408 43.582045,27.398387 41.963843,25.989495 L 29.065919,24.68101 z"
           id="path4031"
           sodipodi:nodetypes="ccccc" />
        <path
           sodipodi:type="arc"
           style="opacity:1;fill:#4d4d4d;fill-opacity:1;stroke:none;stroke-width:2.5;stroke-linecap:butt;stroke-linejoin:round;stroke-miterlimit:4;stroke-dasharray:none;stroke-dashoffset:0;stroke-opacity:1"
           id="path4033"
           sodipodi:cx="17.508354"
           sodipodi:cy="28.557585"
           sodipodi:rx="3.4609535"
           sodipodi:ry="0.91613477"
           d="M 20.969308,28.557585 A 3.4609535,0.91613477 0 1 1 14.047401,28.557585 A 3.4609535,0.91613477 0 1 1 20.969308,28.557585 z"
           transform="matrix(0.9569561,0.2902327,-0.2902327,0.9569561,8.0240457,-2.8343397)" />
      </g>
    </g>
  </g>
</svg>
