<?xml version="1.0" encoding="UTF-8" standalone="no"?>
<!-- Created with Inkscape (http://www.inkscape.org/) -->
<svg
   xmlns:dc="http://purl.org/dc/elements/1.1/"
   xmlns:cc="http://creativecommons.org/ns#"
   xmlns:rdf="http://www.w3.org/1999/02/22-rdf-syntax-ns#"
   xmlns:svg="http://www.w3.org/2000/svg"
   xmlns="http://www.w3.org/2000/svg"
   xmlns:xlink="http://www.w3.org/1999/xlink"
   xmlns:sodipodi="http://sodipodi.sourceforge.net/DTD/sodipodi-0.dtd"
   xmlns:inkscape="http://www.inkscape.org/namespaces/inkscape"
   width="64"
   height="64"
   id="svg3217"
   sodipodi:version="0.32"
   inkscape:version="0.46"
   sodipodi:docname="filefind.svg"
   inkscape:output_extension="org.inkscape.output.svg.inkscape"
   version="1.0"
   style="display:inline">
  <sodipodi:namedview
     id="base"
     pagecolor="#ffffff"
     bordercolor="#666666"
     borderopacity="1.0"
     inkscape:pageopacity="0.0"
     inkscape:pageshadow="2"
     inkscape:zoom="3.1388437"
     inkscape:cx="51.173159"
     inkscape:cy="23.447883"
     inkscape:current-layer="g8805"
     showgrid="true"
     inkscape:document-units="px"
     inkscape:grid-bbox="true"
     inkscape:window-width="1440"
     inkscape:window-height="851"
     inkscape:window-x="0"
     inkscape:window-y="24"
     showguides="true"
     inkscape:guide-bbox="true" />
  <defs
     id="defs3219">
    <linearGradient
       id="linearGradient3210">
      <stop
         style="stop-color:#ffffff;stop-opacity:0"
         offset="0"
         id="stop3212" />
      <stop
         style="stop-color:#acabab;stop-opacity:1;"
         offset="1"
         id="stop3214" />
    </linearGradient>
    <linearGradient
       id="linearGradient4152">
      <stop
         id="stop4154"
         offset="0"
         style="stop-color:#ffffff;stop-opacity:1;" />
      <stop
         id="stop4156"
         offset="1"
         style="stop-color:#acabab;stop-opacity:1;" />
    </linearGradient>
    <inkscape:perspective
       id="perspective3225"
       inkscape:persp3d-origin="32 : 21.333333 : 1"
       inkscape:vp_z="64 : 32 : 1"
       inkscape:vp_y="0 : 1000 : 0"
       inkscape:vp_x="0 : 32 : 1"
       sodipodi:type="inkscape:persp3d" />
    <inkscape:perspective
       sodipodi:type="inkscape:persp3d"
       inkscape:vp_x="0 : 526.18109 : 1"
       inkscape:vp_y="0 : 1000 : 0"
       inkscape:vp_z="744.09448 : 526.18109 : 1"
       inkscape:persp3d-origin="372.04724 : 350.78739 : 1"
       id="perspective3591" />
    <linearGradient
       gradientUnits="userSpaceOnUse"
       y2="58.758259"
       x2="21.983887"
       y1="11.303422"
       x1="23.862328"
       id="linearGradient4166"
       xlink:href="#linearGradient4152"
       inkscape:collect="always" />
    <inkscape:perspective
       sodipodi:type="inkscape:persp3d"
       inkscape:vp_x="0 : 526.18109 : 1"
       inkscape:vp_y="0 : 1000 : 0"
       inkscape:vp_z="744.09448 : 526.18109 : 1"
       inkscape:persp3d-origin="372.04724 : 350.78739 : 1"
       id="perspective2398" />
    <linearGradient
       gradientUnits="userSpaceOnUse"
       y2="55.665409"
       x2="39.18634"
       y1="17.683659"
       x1="37.414642"
       id="linearGradient3208"
       xlink:href="#linearGradient4152"
       inkscape:collect="always" />
    <linearGradient
       y2="55.665409"
       x2="39.18634"
       y1="17.683659"
       x1="37.414642"
       gradientUnits="userSpaceOnUse"
       id="linearGradient3220"
       xlink:href="#linearGradient4152"
       inkscape:collect="always" />
    <linearGradient
       gradientUnits="userSpaceOnUse"
       y2="62.322315"
       x2="58.237587"
       y1="11.289592"
       x1="33.390312"
       id="linearGradient3181"
       xlink:href="#linearGradient4152"
       inkscape:collect="always" />
    <linearGradient
       inkscape:collect="always"
       xlink:href="#linearGradient4152"
       id="linearGradient3239"
       x1="33.390312"
       y1="11.289592"
       x2="58.237587"
       y2="62.322315"
       gradientUnits="userSpaceOnUse" />
    <linearGradient
       inkscape:collect="always"
       xlink:href="#linearGradient4152"
       id="linearGradient3237"
       gradientUnits="userSpaceOnUse"
       x1="37.414642"
       y1="17.683659"
       x2="39.18634"
       y2="55.665409" />
    <linearGradient
       inkscape:collect="always"
       xlink:href="#linearGradient4152"
       id="linearGradient3235"
       x1="37.414642"
       y1="17.683659"
       x2="39.18634"
       y2="55.665409"
       gradientUnits="userSpaceOnUse" />
    <inkscape:perspective
       id="perspective3233"
       inkscape:persp3d-origin="372.04724 : 350.78739 : 1"
       inkscape:vp_z="744.09448 : 526.18109 : 1"
       inkscape:vp_y="0 : 1000 : 0"
       inkscape:vp_x="0 : 526.18109 : 1"
       sodipodi:type="inkscape:persp3d" />
    <linearGradient
       inkscape:collect="always"
       xlink:href="#linearGradient4152"
       id="linearGradient3231"
       x1="23.862328"
       y1="11.303422"
       x2="21.983887"
       y2="58.758259"
       gradientUnits="userSpaceOnUse" />
    <inkscape:perspective
       id="perspective3229"
       inkscape:persp3d-origin="372.04724 : 350.78739 : 1"
       inkscape:vp_z="744.09448 : 526.18109 : 1"
       inkscape:vp_y="0 : 1000 : 0"
       inkscape:vp_x="0 : 526.18109 : 1"
       sodipodi:type="inkscape:persp3d" />
    <inkscape:perspective
       sodipodi:type="inkscape:persp3d"
       inkscape:vp_x="0 : 32 : 1"
       inkscape:vp_y="0 : 1000 : 0"
       inkscape:vp_z="64 : 32 : 1"
       inkscape:persp3d-origin="32 : 21.333333 : 1"
       id="perspective3227" />
    <linearGradient
       id="linearGradient3221">
      <stop
         style="stop-color:#ffffff;stop-opacity:1;"
         offset="0"
         id="stop3223" />
      <stop
         style="stop-color:#acabab;stop-opacity:1;"
         offset="1"
         id="stop3225" />
    </linearGradient>
    <linearGradient
       id="linearGradient3215">
      <stop
         id="stop3217"
         offset="0"
         style="stop-color:#ffffff;stop-opacity:0" />
      <stop
         id="stop3219"
         offset="1"
         style="stop-color:#acabab;stop-opacity:1;" />
    </linearGradient>
    <linearGradient
       id="linearGradient3298">
      <stop
         style="stop-color:#ffffff;stop-opacity:0"
         offset="0"
         id="stop3300" />
      <stop
         style="stop-color:#acabab;stop-opacity:1;"
         offset="1"
         id="stop3302" />
    </linearGradient>
    <linearGradient
       id="linearGradient3292">
      <stop
         id="stop3294"
         offset="0"
         style="stop-color:#ffffff;stop-opacity:1;" />
      <stop
         id="stop3296"
         offset="1"
         style="stop-color:#acabab;stop-opacity:1;" />
    </linearGradient>
    <inkscape:perspective
       id="perspective3290"
       inkscape:persp3d-origin="32 : 21.333333 : 1"
       inkscape:vp_z="64 : 32 : 1"
       inkscape:vp_y="0 : 1000 : 0"
       inkscape:vp_x="0 : 32 : 1"
       sodipodi:type="inkscape:persp3d" />
    <inkscape:perspective
       sodipodi:type="inkscape:persp3d"
       inkscape:vp_x="0 : 526.18109 : 1"
       inkscape:vp_y="0 : 1000 : 0"
       inkscape:vp_z="744.09448 : 526.18109 : 1"
       inkscape:persp3d-origin="372.04724 : 350.78739 : 1"
       id="perspective3288" />
    <linearGradient
       gradientUnits="userSpaceOnUse"
       y2="58.758259"
       x2="21.983887"
       y1="11.303422"
       x1="23.862328"
       id="linearGradient3286"
       xlink:href="#linearGradient4152"
       inkscape:collect="always" />
    <inkscape:perspective
       sodipodi:type="inkscape:persp3d"
       inkscape:vp_x="0 : 526.18109 : 1"
       inkscape:vp_y="0 : 1000 : 0"
       inkscape:vp_z="744.09448 : 526.18109 : 1"
       inkscape:persp3d-origin="372.04724 : 350.78739 : 1"
       id="perspective3284" />
    <linearGradient
       gradientUnits="userSpaceOnUse"
       y2="55.665409"
       x2="39.18634"
       y1="17.683659"
       x1="37.414642"
       id="linearGradient3282"
       xlink:href="#linearGradient4152"
       inkscape:collect="always" />
    <linearGradient
       y2="55.665409"
       x2="39.18634"
       y1="17.683659"
       x1="37.414642"
       gradientUnits="userSpaceOnUse"
       id="linearGradient3280"
       xlink:href="#linearGradient4152"
       inkscape:collect="always" />
    <linearGradient
       gradientUnits="userSpaceOnUse"
       y2="62.322315"
       x2="58.237587"
       y1="11.289592"
       x1="33.390312"
       id="linearGradient3278"
       xlink:href="#linearGradient4152"
       inkscape:collect="always" />
    <inkscape:perspective
       id="perspective2400"
       inkscape:persp3d-origin="372.04724 : 350.78739 : 1"
       inkscape:vp_z="744.09448 : 526.18109 : 1"
       inkscape:vp_y="0 : 1000 : 0"
       inkscape:vp_x="0 : 526.18109 : 1"
       sodipodi:type="inkscape:persp3d" />
    <inkscape:perspective
       sodipodi:type="inkscape:persp3d"
       inkscape:vp_x="0 : 24 : 1"
       inkscape:vp_y="0 : 1000 : 0"
       inkscape:vp_z="48 : 24 : 1"
       inkscape:persp3d-origin="24 : 16 : 1"
       id="perspective2391" />
    <linearGradient
       inkscape:collect="always"
       xlink:href="#linearGradient4152"
       id="linearGradient3505"
       x1="33.390312"
       y1="11.289592"
       x2="58.237587"
       y2="62.322315"
       gradientUnits="userSpaceOnUse" />
    <linearGradient
       inkscape:collect="always"
       xlink:href="#linearGradient4152"
       id="linearGradient3503"
       gradientUnits="userSpaceOnUse"
       x1="37.414642"
       y1="17.683659"
       x2="39.18634"
       y2="55.665409" />
    <linearGradient
       inkscape:collect="always"
       xlink:href="#linearGradient4152"
       id="linearGradient3501"
       x1="37.414642"
       y1="17.683659"
       x2="39.18634"
       y2="55.665409"
       gradientUnits="userSpaceOnUse" />
    <inkscape:perspective
       id="perspective3499"
       inkscape:persp3d-origin="372.04724 : 350.78739 : 1"
       inkscape:vp_z="744.09448 : 526.18109 : 1"
       inkscape:vp_y="0 : 1000 : 0"
       inkscape:vp_x="0 : 526.18109 : 1"
       sodipodi:type="inkscape:persp3d" />
    <linearGradient
       inkscape:collect="always"
       xlink:href="#linearGradient4152"
       id="linearGradient3497"
       x1="23.862328"
       y1="11.303422"
       x2="21.983887"
       y2="58.758259"
       gradientUnits="userSpaceOnUse" />
    <inkscape:perspective
       id="perspective3495"
       inkscape:persp3d-origin="372.04724 : 350.78739 : 1"
       inkscape:vp_z="744.09448 : 526.18109 : 1"
       inkscape:vp_y="0 : 1000 : 0"
       inkscape:vp_x="0 : 526.18109 : 1"
       sodipodi:type="inkscape:persp3d" />
    <inkscape:perspective
       sodipodi:type="inkscape:persp3d"
       inkscape:vp_x="0 : 32 : 1"
       inkscape:vp_y="0 : 1000 : 0"
       inkscape:vp_z="64 : 32 : 1"
       inkscape:persp3d-origin="32 : 21.333333 : 1"
       id="perspective3493" />
    <linearGradient
       id="linearGradient3487">
      <stop
         style="stop-color:#ffffff;stop-opacity:1;"
         offset="0"
         id="stop3489" />
      <stop
         style="stop-color:#acabab;stop-opacity:1;"
         offset="1"
         id="stop3491" />
    </linearGradient>
    <linearGradient
       id="linearGradient3481">
      <stop
         id="stop3483"
         offset="0"
         style="stop-color:#ffffff;stop-opacity:0" />
      <stop
         id="stop3485"
         offset="1"
         style="stop-color:#acabab;stop-opacity:1;" />
    </linearGradient>
    <linearGradient
       inkscape:collect="always"
       xlink:href="#linearGradient4152"
       id="linearGradient3618"
       x1="33.390312"
       y1="11.289592"
       x2="58.237587"
       y2="62.322315"
       gradientUnits="userSpaceOnUse" />
    <linearGradient
       inkscape:collect="always"
       xlink:href="#linearGradient4152"
       id="linearGradient3616"
       gradientUnits="userSpaceOnUse"
       x1="37.414642"
       y1="17.683659"
       x2="39.18634"
       y2="55.665409" />
    <linearGradient
       inkscape:collect="always"
       xlink:href="#linearGradient4152"
       id="linearGradient3614"
       x1="37.414642"
       y1="17.683659"
       x2="39.18634"
       y2="55.665409"
       gradientUnits="userSpaceOnUse" />
    <inkscape:perspective
       id="perspective3612"
       inkscape:persp3d-origin="372.04724 : 350.78739 : 1"
       inkscape:vp_z="744.09448 : 526.18109 : 1"
       inkscape:vp_y="0 : 1000 : 0"
       inkscape:vp_x="0 : 526.18109 : 1"
       sodipodi:type="inkscape:persp3d" />
    <linearGradient
       inkscape:collect="always"
       xlink:href="#linearGradient4152"
       id="linearGradient3610"
       x1="23.862328"
       y1="11.303422"
       x2="21.983887"
       y2="58.758259"
       gradientUnits="userSpaceOnUse" />
    <inkscape:perspective
       id="perspective3608"
       inkscape:persp3d-origin="372.04724 : 350.78739 : 1"
       inkscape:vp_z="744.09448 : 526.18109 : 1"
       inkscape:vp_y="0 : 1000 : 0"
       inkscape:vp_x="0 : 526.18109 : 1"
       sodipodi:type="inkscape:persp3d" />
    <inkscape:perspective
       sodipodi:type="inkscape:persp3d"
       inkscape:vp_x="0 : 32 : 1"
       inkscape:vp_y="0 : 1000 : 0"
       inkscape:vp_z="64 : 32 : 1"
       inkscape:persp3d-origin="32 : 21.333333 : 1"
       id="perspective3606" />
    <linearGradient
       id="linearGradient3600">
      <stop
         style="stop-color:#ffffff;stop-opacity:1;"
         offset="0"
         id="stop3602" />
      <stop
         style="stop-color:#acabab;stop-opacity:1;"
         offset="1"
         id="stop3604" />
    </linearGradient>
    <linearGradient
       id="linearGradient3594">
      <stop
         id="stop3596"
         offset="0"
         style="stop-color:#ffffff;stop-opacity:0" />
      <stop
         id="stop3598"
         offset="1"
         style="stop-color:#acabab;stop-opacity:1;" />
    </linearGradient>
    <linearGradient
       inkscape:collect="always"
       xlink:href="#linearGradient4152"
       id="linearGradient3697"
       x1="33.390312"
       y1="11.289592"
       x2="58.237587"
       y2="62.322315"
       gradientUnits="userSpaceOnUse" />
    <linearGradient
       inkscape:collect="always"
       xlink:href="#linearGradient4152"
       id="linearGradient3695"
       gradientUnits="userSpaceOnUse"
       x1="37.414642"
       y1="17.683659"
       x2="39.18634"
       y2="55.665409" />
    <linearGradient
       inkscape:collect="always"
       xlink:href="#linearGradient4152"
       id="linearGradient3693"
       x1="37.414642"
       y1="17.683659"
       x2="39.18634"
       y2="55.665409"
       gradientUnits="userSpaceOnUse" />
    <inkscape:perspective
       id="perspective3691"
       inkscape:persp3d-origin="372.04724 : 350.78739 : 1"
       inkscape:vp_z="744.09448 : 526.18109 : 1"
       inkscape:vp_y="0 : 1000 : 0"
       inkscape:vp_x="0 : 526.18109 : 1"
       sodipodi:type="inkscape:persp3d" />
    <linearGradient
       inkscape:collect="always"
       xlink:href="#linearGradient4152"
       id="linearGradient3689"
       x1="23.862328"
       y1="11.303422"
       x2="21.983887"
       y2="58.758259"
       gradientUnits="userSpaceOnUse" />
    <inkscape:perspective
       id="perspective3687"
       inkscape:persp3d-origin="372.04724 : 350.78739 : 1"
       inkscape:vp_z="744.09448 : 526.18109 : 1"
       inkscape:vp_y="0 : 1000 : 0"
       inkscape:vp_x="0 : 526.18109 : 1"
       sodipodi:type="inkscape:persp3d" />
    <inkscape:perspective
       sodipodi:type="inkscape:persp3d"
       inkscape:vp_x="0 : 32 : 1"
       inkscape:vp_y="0 : 1000 : 0"
       inkscape:vp_z="64 : 32 : 1"
       inkscape:persp3d-origin="32 : 21.333333 : 1"
       id="perspective3685" />
    <linearGradient
       id="linearGradient3679">
      <stop
         style="stop-color:#ffffff;stop-opacity:1;"
         offset="0"
         id="stop3681" />
      <stop
         style="stop-color:#acabab;stop-opacity:1;"
         offset="1"
         id="stop3683" />
    </linearGradient>
    <linearGradient
       id="linearGradient3673">
      <stop
         id="stop3675"
         offset="0"
         style="stop-color:#ffffff;stop-opacity:0" />
      <stop
         id="stop3677"
         offset="1"
         style="stop-color:#acabab;stop-opacity:1;" />
    </linearGradient>
    <linearGradient
       gradientUnits="userSpaceOnUse"
       y2="37.102741"
       x2="29.758398"
       y1="2.2150807"
       x1="15.132412"
       id="linearGradient3748"
       xlink:href="#linearGradient3679"
       inkscape:collect="always" />
    <linearGradient
       gradientTransform="matrix(1.156074,0,0,1.3223234,-59.021123,11.785724)"
       gradientUnits="userSpaceOnUse"
       y2="60.958771"
       x2="59.121815"
       y1="2.0490437"
       x1="3.0544178"
       id="linearGradient8709"
       xlink:href="#linearGradient3679"
       inkscape:collect="always" />
    <linearGradient
       inkscape:collect="always"
       xlink:href="#linearGradient3679"
       id="linearGradient8984"
       gradientUnits="userSpaceOnUse"
       gradientTransform="matrix(1.156074,0,0,1.3223234,-59.021123,11.785724)"
       x1="3.0544178"
       y1="2.0490437"
       x2="59.121815"
       y2="60.958771" />
    <linearGradient
       inkscape:collect="always"
       xlink:href="#linearGradient3679"
       id="linearGradient8986"
       gradientUnits="userSpaceOnUse"
       x1="15.132412"
       y1="2.2150807"
       x2="29.758398"
       y2="37.102741" />
  </defs>
  <metadata
     id="metadata3222">
    <rdf:RDF>
      <cc:Work
         rdf:about="">
        <dc:format>image/svg+xml</dc:format>
        <dc:type
           rdf:resource="http://purl.org/dc/dcmitype/StillImage" />
      </cc:Work>
    </rdf:RDF>
  </metadata>
  <g
     style="opacity:1;display:inline"
     id="layer3"
     inkscape:groupmode="layer" />
  <g
     id="g8805"
     inkscape:groupmode="layer"
     inkscape:label="lorem ipsum">
    <g
       id="g8962"
       transform="translate(0.955766,0.6371773)">
      <g
         style="opacity:1;display:inline"
         id="g3699"
         transform="matrix(0.4540271,0.6047854,-0.6047854,0.4540271,49.31052,-8.9128891)">
        <rect
           style="opacity:1;fill:url(#linearGradient8984);fill-opacity:1;stroke:#4d4d4d;stroke-width:1.45455575;stroke-linecap:butt;stroke-linejoin:miter;stroke-miterlimit:4;stroke-dasharray:none;stroke-dashoffset:0;stroke-opacity:1"
           id="rect7931"
           width="67.322693"
           height="79.536095"
           x="-56.416763"
           y="13.750504"
           transform="matrix(0.6003707,-0.7997218,0.7997218,0.6003707,0,0)" />
        <g
           id="g3754"
           transform="matrix(0.7963654,0,0,0.7963654,3.6709146,7.9851586)">
          <g
             id="g3750">
            <path
               sodipodi:type="arc"
               style="opacity:1;fill:#4d4d4d;fill-opacity:1;stroke:none;stroke-width:1.79999995;stroke-linecap:round;stroke-linejoin:round;stroke-miterlimit:4;stroke-dasharray:none;stroke-dashoffset:0;stroke-opacity:1"
               id="path3734"
               sodipodi:cx="19.694647"
               sodipodi:cy="19.658911"
               sodipodi:rx="17.44383"
               sodipodi:ry="17.44383"
               d="M 37.138477,19.658911 A 17.44383,17.44383 0 1 1 2.2508163,19.658911 A 17.44383,17.44383 0 1 1 37.138477,19.658911 z"
               transform="matrix(0.7938842,-1.0574909,1.0574909,0.7938842,-30.435606,58.685164)" />
            <path
               style="opacity:1;fill:#4d4d4d;fill-opacity:1;stroke:none;stroke-width:1.79999995;stroke-linecap:round;stroke-linejoin:round;stroke-miterlimit:4;stroke-dasharray:none;stroke-dashoffset:0;stroke-opacity:1"
               d="M 79.238088,48.350087 C 81.910676,46.241224 80.568616,38.413987 77.219386,37.158234 L 34.833226,44.787701 C 32.651678,45.501005 31.554461,46.601729 30.873095,48.327672 L 28.194145,48.921693 L 28.608441,54.070897 L 32.061135,53.685577 C 33.668433,55.741022 34.991425,55.492314 36.88194,55.443833 L 79.238088,48.350087 z"
               id="path3738"
               sodipodi:nodetypes="ccccccccc" />
          </g>
          <path
             sodipodi:type="arc"
             style="opacity:1;fill:url(#linearGradient8986);fill-opacity:1;stroke:none;stroke-width:1.79999995;stroke-linecap:round;stroke-linejoin:round;stroke-miterlimit:4;stroke-dasharray:none;stroke-dashoffset:0;stroke-opacity:1"
             id="path3740"
             sodipodi:cx="19.694647"
             sodipodi:cy="19.658911"
             sodipodi:rx="17.44383"
             sodipodi:ry="17.44383"
             d="M 37.138477,19.658911 A 17.44383,17.44383 0 1 1 2.2508163,19.658911 A 17.44383,17.44383 0 1 1 37.138477,19.658911 z"
             transform="matrix(0.6658384,-0.8869278,0.8869278,0.6658384,-24.531039,58.051583)" />
        </g>
      </g>
      <path
         id="flowRoot8807"
         d="M 20.15625,8.3502762 C 19.888988,8.3502794 19.655629,8.412951 19.46875,8.5065262 C 19.281867,8.5982356 19.147798,8.7218805 19.03125,8.9127762 L 19.03125,8.4127762 L 18.8125,8.4127762 C 18.694432,8.4526695 18.585058,8.4941644 18.46875,8.5377762 L 18.46875,11.569026 L 19.03125,11.569026 L 19.03125,9.9127762 C 19.031249,9.557182 19.114463,9.2893064 19.28125,9.1002762 C 19.450044,8.9093798 19.68652,8.8190292 20,8.8190262 C 20.088415,8.819029 20.146406,8.8334346 20.21875,8.8502762 C 20.293098,8.8652514 20.375204,8.8790909 20.4375,8.9127762 L 20.4375,8.3815262 C 20.381232,8.3721716 20.327465,8.3540228 20.28125,8.3502762 C 20.23503,8.3446647 20.194428,8.3502796 20.15625,8.3502762 z M 22.3125,8.3502762 C 21.80611,8.3502794 21.393162,8.5158366 21.09375,8.8190262 C 20.796347,9.1203497 20.656249,9.5230999 20.65625,10.037776 C 20.65625,10.535612 20.811521,10.933314 21.125,11.225276 C 21.440487,11.517239 21.867708,11.662776 22.40625,11.662776 C 22.621262,11.662776 22.822263,11.64145 23.03125,11.600276 C 23.240233,11.559102 23.457308,11.491381 23.65625,11.412776 L 23.65625,10.912776 C 23.459318,11.010098 23.263445,11.082866 23.0625,11.131526 C 22.863559,11.180187 22.650502,11.225276 22.4375,11.225276 C 22.069764,11.225276 21.769475,11.129311 21.5625,10.944026 C 21.357532,10.756871 21.242863,10.487123 21.21875,10.131526 L 23.78125,10.131526 L 23.78125,9.8815262 C 23.781247,9.4136386 23.640248,9.0279043 23.375,8.7565262 C 23.111756,8.4832817 22.76664,8.3502796 22.3125,8.3502762 z M 25.96875,8.3815262 C 25.864998,8.4013129 25.775916,8.4294245 25.6875,8.4752762 C 25.510665,8.5669856 25.345346,8.7200089 25.21875,8.9127762 L 25.21875,8.4127762 L 24.65625,8.4127762 L 24.65625,11.569026 L 25.21875,11.569026 L 25.21875,9.7877762 C 25.218749,9.4827142 25.301961,9.246827 25.46875,9.0690262 C 25.635535,8.8893592 25.872913,8.7877794 26.15625,8.7877762 C 26.395375,8.787779 26.572958,8.8605469 26.6875,9.0065262 C 26.802037,9.1506386 26.843748,9.3908356 26.84375,9.6940262 L 26.84375,11.569026 L 27.40625,11.569026 L 27.40625,9.7877762 C 27.406247,9.4808426 27.48946,9.2468263 27.65625,9.0690262 C 27.661847,9.0630599 27.681754,9.074824 27.6875,9.0690262 C 27.592171,9.0197714 27.503116,8.9594036 27.40625,8.9127762 C 27.375418,8.9563502 27.340882,8.9902719 27.3125,9.0377762 C 27.280243,8.9513148 27.232161,8.8884311 27.1875,8.8190262 C 26.808139,8.6461403 26.431411,8.5127749 26.03125,8.3815262 C 26.011994,8.3843672 25.987459,8.3779581 25.96875,8.3815262 z M 22.3125,8.7877762 C 22.585787,8.787779 22.803971,8.8693389 22.96875,9.0377762 C 23.135534,9.2062189 23.214728,9.4426728 23.21875,9.7252762 L 21.25,9.7252762 C 21.278132,9.429572 21.377627,9.2006044 21.5625,9.0377762 C 21.74938,8.8749533 22.003039,8.7877786 22.3125,8.7877762 z M 17.34375,9.0377762 C 17.163729,9.1288284 16.986905,9.2188857 16.8125,9.3190262 C 16.907114,9.5083599 16.968749,9.7271977 16.96875,10.006526 C 16.968747,10.380839 16.891563,10.664426 16.71875,10.881526 C 16.545933,11.098627 16.295392,11.225276 16,11.225276 C 15.700586,11.225276 15.485314,11.096755 15.3125,10.881526 C 15.221841,10.766296 15.165898,10.631376 15.125,10.475276 C 14.964613,10.609765 14.808975,10.73858 14.65625,10.881526 C 14.716127,11.003368 14.784842,11.128341 14.875,11.225276 C 15.150297,11.517239 15.515716,11.662776 16,11.662776 C 16.482272,11.662776 16.880949,11.517239 17.15625,11.225276 C 17.431545,10.931442 17.562497,10.521206 17.5625,10.006526 C 17.562498,9.619115 17.49672,9.3005413 17.34375,9.0377762 z M 29.03125,9.8815262 L 29.03125,11.569026 L 29.59375,11.569026 L 29.59375,10.287776 C 29.412038,10.143056 29.221721,10.01517 29.03125,9.8815262 z M 14.1875,11.350276 C 14.120565,11.420688 14.065143,11.496929 14,11.569026 L 14.1875,11.569026 L 14.1875,11.350276 z M 11.9375,14.787776 C 11.902294,14.870966 11.877028,14.953595 11.84375,15.037776 L 11.9375,15.037776 L 11.9375,14.787776 z M 14.71875,15.537776 C 14.471582,15.537779 14.241342,15.571073 14.0625,15.662776 C 13.885665,15.752614 13.741549,15.913123 13.625,16.100276 L 13.625,15.600276 L 13.0625,15.600276 L 13.0625,19.944026 L 13.625,19.944026 L 13.625,18.287776 C 13.741548,18.474932 13.885665,18.60232 14.0625,18.694026 C 14.241342,18.783861 14.471583,18.850276 14.71875,18.850276 C 15.128681,18.850276 15.463543,18.684718 15.71875,18.381526 C 15.97596,18.078334 16.093747,17.688119 16.09375,17.194026 C 16.093746,16.699936 15.975959,16.309721 15.71875,16.006526 C 15.463544,15.703337 15.128681,15.537779 14.71875,15.537776 z M 18.09375,15.537776 C 17.679797,15.537779 17.35006,15.626825 17.125,15.787776 C 16.899938,15.948733 16.781249,16.179572 16.78125,16.475276 C 16.78125,16.718581 16.847279,16.897411 17,17.037776 C 17.152719,17.176273 17.406378,17.282901 17.75,17.350276 L 17.9375,17.381526 C 18.281119,17.450775 18.524524,17.525415 18.625,17.600276 C 18.727481,17.675139 18.781248,17.803659 18.78125,17.944026 C 18.781248,18.095623 18.703161,18.203557 18.5625,18.287776 C 18.421835,18.370125 18.22998,18.412776 17.96875,18.412776 C 17.773829,18.412776 17.573936,18.398938 17.375,18.350276 C 17.176061,18.299744 16.954966,18.199469 16.75,18.100276 L 16.75,18.631526 C 16.967023,18.697031 17.18008,18.755959 17.375,18.787776 C 17.571928,18.821464 17.756647,18.850276 17.9375,18.850276 C 18.371545,18.850276 18.721582,18.739339 18.96875,18.569026 C 19.217922,18.398714 19.343747,18.173489 19.34375,17.881526 C 19.343747,17.625124 19.260533,17.430015 19.09375,17.287776 C 18.92897,17.143668 18.643855,17.022633 18.25,16.944026 L 18.0625,16.912776 C 17.765096,16.851016 17.567214,16.792654 17.46875,16.725276 C 17.370285,16.65603 17.312499,16.563808 17.3125,16.444026 C 17.312499,16.286818 17.394605,16.178884 17.53125,16.100276 C 17.669903,16.021673 17.88095,15.975279 18.15625,15.975276 C 18.337101,15.975279 18.518701,16.000348 18.6875,16.037776 C 18.856294,16.07521 18.999508,16.119166 19.15625,16.194026 L 19.15625,15.694026 C 19.003527,15.637882 18.8371,15.597102 18.65625,15.569026 C 18.475395,15.540956 18.298714,15.537779 18.09375,15.537776 z M 25.78125,15.537776 C 25.538101,15.537779 25.301832,15.571073 25.125,15.662776 C 24.948165,15.754485 24.814096,15.907509 24.6875,16.100276 L 24.6875,15.600276 L 24.125,15.600276 L 24.125,18.756526 L 24.6875,18.756526 L 24.6875,16.975276 C 24.687499,16.670214 24.770711,16.434326 24.9375,16.256526 C 25.104285,16.076859 25.310413,15.975279 25.59375,15.975276 C 25.832875,15.975279 26.010458,16.048048 26.125,16.194026 C 26.239537,16.338138 26.312498,16.578336 26.3125,16.881526 L 26.3125,18.756526 L 26.875,18.756526 L 26.875,16.975276 C 26.874997,16.668342 26.95821,16.434326 27.125,16.256526 C 27.291783,16.078731 27.52514,15.975279 27.8125,15.975276 C 28.047604,15.975279 28.197955,16.048048 28.3125,16.194026 C 28.427035,16.34001 28.499995,16.580208 28.5,16.881526 L 28.5,18.756526 L 29.0625,18.756526 L 29.0625,16.850276 C 29.062495,16.427306 28.972145,16.109859 28.78125,15.881526 C 28.590345,15.651327 28.320403,15.537779 27.96875,15.537776 C 27.707514,15.537779 27.474156,15.583607 27.28125,15.694026 C 27.088337,15.804451 26.919901,15.993206 26.78125,16.225276 C 26.698858,16.004435 26.579062,15.841315 26.40625,15.725276 C 26.235442,15.609243 26.026404,15.537779 25.78125,15.537776 z M 11.65625,15.600276 C 11.552408,15.91031 11.452336,16.216562 11.375,16.537776 L 11.375,18.756526 L 11.9375,18.756526 L 11.9375,15.600276 L 11.65625,15.600276 z M 20.15625,15.600276 L 20.15625,17.506526 C 20.156249,17.938857 20.267801,18.281939 20.46875,18.506526 C 20.669697,18.731113 20.955919,18.850276 21.34375,18.850276 C 21.578857,18.850276 21.791913,18.785733 21.96875,18.694026 C 22.147591,18.600448 22.302862,18.478674 22.4375,18.287776 L 22.4375,18.756526 L 23,18.756526 L 23,15.600276 L 22.4375,15.600276 L 22.4375,17.381526 C 22.437497,17.688463 22.362322,17.95373 22.1875,18.131526 C 22.014683,18.309325 21.76816,18.381526 21.46875,18.381526 C 21.219573,18.381526 21.030836,18.31063 20.90625,18.162776 C 20.781661,18.013052 20.71875,17.804105 20.71875,17.506526 L 20.71875,15.600276 L 20.15625,15.600276 z M 14.5625,15.975276 C 14.855881,15.975279 15.08321,16.070677 15.25,16.287776 C 15.418793,16.503008 15.499997,16.814102 15.5,17.194026 C 15.499997,17.573954 15.418793,17.883177 15.25,18.100276 C 15.083211,18.315506 14.855881,18.412776 14.5625,18.412776 C 14.269115,18.412776 14.043794,18.315507 13.875,18.100276 C 13.708212,17.883176 13.624999,17.573954 13.625,17.194026 C 13.624999,16.814101 13.708212,16.503007 13.875,16.287776 C 14.043794,16.070678 14.269114,15.975279 14.5625,15.975276 z M 13.59375,21.569026 L 13.59375,23.287776 C 13.477198,23.100623 13.33509,22.940113 13.15625,22.850276 C 12.979414,22.758573 12.780423,22.725279 12.53125,22.725276 C 12.209709,22.725278 11.947254,22.845726 11.71875,23.037776 C 11.78618,23.2278 11.8292,23.415016 11.90625,23.600276 C 11.928214,23.56211 11.942715,23.508873 11.96875,23.475276 C 12.137545,23.258178 12.362865,23.16278 12.65625,23.162776 C 12.949631,23.162779 13.174952,23.258179 13.34375,23.475276 C 13.512543,23.690508 13.593747,24.001601 13.59375,24.381526 C 13.593747,24.761454 13.512544,25.039427 13.34375,25.256526 C 13.234613,25.395683 13.097011,25.482414 12.9375,25.537776 C 13.015496,25.655597 13.105311,25.766813 13.1875,25.881526 C 13.355171,25.790832 13.482435,25.65402 13.59375,25.475276 L 13.59375,25.944026 L 14.15625,25.944026 L 14.15625,21.569026 L 13.59375,21.569026 z M 19.0625,21.569026 L 19.0625,25.944026 L 19.625,25.944026 L 19.625,21.569026 L 19.0625,21.569026 z M 32.28125,21.569026 L 32.28125,22.225276 L 32.84375,22.225276 L 32.84375,21.569026 L 32.28125,21.569026 z M 16.59375,22.725276 C 16.109465,22.725279 15.744047,22.870816 15.46875,23.162776 C 15.195461,23.454742 15.062499,23.864978 15.0625,24.381526 C 15.0625,24.896206 15.19546,25.306442 15.46875,25.600276 C 15.744047,25.892239 16.109464,26.037776 16.59375,26.037776 C 17.076022,26.037776 17.474699,25.892239 17.75,25.600276 C 18.025295,25.306442 18.156247,24.896206 18.15625,24.381526 C 18.156247,23.864978 18.025295,23.454742 17.75,23.162776 C 17.474699,22.870816 17.076021,22.725279 16.59375,22.725276 z M 22.09375,22.725276 C 21.609465,22.725279 21.212798,22.870816 20.9375,23.162776 C 20.664211,23.454742 20.53125,23.864978 20.53125,24.381526 C 20.53125,24.896206 20.664211,25.306442 20.9375,25.600276 C 21.212797,25.892239 21.609465,26.037776 22.09375,26.037776 C 22.576022,26.037776 22.943449,25.892239 23.21875,25.600276 C 23.494045,25.306442 23.624996,24.896206 23.625,24.381526 C 23.624997,23.864978 23.494046,23.454742 23.21875,23.162776 C 22.943449,22.870816 22.576022,22.725279 22.09375,22.725276 z M 26.21875,22.725276 C 25.951488,22.725279 25.74938,22.756701 25.5625,22.850276 C 25.375617,22.941985 25.210299,23.096879 25.09375,23.287776 L 25.09375,22.787776 L 24.53125,22.787776 L 24.53125,25.944026 L 25.09375,25.944026 L 25.09375,24.287776 C 25.093749,23.932182 25.176961,23.664306 25.34375,23.475276 C 25.512544,23.28438 25.749019,23.194029 26.0625,23.194026 C 26.150915,23.194029 26.240156,23.208434 26.3125,23.225276 C 26.386848,23.240251 26.437705,23.25409 26.5,23.287776 L 26.5,22.756526 C 26.443732,22.747171 26.389965,22.729023 26.34375,22.725276 C 26.29753,22.719665 26.256927,22.725279 26.21875,22.725276 z M 30.125,22.725276 C 29.711047,22.725279 29.41256,22.814326 29.1875,22.975276 C 28.962438,23.136233 28.84375,23.367072 28.84375,23.662776 C 28.84375,23.906081 28.90978,24.08491 29.0625,24.225276 C 29.215219,24.363773 29.468878,24.470401 29.8125,24.537776 L 30,24.569026 C 30.343619,24.638275 30.587024,24.712915 30.6875,24.787776 C 30.789981,24.862639 30.843748,24.991161 30.84375,25.131526 C 30.843748,25.283123 30.765661,25.391056 30.625,25.475276 C 30.484335,25.557625 30.261231,25.600276 30,25.600276 C 29.805079,25.600276 29.636438,25.555188 29.4375,25.506526 C 29.238561,25.455994 29.017466,25.386969 28.8125,25.287776 L 28.8125,25.819026 C 29.029523,25.884531 29.242579,25.943459 29.4375,25.975276 C 29.634428,26.008964 29.819146,26.037776 30,26.037776 C 30.434045,26.037776 30.784081,25.926839 31.03125,25.756526 C 31.280422,25.586214 31.406247,25.360991 31.40625,25.069026 C 31.406247,24.812624 31.323035,24.617515 31.15625,24.475276 C 30.99147,24.331168 30.706356,24.210133 30.3125,24.131526 L 30.125,24.100276 C 29.827596,24.038516 29.629713,23.980154 29.53125,23.912776 C 29.432785,23.84353 29.374998,23.751308 29.375,23.631526 C 29.374999,23.474318 29.457105,23.366385 29.59375,23.287776 C 29.732403,23.209173 29.943451,23.16278 30.21875,23.162776 C 30.399601,23.162779 30.549953,23.187847 30.71875,23.225276 C 30.887544,23.26271 31.062008,23.306666 31.21875,23.381526 L 31.21875,22.881526 C 31.066027,22.825382 30.899601,22.784602 30.71875,22.756526 C 30.537895,22.728456 30.329966,22.725279 30.125,22.725276 z M 32.28125,22.787776 L 32.28125,25.069026 C 32.484624,24.728524 32.675981,24.368712 32.84375,24.006526 L 32.84375,22.787776 L 32.28125,22.787776 z M 16.59375,23.162776 C 16.889141,23.162779 17.139683,23.287556 17.3125,23.506526 C 17.485312,23.723629 17.562496,24.009088 17.5625,24.381526 C 17.562497,24.755839 17.485313,25.039426 17.3125,25.256526 C 17.139683,25.473627 16.88914,25.600276 16.59375,25.600276 C 16.294336,25.600276 16.079064,25.471755 15.90625,25.256526 C 15.735443,25.039426 15.656249,24.757711 15.65625,24.381526 C 15.656249,24.005345 15.733434,23.690508 15.90625,23.475276 C 16.079064,23.258178 16.296345,23.162779 16.59375,23.162776 z M 22.09375,23.162776 C 22.389141,23.162779 22.608432,23.287556 22.78125,23.506526 C 22.954062,23.723629 23.062497,24.009088 23.0625,24.381526 C 23.062497,24.755839 22.954062,25.039426 22.78125,25.256526 C 22.608433,25.473627 22.389141,25.600276 22.09375,25.600276 C 21.794336,25.600276 21.547815,25.471755 21.375,25.256526 C 21.204193,25.039426 21.124998,24.757711 21.125,24.381526 C 21.124999,24.005345 21.202184,23.690508 21.375,23.475276 C 21.547814,23.258178 21.796346,23.162779 22.09375,23.162776 z M 24.96875,29.100276 L 24.96875,29.975276 L 24.5625,29.975276 L 24.5625,30.381526 L 24.90625,30.381526 C 24.926108,30.377222 24.94893,30.385933 24.96875,30.381526 C 25.433075,30.278275 25.871285,30.133154 26.3125,29.975276 L 25.53125,29.975276 L 25.53125,29.100276 L 24.96875,29.100276 z M 18.96875,29.912776 C 18.838132,29.912777 18.708857,29.918766 18.59375,29.944026 C 18.995198,30.089307 19.391624,30.218887 19.8125,30.319026 C 19.799199,30.300716 19.795698,30.273808 19.78125,30.256526 C 19.590345,30.026327 19.320404,29.912779 18.96875,29.912776 z M 22.59375,29.912776 C 22.08736,29.912779 21.674411,30.078337 21.375,30.381526 C 21.311058,30.44631 21.26832,30.52601 21.21875,30.600276 C 21.414854,30.621794 21.613551,30.620068 21.8125,30.631526 C 21.823233,30.621005 21.832373,30.610296 21.84375,30.600276 C 22.03063,30.437453 22.28429,30.350279 22.59375,30.350276 C 22.867037,30.350279 23.085221,30.431838 23.25,30.600276 C 23.256132,30.606469 23.244104,30.62515 23.25,30.631526 C 23.449075,30.617879 23.647596,30.59275 23.84375,30.569026 C 23.790174,30.478473 23.728714,30.393165 23.65625,30.319026 C 23.393006,30.045781 23.047889,29.912779 22.59375,29.912776 z"
         style="fill:#4d4d4d;fill-opacity:1" />
      <rect
         y="9.3705206"
         x="8.5604954"
         height="1.2390192"
         width="4.2802477"
         id="rect8931"
         style="opacity:1;fill:#4d4d4d;fill-opacity:1;stroke:#4d4d4d;stroke-width:1.0999999;stroke-linecap:butt;stroke-linejoin:miter;stroke-miterlimit:4;stroke-dasharray:none;stroke-dashoffset:0;stroke-opacity:1" />
      <rect
         style="opacity:1;fill:#4d4d4d;fill-opacity:1;stroke:#4d4d4d;stroke-width:1.0999999;stroke-linecap:butt;stroke-linejoin:miter;stroke-miterlimit:4;stroke-dasharray:none;stroke-dashoffset:0;stroke-opacity:1"
         id="rect8933"
         width="22.865534"
         height="1.2390192"
         x="32.777683"
         y="9.8210726" />
      <rect
         y="16.354082"
         x="34.917805"
         height="1.2390192"
         width="16.332525"
         id="rect8935"
         style="opacity:1;fill:#4d4d4d;fill-opacity:1;stroke:#4d4d4d;stroke-width:1.10000002;stroke-linecap:butt;stroke-linejoin:miter;stroke-miterlimit:4;stroke-dasharray:none;stroke-dashoffset:0;stroke-opacity:1" />
      <rect
         style="opacity:1;fill:#4d4d4d;fill-opacity:1;stroke:#4d4d4d;stroke-width:1.0999999;stroke-linecap:butt;stroke-linejoin:miter;stroke-miterlimit:4;stroke-dasharray:none;stroke-dashoffset:0;stroke-opacity:1"
         id="rect8937"
         width="1.1263801"
         height="1.2390192"
         x="8.5604887"
         y="16.016169" />
      <rect
         style="opacity:1;fill:#4d4d4d;fill-opacity:1;stroke:#4d4d4d;stroke-width:1.0999999;stroke-linecap:butt;stroke-linejoin:miter;stroke-miterlimit:4;stroke-dasharray:none;stroke-dashoffset:0;stroke-opacity:1"
         id="rect8939"
         width="13.854486"
         height="1.2390192"
         x="35.030441"
         y="22.887091" />
      <rect
         style="opacity:1;fill:#4d4d4d;fill-opacity:1;stroke:#4d4d4d;stroke-width:1.0999999;stroke-linecap:butt;stroke-linejoin:miter;stroke-miterlimit:4;stroke-dasharray:none;stroke-dashoffset:0;stroke-opacity:1"
         id="rect8941"
         width="1.6895713"
         height="1.2390192"
         x="8.5604954"
         y="22.661816" />
      <rect
         style="opacity:1;fill:#4d4d4d;fill-opacity:1;stroke:#4d4d4d;stroke-width:1.0999999;stroke-linecap:butt;stroke-linejoin:miter;stroke-miterlimit:4;stroke-dasharray:none;stroke-dashoffset:0;stroke-opacity:1"
         id="rect8943"
         width="5.4066286"
         height="1.2390192"
         x="8.5604954"
         y="28.518997" />
      <rect
         y="28.969549"
         x="32.777683"
         height="1.2390192"
         width="22.752895"
         id="rect8945"
         style="opacity:1;fill:#4d4d4d;fill-opacity:1;stroke:#4d4d4d;stroke-width:1.0999999;stroke-linecap:butt;stroke-linejoin:miter;stroke-miterlimit:4;stroke-dasharray:none;stroke-dashoffset:0;stroke-opacity:1" />
      <rect
         y="4.63972"
         x="8.7857676"
         height="1.2390192"
         width="22.865534"
         id="rect8947"
         style="opacity:1;fill:#4d4d4d;fill-opacity:1;stroke:#4d4d4d;stroke-width:1.0999999;stroke-linecap:butt;stroke-linejoin:miter;stroke-miterlimit:4;stroke-dasharray:none;stroke-dashoffset:0;stroke-opacity:1" />
      <rect
         style="opacity:1;fill:#4d4d4d;fill-opacity:1;stroke:#4d4d4d;stroke-width:1.0999999;stroke-linecap:butt;stroke-linejoin:miter;stroke-miterlimit:4;stroke-dasharray:none;stroke-dashoffset:0;stroke-opacity:1"
         id="rect8949"
         width="44.49205"
         height="1.2390192"
         x="8.4478531"
         y="35.389919" />
      <rect
         y="41.810291"
         x="8.3352146"
         height="1.2390192"
         width="47.195366"
         id="rect8951"
         style="opacity:1;fill:#4d4d4d;fill-opacity:1;stroke:#4d4d4d;stroke-width:1.0999999;stroke-linecap:butt;stroke-linejoin:miter;stroke-miterlimit:4;stroke-dasharray:none;stroke-dashoffset:0;stroke-opacity:1" />
      <rect
         style="opacity:1;fill:#4d4d4d;fill-opacity:1;stroke:#4d4d4d;stroke-width:1.0999999;stroke-linecap:butt;stroke-linejoin:miter;stroke-miterlimit:4;stroke-dasharray:none;stroke-dashoffset:0;stroke-opacity:1"
         id="rect8953"
         width="24.780384"
         height="1.2390192"
         x="8.3352146"
         y="48.45594" />
    </g>
  </g>
</svg>
