<?xml version="1.0" encoding="UTF-8" standalone="no"?>
<svg
   width="64"
   height="64"
   version="1.1"
   id="svg12"
   sodipodi:docname="0ad.svg"
   inkscape:version="1.1 (1:1.1+202105261517+ce6663b3b7)"
   xmlns:inkscape="http://www.inkscape.org/namespaces/inkscape"
   xmlns:sodipodi="http://sodipodi.sourceforge.net/DTD/sodipodi-0.dtd"
   xmlns="http://www.w3.org/2000/svg"
   xmlns:svg="http://www.w3.org/2000/svg"
   xmlns:rdf="http://www.w3.org/1999/02/22-rdf-syntax-ns#"
   xmlns:cc="http://creativecommons.org/ns#"
   xmlns:dc="http://purl.org/dc/elements/1.1/">
  <metadata
     id="metadata18">
    <rdf:RDF>
      <cc:Work
         rdf:about="">
        <dc:format>image/svg+xml</dc:format>
        <dc:type
           rdf:resource="http://purl.org/dc/dcmitype/StillImage" />
      </cc:Work>
    </rdf:RDF>
  </metadata>
  <defs
     id="defs16">
    <inkscape:path-effect
       effect="powerclip"
       id="path-effect374"
       is_visible="true"
       lpeversion="1"
       inverse="true"
       flatten="false"
       hide_clip="false"
       message="Use fill-rule evenodd on &lt;b&gt;fill and stroke&lt;/b&gt; dialog if no flatten result after convert clip to paths." />
    <clipPath
       clipPathUnits="userSpaceOnUse"
       id="clipPath370">
      <path
         style="display:none;opacity:0.85;fill:#ffffff"
         d="M 34,10.1016 V 30 H 53.89 A 22,22 0 0 0 34,10.1016 Z m -4,0.0078 A 22,22 0 0 0 10.1016,30 H 30 Z m -19.8906,23.89 A 22,22 0 0 0 30,53.8974 v -19.898 z m 23.89,0 v 19.89 a 22,22 0 0 0 19.898,-19.89 z"
         id="path372" />
      <path
         id="lpe_path-effect374"
         style="opacity:0.85;fill:#ffffff"
         class="powerclip"
         d="M -1,-1 H 65 V 65 H -1 Z M 34,10.1016 V 30 H 53.89 A 22,22 0 0 0 34,10.1016 Z m -4,0.0078 A 22,22 0 0 0 10.1016,30 H 30 Z m -19.8906,23.89 A 22,22 0 0 0 30,53.8974 v -19.898 z m 23.89,0 v 19.89 a 22,22 0 0 0 19.898,-19.89 z" />
    </clipPath>
  </defs>
  <sodipodi:namedview
     pagecolor="#ffffff"
     bordercolor="#666666"
     borderopacity="1"
     objecttolerance="10"
     gridtolerance="10"
     guidetolerance="10"
     inkscape:pageopacity="0"
     inkscape:pageshadow="2"
     inkscape:window-width="1280"
     inkscape:window-height="973"
     id="namedview14"
     showgrid="false"
     inkscape:zoom="12.890625"
     inkscape:cx="32.038788"
     inkscape:cy="32.038788"
     inkscape:window-x="489"
     inkscape:window-y="320"
     inkscape:window-maximized="0"
     inkscape:current-layer="svg12"
     inkscape:pagecheckerboard="0" />
  <path
     style="fill:#29292a"
     d="M 32,4 A 28,28 0 0 0 4,32 28,28 0 0 0 32,60 28,28 0 0 0 60,32 28,28 0 0 0 32,4 Z"
     id="path4"
     clip-path="url(#clipPath370)"
     inkscape:path-effect="#path-effect374"
     inkscape:original-d="M 32,4 A 28,28 0 0 0 4,32 28,28 0 0 0 32,60 28,28 0 0 0 60,32 28,28 0 0 0 32,4 Z" />
</svg>
