<?xml version="1.0" encoding="UTF-8" standalone="no"?>
<svg
   width="64"
   height="64"
   version="1"
   id="svg20"
   sodipodi:docname="4kstogram.svg"
   inkscape:version="1.1 (1:1.1+202105261517+ce6663b3b7)"
   xmlns:inkscape="http://www.inkscape.org/namespaces/inkscape"
   xmlns:sodipodi="http://sodipodi.sourceforge.net/DTD/sodipodi-0.dtd"
   xmlns="http://www.w3.org/2000/svg"
   xmlns:svg="http://www.w3.org/2000/svg">
  <g
     id="g1249">
    <path
       style="fill:#29292a"
       width="56"
       height="56"
       x="4"
       y="4"
       rx="16.799999"
       ry="16.799999"
       id="rect4"
       sodipodi:type="rect"
       clip-path="url(#clipPath1224)"
       inkscape:path-effect="#path-effect1232"
       d="M 20.799999,4 H 43.200001 C 52.5072,4 60,11.4928 60,20.799999 V 43.200001 C 60,52.5072 52.5072,60 43.200001,60 H 20.799999 C 11.4928,60 4,52.5072 4,43.200001 V 20.799999 C 4,11.4928 11.4928,4 20.799999,4 Z" />
    <path
       style="fill:#29292a"
       d="m 32.112754,21.311514 a 11,11 0 0 0 -11,11 11,11 0 0 0 11,11 11,11 0 0 0 11,-11 11,11 0 0 0 -11,-11 z"
       id="path16" />
  </g>
  <defs
     id="defs24">
    <inkscape:path-effect
       effect="powerclip"
       id="path-effect1232"
       is_visible="true"
       lpeversion="1"
       inverse="true"
       flatten="false"
       hide_clip="false"
       message="Use fill-rule evenodd on &lt;b&gt;fill and stroke&lt;/b&gt; dialog if no flatten result after convert clip to paths." />
    <clipPath
       clipPathUnits="userSpaceOnUse"
       id="clipPath1224">
      <g
         id="g1230"
         style="display:none">
        <path
           style="fill:#ffffff"
           d="M 49,11.000001 A 4,4 0 0 1 53,15 a 4,4 0 0 1 -4,4 4,4 0 0 1 -4,-4 4,4 0 0 1 4,-3.999999 z"
           id="path1226" />
        <path
           style="opacity:0.85;fill:#ffffff"
           d="M 32,14.999999 A 17.000001,17.000001 0 0 1 49.000001,32 17.000001,17.000001 0 0 1 32,49.000001 17.000001,17.000001 0 0 1 14.999999,32 17.000001,17.000001 0 0 1 32,14.999999 Z"
           id="path1228" />
      </g>
      <path
         id="lpe_path-effect1232"
         class="powerclip"
         d="M -1,-1 H 65 V 65 H -1 Z M 49,11.000001 A 4,4 0 0 0 45,15 a 4,4 0 0 0 4,4 4,4 0 0 0 4,-4 4,4 0 0 0 -4,-3.999999 z M 32,14.999999 A 17.000001,17.000001 0 0 0 14.999999,32 17.000001,17.000001 0 0 0 32,49.000001 17.000001,17.000001 0 0 0 49.000001,32 17.000001,17.000001 0 0 0 32,14.999999 Z" />
    </clipPath>
  </defs>
  <sodipodi:namedview
     id="namedview22"
     pagecolor="#ffffff"
     bordercolor="#666666"
     borderopacity="1.0"
     inkscape:pageshadow="2"
     inkscape:pageopacity="0.0"
     inkscape:pagecheckerboard="0"
     showgrid="false"
     inkscape:zoom="9.0929513"
     inkscape:cx="22.105034"
     inkscape:cy="25.349306"
     inkscape:window-width="1459"
     inkscape:window-height="738"
     inkscape:window-x="284"
     inkscape:window-y="416"
     inkscape:window-maximized="0"
     inkscape:current-layer="svg20" />
</svg>
