<?xml version="1.0" encoding="UTF-8" standalone="no"?>
<svg
   width="64"
   height="64"
   version="1"
   id="svg20"
   sodipodi:docname="4kyoutubetomp3.svg"
   inkscape:version="1.1 (1:1.1+202105261517+ce6663b3b7)"
   xmlns:inkscape="http://www.inkscape.org/namespaces/inkscape"
   xmlns:sodipodi="http://sodipodi.sourceforge.net/DTD/sodipodi-0.dtd"
   xmlns="http://www.w3.org/2000/svg"
   xmlns:svg="http://www.w3.org/2000/svg">
  <defs
     id="defs24">
    <inkscape:path-effect
       effect="powerclip"
       id="path-effect22"
       is_visible="true"
       lpeversion="1"
       inverse="true"
       flatten="false"
       hide_clip="false"
       message="Use fill-rule evenodd on &lt;b&gt;fill and stroke&lt;/b&gt; dialog if no flatten result after convert clip to paths." />
    <clipPath
       clipPathUnits="userSpaceOnUse"
       id="clipPath18">
      <path
         style="display:none;opacity:0.85;fill:#ffffff"
         d="m 42,19 -17,6 v 6 6.263672 A 4.5,4.5 0 0 0 23.5,37 4.5,4.5 0 0 0 19,41.5 4.5,4.5 0 0 0 23.5,46 4.5,4.5 0 0 0 28,41.5 V 29.941406 l 11,-3.882812 v 8.205078 A 4.5,4.5 0 0 0 37.5,34 4.5,4.5 0 0 0 33,38.5 4.5,4.5 0 0 0 37.5,43 4.5,4.5 0 0 0 42,38.5 V 25 Z"
         id="path20" />
      <path
         id="lpe_path-effect22"
         style="opacity:0.85;fill:#ffffff"
         class="powerclip"
         d="M -3,6 H 67.000002 V 58.077765 H -3 Z m 45,13 -17,6 v 6 6.263672 A 4.5,4.5 0 0 0 23.5,37 4.5,4.5 0 0 0 19,41.5 4.5,4.5 0 0 0 23.5,46 4.5,4.5 0 0 0 28,41.5 V 29.941406 l 11,-3.882812 v 8.205078 A 4.5,4.5 0 0 0 37.5,34 4.5,4.5 0 0 0 33,38.5 4.5,4.5 0 0 0 37.5,43 4.5,4.5 0 0 0 42,38.5 V 25 Z" />
    </clipPath>
  </defs>
  <sodipodi:namedview
     id="namedview22"
     pagecolor="#ffffff"
     bordercolor="#666666"
     borderopacity="1.0"
     inkscape:pageshadow="2"
     inkscape:pageopacity="0.0"
     inkscape:pagecheckerboard="0"
     showgrid="false"
     inkscape:zoom="12.859375"
     inkscape:cx="32.038882"
     inkscape:cy="32"
     inkscape:window-width="1567"
     inkscape:window-height="738"
     inkscape:window-x="99"
     inkscape:window-y="387"
     inkscape:window-maximized="0"
     inkscape:current-layer="svg20" />
  <g
     id="g16"
     clip-path="url(#clipPath18)"
     inkscape:path-effect="#path-effect22">
    <circle
       style="fill:#29292a"
       cx="-49.143"
       cy="40.143"
       r="12.857"
       transform="scale(-1,1)"
       id="circle4"
       d="m -36.286001,40.143002 a 12.857,12.857 0 0 1 -12.857001,12.857 12.857,12.857 0 0 1 -12.857,-12.857 12.857,12.857 0 0 1 12.857,-12.857001 12.857,12.857 0 0 1 12.857001,12.857001 z" />
    <circle
       style="fill:#29292a"
       cx="-35"
       cy="26"
       r="15"
       transform="scale(-1,1)"
       id="circle6"
       d="M -20,26 A 15,15 0 0 1 -35,41 15,15 0 0 1 -50,26 15,15 0 0 1 -35,11 15,15 0 0 1 -20,26 Z" />
    <circle
       style="fill:#29292a"
       cx="-23.429"
       cy="28.714"
       r="10"
       transform="scale(-1,1)"
       id="circle8"
       d="m -13.429001,28.714001 a 10,10 0 0 1 -10,10 10,10 0 0 1 -10,-10 10,10 0 0 1 10,-10 10,10 0 0 1 10,10 z" />
    <circle
       style="fill:#29292a"
       cx="-14.857"
       cy="40.220764"
       r="12.857"
       transform="scale(-1,1)"
       id="circle10"
       d="M -2,40.220764 A 12.857,12.857 0 0 1 -14.857,53.077765 12.857,12.857 0 0 1 -27.714001,40.220764 12.857,12.857 0 0 1 -14.857,27.363764 12.857,12.857 0 0 1 -2,40.220764 Z" />
    <path
       style="fill:#29292a"
       width="34.285999"
       height="17.143"
       x="-49.139999"
       y="35.860001"
       transform="scale(-1,1)"
       id="rect12"
       d="M -49.139999,35.860001 H -14.854 V 53.003 h -34.285999 z"
       sodipodi:type="rect" />
  </g>
</svg>
