<?xml version="1.0" encoding="UTF-8" standalone="no"?>
<svg
   width="64"
   height="64"
   version="1.1"
   id="svg14"
   sodipodi:docname="actionaz.svg"
   inkscape:version="1.1 (1:1.1+rc+202105240936+c4e8f9ed74)"
   xmlns:inkscape="http://www.inkscape.org/namespaces/inkscape"
   xmlns:sodipodi="http://sodipodi.sourceforge.net/DTD/sodipodi-0.dtd"
   xmlns="http://www.w3.org/2000/svg"
   xmlns:svg="http://www.w3.org/2000/svg">
  <g
     id="g377"
     style="fill:#29292a">
    <path
       d="M 7,60 H 18 L 32,29 46,60 H 57 L 38,18 H 26 Z"
       style="fill:#29292a"
       id="path4"
       clip-path="url(#clipPath367)"
       inkscape:path-effect="#path-effect371"
       inkscape:original-d="m7 60h11l14-31 14 31h11l-19-42h-12z" />
    <path
       d="m 15.94499,4.4524198 c -6.6480001,0 -12.0000001,5.352 -12.0000001,12.0000002 v 21 c 0,6.648 5.352,12 12.0000001,12 h 32.000005 c 6.648,0 12,-5.352 12,-12 v -21 c 0,-6.6480002 -5.352,-12.0000002 -12,-12.0000002 h -7.00001 V 15.45242 h 2 c 3.32401,0 6.00001,2.676 6.00001,6 v 11 c 0,3.324 -2.676,6 -6.00001,6 H 20.94499 c -3.324,0 -6,-2.676 -6,-6 v -11 c 0,-3.324 2.676,-6 6,-6 h 2 V 4.4524198 Z"
       style="fill:#29292a"
       id="path10-3" />
  </g>
  <defs
     id="defs18">
    <inkscape:path-effect
       effect="powerclip"
       id="path-effect371"
       is_visible="true"
       lpeversion="1"
       inverse="true"
       flatten="false"
       hide_clip="false"
       message="Use fill-rule evenodd on &lt;b&gt;fill and stroke&lt;/b&gt; dialog if no flatten result after convert clip to paths." />
    <clipPath
       clipPathUnits="userSpaceOnUse"
       id="clipPath367">
      <path
         d="m 11.273891,-7.706756 c -8.6423997,0 -15.5999997,6.95760004 -15.5999997,15.6 v 27.3 c 0,8.6424 6.9576,15.6 15.5999997,15.6 h 41.6 c 8.6424,0 15.6,-6.9576 15.6,-15.6 v -27.3 c 0,-8.64239996 -6.9576,-15.6 -15.6,-15.6 h -9.1 v 14.3 h 2.6 c 4.3212,0 7.8,3.4788 7.8,7.8 v 14.3 c 0,4.3212 -3.4788,7.8 -7.8,7.8 h -28.6 c -4.3212,0 -7.7999997,-3.4788 -7.7999997,-7.8 v -14.3 c 0,-4.3212 3.4787997,-7.8 7.7999997,-7.8 h 2.6 v -14.3 z"
         style="display:none;fill:#69cbde;stroke-width:1.3"
         id="path369" />
      <path
         id="lpe_path-effect371"
         style="fill:#69cbde;stroke-width:1.3"
         class="powerclip"
         d="M 2,13 H 62 V 65 H 2 Z m 9.273891,-20.706756 c -8.6423997,0 -15.5999997,6.95760004 -15.5999997,15.6 v 27.3 c 0,8.6424 6.9576,15.6 15.5999997,15.6 h 41.6 c 8.6424,0 15.6,-6.9576 15.6,-15.6 v -27.3 c 0,-8.64239996 -6.9576,-15.6 -15.6,-15.6 h -9.1 v 14.3 h 2.6 c 4.3212,0 7.8,3.4788 7.8,7.8 v 14.3 c 0,4.3212 -3.4788,7.8 -7.8,7.8 h -28.6 c -4.3212,0 -7.7999997,-3.4788 -7.7999997,-7.8 v -14.3 c 0,-4.3212 3.4787997,-7.8 7.7999997,-7.8 h 2.6 v -14.3 z" />
    </clipPath>
  </defs>
  <sodipodi:namedview
     id="namedview16"
     pagecolor="#ffffff"
     bordercolor="#666666"
     borderopacity="1.0"
     inkscape:pageshadow="2"
     inkscape:pageopacity="0.0"
     inkscape:pagecheckerboard="0"
     showgrid="false"
     inkscape:zoom="12.859375"
     inkscape:cx="32"
     inkscape:cy="32"
     inkscape:window-width="1920"
     inkscape:window-height="996"
     inkscape:window-x="0"
     inkscape:window-y="0"
     inkscape:window-maximized="1"
     inkscape:current-layer="svg14" />
</svg>
