<?xml version="1.0" encoding="UTF-8" standalone="no"?>
<svg
   width="64"
   height="64"
   version="1.1"
   id="svg73"
   sodipodi:docname="appimagekit-pcloud.svg"
   inkscape:version="1.1 (1:1.1+202105261517+ce6663b3b7)"
   xmlns:inkscape="http://www.inkscape.org/namespaces/inkscape"
   xmlns:sodipodi="http://sodipodi.sourceforge.net/DTD/sodipodi-0.dtd"
   xmlns="http://www.w3.org/2000/svg"
   xmlns:svg="http://www.w3.org/2000/svg"
   xmlns:rdf="http://www.w3.org/1999/02/22-rdf-syntax-ns#"
   xmlns:cc="http://creativecommons.org/ns#"
   xmlns:dc="http://purl.org/dc/elements/1.1/">
  <metadata
     id="metadata77">
    <rdf:RDF>
      <cc:Work
         rdf:about="">
        <dc:format>image/svg+xml</dc:format>
        <dc:type
           rdf:resource="http://purl.org/dc/dcmitype/StillImage" />
        <dc:title />
      </cc:Work>
    </rdf:RDF>
  </metadata>
  <sodipodi:namedview
     pagecolor="#ffffff"
     bordercolor="#666666"
     borderopacity="1"
     objecttolerance="10"
     gridtolerance="10"
     guidetolerance="10"
     inkscape:pageopacity="0"
     inkscape:pageshadow="2"
     inkscape:window-width="1541"
     inkscape:window-height="801"
     id="namedview75"
     showgrid="false"
     inkscape:zoom="12.578125"
     inkscape:cx="24.009938"
     inkscape:cy="36.650932"
     inkscape:window-x="167"
     inkscape:window-y="130"
     inkscape:window-maximized="0"
     inkscape:current-layer="svg73"
     inkscape:document-rotation="0"
     inkscape:pagecheckerboard="0" />
  <defs
     id="defs29">
    <inkscape:path-effect
       effect="powerclip"
       id="path-effect921"
       is_visible="true"
       lpeversion="1"
       inverse="true"
       flatten="false"
       hide_clip="false"
       message="Use fill-rule evenodd on &lt;b&gt;fill and stroke&lt;/b&gt; dialog if no flatten result after convert clip to paths." />
    <inkscape:path-effect
       effect="powerclip"
       id="path-effect737"
       is_visible="true"
       lpeversion="1"
       inverse="true"
       flatten="false"
       hide_clip="false"
       message="Use fill-rule evenodd on &lt;b&gt;fill and stroke&lt;/b&gt; dialog if no flatten result after convert clip to paths." />
    <linearGradient
       id="b"
       x1="399.57"
       x2="399.57"
       y1="545.8"
       y2="517.8"
       gradientTransform="matrix(2.1429,0,0,2.1429,-826.36,-1107.5)"
       gradientUnits="userSpaceOnUse">
      <stop
         stop-color="#3889e9"
         offset="0"
         id="stop2" />
      <stop
         stop-color="#5ea5fb"
         offset="1"
         id="stop4" />
    </linearGradient>
    <linearGradient
       id="linearGradient862"
       x1="7.9373"
       x2="7.9373"
       y1="15.081"
       y2="1.852"
       gradientTransform="matrix(3.3743 0 0 3.3743 3.4312 3.4278)"
       gradientUnits="userSpaceOnUse">
      <stop
         stop-color="#f1efeb"
         offset="0"
         id="stop7" />
      <stop
         stop-color="#fff"
         offset="1"
         id="stop9" />
    </linearGradient>
    <linearGradient
       id="linearGradient910"
       x1="7.9373"
       x2="7.9373"
       y1="15.081"
       y2="1.852"
       gradientTransform="scale(3.7796)"
       gradientUnits="userSpaceOnUse">
      <stop
         stop-color="#613583"
         offset="0"
         id="stop12" />
      <stop
         stop-color="#a663c0"
         offset="1"
         id="stop14" />
    </linearGradient>
    <linearGradient
       id="linearGradient932"
       x1="379.24"
       x2="374.24"
       y1="546.85"
       y2="546.85"
       gradientTransform="matrix(2.1429 0 0 2.1429 -769.68 -1134.5)"
       gradientUnits="userSpaceOnUse">
      <stop
         stop-color="#f6f5f4"
         offset="0"
         id="stop17" />
      <stop
         stop-color="#fff"
         offset=".6"
         id="stop19" />
      <stop
         stop-color="#dddbd8"
         offset="1"
         id="stop21" />
    </linearGradient>
    <linearGradient
       id="linearGradient1146"
       x1="18"
       x2="18"
       y1="52"
       y2="12"
       gradientUnits="userSpaceOnUse">
      <stop
         stop-color="#5e337f"
         offset="0"
         id="stop24" />
      <stop
         stop-color="#ab60bf"
         offset="1"
         id="stop26" />
    </linearGradient>
    <clipPath
       clipPathUnits="userSpaceOnUse"
       id="clipPath733">
      <path
         id="lpe_path-effect737"
         style="color:#000000;opacity:0.85;fill:#ffffff;-inkscape-stroke:none"
         class="powerclip"
         d="M -3.0605469,4.4863281 H 67.306641 V 58.824219 H -3.0605469 Z M 32.283963,22.891532 a 14,14 0 0 0 -14,14 14,14 0 0 0 14,14 14,14 0 0 0 14,-14 14,14 0 0 0 -14,-14 z m 0,3 a 11,11 0 0 0 -11,11 11,11 0 0 0 11,11 11,11 0 0 0 11,-11 11,11 0 0 0 -11,-11 z" />
    </clipPath>
    <clipPath
       clipPathUnits="userSpaceOnUse"
       id="clipPath917">
      <path
         style="color:#000000;display:none;opacity:0.85;fill:#808080;-inkscape-stroke:none"
         d="m 28.41217,29.588491 c -1.1634,0 -2.099609,0.911741 -2.099609,2.044922 v 10.908203 c 0,1.133182 0.936209,2.046875 2.099609,2.046875 1.163399,0 1.845057,-0.915045 1.900391,-2.046875 v -1.845703 h 4.400391 c 3.092796,0 5.599609,-2.440663 5.599609,-5.453125 0,-3.012463 -2.506813,-5.654297 -5.599609,-5.654297 z m 1.900391,4.046875 h 4.550781 c 0.851325,0 1.449219,0.780142 1.449219,1.601562 0,0.821419 -0.598114,1.417599 -1.449219,1.398438 h -4.550781 z"
         id="path919" />
      <path
         id="lpe_path-effect921"
         style="color:#000000;opacity:0.85;fill:#808080;-inkscape-stroke:none"
         class="powerclip"
         d="M 16.441303,20.916089 H 48.171329 V 52.846408 H 16.441303 Z m 11.970867,8.672402 c -1.1634,0 -2.099609,0.911741 -2.099609,2.044922 v 10.908203 c 0,1.133182 0.936209,2.046875 2.099609,2.046875 1.163399,0 1.845057,-0.915045 1.900391,-2.046875 v -1.845703 h 4.400391 c 3.092796,0 5.599609,-2.440663 5.599609,-5.453125 0,-3.012463 -2.506813,-5.654297 -5.599609,-5.654297 z m 1.900391,4.046875 v 3 h 4.550781 c 0.851105,0.01916 1.449219,-0.577019 1.449219,-1.398438 0,-0.82142 -0.597894,-1.601562 -1.449219,-1.601562 z" />
    </clipPath>
  </defs>
  <circle
     cx="32.02"
     cy="32.044"
     r="0"
     fill="url(#b)"
     stroke-width="1.5715"
     id="circle41" />
  <g
     id="g1466">
    <path
       id="circle22"
       clip-path="url(#clipPath733)"
       style="fill:#29292a;stroke-width:1.36334"
       d="M 32.123047,9.4863281 A 15.092007,17.734838 0 0 0 17.03125,27.222656 a 15.092007,17.734838 0 0 0 0.04687,0.78125 11.319004,13.301127 0 0 0 -3.820313,-0.78125 A 11.319004,13.301127 0 0 0 1.9394531,40.523438 11.319004,13.301127 0 0 0 13.257812,53.824219 H 50.988281 A 11.319004,13.301127 0 0 0 62.306641,40.523438 11.319004,13.301127 0 0 0 50.988281,27.222656 11.319004,13.301127 0 0 0 47.166016,28.039062 15.092007,17.734838 0 0 0 47.214844,27.222656 15.092007,17.734838 0 0 0 32.123047,9.4863281 Z m 0.306641,15.4316409 c -0.02674,-0.01181 0.03081,-0.001 0.210937,0.03711 0.174511,0.03694 0.347143,0.07749 0.521484,0.115234 0.246099,0.05327 0.492059,0.105504 0.738282,0.158204 0.156794,0.0314 0.336147,0.0074 0.470703,0.09375 0.04848,0.03113 0.106717,0.06038 0.160156,0.08984 0.175747,-0.06941 0.443433,-0.02483 0.574219,0.109375 0.752545,0.282607 1.576134,0.387479 2.269531,0.81836 0.343267,0.26653 0.700804,0.511566 1.09375,0.701172 0.44729,0.215832 0.907702,0.414529 1.314453,0.703125 0.07527,0.04391 0.155693,0.08211 0.226563,0.132812 0.282836,0.20235 0.509052,0.459469 0.720703,0.732422 0.356784,0.279582 0.316663,0.220249 0.658203,0.673828 0.0362,0.04808 0.05441,0.10768 0.08008,0.162109 0.03561,0.07551 0.06895,0.150563 0.103516,0.226563 0.01089,0.02394 -0.07184,-0.153076 -0.03125,-0.07227 0.0063,0.01171 0.174222,0.324625 0.169922,0.328125 -0.05975,0.04767 -0.22445,-0.144589 -0.21875,-0.06836 0.0062,0.08313 0.153266,0.06903 0.222656,0.115234 0.355909,0.236973 0.304576,0.222813 0.55664,0.546875 0.06917,0.144503 0.149092,0.284235 0.207032,0.433594 0.09922,0.255782 0.147466,0.571706 0.160156,0.861328 0.238204,0.52314 0.324877,1.075891 0.464844,1.638672 -0.01471,0.08272 -0.03204,0.165609 -0.04883,0.248047 0.0017,0.0068 0.0027,0.0091 0.0039,0.01367 0.04803,0.10987 0.0965,0.220208 0.144531,0.330078 0.04655,0.197652 0.09408,0.393713 0.138672,0.591797 0.03853,0.0531 0.07691,0.10692 0.115234,0.160156 0.608852,0.845736 0.451083,1.554206 -0.0059,1.806641 -1.72e-4,0.237641 6.59e-4,0.475275 -0.0039,0.71289 0.002,0.12063 0.01976,0.318212 0.02734,0.498047 0.100781,0.241377 0.191156,0.481254 0.226563,0.763672 -0.01845,0.120887 -0.0212,0.246242 -0.05664,0.363281 -0.03449,0.113907 -0.09326,0.219501 -0.146484,0.326172 -0.0031,0.02869 -0.0051,0.05721 -0.0078,0.08594 -3.4e-4,0.0013 -0.07993,0.316063 -0.07813,0.251953 0.0058,-0.205877 0.04608,-0.358463 0.07813,-0.458984 0.0027,-0.03604 0.006,-0.07152 0.0098,-0.107422 -0.02191,0.02219 -0.11762,0.117734 -0.179688,0.18164 -0.01023,0.03041 -0.02319,0.06681 -0.02734,0.08594 -0.0096,0.04401 -0.01604,0.08838 -0.02344,0.132812 0.03552,0.188281 0.04777,0.374456 0.05664,0.589844 -0.0044,0.367752 -0.0052,0.329526 -0.111328,0.671875 -0.0021,0.184748 -0.0072,0.368229 -0.01563,0.552734 0.135852,0.252568 0.229406,0.535599 0.05664,0.667969 -0.132699,0.101672 -0.276,0.196875 -0.423828,0.285156 -0.03184,0.09533 -0.0584,0.178479 -0.0957,0.285157 -0.02707,0.07742 -0.110636,0.104786 -0.205078,0.113281 -0.08991,0.271311 -0.17958,0.542632 -0.310547,0.796875 -0.138886,0.249226 -0.121117,0.241526 -0.25,0.417969 -0.04871,0.06668 -0.181994,0.272382 -0.152344,0.195312 0.01431,-0.0372 0.06884,-0.142635 0.04687,-0.109375 -0.06655,0.10073 -0.12119,0.207996 -0.18164,0.3125 -0.09937,0.09411 -0.196111,0.190583 -0.296875,0.283203 -0.0052,0.0048 0.0062,-0.01343 0.0098,-0.01953 0.01489,-0.02866 0.03003,-0.05727 0.04492,-0.08594 -0.121645,0.13678 -0.19449,0.363499 -0.36914,0.443359 0.03757,-0.06926 0.07957,-0.149372 0.07227,-0.232422 -0.0088,-0.10027 -0.01585,-0.397208 -0.03711,-0.298828 -0.05235,0.242147 -0.03904,0.493273 -0.05859,0.740234 -0.153925,0.168137 -0.290824,0.352168 -0.460937,0.503907 -0.05843,0.05212 -0.158441,0.08729 -0.269532,0.113281 -0.0023,0.0022 -0.0057,0.0036 -0.0078,0.0059 -0.114933,0.100133 -0.226253,0.206081 -0.345703,0.300781 -0.312685,0.247894 -0.640782,0.445155 -1,0.625 -0.06949,0.03479 -0.537204,0.186389 -0.611328,0.216797 -0.134297,0.106035 -0.271501,0.208963 -0.40625,0.314453 -0.11385,0.02668 -0.226499,0.06059 -0.341797,0.08008 -0.08929,0.01505 -0.181185,0.01664 -0.271485,0.02344 -0.283101,0.02129 -0.759555,0.0535 -1.048828,0.0625 -0.127369,0.004 -0.25479,-0.01668 -0.380859,0.002 -0.07504,0.01105 -0.140668,0.0574 -0.210938,0.08594 -0.07653,0.02939 -0.382527,0.152206 -0.501953,0.185546 -0.140552,0.03923 -0.286225,0.06282 -0.425781,0.105469 -0.0558,0.01705 0.115488,-0.02853 0.173828,-0.0293 0.152779,-0.002 -1.193689,0.199054 -0.443359,0.121094 -0.186297,0.0284 -0.371313,0.06498 -0.558594,0.08594 -0.04854,0.0054 -0.171324,0.03623 -0.146484,-0.0059 0.03176,-0.05376 0.06715,-0.106125 0.101562,-0.158203 -0.07971,0.08292 -0.155632,0.170175 -0.240234,0.248047 -0.04593,0.04227 -0.123667,0.01524 -0.185547,0.02344 -0.181236,0.0069 -0.362251,0.0026 -0.542969,-0.0078 -0.04457,0.07024 -0.09107,0.138288 -0.142578,0.203125 -0.127856,0.16093 -0.648183,0.128541 -0.865234,0.119141 -0.01261,-5e-4 0.02457,-0.0044 0.03711,-0.0059 -0.216877,0.01982 -0.434688,0.01751 -0.652344,0.0098 -0.02716,0.03549 -0.03358,0.04824 -0.0625,0.08594 -0.172185,0.224475 -1.125527,-0.276513 -1.298828,-0.371093 -0.159639,-0.08432 -0.280492,-0.134126 -0.332031,-0.169922 -0.05136,0.0017 -0.103601,-6.75e-4 -0.154297,-0.0098 -0.09868,-0.0177 -0.188354,-0.06451 -0.275391,-0.117187 -0.0073,-0.0015 -0.02096,-0.0046 -0.02734,-0.0059 -0.165809,-0.03206 -0.323185,-0.101689 -0.478516,-0.167968 -0.0702,-0.02996 -0.130292,-0.07916 -0.195313,-0.119141 -0.02941,-0.01794 -0.04325,-0.02584 -0.06836,-0.04102 -0.04754,-0.0029 -0.09526,-0.0023 -0.142578,-0.0078 -0.05324,-0.0062 -0.103397,-0.03397 -0.154297,-0.05078 -0.115528,-0.03816 -0.230391,-0.07643 -0.345703,-0.115235 -0.43806,-0.147437 -0.896269,-0.280628 -1.283203,-0.541015 -0.05039,-0.03044 -0.100398,-0.0611 -0.150391,-0.0918 -0.08925,-0.02463 -0.174843,-0.0484 -0.294922,-0.08594 -0.12015,-0.05826 -0.178162,-0.08758 -0.25,-0.123047 -0.141192,-0.03612 -0.270764,-0.09053 -0.542968,-0.189453 -0.479581,-0.277274 -0.479684,-0.264047 -0.998047,-0.646484 -0.0341,-0.02516 -0.121921,-0.06654 -0.08789,-0.0918 0.02859,-0.02122 0.05884,-0.04 0.08789,-0.06055 -0.08161,-0.07164 -0.155304,-0.150515 -0.22461,-0.232422 l -0.126953,0.06445 c -0.125391,-0.194166 -0.242715,-0.395257 -0.384765,-0.578125 -0.0556,-0.07158 -0.267078,-0.179055 -0.179688,-0.203125 0.02698,-0.0074 0.06454,-0.0086 0.0957,-0.01367 -0.02887,-0.03514 -0.05473,-0.07378 -0.08594,-0.105468 -0.02091,-0.02685 -0.0399,-0.05502 -0.06055,-0.08203 -0.140574,-0.02743 -0.01401,-0.0017 -0.201172,-0.03906 -0.04045,-0.138889 -0.07191,-0.281022 -0.107422,-0.421875 -0.03746,-0.06433 -0.07939,-0.125612 -0.111328,-0.193359 -0.0084,-0.0072 -0.01699,-0.01426 -0.02539,-0.02148 0.0036,0.03072 0.0076,0.06316 0.0098,0.08789 0.0083,0.02157 0.0177,0.0427 0.02539,0.06445 0.0036,0.01031 -0.01432,-0.01714 -0.02148,-0.02539 -4.17e-4,-0.0088 -0.0029,-0.0279 -0.0039,-0.03906 -0.01604,-0.04186 -0.03366,-0.08346 -0.05078,-0.125 -0.150044,-0.128651 -0.301133,-0.257791 -0.417969,-0.419922 -0.07304,-0.111671 -0.14977,-0.21976 -0.21875,-0.333984 -0.0074,-0.01225 -0.0215,-0.04717 -0.0078,-0.04297 0.05966,0.01841 0.108092,0.06217 0.164062,0.08984 0.007,0.0035 -0.02211,-0.01132 -0.01563,-0.01562 0.0661,-0.04357 0.0899,-0.06471 0.150391,-0.105469 -0.01501,-0.03087 -0.02784,-0.06293 -0.04297,-0.09375 -0.173073,-0.0061 -0.346408,-0.0132 -0.519531,-0.01758 -0.222771,-0.209374 -0.470974,-0.384662 -0.628907,-0.658203 -0.104865,-0.226037 -0.186194,-0.36038 -0.240234,-0.595704 -0.01074,-0.04675 0.01231,-0.101931 -0.0098,-0.144531 -0.04084,-0.0789 -0.119693,-0.131798 -0.169921,-0.205078 -0.286405,-0.417862 -0.231229,-0.323279 -0.351563,-0.710937 -0.01817,-0.134839 -0.04356,-0.268697 -0.05469,-0.404297 -0.01372,-0.167069 6.67e-4,-0.334295 0.0059,-0.501953 -0.05692,-0.517989 0.003,-1.029996 0.119141,-1.53711 0.02589,-0.115525 0.05018,-0.232613 0.07812,-0.347656 0.004,-0.0164 0.0041,-0.05703 0.01758,-0.04687 0.02106,0.01587 0.01588,0.101954 0.02148,0.07617 0.0091,-0.04213 -0.0077,-0.08587 -0.0098,-0.128907 -0.01145,-0.235321 -0.0091,-0.177437 0.002,-0.40625 0.01833,-0.09257 0.03816,-0.1848 0.05664,-0.277343 -4.5e-4,0.04066 0.01075,0.161743 0.01172,0.121093 0.0015,-0.06081 6.92e-4,-0.122157 0,-0.183593 -0.002,-0.181696 -0.0031,-0.363665 0.06445,-0.53711 0.0409,-0.178386 0.0814,-0.361427 0.0918,-0.544921 0.01599,-0.282252 -0.0148,-0.577365 0.0918,-0.847657 0.04565,0.0042 0.0012,0.09645 0.01563,0.138672 0.0012,0.0033 -9.4e-5,-0.01462 0.002,-0.01172 0.103332,0.154953 0.176039,0.272014 0.226562,0.351563 0.0022,-0.01051 0.0089,-0.0363 0.01172,-0.04883 -0.04213,-0.100057 -0.108959,-0.240469 -0.291016,-0.677735 0.01487,-0.09945 0.02374,-0.198575 0.04492,-0.296875 0.03679,-0.170755 0.145713,-0.410142 0.210938,-0.55664 -1.73e-4,-0.01236 3.37e-4,-0.02476 0,-0.03711 0.08872,-0.153556 0.177566,-0.307008 0.265625,-0.460937 -0.08324,0.08107 0.07385,-0.141014 0.07031,-0.125 0.02888,-0.06916 0.05524,-0.144679 0.08594,-0.1875 0.05035,-0.106237 0.211217,-0.44847 0.248047,-0.50586 0.05815,-0.09061 0.126884,-0.173673 0.191406,-0.259765 -0.226243,-0.213926 -0.360356,-0.283364 0.04883,-0.06641 0.04092,-0.05317 0.07708,-0.109793 0.119141,-0.16211 0.0532,-0.06617 0.129306,-0.09974 0.191406,-0.154297 0.01434,-0.0126 0.02498,-0.02822 0.03711,-0.04297 -7.31e-4,0.0086 -0.0011,0.01365 -0.002,0.02344 0.0069,-0.01609 0.01489,-0.04531 0.02148,-0.05664 0.01945,-0.03342 -0.0403,0.0892 -0.01172,0.115235 0.03052,0.0278 0.0647,0.05238 0.09766,0.07813 0.0052,-0.01331 0.0123,-0.02578 0.01758,-0.03906 -0.01028,-0.0058 -0.02022,-0.01098 -0.03125,-0.01758 -0.02865,-0.01714 -0.02154,-0.04361 -0.002,-0.07227 -0.04132,-0.09462 -0.08079,-0.191633 -0.115234,-0.289063 -0.02238,-0.06331 0.04757,-0.124787 0.07617,-0.185547 0.146787,-0.311853 0.334547,-0.638428 0.533203,-0.9375 0.0192,-0.240927 0.101993,-0.478823 0.205078,-0.689453 0.276626,-0.550851 0.594944,-1.085849 0.998047,-1.554687 0.172609,-0.113819 0.343274,-0.230593 0.517578,-0.341797 -0.0022,-0.03383 -0.0059,-0.06772 -0.0078,-0.101563 -0.0013,-0.02252 0.04034,-0.02125 0.06055,-0.03125 0.0477,-0.02354 0.09654,-0.04543 0.144532,-0.06836 0.295453,-0.14117 0.591217,-0.280661 0.884765,-0.425781 0.211219,0.484682 0.225386,0.5251 0.337891,0.791015 0.0023,-0.0015 0.0055,-0.0024 0.0078,-0.0039 0.0382,-0.05399 0.08212,-0.102493 0.126953,-0.150391 -0.05633,-0.2617 -0.109783,-0.539694 -0.142578,-0.832031 -0.0078,-0.06978 0.133522,-0.04752 0.201172,-0.06641 0.340444,-0.09507 0.692177,-0.155255 1.005859,-0.330078 0.0612,-0.02563 0.121153,-0.05441 0.181641,-0.08203 0.02811,-0.02557 0.05728,-0.05242 0.08203,-0.07813 0.07113,-0.07388 0.169207,-0.114045 0.253907,-0.171874 0.127238,-0.05829 0.250663,-0.124432 0.380859,-0.175782 0.08058,-0.03178 0.16686,-0.04992 0.25,-0.07422 0.0097,-0.0028 0.01959,-0.0049 0.0293,-0.0078 0.225796,-0.215285 0.573994,-0.354871 0.841797,-0.40625 0.187578,-0.04271 0.373324,-0.08619 0.558594,-0.138672 0.08587,-0.02432 0.169322,-0.06655 0.257812,-0.07813 0.264055,-0.03456 0.528697,-0.06229 0.794922,-0.06641 -0.08452,-0.02456 -0.139894,-0.04334 -0.08203,-0.0332 0.285437,0.05003 0.574579,-0.06927 0.857421,-0.07617 0.04228,-0.0044 0.121454,-0.05582 0.126954,-0.01367 0.02614,0.200609 -0.01676,0.4738 -0.06641,0.751953 0.0908,-0.0089 0.182493,-0.0053 0.273438,-0.01172 0.03055,-0.431028 0.114214,-0.786479 0.421875,-0.767578 -0.03414,-0.01135 -0.10472,-0.03442 -0.115234,-0.03906 z m -9.88086,6.685547 c 0.01198,0.02744 0.02466,0.05473 0.03711,0.08203 0.02369,-0.0594 0.05009,-0.117478 0.07617,-0.175781 -0.04777,0.02662 -0.09112,0.06133 -0.113281,0.09375 z m 12.556641,-6.082032 c -0.0642,-0.02411 -0.128369,-0.04719 -0.191407,-0.07422 -0.104765,0.0124 -0.226233,-0.003 -0.349609,-0.01758 0.221604,0.119688 0.462559,0.234164 0.662109,0.376953 -0.02059,-0.06587 -0.03232,-0.11525 -0.05664,-0.1875 -0.01267,-0.03763 -0.03589,-0.06835 -0.06445,-0.09766 z m -0.541016,-0.0918 c -0.01108,-0.006 -0.02227,-0.01155 -0.0332,-0.01758 -0.0097,0.0038 -0.02018,0.0072 -0.0293,0.01172 0.02089,0.0024 0.04153,0.0034 0.0625,0.0059 z m -1.822265,-0.404297 c 0.154192,0.119306 0.134683,0.37519 0.05273,0.671875 0.08544,-0.0048 0.180937,-0.0083 0.291016,-0.0078 0.123035,-0.06191 0.236347,-0.0998 0.328124,-0.09961 0.166152,3.5e-4 0.280097,0.09575 0.359376,0.240234 0.02858,0.0069 0.05556,0.01977 0.08398,0.02734 0.0253,-0.103778 0.05855,-0.205484 0.107422,-0.298828 -0.361927,-0.227335 -0.885569,-0.419804 -1.222656,-0.533203 z m 1.03125,0.804687 c -0.07339,-0.01776 -0.146359,-0.0343 -0.220704,-0.04687 0.02102,0.01851 0.03627,0.04066 0.04297,0.06641 0.0066,0.02521 0.0041,0.05232 0.0078,0.07813 0.06298,0.01682 0.158012,0.04632 0.226562,0.06641 8.52e-4,-0.0053 0.003,-0.01029 0.0039,-0.01563 -0.01725,-0.05333 -0.0361,-0.10389 -0.06055,-0.148438 z m -0.220704,-0.04687 c -0.08601,-0.07575 -0.277031,-0.09303 -0.466796,-0.09375 -0.0424,0.02133 -0.08057,0.03471 -0.126954,0.06445 0.09953,-0.0035 0.199439,-0.01614 0.298828,-0.0098 0.09906,0.0064 0.197178,0.02251 0.294922,0.03906 z m 0.591797,-0.103515 c -0.07086,0.06272 -0.135227,0.132516 -0.195312,0.205078 0.136234,0.03982 0.270716,0.08386 0.402343,0.136718 0.0037,-0.116565 -0.07364,-0.232184 -0.207031,-0.341796 z m -4,0.511718 c -0.03364,-0.0034 -0.07085,-0.002 -0.111328,0.0059 -0.0079,0.0015 -0.01332,0.0052 -0.01953,0.0078 -0.0012,0.0093 -0.0045,0.02137 -0.0059,0.03125 0.06702,0.105769 0.134195,0.228161 0.201172,0.353516 0.0054,-0.08363 0.0092,-0.167205 0.01953,-0.25 -0.02774,-0.06489 -0.0409,-0.09394 -0.06055,-0.140625 -0.0083,-0.0017 -0.01465,-0.0069 -0.02344,-0.0078 z m -0.01172,0.396485 c -0.02394,0.116635 -0.06669,0.308746 -0.101562,0.474609 0.0019,0.0038 0.004,0.0079 0.0059,0.01172 -6.77e-4,0.0028 0.123938,-0.623893 0.0957,-0.486328 z m -3.597656,0.136718 c -6.2e-4,0.0091 0.0625,0.48067 0.08203,0.63086 0.0064,-0.0048 0.01312,-0.009 0.01953,-0.01367 -0.0218,-0.131583 -0.100933,-0.626434 -0.101563,-0.617188 z m 3.855469,0.222657 c 0.0042,0.0087 0.0095,0.01669 0.01367,0.02539 0.02848,0.0059 0.05849,0.01041 0.08984,0.01172 -3.6e-5,-6.41e-4 3.6e-5,-0.0013 0,-0.002 -0.03435,-0.01221 -0.06904,-0.02338 -0.103516,-0.03516 z m 0.105469,0.216796 c 0.0024,0.0052 0.0054,0.01042 0.0078,0.01563 -2.26e-4,-0.0053 2.17e-4,-0.01035 0,-0.01563 -0.0024,6.85e-4 -0.0054,-6.81e-4 -0.0078,0 z m -0.05859,0.01563 c 0.01438,0.0088 0.05151,0.03496 0.06836,0.04492 -2.16e-4,-0.0053 2.2e-4,-0.01034 0,-0.01563 -0.01427,-0.006 -0.08593,-0.04046 -0.06836,-0.0293 z m 0.08203,0.03516 c 0.0048,0.0106 0.0069,0.01485 0.01172,0.02539 9.79e-4,5.84e-4 0.0029,0.0014 0.0039,0.002 -9.97e-4,-0.0077 -9.11e-4,-0.01377 -0.002,-0.02148 -0.0069,-0.0032 -0.0088,-0.0037 -0.01367,-0.0059 z m -5.039062,0.189453 c -0.0067,-0.0011 -0.0077,0.0026 0,0.0098 0.03912,0.03655 0.081,0.07007 0.123047,0.103516 -0.0015,-0.02279 -0.0024,-0.04557 -0.0039,-0.06836 -0.03017,-0.009 -0.09894,-0.04166 -0.11914,-0.04492 z m 3.392578,0.08203 c -0.0066,0.140996 -0.01309,0.208796 -0.01953,0.296875 0.01214,-0.0046 0.02472,-0.0079 0.03711,-0.01172 0.0083,-0.04945 0.01414,-0.08569 0.02344,-0.146484 -0.0096,-0.04713 -0.02592,-0.09244 -0.04102,-0.138672 z M 24.765625,27.625 c -0.04743,0.07159 -0.675932,0.877288 -0.367187,1.205078 0.06206,0.06588 0.131853,0.122565 0.205078,0.175781 0.09134,-0.201425 0.16702,-0.309979 0.248046,-0.388671 -0.03279,-0.330565 -0.06441,-0.660902 -0.08594,-0.992188 z m 4.123047,0.158203 c -0.01196,0.0056 -0.02318,0.01234 -0.03516,0.01758 -0.0036,0.04858 -0.0087,0.128672 -0.01172,0.167969 0.0094,-0.01853 0.01689,-0.03769 0.02539,-0.05664 0.0045,-0.02917 0.01433,-0.08636 0.02148,-0.128906 z M 26.361328,28.1875 c 0.01115,0.02655 0.04323,0.100455 0.05273,0.123047 0.01882,0.0024 0.03788,0.0059 0.05664,0.0078 -0.03304,-0.04145 -0.06826,-0.08257 -0.09766,-0.125 -0.002,-0.0029 -0.0085,-0.0029 -0.01172,-0.0059 z m -1.49414,0.583984 c -0.01175,0.0099 -0.03147,0.01746 -0.04102,0.02734 0.01902,-0.0047 0.0306,-0.0066 0.04297,-0.0098 -5.85e-4,-0.0059 -0.0014,-0.01171 -0.002,-0.01758 z m -0.923829,0.605469 c -0.227295,-0.01844 -0.227144,0.127053 -0.123047,0.341797 0.02137,-0.01375 0.06127,-0.04054 0.240235,-0.154297 0.05441,-0.0394 0.109354,-0.0781 0.164062,-0.117187 -0.112973,-0.03777 -0.212334,-0.06472 -0.28125,-0.07031 z m -0.921875,2.460938 c -0.04958,-0.0021 -0.09004,0.01453 -0.136718,0.01953 0.433344,0.222685 0.732052,0.304768 0.951172,0.34375 -0.210228,-0.224158 -0.526737,-0.350796 -0.814454,-0.363281 z m 6.34961,1.082031 c 0.0025,0.01783 0.0046,0.03411 0.0078,0.05664 0.02125,-0.0045 0.04232,-0.0072 0.06445,-0.01367 8.46e-4,-0.0067 0.003,-0.01289 0.0039,-0.01953 -0.02546,-0.0076 -0.05076,-0.01568 -0.07617,-0.02344 z m 0.07227,0.04297 c -0.0049,0.03904 -0.01093,0.07788 -0.01563,0.117187 0.01607,0.01157 0.02935,0.02834 0.04492,0.04102 0.04816,-0.0073 0.09632,-0.01469 0.144532,-0.02148 0.0024,-0.007 0.0056,-0.01462 0.0078,-0.02148 -0.01784,-0.03474 -0.03527,-0.06665 -0.05273,-0.09961 -0.0305,-0.0089 -0.06135,-0.01635 -0.0918,-0.02539 -0.01224,0.0032 -0.02475,0.0061 -0.03711,0.0098 z M 22,32.9375 c -0.02856,0.03428 -0.06303,0.0814 -0.08008,0.105469 -0.0084,0.01187 0.02434,-0.01449 0.03711,-0.02148 0.01429,-0.02797 0.02868,-0.05601 0.04297,-0.08398 z m 11.248047,0.414062 c -0.0264,0.0064 -0.05179,0.0168 -0.07813,0.02344 0.02275,0.0033 0.0456,0.0065 0.06836,0.0098 0.0027,-0.01139 0.0064,-0.02211 0.0098,-0.0332 z m 9.804687,0.363282 c -0.0078,0.03833 -0.01375,0.07693 -0.02148,0.115234 0.01634,0.05374 0.02805,0.108001 0.04297,0.16211 0.01702,-0.115804 0.0028,-0.170656 -0.02148,-0.277344 z m -18.841796,3.140625 c -0.0016,0.02271 -0.0023,0.04565 -0.0039,0.06836 0.0068,-0.02714 0.0072,-0.0216 0.01563,-0.05664 4.46e-4,-0.0019 -3.96e-4,-0.004 0,-0.0059 -0.0034,-0.0019 -0.0083,-0.004 -0.01172,-0.0059 z m 15.091796,1.044922 c -0.0072,-0.03121 -0.01788,0.07035 0.0059,0.0957 0.003,-0.0048 0.0068,-0.01089 0.0098,-0.01563 -0.0055,-0.02672 -0.0095,-0.0535 -0.01563,-0.08008 z m 4.035157,0.574218 c -0.0095,0.02304 -0.01601,0.04721 -0.02539,0.07031 0.002,0.01108 0.0039,0.02213 0.0059,0.0332 0.0065,-0.03448 0.0132,-0.069 0.01953,-0.103516 z m -17.345703,0.117188 c 0.0042,0.07174 0.0024,0.143054 0,0.214844 0.02538,-0.05486 0.05258,-0.108615 0.07617,-0.164063 0.01084,0.0033 0.02233,0.0046 0.0332,0.0078 -0.03507,-0.01885 -0.07239,-0.03849 -0.109374,-0.05859 z m 3.130859,0.0957 c -0.03024,0.07176 -0.06264,0.156233 -0.0957,0.238281 0.01821,-2.23e-4 0.03704,-0.0018 0.05469,0 0.01379,-0.07934 0.0273,-0.158933 0.04102,-0.238281 z m -0.04102,0.238281 -0.0078,0.04492 c 0.02562,-0.0088 0.04826,-0.02186 0.07227,-0.0332 -0.02102,-0.0052 -0.0426,-0.0095 -0.06445,-0.01172 z m -0.0078,0.04492 c -0.0039,0.0013 -0.0078,0.0026 -0.01172,0.0039 0.0032,3.89e-4 0.0066,-3.97e-4 0.0098,0 2.38e-4,-0.0014 0.0017,-0.0025 0.002,-0.0039 z m -0.01172,0.0039 c -0.01739,-0.0021 -0.03522,-0.004 -0.05273,-0.0059 -0.0027,0.0067 -0.0051,0.01472 -0.0078,0.02148 0.02049,-0.0052 0.04084,-0.0092 0.06055,-0.01563 z m -0.05273,-0.0059 c 0.0054,-0.0136 0.01221,-0.02965 0.01758,-0.04297 -0.05201,6.37e-4 -0.105297,0.01018 -0.16211,0.0293 l -0.002,0.002 c 0.04924,0.0034 0.09797,0.0065 0.146485,0.01172 z m -3.628907,-0.251953 c -0.01609,0.04116 -0.03319,0.09164 -0.05273,0.164062 -0.006,0.02212 0.04633,-0.02801 0.04883,-0.05078 0.0042,-0.03766 0.0032,-0.07542 0.0039,-0.113281 z m 18.148438,0.298828 c -0.0015,2.58e-4 -0.0067,0.0053 -0.0098,0.0078 -1.93e-4,0.0094 3.28e-4,0.01302 0,0.01953 -3.02e-4,0.0059 -0.0016,0.01168 -0.002,0.01758 0.0081,-0.02293 0.01656,-0.04577 0.01172,-0.04492 z m -0.314453,0.714844 c -0.0015,0.0032 0.0012,0.01147 -0.002,0.01172 h -0.002 c 2.5e-4,0.01364 -2.47e-4,0.02737 0,0.04102 9.99e-4,-0.01779 0.0072,-0.0392 0.0039,-0.05273 z m -0.0078,0.01172 c -0.0033,0.01497 -0.0065,0.02995 -0.0098,0.04492 0.0033,4.5e-5 0.0065,-4.4e-5 0.0098,0 0.0012,-0.01467 5.68e-4,-0.02524 0.002,-0.04492 z m 0.05078,0.05273 c -0.03287,0.0623 -0.03905,0.07325 -0.04492,0.07617 2.92e-4,0.01754 -2.76e-4,0.0352 0,0.05273 0.03266,-0.04384 0.04938,-0.08801 0.04492,-0.128906 z m -21.53125,0.941406 c 0.0058,0.01878 0.0117,0.03788 0.01758,0.05664 l 0.002,0.002 c 0.02255,0.02284 0.04077,0.0616 0.04883,0.07422 -1.5e-4,-0.0026 1.42e-4,-0.0052 0,-0.0078 -0.0216,-0.04207 -0.04477,-0.08387 -0.06836,-0.125 z m 13.251954,0.269531 c 0.01852,0.05148 0.03027,0.100287 0.0293,0.134766 0.0056,-0.01022 0.01006,-0.02103 0.01563,-0.03125 -0.01301,-0.03558 -0.03012,-0.06893 -0.04492,-0.103516 z m 0.404296,0.101563 c -0.09286,0.05544 -0.182135,0.119168 -0.273437,0.177734 v 0.002 c 0.09141,-0.05916 0.182513,-0.119812 0.273437,-0.179687 z m -13.486328,0.09961 c -0.158927,0.219035 -0.459844,0.533325 -0.259765,0.513672 0.133435,-0.01311 0.258703,-0.05177 0.380859,-0.103515 -0.0469,-0.09991 -0.09664,-0.211668 -0.101562,-0.261719 -4.47e-4,-0.0046 -0.0029,-0.09715 -0.0039,-0.126953 -0.0052,-0.0075 -0.01056,-0.01396 -0.01563,-0.02148 z m 0.570313,1.369141 c 0.003,0.01804 0.0037,0.04321 0.0078,0.05664 0.0014,0.0045 0.0062,0.0073 0.0078,0.01172 0.0045,-0.0031 0.0081,-0.0053 0.01172,-0.0078 -0.0032,-0.02022 -0.0061,-0.04044 -0.0098,-0.06055 -0.0058,-2.79e-4 -0.01173,2.34e-4 -0.01758,0 z m 0.02539,0.002 c -0.0058,-0.0145 0.002,0.0268 0.0059,0.05664 0.0049,-0.0034 0.0095,-0.0075 0.01563,-0.01172 -0.0039,-0.01095 -0.01691,-0.03773 -0.01953,-0.04492 -6.5e-4,-3e-5 -0.0013,3.1e-5 -0.002,0 z m 5.044921,1.078125 c -0.0081,0.02569 -0.01193,0.05819 -0.0078,0.09961 0.02712,-0.03289 0.04517,-0.06108 0.05664,-0.08398 -0.01584,-0.005 -0.03233,-0.01038 -0.04883,-0.01563 z m -4.111328,0.582031 c 0.01784,0.05257 0.0398,0.102501 0.07031,0.148438 0.0061,-6.48e-4 0.01135,-0.0014 0.01758,-0.002 -0.0055,-0.0089 -0.01017,-0.01835 -0.01563,-0.02734 -0.02181,-0.03985 -0.04436,-0.07937 -0.06641,-0.119141 -0.0031,-5.84e-4 -0.0028,5.91e-4 -0.0059,0 z m 4.996094,1.355469 c -0.01855,-0.0078 0.0233,0.02151 0.04687,0.03906 -0.01616,-0.01353 -0.0292,-0.02623 -0.02148,-0.02539 -0.0087,-0.0041 -0.01659,-0.01 -0.02539,-0.01367 z m 0.02539,0.01367 c 0.0037,4.04e-4 0.03372,0.01766 0.04883,0.02539 2.89e-4,-2.22e-4 -2.89e-4,-0.0017 0,-0.002 -0.01621,-0.008 -0.03254,-0.01575 -0.04883,-0.02344 z m 0.06836,0.0332 c -1.39e-4,5.53e-4 1.38e-4,0.0014 0,0.002 0.01408,0.0077 0.01174,0.0053 0.0332,0.01758 0.0033,2.01e-4 0.0065,0.0017 0.0098,0.002 -0.0143,-0.0071 -0.02861,-0.01435 -0.04297,-0.02148 z m 8.578125,0.943359 c -0.01655,0.02966 -0.03221,0.05286 -0.04883,0.08398 -0.08627,0.02762 -0.170819,0.05883 -0.257813,0.08398 0.144722,0.01049 0.29773,-0.02094 0.308594,-0.115234 -0.0081,-2.39e-4 -0.01518,3.92e-4 -0.02344,0 0.0084,-0.0047 0.01679,-0.0093 0.02539,-0.01367 -1.65e-4,-0.0042 0.0027,-0.0073 0.002,-0.01172 -0.0016,-0.0098 -0.0042,-0.01765 -0.0059,-0.02734 z m -1.308594,0.427735 c -0.03249,0.0081 -0.06517,0.01533 -0.09766,0.02344 -0.02029,0.0053 0.04182,-0.0064 0.0625,-0.0098 0.01172,-0.0049 0.01808,-0.007 0.03516,-0.01367 z m -5.511718,0.671875 c -0.0071,0.02076 -0.01449,0.04177 -0.02148,0.0625 0.01326,-0.02069 0.02587,-0.04177 0.03906,-0.0625 -0.0058,2.31e-4 -0.01171,-2.36e-4 -0.01758,0 z m 1.394531,0.09961 c -0.01658,0.02224 -0.03137,0.04391 -0.04492,0.0625 0.246783,0.131012 0.781284,0.571812 0.685547,0.333985 -0.05807,-0.144249 -0.183506,-0.249604 -0.322266,-0.345704 -0.106099,-0.01755 -0.212776,-0.03121 -0.318359,-0.05078 z" />
    <path
       style="fill:#29292a;stroke-width:1.24495"
       id="path799"
       clip-path="url(#clipPath917)"
       transform="translate(0.07609879,0.23531885)"
       d="M 43.171329,36.881248 A 10.865013,10.965159 0 0 1 32.306316,47.846408 10.865013,10.965159 0 0 1 21.441303,36.881248 10.865013,10.965159 0 0 1 32.306316,25.916089 10.865013,10.965159 0 0 1 43.171329,36.881248 Z"
       sodipodi:type="arc"
       sodipodi:ry="10.965159"
       sodipodi:rx="10.865013"
       sodipodi:cy="36.881248"
       sodipodi:cx="32.306316"
       inkscape:path-effect="#path-effect921" />
  </g>
</svg>
