<?xml version="1.0" encoding="UTF-8" standalone="no"?>
<svg
   width="64"
   height="64"
   version="1"
   id="svg18"
   sodipodi:docname="appimagekit-cutepeaks.svg"
   inkscape:version="1.1 (1:1.1+rc+202105240936+c4e8f9ed74)"
   xmlns:inkscape="http://www.inkscape.org/namespaces/inkscape"
   xmlns:sodipodi="http://sodipodi.sourceforge.net/DTD/sodipodi-0.dtd"
   xmlns="http://www.w3.org/2000/svg"
   xmlns:svg="http://www.w3.org/2000/svg">
  <defs
     id="defs22" />
  <sodipodi:namedview
     id="namedview20"
     pagecolor="#ffffff"
     bordercolor="#666666"
     borderopacity="1.0"
     inkscape:pageshadow="2"
     inkscape:pageopacity="0.0"
     inkscape:pagecheckerboard="0"
     showgrid="false"
     inkscape:zoom="12.859375"
     inkscape:cx="32"
     inkscape:cy="25.778858"
     inkscape:window-width="1920"
     inkscape:window-height="996"
     inkscape:window-x="0"
     inkscape:window-y="0"
     inkscape:window-maximized="1"
     inkscape:current-layer="svg18" />
  <g
     id="g348"
     style="fill:#29292a"
     transform="matrix(1.3225425,0,0,1.5132963,-11.180222,-16.682942)">
    <path
       style="fill:#29292a"
       d="m 38.993684,35 -3.483368,6.906961 c 2.03077,1.73758 4.001998,3.175233 5.373221,3.089383 3.129172,-0.195912 4.021105,-2.352736 7.420498,-7.165089 L 50.303847,35 Z"
       id="path8" />
    <path
       style="fill:#29292a"
       d="m 12.900391,35 c 0.189194,0.342558 0.39176,0.703319 0.641896,1.092884 0.631942,0.984196 2.233558,3.914784 3.558097,6.510267 2.895697,5.674222 4.39559,7.840757 6.125679,8.842671 2.917802,1.689733 4.586896,-0.11398 9.819352,-10.61342 C 34.389035,38.136289 35.325869,36.129063 35.812208,35 Z"
       id="path10" />
    <path
       style="fill:#29292a"
       d="m 38.286328,12.427343 c -1.588741,0.245306 -2.81387,2.164829 -4.944054,6.092189 l -2.310547,4.260155 7.17257,8.8375 L 38.5898,32 H 51.028516 C 49.633077,28.884978 43.79914,17.044146 42.672266,15.265625 42.069622,14.314486 40.832345,13.17328 39.921484,12.728125 39.353331,12.450459 38.815908,12.345576 38.286328,12.427343 Z"
       id="path12" />
    <path
       style="fill:#29292a"
       d="m 24.062815,21.016638 c -0.751231,0.11011 -1.58313,0.761207 -3.015869,1.792312 C 18.225024,25.184087 15.335876,29.282355 13.645,32 H 34.64329 C 32.920903,29.420562 28.875253,24.841777 26.584542,22.471985 25.48267,21.337512 24.814046,20.906529 24.062815,21.016638 Z"
       id="path14" />
  </g>
</svg>
