<?xml version="1.0" encoding="UTF-8" standalone="no"?>
<svg
   width="64"
   height="64"
   version="1.1"
   id="svg73"
   sodipodi:docname="application-x-prl18free.svg"
   inkscape:version="1.1 (1:1.1+202105261517+ce6663b3b7)"
   xmlns:inkscape="http://www.inkscape.org/namespaces/inkscape"
   xmlns:sodipodi="http://sodipodi.sourceforge.net/DTD/sodipodi-0.dtd"
   xmlns="http://www.w3.org/2000/svg"
   xmlns:svg="http://www.w3.org/2000/svg"
   xmlns:rdf="http://www.w3.org/1999/02/22-rdf-syntax-ns#"
   xmlns:cc="http://creativecommons.org/ns#"
   xmlns:dc="http://purl.org/dc/elements/1.1/">
  <metadata
     id="metadata77">
    <rdf:RDF>
      <cc:Work
         rdf:about="">
        <dc:format>image/svg+xml</dc:format>
        <dc:type
           rdf:resource="http://purl.org/dc/dcmitype/StillImage" />
        <dc:title />
      </cc:Work>
    </rdf:RDF>
  </metadata>
  <sodipodi:namedview
     pagecolor="#ffffff"
     bordercolor="#666666"
     borderopacity="1"
     objecttolerance="10"
     gridtolerance="10"
     guidetolerance="10"
     inkscape:pageopacity="0"
     inkscape:pageshadow="2"
     inkscape:window-width="1920"
     inkscape:window-height="996"
     id="namedview75"
     showgrid="false"
     inkscape:zoom="12.578125"
     inkscape:cx="46.390062"
     inkscape:cy="45.754037"
     inkscape:window-x="0"
     inkscape:window-y="0"
     inkscape:window-maximized="1"
     inkscape:current-layer="svg73"
     inkscape:document-rotation="0"
     inkscape:pagecheckerboard="0" />
  <defs
     id="defs29">
    <linearGradient
       id="b"
       x1="399.57"
       x2="399.57"
       y1="545.8"
       y2="517.8"
       gradientTransform="matrix(2.1429,0,0,2.1429,-826.36,-1107.5)"
       gradientUnits="userSpaceOnUse">
      <stop
         stop-color="#3889e9"
         offset="0"
         id="stop2" />
      <stop
         stop-color="#5ea5fb"
         offset="1"
         id="stop4" />
    </linearGradient>
    <linearGradient
       id="linearGradient862"
       x1="7.9373"
       x2="7.9373"
       y1="15.081"
       y2="1.852"
       gradientTransform="matrix(3.3743 0 0 3.3743 3.4312 3.4278)"
       gradientUnits="userSpaceOnUse">
      <stop
         stop-color="#f1efeb"
         offset="0"
         id="stop7" />
      <stop
         stop-color="#fff"
         offset="1"
         id="stop9" />
    </linearGradient>
    <linearGradient
       id="linearGradient910"
       x1="7.9373"
       x2="7.9373"
       y1="15.081"
       y2="1.852"
       gradientTransform="scale(3.7796)"
       gradientUnits="userSpaceOnUse">
      <stop
         stop-color="#613583"
         offset="0"
         id="stop12" />
      <stop
         stop-color="#a663c0"
         offset="1"
         id="stop14" />
    </linearGradient>
    <linearGradient
       id="linearGradient932"
       x1="379.24"
       x2="374.24"
       y1="546.85"
       y2="546.85"
       gradientTransform="matrix(2.1429 0 0 2.1429 -769.68 -1134.5)"
       gradientUnits="userSpaceOnUse">
      <stop
         stop-color="#f6f5f4"
         offset="0"
         id="stop17" />
      <stop
         stop-color="#fff"
         offset=".6"
         id="stop19" />
      <stop
         stop-color="#dddbd8"
         offset="1"
         id="stop21" />
    </linearGradient>
    <linearGradient
       id="linearGradient1146"
       x1="18"
       x2="18"
       y1="52"
       y2="12"
       gradientUnits="userSpaceOnUse">
      <stop
         stop-color="#5e337f"
         offset="0"
         id="stop24" />
      <stop
         stop-color="#ab60bf"
         offset="1"
         id="stop26" />
    </linearGradient>
  </defs>
  <circle
     cx="32.02"
     cy="32.044"
     r="0"
     fill="url(#b)"
     stroke-width="1.5715"
     id="circle41" />
  <path
     style="opacity:1;fill:#29292a;stroke-width:1.17835"
     d="M 1.4173098,1.5117827 V 51.051001 h 4.70877 V 6.2298041 H 57.92255 V 58.128033 H 13.189233 v 4.718022 H 62.631314 V 1.5117827 Z m 0,54.2572413 v 7.077031 h 7.0631543 v -7.077031 z"
     id="path12" />
  <g
     style="font-size:6.91563px;line-height:1.25;letter-spacing:0px;word-spacing:0px;fill:#29292a"
     transform="matrix(1.5449192,0,0,1.6709657,-5.0537492,-7.9242574)"
     id="g16">
    <path
       style="fill:#29292a"
       d="m 23.319502,31.585063 c 0.730291,0 1.327801,-0.05533 1.792532,-0.165975 0.48686,-0.13278 0.874135,-0.298755 1.161825,-0.497925 0.287691,-0.221301 0.486861,-0.475796 0.597511,-0.763486 0.11065,-0.28769 0.165975,-0.608575 0.165975,-0.962656 0,-0.75242 -0.35408,-1.37206 -1.062241,-1.858921 -0.70816,-0.50899 -2.23946,-1.051175 -3.965601,-1.626556 -0.752421,-0.26556 -1.504842,-0.564315 -2.257262,-0.896266 -0.752421,-0.35408 -1.427386,-0.785615 -2.024896,-1.294605 -0.597511,-0.531121 -1.084371,-1.161826 -1.460581,-1.892117 -0.376211,-0.752421 -0.564316,-1.659751 -0.564316,-2.721992 0,-1.062241 0.19917,-2.013831 0.597511,-2.854772 0.39834,-0.86307 0.962655,-1.59336 1.692946,-2.190871 0.73029,-0.597511 1.615491,-1.051176 2.655602,-1.360996 C 21.688617,12.165975 22.861508,12 24.167179,12 c 1.549101,0 3.202116,0.165975 4.330747,0.497925 1.128631,0.33195 2.058091,0.697095 2.788382,1.095436 l -1.493776,4.082988 c -0.641771,-0.331951 -1.360996,-0.619641 -2.157677,-0.863071 -0.77455,-0.26556 -2.029225,-0.39834 -3.135726,-0.39834 -1.239281,0 -2.135546,0.17704 -2.688796,0.53112 -0.531121,0.33195 -0.796681,0.852005 -0.796681,1.560166 0,0.420471 0.09959,0.774551 0.298755,1.062241 0.19917,0.28769 0.475795,0.55325 0.829876,0.79668 0.37621,0.221301 0.79668,0.431536 1.261411,0.630706 0.48686,0.17704 1.01798,0.365145 1.593361,0.564315 1.19502,0.442601 2.54928,0.885201 3.434481,1.327801 0.885201,0.420471 1.615491,0.918396 2.190871,1.493776 0.597511,0.575381 1.040111,1.250346 1.327801,2.024896 0.287691,0.774551 0.431536,1.715076 0.431536,2.821577 0,2.146612 -0.752421,3.817428 -2.257262,5.012449 -1.504841,1.172891 -3.773167,1.759336 -6.80498,1.759336 -1.017981,0 -1.936376,-0.06639 -2.755186,-0.19917 -0.818811,-0.11065 -1.549101,-0.254495 -2.190872,-0.431535 -0.619641,-0.177041 -1.161826,-0.365146 -1.626556,-0.564316 -0.4426,-0.19917 -0.81881,-0.387275 -1.128631,-0.564315 l 1.460581,-4.116183 c 0.686031,0.37621 1.526971,0.719225 2.522822,1.029046 1.017981,0.28769 2.257261,0.431535 3.717842,0.431535 z"
       id="path14" />
  </g>
</svg>
