<?xml version="1.0" encoding="UTF-8" standalone="no"?>
<svg
   width="64"
   height="64"
   version="1.1"
   id="svg73"
   sodipodi:docname="application-x-pml18free.svg"
   inkscape:version="1.1 (1:1.1+202105261517+ce6663b3b7)"
   xmlns:inkscape="http://www.inkscape.org/namespaces/inkscape"
   xmlns:sodipodi="http://sodipodi.sourceforge.net/DTD/sodipodi-0.dtd"
   xmlns="http://www.w3.org/2000/svg"
   xmlns:svg="http://www.w3.org/2000/svg"
   xmlns:rdf="http://www.w3.org/1999/02/22-rdf-syntax-ns#"
   xmlns:cc="http://creativecommons.org/ns#"
   xmlns:dc="http://purl.org/dc/elements/1.1/">
  <metadata
     id="metadata77">
    <rdf:RDF>
      <cc:Work
         rdf:about="">
        <dc:format>image/svg+xml</dc:format>
        <dc:type
           rdf:resource="http://purl.org/dc/dcmitype/StillImage" />
        <dc:title />
      </cc:Work>
    </rdf:RDF>
  </metadata>
  <sodipodi:namedview
     pagecolor="#ffffff"
     bordercolor="#666666"
     borderopacity="1"
     objecttolerance="10"
     gridtolerance="10"
     guidetolerance="10"
     inkscape:pageopacity="0"
     inkscape:pageshadow="2"
     inkscape:window-width="1920"
     inkscape:window-height="996"
     id="namedview75"
     showgrid="false"
     inkscape:zoom="12.578125"
     inkscape:cx="41.619876"
     inkscape:cy="42.017391"
     inkscape:window-x="0"
     inkscape:window-y="0"
     inkscape:window-maximized="1"
     inkscape:current-layer="svg73"
     inkscape:document-rotation="0"
     inkscape:pagecheckerboard="0" />
  <defs
     id="defs29">
    <linearGradient
       id="b"
       x1="399.57"
       x2="399.57"
       y1="545.8"
       y2="517.8"
       gradientTransform="matrix(2.1429,0,0,2.1429,-826.36,-1107.5)"
       gradientUnits="userSpaceOnUse">
      <stop
         stop-color="#3889e9"
         offset="0"
         id="stop2" />
      <stop
         stop-color="#5ea5fb"
         offset="1"
         id="stop4" />
    </linearGradient>
    <linearGradient
       id="linearGradient862"
       x1="7.9373"
       x2="7.9373"
       y1="15.081"
       y2="1.852"
       gradientTransform="matrix(3.3743 0 0 3.3743 3.4312 3.4278)"
       gradientUnits="userSpaceOnUse">
      <stop
         stop-color="#f1efeb"
         offset="0"
         id="stop7" />
      <stop
         stop-color="#fff"
         offset="1"
         id="stop9" />
    </linearGradient>
    <linearGradient
       id="linearGradient910"
       x1="7.9373"
       x2="7.9373"
       y1="15.081"
       y2="1.852"
       gradientTransform="scale(3.7796)"
       gradientUnits="userSpaceOnUse">
      <stop
         stop-color="#613583"
         offset="0"
         id="stop12" />
      <stop
         stop-color="#a663c0"
         offset="1"
         id="stop14" />
    </linearGradient>
    <linearGradient
       id="linearGradient932"
       x1="379.24"
       x2="374.24"
       y1="546.85"
       y2="546.85"
       gradientTransform="matrix(2.1429 0 0 2.1429 -769.68 -1134.5)"
       gradientUnits="userSpaceOnUse">
      <stop
         stop-color="#f6f5f4"
         offset="0"
         id="stop17" />
      <stop
         stop-color="#fff"
         offset=".6"
         id="stop19" />
      <stop
         stop-color="#dddbd8"
         offset="1"
         id="stop21" />
    </linearGradient>
    <linearGradient
       id="linearGradient1146"
       x1="18"
       x2="18"
       y1="52"
       y2="12"
       gradientUnits="userSpaceOnUse">
      <stop
         stop-color="#5e337f"
         offset="0"
         id="stop24" />
      <stop
         stop-color="#ab60bf"
         offset="1"
         id="stop26" />
    </linearGradient>
  </defs>
  <circle
     cx="32.02"
     cy="32.044"
     r="0"
     fill="url(#b)"
     stroke-width="1.5715"
     id="circle41" />
  <path
     style="opacity:1;fill:#29292a;stroke-width:1.177"
     d="M 1.3138561,1.6975676 V 51.059618 H 6.0287444 V 6.3987157 H 57.892513 V 58.111341 H 13.101078 v 4.701147 H 62.607411 V 1.6975676 Z m 0,54.0631994 v 7.051721 h 7.0723331 v -7.051721 z"
     id="path12" />
  <g
     style="font-size:34.2857px;line-height:1.25;letter-spacing:0px;word-spacing:0px;fill:#29292a"
     transform="matrix(1.7595754,0,0,1.6649898,-67.411986,-36.865088)"
     id="g14">
    <path
       style="fill:#29292a"
       transform="matrix(0.96761902,0,0,1,33.25248,17.513836)"
       d="M 21.945312,12 C 20.88232,12 19.713091,12.04529 18.4375,12.136719 17.185532,12.20529 16.039371,12.35346 15,12.582031 V 15 36 h 4.464844 1.073617 v -8.389817 h 1.158805 c 1.795275,0 3.389502,-0.14817 4.783203,-0.445313 1.3937,-0.297143 2.574464,-0.755904 3.542969,-1.373047 0.968503,-0.64 1.701202,-1.450736 2.197265,-2.433594 C 32.740388,22.352516 33,21.152905 33,19.75862 33,17.084334 32.044245,15.141908 30.130859,13.884766 28.241096,12.627623 25.512242,12 21.945312,12 Z m 0.31836,3.736328 c 0.850394,0 1.642716,0.06989 2.375,0.207031 0.755906,0.114286 1.403959,0.320045 1.947266,0.617188 0.543307,0.297143 0.968304,0.708661 1.27539,1.234375 0.307087,0.525715 0.460938,1.151399 0.460938,1.928542 0,1.622857 -0.578848,2.731886 -1.736328,3.326172 -1.157481,0.571428 -2.809379,0.857422 -4.958985,0.857422 h -1.088492 v -8.100417 c 0.642915,-0.04232 0.834464,-0.07031 1.725211,-0.07031 z"
       id="path12-3" />
  </g>
</svg>
