<?xml version="1.0" encoding="UTF-8" standalone="no"?>
<svg
   width="64"
   height="64"
   version="1"
   id="svg36"
   sodipodi:docname="barrier.svg"
   inkscape:version="1.1 (1:1.1+202106031931+af4d65493e)"
   xmlns:inkscape="http://www.inkscape.org/namespaces/inkscape"
   xmlns:sodipodi="http://sodipodi.sourceforge.net/DTD/sodipodi-0.dtd"
   xmlns="http://www.w3.org/2000/svg"
   xmlns:svg="http://www.w3.org/2000/svg">
  <defs
     id="defs40">
    <inkscape:path-effect
       effect="powerclip"
       id="path-effect918"
       is_visible="true"
       lpeversion="1"
       inverse="true"
       flatten="false"
       hide_clip="false"
       message="Use fill-rule evenodd on &lt;b&gt;fill and stroke&lt;/b&gt; dialog if no flatten result after convert clip to paths." />
    <inkscape:path-effect
       effect="powerclip"
       id="path-effect878"
       is_visible="true"
       lpeversion="1"
       inverse="true"
       flatten="false"
       hide_clip="false"
       message="Use fill-rule evenodd on &lt;b&gt;fill and stroke&lt;/b&gt; dialog if no flatten result after convert clip to paths." />
    <clipPath
       clipPathUnits="userSpaceOnUse"
       id="clipPath874">
      <path
         style="display:none;fill:#00b7b7;stroke-width:1.58234"
         class="st2"
         d="m 58.556266,10.584997 c 2.979752,-0.291803 5.755802,1.976547 6.35019,5.323836 0.612314,3.445142 -1.301712,6.789323 -4.305052,7.658192 -0.09493,0.01729 -0.185728,0.02826 -0.276198,0.04846 -10.755778,2.33665 -18.21924,12.157677 -18.166314,23.839668 -1.735412,-1.891167 -4.268797,-2.83445 -6.846898,-2.274693 -2.195612,0.473034 -3.983974,1.95266 -5.055522,3.90586 -0.778389,-18.498171 10.825562,-34.726431 27.765386,-38.403404 0.177235,-0.03773 0.355754,-0.06138 0.534404,-0.09792"
         id="path876" />
      <path
         id="lpe_path-effect878"
         style="fill:#00b7b7;stroke-width:1.58234"
         class="powerclip"
         d="M 26.092171,3.6125957 H 64.573014 V 43.784891 H 26.092171 Z m 32.464091,6.9724003 c -0.17865,0.03654 -0.357169,0.06019 -0.534404,0.09792 -16.939824,3.676973 -28.543775,19.905233 -27.765386,38.403404 1.071548,-1.9532 2.85991,-3.432826 5.055522,-3.90586 2.578101,-0.559757 5.111486,0.383526 6.846898,2.274693 -0.05293,-11.681991 7.410536,-21.503018 18.166314,-23.839668 0.09047,-0.0202 0.181268,-0.03117 0.276198,-0.04846 3.00334,-0.868869 4.917366,-4.21305 4.305052,-7.658192 -0.594388,-3.347289 -3.370438,-5.615639 -6.35019,-5.323836" />
    </clipPath>
    <clipPath
       clipPathUnits="userSpaceOnUse"
       id="clipPath914">
      <path
         style="display:none;fill:#06aff2;stroke-width:1.58234"
         class="st0"
         d="m 25.256917,50.312305 c 3.202994,0.696211 6.332199,-1.648453 6.969603,-5.226853 0.585917,-3.287094 -1.135554,-6.489677 -3.906138,-7.524847 -0.268007,-0.0432 -0.534122,-0.09544 -0.797946,-0.15091 C 16.775285,35.074093 11.024775,24.605741 11.061025,12.935443 9.3312055,14.879502 6.7641655,15.85623 4.1526867,15.28614 1.9946247,14.818037 0.23288457,13.382414 -0.84989079,11.475354 -1.536207,29.897083 8.3408303,46.677042 25.220813,50.341374 c 0.007,0.0031 0.01958,0.0031 0.03048,0.0031 z"
         id="path916" />
      <path
         id="lpe_path-effect918"
         style="fill:#06aff2;stroke-width:1.58234"
         class="powerclip"
         d="M -3.1092278,14.578495 H 36.008851 V 54.867673 H -3.1092278 Z m 28.3661448,35.73381 c 3.202994,0.696211 6.332199,-1.648453 6.969603,-5.226853 0.585917,-3.287094 -1.135554,-6.489677 -3.906138,-7.524847 -0.268007,-0.0432 -0.534122,-0.09544 -0.797946,-0.15091 C 16.775285,35.074093 11.024775,24.605741 11.061025,12.935443 9.3312055,14.879502 6.7641655,15.85623 4.1526867,15.28614 1.9946247,14.818037 0.23288457,13.382414 -0.84989079,11.475354 -1.536207,29.897083 8.3408303,46.677042 25.220813,50.341374 c 0.007,0.0031 0.01958,0.0031 0.03048,0.0031 z" />
    </clipPath>
  </defs>
  <sodipodi:namedview
     id="namedview38"
     pagecolor="#ffffff"
     bordercolor="#666666"
     borderopacity="1.0"
     inkscape:pageshadow="2"
     inkscape:pageopacity="0.0"
     inkscape:pagecheckerboard="0"
     showgrid="false"
     inkscape:zoom="12.859375"
     inkscape:cx="32"
     inkscape:cy="32"
     inkscape:window-width="1920"
     inkscape:window-height="996"
     inkscape:window-x="0"
     inkscape:window-y="0"
     inkscape:window-maximized="1"
     inkscape:current-layer="svg36" />
  <path
     style="fill:#29292a;stroke-width:1.31862"
     d="m 33.449923,8.6125957 c 1.195818,2.6734163 1.114998,5.9761793 -0.41175,8.6060133 -0.532899,0.917924 -1.203177,1.669522 -1.946002,2.289524 8.853009,-0.100594 16.808483,4.932632 18.577713,14.862962 0.0012,0.0052 0.0026,0.01303 0.005,0.02161 l 0.0148,-0.0056 c 0.523324,2.95301 3.146698,4.880161 5.847814,4.292184 2.421682,-0.526368 4.089956,-2.897059 4.034157,-5.510015 -0.04891,-0.304948 -0.08753,-0.60598 -0.142149,-0.914727 C 56.887722,17.982092 45.988716,9.5185863 33.449923,8.6125957 Z"
     id="path10"
     clip-path="url(#clipPath874)"
     inkscape:path-effect="#path-effect878"
     inkscape:original-d="m 33.449923,8.6125957 c 1.195818,2.6734163 1.114998,5.9761793 -0.41175,8.6060133 -0.532899,0.917924 -1.203177,1.669522 -1.946002,2.289524 8.853009,-0.100594 16.808483,4.932632 18.577713,14.862962 0.0012,0.0052 0.0026,0.01303 0.005,0.02161 l 0.0148,-0.0056 c 0.523324,2.95301 3.146698,4.880161 5.847814,4.292184 2.421682,-0.526368 4.089956,-2.897059 4.034157,-5.510015 -0.04891,-0.304948 -0.08753,-0.60598 -0.142149,-0.914727 C 56.887722,17.982092 45.988716,9.5185863 33.449923,8.6125957 Z" />
  <path
     style="fill:#29292a;stroke-width:1.31862"
     d="m 31.008841,19.578496 c -1.89253,1.53743 -4.304958,2.127043 -6.60759,1.656253 -1.082828,-0.221395 -2.141467,-0.674809 -3.102821,-1.363973 -0.08375,-0.06003 -0.144258,-0.143052 -0.225472,-0.205682 -0.426959,9.270779 -6.474781,17.418375 -15.0876535,19.290459 -0.1394091,0.03095 -0.2847602,0.05035 -0.4264542,0.0812 -2.4948657,0.729089 -4.0815553,3.507752 -3.5733918,6.370613 0.4997663,2.793255 2.8159834,4.687566 5.3037178,4.43832 0.2046914,-0.03841 0.4117878,-0.07804 0.6176232,-0.11908 C 21.283819,46.820448 30.61189,34.026734 31.008851,19.578495 Z"
     id="path16"
     clip-path="url(#clipPath914)"
     inkscape:path-effect="#path-effect918"
     inkscape:original-d="m 31.008841,19.578496 c -1.89253,1.53743 -4.304958,2.127043 -6.60759,1.656253 -1.082828,-0.221395 -2.141467,-0.674809 -3.102821,-1.363973 -0.08375,-0.06003 -0.144258,-0.143052 -0.225472,-0.205682 -0.426959,9.270779 -6.474781,17.418375 -15.0876535,19.290459 -0.1394091,0.03095 -0.2847602,0.05035 -0.4264542,0.0812 -2.4948657,0.729089 -4.0815553,3.507752 -3.5733918,6.370613 0.4997663,2.793255 2.8159834,4.687566 5.3037178,4.43832 0.2046914,-0.03841 0.4117878,-0.07804 0.6176232,-0.11908 C 21.283819,46.820448 30.61189,34.026734 31.008851,19.578495 Z" />
  <path
     style="fill:#29292a;fill-rule:evenodd;stroke-width:1.31862"
     d="m 38.579952,52.686367 c 0.381015,0.309101 -0.189361,0.719622 -0.465262,0.699264 -0.747674,-0.05516 -1.005578,-1.058282 -0.801281,-1.726756 0.365437,-1.195742 1.694977,-1.553124 2.662324,-1.070304 1.41962,0.70856 1.817486,2.695212 1.137305,4.152777 -0.906575,1.942705 -3.18993,2.465211 -4.859388,1.441342 -2.100843,-1.288432 -2.64974,-4.351161 -1.473328,-6.578795 1.424793,-2.697964 4.691954,-3.387875 7.056452,-1.812382 2.78648,1.856663 3.487313,6.011225 1.80935,9.004816 -1.937275,3.456218 -6.196226,4.31414 -9.253516,2.183421 -3.473886,-2.421057 -4.327027,-7.672918 -2.145372,-11.430837 2.447488,-4.215816 7.701523,-5.242042 11.45058,-2.55446 4.162164,2.983726 5.167814,9.33543 2.481395,13.856856"
     id="path28" />
  <path
     style="fill:#29292a;fill-rule:evenodd;stroke-width:1.31862"
     d="m 26.427309,11.993457 c -0.317513,-0.257585 0.157799,-0.599684 0.387716,-0.582721 0.623062,0.04598 0.837983,0.881901 0.667736,1.438964 -0.304532,0.996451 -1.412482,1.29427 -2.218603,0.891918 -1.183017,-0.590466 -1.514572,-2.246007 -0.947755,-3.460646 0.75548,-1.6189206 2.658276,-2.0543426 4.049491,-1.2011195 1.750701,1.0736955 2.208117,3.6259685 1.227772,5.4823305 -1.187328,2.248302 -3.909961,2.82323 -5.880376,1.51032 -2.322066,-1.547221 -2.906094,-5.009355 -1.507792,-7.5040143 1.614395,-2.8801819 5.163521,-3.5951172 7.711263,-1.8195186 2.894906,2.0175476 3.605857,6.3940989 1.787811,9.5256969 -2.039574,3.51318 -6.417936,4.36837 -9.54215,2.128718 -3.46847,-2.486437 -4.306512,-7.779526 -2.067829,-11.5473798"
     id="path30" />
  <path
     style="fill:#29292a;fill-rule:evenodd;stroke-width:1.31862"
     d="m 7.1288816,11.797562 c 0.2307053,-0.18716 -0.114656,-0.435731 -0.2817152,-0.423405 -0.4527164,0.03341 -0.6088787,0.64079 -0.4851756,1.04555 0.2212721,0.724023 1.026308,0.940418 1.6120363,0.64807 0.8595804,-0.429033 1.1004882,-1.63195 0.6886382,-2.514505 C 8.1137344,9.3769629 6.7311637,9.0605852 5.7203057,9.6805375 4.4482458,10.460684 4.1158884,12.315167 4.828206,13.663999 5.6909183,15.297615 7.6691837,15.715357 9.1008877,14.761397 10.788102,13.637188 11.212456,11.1216 10.196449,9.3089801 9.0234298,7.2162404 6.4446351,6.6967679 4.5934455,7.9869179 2.4900067,9.4528673 1.9734298,12.63287 3.2944223,14.908289 c 1.4819537,2.552678 4.6632722,3.174059 6.9333257,1.546727 2.52019,-1.806645 3.129113,-5.652604 1.502485,-8.3903273"
     id="path32" />
  <path
     style="fill:#29292a;stroke-width:1.31862"
     class="st2"
     d="m 56.873052,12.465677 c 2.483127,-0.243169 4.796502,1.647123 5.291825,4.43653 0.510262,2.870952 -1.08476,5.657769 -3.587543,6.381827 -0.07911,0.01441 -0.154774,0.02355 -0.230165,0.04038 -8.963149,1.947208 -15.1827,10.131397 -15.138595,19.86639 -1.446177,-1.575973 -3.557331,-2.362042 -5.705749,-1.895578 -1.829676,0.394195 -3.319978,1.627217 -4.212935,3.254884 -0.648657,-15.415143 9.021302,-28.938693 23.137822,-32.002837 0.147696,-0.03144 0.296462,-0.05115 0.445337,-0.0816"
     id="path26-3" />
  <path
     style="fill:#29292a;stroke-width:1.31862"
     class="st0"
     d="m 23.951416,48.64406 c 2.669162,0.580176 5.276833,-1.373711 5.808003,-4.355711 0.488264,-2.739245 -0.946295,-5.408064 -3.255115,-6.270706 -0.223339,-0.036 -0.445102,-0.07953 -0.664955,-0.125758 C 16.88339,35.94555 12.091298,27.221923 12.121506,17.496675 c -1.441516,1.620049 -3.5807162,2.433989 -5.7569482,1.958914 -1.798385,-0.390086 -3.266502,-1.586438 -4.168815,-3.175655 -0.57193,15.351441 7.658934,29.33474 21.7255872,32.38835 0.0058,0.0026 0.01632,0.0026 0.0254,0.0026 z"
     id="path20-6" />
</svg>
