<?xml version="1.0" encoding="UTF-8" standalone="no"?>
<svg
   width="64"
   height="64"
   version="1.1"
   id="svg14"
   sodipodi:docname="blender.svg"
   inkscape:version="1.1 (1:1.1+202105261517+ce6663b3b7)"
   xmlns:inkscape="http://www.inkscape.org/namespaces/inkscape"
   xmlns:sodipodi="http://sodipodi.sourceforge.net/DTD/sodipodi-0.dtd"
   xmlns="http://www.w3.org/2000/svg"
   xmlns:svg="http://www.w3.org/2000/svg"
   xmlns:rdf="http://www.w3.org/1999/02/22-rdf-syntax-ns#"
   xmlns:cc="http://creativecommons.org/ns#"
   xmlns:dc="http://purl.org/dc/elements/1.1/">
  <metadata
     id="metadata20">
    <rdf:RDF>
      <cc:Work
         rdf:about="">
        <dc:format>image/svg+xml</dc:format>
        <dc:type
           rdf:resource="http://purl.org/dc/dcmitype/StillImage" />
        <dc:title />
      </cc:Work>
    </rdf:RDF>
  </metadata>
  <defs
     id="defs18">
    <inkscape:path-effect
       effect="powerclip"
       id="path-effect13"
       is_visible="true"
       lpeversion="1"
       inverse="true"
       flatten="false"
       hide_clip="false"
       message="Use fill-rule evenodd on &lt;b&gt;fill and stroke&lt;/b&gt; dialog if no flatten result after convert clip to paths." />
    <clipPath
       clipPathUnits="userSpaceOnUse"
       id="clipPath9">
      <path
         style="display:none;fill:#ffffff"
         d="m 39.01,25 a 12,12 0 0 1 12,12 12,12 0 0 1 -12,12 12,12 0 0 1 -12,-12 12,12 0 0 1 12,-12 z"
         id="path11" />
      <path
         id="lpe_path-effect13"
         style="fill:#ffffff"
         class="powerclip"
         d="M -1.000678,0.94456246 H 65 V 63 H -1.000678 Z M 39.01,25 a 12,12 0 0 0 -12,12 12,12 0 0 0 12,12 12,12 0 0 0 12,-12 12,12 0 0 0 -12,-12 z" />
    </clipPath>
  </defs>
  <sodipodi:namedview
     pagecolor="#ffffff"
     bordercolor="#666666"
     borderopacity="1"
     objecttolerance="10"
     gridtolerance="10"
     guidetolerance="10"
     inkscape:pageopacity="0"
     inkscape:pageshadow="2"
     inkscape:window-width="1564"
     inkscape:window-height="863"
     id="namedview16"
     showgrid="false"
     inkscape:zoom="12.890625"
     inkscape:cx="32"
     inkscape:cy="24.281212"
     inkscape:window-x="190"
     inkscape:window-y="133"
     inkscape:window-maximized="0"
     inkscape:current-layer="svg14"
     inkscape:document-rotation="0"
     inkscape:pagecheckerboard="0" />
  <path
     style="fill:#29292a"
     d="m 31.232,5.9512 c -1.28,-0.0739 -2.57,0.4705 -3.41,1.5722 -1.343,1.7629 -1.005,4.2626 0.758,5.6056 L 32.35,16 H 12 c -2.216,0 -4,1.784 -4,4 0,2.216 1.784,4 4,4 h 9.098 L 5.58,35.814 c -1.7631,1.343 -2.1021,3.843 -0.7597,5.606 1.3424,1.763 3.8423,2.102 5.6057,0.76 l 7.605,-5.789 A 21,21 0 0 0 18,37 21,21 0 0 0 37.463,57.922 c 0.442,0.036 0.888,0.06 1.338,0.068 A 21,21 0 0 0 39,58 21,21 0 0 0 39.08,57.998 C 39.118,57.998 39.155,58 39.193,58 50.686,58 60.002,48.688 60,37.203 60,37.157 59.996,37.112 59.996,37.066 A 21,21 0 0 0 60,37 21,21 0 0 0 59.984,36.533 C 59.979,36.381 59.975,36.229 59.967,36.078 A 21,21 0 0 0 49.018,18.547 C 43.944,14.551 38.578,10.689 33.428,6.766 32.767,6.2621 32.001,5.9955 31.232,5.9512 Z"
     id="path4"
     clip-path="url(#clipPath9)"
     inkscape:path-effect="#path-effect13"
     inkscape:original-d="m31.232 5.9512c-1.28-0.0739-2.57 0.4705-3.41 1.5722-1.343 1.7629-1.005 4.2626 0.758 5.6056l3.77 2.871h-20.35c-2.216 0-4 1.784-4 4s1.784 4 4 4h9.098l-15.518 11.814c-1.7631 1.343-2.1021 3.843-0.7597 5.606s3.8423 2.102 5.6057 0.76l7.605-5.789a21 21 0 0 0 -0.031 0.609 21 21 0 0 0 19.463 20.922c0.442 0.036 0.888 0.06 1.338 0.068a21 21 0 0 0 0.199 0.01 21 21 0 0 0 0.08 -0.002c0.038 0 0.075 0.002 0.113 0.002 11.493 0 20.809-9.312 20.807-20.797 0-0.046-0.004-0.091-0.004-0.137a21 21 0 0 0 0.004 -0.066 21 21 0 0 0 -0.016 -0.467c-0.005-0.152-0.009-0.304-0.017-0.455a21 21 0 0 0 -10.949 -17.531c-5.074-3.996-10.44-7.858-15.59-11.781-0.661-0.5039-1.427-0.7705-2.196-0.8148z" />
  <circle
     style="fill:#29292a"
     cx="39.004"
     cy="36.994"
     r="6.002"
     id="circle10" />
</svg>
