<?xml version="1.0" encoding="UTF-8" standalone="no"?>
<svg
   width="64"
   height="64"
   version="1.1"
   id="svg73"
   sodipodi:docname="ca.desrt.dconf-editor.svg"
   inkscape:version="1.1 (c68e22c387, 2021-05-23)"
   xmlns:inkscape="http://www.inkscape.org/namespaces/inkscape"
   xmlns:sodipodi="http://sodipodi.sourceforge.net/DTD/sodipodi-0.dtd"
   xmlns="http://www.w3.org/2000/svg"
   xmlns:svg="http://www.w3.org/2000/svg"
   xmlns:rdf="http://www.w3.org/1999/02/22-rdf-syntax-ns#"
   xmlns:cc="http://creativecommons.org/ns#"
   xmlns:dc="http://purl.org/dc/elements/1.1/">
  <metadata
     id="metadata77">
    <rdf:RDF>
      <cc:Work
         rdf:about="">
        <dc:format>image/svg+xml</dc:format>
        <dc:type
           rdf:resource="http://purl.org/dc/dcmitype/StillImage" />
      </cc:Work>
    </rdf:RDF>
  </metadata>
  <sodipodi:namedview
     pagecolor="#ffffff"
     bordercolor="#666666"
     borderopacity="1"
     objecttolerance="10"
     gridtolerance="10"
     guidetolerance="10"
     inkscape:pageopacity="0"
     inkscape:pageshadow="2"
     inkscape:window-width="1459"
     inkscape:window-height="738"
     id="namedview75"
     showgrid="false"
     inkscape:zoom="12.578125"
     inkscape:cx="32.039752"
     inkscape:cy="32"
     inkscape:window-x="197"
     inkscape:window-y="240"
     inkscape:window-maximized="0"
     inkscape:current-layer="svg73"
     inkscape:document-rotation="0"
     inkscape:pagecheckerboard="0" />
  <defs
     id="defs29">
    <linearGradient
       id="b"
       x1="399.57"
       x2="399.57"
       y1="545.8"
       y2="517.8"
       gradientTransform="matrix(2.1429,0,0,2.1429,-826.36,-1107.5)"
       gradientUnits="userSpaceOnUse">
      <stop
         stop-color="#3889e9"
         offset="0"
         id="stop2" />
      <stop
         stop-color="#5ea5fb"
         offset="1"
         id="stop4" />
    </linearGradient>
    <linearGradient
       id="linearGradient862"
       x1="7.9373"
       x2="7.9373"
       y1="15.081"
       y2="1.852"
       gradientTransform="matrix(3.3743 0 0 3.3743 3.4312 3.4278)"
       gradientUnits="userSpaceOnUse">
      <stop
         stop-color="#f1efeb"
         offset="0"
         id="stop7" />
      <stop
         stop-color="#fff"
         offset="1"
         id="stop9" />
    </linearGradient>
    <linearGradient
       id="linearGradient910"
       x1="7.9373"
       x2="7.9373"
       y1="15.081"
       y2="1.852"
       gradientTransform="scale(3.7796)"
       gradientUnits="userSpaceOnUse">
      <stop
         stop-color="#613583"
         offset="0"
         id="stop12" />
      <stop
         stop-color="#a663c0"
         offset="1"
         id="stop14" />
    </linearGradient>
    <linearGradient
       id="linearGradient932"
       x1="379.24"
       x2="374.24"
       y1="546.85"
       y2="546.85"
       gradientTransform="matrix(2.1429 0 0 2.1429 -769.68 -1134.5)"
       gradientUnits="userSpaceOnUse">
      <stop
         stop-color="#f6f5f4"
         offset="0"
         id="stop17" />
      <stop
         stop-color="#fff"
         offset=".6"
         id="stop19" />
      <stop
         stop-color="#dddbd8"
         offset="1"
         id="stop21" />
    </linearGradient>
    <linearGradient
       id="linearGradient1146"
       x1="18"
       x2="18"
       y1="52"
       y2="12"
       gradientUnits="userSpaceOnUse">
      <stop
         stop-color="#5e337f"
         offset="0"
         id="stop24" />
      <stop
         stop-color="#ab60bf"
         offset="1"
         id="stop26" />
    </linearGradient>
    <linearGradient
       id="linearGradient921"
       x1="1643.1"
       x2="1643.1"
       y1="1003"
       y2="2366.7"
       gradientTransform="matrix(0.02123815,0,0,0.02123815,-2.6748924,-2.2793378)"
       gradientUnits="userSpaceOnUse">
      <stop
         stop-color="#fff"
         offset="0"
         id="stop7-3" />
      <stop
         stop-color="#bddcff"
         offset="1"
         id="stop9-6" />
    </linearGradient>
  </defs>
  <circle
     cx="32.02"
     cy="32.044"
     r="30.001"
     fill-opacity="0"
     stroke-width="1.5715"
     id="circle39" />
  <circle
     cx="32.02"
     cy="32.044"
     r="0"
     fill="url(#b)"
     stroke-width="1.5715"
     id="circle41" />
  <path
     style="fill:#29292a;stroke-width:2.08676"
     d="m 38.50326,2.5798657 c -12.588767,0 -22.98963,10.3537183 -22.98963,23.0119803 0,4.81118 1.617695,9.237427 4.156352,12.944447 L 4.3434247,53.964782 a 4.179215,4.2070085 0 0 0 5.8450833,6.014491 l 15.32656,-15.428486 c 3.68789,2.556047 8.200486,4.053247 12.988608,4.053247 12.589184,0 22.859953,-10.353717 22.859953,-23.011978 0,-12.658265 -10.270769,-23.0119808 -22.859953,-23.0119808 z m 0,8.3679923 c 8.094087,0 14.547244,6.505276 14.547244,14.643988 0,8.138291 -6.453157,14.643986 -14.547244,14.643986 -8.094083,0 -14.54724,-6.505695 -14.54724,-14.643986 0,-8.138712 6.453157,-14.643988 14.54724,-14.643988 z"
     id="path8" />
  <path
     style="fill:#29292a;stroke-width:1.25118"
     d="m 36.376143,15.938424 -0.222125,2.639739 a 7.8556881,7.8734544 0 0 0 -2.294491,1.330877 l -2.394569,-1.130267 -2.49953,4.340033 2.174885,1.511916 a 7.8556881,7.8734544 0 0 0 -0.122052,1.328432 7.8556881,7.8734544 0 0 0 0.114728,1.333324 l -2.167562,1.507024 2.499529,4.340033 2.389688,-1.125376 a 7.8556881,7.8734544 0 0 0 2.299372,1.321093 l 0.222127,2.644631 h 4.999059 l 0.217244,-2.639738 a 7.8556881,7.8734544 0 0 0 2.299372,-1.330878 l 2.392128,1.130268 2.499529,-4.340033 -2.172443,-1.511917 a 7.8556881,7.8734544 0 0 0 0.122053,-1.328431 7.8556881,7.8734544 0 0 0 -0.114729,-1.333325 l 2.167562,-1.507023 -2.499529,-4.340033 -2.389688,1.125375 a 7.8556881,7.8734544 0 0 0 -2.299374,-1.321092 l -0.222125,-2.644632 z m 2.409214,6.262956 a 3.7488565,3.7582904 0 0 1 0.09032,0 3.7488565,3.7582904 0 0 1 3.749295,3.757774 3.7488565,3.7582904 0 0 1 -3.749295,3.757773 3.7488565,3.7582904 0 0 1 -3.749294,-3.757773 3.7488565,3.7582904 0 0 1 3.658978,-3.757774 z"
     id="path16" />
</svg>
