<?xml version="1.0" encoding="UTF-8" standalone="no"?>
<svg
   width="64"
   height="64"
   version="1"
   id="svg20"
   sodipodi:docname="google-chrome.svg"
   inkscape:version="1.1 (c68e22c387, 2021-05-23)"
   xmlns:inkscape="http://www.inkscape.org/namespaces/inkscape"
   xmlns:sodipodi="http://sodipodi.sourceforge.net/DTD/sodipodi-0.dtd"
   xmlns="http://www.w3.org/2000/svg"
   xmlns:svg="http://www.w3.org/2000/svg"
   xmlns:rdf="http://www.w3.org/1999/02/22-rdf-syntax-ns#"
   xmlns:cc="http://creativecommons.org/ns#"
   xmlns:dc="http://purl.org/dc/elements/1.1/">
  <metadata
     id="metadata26">
    <rdf:RDF>
      <cc:Work
         rdf:about="">
        <dc:format>image/svg+xml</dc:format>
        <dc:type
           rdf:resource="http://purl.org/dc/dcmitype/StillImage" />
        <dc:title />
      </cc:Work>
    </rdf:RDF>
  </metadata>
  <defs
     id="defs24" />
  <sodipodi:namedview
     pagecolor="#ffffff"
     bordercolor="#666666"
     borderopacity="1"
     objecttolerance="10"
     gridtolerance="10"
     guidetolerance="10"
     inkscape:pageopacity="0"
     inkscape:pageshadow="2"
     inkscape:window-width="1360"
     inkscape:window-height="897"
     id="namedview22"
     showgrid="false"
     inkscape:zoom="12.890625"
     inkscape:cx="32"
     inkscape:cy="19.626667"
     inkscape:window-x="499"
     inkscape:window-y="58"
     inkscape:window-maximized="0"
     inkscape:current-layer="svg20"
     inkscape:document-rotation="0"
     inkscape:pagecheckerboard="0" />
  <path
     style="fill:#29292a;stroke-width:3.86585"
     d="M 31.985956,1.1599895 A 30.908557,30.945156 0 0 0 7.6261482,13.073874 L 16.840763,29.049311 A 15.454278,15.472578 0 0 1 31.985956,16.632567 H 58.721857 A 30.908557,30.945156 0 0 0 31.985956,1.1599895 Z M 5.2423258,16.671249 A 30.908557,30.945156 0 0 0 1.0773984,32.105145 30.908557,30.945156 0 0 0 27.71671,62.702167 l 9.210751,-15.936754 a 15.454278,15.472578 0 0 1 -4.941505,0.81231 15.454278,15.472578 0 0 1 -13.364088,-7.736289 h -0.02318 z M 31.985956,20.500711 A 11.590709,11.604433 0 0 0 20.395247,32.105145 11.590709,11.604433 0 0 0 31.985956,43.709578 11.590709,11.604433 0 0 0 43.576665,32.105145 11.590709,11.604433 0 0 0 31.985956,20.500711 Z m 10.19596,0 a 15.454278,15.472578 0 0 1 5.258318,11.604434 15.454278,15.472578 0 0 1 -2.082464,7.736289 h 0.01538 L 31.993609,63.050301 A 30.908557,30.945156 0 0 0 62.894513,32.105145 30.908557,30.945156 0 0 0 60.615006,20.500711 Z"
     id="path2" />
</svg>
