<?xml version="1.0" encoding="UTF-8" standalone="no"?>
<svg
   width="64"
   height="64"
   version="1"
   id="svg12"
   sodipodi:docname="com.wps.Office.pdfmain.svg"
   inkscape:version="1.1 (1:1.1+202105261517+ce6663b3b7)"
   xmlns:inkscape="http://www.inkscape.org/namespaces/inkscape"
   xmlns:sodipodi="http://sodipodi.sourceforge.net/DTD/sodipodi-0.dtd"
   xmlns="http://www.w3.org/2000/svg"
   xmlns:svg="http://www.w3.org/2000/svg"
   xmlns:rdf="http://www.w3.org/1999/02/22-rdf-syntax-ns#"
   xmlns:cc="http://creativecommons.org/ns#"
   xmlns:dc="http://purl.org/dc/elements/1.1/">
  <metadata
     id="metadata18">
    <rdf:RDF>
      <cc:Work
         rdf:about="">
        <dc:format>image/svg+xml</dc:format>
        <dc:type
           rdf:resource="http://purl.org/dc/dcmitype/StillImage" />
        <dc:title />
      </cc:Work>
    </rdf:RDF>
  </metadata>
  <defs
     id="defs16">
    <inkscape:path-effect
       effect="powerclip"
       id="path-effect18"
       is_visible="true"
       lpeversion="1"
       inverse="true"
       flatten="false"
       hide_clip="false"
       message="Use fill-rule evenodd on &lt;b&gt;fill and stroke&lt;/b&gt; dialog if no flatten result after convert clip to paths." />
    <clipPath
       clipPathUnits="userSpaceOnUse"
       id="clipPath14">
      <path
         style="color:#000000;display:none;opacity:0.85;fill:#f2f2f2;stroke-linecap:round;stroke-linejoin:round;-inkscape-stroke:none"
         d="m 30,13.080078 a 3.0003,3.0003 0 0 0 -3,3 V 25 a 3,3 0 0 0 3,3 3,3 0 0 0 3,-3 v -5.919922 h 4.300781 a 3.0003,3.0003 0 0 0 0.13086,-0.0039 c 0,0 1.482955,-0.02028 2.880859,0.675781 C 41.710404,20.44802 43,21.333634 43,25.123053 c 0,3.789419 -1.264633,4.60721 -2.644531,5.267578 -1.379898,0.660368 -2.867188,0.615234 -2.867188,0.615234 A 3.0003,3.0003 0 0 0 37.300781,31 H 23.074219 a 3.0003,3.0003 0 0 0 -0.738282,0.0918 c 0,0 -1.911005,0.484374 -3.699218,1.960937 C 16.848506,34.529298 15.016833,37.29567 15,41.0625 c -0.01688,3.77762 1.843379,6.557114 3.666016,8 1.822636,1.442886 3.759765,1.867187 3.759765,1.867187 A 3.0003,3.0003 0 0 0 23.074219,51 H 30 a 3.0003,3.0003 0 0 0 3,-3 v -5 a 3,3 0 0 0 -3,-3 3,3 0 0 0 -3,3 v 2 H 23.59375 C 23.489461,44.972313 23.041111,44.872377 22.390625,44.357422 21.669294,43.786382 20.990998,43.104506 21,41.089844 21.0091,39.064363 21.714218,38.293043 22.457031,37.679687 23.111213,37.139516 23.52938,37.036994 23.652344,37 h 13.648437 l -0.189453,-0.0059 c 0,0 2.863887,0.229973 5.833984,-1.191407 C 45.91541,34.381355 49,30.758618 49,25.123047 49,19.487476 45.938419,15.852752 42.986328,14.382813 40.034237,12.912873 37.167969,13.082031 37.167969,13.082031 l 0.132812,-0.002 z"
         id="path16" />
      <path
         id="lpe_path-effect18"
         style="color:#000000;opacity:0.85;fill:#f2f2f2;stroke-linecap:round;stroke-linejoin:round;-inkscape-stroke:none"
         class="powerclip"
         d="M -2,-2 H 66 V 66 H -2 Z m 32,15.080078 a 3.0003,3.0003 0 0 0 -3,3 V 25 a 3,3 0 0 0 3,3 3,3 0 0 0 3,-3 v -5.919922 h 4.300781 a 3.0003,3.0003 0 0 0 0.13086,-0.0039 c 0,0 1.482955,-0.02028 2.880859,0.675781 C 41.710404,20.44802 43,21.333634 43,25.123053 c 0,3.789419 -1.264633,4.60721 -2.644531,5.267578 -1.379898,0.660368 -2.867188,0.615234 -2.867188,0.615234 A 3.0003,3.0003 0 0 0 37.300781,31 H 23.074219 a 3.0003,3.0003 0 0 0 -0.738282,0.0918 c 0,0 -1.911005,0.484374 -3.699218,1.960937 C 16.848506,34.529298 15.016833,37.29567 15,41.0625 c -0.01688,3.77762 1.843379,6.557114 3.666016,8 1.822636,1.442886 3.759765,1.867187 3.759765,1.867187 A 3.0003,3.0003 0 0 0 23.074219,51 H 30 a 3.0003,3.0003 0 0 0 3,-3 v -5 a 3,3 0 0 0 -3,-3 3,3 0 0 0 -3,3 v 2 H 23.59375 C 23.489461,44.972313 23.041111,44.872377 22.390625,44.357422 21.669294,43.786382 20.990998,43.104506 21,41.089844 21.0091,39.064363 21.714218,38.293043 22.457031,37.679687 23.111213,37.139516 23.52938,37.036994 23.652344,37 h 13.648437 l -0.189453,-0.0059 c 0,0 2.863887,0.229973 5.833984,-1.191407 C 45.91541,34.381355 49,30.758618 49,25.123047 49,19.487476 45.938419,15.852752 42.986328,14.382813 40.034237,12.912873 37.167969,13.082031 37.167969,13.082031 l 0.132812,-0.002 z" />
    </clipPath>
  </defs>
  <sodipodi:namedview
     pagecolor="#ffffff"
     bordercolor="#666666"
     borderopacity="1"
     objecttolerance="10"
     gridtolerance="10"
     guidetolerance="10"
     inkscape:pageopacity="0"
     inkscape:pageshadow="2"
     inkscape:window-width="1408"
     inkscape:window-height="893"
     id="namedview14"
     showgrid="false"
     inkscape:zoom="12.890625"
     inkscape:cx="32"
     inkscape:cy="32.038788"
     inkscape:window-x="0"
     inkscape:window-y="0"
     inkscape:window-maximized="0"
     inkscape:current-layer="svg12"
     inkscape:document-rotation="0"
     inkscape:pagecheckerboard="0" />
  <path
     style="fill:#29292a"
     width="58"
     height="58"
     x="3"
     y="3"
     rx="2.9000001"
     ry="2.9000001"
     id="rect4"
     clip-path="url(#clipPath14)"
     inkscape:path-effect="#path-effect18"
     d="M 5.9000001,3 H 58.1 C 59.7066,3 61,4.2934 61,5.9000001 V 58.1 C 61,59.7066 59.7066,61 58.1,61 H 5.9000001 C 4.2934,61 3,59.7066 3,58.1 V 5.9000001 C 3,4.2934 4.2934,3 5.9000001,3 Z"
     sodipodi:type="rect" />
</svg>
