<?xml version="1.0" encoding="UTF-8" standalone="no"?>
<svg
   width="64"
   height="64"
   version="1"
   id="svg32"
   sodipodi:docname="com.rafaelmardojai.Blanket.svg"
   inkscape:version="1.1 (1:1.1+202105261517+ce6663b3b7)"
   xmlns:inkscape="http://www.inkscape.org/namespaces/inkscape"
   xmlns:sodipodi="http://sodipodi.sourceforge.net/DTD/sodipodi-0.dtd"
   xmlns="http://www.w3.org/2000/svg"
   xmlns:svg="http://www.w3.org/2000/svg">
  <defs
     id="defs36" />
  <sodipodi:namedview
     id="namedview34"
     pagecolor="#ffffff"
     bordercolor="#666666"
     borderopacity="1.0"
     inkscape:pageshadow="2"
     inkscape:pageopacity="0.0"
     inkscape:pagecheckerboard="0"
     showgrid="false"
     inkscape:zoom="2.8229029"
     inkscape:cx="32.413443"
     inkscape:cy="37.372877"
     inkscape:window-width="1366"
     inkscape:window-height="684"
     inkscape:window-x="0"
     inkscape:window-y="0"
     inkscape:window-maximized="1"
     inkscape:current-layer="svg32" />
  <path
     style="fill:#29292a;stroke-width:0.123967"
     d="M 24.238178,60.197041 C 23.061545,59.903078 21.811848,59.301916 20.87569,58.579526 20.015159,57.915488 8.9165249,46.31232 6.6107266,43.666088 3.6388312,40.255421 2.809607,38.624438 2.809607,36.189733 c 0,-1.363041 0.2835453,-2.510721 0.8837371,-3.577002 0.4773675,-0.848073 0.8835226,-1.194223 1.2041743,-1.026265 0.1247457,0.06535 3.564966,3.612669 7.6449236,7.882945 4.079964,4.27027 7.708592,8.020722 8.063621,8.334329 0.861819,0.761272 2.739014,1.832604 3.802219,2.169949 1.397294,0.443354 3.110805,0.614049 4.361538,0.434482 0.675244,-0.09695 6.12572,-1.687923 14.758618,-4.30799 8.991389,-2.728873 13.882103,-4.154281 14.253774,-4.154281 1.912741,0 3.29031,1.588944 3.300817,3.807296 0.0051,1.063919 -0.146119,1.597325 -0.7134,2.517412 -0.454937,0.737868 -1.784047,1.809871 -2.759649,2.225811 -1.352455,0.576608 -28.018177,9.538962 -28.940088,9.72677 -1.215503,0.247613 -3.387224,0.2348 -4.431714,-0.02616 z M 26.625974,47.701049 C 25.185735,47.455507 23.371273,46.587293 22.293449,45.627954 21.514706,44.934812 6.6255168,29.695365 6.2272783,29.183831 5.1782586,27.836371 3.5363134,24.314748 3.1587599,22.602493 2.6881346,20.468152 2.8711771,17.719259 3.6260621,15.584656 4.626268,12.756362 6.7013596,10.59236 9.0826604,9.8942534 9.8063654,9.6820892 23.798114,6.7452851 24.293791,6.7015032 24.63092,6.67171 44.416036,19.532944 44.910658,20.103399 c 0.626589,0.72265 0.952447,2.071691 0.535216,2.215766 -0.110498,0.03815 -3.223041,0.828301 -6.916759,1.755873 -11.378482,2.857379 -10.885061,2.72108 -11.741245,3.243405 -0.931275,0.568135 -1.834333,1.660764 -2.242744,2.713523 -0.344541,0.888137 -0.459095,2.514324 -0.257059,3.649135 0.502772,2.823995 2.571527,4.783154 5.052388,4.784729 0.722177,4e-4 23.433386,-6.058819 23.836869,-6.359594 0.622564,-0.464095 0.603718,-1.540452 -0.03456,-1.97514 -0.349261,-0.237852 -0.35599,-0.236211 -11.757888,2.863259 -12.076303,3.282809 -12.384066,3.349196 -13.327067,2.87488 -1.144841,-0.575844 -1.850141,-1.899197 -1.862518,-3.49464 -0.01061,-1.367624 0.519016,-2.403077 1.539756,-3.010295 0.226138,-0.134525 2.08865,-0.675616 4.138906,-1.202428 2.050261,-0.526807 7.369806,-1.892567 11.821214,-3.035015 l 8.093468,-2.077188 1.435013,0.05607 c 1.188448,0.04644 1.599393,0.12096 2.391706,0.433696 3.189947,1.25912 5.291759,4.166513 5.758069,7.965028 0.362112,2.949715 -1.108081,5.977123 -3.353473,6.905439 -1.044533,0.431849 -27.744676,9.067861 -28.559394,9.237381 -0.935869,0.19473 -1.900414,0.213024 -2.83457,0.05378 z M 52.103,19.831709 C 51.903138,18.850619 51.337533,17.825892 50.464075,16.862423 49.533204,15.835624 48.54276,15.062295 46.621724,13.862361 43.701555,12.038338 33.075569,5.1218476 33.046948,5.0264963 c -0.01598,-0.053349 1.085753,-0.3297935 2.448373,-0.6143034 2.562316,-0.5349933 3.760709,-0.6233686 4.669636,-0.3443511 0.268382,0.082386 4.22913,2.2068633 8.801655,4.7210599 7.371336,4.0531113 8.375567,4.6415503 8.859656,5.1913683 0.620511,0.704761 0.856924,1.450042 0.749597,2.363104 -0.143516,1.220922 -0.816297,2.14225 -2.122819,2.907053 -0.499797,0.29257 -3.647766,1.274714 -4.091949,1.276658 -0.06399,2.66e-4 -0.180125,-0.312638 -0.258097,-0.695376 z"
     id="path12" />
</svg>
