<?xml version="1.0" encoding="UTF-8" standalone="no"?>
<svg
   width="64"
   height="64"
   version="1"
   id="svg16"
   sodipodi:docname="com.github.PintaProject.Pinta.svg"
   inkscape:version="1.1 (1:1.1+202105261517+ce6663b3b7)"
   xmlns:inkscape="http://www.inkscape.org/namespaces/inkscape"
   xmlns:sodipodi="http://sodipodi.sourceforge.net/DTD/sodipodi-0.dtd"
   xmlns="http://www.w3.org/2000/svg"
   xmlns:svg="http://www.w3.org/2000/svg">
  <defs
     id="defs20">
    <inkscape:path-effect
       effect="powerclip"
       id="path-effect28"
       is_visible="true"
       lpeversion="1"
       inverse="true"
       flatten="false"
       hide_clip="false"
       message="Use fill-rule evenodd on &lt;b&gt;fill and stroke&lt;/b&gt; dialog if no flatten result after convert clip to paths." />
    <clipPath
       clipPathUnits="userSpaceOnUse"
       id="clipPath16">
      <g
         id="g26"
         style="display:none">
        <path
           style="opacity:0.85;fill:#ffffff;stroke-width:1.14168"
           d="m 11.617758,32.201676 c -2.426857,0 -4.5502153,-2.138064 -4.5502153,-4.583201 0,-2.445139 2.1233583,-4.583204 4.5502153,-4.583204 2.426857,0 4.550217,2.138065 4.550217,4.583204 0,2.445137 -2.12336,4.583201 -4.550217,4.583201 z"
           id="path18" />
        <path
           style="opacity:0.85;fill:#ffffff;stroke-width:1.14168"
           d="m 22.993297,18.452069 c -2.426857,0 -4.550215,-2.13882 -4.550215,-4.583202 0,-2.444382 2.123426,-4.5832027 4.550215,-4.5832027 2.426789,0 4.550216,2.1388207 4.550216,4.5832027 0,2.444382 -2.123427,4.583202 -4.550216,4.583202 z"
           id="path20" />
        <path
           style="opacity:0.85;fill:#ffffff;stroke-width:1.14168"
           d="m 38.919054,18.452069 c -2.426859,0 -4.550217,-2.13882 -4.550217,-4.583202 0,-2.444382 2.123426,-4.5832027 4.550217,-4.5832027 2.426789,0 4.550215,2.1388207 4.550215,4.5832027 0,2.444382 -2.123426,4.583202 -4.550215,4.583202 z"
           id="path22" />
        <path
           style="opacity:0.85;fill:#ffffff;stroke-width:1.14168"
           d="m 50.294592,32.201676 c -2.426858,0 -4.550216,-2.13882 -4.550216,-4.583201 0,-2.444383 2.123426,-4.583204 4.550216,-4.583204 2.42679,0 4.550216,2.138821 4.550216,4.583204 0,2.444381 -2.123426,4.583201 -4.550216,4.583201 z"
           id="path24" />
      </g>
      <path
         id="lpe_path-effect28"
         class="powerclip"
         d="M -2.4826733,-2.5895973 H 66.669768 V 66.992492 H -2.4826733 Z M 11.617758,32.201676 c 2.426857,0 4.550217,-2.138064 4.550217,-4.583201 0,-2.445139 -2.12336,-4.583204 -4.550217,-4.583204 -2.426857,0 -4.5502153,2.138065 -4.5502153,4.583204 0,2.445137 2.1233583,4.583201 4.5502153,4.583201 z M 22.993297,18.452069 c 2.426789,0 4.550216,-2.13882 4.550216,-4.583202 0,-2.444382 -2.123427,-4.5832027 -4.550216,-4.5832027 -2.426789,0 -4.550215,2.1388207 -4.550215,4.5832027 0,2.444382 2.123358,4.583202 4.550215,4.583202 z m 15.925757,0 c 2.426789,0 4.550215,-2.13882 4.550215,-4.583202 0,-2.444382 -2.123426,-4.5832027 -4.550215,-4.5832027 -2.426791,0 -4.550217,2.1388207 -4.550217,4.5832027 0,2.444382 2.123358,4.583202 4.550217,4.583202 z m 11.375538,13.749607 c 2.42679,0 4.550216,-2.13882 4.550216,-4.583201 0,-2.444383 -2.123426,-4.583204 -4.550216,-4.583204 -2.42679,0 -4.550216,2.138821 -4.550216,4.583204 0,2.444381 2.123358,4.583201 4.550216,4.583201 z" />
    </clipPath>
  </defs>
  <sodipodi:namedview
     id="namedview18"
     pagecolor="#ffffff"
     bordercolor="#666666"
     borderopacity="1.0"
     inkscape:pageshadow="2"
     inkscape:pageopacity="0.0"
     inkscape:pagecheckerboard="0"
     showgrid="false"
     inkscape:zoom="12.859375"
     inkscape:cx="32.077764"
     inkscape:cy="32.699878"
     inkscape:window-width="1920"
     inkscape:window-height="996"
     inkscape:window-x="0"
     inkscape:window-y="0"
     inkscape:window-maximized="1"
     inkscape:current-layer="svg16" />
  <path
     style="fill:#29292a;stroke-width:1.14168"
     d="m 32.093729,2.410861 c -16.431284,0 -29.5764023,13.240413 -29.5764023,29.790815 0,16.550402 13.1451183,29.790816 29.5764023,29.790816 2.629115,0 4.550249,-2.317038 4.550249,-4.965212 0,-1.324042 0.05061,-2.317038 -0.935285,-3.30999 -0.657255,-0.993018 -1.314512,-1.986062 -1.314512,-3.309987 0,-2.648175 2.30059,-4.456155 4.929477,-4.456155 h 5.91528 c 9.200537,0 16.43083,-7.791766 16.43083,-17.059001 0,-14.565418 -13.145574,-26.4817443 -29.576403,-26.4817443 z"
     id="path4"
     clip-path="url(#clipPath16)"
     inkscape:path-effect="#path-effect28"
     inkscape:original-d="m 32.093729,2.410861 c -16.431284,0 -29.5764023,13.240413 -29.5764023,29.790815 0,16.550402 13.1451183,29.790816 29.5764023,29.790816 2.629115,0 4.550249,-2.317038 4.550249,-4.965212 0,-1.324042 0.05061,-2.317038 -0.935285,-3.30999 -0.657255,-0.993018 -1.314512,-1.986062 -1.314512,-3.309987 0,-2.648175 2.30059,-4.456155 4.929477,-4.456155 h 5.91528 c 9.200537,0 16.43083,-7.791766 16.43083,-17.059001 0,-14.565418 -13.145574,-26.4817443 -29.576403,-26.4817443 z" />
</svg>
