<?xml version="1.0" encoding="UTF-8" standalone="no"?>
<svg
   width="64"
   height="64"
   version="1"
   id="svg12"
   sodipodi:docname="com.wps.Office.wppmain.svg"
   inkscape:version="1.1 (1:1.1+202105261517+ce6663b3b7)"
   xmlns:inkscape="http://www.inkscape.org/namespaces/inkscape"
   xmlns:sodipodi="http://sodipodi.sourceforge.net/DTD/sodipodi-0.dtd"
   xmlns="http://www.w3.org/2000/svg"
   xmlns:svg="http://www.w3.org/2000/svg"
   xmlns:rdf="http://www.w3.org/1999/02/22-rdf-syntax-ns#"
   xmlns:cc="http://creativecommons.org/ns#"
   xmlns:dc="http://purl.org/dc/elements/1.1/">
  <metadata
     id="metadata18">
    <rdf:RDF>
      <cc:Work
         rdf:about="">
        <dc:format>image/svg+xml</dc:format>
        <dc:type
           rdf:resource="http://purl.org/dc/dcmitype/StillImage" />
        <dc:title />
      </cc:Work>
    </rdf:RDF>
  </metadata>
  <defs
     id="defs16">
    <inkscape:path-effect
       effect="powerclip"
       id="path-effect18"
       is_visible="true"
       lpeversion="1"
       inverse="true"
       flatten="false"
       hide_clip="false"
       message="Use fill-rule evenodd on &lt;b&gt;fill and stroke&lt;/b&gt; dialog if no flatten result after convert clip to paths." />
    <clipPath
       clipPathUnits="userSpaceOnUse"
       id="clipPath14">
      <path
         style="color:#000000;display:none;opacity:0.85;fill:#f2f2f2;stroke-linecap:round;stroke-linejoin:round;-inkscape-stroke:none"
         d="m 18,13.029297 a 3,3 0 0 0 -3,3 3,3 0 0 0 3,3 h 19.300781 c 0,0 1.613257,0.04336 3.09961,0.724609 1.486352,0.681245 2.599609,1.353412 2.599609,4.25 0,2.896588 -1.113257,3.570708 -2.599609,4.251953 -1.486353,0.681245 -3.09961,0.72461 -3.09961,0.72461 H 18 a 3.0003,3.0003 0 0 0 -3,3 V 48 a 3,3 0 0 0 3,3 3,3 0 0 0 3,-3 V 34.980469 h 16.300781 c 0,0 2.735967,0.04102 5.59961,-1.271485 C 45.764034,32.396481 49,29.08231 49,24.003906 c 0,-5.078404 -3.235966,-8.392575 -6.099609,-9.705078 -2.863643,-1.312503 -5.59961,-1.269531 -5.59961,-1.269531 z"
         id="path16" />
      <path
         id="lpe_path-effect18"
         style="color:#000000;opacity:0.85;fill:#f2f2f2;stroke-linecap:round;stroke-linejoin:round;-inkscape-stroke:none"
         class="powerclip"
         d="M -2,-2 H 66 V 66 H -2 Z m 20,15.029297 a 3,3 0 0 0 -3,3 3,3 0 0 0 3,3 h 19.300781 c 0,0 1.613257,0.04336 3.09961,0.724609 1.486352,0.681245 2.599609,1.353412 2.599609,4.25 0,2.896588 -1.113257,3.570708 -2.599609,4.251953 -1.486353,0.681245 -3.09961,0.72461 -3.09961,0.72461 H 18 a 3.0003,3.0003 0 0 0 -3,3 V 48 a 3,3 0 0 0 3,3 3,3 0 0 0 3,-3 V 34.980469 h 16.300781 c 0,0 2.735967,0.04102 5.59961,-1.271485 C 45.764034,32.396481 49,29.08231 49,24.003906 c 0,-5.078404 -3.235966,-8.392575 -6.099609,-9.705078 -2.863643,-1.312503 -5.59961,-1.269531 -5.59961,-1.269531 z" />
    </clipPath>
  </defs>
  <sodipodi:namedview
     pagecolor="#ffffff"
     bordercolor="#666666"
     borderopacity="1"
     objecttolerance="10"
     gridtolerance="10"
     guidetolerance="10"
     inkscape:pageopacity="0"
     inkscape:pageshadow="2"
     inkscape:window-width="1504"
     inkscape:window-height="966"
     id="namedview14"
     showgrid="false"
     inkscape:zoom="12.890625"
     inkscape:cx="32"
     inkscape:cy="32"
     inkscape:window-x="0"
     inkscape:window-y="0"
     inkscape:window-maximized="0"
     inkscape:current-layer="svg12"
     inkscape:document-rotation="0"
     inkscape:pagecheckerboard="0" />
  <path
     style="fill:#29292a"
     width="58"
     height="58"
     x="3"
     y="3"
     rx="2.9000001"
     ry="2.9000001"
     id="rect4"
     clip-path="url(#clipPath14)"
     inkscape:path-effect="#path-effect18"
     d="M 5.9000001,3 H 58.1 C 59.7066,3 61,4.2934 61,5.9000001 V 58.1 C 61,59.7066 59.7066,61 58.1,61 H 5.9000001 C 4.2934,61 3,59.7066 3,58.1 V 5.9000001 C 3,4.2934 4.2934,3 5.9000001,3 Z"
     sodipodi:type="rect" />
</svg>
