<?xml version="1.0" encoding="UTF-8" standalone="no"?>
<svg
   width="64"
   height="64"
   version="1.1"
   id="svg12"
   sodipodi:docname="com.avocode.Avocode.svg"
   inkscape:version="1.1 (c68e22c387, 2021-05-23)"
   xmlns:inkscape="http://www.inkscape.org/namespaces/inkscape"
   xmlns:sodipodi="http://sodipodi.sourceforge.net/DTD/sodipodi-0.dtd"
   xmlns="http://www.w3.org/2000/svg"
   xmlns:svg="http://www.w3.org/2000/svg">
  <defs
     id="defs16" />
  <sodipodi:namedview
     id="namedview14"
     pagecolor="#ffffff"
     bordercolor="#666666"
     borderopacity="1.0"
     inkscape:pageshadow="2"
     inkscape:pageopacity="0.0"
     inkscape:pagecheckerboard="0"
     showgrid="false"
     inkscape:zoom="12.859375"
     inkscape:cx="31.961118"
     inkscape:cy="25.778858"
     inkscape:window-width="1459"
     inkscape:window-height="738"
     inkscape:window-x="371"
     inkscape:window-y="370"
     inkscape:window-maximized="0"
     inkscape:current-layer="svg12" />
  <path
     style="fill:#29292a;stroke-width:1.84045"
     d="m 32.135819,2.7413951 c -0.708009,0.011723 -1.417159,0.081197 -2.113726,0.2003792 -5.747829,1.7342262 -9.689178,6.7003989 -12.667891,11.6072167 -4.688708,8.214481 -7.6263062,17.704718 -7.024874,27.207534 0.886763,9.712001 9.051197,18.145106 18.797201,19.431235 1.072994,0.140482 2.154754,0.158913 3.235589,0.166973 10.081732,0.345636 19.644091,-7.248031 21.700557,-17.00769 1.474553,-7.014336 -0.1664,-14.283446 -2.44113,-20.948331 C 48.874733,16.125395 44.948106,8.7072054 38.178462,4.3873217 36.381846,3.1883838 34.259829,2.706467 32.135819,2.7414152 Z m 0.616299,16.5681239 c 1.739254,0.149459 3.439813,1.123889 4.564486,2.461704 3.69087,4.017597 5.837972,9.416897 6.14376,14.822694 0.645076,5.275101 -3.206958,10.508351 -8.401932,11.697856 -4.105463,1.006525 -8.620126,-0.475217 -11.25232,-3.764112 -2.717953,-3.072025 -2.820711,-7.41228 -2.041498,-11.216016 1.204105,-5.02156 3.457839,-10.303612 7.934885,-13.276968 0.953122,-0.604751 2.009068,-0.81483 3.052619,-0.725158 z"
     id="path8" />
</svg>
