<?xml version="1.0" encoding="UTF-8" standalone="no"?>
<svg
   width="64"
   height="64"
   preserveAspectRatio="xMidYMid meet"
   version="1.1"
   id="svg45"
   sodipodi:docname="com.github.phase1geo.minder.svg"
   inkscape:version="1.1 (1:1.1+202106031931+af4d65493e)"
   xmlns:inkscape="http://www.inkscape.org/namespaces/inkscape"
   xmlns:sodipodi="http://sodipodi.sourceforge.net/DTD/sodipodi-0.dtd"
   xmlns="http://www.w3.org/2000/svg"
   xmlns:svg="http://www.w3.org/2000/svg">
  <sodipodi:namedview
     id="namedview47"
     pagecolor="#ffffff"
     bordercolor="#666666"
     borderopacity="1.0"
     inkscape:pageshadow="2"
     inkscape:pageopacity="0.0"
     inkscape:pagecheckerboard="0"
     showgrid="false"
     inkscape:zoom="12.859375"
     inkscape:cx="32"
     inkscape:cy="25.778858"
     inkscape:window-width="1920"
     inkscape:window-height="996"
     inkscape:window-x="0"
     inkscape:window-y="0"
     inkscape:window-maximized="1"
     inkscape:current-layer="svg45" />
  <defs
     id="defs5">
    <inkscape:path-effect
       effect="powerclip"
       id="path-effect888"
       is_visible="true"
       lpeversion="1"
       inverse="true"
       flatten="false"
       hide_clip="false"
       message="Use fill-rule evenodd on &lt;b&gt;fill and stroke&lt;/b&gt; dialog if no flatten result after convert clip to paths." />
    <path
       id="b1Uu1ewGb"
       d="m 490.72,139.23 c 4.1,0 7.42,3.32 7.42,7.42 0,13.65 0,47.18 0,60.83 0,4.1 -3.32,7.42 -7.42,7.42 -27.3,0 -101.77,0 -129.07,0 -4.1,0 -7.43,-3.32 -7.43,-7.42 0,-13.65 0,-47.18 0,-60.83 0,-4.1 3.33,-7.42 7.43,-7.42 27.3,0 101.77,0 129.07,0 z" />
    <path
       id="b24bcEG6b5"
       d="m 297.34,214.9 c 5.52,0 10,4.48 10,10 0,13.14 0,42.55 0,55.68 0,5.52 -4.48,10 -10,10 -36.79,0 -137.14,0 -173.92,0 -5.52,0 -10,-4.48 -10,-10 0,-13.13 0,-42.54 0,-55.68 0,-5.52 4.48,-10 10,-10 36.78,0 137.13,0 173.92,0 z" />
    <path
       id="d4HHCachsN"
       d="m 490.72,290.58 c 4.1,0 7.42,3.32 7.42,7.42 0,13.65 0,47.18 0,60.83 0,4.1 -3.32,7.43 -7.42,7.43 -27.3,0 -101.77,0 -129.07,0 -4.1,0 -7.43,-3.33 -7.43,-7.43 0,-13.65 0,-47.18 0,-60.83 0,-4.1 3.33,-7.42 7.43,-7.42 27.3,0 101.77,0 129.07,0 z" />
    <clipPath
       clipPathUnits="userSpaceOnUse"
       id="clipPath884">
      <path
         id="path886"
         style="display:none;fill:#68b723;stroke-width:0.0977224"
         d="m 35.271484,14.238281 c -0.370344,0 -0.671875,0.351696 -0.671875,0.785157 v 6.43164 c 0,0.433461 0.301531,0.783203 0.671875,0.783203 h 11.658204 c 0.370344,0 0.669921,-0.349742 0.669921,-0.783203 v -6.43164 c 0,-0.433461 -0.299576,-0.785157 -0.669921,-0.785157 z m -23.691406,8 c -0.540841,0 -0.980469,0.475084 -0.980469,1.058594 v 5.884766 c 0,0.58351 0.439628,1.05664 0.980469,1.05664 h 17.041016 c 0.540841,0 0.978515,-0.47313 0.978515,-1.05664 v -5.884766 c 0,-0.58351 -0.437674,-1.058594 -0.978515,-1.058594 z m 23.691406,8 c -0.370344,0 -0.671875,0.351754 -0.671875,0.785157 v 6.429687 c 0,0.433404 0.301531,0.785156 0.671875,0.785156 h 11.658204 c 0.370344,0 0.669921,-0.351752 0.669921,-0.785156 v -6.429687 c 0,-0.433403 -0.299576,-0.785157 -0.669921,-0.785157 z" />
      <path
         id="lpe_path-effect888"
         style="fill:#68b723;stroke-width:0.0977224"
         class="powerclip"
         d="M -2,-1 H 66 V 52 H -2 Z m 37.271484,15.238281 c -0.370344,0 -0.671875,0.351696 -0.671875,0.785157 v 6.43164 c 0,0.433461 0.301531,0.783203 0.671875,0.783203 h 11.658204 c 0.370344,0 0.669921,-0.349742 0.669921,-0.783203 v -6.43164 c 0,-0.433461 -0.299576,-0.785157 -0.669921,-0.785157 z m -23.691406,8 c -0.540841,0 -0.980469,0.475084 -0.980469,1.058594 v 5.884766 c 0,0.58351 0.439628,1.05664 0.980469,1.05664 h 17.041016 c 0.540841,0 0.978515,-0.47313 0.978515,-1.05664 v -5.884766 c 0,-0.58351 -0.437674,-1.058594 -0.978515,-1.058594 z m 23.691406,8 c -0.370344,0 -0.671875,0.351754 -0.671875,0.785157 v 6.429687 c 0,0.433404 0.301531,0.785156 0.671875,0.785156 h 11.658204 c 0.370344,0 0.669921,-0.351752 0.669921,-0.785156 v -6.429687 c 0,-0.433403 -0.299576,-0.785157 -0.669921,-0.785157 z" />
    </clipPath>
  </defs>
  <path
     id="circle11"
     style="fill:#29292a"
     d="M 26,4 A 14,14 0 0 0 12.470703,14.498047 13,13 0 0 0 3,27 13,13 0 0 0 16,40 13,13 0 0 0 17.839844,39.867188 14,14 0 0 0 30,47 14,14 0 0 0 40.804688,41.869141 10.5,10.5 0 0 0 45.5,43 10.5,10.5 0 0 0 56,32.5 10.5,10.5 0 0 0 55.998047,32.431641 10.5,10.5 0 0 0 61,23.5 10.5,10.5 0 0 0 51.255859,13.029297 8.5,8.5 0 0 0 43.5,8 8.5,8.5 0 0 0 37.697266,10.3125 14,14 0 0 0 26,4 Z"
     clip-path="url(#clipPath884)"
     inkscape:path-effect="#path-effect888"
     inkscape:original-d="M 26 4 A 14 14 0 0 0 12.470703 14.498047 A 13 13 0 0 0 3 27 A 13 13 0 0 0 16 40 A 13 13 0 0 0 17.839844 39.867188 A 14 14 0 0 0 30 47 A 14 14 0 0 0 40.804688 41.869141 A 10.5 10.5 0 0 0 45.5 43 A 10.5 10.5 0 0 0 56 32.5 A 10.5 10.5 0 0 0 55.998047 32.431641 A 10.5 10.5 0 0 0 61 23.5 A 10.5 10.5 0 0 0 51.255859 13.029297 A 8.5 8.5 0 0 0 43.5 8 A 8.5 8.5 0 0 0 37.697266 10.3125 A 14 14 0 0 0 26 4 z " />
  <circle
     style="fill:#29292a"
     cx="40"
     cy="52"
     r="5"
     id="circle39" />
  <circle
     style="fill:#29292a"
     cx="25"
     cy="56"
     r="4"
     id="circle41" />
</svg>
