<?xml version="1.0" encoding="UTF-8" standalone="no"?>
<svg
   width="64"
   height="64"
   version="1"
   id="svg12"
   sodipodi:docname="com.wps.Office.etmain.svg"
   inkscape:version="1.1 (1:1.1+202105261517+ce6663b3b7)"
   xmlns:inkscape="http://www.inkscape.org/namespaces/inkscape"
   xmlns:sodipodi="http://sodipodi.sourceforge.net/DTD/sodipodi-0.dtd"
   xmlns="http://www.w3.org/2000/svg"
   xmlns:svg="http://www.w3.org/2000/svg"
   xmlns:rdf="http://www.w3.org/1999/02/22-rdf-syntax-ns#"
   xmlns:cc="http://creativecommons.org/ns#"
   xmlns:dc="http://purl.org/dc/elements/1.1/">
  <metadata
     id="metadata18">
    <rdf:RDF>
      <cc:Work
         rdf:about="">
        <dc:format>image/svg+xml</dc:format>
        <dc:type
           rdf:resource="http://purl.org/dc/dcmitype/StillImage" />
        <dc:title />
      </cc:Work>
    </rdf:RDF>
  </metadata>
  <defs
     id="defs16">
    <inkscape:path-effect
       effect="powerclip"
       id="path-effect26"
       is_visible="true"
       lpeversion="1"
       inverse="true"
       flatten="false"
       hide_clip="false"
       message="Use fill-rule evenodd on &lt;b&gt;fill and stroke&lt;/b&gt; dialog if no flatten result after convert clip to paths." />
    <clipPath
       clipPathUnits="userSpaceOnUse"
       id="clipPath22">
      <path
         style="color:#000000;display:none;opacity:0.85;fill:#f2f2f2;stroke-linecap:round;stroke-linejoin:round;-inkscape-stroke:none"
         d="m 26.167969,13 c 0,0 -2.653845,-0.03094 -5.408203,1.318359 -2.754359,1.349297 -5.78125,4.669838 -5.78125,9.685547 0,5.015708 3.030793,8.335898 5.787109,9.679688 2.756316,1.343789 5.410156,1.30664 5.410156,1.30664 a 3.0003,3.0003 0 0 0 0.0039,0 h 3.183594 a 3,3 0 0 0 0.04687,0.01953 h 8.410156 a 3.0003,3.0003 0 0 0 0.0039,0 c 0,0 1.445517,0.04069 2.787109,0.691406 1.341593,0.650713 2.410156,1.314154 2.410156,4.273437 0,2.959284 -1.078055,3.64891 -2.425781,4.3125 C 39.247977,44.9507 37.802734,45 37.802734,45 h -19.78125 a 3,3 0 0 0 -3,3 3,3 0 0 0 3,3 h 19.798828 a 3.0003,3.0003 0 0 0 0.01953,0 c 0,0 2.65398,0.02508 5.40625,-1.330078 2.75227,-1.355157 5.77539,-4.679604 5.77539,-9.695313 0,-5.015708 -3.032612,-8.333966 -5.791015,-9.671875 -2.758404,-1.337909 -5.414063,-1.292968 -5.414063,-1.292968 h -3.419922 a 3,3 0 0 0 -0.09766,-0.01953 h -8.115234 -0.0039 c -0.0038,-1.15e-4 -1.443247,-0.045 -2.785156,-0.699218 -1.343679,-0.655086 -2.416015,-1.327826 -2.416015,-4.28711 0,-2.959286 1.074284,-3.639631 2.419921,-4.298828 C 24.744075,19.045881 26.189453,19 26.189453,19 h 19.789063 a 3,3 0 0 0 3,-3 3,3 0 0 0 -3,-3 H 26.179687 a 3.0003,3.0003 0 0 0 -0.01172,0 z"
         id="path24" />
      <path
         id="lpe_path-effect26"
         style="color:#000000;opacity:0.85;fill:#f2f2f2;stroke-linecap:round;stroke-linejoin:round;-inkscape-stroke:none"
         class="powerclip"
         d="M -2,-2 H 66 V 66 H -2 Z m 28.167969,15 c 0,0 -2.653845,-0.03094 -5.408203,1.318359 -2.754359,1.349297 -5.78125,4.669838 -5.78125,9.685547 0,5.015708 3.030793,8.335898 5.787109,9.679688 2.756316,1.343789 5.410156,1.30664 5.410156,1.30664 a 3.0003,3.0003 0 0 0 0.0039,0 h 3.183594 a 3,3 0 0 0 0.04687,0.01953 h 8.410156 a 3.0003,3.0003 0 0 0 0.0039,0 c 0,0 1.445517,0.04069 2.787109,0.691406 1.341593,0.650713 2.410156,1.314154 2.410156,4.273437 0,2.959284 -1.078055,3.64891 -2.425781,4.3125 C 39.247977,44.9507 37.802734,45 37.802734,45 h -19.78125 a 3,3 0 0 0 -3,3 3,3 0 0 0 3,3 h 19.798828 a 3.0003,3.0003 0 0 0 0.01953,0 c 0,0 2.65398,0.02508 5.40625,-1.330078 2.75227,-1.355157 5.77539,-4.679604 5.77539,-9.695313 0,-5.015708 -3.032612,-8.333966 -5.791015,-9.671875 -2.758404,-1.337909 -5.414063,-1.292968 -5.414063,-1.292968 h -3.419922 a 3,3 0 0 0 -0.09766,-0.01953 h -8.115234 -0.0039 c -0.0038,-1.15e-4 -1.443247,-0.045 -2.785156,-0.699218 -1.343679,-0.655086 -2.416015,-1.327826 -2.416015,-4.28711 0,-2.959286 1.074284,-3.639631 2.419921,-4.298828 C 24.744075,19.045881 26.189453,19 26.189453,19 h 19.789063 a 3,3 0 0 0 3,-3 3,3 0 0 0 -3,-3 H 26.179687 a 3.0003,3.0003 0 0 0 -0.01172,0 z" />
    </clipPath>
  </defs>
  <sodipodi:namedview
     pagecolor="#ffffff"
     bordercolor="#666666"
     borderopacity="1"
     objecttolerance="10"
     gridtolerance="10"
     guidetolerance="10"
     inkscape:pageopacity="0"
     inkscape:pageshadow="2"
     inkscape:window-width="1589"
     inkscape:window-height="908"
     id="namedview14"
     showgrid="false"
     inkscape:zoom="12.890625"
     inkscape:cx="32.038788"
     inkscape:cy="25.793939"
     inkscape:window-x="0"
     inkscape:window-y="0"
     inkscape:window-maximized="0"
     inkscape:current-layer="svg12"
     inkscape:document-rotation="0"
     inkscape:pagecheckerboard="0" />
  <path
     style="fill:#29292a"
     width="58"
     height="58"
     x="3"
     y="3"
     rx="2.9000001"
     ry="2.9000001"
     id="rect4"
     sodipodi:type="rect"
     clip-path="url(#clipPath22)"
     inkscape:path-effect="#path-effect26"
     d="M 5.9000001,3 H 58.1 C 59.7066,3 61,4.2934 61,5.9000001 V 58.1 C 61,59.7066 59.7066,61 58.1,61 H 5.9000001 C 4.2934,61 3,59.7066 3,58.1 V 5.9000001 C 3,4.2934 4.2934,3 5.9000001,3 Z" />
</svg>
