<?xml version="1.0" encoding="UTF-8" standalone="no"?>
<svg
   width="64"
   height="64"
   version="1.1"
   id="svg73"
   sodipodi:docname="cool-retro-term.svg"
   inkscape:version="1.1 (1:1.1+202105261517+ce6663b3b7)"
   xmlns:inkscape="http://www.inkscape.org/namespaces/inkscape"
   xmlns:sodipodi="http://sodipodi.sourceforge.net/DTD/sodipodi-0.dtd"
   xmlns="http://www.w3.org/2000/svg"
   xmlns:svg="http://www.w3.org/2000/svg"
   xmlns:rdf="http://www.w3.org/1999/02/22-rdf-syntax-ns#"
   xmlns:cc="http://creativecommons.org/ns#"
   xmlns:dc="http://purl.org/dc/elements/1.1/">
  <metadata
     id="metadata77">
    <rdf:RDF>
      <cc:Work
         rdf:about="">
        <dc:format>image/svg+xml</dc:format>
        <dc:type
           rdf:resource="http://purl.org/dc/dcmitype/StillImage" />
        <dc:title />
      </cc:Work>
    </rdf:RDF>
  </metadata>
  <sodipodi:namedview
     pagecolor="#ffffff"
     bordercolor="#666666"
     borderopacity="1"
     objecttolerance="10"
     gridtolerance="10"
     guidetolerance="10"
     inkscape:pageopacity="0"
     inkscape:pageshadow="2"
     inkscape:window-width="1717"
     inkscape:window-height="815"
     id="namedview75"
     showgrid="false"
     inkscape:zoom="12.578125"
     inkscape:cx="-0.15900621"
     inkscape:cy="28.223602"
     inkscape:window-x="-216"
     inkscape:window-y="238"
     inkscape:window-maximized="0"
     inkscape:current-layer="svg73"
     inkscape:document-rotation="0"
     inkscape:pagecheckerboard="0" />
  <defs
     id="defs29">
    <inkscape:path-effect
       effect="powerclip"
       id="path-effect30"
       is_visible="true"
       lpeversion="1"
       inverse="true"
       flatten="false"
       hide_clip="false"
       message="Use fill-rule evenodd on &lt;b&gt;fill and stroke&lt;/b&gt; dialog if no flatten result after convert clip to paths." />
    <linearGradient
       id="b"
       x1="399.57"
       x2="399.57"
       y1="545.8"
       y2="517.8"
       gradientTransform="matrix(2.1429,0,0,2.1429,-826.36,-1107.5)"
       gradientUnits="userSpaceOnUse">
      <stop
         stop-color="#3889e9"
         offset="0"
         id="stop2" />
      <stop
         stop-color="#5ea5fb"
         offset="1"
         id="stop4" />
    </linearGradient>
    <linearGradient
       id="linearGradient862"
       x1="7.9373"
       x2="7.9373"
       y1="15.081"
       y2="1.852"
       gradientTransform="matrix(3.3743 0 0 3.3743 3.4312 3.4278)"
       gradientUnits="userSpaceOnUse">
      <stop
         stop-color="#f1efeb"
         offset="0"
         id="stop7" />
      <stop
         stop-color="#fff"
         offset="1"
         id="stop9" />
    </linearGradient>
    <linearGradient
       id="linearGradient910"
       x1="7.9373"
       x2="7.9373"
       y1="15.081"
       y2="1.852"
       gradientTransform="scale(3.7796)"
       gradientUnits="userSpaceOnUse">
      <stop
         stop-color="#613583"
         offset="0"
         id="stop12" />
      <stop
         stop-color="#a663c0"
         offset="1"
         id="stop14" />
    </linearGradient>
    <linearGradient
       id="linearGradient932"
       x1="379.24"
       x2="374.24"
       y1="546.85"
       y2="546.85"
       gradientTransform="matrix(2.1429 0 0 2.1429 -769.68 -1134.5)"
       gradientUnits="userSpaceOnUse">
      <stop
         stop-color="#f6f5f4"
         offset="0"
         id="stop17" />
      <stop
         stop-color="#fff"
         offset=".6"
         id="stop19" />
      <stop
         stop-color="#dddbd8"
         offset="1"
         id="stop21" />
    </linearGradient>
    <linearGradient
       id="linearGradient1146"
       x1="18"
       x2="18"
       y1="52"
       y2="12"
       gradientUnits="userSpaceOnUse">
      <stop
         stop-color="#5e337f"
         offset="0"
         id="stop24" />
      <stop
         stop-color="#ab60bf"
         offset="1"
         id="stop26" />
    </linearGradient>
    <clipPath
       clipPathUnits="userSpaceOnUse"
       id="clipPath26">
      <path
         style="display:none;opacity:0.85;fill:#ffffff;stroke-width:1.10599"
         d="m 12.966586,11.224141 v 2.446419 h 6 v -2.446419 z m 6,2.446419 v 2.446419 h 2 V 13.67056 Z m -6,0 h -2 l 0.183594,12.232094 h 1.816406 z m 0,12.232094 v 2.446419 h 6 v -2.446419 z m 6,0 h 2 v -2.446419 h -2 z m 4,-14.678513 v 17.124932 h 2 v -4.892838 h 6 v -2.446419 h -6 V 13.67056 h 6 v -2.446419 z m 8,2.446419 v 7.339256 h 2 V 13.67056 Z m 0,9.785675 v 4.892838 h 2 v -4.892838 z m 4,-12.232094 v 2.446419 h 4 v 14.678513 h 2 V 13.67056 h 4 v -2.446419 h -6 z m -24,19.571351 v 17.124932 h 10 V 30.795492 Z"
         id="path28" />
      <path
         id="lpe_path-effect30"
         style="opacity:0.85;fill:#ffffff;stroke-width:1.10599"
         class="powerclip"
         d="M -3.100733,-3.3492353 H 67.99901 V 67.147061 H -3.100733 Z M 12.966586,11.224141 v 2.446419 h 6 v -2.446419 z m 6,2.446419 v 2.446419 h 2 V 13.67056 Z m -6,0 h -2 l 0.183594,12.232094 h 1.816406 z m 0,12.232094 v 2.446419 h 6 v -2.446419 z m 6,0 h 2 v -2.446419 h -2 z m 4,-14.678513 v 17.124932 h 2 v -4.892838 h 6 v -2.446419 h -6 V 13.67056 h 6 v -2.446419 z m 8,2.446419 v 7.339256 h 2 V 13.67056 Z m 0,9.785675 v 4.892838 h 2 v -4.892838 z m 4,-12.232094 v 2.446419 h 4 v 14.678513 h 2 V 13.67056 h 4 v -2.446419 h -6 z m -24,19.571351 v 17.124932 h 10 V 30.795492 Z" />
    </clipPath>
  </defs>
  <path
     x="1.899267"
     y="1.6507647"
     width="61.099743"
     height="60.496296"
     rx="12.220437"
     ry="12.099743"
     fill="url(#linearGradient862)"
     stroke-width="4.10312"
     id="rect35"
     style="fill:#29292a;fill-opacity:1"
     clip-path="url(#clipPath26)"
     inkscape:path-effect="#path-effect30"
     d="m 14.119704,1.6507647 h 36.658869 c 6.770122,0 12.220437,5.3964853 12.220437,12.0997433 v 36.29681 c 0,6.703257 -5.450315,12.099743 -12.220437,12.099743 H 14.119704 c -6.7701221,0 -12.220437,-5.396486 -12.220437,-12.099743 v -36.29681 c 0,-6.703258 5.4503149,-12.0997433 12.220437,-12.0997433 z"
     sodipodi:type="rect" />
  <circle
     cx="32.02"
     cy="32.044"
     r="30.001"
     fill-opacity="0"
     stroke-width="1.5715"
     id="circle39" />
  <circle
     cx="32.02"
     cy="32.044"
     r="0"
     fill="url(#b)"
     stroke-width="1.5715"
     id="circle41" />
</svg>
