<?xml version="1.0" encoding="UTF-8" standalone="no"?>
<svg
   width="64"
   height="64"
   version="1.1"
   id="svg73"
   sodipodi:docname="display-im6.q16.svg"
   inkscape:version="1.1 (1:1.1+202105261517+ce6663b3b7)"
   xmlns:inkscape="http://www.inkscape.org/namespaces/inkscape"
   xmlns:sodipodi="http://sodipodi.sourceforge.net/DTD/sodipodi-0.dtd"
   xmlns="http://www.w3.org/2000/svg"
   xmlns:svg="http://www.w3.org/2000/svg"
   xmlns:rdf="http://www.w3.org/1999/02/22-rdf-syntax-ns#"
   xmlns:cc="http://creativecommons.org/ns#"
   xmlns:dc="http://purl.org/dc/elements/1.1/">
  <metadata
     id="metadata77">
    <rdf:RDF>
      <cc:Work
         rdf:about="">
        <dc:format>image/svg+xml</dc:format>
        <dc:type
           rdf:resource="http://purl.org/dc/dcmitype/StillImage" />
      </cc:Work>
    </rdf:RDF>
  </metadata>
  <sodipodi:namedview
     pagecolor="#ffffff"
     bordercolor="#666666"
     borderopacity="1"
     objecttolerance="10"
     gridtolerance="10"
     guidetolerance="10"
     inkscape:pageopacity="0"
     inkscape:pageshadow="2"
     inkscape:window-width="1920"
     inkscape:window-height="996"
     id="namedview75"
     showgrid="false"
     inkscape:zoom="12.578125"
     inkscape:cx="27.38882"
     inkscape:cy="41.540373"
     inkscape:window-x="0"
     inkscape:window-y="0"
     inkscape:window-maximized="1"
     inkscape:current-layer="svg73"
     inkscape:document-rotation="0"
     inkscape:pagecheckerboard="0" />
  <defs
     id="defs29">
    <inkscape:path-effect
       effect="powerclip"
       id="path-effect179"
       is_visible="true"
       lpeversion="1"
       inverse="true"
       flatten="false"
       hide_clip="false"
       message="Use fill-rule evenodd on &lt;b&gt;fill and stroke&lt;/b&gt; dialog if no flatten result after convert clip to paths." />
    <linearGradient
       id="b"
       x1="399.57"
       x2="399.57"
       y1="545.8"
       y2="517.8"
       gradientTransform="matrix(2.1429,0,0,2.1429,-826.36,-1107.5)"
       gradientUnits="userSpaceOnUse">
      <stop
         stop-color="#3889e9"
         offset="0"
         id="stop2" />
      <stop
         stop-color="#5ea5fb"
         offset="1"
         id="stop4" />
    </linearGradient>
    <linearGradient
       id="linearGradient862"
       x1="7.9373"
       x2="7.9373"
       y1="15.081"
       y2="1.852"
       gradientTransform="matrix(3.3743 0 0 3.3743 3.4312 3.4278)"
       gradientUnits="userSpaceOnUse">
      <stop
         stop-color="#f1efeb"
         offset="0"
         id="stop7" />
      <stop
         stop-color="#fff"
         offset="1"
         id="stop9" />
    </linearGradient>
    <linearGradient
       id="linearGradient910"
       x1="7.9373"
       x2="7.9373"
       y1="15.081"
       y2="1.852"
       gradientTransform="scale(3.7796)"
       gradientUnits="userSpaceOnUse">
      <stop
         stop-color="#613583"
         offset="0"
         id="stop12" />
      <stop
         stop-color="#a663c0"
         offset="1"
         id="stop14" />
    </linearGradient>
    <linearGradient
       id="linearGradient932"
       x1="379.24"
       x2="374.24"
       y1="546.85"
       y2="546.85"
       gradientTransform="matrix(2.1429 0 0 2.1429 -769.68 -1134.5)"
       gradientUnits="userSpaceOnUse">
      <stop
         stop-color="#f6f5f4"
         offset="0"
         id="stop17" />
      <stop
         stop-color="#fff"
         offset=".6"
         id="stop19" />
      <stop
         stop-color="#dddbd8"
         offset="1"
         id="stop21" />
    </linearGradient>
    <linearGradient
       id="linearGradient1146"
       x1="18"
       x2="18"
       y1="52"
       y2="12"
       gradientUnits="userSpaceOnUse">
      <stop
         stop-color="#5e337f"
         offset="0"
         id="stop24" />
      <stop
         stop-color="#ab60bf"
         offset="1"
         id="stop26" />
    </linearGradient>
    <clipPath
       clipPathUnits="userSpaceOnUse"
       id="clipPath175">
      <path
         id="path177"
         style="color:#000000;display:none;stroke-width:1.37326;-inkscape-stroke:none"
         d="m 37.716797,18.251953 -2.789063,4.634766 -5.269531,0.310547 2.896485,5.009765 -1.556641,5.433594 5.556641,-1.978516 4.152343,2.939453 0.08594,-5.605468 3.914062,-3.453125 -5.076172,-2.003907 z m -13.109375,10.933594 -3.292969,4.216797 -5.261719,-0.4375 2.292969,5.380859 -2.162109,5.167969 5.742187,-1.183594 3.773438,3.488281 0.728515,-5.542968 4.277344,-2.873047 -4.804687,-2.707032 z m 10.630859,3.503906 -1.417969,5.347656 -4.951171,2.013672 4.115234,3.833985 -0.03125,5.699218 4.773437,-3.710937 4.75,1.439453 -1.417968,-5.380859 2.804687,-4.576172 -5.384765,-0.257813 z" />
      <path
         id="lpe_path-effect179"
         style="color:#000000;stroke-width:1.37326;-inkscape-stroke:none"
         class="powerclip"
         d="M 0.3085342,-2.4186429 H 64.034868 V 66.333206 H 0.3085342 Z m 37.4082628,20.6705959 -2.789063,4.634766 -5.269531,0.310547 2.896485,5.009765 -1.556641,5.433594 5.556641,-1.978516 4.152343,2.939453 0.08594,-5.605468 3.914062,-3.453125 -5.076172,-2.003907 z m -13.109375,10.933594 -3.292969,4.216797 -5.261719,-0.4375 2.292969,5.380859 -2.162109,5.167969 5.742187,-1.183594 3.773438,3.488281 0.728515,-5.542968 4.277344,-2.873047 -4.804687,-2.707032 z m 10.630859,3.503906 -1.417969,5.347656 -4.951171,2.013672 4.115234,3.833985 -0.03125,5.699218 4.773437,-3.710937 4.75,1.439453 -1.417968,-5.380859 2.804687,-4.576172 -5.384765,-0.257813 z" />
    </clipPath>
  </defs>
  <circle
     cx="32.02"
     cy="32.044"
     r="30.001"
     fill-opacity="0"
     stroke-width="1.5715"
     id="circle39" />
  <circle
     cx="32.02"
     cy="32.044"
     r="0"
     fill="url(#b)"
     stroke-width="1.5715"
     id="circle41" />
  <path
     style="fill:#29292a;stroke-width:0.936359"
     d="M 37.04756,2.9577945 C 31.922834,3.7388728 26.41576,6.6849841 21.935745,15.401277 11.692382,35.318917 12.419829,42.251218 10.787282,44.491488 c -1.6386741,2.23087 -6.0547181,3.441672 -5.4160988,5.977643 1.0855475,2.379111 1.4620594,2.643281 1.4620594,2.643281 0,0 6.2705164,10.591149 24.9735444,7.730498 18.70195,-2.860653 21.295117,-7.522724 21.124985,-9.836625 -0.16945,-2.316446 -4.116292,-4.005461 -4.116292,-4.005461 0,0 -2.921967,-12.16521 -2.171776,-17.159404 0.750121,-4.996547 3.599809,-12.277618 6.416296,-13.844631 2.808247,-1.581682 4.213533,5.291853 5.666102,3.595396 C 60.173116,17.892401 56.320976,7.8850163 51.616385,4.9027552 47.851997,2.1055523 43.702575,2.3746193 37.047739,2.9687617"
     id="path4"
     clip-path="url(#clipPath175)"
     inkscape:path-effect="#path-effect179"
     inkscape:original-d="M 37.04756,2.9577945 C 31.922834,3.7388728 26.41576,6.6849841 21.935745,15.401277 11.692382,35.318917 12.419829,42.251218 10.787282,44.491488 c -1.6386741,2.23087 -6.0547181,3.441672 -5.4160988,5.977643 1.0855475,2.379111 1.4620594,2.643281 1.4620594,2.643281 0,0 6.2705164,10.591149 24.9735444,7.730498 18.70195,-2.860653 21.295117,-7.522724 21.124985,-9.836625 -0.16945,-2.316446 -4.116292,-4.005461 -4.116292,-4.005461 0,0 -2.921967,-12.16521 -2.171776,-17.159404 0.750121,-4.996547 3.599809,-12.277618 6.416296,-13.844631 2.808247,-1.581682 4.213533,5.291853 5.666102,3.595396 C 60.173116,17.892401 56.320976,7.8850163 51.616385,4.9027552 47.851997,2.1055523 43.702575,2.3746193 37.047739,2.9687617" />
  <g
     style="opacity:0.85;fill:#ffffff"
     transform="matrix(1.3571854,0,0,1.3895349,-0.31981126,-0.65775463)"
     id="g20" />
</svg>
