<?xml version="1.0" encoding="UTF-8" standalone="no"?>
<svg
   width="64"
   height="64"
   version="1"
   id="svg12"
   sodipodi:docname="eu.tiliado.NuvolaAppSoundcloud.svg"
   inkscape:version="1.1 (1:1.1+202105261517+ce6663b3b7)"
   xmlns:inkscape="http://www.inkscape.org/namespaces/inkscape"
   xmlns:sodipodi="http://sodipodi.sourceforge.net/DTD/sodipodi-0.dtd"
   xmlns="http://www.w3.org/2000/svg"
   xmlns:svg="http://www.w3.org/2000/svg">
  <defs
     id="defs16" />
  <sodipodi:namedview
     id="namedview14"
     pagecolor="#ffffff"
     bordercolor="#666666"
     borderopacity="1.0"
     inkscape:pageshadow="2"
     inkscape:pageopacity="0.0"
     inkscape:pagecheckerboard="0"
     showgrid="false"
     inkscape:zoom="12.859375"
     inkscape:cx="32"
     inkscape:cy="25.778858"
     inkscape:window-width="1920"
     inkscape:window-height="996"
     inkscape:window-x="0"
     inkscape:window-y="0"
     inkscape:window-maximized="1"
     inkscape:current-layer="svg12" />
  <path
     style="fill:#29292a;stroke-width:1.50622"
     d="m 1.8178116,35.278007 c -0.1280649,0 -0.2296246,0.120798 -0.2463658,0.293179 l -0.4486481,4.159925 0.4489275,4.088369 c 0.016741,0.172317 0.1180215,0.292366 0.2463658,0.292366 0.1241591,0 0.2251612,-0.119208 0.2449711,-0.290772 l 0.5321001,-4.089996 -0.5321001,-4.1609 C 2.0435269,35.398642 1.9416924,35.27778 1.818091,35.27778 Z M 4.3421279,33.00514 c -0.022318,-0.178821 -0.1261126,-0.302026 -0.2555734,-0.302026 -0.1300184,0 -0.237717,0.12727 -0.2555734,0.302026 0,0.0021 -0.6033586,6.726133 -0.6033586,6.726133 l 0.6033586,6.577169 c 0.016741,0.176414 0.1247179,0.303587 0.2555734,0.303587 0.1286238,0 0.23381,-0.123979 0.2547364,-0.30196 l 0.6865323,-6.578796 z m 9.5086641,-6.20411 c -0.247483,0 -0.452192,0.247254 -0.464078,0.561379 l -0.480567,12.374393 0.480567,7.996878 c 0.01111,0.312532 0.216512,0.558971 0.464078,0.558971 0.246366,0 0.450211,-0.247188 0.464747,-0.560532 v 0.0052 l 0.543232,-7.997853 -0.543232,-12.375693 c -0.01395,-0.315492 -0.218464,-0.56268 -0.464831,-0.56268 z m -4.9211805,4.303034 c -0.190006,0 -0.3452472,0.18523 -0.3604252,0.432516 l -0.5413078,8.199181 0.5413078,7.932479 c 0.013947,0.24566 0.1701959,0.430921 0.3604252,0.430921 0.1880536,0 0.3432667,-0.185228 0.3597834,-0.430921 L 9.9046125,39.735761 9.2893949,31.534953 c -0.016462,-0.247189 -0.1715907,-0.43258 -0.3596431,-0.43258 z m 9.9224365,17.190019 c 0.306967,0 0.556513,-0.302026 0.569041,-0.688616 l 0.471332,-7.86255 -0.470663,-16.474797 c -0.01111,-0.386591 -0.26199,-0.688616 -0.56904,-0.688616 -0.30959,0 -0.559778,0.302839 -0.569684,0.689429 0,0.001 -0.417873,16.473171 -0.417873,16.473171 l 0.417873,7.865477 c 0.01111,0.383468 0.260038,0.686275 0.569014,0.686275 z m 10.238554,0.0366 c 0.422506,0 0.771045,-0.424448 0.778969,-0.946341 v 0.0052 -0.0052 l 0.328757,-7.636835 -0.328757,-19.02702 c -0.0084,-0.521113 -0.356463,-0.946342 -0.778969,-0.946342 -0.423119,0 -0.772328,0.424449 -0.77894,0.947155 l -0.293741,19.01986 c 0,0.01205 0.293741,7.648213 0.293741,7.648213 0.0056,0.517079 0.356463,0.941527 0.77894,0.941527 z m -5.158338,-0.02992 c 0.367707,0 0.664099,-0.360049 0.674004,-0.81917 v 0.0052 L 25.006312,39.743609 24.605599,23.14977 c -0.01111,-0.459087 -0.306298,-0.818291 -0.673977,-0.818291 -0.370331,0 -0.666722,0.359204 -0.674646,0.818291 l -0.355822,16.594814 0.356464,7.741559 c 0.0084,0.454177 0.304343,0.814226 0.674674,0.814226 z m -12.551548,-0.07244 c 0.218464,0 0.395413,-0.213362 0.411902,-0.494442 l 0.579783,-7.997853 -0.579504,-7.610809 C 11.776156,31.844135 11.6001,31.6323 11.380994,31.6323 c -0.221813,0 -0.398733,0.21346 -0.4126,0.496133 l -0.510281,7.605605 0.510281,7.997853 c 0.01395,0.28186 0.190843,0.495255 0.4126,0.495255 z m -4.8821194,-0.43909 c 0.159873,0 0.2891386,-0.153778 0.3076368,-0.366426 L 7.457164,39.733941 6.8067911,31.755602 c -0.019535,-0.214664 -0.1484337,-0.367531 -0.3083056,-0.367531 -0.1618266,0 -0.2911191,0.154655 -0.3076088,0.36727 0,10e-4 -0.5730037,7.979965 -0.5730037,7.979965 l 0.5730878,7.688868 c 0.016741,0.21346 0.1453637,0.368051 0.3076077,0.368051 z M 26.501946,22.872943 c -0.399374,0 -0.719539,0.387403 -0.727463,0.883537 l -0.324767,15.988226 0.324767,7.693421 c 0.0084,0.489726 0.327419,0.877065 0.727463,0.877065 0.398734,0 0.716917,-0.386591 0.726152,-0.882692 v 0.0072 L 27.592485,39.746278 27.228098,23.756426 C 27.219698,23.261854 26.90068,22.87445 26.501946,22.87445 Z M 16.343189,48.310605 c 0.275941,0 0.503669,-0.274607 0.516894,-0.624997 l 0.506961,-7.943862 -0.506961,-15.204703 c -0.01395,-0.351138 -0.241064,-0.624997 -0.516894,-0.624997 -0.278452,0 -0.50565,0.27464 -0.517536,0.624997 0,10e-4 -0.448899,15.204703 -0.448899,15.204703 l 0.449569,7.947115 c 0.01111,0.347137 0.238275,0.621744 0.516866,0.621744 z m 5.661394,-0.749761 v -0.0052 l 0.435674,-7.812462 -0.435674,-17.02967 c -0.01111,-0.422823 -0.283865,-0.754674 -0.621188,-0.754674 -0.339305,0 -0.612595,0.331038 -0.621858,0.754674 l -0.38682,17.028695 0.38749,7.816689 c 0.0084,0.418823 0.282553,0.749828 0.621188,0.749828 0.337993,0 0.609972,-0.331005 0.621188,-0.752299 v 0.0052 z M 54.955675,29.927836 c -1.034402,0 -2.021317,0.25532 -2.920398,0.715189 -0.600737,-8.302286 -6.306745,-14.81473 -13.26721,-14.81473 -1.703133,0 -3.363466,0.409161 -4.829385,1.100997 -0.569711,0.269012 -0.721521,0.546092 -0.726821,1.083305 v 29.236561 c 0.0056,0.563784 0.364414,1.033314 0.815267,1.088833 0.01954,0.0052 20.793506,0.01528 20.927989,0.01528 4.169527,0 7.550013,-4.124472 7.550013,-9.21233 0,-5.087858 -3.379928,-9.212981 -7.549176,-9.212981 z M 31.668377,17.987325 c -0.453503,0 -0.825815,0.454241 -0.832427,1.0124 l -0.340615,20.751486 0.341285,7.531448 c 0.0056,0.550091 0.378254,1.003553 0.831757,1.003553 0.452191,0 0.824503,-0.453494 0.831115,-1.01162 v 0.0091 l 0.37033,-7.532062 -0.37033,-20.753113 c -0.0056,-0.556532 -0.378924,-1.010773 -0.831115,-1.010773 z"
     id="path10" />
</svg>
