<?xml version="1.0" encoding="UTF-8" standalone="no"?>
<svg
   width="64"
   height="64"
   version="1"
   id="svg12"
   sodipodi:docname="evernote.svg"
   inkscape:version="1.1 (1:1.1+202105261517+ce6663b3b7)"
   xmlns:inkscape="http://www.inkscape.org/namespaces/inkscape"
   xmlns:sodipodi="http://sodipodi.sourceforge.net/DTD/sodipodi-0.dtd"
   xmlns="http://www.w3.org/2000/svg"
   xmlns:svg="http://www.w3.org/2000/svg">
  <defs
     id="defs16">
    <inkscape:path-effect
       effect="powerclip"
       id="path-effect262"
       is_visible="true"
       lpeversion="1"
       inverse="true"
       flatten="false"
       hide_clip="false"
       message="Use fill-rule evenodd on &lt;b&gt;fill and stroke&lt;/b&gt; dialog if no flatten result after convert clip to paths." />
    <clipPath
       clipPathUnits="userSpaceOnUse"
       id="clipPath258">
      <path
         style="display:none;fill:#ffffff"
         d="m 48.000484,31.999837 h -6.000072 c 0,-2.209227 1.343156,-4.000048 3.000036,-4.000048 1.65688,0 3.000036,1.790881 3.000036,4.000048 z"
         id="path260" />
      <path
         id="lpe_path-effect262"
         style="fill:#ffffff"
         class="powerclip"
         d="M 3.0000002,-1.0005867 H 61 V 64.999776 H 3.0000002 Z M 48.000484,31.999837 c 0,-2.209167 -1.343156,-4.000048 -3.000036,-4.000048 -1.65688,0 -3.000036,1.790821 -3.000036,4.000048 z" />
    </clipPath>
  </defs>
  <sodipodi:namedview
     id="namedview14"
     pagecolor="#ffffff"
     bordercolor="#666666"
     borderopacity="1.0"
     inkscape:pageshadow="2"
     inkscape:pageopacity="0.0"
     inkscape:pagecheckerboard="0"
     showgrid="false"
     inkscape:zoom="12.859375"
     inkscape:cx="32"
     inkscape:cy="25.778858"
     inkscape:window-width="1920"
     inkscape:window-height="996"
     inkscape:window-x="0"
     inkscape:window-y="0"
     inkscape:window-maximized="1"
     inkscape:current-layer="svg12" />
  <path
     style="fill:#29292a"
     d="m 28.184244,4.0052983 c -1.862022,-0.0396 -3.478042,0.1270015 -4.14005,0.3090037 -1.042012,0.2776034 -2.606031,0.8686105 -3.244039,1.7692214 -0.434005,0.6042073 -0.80001,1.3798167 -0.80001,2.4554297 0.016,2.0300249 -0.0258,3.7100449 0,5.7566699 0,1.142414 -0.395404,1.67842 -1.571419,1.70502 h -5.385865 c -1.151574,0 -2.026024,-0.0252 -2.690832,0.270204 -0.6720085,0.303803 -1.1508143,0.695608 -1.5082186,1.175814 -0.7248088,0.943611 -0.8438102,2.703033 -0.8438102,3.889047 0,0 0.00804,0.950611 0.248183,2.835034 0.2040024,1.462998 1.8138218,11.607541 3.3474408,14.678978 0.595187,1.201214 0.989792,1.6982 2.155826,2.227427 3.36024,0.781409 15.173183,4.710857 16.456399,2.004224 1.050473,-2.749033 1.573579,-7.284088 1.792062,-9.08211 0,1.213815 0.187762,6.123074 3.501242,7.275288 1.312936,0.452206 4.020649,0.852611 6.780682,1.164814 2.49803,0.278004 3.718045,1.236015 3.718045,7.490091 0,3.802046 -0.232003,4.070049 -4.500054,4.070049 -3.854047,0 -5.500067,0 -5.500067,-2.000024 0,-2.000024 1.176534,-2.000024 4.000048,-2.000024 v -3.999849 c -5.647068,0 -8.000496,0 -8.000496,6.58988 0,6.010273 2.287027,7.41029 10.287524,7.41029 6.273876,0 8.487503,-0.210003 11.076734,-8.047298 0.511046,-1.549798 1.760461,-6.276276 2.50863,-14.218372 0.470006,-5.01406 -0.454005,-20.156244 -1.188014,-23.99429 v -0.0056 C 54.25818,11.496789 52.906164,10.402976 51.668149,9.9665704 50.340132,9.4953647 47.6461,9.021759 44.270059,8.6321543 41.542026,8.3147504 37.933982,7.9389459 35.999959,7.9997466 c 0,-1.4000169 -0.932011,-2.562031 -2.178026,-3.059037 -1.66002,-0.6462078 -3.774046,-0.8954108 -5.638069,-0.9352113 z"
     id="path4"
     clip-path="url(#clipPath258)"
     inkscape:path-effect="#path-effect262"
     inkscape:original-d="m 28.184244,4.0052983 c -1.862022,-0.0396 -3.478042,0.1270015 -4.14005,0.3090037 -1.042012,0.2776034 -2.606031,0.8686105 -3.244039,1.7692214 -0.434005,0.6042073 -0.80001,1.3798167 -0.80001,2.4554297 0.016,2.0300249 -0.0258,3.7100449 0,5.7566699 0,1.142414 -0.395404,1.67842 -1.571419,1.70502 h -5.385865 c -1.151574,0 -2.026024,-0.0252 -2.690832,0.270204 -0.6720085,0.303803 -1.1508143,0.695608 -1.5082186,1.175814 -0.7248088,0.943611 -0.8438102,2.703033 -0.8438102,3.889047 0,0 0.00804,0.950611 0.248183,2.835034 0.2040024,1.462998 1.8138218,11.607541 3.3474408,14.678978 0.595187,1.201214 0.989792,1.6982 2.155826,2.227427 3.36024,0.781409 15.173183,4.710857 16.456399,2.004224 1.050473,-2.749033 1.573579,-7.284088 1.792062,-9.08211 0,1.213815 0.187762,6.123074 3.501242,7.275288 1.312936,0.452206 4.020649,0.852611 6.780682,1.164814 2.49803,0.278004 3.718045,1.236015 3.718045,7.490091 0,3.802046 -0.232003,4.070049 -4.500054,4.070049 -3.854047,0 -5.500067,0 -5.500067,-2.000024 0,-2.000024 1.176534,-2.000024 4.000048,-2.000024 v -3.999849 c -5.647068,0 -8.000496,0 -8.000496,6.58988 0,6.010273 2.287027,7.41029 10.287524,7.41029 6.273876,0 8.487503,-0.210003 11.076734,-8.047298 0.511046,-1.549798 1.760461,-6.276276 2.50863,-14.218372 0.470006,-5.01406 -0.454005,-20.156244 -1.188014,-23.99429 v -0.0056 C 54.25818,11.496789 52.906164,10.402976 51.668149,9.9665704 50.340132,9.4953647 47.6461,9.021759 44.270059,8.6321543 41.542026,8.3147504 37.933982,7.9389459 35.999959,7.9997466 c 0,-1.4000169 -0.932011,-2.562031 -2.178026,-3.059037 -1.66002,-0.6462078 -3.774046,-0.8954108 -5.638069,-0.9352113 z"
     transform="matrix(1.0922801,0,0,1.0878642,-2.9802528,-2.9045859)" />
</svg>
