<?xml version="1.0" encoding="UTF-8" standalone="no"?>
<svg
   width="64"
   height="64"
   version="1.1"
   id="svg73"
   sodipodi:docname="evolution-calendar.svg"
   inkscape:version="1.1 (1:1.1+202105261517+ce6663b3b7)"
   xmlns:inkscape="http://www.inkscape.org/namespaces/inkscape"
   xmlns:sodipodi="http://sodipodi.sourceforge.net/DTD/sodipodi-0.dtd"
   xmlns:xlink="http://www.w3.org/1999/xlink"
   xmlns="http://www.w3.org/2000/svg"
   xmlns:svg="http://www.w3.org/2000/svg"
   xmlns:rdf="http://www.w3.org/1999/02/22-rdf-syntax-ns#"
   xmlns:cc="http://creativecommons.org/ns#"
   xmlns:dc="http://purl.org/dc/elements/1.1/">
  <metadata
     id="metadata77">
    <rdf:RDF>
      <cc:Work
         rdf:about="">
        <dc:format>image/svg+xml</dc:format>
        <dc:type
           rdf:resource="http://purl.org/dc/dcmitype/StillImage" />
        <dc:title />
      </cc:Work>
    </rdf:RDF>
  </metadata>
  <sodipodi:namedview
     pagecolor="#ffffff"
     bordercolor="#666666"
     borderopacity="1"
     objecttolerance="10"
     gridtolerance="10"
     guidetolerance="10"
     inkscape:pageopacity="0"
     inkscape:pageshadow="2"
     inkscape:window-width="1920"
     inkscape:window-height="996"
     id="namedview75"
     showgrid="false"
     inkscape:zoom="12.578125"
     inkscape:cx="32"
     inkscape:cy="32"
     inkscape:window-x="0"
     inkscape:window-y="0"
     inkscape:window-maximized="1"
     inkscape:current-layer="svg73"
     inkscape:document-rotation="0"
     inkscape:pagecheckerboard="0" />
  <defs
     id="defs29">
    <inkscape:path-effect
       effect="powerclip"
       id="path-effect1774"
       is_visible="true"
       lpeversion="1"
       inverse="true"
       flatten="false"
       hide_clip="false"
       message="Use fill-rule evenodd on &lt;b&gt;fill and stroke&lt;/b&gt; dialog if no flatten result after convert clip to paths." />
    <linearGradient
       id="b"
       x1="399.57"
       x2="399.57"
       y1="545.8"
       y2="517.8"
       gradientTransform="matrix(2.1429,0,0,2.1429,-826.36,-1107.5)"
       gradientUnits="userSpaceOnUse">
      <stop
         stop-color="#3889e9"
         offset="0"
         id="stop2" />
      <stop
         stop-color="#5ea5fb"
         offset="1"
         id="stop4" />
    </linearGradient>
    <linearGradient
       id="linearGradient862"
       x1="7.9373"
       x2="7.9373"
       y1="15.081"
       y2="1.852"
       gradientTransform="matrix(3.3743 0 0 3.3743 3.4312 3.4278)"
       gradientUnits="userSpaceOnUse">
      <stop
         stop-color="#f1efeb"
         offset="0"
         id="stop7" />
      <stop
         stop-color="#fff"
         offset="1"
         id="stop9" />
    </linearGradient>
    <linearGradient
       id="linearGradient910"
       x1="7.9373"
       x2="7.9373"
       y1="15.081"
       y2="1.852"
       gradientTransform="scale(3.7796)"
       gradientUnits="userSpaceOnUse">
      <stop
         stop-color="#613583"
         offset="0"
         id="stop12" />
      <stop
         stop-color="#a663c0"
         offset="1"
         id="stop14" />
    </linearGradient>
    <linearGradient
       id="linearGradient932"
       x1="379.24"
       x2="374.24"
       y1="546.85"
       y2="546.85"
       gradientTransform="matrix(2.1429 0 0 2.1429 -769.68 -1134.5)"
       gradientUnits="userSpaceOnUse">
      <stop
         stop-color="#f6f5f4"
         offset="0"
         id="stop17" />
      <stop
         stop-color="#fff"
         offset=".6"
         id="stop19" />
      <stop
         stop-color="#dddbd8"
         offset="1"
         id="stop21" />
    </linearGradient>
    <linearGradient
       id="linearGradient1146"
       x1="18"
       x2="18"
       y1="52"
       y2="12"
       gradientUnits="userSpaceOnUse">
      <stop
         stop-color="#5e337f"
         offset="0"
         id="stop24" />
      <stop
         stop-color="#ab60bf"
         offset="1"
         id="stop26" />
    </linearGradient>
    <linearGradient
       id="linearGradient978"
       x1="8.2018995"
       x2="8.2018995"
       y1="10.848"
       y2="6.3498998"
       gradientTransform="scale(0.26458)"
       gradientUnits="userSpaceOnUse">
      <stop
         stop-color="#f24236"
         offset="0"
         id="stop26-3" />
      <stop
         stop-color="#fe6b62"
         offset="1"
         id="stop28" />
    </linearGradient>
    <radialGradient
       id="radialGradient988"
       cx="2.5158999"
       cy="8.4665003"
       r="1.0583"
       gradientTransform="matrix(6.3810342,0,0,6.2620721,-35.869661,-13.117617)"
       gradientUnits="userSpaceOnUse"
       xlink:href="#linearGradient986" />
    <linearGradient
       id="linearGradient986">
      <stop
         offset="0"
         id="stop2-6" />
      <stop
         stop-opacity="0"
         offset="1"
         id="stop4-7" />
    </linearGradient>
    <linearGradient
       id="linearGradient929"
       x1="2.5239999"
       x2="2.5239999"
       y1="7.1436"
       y2="9.7894001"
       gradientUnits="userSpaceOnUse">
      <stop
         offset="0"
         id="stop9-5" />
      <stop
         stop-color="#ececec"
         offset=".2"
         id="stop11" />
      <stop
         stop-color="#fff"
         offset=".37829"
         id="stop13" />
      <stop
         stop-color="#c2c2c2"
         offset=".52602"
         id="stop15" />
      <stop
         stop-color="#1a1a1a"
         offset=".58468"
         id="stop17-3" />
      <stop
         stop-color="#fff"
         offset=".66476"
         id="stop19-5" />
      <stop
         stop-color="#999"
         offset=".88282"
         id="stop21-6" />
      <stop
         offset="1"
         id="stop23" />
    </linearGradient>
    <radialGradient
       id="radialGradient992"
       cx="2.5158999"
       cy="8.4665003"
       r="1.0583"
       gradientTransform="matrix(6.3810342,0,0,6.2620721,74.719526,-10.692409)"
       gradientUnits="userSpaceOnUse"
       xlink:href="#linearGradient986" />
    <linearGradient
       id="linearGradient912"
       x1="30"
       x2="30"
       y1="32"
       y2="14"
       gradientTransform="matrix(0.89430625,0,0,1.0000071,3.4604074,3.0836702)"
       gradientUnits="userSpaceOnUse"
       xlink:href="#linearGradient986" />
    <clipPath
       clipPathUnits="userSpaceOnUse"
       id="clipPath1770">
      <path
         id="path1772"
         style="display:none;fill:#f2f2f2;stroke-width:0.759522"
         d="m 23.419922,21.945312 c -1.553853,10e-7 -2.89307,0.270762 -4.017578,0.8125 -1.12448,0.521673 -2.126695,1.142926 -3.00586,1.865235 l 1.748047,2.138672 c 0.858717,-0.682176 1.687001,-1.205238 2.484375,-1.566407 0.797374,-0.361168 1.695443,-0.541015 2.697266,-0.541015 1.042718,0 1.892635,0.279991 2.546875,0.841797 0.65424,0.561805 0.980469,1.385272 0.980469,2.46875 0,0.882841 -0.182752,1.704355 -0.550782,2.466797 -0.368029,0.742375 -0.920219,1.525014 -1.65625,2.347656 -0.736031,0.802575 -1.657658,1.755831 -2.761718,2.859375 l -5.642578,5.628906 v 2.466797 H 30.962891 V 40.90625 H 20.322266 v -0.150391 l 4.078125,-3.882812 c 1.165375,-1.103544 2.178392,-2.136531 3.037109,-3.099609 0.858717,-0.963079 1.521948,-1.925594 1.992188,-2.888672 0.470239,-0.983174 0.705078,-2.047757 0.705078,-3.191407 0,-1.745643 -0.602323,-3.140249 -1.808594,-4.183593 -1.185908,-1.043345 -2.820815,-1.564453 -4.90625,-1.564454 z m 20.76172,0.03125 c -1.696958,10e-7 -3.149199,0.241117 -4.35547,0.722657 -1.185823,0.461473 -2.166433,1.10314 -2.94336,1.925781 -0.776926,0.822641 -1.392004,1.775897 -1.841796,2.859375 -0.429365,1.063411 -0.735913,2.205772 -0.919922,3.429687 -0.163565,1.203849 -0.244141,2.427894 -0.244141,3.671876 0,2.146805 0.337031,3.923639 1.011719,5.328124 0.674688,1.384447 1.583559,2.417434 2.728516,3.09961 1.165375,0.682176 2.454486,1.023437 3.865234,1.023437 2.187788,0 3.914028,-0.641666 5.181641,-1.925781 1.288062,-1.304069 1.933594,-3.090162 1.933594,-5.357422 0,-2.106783 -0.582671,-3.731351 -1.748047,-4.875 -1.145012,-1.163715 -2.668877,-1.746093 -4.570312,-1.746094 -1.288063,10e-7 -2.340383,0.241117 -3.158204,0.722657 -0.817822,0.481539 -1.452552,1.082378 -1.902344,1.804687 h -0.183594 c 0.06134,-1.12361 0.215591,-2.177011 0.460938,-3.160156 0.245343,-0.983145 0.63248,-1.845515 1.164062,-2.587891 0.531583,-0.742375 1.257703,-1.324753 2.177735,-1.746093 0.920031,-0.42134 2.085347,-0.63086 3.496094,-0.63086 0.981375,0 1.859793,0.120556 2.636719,0.361328 v -2.679687 c -0.368001,-0.08026 -0.816073,-0.13956 -1.347656,-0.179688 -0.531583,-0.04013 -1.012062,-0.06055 -1.441406,-0.06055 z M 7.0957032,27.46875 c -0.9352894,0 -1.6875,0.738355 -1.6875,1.65625 v 7.732422 c 0,0.917894 0.7522106,1.65625 1.6875,1.65625 0.9353322,0 1.6875,-0.738356 1.6875,-1.65625 V 29.125 c 0,-0.917895 -0.7522109,-1.65625 -1.6875,-1.65625 z m 50.6484388,0 c -0.93529,0 -1.6875,0.738355 -1.6875,1.65625 v 7.732422 c 0,0.917894 0.75221,1.65625 1.6875,1.65625 0.935332,0 1.6875,-0.738356 1.6875,-1.65625 V 29.125 c 0,-0.917895 -0.752211,-1.65625 -1.6875,-1.65625 z m -16.201173,5.162109 c 1.288062,0 2.248992,0.370906 2.882813,1.113282 0.654269,0.742375 0.982422,1.745717 0.982422,3.009765 0,1.585084 -0.369438,2.759043 -1.105469,3.521485 -0.736059,0.742375 -1.686187,1.113281 -2.851563,1.113281 -0.94048,0 -1.727507,-0.250347 -2.361328,-0.751953 -0.633793,-0.521673 -1.114272,-1.174523 -1.441406,-1.957031 -0.327135,-0.782509 -0.490235,-1.585562 -0.490235,-2.408204 0,-0.581844 0.184705,-1.153038 0.552735,-1.714843 0.368029,-0.561778 0.878962,-1.023598 1.533203,-1.384766 0.65424,-0.361168 1.419663,-0.541016 2.298828,-0.541016 z" />
      <path
         id="lpe_path-effect1774"
         style="fill:#f2f2f2;stroke-width:0.759522"
         class="powerclip"
         d="M -0.5205822,-0.56698227 H 65.753237 V 64.657722 H -0.5205822 Z M 23.419922,21.945312 c -1.553853,10e-7 -2.89307,0.270762 -4.017578,0.8125 -1.12448,0.521673 -2.126695,1.142926 -3.00586,1.865235 l 1.748047,2.138672 c 0.858717,-0.682176 1.687001,-1.205238 2.484375,-1.566407 0.797374,-0.361168 1.695443,-0.541015 2.697266,-0.541015 1.042718,0 1.892635,0.279991 2.546875,0.841797 0.65424,0.561805 0.980469,1.385272 0.980469,2.46875 0,0.882841 -0.182752,1.704355 -0.550782,2.466797 -0.368029,0.742375 -0.920219,1.525014 -1.65625,2.347656 -0.736031,0.802575 -1.657658,1.755831 -2.761718,2.859375 l -5.642578,5.628906 v 2.466797 H 30.962891 V 40.90625 H 20.322266 v -0.150391 l 4.078125,-3.882812 c 1.165375,-1.103544 2.178392,-2.136531 3.037109,-3.099609 0.858717,-0.963079 1.521948,-1.925594 1.992188,-2.888672 0.470239,-0.983174 0.705078,-2.047757 0.705078,-3.191407 0,-1.745643 -0.602323,-3.140249 -1.808594,-4.183593 -1.185908,-1.043345 -2.820815,-1.564453 -4.90625,-1.564454 z m 20.76172,0.03125 c -1.696958,10e-7 -3.149199,0.241117 -4.35547,0.722657 -1.185823,0.461473 -2.166433,1.10314 -2.94336,1.925781 -0.776926,0.822641 -1.392004,1.775897 -1.841796,2.859375 -0.429365,1.063411 -0.735913,2.205772 -0.919922,3.429687 -0.163565,1.203849 -0.244141,2.427894 -0.244141,3.671876 0,2.146805 0.337031,3.923639 1.011719,5.328124 0.674688,1.384447 1.583559,2.417434 2.728516,3.09961 1.165375,0.682176 2.454486,1.023437 3.865234,1.023437 2.187788,0 3.914028,-0.641666 5.181641,-1.925781 1.288062,-1.304069 1.933594,-3.090162 1.933594,-5.357422 0,-2.106783 -0.582671,-3.731351 -1.748047,-4.875 -1.145012,-1.163715 -2.668877,-1.746093 -4.570312,-1.746094 -1.288063,10e-7 -2.340383,0.241117 -3.158204,0.722657 -0.817822,0.481539 -1.452552,1.082378 -1.902344,1.804687 h -0.183594 c 0.06134,-1.12361 0.215591,-2.177011 0.460938,-3.160156 0.245343,-0.983145 0.63248,-1.845515 1.164062,-2.587891 0.531583,-0.742375 1.257703,-1.324753 2.177735,-1.746093 0.920031,-0.42134 2.085347,-0.63086 3.496094,-0.63086 0.981375,0 1.859793,0.120556 2.636719,0.361328 v -2.679687 c -0.368001,-0.08026 -0.816073,-0.13956 -1.347656,-0.179688 -0.531583,-0.04013 -1.012062,-0.06055 -1.441406,-0.06055 z M 7.0957032,27.46875 c -0.9352894,0 -1.6875,0.738355 -1.6875,1.65625 v 7.732422 c 0,0.917894 0.7522106,1.65625 1.6875,1.65625 0.9353322,0 1.6875,-0.738356 1.6875,-1.65625 V 29.125 c 0,-0.917895 -0.7522109,-1.65625 -1.6875,-1.65625 z m 50.6484388,0 c -0.93529,0 -1.6875,0.738355 -1.6875,1.65625 v 7.732422 c 0,0.917894 0.75221,1.65625 1.6875,1.65625 0.935332,0 1.6875,-0.738356 1.6875,-1.65625 V 29.125 c 0,-0.917895 -0.752211,-1.65625 -1.6875,-1.65625 z m -16.201173,5.162109 c -0.879165,0 -1.644588,0.179848 -2.298828,0.541016 -0.654241,0.361168 -1.165174,0.822988 -1.533203,1.384766 -0.36803,0.561805 -0.552735,1.132999 -0.552735,1.714843 0,0.822642 0.1631,1.625695 0.490235,2.408204 0.327134,0.782508 0.807613,1.435358 1.441406,1.957031 0.633821,0.501606 1.420848,0.751953 2.361328,0.751953 1.165376,0 2.115504,-0.370906 2.851563,-1.113281 0.736031,-0.762442 1.105469,-1.936401 1.105469,-3.521485 0,-1.264048 -0.328153,-2.26739 -0.982422,-3.009765 -0.633821,-0.742376 -1.594751,-1.113282 -2.882813,-1.113282 z" />
    </clipPath>
  </defs>
  <path
     x="4.4794178"
     y="4.4330177"
     width="56.273819"
     height="55.224705"
     rx="11.255214"
     ry="11.045382"
     fill="url(#linearGradient862)"
     stroke-width="3.76228"
     id="rect35"
     style="fill:#29292a;fill-opacity:1"
     sodipodi:type="rect"
     clip-path="url(#clipPath1770)"
     inkscape:path-effect="#path-effect1774"
     d="m 15.734632,4.4330177 h 33.763391 c 6.235388,0 11.255214,4.9262402 11.255214,11.0453813 v 33.133942 c 0,6.119141 -5.019826,11.045381 -11.255214,11.045381 H 15.734632 c -6.2353889,0 -11.2552142,-4.92624 -11.2552142,-11.045381 V 15.478399 c 0,-6.1191411 5.0198253,-11.0453813 11.2552142,-11.0453813 z" />
  <circle
     cx="32.02"
     cy="32.044"
     r="30.001"
     fill-opacity="0"
     stroke-width="1.5715"
     id="circle39" />
  <circle
     cx="32.02"
     cy="32.044"
     r="0"
     fill="url(#b)"
     stroke-width="1.5715"
     id="circle41" />
  <g
     fill="url(#linearGradient978)"
     stroke-width="0.18023"
     aria-label="26"
     id="g55"
     transform="matrix(4.2540229,0,0,4.1747148,-3.5968928,-2.3537215)"
     style="opacity:0.85;fill:#f2f2f2" />
  <g
     transform="matrix(4.2540229,0,0,4.1747148,47.051503,-2.3537215)"
     id="g71"
     style="opacity:0.85;fill:#f2f2f2" />
</svg>
