<?xml version="1.0" encoding="UTF-8" standalone="no"?>
<svg
   width="64"
   height="64"
   version="1.1"
   id="svg12"
   sodipodi:docname="ferdi.svg"
   inkscape:version="1.1 (1:1.1+rc+202105240936+c4e8f9ed74)"
   xmlns:inkscape="http://www.inkscape.org/namespaces/inkscape"
   xmlns:sodipodi="http://sodipodi.sourceforge.net/DTD/sodipodi-0.dtd"
   xmlns="http://www.w3.org/2000/svg"
   xmlns:svg="http://www.w3.org/2000/svg">
  <defs
     id="defs16" />
  <sodipodi:namedview
     id="namedview14"
     pagecolor="#ffffff"
     bordercolor="#666666"
     borderopacity="1.0"
     inkscape:pageshadow="2"
     inkscape:pageopacity="0.0"
     inkscape:pagecheckerboard="0"
     showgrid="false"
     inkscape:zoom="12.859375"
     inkscape:cx="32"
     inkscape:cy="32"
     inkscape:window-width="1920"
     inkscape:window-height="996"
     inkscape:window-x="0"
     inkscape:window-y="0"
     inkscape:window-maximized="1"
     inkscape:current-layer="svg12" />
  <path
     d="m 23.903984,16.087029 c -0.631861,0.0026 -1.157662,0.17106 -1.687795,0.488266 -0.627718,0.375572 -2.958654,2.73107 -5.181014,5.231419 -3.378077,3.800676 -4.365615,4.68257 -6.034486,5.405799 -2.6264114,1.138092 -4.840288,1.565978 -6.6581747,0.976532 -2.4676776,-0.800165 -3.80194516,0.541937 -2.740958,2.91797 1.0116014,2.265612 5.0583108,4.319585 10.4167347,5.289548 7.439054,1.346724 12.365918,0.550458 17.594655,-4.004944 1.002357,-0.873232 2.110779,-1.592675 2.46741,-1.592675 0.356629,0 1.574646,0.808262 2.70266,1.790307 2.679102,2.33243 3.985385,2.627114 7.161506,3.638743 2.260455,0.720045 3.140614,0.802204 6.318976,0.587082 6.682767,-0.45233 11.153545,-1.979179 13.507836,-4.615276 0.7927,-0.886922 1.088725,-1.568097 1.088725,-2.490736 0,-1.847955 -0.922964,-2.020075 -3.277115,-1.365981 -1.429493,0.397179 -2.226704,0.117016 -3.665551,-0.232508 -3.523733,-0.857161 -5.117712,-2.032817 -9.224064,-6.803752 -3.190407,-3.705434 -4.505727,-5.136738 -6.242382,-5.208169 -1.041855,-0.04152 -2.234629,0.408971 -4.075876,1.156726 -1.952731,0.793079 -3.961525,1.807866 -4.464316,1.807746 -0.50279,-1.37e-4 -2.053319,-0.890181 -3.441244,-1.528737 -2.16329,-0.995222 -3.512429,-1.451611 -4.565527,-1.44736 z m 5.342406,23.80877 a 2.8014191,2.976394 0 0 0 -2.656158,3.917751 l 2.80114,8.92829 a 2.8014191,2.976394 0 0 0 5.312315,0 l 2.80114,-8.92829 a 2.8014191,2.976394 0 0 0 -2.656159,-3.917751 z"
     style="fill:#29292a;stroke-width:1.44365"
     id="path10" />
</svg>
