<?xml version="1.0" encoding="UTF-8" standalone="no"?>
<svg
   width="64"
   height="64"
   version="1"
   id="svg18"
   sodipodi:docname="firefox.svg"
   inkscape:version="1.1 (c68e22c387, 2021-05-23)"
   xmlns:inkscape="http://www.inkscape.org/namespaces/inkscape"
   xmlns:sodipodi="http://sodipodi.sourceforge.net/DTD/sodipodi-0.dtd"
   xmlns="http://www.w3.org/2000/svg"
   xmlns:svg="http://www.w3.org/2000/svg"
   xmlns:rdf="http://www.w3.org/1999/02/22-rdf-syntax-ns#"
   xmlns:cc="http://creativecommons.org/ns#"
   xmlns:dc="http://purl.org/dc/elements/1.1/">
  <metadata
     id="metadata24">
    <rdf:RDF>
      <cc:Work
         rdf:about="">
        <dc:format>image/svg+xml</dc:format>
        <dc:type
           rdf:resource="http://purl.org/dc/dcmitype/StillImage" />
      </cc:Work>
    </rdf:RDF>
  </metadata>
  <defs
     id="defs22" />
  <sodipodi:namedview
     pagecolor="#ffffff"
     bordercolor="#666666"
     borderopacity="1"
     objecttolerance="10"
     gridtolerance="10"
     guidetolerance="10"
     inkscape:pageopacity="0"
     inkscape:pageshadow="2"
     inkscape:window-width="1459"
     inkscape:window-height="738"
     id="namedview20"
     showgrid="false"
     inkscape:zoom="6.4453125"
     inkscape:cx="75.403636"
     inkscape:cy="41.347879"
     inkscape:window-x="192"
     inkscape:window-y="258"
     inkscape:window-maximized="0"
     inkscape:current-layer="svg18"
     inkscape:document-rotation="0"
     inkscape:pagecheckerboard="0" />
  <path
     style="fill:#29292a;stroke-width:3.19615"
     d="m 35.533086,24.124301 c 0.515818,0.166544 -1.914056,0.75765 -1.78854,1.377389 0.135466,0.669667 -0.06349,1.873528 -0.594228,2.652828 -0.531031,0.779299 -1.294079,1.507273 -2.606005,2.536912 -0.226165,0.177367 -0.489192,0.276526 -0.759829,0.2863 -2.578211,0.09847 -3.944557,0.643131 -4.862965,1.336542 -0.96639,0.774061 -1.272427,1.251694 -1.35435,1.548122 -0.08309,0.299219 -0.07519,0.878805 0.29141,2.154942 0.499141,1.736664 1.367809,3.092755 3.182094,4.559177 1.814285,1.466423 4.027065,1.864452 5.852469,1.864452 4.153456,0 7.358373,-4.420915 7.361299,-9.472042 -0.0059,-3.796987 -1.840325,-7.231208 -4.721355,-8.844622 z"
     id="path2"
     sodipodi:nodetypes="ccccccccssccc" />
  <path
     style="fill:#29292a;stroke-width:3.86958"
     d="m 41.722867,1.3133573 c -6.554519,4.438361 -9.405187,8.9257797 -10.60104,13.6028617 0,0 0.557806,-0.08304 0.848145,-0.08304 8.318646,0 15.284445,5.858714 17.013297,13.640331 -2.170756,-3.979846 -6.34946,-6.714325 -11.213891,-6.714325 l -0.666345,0.03014 c 4.491914,2.100592 7.360413,6.591874 7.368165,11.535489 -0.0038,6.592648 -5.042743,12.17517 -11.562374,12.816395 -2.894471,0.06953 -6.131998,-0.880718 -8.328337,-2.375624 -3.23869,-2.182483 -4.797758,-4.103455 -5.602489,-6.441996 -1.067546,-3.104149 -0.716349,-4.415184 2.188201,-6.345041 1.577674,-0.998148 3.79572,-1.672208 7.434837,-1.788092 3.323969,-2.178621 3.581747,-3.014532 3.422042,-3.674298 h -0.0078 c -1.035761,-0.282758 -3.877513,-1.374772 -6.404892,-3.357162 0,0 -2.188974,-1.932175 -3.71742,-2.965088 -0.59308,-1.960373 -1.055917,-4.126633 -0.280259,-8.246313 -2.985952,0.978448 -5.412934,3.557256 -7.465075,5.85485 l -0.143811,-0.0078 C 12.770025,14.426802 12.875849,8.5109187 12.875849,8.5109187 6.4178517,13.487368 0.95917615,21.58728 0.95917615,32.577728 c 0,16.866159 13.88391985,30.540483 31.01079585,30.540483 17.125712,0 31.010795,-13.674324 31.010795,-30.540483 0,-7.852692 -3.011923,-15.012012 -7.958146,-20.423027 0,0 -0.461285,-0.448858 -0.755888,-0.33954 1.752111,2.895943 2.825859,6.234178 3.128215,9.785639 l -1.88003,-2.693532 C 49.277872,10.943712 43.579638,8.6298931 41.722867,1.3133573 Z"
     id="path4" />
</svg>
