<?xml version="1.0" encoding="UTF-8" standalone="no"?>
<svg
   width="64"
   height="64"
   version="1.1"
   id="svg73"
   sodipodi:docname="gnome-aisleriot.svg"
   inkscape:version="1.1 (1:1.1+202105261517+ce6663b3b7)"
   xmlns:inkscape="http://www.inkscape.org/namespaces/inkscape"
   xmlns:sodipodi="http://sodipodi.sourceforge.net/DTD/sodipodi-0.dtd"
   xmlns="http://www.w3.org/2000/svg"
   xmlns:svg="http://www.w3.org/2000/svg"
   xmlns:rdf="http://www.w3.org/1999/02/22-rdf-syntax-ns#"
   xmlns:cc="http://creativecommons.org/ns#"
   xmlns:dc="http://purl.org/dc/elements/1.1/">
  <metadata
     id="metadata77">
    <rdf:RDF>
      <cc:Work
         rdf:about="">
        <dc:format>image/svg+xml</dc:format>
        <dc:type
           rdf:resource="http://purl.org/dc/dcmitype/StillImage" />
        <dc:title />
      </cc:Work>
    </rdf:RDF>
  </metadata>
  <sodipodi:namedview
     pagecolor="#ffffff"
     bordercolor="#666666"
     borderopacity="1"
     objecttolerance="10"
     gridtolerance="10"
     guidetolerance="10"
     inkscape:pageopacity="0"
     inkscape:pageshadow="2"
     inkscape:window-width="1541"
     inkscape:window-height="762"
     id="namedview75"
     showgrid="false"
     inkscape:zoom="12.578125"
     inkscape:cx="32.039752"
     inkscape:cy="46.469565"
     inkscape:window-x="222"
     inkscape:window-y="169"
     inkscape:window-maximized="0"
     inkscape:current-layer="svg73"
     inkscape:document-rotation="0"
     inkscape:pagecheckerboard="0" />
  <defs
     id="defs29">
    <inkscape:path-effect
       effect="powerclip"
       id="path-effect159"
       is_visible="true"
       lpeversion="1"
       inverse="true"
       flatten="false"
       hide_clip="false"
       message="Use fill-rule evenodd on &lt;b&gt;fill and stroke&lt;/b&gt; dialog if no flatten result after convert clip to paths." />
    <linearGradient
       id="b"
       x1="399.57"
       x2="399.57"
       y1="545.8"
       y2="517.8"
       gradientTransform="matrix(2.1429,0,0,2.1429,-826.36,-1107.5)"
       gradientUnits="userSpaceOnUse">
      <stop
         stop-color="#3889e9"
         offset="0"
         id="stop2" />
      <stop
         stop-color="#5ea5fb"
         offset="1"
         id="stop4" />
    </linearGradient>
    <linearGradient
       id="linearGradient862"
       x1="7.9373"
       x2="7.9373"
       y1="15.081"
       y2="1.852"
       gradientTransform="matrix(3.3743 0 0 3.3743 3.4312 3.4278)"
       gradientUnits="userSpaceOnUse">
      <stop
         stop-color="#f1efeb"
         offset="0"
         id="stop7" />
      <stop
         stop-color="#fff"
         offset="1"
         id="stop9" />
    </linearGradient>
    <linearGradient
       id="linearGradient910"
       x1="7.9373"
       x2="7.9373"
       y1="15.081"
       y2="1.852"
       gradientTransform="scale(3.7796)"
       gradientUnits="userSpaceOnUse">
      <stop
         stop-color="#613583"
         offset="0"
         id="stop12" />
      <stop
         stop-color="#a663c0"
         offset="1"
         id="stop14" />
    </linearGradient>
    <linearGradient
       id="linearGradient932"
       x1="379.24"
       x2="374.24"
       y1="546.85"
       y2="546.85"
       gradientTransform="matrix(2.1429 0 0 2.1429 -769.68 -1134.5)"
       gradientUnits="userSpaceOnUse">
      <stop
         stop-color="#f6f5f4"
         offset="0"
         id="stop17" />
      <stop
         stop-color="#fff"
         offset=".6"
         id="stop19" />
      <stop
         stop-color="#dddbd8"
         offset="1"
         id="stop21" />
    </linearGradient>
    <linearGradient
       id="linearGradient1146"
       x1="18"
       x2="18"
       y1="52"
       y2="12"
       gradientUnits="userSpaceOnUse">
      <stop
         stop-color="#5e337f"
         offset="0"
         id="stop24" />
      <stop
         stop-color="#ab60bf"
         offset="1"
         id="stop26" />
    </linearGradient>
    <clipPath
       clipPathUnits="userSpaceOnUse"
       id="clipPath155">
      <path
         id="path157"
         style="display:none;opacity:0.85;fill:#f2f2f2;stroke-width:1.08095"
         d="m -7.6738281,-15.972656 -8.7871099,3.152344 v -2.126954 l 1.09961,-0.533203 v -3.191406 l -1.09961,-0.53125 v -2.21875 l 8.7871099,3.28125 z m -2.1972657,-1.103516 -3.2949222,-1.050781 v 2.011719 z m -8.7851562,1.957031 c 0,1.265858 -0.920555,2.298828 -2.060547,2.298829 -0.590864,0 -1.134162,-0.277723 -1.509765,-0.722657 l -3.019532,-3.476562 3.019532,-3.589844 c 0.375603,-0.444721 0.918901,-0.722656 1.509765,-0.722656 1.139992,0 2.060547,1.034032 2.060547,2.298828 0,0.833692 -0.396444,1.556145 -0.996094,1.957031 0.59965,0.400887 0.996094,1.123339 0.996094,1.957031 z m -4.392578,-11.958984 c 0,3.164114 -2.454402,5.746094 -5.492188,5.746094 -1.581034,0 -3.023974,-0.692483 -4.027343,-1.804688 l -8.054688,-8.691406 8.054688,-8.978516 c 1.001611,-1.112866 2.445848,-1.804687 4.027343,-1.804687 3.037786,0 5.490235,2.583933 5.490235,5.748047 0,2.083166 -1.055474,3.89036 -2.652344,4.892578 1.59687,1.002218 2.652344,2.80746 2.652344,4.890625 z m -15.376953,-19.845703 -3.019531,3.591797 c -0.375605,0.44472 -0.918903,0.722656 -1.509766,0.722656 -1.139993,0 -2.060547,-1.034885 -2.060547,-2.298828 0,-0.834117 0.396443,-1.556993 0.996094,-1.957031 -0.599651,-0.400035 -0.996094,-1.124868 -0.996094,-1.958985 0,-1.263944 0.920554,-2.296875 2.060547,-2.296875 0.590863,0 1.134162,0.275982 1.509766,0.720703 z m -8.785157,4.314453 -8.787109,-3.152344 v -2.167969 l 8.787109,-3.283203 v 2.21875 l -1.097656,0.533203 v 3.191407 l 1.097656,0.53125 z m -3.294921,-3.294922 v -2.013672 l -3.294922,1.052735 z" />
      <path
         id="lpe_path-effect159"
         style="opacity:0.85;fill:#f2f2f2;stroke-width:1.08095"
         class="powerclip"
         d="M -65.390366,-58.249252 H 1.7191315 V -5.6922455 H -65.390366 Z m 57.7165379,42.276596 v -2.167969 l -8.7871099,-3.28125 v 2.21875 l 1.09961,0.53125 v 3.191406 l -1.09961,0.533203 v 2.126954 z m -2.1972657,-1.103516 -3.2949222,-1.050781 v 2.011719 z m -8.7851562,1.957031 c 0,-0.833692 -0.396444,-1.556144 -0.996094,-1.957031 0.59965,-0.400886 0.996094,-1.123339 0.996094,-1.957031 0,-1.264796 -0.920555,-2.298828 -2.060547,-2.298828 -0.590864,0 -1.134162,0.277935 -1.509765,0.722656 l -3.019532,3.589844 3.019532,3.476562 c 0.375603,0.444934 0.918901,0.722657 1.509765,0.722657 1.139992,-1e-6 2.060547,-1.032971 2.060547,-2.298829 z m -4.392578,-11.958984 -0.002,-0.002 c 0,-2.083165 -1.055474,-3.888407 -2.652344,-4.890625 1.59687,-1.002218 2.652344,-2.809412 2.652344,-4.892578 0,-3.164114 -2.452449,-5.748047 -5.490235,-5.748047 -1.581495,0 -3.025732,0.691821 -4.027343,1.804687 l -8.054688,8.978516 8.054688,8.691406 c 1.003369,1.112205 2.446309,1.804688 4.027343,1.804688 3.037786,0 5.492188,-2.58198 5.492188,-5.746094 z m -15.376953,-19.845703 -3.019531,-3.476563 c -0.375604,-0.444721 -0.918903,-0.720703 -1.509766,-0.720703 -1.139993,0 -2.060547,1.032931 -2.060547,2.296875 0,0.834117 0.396443,1.55895 0.996094,1.958985 -0.599651,0.400038 -0.996094,1.122914 -0.996094,1.957031 0,1.263943 0.920554,2.298828 2.060547,2.298828 0.590863,0 1.134161,-0.277936 1.509766,-0.722656 z m -8.785157,4.314453 v -2.128906 l -1.097656,-0.53125 v -3.191407 l 1.097656,-0.533203 v -2.21875 l -8.787109,3.283203 v 2.167969 z m -3.294921,-3.294922 v -2.013672 l -3.294922,1.052735 z" />
    </clipPath>
  </defs>
  <circle
     cx="32.02"
     cy="32.044"
     r="30.001"
     fill-opacity="0"
     stroke-width="1.5715"
     id="circle39" />
  <circle
     cx="32.02"
     cy="32.044"
     r="0"
     fill="url(#b)"
     stroke-width="1.5715"
     id="circle41" />
  <path
     style="fill:#29292a;stroke-width:1.08095"
     width="57.109497"
     height="42.557007"
     x="-60.390366"
     y="-53.249252"
     rx="2.8554749"
     ry="2.8364244"
     transform="matrix(0,-1,-1,0,0,0)"
     id="rect4"
     sodipodi:type="rect"
     clip-path="url(#clipPath155)"
     inkscape:path-effect="#path-effect159"
     d="m -57.534891,-53.249252 h 51.3985475 c 1.5819331,0 2.855475,1.265045 2.855475,2.836424 v 36.884158 c 0,1.571379 -1.2735419,2.836425 -2.855475,2.836425 H -57.534891 c -1.581933,0 -2.855475,-1.265046 -2.855475,-2.836425 v -36.884158 c 0,-1.571379 1.273542,-2.836424 2.855475,-2.836424 z" />
  <g
     id="g35" />
</svg>
