<?xml version="1.0" encoding="UTF-8" standalone="no"?>
<svg
   width="64"
   height="64"
   version="1.1"
   id="svg20"
   sodipodi:docname="gnome-2048.svg"
   inkscape:version="1.1 (1:1.1+rc+202105240936+c4e8f9ed74)"
   xmlns:inkscape="http://www.inkscape.org/namespaces/inkscape"
   xmlns:sodipodi="http://sodipodi.sourceforge.net/DTD/sodipodi-0.dtd"
   xmlns="http://www.w3.org/2000/svg"
   xmlns:svg="http://www.w3.org/2000/svg">
  <defs
     id="defs24">
    <inkscape:path-effect
       effect="powerclip"
       id="path-effect11864"
       is_visible="true"
       lpeversion="1"
       inverse="true"
       flatten="false"
       hide_clip="false"
       message="Use fill-rule evenodd on &lt;b&gt;fill and stroke&lt;/b&gt; dialog if no flatten result after convert clip to paths." />
    <inkscape:path-effect
       effect="powerclip"
       id="path-effect11757"
       is_visible="true"
       lpeversion="1"
       inverse="true"
       flatten="false"
       hide_clip="false"
       message="Use fill-rule evenodd on &lt;b&gt;fill and stroke&lt;/b&gt; dialog if no flatten result after convert clip to paths." />
    <clipPath
       clipPathUnits="userSpaceOnUse"
       id="clipPath11753">
      <path
         d="m 22.751241,48.113279 h 1.804689 v 2.468544 h -1.804689 v 3.202437 h -4.153652 v -3.202437 h -7.104176 v -2.513022 q 1.203127,-1.490023 2.864587,-3.291394 1.489585,-1.601218 3.151046,-3.313632 1.460939,-1.490022 2.950524,-2.980045 h 2.291671 z m -4.09636,0 V 41.57497 l -5.986987,6.538309 z"
         id="path11755"
         style="display:none" />
      <path
         id="lpe_path-effect11757"
         class="powerclip"
         d="M -1,27 H 37 V 65 H -1 Z M 22.751241,48.113279 V 38.48373 H 20.45957 q -1.489585,1.490023 -2.950524,2.980045 -1.661461,1.712414 -3.151046,3.313632 -1.66146,1.801371 -2.864587,3.291394 v 2.513022 h 7.104176 v 3.202437 h 4.153652 v -3.202437 h 1.804689 v -2.468544 z m -4.09636,0 V 41.57497 l -5.986987,6.538309 z" />
    </clipPath>
    <clipPath
       clipPathUnits="userSpaceOnUse"
       id="clipPath11860">
      <path
         d="m 48.962212,20.381067 v -5.092764 q 0,-2.513023 -0.458334,-3.580502 -0.458333,-1.067478 -1.518231,-1.067478 -1.489585,0 -1.804689,2.357349 -0.114583,0.867326 -0.114583,2.290631 v 5.092764 q 0,2.424067 0.429687,3.513785 0.458334,1.089718 1.546877,1.089718 0.687501,0 1.088543,-0.444783 0.257813,-0.289109 0.401042,-0.77837 0.171876,-0.5115 0.286459,-1.423306 0.143229,-0.934043 0.143229,-1.957044 z m -8.421886,-2.446306 q 0,-3.86961 2.148441,-6.049046 1.861982,-1.868089 4.354172,-1.868089 2.520837,0 4.354172,1.957045 2.091149,2.223914 2.091149,5.96009 0,3.157959 -1.718752,5.337395 -1.833336,2.33511 -4.755215,2.33511 -2.778648,0 -4.64063,-2.157197 -1.833337,-2.179437 -1.833337,-5.515308 z"
         id="path11862"
         style="display:none" />
      <path
         id="lpe_path-effect11864"
         class="powerclip"
         d="M 27,-1 H 65 V 37 H 27 Z m 21.962212,21.381067 v -5.092764 q 0,-2.513023 -0.458334,-3.580502 -0.458333,-1.067478 -1.518231,-1.067478 -1.489585,0 -1.804689,2.357349 -0.114583,0.867326 -0.114583,2.290631 v 5.092764 q 0,2.424067 0.429687,3.513785 0.458334,1.089718 1.546877,1.089718 0.687501,0 1.088543,-0.444783 0.257813,-0.289109 0.401042,-0.77837 0.171876,-0.5115 0.286459,-1.423306 0.143229,-0.934043 0.143229,-1.957044 z m -8.421886,-2.446306 q 0,3.335871 1.833337,5.515308 1.861982,2.157197 4.64063,2.157197 2.921879,0 4.755215,-2.33511 1.718752,-2.179436 1.718752,-5.337395 0,-3.736176 -2.091149,-5.96009 -1.833335,-1.957045 -4.354172,-1.957045 -2.49219,0 -4.354172,1.868089 -2.148441,2.179436 -2.148441,6.049046 z" />
    </clipPath>
  </defs>
  <sodipodi:namedview
     id="namedview22"
     pagecolor="#ffffff"
     bordercolor="#666666"
     borderopacity="1.0"
     inkscape:pageshadow="2"
     inkscape:pageopacity="0.0"
     inkscape:pagecheckerboard="0"
     showgrid="false"
     inkscape:zoom="12.859375"
     inkscape:cx="32"
     inkscape:cy="21.579587"
     inkscape:window-width="1920"
     inkscape:window-height="996"
     inkscape:window-x="0"
     inkscape:window-y="0"
     inkscape:window-maximized="1"
     inkscape:current-layer="text2130" />
  <g
     aria-label="2 0
4 8"
     transform="scale(1.1349376,0.88110573)"
     id="text2130"
     style="font-size:25.8458px;line-height:1.25;font-family:'padmaa-Bold.1.1';-inkscape-font-specification:'padmaa-Bold.1.1';stroke-width:0.881106">
    <g
       id="g11991">
      <path
         style="fill:#29292a"
         d="M 55.8,4 C 58.1268,4 60,5.8732 60,8.2 V 32 H 32 V 4 Z"
         id="path4"
         clip-path="url(#clipPath11860)"
         inkscape:path-effect="#path-effect11864"
         inkscape:original-d="M 55.8,4 C 58.1268,4 60,5.8732 60,8.2 V 32 H 32 V 4 Z"
         transform="scale(0.88110571,1.1349376)" />
      <path
         style="fill:#29292a"
         d="M 8.2,60 C 5.8732,60 4,58.1268 4,55.8 V 32 h 28 v 28 z"
         id="path6"
         clip-path="url(#clipPath11753)"
         inkscape:path-effect="#path-effect11757"
         inkscape:original-d="M 8.2,60 C 5.8732,60 4,58.1268 4,55.8 V 32 h 28 v 28 z"
         transform="scale(0.88110571,1.1349376)" />
      <path
         d="m 21.71209,23.408879 -1.135802,5.325649 H 10.076432 v -0.580521 q 2.498764,-2.675445 3.659806,-4.038407 1.766802,-2.069683 2.549244,-3.508365 0.933881,-1.691083 0.933881,-3.129765 0,-1.009602 -0.504801,-1.867763 -0.807681,-1.362962 -2.498764,-1.362962 -0.757201,0 -1.388202,0.32812 -1.085321,0.555281 -1.691082,1.943483 h -0.706722 q 0.681482,-1.918243 1.615363,-3.104524 1.615363,-2.044444 3.937446,-2.044444 1.640603,0 2.902605,0.908642 1.766802,1.262002 1.766802,3.811246 0,1.034841 -0.35336,1.943483 -0.656241,1.665842 -2.524004,3.457885 l -4.088886,3.886966 h 3.811246 q 1.993963,0 2.524003,-0.30288 0.530041,-0.328121 1.085322,-1.665843 z"
         id="path11726"
         style="fill:#29292a" />
      <path
         d="m 39.354879,46.453035 q 0,1.186282 0.959122,2.246364 0.858161,0.959121 2.322083,1.691082 0.555281,-0.731961 0.731961,-1.161041 0.302881,-0.706721 0.302881,-1.741563 0,-1.262002 -0.403841,-2.019203 -0.580521,-1.060082 -1.842523,-1.060082 -0.883401,0 -1.489162,0.631001 -0.580521,0.605761 -0.580521,1.413442 z m 2.473524,-2.776404 q 2.574484,0 3.861726,1.287242 0.984362,0.984361 0.984362,2.372564 0,1.413442 -1.186282,2.372563 -0.832922,0.681481 -2.246364,1.135802 1.741563,1.034842 2.700684,2.296844 1.085322,1.438682 1.085322,3.104525 0,2.347323 -1.615362,3.735525 -1.615363,1.388203 -4.316047,1.388203 -2.195884,0 -3.659806,-1.060082 -1.615362,-1.161042 -1.615362,-3.180245 0,-1.817283 1.262002,-2.953085 0.908641,-0.807681 2.524004,-1.312482 -1.615363,-0.908641 -2.473524,-1.943483 -1.034842,-1.262002 -1.034842,-2.751164 0,-1.918243 1.337722,-3.129765 1.514402,-1.362962 4.391767,-1.362962 z m -2.953085,13.402461 q 0,1.463922 0.605761,2.473524 0.631001,1.009601 1.792043,1.009601 1.438682,0 1.968723,-1.211522 0.277641,-0.656241 0.277641,-1.741562 0,-1.388202 -1.034842,-2.498764 -0.605761,-0.656241 -2.322084,-1.792043 -0.883401,1.312482 -1.085321,2.044443 -0.201921,0.706721 -0.201921,1.716323 z"
         id="path11732"
         style="fill:#29292a" />
    </g>
  </g>
</svg>
