<?xml version="1.0" encoding="UTF-8" standalone="no"?>
<svg
   width="64"
   height="64"
   version="1.1"
   id="svg22"
   sodipodi:docname="gcolor.svg"
   inkscape:version="1.1 (1:1.1+202105261517+ce6663b3b7)"
   xmlns:inkscape="http://www.inkscape.org/namespaces/inkscape"
   xmlns:sodipodi="http://sodipodi.sourceforge.net/DTD/sodipodi-0.dtd"
   xmlns="http://www.w3.org/2000/svg"
   xmlns:svg="http://www.w3.org/2000/svg">
  <defs
     id="defs26">
    <inkscape:path-effect
       effect="powerclip"
       id="path-effect1303"
       is_visible="true"
       lpeversion="1"
       inverse="true"
       flatten="false"
       hide_clip="false"
       message="Use fill-rule evenodd on &lt;b&gt;fill and stroke&lt;/b&gt; dialog if no flatten result after convert clip to paths." />
    <clipPath
       clipPathUnits="userSpaceOnUse"
       id="clipPath1299">
      <path
         style="color:#000000;display:none;opacity:0.85;fill:#ffffff;-inkscape-stroke:none"
         d="m 24.149464,39.847234 c 1.129182,1.129183 1.129024,2.947446 -3.54e-4,4.076824 L 11.920405,56.152763 c -1.129378,1.129378 -2.9476414,1.129536 -4.0768237,3.54e-4 -1.1291824,-1.129183 -1.1290247,-2.947446 3.535e-4,-4.076825 L 20.072639,39.847588 c 1.129379,-1.129378 2.947642,-1.129536 4.076825,-3.54e-4 z"
         id="path1301" />
      <path
         id="lpe_path-effect1303"
         style="color:#000000;opacity:0.85;fill:#ffffff;-inkscape-stroke:none"
         class="powerclip"
         d="M -1.0000001,22.1348 H 41.714641 V 65 H -1.0000001 Z M 24.149464,39.847234 c -1.129183,-1.129182 -2.947446,-1.129024 -4.076825,3.54e-4 L 7.8439348,52.076292 c -1.1293782,1.129379 -1.1295359,2.947642 -3.535e-4,4.076825 1.1291823,1.129182 2.9474457,1.129024 4.0768237,-3.54e-4 L 24.14911,43.924058 c 1.129378,-1.129378 1.129536,-2.947641 3.54e-4,-4.076824 z" />
    </clipPath>
  </defs>
  <sodipodi:namedview
     id="namedview24"
     pagecolor="#ffffff"
     bordercolor="#666666"
     borderopacity="1.0"
     inkscape:pageshadow="2"
     inkscape:pageopacity="0.0"
     inkscape:pagecheckerboard="0"
     showgrid="false"
     inkscape:zoom="7.984375"
     inkscape:cx="32"
     inkscape:cy="32"
     inkscape:window-width="1920"
     inkscape:window-height="996"
     inkscape:window-x="0"
     inkscape:window-y="0"
     inkscape:window-maximized="1"
     inkscape:current-layer="svg22" />
  <path
     style="fill:#29292a"
     d="m 24.106188,27.1348 -10.294281,9.96979 c -1.592284,1.542093 -2.06215,4.068708 -1.531814,6.05941 l -6.523455,6.623796 c -2.342115,2.342264 -2.3422644,6.113354 3.38e-5,8.455618 2.3421148,2.342114 6.1133552,2.342114 8.4556192,0 l 6.923805,-7.323508 c 1.990852,0.530484 4.19201,0.03586 5.7594,-1.531812 l 9.819145,-9.884944 z"
     id="path6"
     sodipodi:nodetypes="cscccccccc"
     clip-path="url(#clipPath1299)"
     inkscape:path-effect="#path-effect1303"
     inkscape:original-d="m 24.106188,27.1348 -10.294281,9.96979 c -1.592284,1.542093 -2.06215,4.068708 -1.531814,6.05941 l -6.523455,6.623796 c -2.342115,2.342264 -2.3422644,6.113354 3.38e-5,8.455618 2.3421148,2.342114 6.1133552,2.342114 8.4556192,0 l 6.923805,-7.323508 c 1.990852,0.530484 4.19201,0.03586 5.7594,-1.531812 l 9.819145,-9.884944 z" />
  <path
     id="path10"
     style="fill:#29292a"
     d="m 50.165447,1.0187055 c -2.789412,0 -5.579405,1.06964 -7.716797,3.2070314 l -3.083985,3.0839848 -4.630859,4.6308593 -4.513672,4.515625 -2.201172,-2.201172 a 4.0775516,4.0775516 0 0 0 -2.925781,-1.236328 4.0775516,4.0775516 0 0 0 -2.839844,7.001953 l 21.744141,21.74414 a 4.0775516,4.0775516 0 1 0 5.765625,-5.765625 l -2.183594,-2.183594 4.515625,-4.513672 4.630859,-4.630859 3.083981,-3.083984 c 4.27479,-4.274782 4.27479,-11.15881 0,-15.4335937 L 57.882243,4.2257369 C 55.744851,2.0883455 52.954858,1.0187055 50.165447,1.0187055 Z" />
</svg>
