<?xml version="1.0" encoding="UTF-8" standalone="no"?>
<svg
   width="64"
   height="64"
   version="1"
   id="svg24"
   sodipodi:docname="fr.handbrake.ghb.svg"
   inkscape:version="1.1 (1:1.1+202106031931+af4d65493e)"
   xmlns:inkscape="http://www.inkscape.org/namespaces/inkscape"
   xmlns:sodipodi="http://sodipodi.sourceforge.net/DTD/sodipodi-0.dtd"
   xmlns="http://www.w3.org/2000/svg"
   xmlns:svg="http://www.w3.org/2000/svg">
  <defs
     id="defs28">
    <inkscape:path-effect
       effect="powerclip"
       id="path-effect362"
       is_visible="true"
       lpeversion="1"
       inverse="true"
       flatten="false"
       hide_clip="false"
       message="Use fill-rule evenodd on &lt;b&gt;fill and stroke&lt;/b&gt; dialog if no flatten result after convert clip to paths." />
    <inkscape:path-effect
       effect="powerclip"
       id="path-effect354"
       is_visible="true"
       lpeversion="1"
       inverse="true"
       flatten="false"
       hide_clip="false"
       message="Use fill-rule evenodd on &lt;b&gt;fill and stroke&lt;/b&gt; dialog if no flatten result after convert clip to paths." />
    <clipPath
       clipPathUnits="userSpaceOnUse"
       id="clipPath350">
      <path
         style="display:block;opacity:0.2;fill:#ffffff"
         d="M 35.572266,14 3.1992188,14.0918 3.7675781,15.089847 35.017578,15.001957 Z M 13,57.003906 v 1 h 5.037109 v -1 z m 8,0 v 1 h 5 v -1 z"
         id="path352" />
    </clipPath>
    <clipPath
       clipPathUnits="userSpaceOnUse"
       id="clipPath358">
      <path
         style="display:none;fill:#b31f13"
         d="m 8.1679688,17.043051 c 0.7288921,1.473305 6.6538742,11.831288 8.0527342,14.056225 0.811058,1.290046 1.711384,2.340396 2.298828,2.682858 0.516507,0.301107 1.108215,0.324827 1.621094,0.06049 0.560144,-0.288655 1.666997,-1.564347 2.470703,-2.846756 1.317072,-2.101201 7.289196,-12.53493 7.998047,-13.952814 z"
         id="path360"
         clip-path="url(#clipPath350)"
         inkscape:path-effect="#path-effect354"
         inkscape:original-d="m 8.1679688,17.043051 c 0.7288921,1.473305 6.6538742,11.831288 8.0527342,14.056225 0.811058,1.290046 1.711384,2.340396 2.298828,2.682858 0.516507,0.301107 1.108215,0.324827 1.621094,0.06049 0.560144,-0.288655 1.666997,-1.564347 2.470703,-2.846756 1.317072,-2.101201 7.289196,-12.53493 7.998047,-13.952814 z" />
      <path
         id="lpe_path-effect362"
         style="fill:#b31f13"
         class="powerclip"
         d="m -1.8,8.999998 h 42.372093 v 56 H -1.8 Z m 9.9679688,8.043053 c 0.7288921,1.473305 6.6538742,11.831288 8.0527342,14.056225 0.811058,1.290046 1.711384,2.340396 2.298828,2.682858 0.516507,0.301107 1.108215,0.324827 1.621094,0.06049 0.560144,-0.288655 1.666997,-1.564347 2.470703,-2.846756 1.317072,-2.101201 7.289196,-12.53493 7.998047,-13.952814 z" />
    </clipPath>
  </defs>
  <sodipodi:namedview
     id="namedview26"
     pagecolor="#ffffff"
     bordercolor="#666666"
     borderopacity="1.0"
     inkscape:pageshadow="2"
     inkscape:pageopacity="0.0"
     inkscape:pagecheckerboard="0"
     showgrid="false"
     inkscape:zoom="12.859375"
     inkscape:cx="32"
     inkscape:cy="32"
     inkscape:window-width="1920"
     inkscape:window-height="996"
     inkscape:window-x="0"
     inkscape:window-y="0"
     inkscape:window-maximized="1"
     inkscape:current-layer="svg24" />
  <g
     id="g449"
     style="fill:#29292a">
    <path
       style="fill:#29292a"
       d="M 35.572093,13.999998 3.2,14.092111 18.037209,40.161414 v 16.84159 H 13 v 2.996994 h 13 v -2.996994 h -5 v -16.72316 z"
       id="path8"
       clip-path="url(#clipPath358)"
       inkscape:path-effect="#path-effect362"
       inkscape:original-d="M 35.572093,13.999998 3.2,14.092111 18.037209,40.161414 v 16.84159 H 13 v 2.996994 h 13 v -2.996994 h -5 v -16.72316 z" />
    <path
       style="fill:#29292a"
       d="m 41.584725,20.560667 c -2.187939,-1.503173 -3.342094,-4.778922 -4.945733,-6.1812 -0.901862,-0.788481 -0.887273,-1.387206 0.288784,-1.316933 1.141842,0.06828 2.702913,0.396344 4.575263,1.374932 0,0 -0.687824,-6.8738179 -3.667639,-10.3662479 -0.78222,-0.9167389 -0.663068,-1.2577828 0.459094,-0.8856854 2.450192,0.812519 5.898927,3.1540475 7.787569,6.4951263 0,0 4.528559,-6.8347873 10.825979,-6.6780019 1.177579,0.029313 1.249953,0.7571086 0.276547,1.4497932 -2.304001,1.6396137 -6.107294,5.1427749 -6.166169,10.0659297 0,0 1.450353,-1.61694 4.213522,-1.442126 1.790838,0.1133 3.960716,1.480833 6.248716,3.485278 0.901092,0.78941 0.582964,1.494977 -0.594002,1.548214 -2.679547,0.121193 -7.142127,0.560803 -8.918245,2.984247 0,0 2.627772,-0.359041 3.049589,0.648014 0.411023,0.981594 0.01099,2.797586 -1.589065,3.116111 -4.022164,0.800836 -8.420796,-1.945559 -11.844057,-4.297418 z"
       id="path12" />
    <path
       style="fill:#29292a"
       d="M 57.116765,43.766387 A 16.174912,20.703779 14.612616 0 1 36.174802,59.56125 16.174912,20.703779 14.612616 0 1 25.883137,35.342263 16.174912,20.703779 14.612616 0 1 46.82657,19.547401 16.174912,20.703779 14.612616 0 1 57.116765,43.766387 Z"
       id="path14" />
  </g>
</svg>
