<?xml version="1.0" encoding="UTF-8" standalone="no"?>
<svg
   width="64"
   height="64"
   version="1"
   id="svg20"
   sodipodi:docname="io.github.OpenToonz.svg"
   inkscape:version="1.1 (1:1.1+202106031931+af4d65493e)"
   xmlns:inkscape="http://www.inkscape.org/namespaces/inkscape"
   xmlns:sodipodi="http://sodipodi.sourceforge.net/DTD/sodipodi-0.dtd"
   xmlns="http://www.w3.org/2000/svg"
   xmlns:svg="http://www.w3.org/2000/svg">
  <defs
     id="defs24">
    <inkscape:path-effect
       effect="powerclip"
       id="path-effect431"
       is_visible="true"
       lpeversion="1"
       inverse="true"
       flatten="false"
       hide_clip="false"
       message="Use fill-rule evenodd on &lt;b&gt;fill and stroke&lt;/b&gt; dialog if no flatten result after convert clip to paths." />
    <clipPath
       clipPathUnits="userSpaceOnUse"
       id="clipPath427">
      <path
         id="path429"
         style="display:none;fill:#ffffff"
         d="M 22,14 A 14,14 0 0 0 8,28 14,14 0 0 0 22,42 14,14 0 0 0 36,28 14,14 0 0 0 35.853516,26 H 43 v 20 h 4 V 26 h 9 V 22 H 34.648438 A 14,14 0 0 0 22,14 Z m 0,4.199219 A 9.8,9.8 0 0 1 31.800781,28 9.8,9.8 0 0 1 22,37.800781 9.8,9.8 0 0 1 12.199219,28 9.8,9.8 0 0 1 22,18.199219 Z" />
      <path
         id="lpe_path-effect431"
         style="fill:#ffffff"
         class="powerclip"
         d="M -1,-1 H 65 V 65 H -1 Z M 22,14 A 14,14 0 0 0 8,28 14,14 0 0 0 22,42 14,14 0 0 0 36,28 14,14 0 0 0 35.853516,26 H 43 v 20 h 4 V 26 h 9 V 22 H 34.648438 A 14,14 0 0 0 22,14 Z m 0,4.199219 A 9.8,9.8 0 0 0 12.199219,28 9.8,9.8 0 0 0 22,37.800781 9.8,9.8 0 0 0 31.800781,28 9.8,9.8 0 0 0 22,18.199219 Z" />
    </clipPath>
  </defs>
  <sodipodi:namedview
     id="namedview22"
     pagecolor="#ffffff"
     bordercolor="#666666"
     borderopacity="1.0"
     inkscape:pageshadow="2"
     inkscape:pageopacity="0.0"
     inkscape:pagecheckerboard="0"
     showgrid="false"
     inkscape:zoom="12.859375"
     inkscape:cx="32"
     inkscape:cy="19.557716"
     inkscape:window-width="1920"
     inkscape:window-height="996"
     inkscape:window-x="0"
     inkscape:window-y="0"
     inkscape:window-maximized="1"
     inkscape:current-layer="svg20" />
  <path
     style="fill:#29292a"
     d="M 6.8,4 C 5.2488,4 4,5.2488 4,6.8 V 57.2 C 4,58.7512 5.2488,60 6.8,60 H 38 L 60,38 V 6.8 C 60,5.2488 58.7512,4 57.2,4 Z"
     id="path4"
     clip-path="url(#clipPath427)"
     inkscape:path-effect="#path-effect431"
     inkscape:original-d="M 6.8,4 C 5.2488,4 4,5.2488 4,6.8 V 57.2 C 4,58.7512 5.2488,60 6.8,60 H 38 L 60,38 V 6.8 C 60,5.2488 58.7512,4 57.2,4 Z"
     transform="matrix(1.0520725,0,0,1.0757818,-1.7317893,-2.4237869)" />
</svg>
