<?xml version="1.0" encoding="UTF-8" standalone="no"?>
<svg
   width="64"
   height="64"
   version="1.0"
   id="svg20"
   sodipodi:docname="io.github.Celluloid.svg"
   inkscape:version="1.1 (1:1.1+202105261517+ce6663b3b7)"
   xmlns:inkscape="http://www.inkscape.org/namespaces/inkscape"
   xmlns:sodipodi="http://sodipodi.sourceforge.net/DTD/sodipodi-0.dtd"
   xmlns="http://www.w3.org/2000/svg"
   xmlns:svg="http://www.w3.org/2000/svg">
  <defs
     id="defs24">
    <inkscape:path-effect
       effect="powerclip"
       id="path-effect21"
       is_visible="true"
       lpeversion="1"
       inverse="true"
       flatten="false"
       hide_clip="false"
       message="Use fill-rule evenodd on &lt;b&gt;fill and stroke&lt;/b&gt; dialog if no flatten result after convert clip to paths." />
    <clipPath
       clipPathUnits="userSpaceOnUse"
       id="clipPath12">
      <g
         id="g19"
         style="display:none">
        <path
           style="opacity:0.85;fill:#ffffff;stroke-width:1.45472"
           d="M 31.770696,16.288764 A 15.942747,16.061447 0 0 0 15.827949,32.350211 15.942747,16.061447 0 0 0 31.770696,48.411658 15.942747,16.061447 0 0 0 47.713441,32.350211 15.942747,16.061447 0 0 0 31.770696,16.288764 Z m -5.797363,7.300658 h 1.449341 0.166673 c 0.282622,-0.0029 0.560896,0.06863 0.807283,0.219019 l 11.315002,7.010092 c 0.501472,0.300787 0.755107,0.915502 0.755107,1.531678 0,0.616176 -0.253635,1.230891 -0.755107,1.531678 L 28.39663,40.891981 C 28.150243,41.042374 27.871969,41.11246 27.589347,41.111 h -0.166673 -1.449341 z"
           id="path14" />
        <path
           style="opacity:0.85;fill:#ffffff"
           d="m 7,9 v 4 h 4 V 9 Z m 46,0 v 4 h 4 V 9 Z M 7,17 v 4 h 4 v -4 z m 46,0 v 4 h 4 V 17 Z M 7,25 v 4 h 4 v -4 z m 46,0 v 4 h 4 V 25 Z M 7,33 v 4 h 4 v -4 z m 46,0 v 4 h 4 V 33 Z M 7,41 v 4 h 4 v -4 z m 46,0 v 4 h 4 V 41 Z M 7,49 v 4 h 4 v -4 z m 46,0 v 4 h 4 v -4 z"
           id="path17" />
      </g>
      <path
         id="lpe_path-effect21"
         class="powerclip"
         d="M -2,4 H 66 V 60 H -2 Z M 31.770696,16.288764 A 15.942747,16.061447 0 0 0 15.827949,32.350211 15.942747,16.061447 0 0 0 31.770696,48.411658 15.942747,16.061447 0 0 0 47.713441,32.350211 15.942747,16.061447 0 0 0 31.770696,16.288764 Z m -5.797363,7.300658 V 41.111 h 1.449341 0.166673 c 0.282622,0.0015 0.560896,-0.06863 0.807283,-0.219019 l 11.315002,-7.010092 c 0.501472,-0.300787 0.755107,-0.915502 0.755107,-1.531678 0,-0.616176 -0.253635,-1.230891 -0.755107,-1.531678 L 28.39663,23.808441 C 28.150243,23.658052 27.871969,23.586522 27.589347,23.589422 H 27.422674 Z M 7,9 v 4 h 4 V 9 Z m 46,0 v 4 h 4 V 9 Z M 7,17 v 4 h 4 v -4 z m 46,0 v 4 h 4 V 17 Z M 7,25 v 4 h 4 v -4 z m 46,0 v 4 h 4 V 25 Z M 7,33 v 4 h 4 v -4 z m 46,0 v 4 h 4 V 33 Z M 7,41 v 4 h 4 v -4 z m 46,0 v 4 h 4 V 41 Z M 7,49 v 4 h 4 v -4 z m 46,0 v 4 h 4 v -4 z" />
    </clipPath>
  </defs>
  <sodipodi:namedview
     id="namedview22"
     pagecolor="#ffffff"
     bordercolor="#666666"
     borderopacity="1.0"
     inkscape:pageshadow="2"
     inkscape:pageopacity="0.0"
     inkscape:pagecheckerboard="0"
     showgrid="false"
     inkscape:zoom="7.984375"
     inkscape:cx="32"
     inkscape:cy="32"
     inkscape:window-width="1920"
     inkscape:window-height="996"
     inkscape:window-x="0"
     inkscape:window-y="0"
     inkscape:window-maximized="1"
     inkscape:current-layer="svg20" />
  <path
     style="fill:#29292a"
     width="58"
     height="46"
     x="3"
     y="9"
     rx="4"
     ry="4"
     id="rect4"
     clip-path="url(#clipPath12)"
     inkscape:path-effect="#path-effect21"
     d="m 7,9 h 50 c 2.216,0 4,1.784 4,4 v 38 c 0,2.216 -1.784,4 -4,4 H 7 C 4.784,55 3,53.216 3,51 V 13 C 3,10.784 4.784,9 7,9 Z"
     sodipodi:type="rect" />
</svg>
