<?xml version="1.0" encoding="UTF-8" standalone="no"?>
<svg
   width="64"
   height="64"
   version="1"
   id="svg54"
   sodipodi:docname="jockey.svg"
   inkscape:version="1.1 (c68e22c387, 2021-05-23)"
   xmlns:inkscape="http://www.inkscape.org/namespaces/inkscape"
   xmlns:sodipodi="http://sodipodi.sourceforge.net/DTD/sodipodi-0.dtd"
   xmlns="http://www.w3.org/2000/svg"
   xmlns:svg="http://www.w3.org/2000/svg"
   xmlns:rdf="http://www.w3.org/1999/02/22-rdf-syntax-ns#"
   xmlns:cc="http://creativecommons.org/ns#"
   xmlns:dc="http://purl.org/dc/elements/1.1/">
  <metadata
     id="metadata60">
    <rdf:RDF>
      <cc:Work
         rdf:about="">
        <dc:format>image/svg+xml</dc:format>
        <dc:type
           rdf:resource="http://purl.org/dc/dcmitype/StillImage" />
      </cc:Work>
    </rdf:RDF>
  </metadata>
  <defs
     id="defs58" />
  <sodipodi:namedview
     pagecolor="#ffffff"
     bordercolor="#666666"
     borderopacity="1"
     objecttolerance="10"
     gridtolerance="10"
     guidetolerance="10"
     inkscape:pageopacity="0"
     inkscape:pageshadow="2"
     inkscape:window-width="1553"
     inkscape:window-height="902"
     id="namedview56"
     showgrid="false"
     inkscape:zoom="12.890625"
     inkscape:cx="32.116364"
     inkscape:cy="44.412121"
     inkscape:window-x="179"
     inkscape:window-y="82"
     inkscape:window-maximized="0"
     inkscape:current-layer="svg54"
     inkscape:document-rotation="0"
     inkscape:pagecheckerboard="0" />
  <path
     style="fill:#29292a;stroke-width:3.76131"
     d="m 20.849025,1.793773 a 3.7491705,3.751993 0 0 0 -3.690219,3.8033513 v 3.7443883 h 7.497591 V 5.5971243 A 3.7491705,3.751993 0 0 0 20.849025,1.793773 Z m 11.246387,0 a 3.7491705,3.751993 0 0 0 -3.690219,3.8033513 v 3.7443883 h 7.497589 V 5.5971243 A 3.7491705,3.751993 0 0 0 32.095412,1.793773 Z m 11.246387,0 a 3.7491705,3.751993 0 0 0 -3.690221,3.8033513 v 3.7443883 h 7.497591 V 5.5971243 A 3.7491705,3.751993 0 0 0 43.341799,1.793773 Z M 20.907601,13.115382 c -4.153665,0 -7.497591,3.366292 -7.497591,7.547739 v 22.64322 c 0,4.181448 3.343926,7.547739 7.497591,7.547739 h 22.492773 c 4.153665,0 7.497591,-3.366291 7.497591,-7.547739 v -22.64322 c 0,-4.181447 -3.343926,-7.547739 -7.497591,-7.547739 z m -14.9658973,3.77387 a 3.7270641,3.7742472 0 1 0 0,7.54774 h 3.7195107 v -7.54774 z m 48.7050573,0 v 7.54774 h 3.71951 a 3.7270641,3.7742472 0 0 0 3.778081,-3.832837 3.7270641,3.7742472 0 0 0 -3.778081,-3.714903 z M 5.9417037,28.210862 a 3.7270641,3.7742472 0 1 0 0,7.547739 h 3.7195107 v -7.547739 z m 48.7050573,0 v 7.547739 h 3.71951 a 3.7270641,3.7742472 0 0 0 3.778081,-3.832837 3.7270641,3.7742472 0 0 0 -3.778081,-3.714902 z M 5.9417037,39.53247 a 3.7270641,3.7742472 0 1 0 0,7.547741 H 9.6612144 V 39.53247 Z m 48.7050573,0 v 7.547741 h 3.71951 A 3.7270641,3.7742472 0 0 0 62.144352,43.247374 3.7270641,3.7742472 0 0 0 58.366271,39.53247 Z M 17.158806,54.62795 v 3.744389 a 3.7491705,3.751993 0 1 0 7.497591,0 V 54.62795 Z m 11.246387,0 v 3.744389 a 3.7491705,3.751993 0 1 0 7.497589,0 V 54.62795 Z m 11.246385,0 v 3.744389 a 3.7491705,3.751993 0 1 0 7.497591,0 V 54.62795 Z"
     id="path2" />
</svg>
