<?xml version="1.0" encoding="UTF-8" standalone="no"?>
<svg
   width="64"
   height="64"
   version="1.1"
   id="svg30"
   sodipodi:docname="kclock.svg"
   inkscape:version="1.1 (1:1.1+202105261517+ce6663b3b7)"
   xmlns:inkscape="http://www.inkscape.org/namespaces/inkscape"
   xmlns:sodipodi="http://sodipodi.sourceforge.net/DTD/sodipodi-0.dtd"
   xmlns="http://www.w3.org/2000/svg"
   xmlns:svg="http://www.w3.org/2000/svg">
  <defs
     id="defs34">
    <inkscape:path-effect
       effect="powerclip"
       id="path-effect85"
       is_visible="true"
       lpeversion="1"
       inverse="true"
       flatten="false"
       hide_clip="false"
       message="Use fill-rule evenodd on &lt;b&gt;fill and stroke&lt;/b&gt; dialog if no flatten result after convert clip to paths." />
    <inkscape:path-effect
       effect="powerclip"
       id="path-effect15"
       is_visible="true"
       lpeversion="1"
       inverse="true"
       flatten="false"
       hide_clip="false"
       message="Use fill-rule evenodd on &lt;b&gt;fill and stroke&lt;/b&gt; dialog if no flatten result after convert clip to paths." />
    <clipPath
       clipPathUnits="userSpaceOnUse"
       id="clipPath11">
      <path
         style="display:none;fill:#ffffff"
         d="M 32.000002,9.9999998 C 19.861159,9.9999998 10,19.861158 10,31.999998 10,44.13884 19.861159,54.000002 32.000002,54 44.138842,54 54.000008,44.13884 54,31.999998 54,19.861158 44.138842,9.9999998 32.000002,9.9999998 Z"
         id="path13" />
      <path
         id="lpe_path-effect15"
         style="fill:#ffffff"
         class="powerclip"
         d="M -1,-0.9999998 H 65 V 65 H -1 Z M 32.000002,9.9999998 C 19.861159,9.9999998 10,19.861158 10,31.999998 10,44.13884 19.861159,54.000002 32.000002,54 44.138842,54 54.000008,44.13884 54,31.999998 54,19.861158 44.138842,9.9999998 32.000002,9.9999998 Z" />
    </clipPath>
    <clipPath
       clipPathUnits="userSpaceOnUse"
       id="clipPath81">
      <path
         style="display:none;fill:#ffffff"
         d="m 32,30 c -1.10353,0 -2,0.89647 -2,2 0,1.10353 0.89647,2 2,2 1.10353,0 2,-0.89647 2,-2 0,-1.10353 -0.89647,-2 -2,-2 z"
         id="path83" />
      <path
         id="lpe_path-effect85"
         style="fill:#ffffff"
         class="powerclip"
         d="M 8.999597,10.999936 H 47.000552 V 47.001201 H 8.999597 Z M 32,30 c -1.10353,0 -2,0.89647 -2,2 0,1.10353 0.89647,2 2,2 1.10353,0 2,-0.89647 2,-2 0,-1.10353 -0.89647,-2 -2,-2 z" />
    </clipPath>
  </defs>
  <sodipodi:namedview
     id="namedview32"
     pagecolor="#ffffff"
     bordercolor="#666666"
     borderopacity="1.0"
     inkscape:pageshadow="2"
     inkscape:pageopacity="0.0"
     inkscape:pagecheckerboard="0"
     showgrid="false"
     inkscape:zoom="12.859375"
     inkscape:cx="32.077764"
     inkscape:cy="32"
     inkscape:window-width="1920"
     inkscape:window-height="996"
     inkscape:window-x="0"
     inkscape:window-y="0"
     inkscape:window-maximized="1"
     inkscape:current-layer="svg30" />
  <path
     style="fill:#29292a"
     d="M 32,4.0000002 C 16.55057,4.0000002 4,16.550566 4,32 4,47.449434 16.55057,60.000004 32,60 47.44943,60 60.000014,47.449434 60,32 60,16.550566 47.44943,4.0000002 32,4.0000002 Z"
     id="path4"
     clip-path="url(#clipPath11)"
     inkscape:path-effect="#path-effect15"
     inkscape:original-d="M 32,4.0000002 C 16.55057,4.0000002 4,16.550566 4,32 4,47.449434 16.55057,60.000004 32,60 47.44943,60 60.000014,47.449434 60,32 60,16.550566 47.44943,4.0000002 32,4.0000002 Z" />
  <path
     id="path14"
     style="color:#000000;fill:#29292a;stroke-linecap:round;stroke-linejoin:round;-inkscape-stroke:none"
     d="m 39.884766,16 a 2.0999999,2.0999999 0 0 0 -0.542969,0.07617 2.0999999,2.0999999 0 0 0 -1.267578,0.986328 l -6.21875,10.941406 C 29.715507,28.080484 28,29.841546 28,32 c 0,0.162745 0.01231,0.32278 0.03125,0.480469 l -13.275391,6.876953 a 1.4,1.4 0 0 0 -0.599609,1.886719 1.4,1.4 0 0 0 1.888672,0.599609 L 29.316406,34.966797 C 30.026261,35.609411 30.968399,36 32,36 c 2.20706,0 4,-1.79294 4,-4 0,-0.696302 -0.178571,-1.351307 -0.492188,-1.921875 l 6.21875,-10.941406 A 2.0999999,2.0999999 0 0 0 40.9375,16.273438 2.0999999,2.0999999 0 0 0 39.884766,16 Z"
     clip-path="url(#clipPath81)"
     inkscape:path-effect="#path-effect85"
     inkscape:original-d="M 39.884766 16 A 2.0999999 2.0999999 0 0 0 39.341797 16.076172 A 2.0999999 2.0999999 0 0 0 38.074219 17.0625 L 31.855469 28.003906 C 29.715507 28.080484 28 29.841546 28 32 C 28 32.162745 28.012305 32.32278 28.03125 32.480469 L 14.755859 39.357422 A 1.4 1.4 0 0 0 14.15625 41.244141 A 1.4 1.4 0 0 0 16.044922 41.84375 L 29.316406 34.966797 C 30.026261 35.609411 30.968399 36 32 36 C 34.20706 36 36 34.20706 36 32 C 36 31.303698 35.821429 30.648693 35.507812 30.078125 L 41.726562 19.136719 A 2.0999999 2.0999999 0 0 0 40.9375 16.273438 A 2.0999999 2.0999999 0 0 0 39.884766 16 z " />
</svg>
