<?xml version="1.0" encoding="UTF-8" standalone="no"?>
<svg
   width="64"
   height="64"
   version="1.1"
   id="svg20"
   sodipodi:docname="librecad.svg"
   inkscape:version="1.1 (1:1.1+202106031931+af4d65493e)"
   xmlns:inkscape="http://www.inkscape.org/namespaces/inkscape"
   xmlns:sodipodi="http://sodipodi.sourceforge.net/DTD/sodipodi-0.dtd"
   xmlns="http://www.w3.org/2000/svg"
   xmlns:svg="http://www.w3.org/2000/svg">
  <g
     id="g455"
     transform="matrix(1.0319426,0,0,1.0776639,-0.06388528,-2.4915523)">
    <path
       style="fill:#29292a"
       id="circle4"
       clip-path="url(#clipPath426)"
       inkscape:path-effect="#path-effect430"
       sodipodi:type="arc"
       sodipodi:cx="32"
       sodipodi:cy="32"
       sodipodi:rx="28"
       sodipodi:ry="28"
       d="M 60,32 A 28,28 0 0 1 32,60 28,28 0 0 1 4,32 28,28 0 0 1 32,4 28,28 0 0 1 60,32 Z" />
    <path
       style="fill:#29292a"
       d="M 5.3242188,29 A 28,21 0 0 0 5,31.994141 28.571428,30.000009 0 0 0 5,32 28.571428,30.000009 0 0 0 5.09375,33.628906 28,21 0 0 0 5.3164062,35 H 59.828125 A 28,28 0 0 0 60,32 28,28 0 0 0 59.806641,29 Z"
       id="path14" />
    <rect
       style="fill:#29292a"
       width="16"
       height="16"
       x="2"
       y="24"
       rx="2.6670001"
       ry="2.6670001"
       id="rect18" />
  </g>
  <defs
     id="defs24">
    <inkscape:path-effect
       effect="powerclip"
       id="path-effect430"
       is_visible="true"
       lpeversion="1"
       inverse="true"
       flatten="false"
       hide_clip="false"
       message="Use fill-rule evenodd on &lt;b&gt;fill and stroke&lt;/b&gt; dialog if no flatten result after convert clip to paths." />
    <clipPath
       clipPathUnits="userSpaceOnUse"
       id="clipPath426">
      <circle
         style="display:none;fill:#ffffff"
         cx="32"
         cy="32"
         r="20"
         id="circle428"
         d="M 52,32 A 20,20 0 0 1 32,52 20,20 0 0 1 12,32 20,20 0 0 1 32,12 20,20 0 0 1 52,32 Z" />
      <path
         id="lpe_path-effect430"
         style="fill:#ffffff"
         class="powerclip"
         d="M -1,-1 H 65 V 65 H -1 Z M 52,32 A 20,20 0 0 0 32,12 20,20 0 0 0 12,32 20,20 0 0 0 32,52 20,20 0 0 0 52,32 Z" />
    </clipPath>
  </defs>
  <sodipodi:namedview
     id="namedview22"
     pagecolor="#ffffff"
     bordercolor="#666666"
     borderopacity="1.0"
     inkscape:pageshadow="2"
     inkscape:pageopacity="0.0"
     inkscape:pagecheckerboard="0"
     showgrid="false"
     inkscape:zoom="12.859375"
     inkscape:cx="32"
     inkscape:cy="23.523694"
     inkscape:window-width="1920"
     inkscape:window-height="996"
     inkscape:window-x="0"
     inkscape:window-y="0"
     inkscape:window-maximized="1"
     inkscape:current-layer="svg20" />
</svg>
