<?xml version="1.0" encoding="UTF-8" standalone="no"?>
<svg
   width="64"
   height="64"
   version="1"
   id="svg20"
   sodipodi:docname="libreoffice-base.svg"
   inkscape:version="1.1 (1:1.1+202106031931+af4d65493e)"
   xmlns:inkscape="http://www.inkscape.org/namespaces/inkscape"
   xmlns:sodipodi="http://sodipodi.sourceforge.net/DTD/sodipodi-0.dtd"
   xmlns="http://www.w3.org/2000/svg"
   xmlns:svg="http://www.w3.org/2000/svg">
  <g
     id="g365"
     style="fill:#123354">
    <path
       style="fill:#29292a;stroke-width:1.64145"
       width="59.179001"
       height="59.005726"
       x="2.6433158"
       y="2.6914988"
       rx="4.5518732"
       ry="4.5385237"
       id="rect16"
       clip-path="url(#clipPath334)"
       inkscape:path-effect="#path-effect338"
       d="m 7.195189,2.6914988 h 50.075254 c 2.521738,0 4.551874,2.0241815 4.551874,4.5385236 V 57.158701 c 0,2.514342 -2.030136,4.538524 -4.551874,4.538524 H 7.195189 c -2.5217378,0 -4.5518732,-2.024182 -4.5518732,-4.538524 V 7.2300224 c 0,-2.5143421 2.0301354,-4.5385236 4.5518732,-4.5385236 z"
       sodipodi:type="rect" />
  </g>
  <defs
     id="defs24">
    <inkscape:path-effect
       effect="powerclip"
       id="path-effect338"
       is_visible="true"
       lpeversion="1"
       inverse="true"
       flatten="false"
       hide_clip="false"
       message="Use fill-rule evenodd on &lt;b&gt;fill and stroke&lt;/b&gt; dialog if no flatten result after convert clip to paths." />
    <inkscape:path-effect
       effect="powerclip"
       id="path-effect358"
       is_visible="true"
       lpeversion="1"
       inverse="true"
       flatten="false"
       hide_clip="false"
       message="Use fill-rule evenodd on &lt;b&gt;fill and stroke&lt;/b&gt; dialog if no flatten result after convert clip to paths." />
    <inkscape:path-effect
       effect="powerclip"
       id="path-effect190"
       is_visible="true"
       lpeversion="1"
       inverse="true"
       flatten="false"
       hide_clip="false"
       message="Use fill-rule evenodd on &lt;b&gt;fill and stroke&lt;/b&gt; dialog if no flatten result after convert clip to paths." />
    <clipPath
       clipPathUnits="userSpaceOnUse"
       id="clipPath186">
      <rect
         style="display:block;opacity:0.2"
         width="36"
         height="36"
         x="5.391973"
         y="5.6022935"
         rx="2.7690001"
         ry="2.7690001"
         id="rect188" />
    </clipPath>
    <clipPath
       clipPathUnits="userSpaceOnUse"
       id="clipPath354">
      <rect
         style="display:block;opacity:0.2"
         width="36"
         height="36"
         x="15.620633"
         y="15.638589"
         rx="2.7690001"
         ry="2.7690001"
         id="rect356" />
    </clipPath>
    <clipPath
       clipPathUnits="userSpaceOnUse"
       id="clipPath334">
      <path
         style="display:none;fill:#123354;stroke-width:1.80555"
         d="m 32.661603,10.672342 -0.0065,0.0075 c -7.131311,0 -13.224362,2.726877 -15.748575,6.587963 -0.211892,0.324153 -0.397918,0.653247 -0.557824,0.992502 -0.151982,0.322412 -0.282854,0.650617 -0.385162,0.98501 a 17.000357,10.542957 0 0 0 -0.06974,0.307114 c -0.05827,0.226618 -0.121452,0.454181 -0.156062,0.685388 a 17.000357,10.542957 0 0 0 -0.083,0.98501 c 9.54e-4,0.342577 0.03186,0.686519 0.08632,1.026209 a 17.000357,10.542957 0 0 0 0.232428,0.98501 17.000357,10.542957 0 0 0 0.391805,0.985012 17.000357,10.542957 0 0 0 0.541222,0.958795 17.000357,10.542957 0 0 0 15.748574,6.587962 17.000357,10.542957 0 0 0 15.748573,-6.587962 17.000357,10.542957 0 0 0 0.0034,-0.01135 17.000357,10.542957 0 0 0 0.461532,-0.812727 c 0.02687,-0.05345 0.06073,-0.107386 0.08632,-0.161039 a 17.000357,10.542957 0 0 0 0.27891,-0.700367 c 0.03963,-0.110303 0.08897,-0.21857 0.122862,-0.329587 a 17.000357,10.542957 0 0 0 0.139453,-0.584265 c 0.03264,-0.154577 0.06794,-0.30892 0.08964,-0.464414 a 17.000357,10.542957 0 0 0 0.06965,-0.89131 17.000357,10.542957 0 0 0 -0.08964,-1.048683 C 49.409293,19.146226 49.005215,18.173381 48.410202,17.264062 45.883948,13.401435 39.791579,10.672355 32.661629,10.672355 Z M 16.906389,29.848221 a 17.000357,9.7614996 0 0 0 -1.251784,3.662891 17.000357,9.7614996 0 0 0 17.000357,9.760222 17.000357,9.7614996 0 0 0 17.000358,-9.763967 17.000357,9.7614996 0 0 0 -1.251783,-3.659146 17.000357,9.7614996 0 0 1 -15.748575,6.101075 17.000357,9.7614996 0 0 1 -15.748573,-6.101075 z m 0,11.505526 a 17.000357,9.7614996 0 0 0 -1.251784,3.659146 17.000357,9.7614996 0 0 0 17.000357,9.763969 17.000357,9.7614996 0 0 0 17.000358,-9.760223 17.000357,9.7614996 0 0 0 -1.251783,-3.662892 17.000357,9.7614996 0 0 1 -15.748575,6.10482 17.000357,9.7614996 0 0 1 -15.748573,-6.10482 z"
         id="path336" />
      <path
         id="lpe_path-effect338"
         style="fill:#123354;stroke-width:1.80555"
         class="powerclip"
         d="M -2.3566842,-2.3085012 H 66.822317 V 66.697225 H -2.3566842 Z m 35.0182872,12.9808432 -0.0065,0.0075 c -7.131311,0 -13.224362,2.726877 -15.748575,6.587963 -0.211892,0.324153 -0.397918,0.653247 -0.557824,0.992502 -0.151982,0.322412 -0.282854,0.650617 -0.385162,0.98501 a 17.000357,10.542957 0 0 0 -0.06974,0.307114 c -0.05827,0.226618 -0.121452,0.454181 -0.156062,0.685388 a 17.000357,10.542957 0 0 0 -0.083,0.98501 c 9.54e-4,0.342577 0.03186,0.686519 0.08632,1.026209 a 17.000357,10.542957 0 0 0 0.232428,0.98501 17.000357,10.542957 0 0 0 0.391805,0.985012 17.000357,10.542957 0 0 0 0.541222,0.958795 17.000357,10.542957 0 0 0 15.748574,6.587962 17.000357,10.542957 0 0 0 15.748573,-6.587962 17.000357,10.542957 0 0 0 0.0034,-0.01135 17.000357,10.542957 0 0 0 0.461532,-0.812727 c 0.02687,-0.05345 0.06073,-0.107386 0.08632,-0.161039 a 17.000357,10.542957 0 0 0 0.27891,-0.700367 c 0.03963,-0.110303 0.08897,-0.21857 0.122862,-0.329587 a 17.000357,10.542957 0 0 0 0.139453,-0.584265 c 0.03264,-0.154577 0.06794,-0.30892 0.08964,-0.464414 a 17.000357,10.542957 0 0 0 0.06965,-0.89131 17.000357,10.542957 0 0 0 -0.08964,-1.048683 C 49.409293,19.146226 49.005215,18.173381 48.410202,17.264062 45.883948,13.401435 39.791579,10.672355 32.661629,10.672355 Z M 16.906389,29.848221 a 17.000357,9.7614996 0 0 0 -1.251784,3.662891 17.000357,9.7614996 0 0 0 17.000357,9.760222 17.000357,9.7614996 0 0 0 17.000358,-9.763967 17.000357,9.7614996 0 0 0 -1.251783,-3.659146 17.000357,9.7614996 0 0 1 -15.748575,6.101075 17.000357,9.7614996 0 0 1 -15.748573,-6.101075 z m 0,11.505526 a 17.000357,9.7614996 0 0 0 -1.251784,3.659146 17.000357,9.7614996 0 0 0 17.000357,9.763969 17.000357,9.7614996 0 0 0 17.000358,-9.760223 17.000357,9.7614996 0 0 0 -1.251783,-3.662892 17.000357,9.7614996 0 0 1 -15.748575,6.10482 17.000357,9.7614996 0 0 1 -15.748573,-6.10482 z" />
    </clipPath>
  </defs>
  <sodipodi:namedview
     id="namedview22"
     pagecolor="#ffffff"
     bordercolor="#666666"
     borderopacity="1.0"
     inkscape:pageshadow="2"
     inkscape:pageopacity="0.0"
     inkscape:pagecheckerboard="0"
     showgrid="false"
     inkscape:zoom="12.859375"
     inkscape:cx="32.116646"
     inkscape:cy="32"
     inkscape:window-width="1567"
     inkscape:window-height="738"
     inkscape:window-x="73"
     inkscape:window-y="371"
     inkscape:window-maximized="0"
     inkscape:current-layer="g365" />
</svg>
