<?xml version="1.0" encoding="UTF-8" standalone="no"?>
<svg
   width="64"
   height="64"
   version="1"
   id="svg20"
   sodipodi:docname="libreoffice-calc.svg"
   inkscape:version="1.1 (1:1.1+202106031931+af4d65493e)"
   xmlns:inkscape="http://www.inkscape.org/namespaces/inkscape"
   xmlns:sodipodi="http://sodipodi.sourceforge.net/DTD/sodipodi-0.dtd"
   xmlns="http://www.w3.org/2000/svg"
   xmlns:svg="http://www.w3.org/2000/svg">
  <g
     id="g365"
     style="fill:#123354">
    <path
       style="fill:#29292a;stroke-width:1.64145"
       width="59.179001"
       height="59.005726"
       x="2.6433158"
       y="2.6914988"
       rx="4.5518732"
       ry="4.5385237"
       id="rect16"
       sodipodi:type="rect"
       clip-path="url(#clipPath381)"
       inkscape:path-effect="#path-effect385"
       d="m 7.195189,2.6914988 h 50.075254 c 2.521738,0 4.551874,2.0241815 4.551874,4.5385236 V 57.158701 c 0,2.514342 -2.030136,4.538524 -4.551874,4.538524 H 7.195189 c -2.5217378,0 -4.5518732,-2.024182 -4.5518732,-4.538524 V 7.2300224 c 0,-2.5143421 2.0301354,-4.5385236 4.5518732,-4.5385236 z" />
  </g>
  <defs
     id="defs24">
    <inkscape:path-effect
       effect="powerclip"
       id="path-effect385"
       is_visible="true"
       lpeversion="1"
       inverse="true"
       flatten="false"
       hide_clip="false"
       message="Use fill-rule evenodd on &lt;b&gt;fill and stroke&lt;/b&gt; dialog if no flatten result after convert clip to paths." />
    <inkscape:path-effect
       effect="powerclip"
       id="path-effect358"
       is_visible="true"
       lpeversion="1"
       inverse="true"
       flatten="false"
       hide_clip="false"
       message="Use fill-rule evenodd on &lt;b&gt;fill and stroke&lt;/b&gt; dialog if no flatten result after convert clip to paths." />
    <inkscape:path-effect
       effect="powerclip"
       id="path-effect190"
       is_visible="true"
       lpeversion="1"
       inverse="true"
       flatten="false"
       hide_clip="false"
       message="Use fill-rule evenodd on &lt;b&gt;fill and stroke&lt;/b&gt; dialog if no flatten result after convert clip to paths." />
    <clipPath
       clipPathUnits="userSpaceOnUse"
       id="clipPath186">
      <rect
         style="display:block;opacity:0.2"
         width="36"
         height="36"
         x="5.391973"
         y="5.6022935"
         rx="2.7690001"
         ry="2.7690001"
         id="rect188" />
    </clipPath>
    <clipPath
       clipPathUnits="userSpaceOnUse"
       id="clipPath354">
      <rect
         style="display:block;opacity:0.2"
         width="36"
         height="36"
         x="15.620633"
         y="15.638589"
         rx="2.7690001"
         ry="2.7690001"
         id="rect356" />
    </clipPath>
    <clipPath
       clipPathUnits="userSpaceOnUse"
       id="clipPath381">
      <path
         style="display:none;fill:#123354;stroke-width:1.87398"
         d="M 8.1179237,50.766465 H 55.928686 V 15.509544 H 8.1179237 Z M 12.102155,19.035235 H 30.03119 v 7.051384 H 12.102155 Z m 21.913266,0 h 17.929034 v 7.051384 H 34.015421 Z M 12.102155,29.612312 H 30.03119 v 7.051384 H 12.102155 Z m 21.913266,0 h 17.929034 v 7.051384 H 34.015421 Z M 12.102155,40.189388 H 30.03119 v 7.051385 H 12.102155 Z m 21.913266,0 h 17.929034 v 7.051385 H 34.015421 Z"
         id="path383" />
      <path
         id="lpe_path-effect385"
         style="fill:#123354;stroke-width:1.87398"
         class="powerclip"
         d="M -2.3566842,-2.3085012 H 66.822317 V 66.697225 H -2.3566842 Z M 8.1179237,50.766465 H 55.928686 V 15.509544 H 8.1179237 Z m 3.9842313,-31.73123 v 7.051384 H 30.03119 v -7.051384 z m 21.913266,0 v 7.051384 H 51.944455 V 19.035235 Z M 12.102155,29.612312 v 7.051384 H 30.03119 v -7.051384 z m 21.913266,0 v 7.051384 H 51.944455 V 29.612312 Z M 12.102155,40.189388 v 7.051385 H 30.03119 v -7.051385 z m 21.913266,0 v 7.051385 h 17.929034 v -7.051385 z" />
    </clipPath>
  </defs>
  <sodipodi:namedview
     id="namedview22"
     pagecolor="#ffffff"
     bordercolor="#666666"
     borderopacity="1.0"
     inkscape:pageshadow="2"
     inkscape:pageopacity="0.0"
     inkscape:pagecheckerboard="0"
     showgrid="false"
     inkscape:zoom="12.859375"
     inkscape:cx="32.116646"
     inkscape:cy="32"
     inkscape:window-width="1567"
     inkscape:window-height="738"
     inkscape:window-x="153"
     inkscape:window-y="305"
     inkscape:window-maximized="0"
     inkscape:current-layer="g365" />
</svg>
