<?xml version="1.0" encoding="UTF-8" standalone="no"?>
<svg
   width="64"
   height="64"
   version="1"
   id="svg20"
   sodipodi:docname="libreoffice-math.svg"
   inkscape:version="1.1 (1:1.1+202106031931+af4d65493e)"
   xmlns:inkscape="http://www.inkscape.org/namespaces/inkscape"
   xmlns:sodipodi="http://sodipodi.sourceforge.net/DTD/sodipodi-0.dtd"
   xmlns="http://www.w3.org/2000/svg"
   xmlns:svg="http://www.w3.org/2000/svg">
  <g
     id="g365"
     style="fill:#123354">
    <path
       style="fill:#29292a;stroke-width:1.64145"
       width="59.179001"
       height="59.005726"
       x="2.6433158"
       y="2.6914988"
       rx="4.5518732"
       ry="4.5385237"
       id="rect16"
       sodipodi:type="rect"
       clip-path="url(#clipPath481)"
       inkscape:path-effect="#path-effect485"
       d="m 7.195189,2.6914988 h 50.075254 c 2.521738,0 4.551874,2.0241815 4.551874,4.5385236 V 57.158701 c 0,2.514342 -2.030136,4.538524 -4.551874,4.538524 H 7.195189 c -2.5217378,0 -4.5518732,-2.024182 -4.5518732,-4.538524 V 7.2300224 c 0,-2.5143421 2.0301354,-4.5385236 4.5518732,-4.5385236 z" />
  </g>
  <defs
     id="defs24">
    <inkscape:path-effect
       effect="powerclip"
       id="path-effect485"
       is_visible="true"
       lpeversion="1"
       inverse="true"
       flatten="false"
       hide_clip="false"
       message="Use fill-rule evenodd on &lt;b&gt;fill and stroke&lt;/b&gt; dialog if no flatten result after convert clip to paths." />
    <inkscape:path-effect
       effect="powerclip"
       id="path-effect358"
       is_visible="true"
       lpeversion="1"
       inverse="true"
       flatten="false"
       hide_clip="false"
       message="Use fill-rule evenodd on &lt;b&gt;fill and stroke&lt;/b&gt; dialog if no flatten result after convert clip to paths." />
    <inkscape:path-effect
       effect="powerclip"
       id="path-effect190"
       is_visible="true"
       lpeversion="1"
       inverse="true"
       flatten="false"
       hide_clip="false"
       message="Use fill-rule evenodd on &lt;b&gt;fill and stroke&lt;/b&gt; dialog if no flatten result after convert clip to paths." />
    <clipPath
       clipPathUnits="userSpaceOnUse"
       id="clipPath186">
      <rect
         style="display:block;opacity:0.2"
         width="36"
         height="36"
         x="5.391973"
         y="5.6022935"
         rx="2.7690001"
         ry="2.7690001"
         id="rect188" />
    </clipPath>
    <clipPath
       clipPathUnits="userSpaceOnUse"
       id="clipPath354">
      <rect
         style="display:block;opacity:0.2"
         width="36"
         height="36"
         x="15.620633"
         y="15.638589"
         rx="2.7690001"
         ry="2.7690001"
         id="rect356" />
    </clipPath>
    <clipPath
       clipPathUnits="userSpaceOnUse"
       id="clipPath481">
      <path
         style="display:none;fill:#123354;stroke-width:1.75305"
         d="M 32.126774,13.815102 24.459437,40.347756 18.765359,26.118161 H 7.6986756 v 5.255112 h 7.8451704 l 7.667338,19.299595 h 3.399346 l 9.120784,-31.588943 h 15.741639 v -5.268823 z m 2.616196,14.051336 8.337633,10.705619 -9.117361,12.111093 h 4.55184 l 6.829472,-9.18359 6.829472,9.18359 h 4.551841 L 47.793179,38.78802 56.284704,27.866438 h -4.54842 l -6.220737,7.994078 -6.227574,-7.994078 z"
         id="path483" />
      <path
         id="lpe_path-effect485"
         style="fill:#123354;stroke-width:1.75305"
         class="powerclip"
         d="M -2.3566842,-2.3085012 H 66.822317 V 66.697225 H -2.3566842 Z M 32.126774,13.815102 24.459437,40.347756 18.765359,26.118161 H 7.6986756 v 5.255112 h 7.8451704 l 7.667338,19.299595 h 3.399346 l 9.120784,-31.588943 h 15.741639 v -5.268823 z m 2.616196,14.051336 8.337633,10.705619 -9.117361,12.111093 h 4.55184 l 6.829472,-9.18359 6.829472,9.18359 h 4.551841 L 47.793179,38.78802 56.284704,27.866438 h -4.54842 l -6.220737,7.994078 -6.227574,-7.994078 z" />
    </clipPath>
  </defs>
  <sodipodi:namedview
     id="namedview22"
     pagecolor="#ffffff"
     bordercolor="#666666"
     borderopacity="1.0"
     inkscape:pageshadow="2"
     inkscape:pageopacity="0.0"
     inkscape:pagecheckerboard="0"
     showgrid="false"
     inkscape:zoom="12.859375"
     inkscape:cx="32.116646"
     inkscape:cy="32"
     inkscape:window-width="1567"
     inkscape:window-height="738"
     inkscape:window-x="204"
     inkscape:window-y="152"
     inkscape:window-maximized="0"
     inkscape:current-layer="g365" />
</svg>
