<?xml version="1.0" encoding="UTF-8" standalone="no"?>
<svg
   width="64"
   height="64"
   version="1"
   id="svg20"
   sodipodi:docname="libreoffice-impress.svg"
   inkscape:version="1.1 (1:1.1+202106031931+af4d65493e)"
   xmlns:inkscape="http://www.inkscape.org/namespaces/inkscape"
   xmlns:sodipodi="http://sodipodi.sourceforge.net/DTD/sodipodi-0.dtd"
   xmlns="http://www.w3.org/2000/svg"
   xmlns:svg="http://www.w3.org/2000/svg">
  <g
     id="g365"
     style="fill:#123354">
    <path
       style="fill:#29292a;stroke-width:1.64145"
       width="59.179001"
       height="59.005726"
       x="2.6433158"
       y="2.6914988"
       rx="4.5518732"
       ry="4.5385237"
       id="rect16"
       sodipodi:type="rect"
       clip-path="url(#clipPath723)"
       inkscape:path-effect="#path-effect727"
       d="m 7.195189,2.6914988 h 50.075254 c 2.521738,0 4.551874,2.0241815 4.551874,4.5385236 V 57.158701 c 0,2.514342 -2.030136,4.538524 -4.551874,4.538524 H 7.195189 c -2.5217378,0 -4.5518732,-2.024182 -4.5518732,-4.538524 V 7.2300224 c 0,-2.5143421 2.0301354,-4.5385236 4.5518732,-4.5385236 z" />
  </g>
  <defs
     id="defs24">
    <inkscape:path-effect
       effect="powerclip"
       id="path-effect727"
       is_visible="true"
       lpeversion="1"
       inverse="true"
       flatten="false"
       hide_clip="false"
       message="Use fill-rule evenodd on &lt;b&gt;fill and stroke&lt;/b&gt; dialog if no flatten result after convert clip to paths." />
    <inkscape:path-effect
       effect="powerclip"
       id="path-effect358"
       is_visible="true"
       lpeversion="1"
       inverse="true"
       flatten="false"
       hide_clip="false"
       message="Use fill-rule evenodd on &lt;b&gt;fill and stroke&lt;/b&gt; dialog if no flatten result after convert clip to paths." />
    <inkscape:path-effect
       effect="powerclip"
       id="path-effect190"
       is_visible="true"
       lpeversion="1"
       inverse="true"
       flatten="false"
       hide_clip="false"
       message="Use fill-rule evenodd on &lt;b&gt;fill and stroke&lt;/b&gt; dialog if no flatten result after convert clip to paths." />
    <clipPath
       clipPathUnits="userSpaceOnUse"
       id="clipPath186">
      <rect
         style="display:block;opacity:0.2"
         width="36"
         height="36"
         x="5.391973"
         y="5.6022935"
         rx="2.7690001"
         ry="2.7690001"
         id="rect188" />
    </clipPath>
    <clipPath
       clipPathUnits="userSpaceOnUse"
       id="clipPath354">
      <rect
         style="display:block;opacity:0.2"
         width="36"
         height="36"
         x="15.620633"
         y="15.638589"
         rx="2.7690001"
         ry="2.7690001"
         id="rect356" />
    </clipPath>
    <clipPath
       clipPathUnits="userSpaceOnUse"
       id="clipPath723">
      <path
         style="display:none;fill:#123354;stroke-width:2.0259"
         d="m 16.5366,16.291672 c -5.802522,0 -10.5062358,4.974932 -10.5062358,11.112027 0,6.137096 4.7037138,11.112029 10.5062358,11.112029 5.80252,0 10.506233,-4.974933 10.506233,-11.112029 H 16.535417 Z m 15.759154,2.779361 v 4.166959 h 26.265391 v -4.166959 z m 0,12.500876 v 4.166957 H 58.561145 V 31.571909 Z M 8.6570209,44.072783 V 48.23974 H 48.05491 v -4.166957 z"
         id="path725" />
      <path
         id="lpe_path-effect727"
         style="fill:#123354;stroke-width:2.0259"
         class="powerclip"
         d="M -2.3566842,-2.3085012 H 66.822317 V 66.697225 H -2.3566842 Z M 16.5366,16.291672 c -5.802522,0 -10.5062358,4.974932 -10.5062358,11.112027 0,6.137096 4.7037138,11.112029 10.5062358,11.112029 5.80252,0 10.506233,-4.974933 10.506233,-11.112029 H 16.535417 Z m 15.759154,2.779361 v 4.166959 h 26.265391 v -4.166959 z m 0,12.500876 v 4.166957 H 58.561145 V 31.571909 Z M 8.6570209,44.072783 V 48.23974 H 48.05491 v -4.166957 z" />
    </clipPath>
  </defs>
  <sodipodi:namedview
     id="namedview22"
     pagecolor="#ffffff"
     bordercolor="#666666"
     borderopacity="1.0"
     inkscape:pageshadow="2"
     inkscape:pageopacity="0.0"
     inkscape:pagecheckerboard="0"
     showgrid="false"
     inkscape:zoom="12.859375"
     inkscape:cx="32.116646"
     inkscape:cy="32"
     inkscape:window-width="1567"
     inkscape:window-height="738"
     inkscape:window-x="99"
     inkscape:window-y="163"
     inkscape:window-maximized="0"
     inkscape:current-layer="g365" />
</svg>
