<?xml version="1.0" encoding="UTF-8" standalone="no"?>
<svg
   width="64"
   height="64"
   version="1"
   id="svg20"
   sodipodi:docname="libreoffice-draw.svg"
   inkscape:version="1.1 (1:1.1+202106031931+af4d65493e)"
   xmlns:inkscape="http://www.inkscape.org/namespaces/inkscape"
   xmlns:sodipodi="http://sodipodi.sourceforge.net/DTD/sodipodi-0.dtd"
   xmlns="http://www.w3.org/2000/svg"
   xmlns:svg="http://www.w3.org/2000/svg">
  <g
     id="g365"
     style="fill:#123354">
    <path
       style="fill:#29292a;stroke-width:1.64145"
       width="59.179001"
       height="59.005726"
       x="2.6433158"
       y="2.6914988"
       rx="4.5518732"
       ry="4.5385237"
       id="rect16"
       sodipodi:type="rect"
       clip-path="url(#clipPath434)"
       inkscape:path-effect="#path-effect438"
       d="m 7.195189,2.6914988 h 50.075254 c 2.521738,0 4.551874,2.0241815 4.551874,4.5385236 V 57.158701 c 0,2.514342 -2.030136,4.538524 -4.551874,4.538524 H 7.195189 c -2.5217378,0 -4.5518732,-2.024182 -4.5518732,-4.538524 V 7.2300224 c 0,-2.5143421 2.0301354,-4.5385236 4.5518732,-4.5385236 z" />
  </g>
  <defs
     id="defs24">
    <inkscape:path-effect
       effect="powerclip"
       id="path-effect438"
       is_visible="true"
       lpeversion="1"
       inverse="true"
       flatten="false"
       hide_clip="false"
       message="Use fill-rule evenodd on &lt;b&gt;fill and stroke&lt;/b&gt; dialog if no flatten result after convert clip to paths." />
    <inkscape:path-effect
       effect="powerclip"
       id="path-effect358"
       is_visible="true"
       lpeversion="1"
       inverse="true"
       flatten="false"
       hide_clip="false"
       message="Use fill-rule evenodd on &lt;b&gt;fill and stroke&lt;/b&gt; dialog if no flatten result after convert clip to paths." />
    <inkscape:path-effect
       effect="powerclip"
       id="path-effect190"
       is_visible="true"
       lpeversion="1"
       inverse="true"
       flatten="false"
       hide_clip="false"
       message="Use fill-rule evenodd on &lt;b&gt;fill and stroke&lt;/b&gt; dialog if no flatten result after convert clip to paths." />
    <clipPath
       clipPathUnits="userSpaceOnUse"
       id="clipPath186">
      <rect
         style="display:block;opacity:0.2"
         width="36"
         height="36"
         x="5.391973"
         y="5.6022935"
         rx="2.7690001"
         ry="2.7690001"
         id="rect188" />
    </clipPath>
    <clipPath
       clipPathUnits="userSpaceOnUse"
       id="clipPath354">
      <rect
         style="display:block;opacity:0.2"
         width="36"
         height="36"
         x="15.620633"
         y="15.638589"
         rx="2.7690001"
         ry="2.7690001"
         id="rect356" />
    </clipPath>
    <clipPath
       clipPathUnits="userSpaceOnUse"
       id="clipPath434">
      <path
         style="color:#000000;display:none;stroke-linecap:square;-inkscape-stroke:none"
         d="m 48.320312,12.558594 c -0.719366,0.02246 -1.475297,0.189939 -2.220703,0.603515 -2.428445,1.347292 -3.292991,4.136796 -3.25,6.408203 0.04299,2.271408 0.648787,4.493079 1.179688,6.595704 0.530901,2.102624 0.983545,4.088326 0.996094,5.347656 0.0063,0.629665 -0.09312,1.038957 -0.179688,1.226562 -0.08657,0.187606 -0.09372,0.220145 -0.363281,0.355469 -0.529852,0.265992 -0.687589,0.240812 -0.9375,0.181641 -0.249912,-0.05917 -0.673873,-0.271085 -1.234375,-0.78125 -1.121005,-1.020332 -2.55914,-3.114419 -4.1875,-5.392578 -1.62836,-2.27816 -3.49328,-4.770673 -6.078125,-6.609375 -2.584845,-1.838703 -6.068083,-2.877825 -9.929688,-2 l -0.05273,0.01172 -0.05078,0.01367 c -2.636798,0.712544 -4.548609,2.700035 -5.835938,5.013672 -1.287328,2.313637 -2.056609,5.058599 -2.433593,7.958984 -0.08171,0.628626 -0.07329,1.281212 -0.119141,1.921875 -0.447592,-0.01505 -0.849377,-0.06233 -1.306641,-0.07227 l -4.0175779,-0.08789 -2.609375,-0.05664 -0.1152344,5.214843 2.6093751,0.05859 4.0195312,0.08789 c 0.533625,0.0116 0.964706,0.06414 1.476563,0.08398 0.333682,3.545775 1.220834,6.994443 2.970703,9.818359 l 0.05078,0.08203 0.05859,0.07813 c 3.23292,4.441946 8.411562,6.130413 12.539062,4.52539 2.06375,-0.802511 3.840365,-2.74681 4.214844,-5.197265 0.374478,-2.450455 -0.438009,-5.107794 -2.291016,-7.976563 -1.820452,-2.818457 -4.726594,-4.477615 -7.960937,-5.378906 -1.386247,-0.386295 -2.890811,-0.610925 -4.431641,-0.798828 0.03318,-0.543836 0.01735,-1.10314 0.08594,-1.63086 0.311169,-2.394026 0.971687,-4.572077 1.818359,-6.09375 0.833646,-1.498261 1.742311,-2.2436 2.597656,-2.490234 2.43779,-0.5374 4.014663,-0.02394 5.6875,1.166016 1.68897,1.201431 3.306812,3.221241 4.857422,5.390625 1.55061,2.169383 2.987462,4.45806 4.921875,6.21875 0.967207,0.880345 2.115896,1.659699 3.544922,1.998047 1.429026,0.338347 3.056789,0.11802 4.478516,-0.595704 1.237874,-0.621428 2.229732,-1.679114 2.761718,-2.832031 0.531986,-1.152916 0.669464,-2.334815 0.658203,-3.464844 -0.02252,-2.260056 -0.622577,-4.466402 -1.154296,-6.572265 -0.531719,-2.105864 -0.996701,-4.108566 -1.021485,-5.417969 -0.02478,-1.309403 0.04343,-1.457033 0.564453,-1.746094 -0.226673,0.125767 -0.142764,0.005 0.34961,0.136719 0.492374,0.131744 1.229644,0.465894 1.925781,0.873047 1.392274,0.814305 2.578125,1.820312 2.578125,1.820312 l 1.980469,1.697266 3.396484,-3.960937 -1.980469,-1.697266 c 0,0 -1.457627,-1.261279 -3.341797,-2.363281 -0.942084,-0.551001 -2.000593,-1.086306 -3.210937,-1.410156 -0.605172,-0.161926 -1.288446,-0.284179 -2.007813,-0.261719 z M 19.003906,39.117187 c 0.995032,0.147358 2.035345,0.273416 2.855469,0.501954 2.472822,0.689083 3.997763,1.66215 4.980469,3.183593 1.417083,2.193885 1.620248,3.672802 1.515625,4.357422 -0.104624,0.684621 -0.303455,0.872695 -0.947266,1.123047 -1.275409,0.495957 -4.391983,-0.02757 -6.367187,-2.669922 -0.998078,-1.650554 -1.683036,-3.972479 -2.03711,-6.496094 z"
         id="path436" />
      <path
         id="lpe_path-effect438"
         style="color:#000000;stroke-linecap:square;-inkscape-stroke:none"
         class="powerclip"
         d="M -2.3566842,-2.3085012 H 66.822317 V 66.697225 H -2.3566842 Z M 48.320312,12.558594 c -0.719366,0.02246 -1.475297,0.189939 -2.220703,0.603515 -2.428445,1.347292 -3.292991,4.136796 -3.25,6.408203 0.04299,2.271408 0.648787,4.493079 1.179688,6.595704 0.530901,2.102624 0.983545,4.088326 0.996094,5.347656 0.0063,0.629665 -0.09312,1.038957 -0.179688,1.226562 -0.08657,0.187606 -0.09372,0.220145 -0.363281,0.355469 -0.529852,0.265992 -0.687589,0.240812 -0.9375,0.181641 -0.249912,-0.05917 -0.673873,-0.271085 -1.234375,-0.78125 -1.121005,-1.020332 -2.55914,-3.114419 -4.1875,-5.392578 -1.62836,-2.27816 -3.49328,-4.770673 -6.078125,-6.609375 -2.584845,-1.838703 -6.068083,-2.877825 -9.929688,-2 l -0.05273,0.01172 -0.05078,0.01367 c -2.636798,0.712544 -4.548609,2.700035 -5.835938,5.013672 -1.287328,2.313637 -2.056609,5.058599 -2.433593,7.958984 -0.08171,0.628626 -0.07329,1.281212 -0.119141,1.921875 -0.447592,-0.01505 -0.849377,-0.06233 -1.306641,-0.07227 l -4.0175779,-0.08789 -2.609375,-0.05664 -0.1152344,5.214843 2.6093751,0.05859 4.0195312,0.08789 c 0.533625,0.0116 0.964706,0.06414 1.476563,0.08398 0.333682,3.545775 1.220834,6.994443 2.970703,9.818359 l 0.05078,0.08203 0.05859,0.07813 c 3.23292,4.441946 8.411562,6.130413 12.539062,4.52539 2.06375,-0.802511 3.840365,-2.74681 4.214844,-5.197265 0.374478,-2.450455 -0.438009,-5.107794 -2.291016,-7.976563 -1.820452,-2.818457 -4.726594,-4.477615 -7.960937,-5.378906 -1.386247,-0.386295 -2.890811,-0.610925 -4.431641,-0.798828 0.03318,-0.543836 0.01735,-1.10314 0.08594,-1.63086 0.311169,-2.394026 0.971687,-4.572077 1.818359,-6.09375 0.833646,-1.498261 1.742311,-2.2436 2.597656,-2.490234 2.43779,-0.5374 4.014663,-0.02394 5.6875,1.166016 1.68897,1.201431 3.306812,3.221241 4.857422,5.390625 1.55061,2.169383 2.987462,4.45806 4.921875,6.21875 0.967207,0.880345 2.115896,1.659699 3.544922,1.998047 1.429026,0.338347 3.056789,0.11802 4.478516,-0.595704 1.237874,-0.621428 2.229732,-1.679114 2.761718,-2.832031 0.531986,-1.152916 0.669464,-2.334815 0.658203,-3.464844 -0.02252,-2.260056 -0.622577,-4.466402 -1.154296,-6.572265 -0.531719,-2.105864 -0.996701,-4.108566 -1.021485,-5.417969 -0.02478,-1.309403 0.04343,-1.457033 0.564453,-1.746094 -0.226673,0.125767 -0.142764,0.005 0.34961,0.136719 0.492374,0.131744 1.229644,0.465894 1.925781,0.873047 1.392274,0.814305 2.578125,1.820312 2.578125,1.820312 l 1.980469,1.697266 3.396484,-3.960937 -1.980469,-1.697266 c 0,0 -1.457627,-1.261279 -3.341797,-2.363281 -0.942084,-0.551001 -2.000593,-1.086306 -3.210937,-1.410156 -0.605172,-0.161926 -1.288446,-0.284179 -2.007813,-0.261719 z M 19.003906,39.117187 c 0.354074,2.523615 1.039032,4.84554 2.03711,6.496094 1.975204,2.642352 5.091778,3.165879 6.367187,2.669922 0.643811,-0.250352 0.842642,-0.438426 0.947266,-1.123047 0.104623,-0.68462 -0.09854,-2.163537 -1.515625,-4.357422 -0.982706,-1.521443 -2.507647,-2.49451 -4.980469,-3.183593 -0.820124,-0.228538 -1.860437,-0.354596 -2.855469,-0.501954 z" />
    </clipPath>
  </defs>
  <sodipodi:namedview
     id="namedview22"
     pagecolor="#ffffff"
     bordercolor="#666666"
     borderopacity="1.0"
     inkscape:pageshadow="2"
     inkscape:pageopacity="0.0"
     inkscape:pagecheckerboard="0"
     showgrid="false"
     inkscape:zoom="12.859375"
     inkscape:cx="32.116646"
     inkscape:cy="32"
     inkscape:window-width="1567"
     inkscape:window-height="738"
     inkscape:window-x="202"
     inkscape:window-y="286"
     inkscape:window-maximized="0"
     inkscape:current-layer="g365" />
</svg>
