<?xml version="1.0" encoding="UTF-8" standalone="no"?>
<svg
   width="64"
   height="64"
   version="1.1"
   id="svg16"
   sodipodi:docname="microsoft-edge.svg"
   inkscape:version="1.1 (c68e22c387, 2021-05-23)"
   xmlns:inkscape="http://www.inkscape.org/namespaces/inkscape"
   xmlns:sodipodi="http://sodipodi.sourceforge.net/DTD/sodipodi-0.dtd"
   xmlns="http://www.w3.org/2000/svg"
   xmlns:svg="http://www.w3.org/2000/svg">
  <defs
     id="defs20" />
  <sodipodi:namedview
     id="namedview18"
     pagecolor="#ffffff"
     bordercolor="#666666"
     borderopacity="1.0"
     inkscape:pageshadow="2"
     inkscape:pageopacity="0.0"
     inkscape:pagecheckerboard="0"
     showgrid="false"
     inkscape:zoom="12.859375"
     inkscape:cx="32"
     inkscape:cy="32"
     inkscape:window-width="1920"
     inkscape:window-height="996"
     inkscape:window-x="0"
     inkscape:window-y="0"
     inkscape:window-maximized="1"
     inkscape:current-layer="svg16" />
  <path
     style="fill:#29292a"
     class="cls-1"
     d="m 54.542218,45.672735 c -2.683152,2.639902 -6.845336,3.266532 -10.157876,3.282805 -10.350362,0 -19.366462,-7.958643 -19.366462,-17.093801 0.02698,-2.494941 1.401901,-4.780028 3.593754,-5.972738 -9.361696,0.393663 -11.76774,10.147748 -11.76774,15.862418 0,16.157663 14.893408,17.795737 18.102195,17.795737 1.730163,0 4.339628,-0.503014 5.905744,-0.997279 l 0.286537,-0.09622 c 6.026579,-2.08315 11.164276,-6.155726 14.567498,-11.547436 0.486053,-0.765688 -0.370803,-1.67396 -1.16365,-1.233477 z"
     id="path4" />
  <path
     style="fill:#676767"
     class="cls-3"
     d="m 26.286664,56.800266 c -1.950944,-1.210727 -3.641694,-2.79717 -4.973947,-4.66709 -6.46449,-8.855578 -2.537456,-21.39942 7.298917,-26.244175 0.682442,-0.32149 1.848278,-0.903237 3.399084,-0.874803 2.214872,0.0162 4.294409,1.068295 5.619202,2.843117 0.883287,1.179202 1.370292,2.607855 1.391131,4.080968 0,-0.04592 5.350167,-17.408635 -17.498495,-17.408635 -9.602301,0 -17.498497,9.111102 -17.498497,17.104641 -0.037875,4.228476 0.8669923,8.412266 2.6488349,12.24728 6.0277181,12.859241 20.7306341,19.168095 34.2051861,14.677056 -4.612828,1.4542 -10.471057,0.814789 -14.571728,-1.749611 z"
     id="path8" />
  <path
     style="fill:#29292a"
     class="cls-5"
     d="m 37.319323,35.317876 c -0.177175,0.229635 -0.721815,0.546751 -0.721815,1.237849 0,0.570809 0.371846,1.119752 1.032412,1.581213 3.145356,2.187013 9.075159,1.898328 9.090471,1.898328 2.330637,-0.0056 4.6171,-0.636232 6.620993,-1.82616 4.113389,-2.401467 6.64623,-5.562951 6.65599,-10.325547 0.05687,-4.9011 -1.749849,-8.15975 -2.480412,-9.603181 C 52.882048,9.2152035 42.877283,4.0013608 31.997592,4.0013608 16.687407,3.9998474 4.2152981,16.294895 3.9999985,31.601483 4.1049891,23.610133 12.049307,16.195887 21.498496,16.195887 c 0.765556,0 5.131434,0.07436 9.186709,2.202324 3.574068,1.876456 5.446408,5.102572 6.747858,7.348636 1.891605,3.568762 1.973013,6.846579 -0.11374,9.571029 z"
     id="path12" />
</svg>
