<?xml version="1.0" encoding="UTF-8" standalone="no"?>
<svg
   width="64"
   height="64"
   version="1.1"
   id="svg16"
   sodipodi:docname="net.sf.VICE.svg"
   inkscape:version="1.1 (1:1.1+202105261517+ce6663b3b7)"
   xmlns:inkscape="http://www.inkscape.org/namespaces/inkscape"
   xmlns:sodipodi="http://sodipodi.sourceforge.net/DTD/sodipodi-0.dtd"
   xmlns="http://www.w3.org/2000/svg"
   xmlns:svg="http://www.w3.org/2000/svg">
  <defs
     id="defs20">
    <inkscape:path-effect
       effect="powerclip"
       id="path-effect24"
       is_visible="true"
       lpeversion="1"
       inverse="true"
       flatten="false"
       hide_clip="false"
       message="Use fill-rule evenodd on &lt;b&gt;fill and stroke&lt;/b&gt; dialog if no flatten result after convert clip to paths." />
    <clipPath
       clipPathUnits="userSpaceOnUse"
       id="clipPath14">
      <g
         id="g22"
         style="display:none">
        <path
           style="opacity:0.85;fill:#ffffff"
           d="M 31.777778,15 C 22.204842,15 13,22.61116 13,32 13,41.38884 22.204842,49 31.777778,49 34.272032,48.9938 36.735524,48.459512 39,47.433918 v -8.5083 c -1.899302,1.909046 -4.502644,2.987206 -7.222222,2.991048 -5.584212,0 -11.555556,-4.439842 -11.555556,-9.916666 0,-5.476824 5.971344,-9.916666 11.555556,-9.916666 2.717932,9.3e-4 5.321036,1.075006 7.222222,2.97998 V 16.568848 C 36.735738,15.542303 34.272242,15.007168 31.777778,15 Z"
           id="path16" />
        <path
           style="opacity:0.85;fill:#ffffff"
           d="m 39,25.063314 h 14.5 l -5.8,6 H 39 Z"
           id="path18" />
        <path
           style="opacity:0.85;fill:#ffffff"
           d="M 39,39 H 53.5 L 47.7,33 H 39 Z"
           id="path20" />
      </g>
      <path
         id="lpe_path-effect24"
         class="powerclip"
         d="M -2,-2 H 66 V 66 H -2 Z M 31.777778,15 C 22.204842,15 13,22.61116 13,32 13,41.38884 22.204842,49 31.777778,49 34.272032,48.9938 36.735524,48.459512 39,47.433918 v -8.5083 c -1.899302,1.909046 -4.502644,2.987206 -7.222222,2.991048 -5.584212,0 -11.555556,-4.439842 -11.555556,-9.916666 0,-5.476824 5.971344,-9.916666 11.555556,-9.916666 2.717932,9.3e-4 5.321036,1.075006 7.222222,2.97998 V 16.568848 C 36.735738,15.542303 34.272242,15.007168 31.777778,15 Z M 39,25.063314 v 6 h 8.7 l 5.8,-6 z M 39,39 H 53.5 L 47.7,33 H 39 Z" />
    </clipPath>
  </defs>
  <sodipodi:namedview
     id="namedview18"
     pagecolor="#ffffff"
     bordercolor="#666666"
     borderopacity="1.0"
     inkscape:pageshadow="2"
     inkscape:pageopacity="0.0"
     inkscape:pagecheckerboard="0"
     showgrid="false"
     inkscape:zoom="12.859375"
     inkscape:cx="32.077764"
     inkscape:cy="32"
     inkscape:window-width="1920"
     inkscape:window-height="996"
     inkscape:window-x="0"
     inkscape:window-y="0"
     inkscape:window-maximized="1"
     inkscape:current-layer="svg16" />
  <path
     style="fill:#29292a"
     id="circle4"
     clip-path="url(#clipPath14)"
     inkscape:path-effect="#path-effect24"
     sodipodi:type="arc"
     sodipodi:cx="32"
     sodipodi:cy="32"
     sodipodi:rx="29"
     sodipodi:ry="29"
     d="M 61,32 A 29,29 0 0 1 32,61 29,29 0 0 1 3,32 29,29 0 0 1 32,3 29,29 0 0 1 61,32 Z" />
</svg>
