<?xml version="1.0" encoding="UTF-8" standalone="no"?>
<svg
   width="64"
   height="64"
   version="1.1"
   id="svg28"
   sodipodi:docname="net.sourceforge.liferea.svg"
   inkscape:version="1.1 (1:1.1+202105261517+ce6663b3b7)"
   xmlns:inkscape="http://www.inkscape.org/namespaces/inkscape"
   xmlns:sodipodi="http://sodipodi.sourceforge.net/DTD/sodipodi-0.dtd"
   xmlns="http://www.w3.org/2000/svg"
   xmlns:svg="http://www.w3.org/2000/svg"
   xmlns:rdf="http://www.w3.org/1999/02/22-rdf-syntax-ns#"
   xmlns:cc="http://creativecommons.org/ns#"
   xmlns:dc="http://purl.org/dc/elements/1.1/">
  <metadata
     id="metadata34">
    <rdf:RDF>
      <cc:Work
         rdf:about="">
        <dc:format>image/svg+xml</dc:format>
        <dc:type
           rdf:resource="http://purl.org/dc/dcmitype/StillImage" />
        <dc:title />
      </cc:Work>
    </rdf:RDF>
  </metadata>
  <defs
     id="defs32">
    <inkscape:path-effect
       effect="powerclip"
       id="path-effect13"
       is_visible="true"
       lpeversion="1"
       inverse="true"
       flatten="false"
       hide_clip="false"
       message="Use fill-rule evenodd on &lt;b&gt;fill and stroke&lt;/b&gt; dialog if no flatten result after convert clip to paths." />
    <clipPath
       clipPathUnits="userSpaceOnUse"
       id="clipPath9">
      <path
         style="display:none;opacity:0.85;fill:#ffffff;stroke-width:1.79262"
         d="m 32.163181,-2.381963 c -10.407727,0 -18.844822,8.417253 -18.844822,18.800503 0,10.38325 8.437095,18.800504 18.844822,18.800504 10.407726,0 18.84482,-8.417254 18.84482,-18.800504 0,-10.38325 -8.437094,-18.800503 -18.84482,-18.800503 z m -1.887638,3.59329 c 0.219703,-0.0231 0.498685,0.01303 0.720349,0 0.0264,0.10483 -0.159548,0.476965 -0.41013,1.022906 -1.595595,3.477538 -1.685921,7.553908 -0.205055,9.730729 0.267974,0.39467 0.51003,0.769494 0.51003,0.818326 0,0.04882 -0.288422,0.09967 -0.615194,0.09967 -0.767095,0 -1.492855,-0.464918 -2.976055,-1.636652 -0.658884,-0.520523 -1.513714,-0.956736 -1.845571,-1.022911 -0.521121,-0.103875 -0.661383,-0.05889 -1.335538,0.613742 -0.627247,0.625662 -0.820257,0.964213 -0.820257,1.536986 0,2.172039 2.583182,3.893953 7.387547,4.909954 6.524512,1.379582 8.132997,2.620261 8.312965,6.043019 0.22595,4.292039 -2.065804,7.529538 -7.082581,10.034979 -0.59879,0.299138 -0.979156,0.412169 -1.230384,0.508831 -0.111331,-0.01016 -0.193963,0.01016 -0.304962,0 -0.0427,-0.132688 -0.105147,-0.439584 -0.105147,-1.022907 0,-2.279635 -0.89855,-4.625922 -2.2557,-5.938104 -0.364296,-0.352283 -1.387445,-1.097207 -2.26095,-1.636662 -0.873472,-0.539419 -1.754346,-1.164724 -1.950735,-1.432067 -0.325453,-0.443651 -0.349948,-0.717398 -0.09989,-1.536985 0.455702,-1.496873 0.996183,-2.332753 2.050639,-3.278548 0.552808,-0.495844 1.107916,-0.908053 1.230378,-0.917993 0.12249,-0.01015 -0.702112,-0.260331 -1.945472,-0.514075 -1.243274,-0.254236 -3.066277,-0.788292 -4.006612,-1.127816 -1.719486,-0.620711 -4.036462,-1.921066 -4.921531,-2.864142 -0.03746,-0.03996 -0.07263,-0.06952 -0.105158,-0.104902 1.268086,-5.03938 4.825748,-9.167158 9.543348,-11.157554 0.9871,-0.416525 2.007053,-0.704055 3.081213,-0.923239 0.535044,-0.109098 1.088059,-0.148564 1.640507,-0.204578 z m 15.395546,7.679671 c 0.385714,0.237855 1.839961,3.381855 2.255702,4.915196 0.53675,1.979553 0.4979,5.403696 0,7.370173 -0.189498,0.748452 -0.429238,1.449831 -0.510032,1.536984 -0.08078,0.08715 -0.375719,-0.413598 -0.72035,-1.022906 -0.344668,-0.609207 -1.44595,-1.906297 -2.360864,-2.869386 -2.640868,-2.780096 -3.056948,-4.228176 -1.950735,-6.446935 0.557872,-1.118843 2.987759,-3.666941 3.286279,-3.483126 z"
         id="path11" />
      <path
         id="lpe_path-effect13"
         style="opacity:0.85;fill:#ffffff;stroke-width:1.79262"
         class="powerclip"
         d="M -2.8728784,-14.700327 H 67 V 46.725032 H -2.8728784 Z M 32.163181,-2.381963 c -10.407727,0 -18.844822,8.417253 -18.844822,18.800503 0,10.38325 8.437095,18.800504 18.844822,18.800504 10.407726,0 18.84482,-8.417254 18.84482,-18.800504 0,-10.38325 -8.437094,-18.800503 -18.84482,-18.800503 z m -1.887638,3.59329 5.4e-5,7e-6 c -0.552448,0.056014 -1.105463,0.09548 -1.640507,0.204578 -1.07416,0.219184 -2.094113,0.506714 -3.081213,0.923239 -4.7176,1.990396 -8.275262,6.118174 -9.543348,11.157554 0.03253,0.03538 0.0677,0.06494 0.105158,0.104902 0.885069,0.943076 3.202045,2.243431 4.921531,2.864142 0.940335,0.339524 2.763338,0.87358 4.006612,1.127816 1.24336,0.253744 2.067962,0.503925 1.945472,0.514075 -0.122462,0.0099 -0.67757,0.422149 -1.230378,0.917993 -1.054456,0.945795 -1.594937,1.781675 -2.050639,3.278548 -0.250058,0.819587 -0.225563,1.093334 0.09989,1.536985 0.196389,0.267343 1.077263,0.892648 1.950735,1.432067 0.873505,0.539455 1.896654,1.284379 2.26095,1.636662 1.35715,1.312182 2.2557,3.658469 2.2557,5.938104 0,0.583323 0.06245,0.890219 0.105147,1.022907 0.110999,0.01016 0.193631,-0.01016 0.304962,0 0.251228,-0.09666 0.631594,-0.209693 1.230384,-0.508831 5.016777,-2.505441 7.308531,-5.74294 7.082581,-10.034979 -0.179968,-3.422758 -1.788453,-4.663437 -8.312965,-6.043019 -4.804365,-1.016001 -7.387547,-2.737915 -7.387547,-4.909954 0,-0.572773 0.19301,-0.911324 0.820257,-1.536986 0.674155,-0.672632 0.814417,-0.717617 1.335538,-0.613742 0.331857,0.06617 1.186687,0.502388 1.845571,1.022911 1.4832,1.171734 2.20896,1.636652 2.976055,1.636652 0.326772,0 0.615194,-0.05085 0.615194,-0.09967 0,-0.04883 -0.242056,-0.423656 -0.51003,-0.818326 -1.480866,-2.176821 -1.39054,-6.253191 0.205055,-9.730729 0.250582,-0.545941 0.43653,-0.918076 0.41013,-1.022906 -0.221664,0.01303 -0.500646,-0.0231 -0.720349,0 z m 15.395546,7.679671 c -0.29852,-0.183815 -2.728407,2.364283 -3.286279,3.483126 -1.106213,2.218759 -0.690133,3.666839 1.950735,6.446935 0.914914,0.963089 2.016196,2.260179 2.360864,2.869386 0.344631,0.609308 0.63957,1.110056 0.72035,1.022906 0.08079,-0.08715 0.320534,-0.788532 0.510032,-1.536984 0.4979,-1.966477 0.53675,-5.39062 0,-7.370173 C 47.51105,12.272853 46.056803,9.128853 45.671089,8.890998 Z" />
    </clipPath>
  </defs>
  <sodipodi:namedview
     pagecolor="#ffffff"
     bordercolor="#666666"
     borderopacity="1"
     objecttolerance="10"
     gridtolerance="10"
     guidetolerance="10"
     inkscape:pageopacity="0"
     inkscape:pageshadow="2"
     inkscape:window-width="1365"
     inkscape:window-height="871"
     id="namedview30"
     showgrid="false"
     inkscape:zoom="12.890625"
     inkscape:cx="32.038788"
     inkscape:cy="38.477576"
     inkscape:window-x="555"
     inkscape:window-y="125"
     inkscape:window-maximized="0"
     inkscape:current-layer="g26"
     inkscape:document-rotation="0"
     inkscape:pagecheckerboard="0" />
  <g
     transform="translate(0,16)"
     id="g26">
    <path
       style="fill:#29292a;stroke-width:1.10536"
       d="M 5.1207655,41.725032 H 59.006357 C 60.664835,41.725032 62,40.29155 62,38.510947 V -6.4862419 c 0,-1.7806029 -1.335165,-3.2140848 -2.993643,-3.2140848 H 5.1207655 c -1.6584787,0 -2.9936439,1.4334819 -2.9936439,3.2140848 V 38.510947 c 0,1.780603 1.3351652,3.214085 2.9936439,3.214085 z"
       id="path4"
       clip-path="url(#clipPath9)"
       inkscape:path-effect="#path-effect13"
       inkscape:original-d="M 5.1207655,41.725032 H 59.006357 C 60.664835,41.725032 62,40.29155 62,38.510947 V -6.4862419 c 0,-1.7806029 -1.335165,-3.2140848 -2.993643,-3.2140848 H 5.1207655 c -1.6584787,0 -2.9936439,1.4334819 -2.9936439,3.2140848 V 38.510947 c 0,1.780603 1.3351652,3.214085 2.9936439,3.214085 z" />
  </g>
</svg>
