<?xml version="1.0" encoding="UTF-8" standalone="no"?>
<svg
   width="64"
   height="64"
   version="1"
   id="svg12"
   sodipodi:docname="nz.mega.MEGAsync.svg"
   inkscape:version="1.1 (1:1.1+202105261517+ce6663b3b7)"
   xmlns:inkscape="http://www.inkscape.org/namespaces/inkscape"
   xmlns:sodipodi="http://sodipodi.sourceforge.net/DTD/sodipodi-0.dtd"
   xmlns="http://www.w3.org/2000/svg"
   xmlns:svg="http://www.w3.org/2000/svg">
  <defs
     id="defs16">
    <inkscape:path-effect
       effect="powerclip"
       id="path-effect11"
       is_visible="true"
       lpeversion="1"
       inverse="true"
       flatten="false"
       hide_clip="false"
       message="Use fill-rule evenodd on &lt;b&gt;fill and stroke&lt;/b&gt; dialog if no flatten result after convert clip to paths." />
    <clipPath
       clipPathUnits="userSpaceOnUse"
       id="clipPath7">
      <path
         style="display:none;opacity:0.85;fill:#ffffff"
         d="m 15.999661,18.001241 v 27.99921 h 7.999775 V 30.000902 l 7.999774,6.999803 7.999774,-6.999803 v 15.999549 h 7.999775 v -27.99921 h -7.999775 l -7.999774,6.999802 -7.999774,-6.999802 z"
         id="path9" />
      <path
         id="lpe_path-effect11"
         style="opacity:0.85;fill:#ffffff"
         class="powerclip"
         d="M -1,-1 H 65 V 65 H -1 Z m 16.999661,19.001241 v 27.99921 h 7.999775 V 30.000902 l 7.999774,6.999803 7.999774,-6.999803 v 15.999549 h 7.999775 v -27.99921 h -7.999775 l -7.999774,6.999802 -7.999774,-6.999802 z" />
    </clipPath>
  </defs>
  <sodipodi:namedview
     id="namedview14"
     pagecolor="#ffffff"
     bordercolor="#666666"
     borderopacity="1.0"
     inkscape:pageshadow="2"
     inkscape:pageopacity="0.0"
     inkscape:pagecheckerboard="0"
     showgrid="false"
     inkscape:zoom="12.859375"
     inkscape:cx="32.038882"
     inkscape:cy="32"
     inkscape:window-width="1459"
     inkscape:window-height="738"
     inkscape:window-x="230"
     inkscape:window-y="85"
     inkscape:window-maximized="0"
     inkscape:current-layer="svg12" />
  <path
     style="fill:#29292a"
     width="56"
     height="56"
     x="4"
     y="4"
     rx="27.999001"
     ry="27.999001"
     id="rect4"
     clip-path="url(#clipPath7)"
     inkscape:path-effect="#path-effect11"
     d="m 31.999001,4 h 0.002 C 47.512446,4 60,16.487554 60,31.999001 v 0.002 C 60,47.512446 47.512446,60 32.000999,60 h -0.002 C 16.487554,60 4,47.512446 4,32.000999 v -0.002 C 4,16.487554 16.487554,4 31.999001,4 Z"
     sodipodi:type="rect" />
</svg>
