<?xml version="1.0" encoding="UTF-8" standalone="no"?>
<svg
   width="64"
   height="64"
   version="1.1"
   id="svg18"
   sodipodi:docname="openshot.svg"
   inkscape:version="1.1 (1:1.1+202105261517+ce6663b3b7)"
   xmlns:inkscape="http://www.inkscape.org/namespaces/inkscape"
   xmlns:sodipodi="http://sodipodi.sourceforge.net/DTD/sodipodi-0.dtd"
   xmlns="http://www.w3.org/2000/svg"
   xmlns:svg="http://www.w3.org/2000/svg">
  <defs
     id="defs22">
    <inkscape:path-effect
       effect="powerclip"
       id="path-effect17"
       is_visible="true"
       lpeversion="1"
       inverse="true"
       flatten="false"
       hide_clip="false"
       message="Use fill-rule evenodd on &lt;b&gt;fill and stroke&lt;/b&gt; dialog if no flatten result after convert clip to paths." />
    <clipPath
       clipPathUnits="userSpaceOnUse"
       id="clipPath13">
      <path
         style="display:none;opacity:0.85;fill:#ffffff"
         d="M 7.78125,18 C 6.5173551,20.193517 5.5567787,22.548309 4.9257812,25 H 12 V 39 H 4.9101562 c 0.639004,2.452979 1.6081445,4.807826 2.8808594,7 h 1.8105469 5.5976565 14 5.601562 14 5.597657 1.8125 0.0078 c 0.373717,-0.652419 0.721004,-1.319627 1.041016,-2 H 55 v -3 h 3 v 1.328125 C 58.427071,41.242217 58.785844,40.130675 59.074219,39 H 58.675781 53 V 25 h 1 4.703125 0.386719 C 58.797853,23.856406 58.433845,22.732419 58,21.634766 V 23 h -3 v -3 h 2.267578 c -0.32577,-0.680659 -0.678923,-1.34787 -1.058594,-2 H 54 Z M 7,20 h 3 v 3 H 7 Z m 6,0 h 3 v 3 h -3 z m 6,0 h 3 v 3 h -3 z m 6,0 h 3 v 3 h -3 z m 6,0 h 3 v 3 h -3 z m 6,0 h 3 v 3 h -3 z m 6,0 h 3 v 3 h -3 z m 6,0 h 3 v 3 H 49 Z M 17,25 H 30 V 39 H 17 Z m 18,0 H 48 V 39 H 35 Z M 7,41 h 3 v 3 H 7 Z m 6,0 h 3 v 3 h -3 z m 6,0 h 3 v 3 h -3 z m 6,0 h 3 v 3 h -3 z m 6,0 h 3 v 3 h -3 z m 6,0 h 3 v 3 h -3 z m 6,0 h 3 v 3 h -3 z m 6,0 h 3 v 3 h -3 z"
         id="path15" />
      <path
         id="lpe_path-effect17"
         style="opacity:0.85;fill:#ffffff"
         class="powerclip"
         d="M -1,-1 H 65 V 65 H -1 Z M 7.78125,18 C 6.5173551,20.193517 5.5567787,22.548309 4.9257812,25 H 12 V 39 H 4.9101562 c 0.639004,2.452979 1.6081445,4.807826 2.8808594,7 h 1.8105469 5.5976565 14 5.601562 14 5.597657 1.8125 0.0078 c 0.373717,-0.652419 0.721004,-1.319627 1.041016,-2 H 55 v -3 h 3 v 1.328125 C 58.427071,41.242217 58.785844,40.130675 59.074219,39 H 58.675781 53 V 25 h 1 4.703125 0.386719 C 58.797853,23.856406 58.433845,22.732419 58,21.634766 V 23 h -3 v -3 h 2.267578 c -0.32577,-0.680659 -0.678923,-1.34787 -1.058594,-2 H 54 Z M 7,20 v 3 h 3 v -3 z m 6,0 v 3 h 3 v -3 z m 6,0 v 3 h 3 v -3 z m 6,0 v 3 h 3 v -3 z m 6,0 v 3 h 3 v -3 z m 6,0 v 3 h 3 v -3 z m 6,0 v 3 h 3 v -3 z m 6,0 v 3 h 3 V 20 Z M 17,25 V 39 H 30 V 25 Z m 18,0 V 39 H 48 V 25 Z M 7,41 v 3 h 3 v -3 z m 6,0 v 3 h 3 v -3 z m 6,0 v 3 h 3 v -3 z m 6,0 v 3 h 3 v -3 z m 6,0 v 3 h 3 v -3 z m 6,0 v 3 h 3 v -3 z m 6,0 v 3 h 3 v -3 z m 6,0 v 3 h 3 v -3 z" />
    </clipPath>
  </defs>
  <sodipodi:namedview
     id="namedview20"
     pagecolor="#ffffff"
     bordercolor="#666666"
     borderopacity="1.0"
     inkscape:pageshadow="2"
     inkscape:pageopacity="0.0"
     inkscape:pagecheckerboard="0"
     showgrid="false"
     inkscape:zoom="12.859375"
     inkscape:cx="32.038882"
     inkscape:cy="25.778858"
     inkscape:window-width="1459"
     inkscape:window-height="738"
     inkscape:window-x="289"
     inkscape:window-y="196"
     inkscape:window-maximized="0"
     inkscape:current-layer="svg18" />
  <path
     style="opacity:0.2;fill:#ffffff"
     d="M 32,4 A 28,28 0 0 0 4.1974,28.9928 28,26.6 0 0 1 32,5.4 28,26.6 0 0 1 59.8908,29.8258 28,28 0 0 0 32,4 Z M 59.8908,29.8258 A 28,28 0 0 1 60,32 28,26.6 0 0 0 59.8908,29.8258 Z M 4.1974,28.9928 A 28,26.6 0 0 0 4.12908,29.5416 28,28 0 0 1 4.1974,28.9928 Z M 4.12908,29.5416 A 28,28 0 0 0 4.00056,32 28,26.6 0 0 1 4.12908,29.5416 Z"
     id="path4" />
  <g
     id="g11"
     clip-path="url(#clipPath13)"
     inkscape:path-effect="#path-effect17">
    <path
       style="fill:#29292a"
       d="M 32,4 C 16.536027,4 4,16.536027 4,32 c 0,12.03768 7.596323,22.301146 18.256842,26.258268 3.03431,1.126318 5.864036,-3.314872 9.290328,-3.314872 15.463972,0 25.886792,-7.32848 25.886792,-22.792452 0,-12.472579 -6.041912,-20.247976 -17.310852,-23.8697988 C 39.70047,8.1453094 39.72628,5.0758476 39.295146,4.9598186 36.969246,4.3338588 34.523612,4 32,4 Z"
       id="path6"
       inkscape:original-d="M 32,4 C 16.536027,4 4,16.536027 4,32 c 0,12.03768 7.596323,22.301146 18.256842,26.258268 3.03431,1.126318 5.864036,-3.314872 9.290328,-3.314872 15.463972,0 25.886792,-7.32848 25.886792,-22.792452 0,-12.472579 -6.041912,-20.247976 -17.310852,-23.8697988 C 39.70047,8.1453094 39.72628,5.0758476 39.295146,4.9598186 36.969246,4.3338588 34.523612,4 32,4 Z" />
    <path
       style="fill:#29292a"
       d="M 39.101172,4.9324218 C 34.579498,7.4874092 23.06554,14.83098 24,21.297656 c 1.293102,8.948566 19.448776,7.434494 20,14.4375 0.715612,9.091456 -14.425406,18.307362 -22.25664,22.3125 C 25.009594,59.335744 28.488952,59.998038 32,60 47.463972,60 60,47.463972 60,32 59.992284,19.277277 51.407936,8.1590716 39.101172,4.9324218 Z"
       id="path10"
       inkscape:original-d="M 39.101172,4.9324218 C 34.579498,7.4874092 23.06554,14.83098 24,21.297656 c 1.293102,8.948566 19.448776,7.434494 20,14.4375 0.715612,9.091456 -14.425406,18.307362 -22.25664,22.3125 C 25.009594,59.335744 28.488952,59.998038 32,60 47.463972,60 60,47.463972 60,32 59.992284,19.277277 51.407936,8.1590716 39.101172,4.9324218 Z" />
  </g>
</svg>
