<?xml version="1.0" encoding="UTF-8" standalone="no"?>
<svg
   width="64"
   height="64"
   version="1.1"
   id="svg28"
   sodipodi:docname="org.phoenicis.playonlinux.svg"
   inkscape:version="1.1 (c68e22c387, 2021-05-23)"
   xmlns:inkscape="http://www.inkscape.org/namespaces/inkscape"
   xmlns:sodipodi="http://sodipodi.sourceforge.net/DTD/sodipodi-0.dtd"
   xmlns="http://www.w3.org/2000/svg"
   xmlns:svg="http://www.w3.org/2000/svg">
  <defs
     id="defs32" />
  <sodipodi:namedview
     id="namedview30"
     pagecolor="#ffffff"
     bordercolor="#666666"
     borderopacity="1.0"
     inkscape:pageshadow="2"
     inkscape:pageopacity="0.0"
     inkscape:pagecheckerboard="0"
     showgrid="false"
     inkscape:zoom="12.859375"
     inkscape:cx="31.961118"
     inkscape:cy="38.687728"
     inkscape:window-width="1459"
     inkscape:window-height="738"
     inkscape:window-x="449"
     inkscape:window-y="450"
     inkscape:window-maximized="0"
     inkscape:current-layer="svg28" />
  <path
     style="fill:#29292a;stroke-width:1.14116"
     d="m 32.045055,32.022601 c -0.0721,0.0044 -0.143872,0.0082 -0.215522,0.01118 6.9e-4,0.028 0.0038,0.05701 0.0045,0.08496 l 0.0022,0.0067 h 0.01111 c 0.0642,-0.03552 0.132887,-0.0678 0.197748,-0.102846 z m -0.208856,0.102846 c -3.679223,2.03456 -8.370389,3.148768 -12.924684,3.400661 -9.4151987,4.560487 -15.9597213,12.533828 -7.123353,17.667335 3.38562,1.961389 5.821278,2.073995 7.594391,1.301239 0.223164,1.930606 1.539611,3.997086 4.917023,5.962894 7.843565,4.559368 11.752883,-4.607901 11.391587,-14.754081 C 33.4556,41.463846 31.929637,36.56249 31.836199,32.125447 Z"
     id="path12" />
  <path
     style="fill:#29292a;stroke-width:1.14116"
     d="m 32.237215,32.0716 c 0.464807,-0.01003 0.93485,-0.03574 1.408797,-0.0766 C 47.18006,30.825334 63.897416,17.368904 52.732548,10.888237 49.351808,8.9279433 46.91386,8.8127625 45.141412,9.5835327 44.919579,7.6520336 43.604108,5.5857111 40.223368,3.616265 27.964861,-3.5059284 25.799769,17.903957 31.405495,30.38448 c 0.260167,0.57907 0.148453,1.204079 0.441848,1.740961"
     id="path14" />
  <path
     style="fill:#29292a;stroke-width:1.14116"
     d="m 31.791331,32.189906 c 0.291088,13.82273 14.384113,32.250432 21.050426,20.623267 1.948139,-3.401608 2.062427,-5.854543 1.296415,-7.638941 1.919546,-0.22286 3.973035,-1.545647 5.930492,-4.947611 C 67.47501,27.318413 43.834017,25.531334 31.800448,32.189461"
     id="path16" />
  <path
     style="fill:#29292a;stroke-width:1.14116"
     d="M 31.791331,32.189906 C 19.750219,38.848478 -3.1562848,35.781471 3.5164603,24.158548 5.4712552,20.758949 7.5252088,19.433039 9.4438448,19.209822 8.6758581,17.424753 8.7876637,14.973827 10.736911,11.56731 18.14326,-1.3408994 31.500729,18.366953 31.789112,32.18321"
     id="path18" />
</svg>
