<?xml version="1.0" encoding="UTF-8" standalone="no"?>
<svg
   width="64"
   height="64"
   version="1.1"
   id="svg73"
   sodipodi:docname="org.gnome.Characters.svg"
   inkscape:version="1.1 (1:1.1+202105261517+ce6663b3b7)"
   xmlns:inkscape="http://www.inkscape.org/namespaces/inkscape"
   xmlns:sodipodi="http://sodipodi.sourceforge.net/DTD/sodipodi-0.dtd"
   xmlns:xlink="http://www.w3.org/1999/xlink"
   xmlns="http://www.w3.org/2000/svg"
   xmlns:svg="http://www.w3.org/2000/svg"
   xmlns:rdf="http://www.w3.org/1999/02/22-rdf-syntax-ns#"
   xmlns:cc="http://creativecommons.org/ns#"
   xmlns:dc="http://purl.org/dc/elements/1.1/">
  <metadata
     id="metadata77">
    <rdf:RDF>
      <cc:Work
         rdf:about="">
        <dc:format>image/svg+xml</dc:format>
        <dc:type
           rdf:resource="http://purl.org/dc/dcmitype/StillImage" />
      </cc:Work>
    </rdf:RDF>
  </metadata>
  <sodipodi:namedview
     pagecolor="#ffffff"
     bordercolor="#666666"
     borderopacity="1"
     objecttolerance="10"
     gridtolerance="10"
     guidetolerance="10"
     inkscape:pageopacity="0"
     inkscape:pageshadow="2"
     inkscape:window-width="1920"
     inkscape:window-height="996"
     id="namedview75"
     showgrid="false"
     inkscape:zoom="12.578125"
     inkscape:cx="32"
     inkscape:cy="32"
     inkscape:window-x="0"
     inkscape:window-y="0"
     inkscape:window-maximized="1"
     inkscape:current-layer="svg73"
     inkscape:document-rotation="0"
     showguides="false"
     inkscape:pagecheckerboard="0" />
  <defs
     id="defs29">
    <inkscape:path-effect
       effect="powerclip"
       id="path-effect714"
       is_visible="true"
       lpeversion="1"
       inverse="true"
       flatten="false"
       hide_clip="false"
       message="Use fill-rule evenodd on &lt;b&gt;fill and stroke&lt;/b&gt; dialog if no flatten result after convert clip to paths." />
    <inkscape:path-effect
       effect="powerclip"
       id="path-effect69"
       is_visible="true"
       lpeversion="1"
       inverse="true"
       flatten="false"
       hide_clip="false"
       message="Use fill-rule evenodd on &lt;b&gt;fill and stroke&lt;/b&gt; dialog if no flatten result after convert clip to paths." />
    <linearGradient
       id="b"
       x1="399.57"
       x2="399.57"
       y1="545.8"
       y2="517.8"
       gradientTransform="matrix(2.1429,0,0,2.1429,-826.36,-1107.5)"
       gradientUnits="userSpaceOnUse">
      <stop
         stop-color="#3889e9"
         offset="0"
         id="stop2" />
      <stop
         stop-color="#5ea5fb"
         offset="1"
         id="stop4" />
    </linearGradient>
    <linearGradient
       id="linearGradient862"
       x1="7.9373"
       x2="7.9373"
       y1="15.081"
       y2="1.852"
       gradientTransform="matrix(3.3743 0 0 3.3743 3.4312 3.4278)"
       gradientUnits="userSpaceOnUse">
      <stop
         stop-color="#f1efeb"
         offset="0"
         id="stop7" />
      <stop
         stop-color="#fff"
         offset="1"
         id="stop9" />
    </linearGradient>
    <linearGradient
       id="linearGradient910"
       x1="7.9373"
       x2="7.9373"
       y1="15.081"
       y2="1.852"
       gradientTransform="scale(3.7796)"
       gradientUnits="userSpaceOnUse">
      <stop
         stop-color="#613583"
         offset="0"
         id="stop12" />
      <stop
         stop-color="#a663c0"
         offset="1"
         id="stop14" />
    </linearGradient>
    <linearGradient
       id="linearGradient932"
       x1="379.24"
       x2="374.24"
       y1="546.85"
       y2="546.85"
       gradientTransform="matrix(2.1429 0 0 2.1429 -769.68 -1134.5)"
       gradientUnits="userSpaceOnUse">
      <stop
         stop-color="#f6f5f4"
         offset="0"
         id="stop17" />
      <stop
         stop-color="#fff"
         offset=".6"
         id="stop19" />
      <stop
         stop-color="#dddbd8"
         offset="1"
         id="stop21" />
    </linearGradient>
    <linearGradient
       id="linearGradient1146"
       x1="18"
       x2="18"
       y1="52"
       y2="12"
       gradientUnits="userSpaceOnUse">
      <stop
         stop-color="#5e337f"
         offset="0"
         id="stop24" />
      <stop
         stop-color="#ab60bf"
         offset="1"
         id="stop26" />
    </linearGradient>
    <linearGradient
       id="linearGradient921"
       x1="1643.1"
       x2="1643.1"
       y1="1003"
       y2="2366.7"
       gradientTransform="matrix(0.02123815,0,0,0.02123815,-2.6748924,-2.2793378)"
       gradientUnits="userSpaceOnUse">
      <stop
         stop-color="#fff"
         offset="0"
         id="stop7-3" />
      <stop
         stop-color="#bddcff"
         offset="1"
         id="stop9-6" />
    </linearGradient>
    <radialGradient
       id="radialGradient1105"
       cx="2.1166"
       cy="6.0853"
       r="0.52916002"
       gradientUnits="userSpaceOnUse"
       xlink:href="#linearGradient1103"
       gradientTransform="matrix(3.779602,0,0,3.779602,3.4962073,-3.5513369)" />
    <linearGradient
       id="linearGradient1103">
      <stop
         stop-opacity=".75"
         offset="0"
         id="stop15" />
      <stop
         stop-opacity=".8"
         offset=".7"
         id="stop17-3" />
      <stop
         stop-opacity=".5"
         offset="1"
         id="stop19-6" />
    </linearGradient>
    <radialGradient
       id="radialGradient1111"
       cx="2.1166"
       cy="6.0853"
       r="0.52916002"
       gradientTransform="matrix(3.779602,0,0,3.779602,3.4962073,9.4486042)"
       gradientUnits="userSpaceOnUse"
       xlink:href="#linearGradient1103" />
    <radialGradient
       id="radialGradient1115"
       cx="2.1166"
       cy="6.0853"
       r="0.52916002"
       gradientTransform="matrix(3.779602,0,0,3.779602,3.4962073,22.448545)"
       gradientUnits="userSpaceOnUse"
       xlink:href="#linearGradient1103" />
    <linearGradient
       id="g"
       x1="500"
       x2="500"
       y1="4"
       y2="1024"
       gradientTransform="matrix(0.09457411,0,0,0.08931734,49.458633,53.518469)"
       gradientUnits="userSpaceOnUse">
      <stop
         stop-color="#fff"
         offset="0"
         id="stop7-3-3" />
      <stop
         stop-color="#e6e6e6"
         offset="1"
         id="stop9-5" />
    </linearGradient>
    <clipPath
       clipPathUnits="userSpaceOnUse"
       id="clipPath65">
      <rect
         style="display:none;fill:#29292a;stroke-width:1.04339"
         width="39.68671"
         height="39.611187"
         x="20.884548"
         y="-42.184746"
         rx="3.1331613"
         ry="3.1271992"
         id="rect67"
         d="m 24.017709,-42.184746 h 33.420388 c 1.735772,0 3.133162,1.394731 3.133162,3.127199 v 33.356789 c 0,1.7324684 -1.39739,3.1271992 -3.133162,3.1271992 H 24.017709 c -1.735771,0 -3.133161,-1.3947308 -3.133161,-3.1271992 v -33.356789 c 0,-1.732468 1.39739,-3.127199 3.133161,-3.127199 z" />
      <path
         id="lpe_path-effect69"
         style="fill:#29292a;stroke-width:1.04339"
         class="powerclip"
         d="M -1.8700283,-65.947937 H 47.816972 V -16.33675 H -1.8700283 Z m 25.8877373,23.763191 c -1.735771,0 -3.133161,1.394731 -3.133161,3.127199 v 33.356789 c 0,1.7324684 1.39739,3.1271992 3.133161,3.1271992 h 33.420388 c 1.735772,0 3.133162,-1.3947308 3.133162,-3.1271992 v -33.356789 c 0,-1.732468 -1.39739,-3.127199 -3.133162,-3.127199 z" />
    </clipPath>
    <clipPath
       clipPathUnits="userSpaceOnUse"
       id="clipPath710">
      <path
         style="display:none;opacity:0.85;fill:#f2f2f2;stroke-width:1.04339"
         d="m 45.7849,-22.241466 c 2.3e-5,2.293486 0.255623,3.882312 0.766851,4.766894 0.511247,0.884476 1.696159,1.326704 2.929224,1.326704 0.982372,0 1.764262,-0.329106 2.345692,-0.98732 0.571384,-0.66847 0.857066,-1.573502 0.857066,-2.715035 0,-1.573501 -0.541306,-2.833241 -1.623895,-3.779532 -1.092639,-0.956423 -2.854029,-1.225883 -4.658312,-1.225903 h -0.616481 v 2.614254 m -1.142559,-5.662315 h 10.357593 v 3.127136 h -2.992858 c 1.0235,0.646288 1.779635,1.166507 2.270497,2.13177 0.482507,0.967347 0.722718,2.149428 0.722718,3.548329 0,1.769995 -0.480421,3.177235 -1.443345,4.227972 -0.973367,1.038231 -2.270496,1.557346 -3.893474,1.557346 -1.894561,0 -3.635854,-0.647914 -4.598154,-1.943762 -0.962299,-1.306128 -1.511183,-3.25067 -1.443468,-5.831185 v -3.771318 H 43.35133 c -1.273044,2.3e-5 -1.942633,0.431949 -2.634223,1.295827 -1.565798,2.649865 -1.238485,6.616259 0.01797,9.209019 h -2.243416 c -0.390935,-1.038732 -0.681609,-2.270202 -0.872104,-3.247201 -0.200461,-0.97702 -0.3007,-1.928334 -0.300721,-2.853881 2.1e-5,-2.49905 0.63154,-4.36578 1.89456,-5.599771 1.263059,-1.234118 2.864825,-1.851177 5.431094,-1.851198 m -14.710013,9.562975 5.222247,-4.350351 v 2.360202 l -5.221622,5.028533 v -3.039011"
         id="path712" />
      <path
         id="lpe_path-effect714"
         style="opacity:0.85;fill:#f2f2f2;stroke-width:1.04339"
         class="powerclip"
         d="m 18.018532,-45.71566 h 49.68671 V 3.8955269 H 18.018532 Z M 45.7849,-22.241466 c 2.3e-5,2.293486 0.255623,3.882312 0.766851,4.766894 0.511247,0.884476 1.696159,1.326704 2.929224,1.326704 0.982372,0 1.764262,-0.329106 2.345692,-0.98732 0.571384,-0.66847 0.857066,-1.573502 0.857066,-2.715035 0,-1.573501 -0.541306,-2.833241 -1.623895,-3.779532 -1.092639,-0.956423 -2.854029,-1.225883 -4.658312,-1.225903 h -0.616481 v 2.614254 m -1.140555,-5.663232 c -2.566269,2.1e-5 -4.168035,0.61708 -5.431094,1.851198 -1.26302,1.233991 -1.894539,3.100721 -1.89456,5.599771 2.1e-5,0.925547 0.10026,1.876861 0.300721,2.853881 0.190495,0.976999 0.481169,2.208469 0.872104,3.247201 h 2.243416 c -1.256455,-2.59276 -1.583768,-6.559154 -0.01797,-9.209019 0.69159,-0.863878 1.361179,-1.295804 2.634223,-1.295827 h 0.270665 v 3.771318 c -0.06771,2.580515 0.481169,4.525057 1.443468,5.831185 0.9623,1.295848 2.703593,1.943762 4.598154,1.943762 1.622978,0 2.920107,-0.519115 3.893474,-1.557346 0.962924,-1.050737 1.443345,-2.457977 1.443345,-4.227972 0,-1.398901 -0.240211,-2.580982 -0.722718,-3.548329 -0.490862,-0.965263 -1.246997,-1.485482 -2.270497,-2.13177 h 2.992858 v -3.127136 H 44.642486 m -14.707384,9.561431 v 3.039011 l 5.221622,-5.028533 v -2.360202 l -5.222247,4.350351" />
    </clipPath>
  </defs>
  <circle
     cx="32.02"
     cy="32.044"
     r="30.001"
     fill-opacity="0"
     stroke-width="1.5715"
     id="circle39" />
  <circle
     cx="32.02"
     cy="32.044"
     r="0"
     fill="url(#b)"
     stroke-width="1.5715"
     id="circle41" />
  <path
     style="fill:#29292a;stroke-width:1.04339"
     width="39.687"
     height="39.611187"
     x="3.1299717"
     y="-60.947937"
     rx="3.1331613"
     ry="3.1271992"
     transform="rotate(90,2.1623593,0.06249515)"
     id="rect6"
     sodipodi:type="rect"
     clip-path="url(#clipPath65)"
     d="m 6.263133,-60.947937 h 33.420678 c 1.735771,0 3.133161,1.394731 3.133161,3.127199 v 33.356789 c 0,1.732468 -1.39739,3.127199 -3.133161,3.127199 H 6.263133 c -1.7357713,0 -3.1331613,-1.394731 -3.1331613,-3.127199 v -33.356789 c 0,-1.732468 1.39739,-3.127199 3.1331613,-3.127199 z"
     inkscape:path-effect="#path-effect69" />
  <path
     style="fill:#29292a;stroke-width:1.04339"
     width="39.68671"
     height="39.611187"
     x="23.018532"
     y="-40.71566"
     rx="3.1331613"
     ry="3.1271992"
     transform="rotate(90)"
     id="rect12"
     sodipodi:type="rect"
     clip-path="url(#clipPath710)"
     inkscape:path-effect="#path-effect714"
     d="m 26.151693,-40.71566 h 33.420388 c 1.735771,0 3.133161,1.394731 3.133161,3.127199 v 33.3567887 c 0,1.7324684 -1.39739,3.1271992 -3.133161,3.1271992 H 26.151693 c -1.735771,0 -3.133161,-1.3947308 -3.133161,-3.1271992 V -37.588461 c 0,-1.732468 1.39739,-3.127199 3.133161,-3.127199 z" />
</svg>
