<?xml version="1.0" encoding="UTF-8" standalone="no"?>
<svg
   width="64"
   height="64"
   version="1"
   id="svg18"
   sodipodi:docname="org.freecadweb.FreeCAD.svg"
   inkscape:version="1.1 (1:1.1+202106031931+af4d65493e)"
   xmlns:inkscape="http://www.inkscape.org/namespaces/inkscape"
   xmlns:sodipodi="http://sodipodi.sourceforge.net/DTD/sodipodi-0.dtd"
   xmlns="http://www.w3.org/2000/svg"
   xmlns:svg="http://www.w3.org/2000/svg">
  <defs
     id="defs22" />
  <sodipodi:namedview
     id="namedview20"
     pagecolor="#ffffff"
     bordercolor="#666666"
     borderopacity="1.0"
     inkscape:pageshadow="2"
     inkscape:pageopacity="0.0"
     inkscape:pagecheckerboard="0"
     showgrid="false"
     inkscape:zoom="12.859375"
     inkscape:cx="32"
     inkscape:cy="25.778858"
     inkscape:window-width="1920"
     inkscape:window-height="996"
     inkscape:window-x="0"
     inkscape:window-y="0"
     inkscape:window-maximized="1"
     inkscape:current-layer="svg18" />
  <g
     id="g554"
     transform="matrix(1.3141122,0,0,1.2610125,-14.48486,-8.7971717)"
     style="fill:#29292a">
    <path
       style="fill:#29292a"
       d="m 13.801631,9.6691601 h 24 V 17.66916 h -17.9992 v 8 h 10 v 6 h -9.9992 v 14 h -6 z"
       id="path8" />
    <path
       style="fill:#29292a;stroke-width:1.66386"
       d="m 40.738407,29.115337 -0.292621,3.516633 a 10.427204,10.490155 0 0 0 -3.047375,1.773203 l -3.176998,-1.504983 -3.317701,5.781284 2.884442,2.015322 a 10.427204,10.490155 0 0 0 -0.15925,1.769431 10.427204,10.490155 0 0 0 0.151619,1.776908 l -2.877077,2.007845 3.317701,5.781284 3.169599,-1.501244 a 10.427204,10.490155 0 0 0 3.054774,1.761988 l 0.292621,3.523976 h 6.635403 l 0.292621,-3.516633 a 10.427204,10.490155 0 0 0 3.047441,-1.773203 l 3.176965,1.504983 3.317702,-5.781284 -2.884477,-2.015322 a 10.427204,10.490155 0 0 0 0.15925,-1.769431 10.427204,10.490155 0 0 0 -0.151619,-1.776908 l 2.877078,-2.007846 -3.317702,-5.781283 -3.169599,1.501244 a 10.427204,10.490155 0 0 0 -3.055603,-1.762322 l -0.291958,-3.524644 h -6.635402 z m 3.317701,9.536565 a 3.7918009,3.8146927 0 0 1 3.792132,3.815026 3.7918009,3.8146927 0 0 1 -3.792132,3.815027 3.7918009,3.8146927 0 0 1 -3.792133,-3.815027 3.7918009,3.8146927 0 0 1 3.792133,-3.815026 z"
       id="path16" />
  </g>
</svg>
