<?xml version="1.0" encoding="UTF-8" standalone="no"?>
<svg
   width="64"
   height="64"
   version="1.1"
   id="svg73"
   sodipodi:docname="deja-dup.svg"
   inkscape:version="1.1 (1:1.1+202105261517+ce6663b3b7)"
   xmlns:inkscape="http://www.inkscape.org/namespaces/inkscape"
   xmlns:sodipodi="http://sodipodi.sourceforge.net/DTD/sodipodi-0.dtd"
   xmlns="http://www.w3.org/2000/svg"
   xmlns:svg="http://www.w3.org/2000/svg"
   xmlns:rdf="http://www.w3.org/1999/02/22-rdf-syntax-ns#"
   xmlns:cc="http://creativecommons.org/ns#"
   xmlns:dc="http://purl.org/dc/elements/1.1/">
  <metadata
     id="metadata77">
    <rdf:RDF>
      <cc:Work
         rdf:about="">
        <dc:format>image/svg+xml</dc:format>
        <dc:type
           rdf:resource="http://purl.org/dc/dcmitype/StillImage" />
        <dc:title />
      </cc:Work>
    </rdf:RDF>
  </metadata>
  <sodipodi:namedview
     pagecolor="#ffffff"
     bordercolor="#666666"
     borderopacity="1"
     objecttolerance="10"
     gridtolerance="10"
     guidetolerance="10"
     inkscape:pageopacity="0"
     inkscape:pageshadow="2"
     inkscape:window-width="1567"
     inkscape:window-height="738"
     id="namedview75"
     showgrid="false"
     inkscape:zoom="12.578125"
     inkscape:cx="10.295652"
     inkscape:cy="32"
     inkscape:window-x="155"
     inkscape:window-y="426"
     inkscape:window-maximized="0"
     inkscape:current-layer="svg73"
     inkscape:document-rotation="0"
     inkscape:pagecheckerboard="0" />
  <defs
     id="defs29">
    <inkscape:path-effect
       effect="powerclip"
       id="path-effect1352"
       is_visible="true"
       lpeversion="1"
       inverse="true"
       flatten="false"
       hide_clip="false"
       message="Use fill-rule evenodd on &lt;b&gt;fill and stroke&lt;/b&gt; dialog if no flatten result after convert clip to paths." />
    <linearGradient
       id="b"
       x1="399.57"
       x2="399.57"
       y1="545.8"
       y2="517.8"
       gradientTransform="matrix(2.1429,0,0,2.1429,-826.36,-1107.5)"
       gradientUnits="userSpaceOnUse">
      <stop
         stop-color="#3889e9"
         offset="0"
         id="stop2" />
      <stop
         stop-color="#5ea5fb"
         offset="1"
         id="stop4" />
    </linearGradient>
    <linearGradient
       id="linearGradient862"
       x1="7.9373"
       x2="7.9373"
       y1="15.081"
       y2="1.852"
       gradientTransform="matrix(3.3743 0 0 3.3743 3.4312 3.4278)"
       gradientUnits="userSpaceOnUse">
      <stop
         stop-color="#f1efeb"
         offset="0"
         id="stop7" />
      <stop
         stop-color="#fff"
         offset="1"
         id="stop9" />
    </linearGradient>
    <linearGradient
       id="linearGradient910"
       x1="7.9373"
       x2="7.9373"
       y1="15.081"
       y2="1.852"
       gradientTransform="scale(3.7796)"
       gradientUnits="userSpaceOnUse">
      <stop
         stop-color="#613583"
         offset="0"
         id="stop12" />
      <stop
         stop-color="#a663c0"
         offset="1"
         id="stop14" />
    </linearGradient>
    <linearGradient
       id="linearGradient932"
       x1="379.24"
       x2="374.24"
       y1="546.85"
       y2="546.85"
       gradientTransform="matrix(2.1429 0 0 2.1429 -769.68 -1134.5)"
       gradientUnits="userSpaceOnUse">
      <stop
         stop-color="#f6f5f4"
         offset="0"
         id="stop17" />
      <stop
         stop-color="#fff"
         offset=".6"
         id="stop19" />
      <stop
         stop-color="#dddbd8"
         offset="1"
         id="stop21" />
    </linearGradient>
    <linearGradient
       id="linearGradient1146"
       x1="18"
       x2="18"
       y1="52"
       y2="12"
       gradientUnits="userSpaceOnUse">
      <stop
         stop-color="#5e337f"
         offset="0"
         id="stop24" />
      <stop
         stop-color="#ab60bf"
         offset="1"
         id="stop26" />
    </linearGradient>
    <clipPath
       clipPathUnits="userSpaceOnUse"
       id="clipPath1348">
      <path
         id="path1350"
         style="color:#000000;display:none;opacity:0.85;fill:#ececec;stroke-linecap:round;-inkscape-stroke:none"
         d="m -12.521484,-32.025391 a 4.1631398,4.1631398 0 0 1 -4.16211,4.16211 h -13.576172 l -10.367187,11.99414 a 4.1631398,4.1631398 0 0 1 -5.873047,0.427735 4.1631398,4.1631398 0 0 1 -0.427734,-5.873047 l 9.257812,-10.710938 -9.257812,-10.71289 a 4.1631398,4.1631398 0 0 1 0.427734,-5.871094 4.1631398,4.1631398 0 0 1 5.873047,0.427734 l 10.365234,11.992188 h 13.578125 a 4.1631398,4.1631398 0 0 1 4.16211,4.164062 z" />
      <path
         id="lpe_path-effect1352"
         style="color:#000000;opacity:0.85;fill:#ececec;stroke-linecap:round;-inkscape-stroke:none"
         class="powerclip"
         d="M -62.968433,-66.879192 H -1.3634224 V 2.8280792 H -62.968433 Z m 50.446949,34.853801 a 4.1631398,4.1631398 0 0 0 -4.16211,-4.164062 H -30.261719 L -40.626953,-48.181641 A 4.1631398,4.1631398 0 0 0 -46.5,-48.609375 a 4.1631398,4.1631398 0 0 0 -0.427734,5.871094 l 9.257812,10.71289 -9.257812,10.710938 a 4.1631398,4.1631398 0 0 0 0.427734,5.873047 4.1631398,4.1631398 0 0 0 5.873047,-0.427735 l 10.367187,-11.99414 h 13.576172 a 4.1631398,4.1631398 0 0 0 4.16211,-4.16211 z" />
    </clipPath>
  </defs>
  <circle
     cx="32.02"
     cy="32.044"
     r="30.001"
     fill-opacity="0"
     stroke-width="1.5715"
     id="circle39" />
  <circle
     cx="32.02"
     cy="32.044"
     r="0"
     fill="url(#b)"
     stroke-width="1.5715"
     id="circle41" />
  <path
     style="fill:#29292a;stroke-width:1.38771"
     width="51.605011"
     height="59.707272"
     x="-57.968433"
     y="-61.879192"
     rx="2.5802505"
     ry="2.9853632"
     transform="matrix(0,-1,-1,0,0,0)"
     id="rect8"
     sodipodi:type="rect"
     clip-path="url(#clipPath1348)"
     inkscape:path-effect="#path-effect1352"
     d="m -55.388183,-61.879192 h 46.4445101 c 1.4294588,0 2.5802505,1.331472 2.5802505,2.985363 v 53.736545 c 0,1.6538912 -1.1507917,2.9853632 -2.5802505,2.9853632 H -55.388183 c -1.429459,0 -2.58025,-1.331472 -2.58025,-2.9853632 v -53.736545 c 0,-1.653891 1.150791,-2.985363 2.58025,-2.985363 z" />
  <g
     id="g32">
    <g
       id="g1228">
      <g
         id="path14"
         style="opacity:0.85;fill:#ececec">
        <path
           style="color:#000000;fill:#ececec;stroke-width:8.32628;stroke-linecap:round;-inkscape-stroke:none"
           d="M 45.459686,43.777058 32.02555,32.165932"
           id="path48" />
      </g>
    </g>
  </g>
  <ellipse
     style="fill:#29292a;stroke-width:0.710509"
     cx="32.23468"
     cy="33.56308"
     id="circle18"
     rx="3.8212655"
     ry="3.3027205" />
</svg>
