<?xml version="1.0" encoding="UTF-8" standalone="no"?>
<svg
   width="64"
   height="64"
   version="1"
   id="svg18"
   sodipodi:docname="org.gnome.polari.svg"
   inkscape:version="1.1 (1:1.1+202105261517+ce6663b3b7)"
   xmlns:inkscape="http://www.inkscape.org/namespaces/inkscape"
   xmlns:sodipodi="http://sodipodi.sourceforge.net/DTD/sodipodi-0.dtd"
   xmlns="http://www.w3.org/2000/svg"
   xmlns:svg="http://www.w3.org/2000/svg">
  <defs
     id="defs22">
    <inkscape:path-effect
       effect="powerclip"
       id="path-effect151"
       is_visible="true"
       lpeversion="1"
       inverse="true"
       flatten="false"
       hide_clip="false"
       message="Use fill-rule evenodd on &lt;b&gt;fill and stroke&lt;/b&gt; dialog if no flatten result after convert clip to paths." />
    <inkscape:path-effect
       effect="powerclip"
       id="path-effect125"
       is_visible="true"
       lpeversion="1"
       inverse="true"
       flatten="false"
       hide_clip="false"
       message="Use fill-rule evenodd on &lt;b&gt;fill and stroke&lt;/b&gt; dialog if no flatten result after convert clip to paths." />
    <clipPath
       clipPathUnits="userSpaceOnUse"
       id="clipPath121">
      <path
         style="display:none;fill:#29292a;stroke-width:1.06736"
         d="m 2.4291417,23.65902 6.3680632,6.440531 v 26.835546 c 0,1.784027 1.4200781,3.220265 3.1840311,3.220265 h 29.717627 c 1.763954,0 3.184032,-1.436238 3.184032,-3.220265 V 26.879286 c 0,-1.784028 -1.420078,-3.220266 -3.184032,-3.220266 z"
         id="path123" />
      <path
         id="lpe_path-effect125"
         style="fill:#29292a;stroke-width:1.06736"
         class="powerclip"
         d="M 14.410643,-0.6625733 H 66.864397 V 45.833769 H 14.410643 Z M 2.4291417,23.65902 8.7972049,30.099551 v 26.835546 c 0,1.784027 1.4200781,3.220265 3.1840311,3.220265 h 29.717627 c 1.763954,0 3.184032,-1.436238 3.184032,-3.220265 V 26.879286 c 0,-1.784028 -1.420078,-3.220266 -3.184032,-3.220266 z" />
    </clipPath>
    <clipPath
       clipPathUnits="userSpaceOnUse"
       id="clipPath147">
      <path
         style="display:none;opacity:0.85;fill:#ffffff;fill-rule:evenodd;stroke-width:1.06736"
         d="m 21.223527,31.342786 -1.123538,6.440531 h -6.243674 v 2.146844 h 5.870505 l -1.127678,6.440531 h -4.742933 v 2.146843 h 4.369765 l -1.123539,6.440532 h 2.122688 l 1.123538,-6.440532 h 5.306719 l -1.123517,6.440532 h 2.122688 l 1.123517,-6.440532 h 7.305018 v -2.146843 h -6.931849 l 1.127657,-6.440531 h 5.804276 v -2.146844 h -5.431109 l 1.123518,-6.440531 h -2.122687 l -1.123518,6.440531 h -5.306719 l 1.123517,-6.440531 z m 0.626023,8.587375 h 5.306719 l -1.127656,6.440531 h -5.30672 z"
         id="path149" />
      <path
         id="lpe_path-effect151"
         style="opacity:0.85;fill:#ffffff;fill-rule:evenodd;stroke-width:1.06736"
         class="powerclip"
         d="M -3.8799178,19.902255 H 48.573836 V 66.398597 H -3.8799178 Z m 25.1034448,11.440531 -1.123538,6.440531 h -6.243674 v 2.146844 h 5.870505 l -1.127678,6.440531 h -4.742933 v 2.146843 h 4.369765 l -1.123539,6.440532 h 2.122688 l 1.123538,-6.440532 h 5.306719 l -1.123517,6.440532 h 2.122688 l 1.123517,-6.440532 h 7.305018 v -2.146843 h -6.931849 l 1.127657,-6.440531 h 5.804276 v -2.146844 h -5.431109 l 1.123518,-6.440531 h -2.122687 l -1.123518,6.440531 h -5.306719 l 1.123517,-6.440531 z m 0.626023,8.587375 -1.127657,6.440531 h 5.30672 l 1.127656,-6.440531 z" />
    </clipPath>
  </defs>
  <sodipodi:namedview
     id="namedview20"
     pagecolor="#ffffff"
     bordercolor="#666666"
     borderopacity="1.0"
     inkscape:pageshadow="2"
     inkscape:pageopacity="0.0"
     inkscape:pagecheckerboard="0"
     showgrid="false"
     inkscape:zoom="12.859375"
     inkscape:cx="-1.671932"
     inkscape:cy="35.965978"
     inkscape:window-width="1920"
     inkscape:window-height="996"
     inkscape:window-x="0"
     inkscape:window-y="0"
     inkscape:window-maximized="1"
     inkscape:current-layer="svg18" />
  <path
     style="fill:#29292a;stroke-width:1.06736"
     d="m 22.594674,4.3374267 c -1.763952,0 -3.184031,1.4362384 -3.184031,3.2202655 V 37.613504 c 0,1.784027 1.420079,3.220265 3.184031,3.220265 h 29.717628 c 1.763953,0 3.184032,-1.436238 3.184032,-3.220265 V 10.777958 l 6.368063,-6.4405313 z"
     id="path4"
     clip-path="url(#clipPath121)"
     inkscape:path-effect="#path-effect125"
     inkscape:original-d="m 22.594674,4.3374267 c -1.763952,0 -3.184031,1.4362384 -3.184031,3.2202655 V 37.613504 c 0,1.784027 1.420079,3.220265 3.184031,3.220265 h 29.717628 c 1.763953,0 3.184032,-1.436238 3.184032,-3.220265 V 10.777958 l 6.368063,-6.4405313 z"
     transform="translate(1.252544,-1.2117301)" />
  <path
     style="fill:#29292a;stroke-width:1.06736"
     d="m 1.1200822,24.902255 6.368063,6.440531 v 26.835546 c 0,1.784027 1.420078,3.220265 3.1840318,3.220265 h 29.717627 c 1.763954,0 3.184032,-1.436238 3.184032,-3.220265 V 28.122521 c 0,-1.784028 -1.420078,-3.220266 -3.184032,-3.220266 z"
     id="path10-3"
     clip-path="url(#clipPath147)"
     inkscape:path-effect="#path-effect151"
     inkscape:original-d="m 1.1200822,24.902255 6.368063,6.440531 v 26.835546 c 0,1.784027 1.420078,3.220265 3.1840318,3.220265 h 29.717627 c 1.763954,0 3.184032,-1.436238 3.184032,-3.220265 V 28.122521 c 0,-1.784028 -1.420078,-3.220266 -3.184032,-3.220266 z" />
</svg>
