<?xml version="1.0" encoding="UTF-8" standalone="no"?>
<svg
   width="64"
   height="64"
   version="1"
   id="svg16"
   sodipodi:docname="org.shotcut.Shotcut.svg"
   inkscape:version="1.1 (1:1.1+202105261517+ce6663b3b7)"
   xmlns:inkscape="http://www.inkscape.org/namespaces/inkscape"
   xmlns:sodipodi="http://sodipodi.sourceforge.net/DTD/sodipodi-0.dtd"
   xmlns="http://www.w3.org/2000/svg"
   xmlns:svg="http://www.w3.org/2000/svg">
  <defs
     id="defs20">
    <inkscape:path-effect
       effect="powerclip"
       id="path-effect12"
       is_visible="true"
       lpeversion="1"
       inverse="true"
       flatten="false"
       hide_clip="false"
       message="Use fill-rule evenodd on &lt;b&gt;fill and stroke&lt;/b&gt; dialog if no flatten result after convert clip to paths." />
    <clipPath
       clipPathUnits="userSpaceOnUse"
       id="clipPath8">
      <path
         style="display:none;opacity:0.85;fill:#ffffff;stroke-width:1.03036"
         d="m 11.812042,12.161605 -0.231799,39.92514 a 31.056282,26.800722 0 0 0 1.206138,0.936466 31.056282,26.800722 0 0 0 0.359389,0.234918 l 0.01252,-2.045163 c 0.0021,-0.375604 0.176888,-0.713264 0.462332,-0.957172 0.285408,-0.243885 0.680108,-0.395559 1.115345,-0.393702 l 3.141937,0.01474 c 0.870488,0.0037 1.568314,0.611746 1.563983,1.362936 l -0.01396,2.711125 c -0.0043,0.75121 -0.710562,1.352238 -1.58103,1.348501 l -1.221682,-0.0034 a 31.056282,26.800722 0 0 0 4.353031,1.823897 l 0.06454,-11.298536 c 0.0033,-0.563407 0.205441,-1.08362 0.546125,-1.514899 0.567762,-0.718751 1.526173,-1.187947 2.614273,-1.183263 l 15.712157,0.06807 c 1.740951,0.0073 3.136544,1.223433 3.127976,2.725865 l -0.06615,11.451514 a 31.056282,26.800722 0 0 0 4.834872,-1.939221 l -1.681067,-0.0074 c -0.87049,-0.0037 -1.568315,-0.611748 -1.563984,-1.362937 l 0.01842,-2.712818 c 0.0021,-0.375603 0.17521,-0.714439 0.460654,-0.958348 0.285408,-0.243886 0.679063,-0.391471 1.114306,-0.389621 l 3.144664,0.01185 c 0.870496,0.0037 1.566951,0.613195 1.56262,1.364385 l -0.01219,2.329568 a 31.056282,26.800722 0 0 0 1.578613,-1.061158 l 0.22998,-40.667361 a 31.056282,26.800722 0 0 0 -0.730498,-0.567133 31.056282,26.800722 0 0 0 -0.85543,-0.555927 c -0.09443,0.675039 -0.747381,1.194159 -1.555351,1.190684 l -3.144664,-0.01185 c -0.870488,-0.0037 -1.568313,-0.611746 -1.563982,-1.362934 l 0.01669,-2.714025 c 5.27e-4,-0.091592 0.01225,-0.1798416 0.03267,-0.2660767 A 31.056282,26.800722 0 0 0 43.262518,7.1566011 l -0.06498,11.6400999 c -0.0085,1.502393 -1.418047,2.704163 -3.158983,2.696688 l -15.713231,-0.06389 c -1.74095,-0.0073 -3.133544,-1.223736 -3.124882,-2.726116 l 0.06413,-11.4938598 a 31.056282,26.800722 0 0 0 -1.58205,0.5724414 c 0.0013,0.023078 0.0083,0.045007 0.0082,0.068371 l -0.01569,2.7099194 c -0.0043,0.751208 -0.708882,1.353412 -1.57935,1.349675 l -3.140214,-0.01354 c -0.690483,-0.003 -1.267798,-0.388433 -1.476941,-0.921499 a 31.056282,26.800722 0 0 0 -1.666672,1.187408 z m 1.80401,5.749796 c 0.05699,-0.07198 0.121518,-0.141026 0.192872,-0.201995 0.285416,-0.243878 0.677692,-0.390028 1.112943,-0.388171 l 3.144663,0.01185 c 0.870496,0.0037 1.566952,0.613196 1.562621,1.364387 l -0.01569,2.709918 c -0.0043,0.751208 -0.708883,1.353413 -1.57935,1.349676 l -3.141613,-0.01205 c -0.870489,-0.0037 -1.568315,-0.611745 -1.563984,-1.362936 l 0.01233,-2.712273 c 0.0017,-0.281699 0.104246,-0.542372 0.27525,-0.758295 z m -0.06179,10.847756 c 0.05681,-0.07179 0.121784,-0.138423 0.193138,-0.199393 0.285407,-0.243884 0.677374,-0.392653 1.112619,-0.390803 l 3.144663,0.01185 c 0.870496,0.0037 1.566952,0.613196 1.562621,1.364386 l -0.01709,2.711405 c -0.0043,0.751208 -0.708883,1.353413 -1.579351,1.349676 l -3.141938,-0.01475 c -0.870479,-0.0037 -1.566592,-0.610541 -1.56226,-1.361731 l 0.01373,-2.713759 c 0.0017,-0.281699 0.103428,-0.541501 0.273889,-0.756845 z m 8.133751,-2.079468 c 0.567763,-0.71875 1.529191,-1.188176 2.617309,-1.183603 l 15.712157,0.06807 c 1.740951,0.0073 3.131822,1.222529 3.123246,2.724971 l -0.0433,8.134863 c -0.0085,1.502392 -1.417696,2.70675 -3.158693,2.699356 l -15.712158,-0.06808 c -1.74095,-0.0073 -3.136544,-1.223433 -3.127975,-2.725865 l 0.04643,-8.135144 c 0.0033,-0.563407 0.202389,-1.083354 0.543039,-1.514595 z M 13.49219,39.60721 c 0.05681,-0.07178 0.121784,-0.138423 0.193138,-0.199393 0.285407,-0.243884 0.677066,-0.395285 1.112302,-0.393427 l 3.143573,0.0159 c 0.870496,0.0037 1.567956,0.609091 1.563632,1.360273 l -0.01537,2.712612 c -0.0043,0.751209 -0.710563,1.352238 -1.58103,1.348499 l -3.141613,-0.01205 c -0.870489,-0.0037 -1.566951,-0.613196 -1.562621,-1.364387 l 0.01569,-2.709918 c 0.0017,-0.2817 0.101749,-0.542686 0.27221,-0.758023 z M 45.041398,18.046297 c 0.05681,-0.07178 0.120148,-0.139569 0.191502,-0.200538 0.285409,-0.243885 0.680424,-0.392934 1.11567,-0.39107 l 3.141936,0.01474 c 0.87049,0.0037 1.569679,0.610297 1.565355,1.361479 l -0.01709,2.711406 c -0.0043,0.751208 -0.708883,1.353412 -1.579351,1.349675 l -3.141612,-0.01205 c -0.870489,-0.0037 -1.566951,-0.613195 -1.562621,-1.364386 l 0.01233,-2.712272 c 0.0017,-0.2817 0.103428,-0.541503 0.273888,-0.756845 z m -0.06179,10.847757 c 0.05681,-0.07179 0.120148,-0.139569 0.191502,-0.200539 0.285408,-0.243885 0.678746,-0.39411 1.113982,-0.392253 l 3.143573,0.0159 c 0.870488,0.0037 1.566234,0.607885 1.561995,1.359128 l -0.01373,2.713758 c -0.0043,0.751207 -0.708884,1.353413 -1.579351,1.349675 l -3.143574,-0.01589 c -0.870488,-0.0037 -1.566233,-0.607894 -1.561995,-1.359137 l 0.01373,-2.713758 c 0.0017,-0.281701 0.103428,-0.541504 0.273887,-0.756847 z m -0.0618,10.847755 c 0.057,-0.07198 0.123155,-0.139879 0.194509,-0.200848 0.285408,-0.243884 0.675696,-0.39383 1.110938,-0.39198 l 3.141614,0.01206 c 0.87049,0.0037 1.566952,0.613195 1.562622,1.364385 l -0.01233,2.712271 c -0.0043,0.751208 -0.710562,1.352237 -1.58103,1.348501 l -3.140215,-0.01354 c -0.870489,-0.0037 -1.569677,-0.610299 -1.565354,-1.36148 l 0.01536,-2.712612 c 0.0017,-0.281699 0.102882,-0.540923 0.273887,-0.756847 z"
         id="path10" />
      <path
         id="lpe_path-effect12"
         style="opacity:0.85;fill:#ffffff;stroke-width:1.03036"
         class="powerclip"
         d="M -1,-1 H 65 V 65 H -1 Z m 12.812042,13.161605 -0.231799,39.92514 a 31.056282,26.800722 0 0 0 1.206138,0.936466 31.056282,26.800722 0 0 0 0.359389,0.234918 l 0.01252,-2.045163 c 0.0021,-0.375604 0.176888,-0.713264 0.462332,-0.957172 0.285408,-0.243885 0.680108,-0.395559 1.115345,-0.393702 l 3.141937,0.01474 c 0.870488,0.0037 1.568314,0.611746 1.563983,1.362936 l -0.01396,2.711125 c -0.0043,0.75121 -0.710562,1.352238 -1.58103,1.348501 l -1.221682,-0.0034 a 31.056282,26.800722 0 0 0 4.353031,1.823897 l 0.06454,-11.298536 c 0.0033,-0.563407 0.205441,-1.08362 0.546125,-1.514899 0.567762,-0.718751 1.526173,-1.187947 2.614273,-1.183263 l 15.712157,0.06807 c 1.740951,0.0073 3.136544,1.223433 3.127976,2.725865 l -0.06615,11.451514 a 31.056282,26.800722 0 0 0 4.834872,-1.939221 l -1.681067,-0.0074 c -0.87049,-0.0037 -1.568315,-0.611748 -1.563984,-1.362937 l 0.01842,-2.712818 c 0.0021,-0.375603 0.17521,-0.714439 0.460654,-0.958348 0.285408,-0.243886 0.679063,-0.391471 1.114306,-0.389621 l 3.144664,0.01185 c 0.870496,0.0037 1.566951,0.613195 1.56262,1.364385 l -0.01219,2.329568 a 31.056282,26.800722 0 0 0 1.578613,-1.061158 l 0.22998,-40.667361 a 31.056282,26.800722 0 0 0 -0.730498,-0.567133 31.056282,26.800722 0 0 0 -0.85543,-0.555927 c -0.09443,0.675039 -0.747381,1.194159 -1.555351,1.190684 l -3.144664,-0.01185 c -0.870488,-0.0037 -1.568313,-0.611746 -1.563982,-1.362934 l 0.01669,-2.714025 c 5.27e-4,-0.091592 0.01225,-0.1798416 0.03267,-0.2660767 A 31.056282,26.800722 0 0 0 43.262518,7.1566011 l -0.06498,11.6400999 c -0.0085,1.502393 -1.418047,2.704163 -3.158983,2.696688 l -15.713231,-0.06389 c -1.74095,-0.0073 -3.133544,-1.223736 -3.124882,-2.726116 l 0.06413,-11.4938598 a 31.056282,26.800722 0 0 0 -1.58205,0.5724414 c 0.0013,0.023078 0.0083,0.045007 0.0082,0.068371 l -0.01569,2.7099194 c -0.0043,0.751208 -0.708882,1.353412 -1.57935,1.349675 l -3.140214,-0.01354 c -0.690483,-0.003 -1.267798,-0.388433 -1.476941,-0.921499 a 31.056282,26.800722 0 0 0 -1.666672,1.187408 z m 1.80401,5.749796 4.2e-5,1.11e-4 c -0.171004,0.215923 -0.27355,0.476596 -0.27525,0.758295 l -0.01233,2.712273 c -0.0043,0.751191 0.693495,1.359236 1.563984,1.362936 l 3.141613,0.01205 c 0.870467,0.0037 1.57505,-0.598468 1.57935,-1.349676 l 0.01569,-2.709918 c 0.0043,-0.751191 -0.692125,-1.360687 -1.562621,-1.364387 l -3.144663,-0.01185 c -0.435251,-0.0019 -0.827527,0.144293 -1.112943,0.388171 -0.07135,0.06097 -0.135882,0.130015 -0.192872,0.201995 z m -0.06179,10.847756 2.1e-5,3.6e-5 c -0.170461,0.215344 -0.272189,0.475146 -0.273889,0.756845 l -0.01373,2.713759 c -0.0043,0.75119 0.691781,1.358031 1.56226,1.361731 l 3.141938,0.01475 c 0.870468,0.0037 1.575051,-0.598468 1.579351,-1.349676 l 0.01709,-2.711405 c 0.0043,-0.75119 -0.692125,-1.360686 -1.562621,-1.364386 l -3.144663,-0.01185 c -0.435245,-0.0019 -0.827212,0.146919 -1.112619,0.390803 -0.07135,0.06097 -0.136328,0.127603 -0.193138,0.199393 z m 8.133751,-2.079468 5.5e-5,-2.7e-5 c -0.34065,0.431241 -0.539739,0.951188 -0.543039,1.514595 l -0.04643,8.135144 c -0.0086,1.502432 1.387025,2.718565 3.127975,2.725865 l 15.712158,0.06808 c 1.740997,0.0074 3.150193,-1.196964 3.158693,-2.699356 l 0.0433,-8.134863 c 0.0086,-1.502442 -1.382295,-2.717671 -3.123246,-2.724971 l -15.712157,-0.06807 c -1.088118,-0.0046 -2.049546,0.464853 -2.617309,1.183603 z m -8.195823,12.927521 -8.9e-5,8.6e-5 c -0.170461,0.215337 -0.27051,0.476323 -0.27221,0.758023 l -0.01569,2.709918 c -0.0043,0.751191 0.692132,1.360687 1.562621,1.364387 l 3.141613,0.01205 c 0.870467,0.0037 1.57673,-0.59729 1.58103,-1.348499 l 0.01537,-2.712612 c 0.0043,-0.751182 -0.693136,-1.356573 -1.563632,-1.360273 l -3.143573,-0.0159 c -0.435236,-0.0019 -0.826895,0.149543 -1.112302,0.393427 -0.07135,0.06097 -0.136328,0.127613 -0.193138,0.199393 z m 31.549208,-21.560913 7e-6,1.39e-4 c -0.17046,0.215342 -0.272188,0.475145 -0.273888,0.756845 l -0.01233,2.712272 c -0.0043,0.751191 0.692132,1.360686 1.562621,1.364386 l 3.141612,0.01205 c 0.870468,0.0037 1.575051,-0.598467 1.579351,-1.349675 l 0.01709,-2.711406 c 0.0043,-0.751182 -0.694865,-1.357779 -1.565355,-1.361479 l -3.141936,-0.01474 c -0.435246,-0.0019 -0.830261,0.147185 -1.11567,0.39107 -0.07135,0.06097 -0.134692,0.128758 -0.191502,0.200538 z m -0.06179,10.847757 1.9e-5,3.7e-5 c -0.170459,0.215343 -0.272187,0.475146 -0.273887,0.756847 l -0.01373,2.713758 c -0.0042,0.751243 0.691507,1.355437 1.561995,1.359137 l 3.143574,0.01589 c 0.870467,0.0037 1.575051,-0.598468 1.579351,-1.349675 l 0.01373,-2.713758 c 0.0042,-0.751243 -0.691507,-1.355428 -1.561995,-1.359128 l -3.143573,-0.0159 c -0.435236,-0.0019 -0.828574,0.148368 -1.113982,0.392253 -0.07135,0.06097 -0.134692,0.128749 -0.191502,0.200539 z m -0.0618,10.847755 10e-7,-9e-5 c -0.171005,0.215924 -0.272187,0.475148 -0.273887,0.756847 l -0.01536,2.712612 c -0.0043,0.751181 0.694865,1.35778 1.565354,1.36148 l 3.140215,0.01354 c 0.870468,0.0037 1.57673,-0.597293 1.58103,-1.348501 l 0.01233,-2.712271 c 0.0043,-0.75119 -0.692132,-1.360685 -1.562622,-1.364385 l -3.141614,-0.01206 c -0.435242,-0.0018 -0.82553,0.148096 -1.110938,0.39198 -0.07135,0.06097 -0.137509,0.128868 -0.194509,0.200848 z" />
    </clipPath>
  </defs>
  <sodipodi:namedview
     id="namedview18"
     pagecolor="#ffffff"
     bordercolor="#666666"
     borderopacity="1.0"
     inkscape:pageshadow="2"
     inkscape:pageopacity="0.0"
     inkscape:pagecheckerboard="0"
     showgrid="false"
     inkscape:zoom="12.859375"
     inkscape:cx="32.038882"
     inkscape:cy="16.447145"
     inkscape:window-width="1459"
     inkscape:window-height="738"
     inkscape:window-x="194"
     inkscape:window-y="105"
     inkscape:window-maximized="0"
     inkscape:current-layer="svg16" />
  <path
     style="fill:#29292a"
     width="56"
     height="56"
     x="4"
     y="4"
     rx="2.8"
     ry="2.8"
     id="rect4"
     clip-path="url(#clipPath8)"
     inkscape:path-effect="#path-effect12"
     d="M 6.8,4 H 57.2 C 58.7512,4 60,5.2488 60,6.8 V 57.2 C 60,58.7512 58.7512,60 57.2,60 H 6.8 C 5.2488,60 4,58.7512 4,57.2 V 6.8 C 4,5.2488 5.2488,4 6.8,4 Z"
     sodipodi:type="rect" />
  <path
     style="opacity:0.2;fill:#ffffff"
     d="M 22.25 1 C 21.5575 1 21 1.6275668 21 2.4082031 L 21 3.4082031 C 21 2.6275668 21.5575 2 22.25 2 L 24.75 2 C 25.4425 2 26 2.6275668 26 3.4082031 L 26 2.4082031 C 26 1.6275668 25.4425 1 24.75 1 L 22.25 1 z"
     id="path14" />
</svg>
