<?xml version="1.0" encoding="UTF-8" standalone="no"?>
<svg
   width="64"
   height="64"
   version="1"
   id="svg16"
   sodipodi:docname="org.bluej.BlueJ.svg"
   inkscape:version="1.1 (1:1.1+rc+202105240936+c4e8f9ed74)"
   xmlns:inkscape="http://www.inkscape.org/namespaces/inkscape"
   xmlns:sodipodi="http://sodipodi.sourceforge.net/DTD/sodipodi-0.dtd"
   xmlns="http://www.w3.org/2000/svg"
   xmlns:svg="http://www.w3.org/2000/svg">
  <defs
     id="defs20">
    <inkscape:path-effect
       effect="powerclip"
       id="path-effect274"
       is_visible="true"
       lpeversion="1"
       inverse="true"
       flatten="false"
       hide_clip="false"
       message="Use fill-rule evenodd on &lt;b&gt;fill and stroke&lt;/b&gt; dialog if no flatten result after convert clip to paths." />
    <clipPath
       clipPathUnits="userSpaceOnUse"
       id="clipPath270">
      <path
         style="display:none;fill:#ffffff"
         d="m 18.659955,18.634842 c -2.288673,3.717212 -3.700033,7.80306 -3.660023,11.927902 0.02298,2.369217 0.711217,4.751298 1.5116,7.083778 0.554967,2.375083 1.33964,4.865563 1.4884,7.133252 v 0.0028 c -0.215889,2.798069 -1.624969,4.862952 -2.735602,6.962218 -0.02939,0.07326 -0.05021,0.15228 -0.07533,0.228858 -0.06229,0.18994 -0.112284,0.386274 -0.147878,0.590064 -0.01836,0.10566 -0.03359,0.21237 -0.04464,0.319848 -0.02049,0.19992 -0.02757,0.401316 -0.02233,0.601094 0.0024,0.09132 4.62e-4,0.18294 0.0084,0.272974 0.02561,0.29107 0.07224,0.575606 0.156248,0.835466 v 0.0028 c 0.06567,0.202978 0.15441,0.384952 0.256694,0.554222 0.02871,0.04746 0.06321,0.08818 0.09487,0.13236 0.0866,0.12092 0.184164,0.227636 0.292967,0.319848 0.03991,0.03378 0.07983,0.06712 0.12277,0.0965 0.154414,0.10572 0.322098,0.194 0.516179,0.234374 0,0 6.691158,0.234446 9.930168,-0.17648 0.7315,-0.10102 1.503618,-0.231108 2.296298,-0.37775 0.0038,-6.84e-4 0.0076,-0.0022 0.0112,-0.0028 0.737842,-0.13814 1.497562,-0.2934 2.273978,-0.46323 0,0 4.664826,-8.248486 5.767254,-12.785664 0.40535,-1.66827 0.676428,-3.765812 0.873318,-5.977858 -2.469604,2.863078 -5.63114,6.094144 -9.632836,7.877224 -0.13812,0.04292 -0.282064,0.06544 -0.426934,0.06598 -0.788972,0 -1.42856,-0.63206 -1.42856,-1.411746 -0.07916,-0.651814 0.934698,-1.277744 1.855454,-2.161734 6.45747,-6.478066 5.783908,-15.64746 9.37893,-21.161961 -1.3499,0.317282 -6.00984,1.642701 -10.00827,1.642701 -2.35599,0 -6.698637,-1.75004 -8.624422,-2.411914 z"
         id="path272" />
      <path
         id="lpe_path-effect274"
         style="fill:#ffffff"
         class="powerclip"
         d="M -3,4 H 66.064754 V 60.257971 H -3 Z m 21.659955,14.634842 c -2.288673,3.717212 -3.700033,7.80306 -3.660023,11.927902 0.02298,2.369217 0.711217,4.751298 1.5116,7.083778 0.554967,2.375083 1.33964,4.865563 1.4884,7.133252 v 0.0028 c -0.215889,2.798069 -1.624969,4.862952 -2.735602,6.962218 -0.02939,0.07326 -0.05021,0.15228 -0.07533,0.228858 -0.06229,0.18994 -0.112284,0.386274 -0.147878,0.590064 -0.01836,0.10566 -0.03359,0.21237 -0.04464,0.319848 -0.02049,0.19992 -0.02757,0.401316 -0.02233,0.601094 0.0024,0.09132 4.62e-4,0.18294 0.0084,0.272974 0.02561,0.29107 0.07224,0.575606 0.156248,0.835466 v 0.0028 c 0.06567,0.202978 0.15441,0.384952 0.256694,0.554222 0.02871,0.04746 0.06321,0.08818 0.09487,0.13236 0.0866,0.12092 0.184164,0.227636 0.292967,0.319848 0.03991,0.03378 0.07983,0.06712 0.12277,0.0965 0.154414,0.10572 0.322098,0.194 0.516179,0.234374 0,0 6.691158,0.234446 9.930168,-0.17648 0.7315,-0.10102 1.503618,-0.231108 2.296298,-0.37775 0.0038,-6.84e-4 0.0076,-0.0022 0.0112,-0.0028 0.737842,-0.13814 1.497562,-0.2934 2.273978,-0.46323 0,0 4.664826,-8.248486 5.767254,-12.785664 0.40535,-1.66827 0.676428,-3.765812 0.873318,-5.977858 -2.469604,2.863078 -5.63114,6.094144 -9.632836,7.877224 -0.13812,0.04292 -0.282064,0.06544 -0.426934,0.06598 -0.788972,0 -1.42856,-0.63206 -1.42856,-1.411746 -0.07916,-0.651814 0.934698,-1.277744 1.855454,-2.161734 6.45747,-6.478066 5.783908,-15.64746 9.37893,-21.161961 -1.3499,0.317282 -6.00984,1.642701 -10.00827,1.642701 -2.35599,0 -6.698637,-1.75004 -8.624422,-2.411914 z" />
    </clipPath>
  </defs>
  <sodipodi:namedview
     id="namedview18"
     pagecolor="#ffffff"
     bordercolor="#666666"
     borderopacity="1.0"
     inkscape:pageshadow="2"
     inkscape:pageopacity="0.0"
     inkscape:pagecheckerboard="0"
     showgrid="false"
     inkscape:zoom="12.859375"
     inkscape:cx="32"
     inkscape:cy="32"
     inkscape:window-width="1920"
     inkscape:window-height="996"
     inkscape:window-x="0"
     inkscape:window-y="0"
     inkscape:window-maximized="1"
     inkscape:current-layer="svg16" />
  <path
     style="fill:#29292a"
     d="m 36.837891,9 c -3.35194,0.2181996 -5.891367,1.023471 -8.943027,2.448955 -6.487424,3.47714 -9.938468,8.043725 -12.015094,13.896327 -1.239071,3.115684 -2.855751,4.607294 -6.588507,6.310824 C 7.2194042,32.600674 4.9566422,33.639178 3.0883766,35.182774 1.2819364,36.234976 1.9424433,37.946708 3.481465,38 h 13.229407 c 0.195424,0.819112 1.1379,1.844476 1.355607,2.724344 0.387204,1.620882 1.301782,2.797165 1.269106,4.115884 -0.05194,2.095982 -0.760475,4.504123 -2.283819,6.443823 -1.091623,1.390784 -1.021276,3.552304 0.688525,3.908014 0,0 5.621652,0.233198 8.860662,-0.17772 12.287474,-1.69696 33.317951,-10.044099 33.317951,-10.044099 1.333892,-0.518042 1.409218,-1.715936 0.707874,-2.985668 C 56.68903,36.205134 52.77502,30.634956 48.39488,25.679444 47.612558,24.787678 47.699117,23.020141 47.091521,21.797091 45.939445,19.478039 45.549354,17.04351 47.619756,16.313979 l 2.372792,-0.207958 c 2.338744,-0.204973 2.43421,-1.865019 1.574904,-3.481653 C 50.589259,11.158992 48.738079,10.471159 47.055373,9.9755821 46.479127,9.8058706 45.428404,10.070567 44.933498,9.9224436 42.237814,9.1193502 39.680485,9.0248708 36.837891,9 Z"
     id="path4"
     clip-path="url(#clipPath270)"
     inkscape:path-effect="#path-effect274"
     inkscape:original-d="m 36.837891,9 c -3.35194,0.2181996 -5.891367,1.023471 -8.943027,2.448955 -6.487424,3.47714 -9.938468,8.043725 -12.015094,13.896327 -1.239071,3.115684 -2.855751,4.607294 -6.588507,6.310824 C 7.2194042,32.600674 4.9566422,33.639178 3.0883766,35.182774 1.2819364,36.234976 1.9424433,37.946708 3.481465,38 l 13.229407,0 c 0.195424,0.819112 1.1379,1.844476 1.355607,2.724344 0.387204,1.620882 1.301782,2.797165 1.269106,4.115884 -0.05194,2.095982 -0.760475,4.504123 -2.283819,6.443823 -1.091623,1.390784 -1.021276,3.552304 0.688525,3.908014 0,0 5.621652,0.233198 8.860662,-0.17772 12.287474,-1.69696 33.317951,-10.044099 33.317951,-10.044099 1.333892,-0.518042 1.409218,-1.715936 0.707874,-2.985668 C 56.68903,36.205134 52.77502,30.634956 48.39488,25.679444 47.612558,24.787678 47.699117,23.020141 47.091521,21.797091 45.939445,19.478039 45.549354,17.04351 47.619756,16.313979 l 2.372792,-0.207958 c 2.338744,-0.204973 2.43421,-1.865019 1.574904,-3.481653 C 50.589259,11.158992 48.738079,10.471159 47.055373,9.9755821 46.479127,9.8058706 45.428404,10.070567 44.933498,9.9224436 42.237814,9.1193502 39.680485,9.0248708 36.837891,9 Z" />
  <path
     style="fill:#29292a"
     d="m 36.837894,8.0000002 c -3.35194,0.2181994 -6.797592,1.116759 -9.849252,2.5422438 -3.991594,2.139421 -6.484914,4.88812 -8.300716,8.045842 0,0 5.559562,2.411914 8.624374,2.411914 3.99843,0 8.65837,-1.325341 10.00829,-1.642623 0.490438,-0.752298 1.059758,-1.453423 1.746638,-2.087288 3.19128,-2.504178 3.606122,-2.389282 7.29626,-4.149757 0.558028,-0.266223 1.36669,-2.098593 1.102112,-2.96687 C 46.766752,9.9134892 46.070296,9.7030104 45.428786,9.5110082 42.733102,8.7079148 39.680486,8.024871 36.837894,8.0000002 Z m 10.69746,2.1782778 c -0.06976,-0.02482 0,0 0,0 z m -0.678008,11.233298 c -3.124422,5.435448 -5.672382,10.55213 -9.28285,14.737842 -0.1969,2.212046 -0.46797,4.309588 -0.87332,5.977858 -1.102428,4.537178 -5.767254,12.785664 -5.767254,12.785664 12.454128,-2.724168 29.561708,-9.449316 29.561708,-9.449316 1.333892,-0.51804 1.903902,-2.127278 1.202556,-3.39701 C 57.76044,36.28717 53.681662,30.059128 49.301522,25.103618 48.40746,24.084482 47.476726,22.738222 46.857346,21.411576 Z"
     id="path8" />
  <circle
     style="fill:#29292a"
     cx="27"
     cy="27"
     r="3"
     id="circle14" />
</svg>
