<?xml version="1.0" encoding="UTF-8" standalone="no"?>
<svg
   width="64"
   height="64"
   version="1"
   id="svg20"
   sodipodi:docname="gnome-tweak-tool.svg"
   inkscape:version="1.1 (1:1.1+202105261517+ce6663b3b7)"
   xmlns:inkscape="http://www.inkscape.org/namespaces/inkscape"
   xmlns:sodipodi="http://sodipodi.sourceforge.net/DTD/sodipodi-0.dtd"
   xmlns="http://www.w3.org/2000/svg"
   xmlns:svg="http://www.w3.org/2000/svg">
  <defs
     id="defs24">
    <inkscape:path-effect
       effect="powerclip"
       id="path-effect92"
       is_visible="true"
       lpeversion="1"
       inverse="true"
       flatten="false"
       hide_clip="false"
       message="Use fill-rule evenodd on &lt;b&gt;fill and stroke&lt;/b&gt; dialog if no flatten result after convert clip to paths." />
    <clipPath
       clipPathUnits="userSpaceOnUse"
       id="clipPath88">
      <path
         style="display:none;fill:#e6e6e6;stroke-width:0.916698"
         d="m 23.606013,28.678269 -0.15639,2.012623 a 5.5308919,6.0029796 0 0 0 -1.615464,1.014705 l -1.685925,-0.861753 -1.759824,3.308983 1.531254,1.152735 a 5.5308919,6.0029796 0 0 0 -0.08593,1.01284 5.5308919,6.0029796 0 0 0 0.08078,1.01657 l -1.526098,1.149004 1.759824,3.308984 1.682488,-0.858024 a 5.5308919,6.0029796 0 0 0 1.618901,1.007245 l 0.156391,2.016353 h 3.519648 l 0.152953,-2.012623 a 5.5308919,6.0029796 0 0 0 1.6189,-1.014705 l 1.684207,0.861754 1.759824,-3.308984 -1.529535,-1.152735 a 5.5308919,6.0029796 0 0 0 0.08593,-1.012839 5.5308919,6.0029796 0 0 0 -0.08078,-1.016571 l 1.526098,-1.149004 -1.759824,-3.308983 -1.682489,0.858023 A 5.5308919,6.0029796 0 0 0 27.28205,30.694623 l -0.156389,-2.016354 z m 1.696236,4.775083 a 2.6394276,2.8654438 0 0 1 0.06359,0 2.6394276,2.8654438 0 0 1 2.639736,2.86505 2.6394276,2.8654438 0 0 1 -2.639736,2.865049 2.6394276,2.8654438 0 0 1 -2.639736,-2.865049 2.6394276,2.8654438 0 0 1 2.576148,-2.86505 z"
         id="path90" />
      <path
         id="lpe_path-effect92"
         style="fill:#e6e6e6;stroke-width:0.916698"
         class="powerclip"
         d="M 2.5720891,-0.8258867 H 61.730082 V 65.336989 H 2.5720891 Z m 21.0339239,29.5041557 -0.15639,2.012623 a 5.5308919,6.0029796 0 0 0 -1.615464,1.014705 l -1.685925,-0.861753 -1.759824,3.308983 1.531254,1.152735 a 5.5308919,6.0029796 0 0 0 -0.08593,1.01284 5.5308919,6.0029796 0 0 0 0.08078,1.01657 l -1.526098,1.149004 1.759824,3.308984 1.682488,-0.858024 a 5.5308919,6.0029796 0 0 0 1.618901,1.007245 l 0.156391,2.016353 h 3.519648 l 0.152953,-2.012623 a 5.5308919,6.0029796 0 0 0 1.6189,-1.014705 l 1.684207,0.861754 1.759824,-3.308984 -1.529535,-1.152735 a 5.5308919,6.0029796 0 0 0 0.08593,-1.012839 5.5308919,6.0029796 0 0 0 -0.08078,-1.016571 l 1.526098,-1.149004 -1.759824,-3.308983 -1.682489,0.858023 A 5.5308919,6.0029796 0 0 0 27.28205,30.694623 l -0.156389,-2.016354 z m 1.696236,4.775083 h 2e-6 a 2.6394276,2.8654438 0 0 0 -2.576148,2.86505 2.6394276,2.8654438 0 0 0 2.639736,2.865049 2.6394276,2.8654438 0 0 0 2.639736,-2.865049 2.6394276,2.8654438 0 0 0 -2.639736,-2.86505 2.6394276,2.8654438 0 0 0 -0.06359,0 z" />
    </clipPath>
  </defs>
  <sodipodi:namedview
     id="namedview22"
     pagecolor="#ffffff"
     bordercolor="#666666"
     borderopacity="1.0"
     inkscape:pageshadow="2"
     inkscape:pageopacity="0.0"
     inkscape:pagecheckerboard="0"
     showgrid="false"
     inkscape:zoom="9.0929513"
     inkscape:cx="31.947823"
     inkscape:cy="28.97849"
     inkscape:window-width="1920"
     inkscape:window-height="996"
     inkscape:window-x="0"
     inkscape:window-y="0"
     inkscape:window-maximized="1"
     inkscape:current-layer="svg20" />
  <path
     style="fill:#333333;stroke-width:1.32021"
     d="m 51.726689,4.1741133 c -12.13318,0 -14.407709,16.5935767 -7.582118,16.5935767 6.824606,0 19.715794,-16.5935767 7.582118,-16.5935767 z m -18.639262,2.552858 c -0.195808,-6.484e-4 -0.401795,0.012764 -0.61873,0.039888 C 25.5293,7.635379 27.968285,19.271278 31.66328,19.488768 35.24135,19.699466 39.157461,6.747084 33.087427,6.7269713 Z M 20.395448,9.2823221 c -0.155087,-0.00727 -0.313899,-0.00268 -0.480051,0.012509 -0.354452,0.032332 -0.735485,0.1177506 -1.141451,0.2617676 C 12.27732,11.861503 17.788095,21.377288 21.427554,20.737817 24.735584,20.15796 25.203135,9.5063163 20.395448,9.2823656 Z m -9.022267,8.9325099 c -0.579903,-0.01447 -1.209827,0.127832 -1.8775272,0.471183 -5.3391871,2.747181 1.8005492,9.385868 4.9418452,8.35662 2.74864,-0.900979 0.995011,-8.72607 -3.064318,-8.827803 z m 25.367958,5.105716 c -9.206908,-0.152907 -21.352539,4.383916 -23.423757,13.48976 -2.243205,9.854096 9.234866,23.526681 21.210194,23.526681 5.891246,0 12.687481,-5.60535 13.958777,-12.220811 0.464169,-2.411632 -2.414147,-3.28622 -5.496568,-3.096337 -3.365391,0.207314 -6.974537,1.668204 -6.74203,3.410458 0.363745,2.727038 -0.688762,4.203722 -2.786956,4.248116 C 30.59614,52.352656 28.43178,51.123978 28.054907,48.779322 27.541881,42.622477 48.693518,38.234782 47.056873,28.688032 46.45827,25.196316 42.265283,23.412296 36.741139,23.320548 Z"
     id="path8"
     clip-path="url(#clipPath88)"
     inkscape:path-effect="#path-effect92"
     inkscape:original-d="m 51.726689,4.1741133 c -12.13318,0 -14.407709,16.5935767 -7.582118,16.5935767 6.824606,0 19.715794,-16.5935767 7.582118,-16.5935767 z m -18.639262,2.552858 c -0.195808,-6.484e-4 -0.401795,0.012764 -0.61873,0.039888 C 25.5293,7.635379 27.968285,19.271278 31.66328,19.488768 35.24135,19.699466 39.157461,6.747084 33.087427,6.7269713 Z M 20.395448,9.2823221 c -0.155087,-0.00727 -0.313899,-0.00268 -0.480051,0.012509 -0.354452,0.032332 -0.735485,0.1177506 -1.141451,0.2617676 C 12.27732,11.861503 17.788095,21.377288 21.427554,20.737817 24.735584,20.15796 25.203135,9.5063163 20.395448,9.2823656 Z m -9.022267,8.9325099 c -0.579903,-0.01447 -1.209827,0.127832 -1.8775272,0.471183 -5.3391871,2.747181 1.8005492,9.385868 4.9418452,8.35662 2.74864,-0.900979 0.995011,-8.72607 -3.064318,-8.827803 z m 25.367958,5.105716 c -9.206908,-0.152907 -21.352539,4.383916 -23.423757,13.48976 -2.243205,9.854096 9.234866,23.526681 21.210194,23.526681 5.891246,0 12.687481,-5.60535 13.958777,-12.220811 0.464169,-2.411632 -2.414147,-3.28622 -5.496568,-3.096337 -3.365391,0.207314 -6.974537,1.668204 -6.74203,3.410458 0.363745,2.727038 -0.688762,4.203722 -2.786956,4.248116 C 30.59614,52.352656 28.43178,51.123978 28.054907,48.779322 27.541881,42.622477 48.693518,38.234782 47.056873,28.688032 46.45827,25.196316 42.265283,23.412296 36.741139,23.320548 Z" />
</svg>
