<?xml version="1.0" encoding="UTF-8" standalone="no"?>
<svg
   width="64"
   height="64"
   version="1.1"
   id="svg73"
   sodipodi:docname="org.gnome.Weather.svg"
   inkscape:version="1.1 (1:1.1+202105261517+ce6663b3b7)"
   xmlns:inkscape="http://www.inkscape.org/namespaces/inkscape"
   xmlns:sodipodi="http://sodipodi.sourceforge.net/DTD/sodipodi-0.dtd"
   xmlns="http://www.w3.org/2000/svg"
   xmlns:svg="http://www.w3.org/2000/svg"
   xmlns:rdf="http://www.w3.org/1999/02/22-rdf-syntax-ns#"
   xmlns:cc="http://creativecommons.org/ns#"
   xmlns:dc="http://purl.org/dc/elements/1.1/">
  <metadata
     id="metadata77">
    <rdf:RDF>
      <cc:Work
         rdf:about="">
        <dc:format>image/svg+xml</dc:format>
        <dc:type
           rdf:resource="http://purl.org/dc/dcmitype/StillImage" />
        <dc:title />
      </cc:Work>
    </rdf:RDF>
  </metadata>
  <sodipodi:namedview
     pagecolor="#ffffff"
     bordercolor="#666666"
     borderopacity="1"
     objecttolerance="10"
     gridtolerance="10"
     guidetolerance="10"
     inkscape:pageopacity="0"
     inkscape:pageshadow="2"
     inkscape:window-width="1920"
     inkscape:window-height="996"
     id="namedview75"
     showgrid="false"
     inkscape:zoom="12.578125"
     inkscape:cx="23.970186"
     inkscape:cy="30.012422"
     inkscape:window-x="0"
     inkscape:window-y="0"
     inkscape:window-maximized="1"
     inkscape:current-layer="svg73"
     inkscape:document-rotation="0"
     inkscape:pagecheckerboard="0" />
  <defs
     id="defs29">
    <inkscape:path-effect
       effect="powerclip"
       id="path-effect174"
       is_visible="true"
       lpeversion="1"
       inverse="true"
       flatten="false"
       hide_clip="false"
       message="Use fill-rule evenodd on &lt;b&gt;fill and stroke&lt;/b&gt; dialog if no flatten result after convert clip to paths." />
    <linearGradient
       id="b"
       x1="399.57"
       x2="399.57"
       y1="545.8"
       y2="517.8"
       gradientTransform="matrix(2.1429,0,0,2.1429,-826.36,-1107.5)"
       gradientUnits="userSpaceOnUse">
      <stop
         stop-color="#3889e9"
         offset="0"
         id="stop2" />
      <stop
         stop-color="#5ea5fb"
         offset="1"
         id="stop4" />
    </linearGradient>
    <linearGradient
       id="linearGradient862"
       x1="7.9373"
       x2="7.9373"
       y1="15.081"
       y2="1.852"
       gradientTransform="matrix(3.3743 0 0 3.3743 3.4312 3.4278)"
       gradientUnits="userSpaceOnUse">
      <stop
         stop-color="#f1efeb"
         offset="0"
         id="stop7" />
      <stop
         stop-color="#fff"
         offset="1"
         id="stop9" />
    </linearGradient>
    <linearGradient
       id="linearGradient910"
       x1="7.9373"
       x2="7.9373"
       y1="15.081"
       y2="1.852"
       gradientTransform="scale(3.7796)"
       gradientUnits="userSpaceOnUse">
      <stop
         stop-color="#613583"
         offset="0"
         id="stop12" />
      <stop
         stop-color="#a663c0"
         offset="1"
         id="stop14" />
    </linearGradient>
    <linearGradient
       id="linearGradient932"
       x1="379.24"
       x2="374.24"
       y1="546.85"
       y2="546.85"
       gradientTransform="matrix(2.1429 0 0 2.1429 -769.68 -1134.5)"
       gradientUnits="userSpaceOnUse">
      <stop
         stop-color="#f6f5f4"
         offset="0"
         id="stop17" />
      <stop
         stop-color="#fff"
         offset=".6"
         id="stop19" />
      <stop
         stop-color="#dddbd8"
         offset="1"
         id="stop21" />
    </linearGradient>
    <linearGradient
       id="linearGradient1146"
       x1="18"
       x2="18"
       y1="52"
       y2="12"
       gradientUnits="userSpaceOnUse">
      <stop
         stop-color="#5e337f"
         offset="0"
         id="stop24" />
      <stop
         stop-color="#ab60bf"
         offset="1"
         id="stop26" />
    </linearGradient>
    <clipPath
       clipPathUnits="userSpaceOnUse"
       id="clipPath170">
      <ellipse
         style="display:none;fill:#29292a;stroke-width:0.980244"
         cx="42.011021"
         cy="24.379766"
         id="ellipse172"
         rx="11.519319"
         ry="12.011694"
         d="M 53.530339,24.379766 A 11.519319,12.011694 0 0 1 42.011021,36.39146 11.519319,12.011694 0 0 1 30.491702,24.379766 11.519319,12.011694 0 0 1 42.011021,12.368073 11.519319,12.011694 0 0 1 53.530339,24.379766 Z" />
      <path
         id="lpe_path-effect174"
         style="fill:#29292a;stroke-width:0.980244"
         class="powerclip"
         d="M 17.812159,-0.6397221 H 66.209885 V 49.399255 H 17.812159 Z M 53.530339,24.379766 A 11.519319,12.011694 0 0 0 42.011021,12.368073 11.519319,12.011694 0 0 0 30.491702,24.379766 11.519319,12.011694 0 0 0 42.011021,36.39146 11.519319,12.011694 0 0 0 53.530339,24.379766 Z" />
    </clipPath>
  </defs>
  <circle
     cx="32.02"
     cy="32.044"
     r="30.001"
     fill-opacity="0"
     stroke-width="1.5715"
     id="circle39" />
  <circle
     cx="32.02"
     cy="32.044"
     r="0"
     fill="url(#b)"
     stroke-width="1.5715"
     id="circle41" />
  <path
     style="opacity:0.2;fill:#ffffff;stroke-width:0.980244"
     d="m 42.011022,4.3602779 -5.75966,6.0058471 h -7.679543 v 2.001948 h 7.679543 l 5.75966,-6.005847 5.759658,6.005847 h 7.679546 V 10.366125 H 47.77068 Z m -13.439203,14.0136431 -5.75966,6.005846 0.959942,1.000974 4.799718,-5.004873 z m 26.878407,0 v 2.001947 l 4.799716,5.004873 0.959943,-1.000974 z"
     id="path2" />
  <path
     style="fill:#29292a;stroke-width:0.980244"
     d="m 42.011022,4.3602779 -5.75966,6.0058471 h -7.679543 v 8.007796 l -5.75966,6.005846 5.75966,6.005846 v 8.007797 h 7.679543 l 5.75966,6.005845 5.759658,-6.005845 h 7.679546 v -8.007797 l 5.759659,-6.005846 -5.759659,-6.005846 V 10.366125 H 47.77068 Z"
     id="path12"
     clip-path="url(#clipPath170)"
     inkscape:path-effect="#path-effect174"
     inkscape:original-d="m 42.011022,4.3602779 -5.75966,6.0058471 h -7.679543 v 8.007796 l -5.75966,6.005846 5.75966,6.005846 v 8.007797 h 7.679543 l 5.75966,6.005845 5.759658,-6.005845 h 7.679546 v -8.007797 l 5.759659,-6.005846 -5.759659,-6.005846 V 10.366125 H 47.77068 Z" />
  <ellipse
     style="opacity:0.2;stroke-width:0.980244"
     cx="31.039829"
     cy="44.685535"
     id="circle18"
     rx="10.971189"
     ry="11.440137" />
  <path
     id="circle22"
     style="fill:#29292a;stroke-width:0.980244"
     d="M 30.492188 30.384766 A 11.519319 12.011694 0 0 0 18.972656 42.396484 A 11.519319 12.011694 0 0 0 19.009766 42.925781 A 8.6394882 9.00877 0 0 0 16.091797 42.396484 A 8.6394882 9.00877 0 0 0 7.453125 51.40625 A 8.6394882 9.00877 0 0 0 16.091797 60.414062 L 44.890625 60.414062 A 8.6394882 9.00877 0 0 0 53.53125 51.40625 A 8.6394882 9.00877 0 0 0 44.890625 42.396484 A 8.6394882 9.00877 0 0 0 41.974609 42.949219 A 11.519319 12.011694 0 0 0 42.011719 42.396484 A 11.519319 12.011694 0 0 0 30.492188 30.384766 z " />
</svg>
