<?xml version="1.0" encoding="UTF-8" standalone="no"?>
<svg
   width="64"
   height="64"
   version="1"
   id="svg22"
   sodipodi:docname="org.gnome.epiphany.svg"
   inkscape:version="1.1 (1:1.1+rc+202105240936+c4e8f9ed74)"
   xmlns:inkscape="http://www.inkscape.org/namespaces/inkscape"
   xmlns:sodipodi="http://sodipodi.sourceforge.net/DTD/sodipodi-0.dtd"
   xmlns="http://www.w3.org/2000/svg"
   xmlns:svg="http://www.w3.org/2000/svg"
   xmlns:rdf="http://www.w3.org/1999/02/22-rdf-syntax-ns#"
   xmlns:cc="http://creativecommons.org/ns#"
   xmlns:dc="http://purl.org/dc/elements/1.1/">
  <metadata
     id="metadata28">
    <rdf:RDF>
      <cc:Work
         rdf:about="">
        <dc:format>image/svg+xml</dc:format>
        <dc:type
           rdf:resource="http://purl.org/dc/dcmitype/StillImage" />
      </cc:Work>
    </rdf:RDF>
  </metadata>
  <defs
     id="defs26">
    <inkscape:path-effect
       effect="powerclip"
       id="path-effect149"
       is_visible="true"
       lpeversion="1"
       inverse="true"
       flatten="false"
       hide_clip="false"
       message="Use fill-rule evenodd on &lt;b&gt;fill and stroke&lt;/b&gt; dialog if no flatten result after convert clip to paths." />
    <inkscape:path-effect
       effect="powerclip"
       id="path-effect129"
       is_visible="true"
       lpeversion="1"
       inverse="true"
       flatten="false"
       hide_clip="false"
       message="Use fill-rule evenodd on &lt;b&gt;fill and stroke&lt;/b&gt; dialog if no flatten result after convert clip to paths." />
    <inkscape:path-effect
       effect="powerclip"
       id="path-effect15"
       is_visible="true"
       lpeversion="1"
       inverse="true"
       flatten="false"
       hide_clip="false"
       message="Use fill-rule evenodd on &lt;b&gt;fill and stroke&lt;/b&gt; dialog if no flatten result after convert clip to paths." />
    <clipPath
       clipPathUnits="userSpaceOnUse"
       id="clipPath9">
      <g
         aria-label="p"
         transform="scale(1.0131728,0.98699846)"
         id="g13"
         style="font-size:61.2811px;line-height:1.25;font-family:Ancient;-inkscape-font-specification:Ancient;display:block;opacity:0.85;fill:#ffffff;stroke-width:1.53203">
        <path
           d="m 42.667571,21.433448 v 15.749243 q 0,0.367687 0.183844,0.612811 0,0.306406 0.612811,1.164341 l 0.183843,0.367687 q -0.55153,0 -0.980498,0 -0.428967,-0.06128 -0.735373,-0.245125 h -0.306405 q -4.718645,0 -9.621133,3.738147 l -0.245125,-0.183843 -0.06128,-0.122562 0.06128,0.06128 Q 31.391849,42.14646 30.9016,41.656211 30.472632,41.227244 29.859821,40.736995 v 4.902488 q 0,1.715871 1.225622,3.554304 -0.367686,-0.122562 -0.796654,-0.183843 -0.428968,-0.06128 -0.735373,-0.06128 -1.838433,0 -5.147613,1.593309 v -0.06128 q -0.367686,0.245124 -1.041779,0.612811 -0.612811,0.367687 -1.225622,0.674092 l -0.245124,-0.306405 q 0.980498,-1.348185 1.10306,-2.389963 0.06128,-0.122563 0.06128,-0.183844 0,-0.06128 0.06128,-0.367686 V 48.27457 l 0.06128,-0.122562 v -9.008322 h -0.245124 q -0.306406,0.122562 -0.674092,0.245125 -0.306406,0.06128 -0.735374,0.183843 h 0.06128 l -0.857935,0.428968 q -0.06128,0 -0.490249,0.183843 -0.122562,0.06128 -0.428967,0.245124 -0.306406,0.183844 -0.490249,0.306406 0,-1.715871 1.10306,-3.493023 1.103059,-1.777152 2.757649,-2.512525 V 22.536508 q 0,-0.796655 -0.857935,-1.286903 -0.796655,-0.490249 -1.777152,-0.490249 l -0.06128,0.06128 h -0.490249 l -0.06128,0.06128 H 19.31947 v -0.490249 l 6.557078,-6.924764 q 2.573806,1.225622 3.37046,3.186617 0.306406,0.735373 0.428968,1.838433 0.183843,1.041779 0.183843,2.512525 l 9.130884,-7.292451 q 0.306406,0.490249 0.735373,1.10306 0.490249,0.612811 1.164341,1.348184 1.348185,1.470747 2.328682,1.470747 0.06128,0.06128 0.490249,0.06128 0.245124,0 0.306406,-0.06128 0.551529,0 0.796654,-0.245125 h 0.122562 l 0.122562,-0.122562 H 45.4865 v 0.490249 q 0,1.041779 -0.919217,2.20612 -0.857935,1.16434 -1.899714,1.470746 z M 35.558964,37.856783 35.987931,37.67294 V 21.494729 q -1.041778,0 -2.144838,-1.10306 l -3.983272,3.186618 0.183843,10.540349 q 0.428968,0.06128 1.838433,0.674092 2.389963,1.225622 3.676867,3.064055 z"
           id="path11" />
      </g>
    </clipPath>
    <clipPath
       clipPathUnits="userSpaceOnUse"
       id="clipPath125">
      <path
         id="path127"
         style="display:block;fill:#333333;stroke-width:1.06355"
         d="m -10.859375,-52.898438 -18.408203,23.65625 -23.667969,18.400391 18.408203,-23.65625 h 0.002 z" />
    </clipPath>
    <clipPath
       clipPathUnits="userSpaceOnUse"
       id="clipPath145">
      <path
         id="path147"
         style="display:none;fill:#333333;stroke-width:0.945505"
         d="m -13.189453,-51.560547 -15.435547,20.115235 -4.408203,-4.470704 z m -17.285156,22.644531 -21.052735,16.34961 16.373047,-21.019532 2.462891,2.457032 z" />
      <path
         id="lpe_path-effect149"
         style="fill:#333333;stroke-width:0.945505"
         class="powerclip"
         d="M -66.90416,-66.784737 H 2.6706924 V 2.6840858 H -66.90416 Z m 53.714707,15.22419 -19.84375,15.644531 4.408203,4.470704 z m -17.285156,22.644531 -2.216797,-2.21289 -2.462891,-2.457032 -16.373047,21.019532 z" />
    </clipPath>
  </defs>
  <sodipodi:namedview
     pagecolor="#ffffff"
     bordercolor="#666666"
     borderopacity="1"
     objecttolerance="10"
     gridtolerance="10"
     guidetolerance="10"
     inkscape:pageopacity="0"
     inkscape:pageshadow="2"
     inkscape:window-width="1355"
     inkscape:window-height="912"
     id="namedview24"
     showgrid="false"
     inkscape:zoom="9.1150484"
     inkscape:cx="32.144646"
     inkscape:cy="31.760665"
     inkscape:window-x="67"
     inkscape:window-y="84"
     inkscape:window-maximized="0"
     inkscape:current-layer="svg22"
     inkscape:pagecheckerboard="0" />
  <path
     style="fill:#29292a;stroke-width:1.06289"
     width="59.574852"
     height="59.468822"
     x="-61.90416"
     y="-61.784737"
     rx="29.781046"
     ry="29.728037"
     transform="matrix(0,-1,-1,0,0,0)"
     id="rect4"
     sodipodi:type="rect"
     clip-path="url(#clipPath145)"
     inkscape:path-effect="#path-effect149"
     d="m -32.123114,-61.784737 h 0.01276 c 16.498699,0 29.7810454,13.258705 29.7810454,29.728037 v 0.01275 c 0,16.469332 -13.2823464,29.7280368 -29.7810454,29.7280368 h -0.01276 c -16.498699,0 -29.781046,-13.2587048 -29.781046,-29.7280368 v -0.01275 c 0,-16.469332 13.282347,-29.728037 29.781046,-29.728037 z" />
</svg>
