<?xml version="1.0" encoding="UTF-8" standalone="no"?>
<svg
   width="64"
   height="64"
   version="1"
   id="svg28"
   sodipodi:docname="gnome-chess.svg"
   inkscape:version="1.1 (1:1.1+rc+202105240936+c4e8f9ed74)"
   xmlns:inkscape="http://www.inkscape.org/namespaces/inkscape"
   xmlns:sodipodi="http://sodipodi.sourceforge.net/DTD/sodipodi-0.dtd"
   xmlns="http://www.w3.org/2000/svg"
   xmlns:svg="http://www.w3.org/2000/svg">
  <defs
     id="defs32">
    <inkscape:path-effect
       effect="powerclip"
       id="path-effect707"
       is_visible="true"
       lpeversion="1"
       inverse="true"
       flatten="false"
       hide_clip="false"
       message="Use fill-rule evenodd on &lt;b&gt;fill and stroke&lt;/b&gt; dialog if no flatten result after convert clip to paths." />
    <clipPath
       clipPathUnits="userSpaceOnUse"
       id="clipPath703">
      <path
         id="path705"
         style="display:none;fill:#cccccc"
         d="m 43,22 a 10,10 0 0 0 -10,10 10,10 0 0 0 7.291016,9.619141 L 33.099609,56 H 32.716797 C 30.979913,56 29,58.306428 29,60 h 28 c 0,-1.693572 -1.979913,-4 -3.716797,-4 H 52.900391 L 45.708984,41.619141 A 10,10 0 0 0 53,32 10,10 0 0 0 43,22 Z" />
      <path
         id="lpe_path-effect707"
         style="fill:#cccccc"
         class="powerclip"
         d="M 2,-1 H 46 V 53 H 2 Z m 41,23 a 10,10 0 0 0 -10,10 10,10 0 0 0 7.291016,9.619141 L 33.099609,56 H 32.716797 C 30.979913,56 29,58.306428 29,60 h 28 c 0,-1.693572 -1.979913,-4 -3.716797,-4 H 52.900391 L 45.708984,41.619141 A 10,10 0 0 0 53,32 10,10 0 0 0 43,22 Z" />
    </clipPath>
  </defs>
  <sodipodi:namedview
     id="namedview30"
     pagecolor="#ffffff"
     bordercolor="#666666"
     borderopacity="1.0"
     inkscape:pageshadow="2"
     inkscape:pageopacity="0.0"
     inkscape:pagecheckerboard="0"
     showgrid="false"
     inkscape:zoom="12.859375"
     inkscape:cx="32"
     inkscape:cy="34.955043"
     inkscape:window-width="1920"
     inkscape:window-height="996"
     inkscape:window-x="0"
     inkscape:window-y="0"
     inkscape:window-maximized="1"
     inkscape:current-layer="svg28" />
  <path
     id="path8"
     style="fill:#29292a"
     d="M 19.003906,4 18.996094,8.8222656 7,19.126953 9.4472656,24.078125 14.628906,22.166016 c 0.952756,1.21508 2.402648,1.92367 3.935547,1.923828 2.634222,-0.003 4.311029,-2.205141 4.498047,-4.863282 v 4.851563 c -0.0036,2.415734 -0.272147,5.102624 -2.595703,5.65625 -2.073166,0.4942 -3.53049,-0.148594 -6.021485,0.878906 -3.785695,1.561834 -5.4584689,3.615389 -5.4589839,7.751953 l 3.7363279,5.691407 C 10.884617,44.404429 9,46.454553 9,48 h 32 c 0,-1.693572 -2.263039,-4 -4.248047,-4 h -1.71875 L 39,38.470703 V 22.847656 C 39,14.569834 31.96942,8.0527344 23.789062,8.0527344 c -0.08758,0.00364 -0.176081,0.00845 -0.263671,0.013672 0.013,-0.4102769 -0.02557,-0.1211455 -0.115235,-0.5214843 C 22.914528,5.3569915 21.222358,4.0041704 19.003906,4 Z"
     clip-path="url(#clipPath703)"
     inkscape:path-effect="#path-effect707"
     inkscape:original-d="M 19.003906,4 18.996094,8.8222656 7,19.126953 9.4472656,24.078125 14.628906,22.166016 c 0.952756,1.21508 2.402648,1.92367 3.935547,1.923828 2.634222,-0.003 4.311029,-2.205141 4.498047,-4.863282 v 4.851563 c -0.0036,2.415734 -0.272147,5.102624 -2.595703,5.65625 -2.073166,0.4942 -3.53049,-0.148594 -6.021485,0.878906 -3.785695,1.561834 -5.4584689,3.615389 -5.4589839,7.751953 l 3.7363279,5.691407 C 10.884617,44.404429 9,46.454553 9,48 h 32 c 0,-1.693572 -2.263039,-4 -4.248047,-4 h -1.71875 L 39,38.470703 V 22.847656 C 39,14.569834 31.96942,8.0527344 23.789062,8.0527344 c -0.08758,0.00364 -0.176081,0.00845 -0.263671,0.013672 0.013,-0.4102769 -0.02557,-0.1211455 -0.115235,-0.5214843 C 22.914528,5.3569915 21.222358,4.0041704 19.003906,4 Z"
     transform="matrix(1.0759923,0,0,1.0686992,-3.8463348,-2.3730996)" />
  <path
     id="path14-3"
     style="fill:#29292a;stroke-width:1.07234"
     d="M 45.463647,21.563884 A 10.759923,10.686992 0 0 0 34.703724,32.250875 10.759923,10.686992 0 0 0 42.548801,42.530844 L 34.810904,57.899655 H 34.399 c -1.868873,0 -3.999244,2.464878 -3.999244,4.274797 h 30.127782 c 0,-1.809919 -2.130371,-4.274797 -3.999244,-4.274797 H 56.116391 L 48.378493,42.530844 A 10.759923,10.686992 0 0 0 56.22357,32.250875 10.759923,10.686992 0 0 0 45.463647,21.563884 Z" />
</svg>
