<?xml version="1.0" encoding="UTF-8" standalone="no"?>
<svg
   width="64"
   height="64"
   version="1.1"
   id="svg10"
   sodipodi:docname="org.zotero.Zotero.svg"
   inkscape:version="1.1 (1:1.1+202105261517+ce6663b3b7)"
   xmlns:inkscape="http://www.inkscape.org/namespaces/inkscape"
   xmlns:sodipodi="http://sodipodi.sourceforge.net/DTD/sodipodi-0.dtd"
   xmlns="http://www.w3.org/2000/svg"
   xmlns:svg="http://www.w3.org/2000/svg"
   xmlns:rdf="http://www.w3.org/1999/02/22-rdf-syntax-ns#"
   xmlns:cc="http://creativecommons.org/ns#"
   xmlns:dc="http://purl.org/dc/elements/1.1/">
  <metadata
     id="metadata16">
    <rdf:RDF>
      <cc:Work
         rdf:about="">
        <dc:format>image/svg+xml</dc:format>
        <dc:type
           rdf:resource="http://purl.org/dc/dcmitype/StillImage" />
        <dc:title />
      </cc:Work>
    </rdf:RDF>
  </metadata>
  <defs
     id="defs14">
    <inkscape:path-effect
       effect="powerclip"
       id="path-effect26"
       is_visible="true"
       lpeversion="1"
       inverse="true"
       flatten="false"
       hide_clip="false"
       message="Use fill-rule evenodd on &lt;b&gt;fill and stroke&lt;/b&gt; dialog if no flatten result after convert clip to paths." />
    <clipPath
       clipPathUnits="userSpaceOnUse"
       id="clipPath22">
      <path
         style="color:#000000;display:none;opacity:0.85;fill:#ffffff;stroke-linecap:square;stroke-linejoin:round;-inkscape-stroke:none"
         d="m 17.013672,15 v 6 h 3 17.455078 L 17.734375,44.048828 A 3.0003,3.0003 0 0 0 20.013672,49 h 23.945312 3 v -6 h -3 H 26.53125 L 46.265625,19.951172 A 3.0003,3.0003 0 0 0 43.986328,15 H 20.013672 Z"
         id="path24" />
      <path
         id="lpe_path-effect26"
         style="color:#000000;opacity:0.85;fill:#ffffff;stroke-linecap:square;stroke-linejoin:round;-inkscape-stroke:none"
         class="powerclip"
         d="M 1.0000005,-1.0002711 H 62.999799 V 64.99911 H 1.0000005 Z M 17.013672,15 v 6 h 3 17.455078 L 17.734375,44.048828 A 3.0003,3.0003 0 0 0 20.013672,49 h 23.945312 3 v -6 h -3 H 26.53125 L 46.265625,19.951172 A 3.0003,3.0003 0 0 0 43.986328,15 H 20.013672 Z" />
    </clipPath>
  </defs>
  <sodipodi:namedview
     pagecolor="#ffffff"
     bordercolor="#666666"
     borderopacity="1"
     objecttolerance="10"
     gridtolerance="10"
     guidetolerance="10"
     inkscape:pageopacity="0"
     inkscape:pageshadow="2"
     inkscape:window-width="1528"
     inkscape:window-height="990"
     id="namedview12"
     showgrid="false"
     inkscape:zoom="12.890625"
     inkscape:cx="32"
     inkscape:cy="38.206061"
     inkscape:window-x="90"
     inkscape:window-y="6"
     inkscape:window-maximized="0"
     inkscape:current-layer="svg10"
     inkscape:pagecheckerboard="0" />
  <path
     style="fill:#29292a"
     d="M 32.155597,4.0017289 A 6.5946984,6.3671019 0 0 0 28.70165,4.8511158 L 9.2973497,15.667749 a 6.5946984,6.3671019 0 0 0 -3.2973492,5.513915 v 21.633667 a 6.5946984,6.3671019 0 0 0 3.2973492,5.513915 L 28.70225,59.14608 a 6.5946984,6.3671019 0 0 0 6.594699,0 L 54.70185,48.329246 a 6.5946984,6.3671019 0 0 0 3.297949,-5.515915 V 21.179664 A 6.5946984,6.3671019 0 0 0 54.70185,15.665749 L 35.298149,4.8491158 A 6.5946984,6.3671019 0 0 0 32.156197,3.9997289 Z"
     id="path2"
     clip-path="url(#clipPath22)"
     inkscape:path-effect="#path-effect26"
     inkscape:original-d="M 32.155597,4.0017289 A 6.5946984,6.3671019 0 0 0 28.70165,4.8511158 L 9.2973497,15.667749 a 6.5946984,6.3671019 0 0 0 -3.2973492,5.513915 l 0,21.633667 a 6.5946984,6.3671019 0 0 0 3.2973492,5.513915 L 28.70225,59.14608 a 6.5946984,6.3671019 0 0 0 6.594699,0 L 54.70185,48.329246 a 6.5946984,6.3671019 0 0 0 3.297949,-5.515915 l 0,-21.633667 A 6.5946984,6.3671019 0 0 0 54.70185,15.665749 L 35.298149,4.8491158 A 6.5946984,6.3671019 0 0 0 32.156197,3.9997289 Z" />
</svg>
