<?xml version="1.0" encoding="UTF-8" standalone="no"?>
<svg
   width="64"
   height="64"
   version="1"
   id="svg30"
   sodipodi:docname="org.darktable.Darktable.svg"
   inkscape:version="1.1 (1:1.1+202106031931+af4d65493e)"
   xmlns:inkscape="http://www.inkscape.org/namespaces/inkscape"
   xmlns:sodipodi="http://sodipodi.sourceforge.net/DTD/sodipodi-0.dtd"
   xmlns="http://www.w3.org/2000/svg"
   xmlns:svg="http://www.w3.org/2000/svg">
  <g
     id="g689"
     transform="matrix(1.0743152,0,0,1.0726721,-2.6812794,-2.3737896)"
     style="fill:#29292a">
    <path
       style="fill:#29292a"
       d="M 55.999332,32.000464 A 23.999681,23.999681 0 0 1 31.999651,56.000145 23.999681,23.999681 0 0 1 7.9999701,32.000464 23.999681,23.999681 0 0 1 31.999651,8.0007835 23.999681,23.999681 0 0 1 55.999332,32.000464 Z"
       id="path2"
       clip-path="url(#clipPath674)"
       inkscape:path-effect="#path-effect678"
       inkscape:original-d="M 55.999332,32.000464 A 23.999681,23.999681 0 0 1 31.999651,56.000145 23.999681,23.999681 0 0 1 7.9999701,32.000464 23.999681,23.999681 0 0 1 31.999651,8.0007835 23.999681,23.999681 0 0 1 55.999332,32.000464 Z" />
    <path
       style="fill:#29292a"
       d="M 38.937124,6.0129978 32.667207,23.609564 57.354879,19.513619 C 53.698928,12.589911 46.961017,7.501978 38.937124,6.0129978 Z"
       id="path6-3" />
    <path
       style="fill:#29292a"
       d="M 58.892301,24.80727 40.301948,28.252224 56.243136,47.284771 C 60.496479,40.700459 61.597265,32.404569 58.892301,24.80707 Z"
       id="path8-6" />
    <path
       style="fill:#29292a"
       d="M 51.69562,51.2541 39.374384,37.103088 30.6273,60.230781 c 7.910095,0.339615 15.74739,-2.868562 21.06772,-8.976681 z"
       id="path10-7" />
    <path
       style="fill:#29292a"
       d="M 24.914747,58.122056 31.184664,40.52629 6.496992,44.622236 c 3.656751,6.923908 10.393262,12.01164 18.418955,13.50082 z"
       id="path12-5" />
    <path
       style="fill:#29292a"
       d="M 5.6772824,39.31771 24.268436,35.871756 8.3266476,16.840209 C 4.0731034,23.423922 2.9725184,31.719811 5.6772824,39.31791 Z"
       id="path14-3" />
    <path
       style="fill:#29292a"
       d="M 12.558873,12.99128 24.881109,27.141892 33.626993,4.0141995 C 25.717098,3.675004 17.879802,6.8831614 12.559273,12.99128 Z"
       id="path16-5" />
  </g>
  <defs
     id="defs34">
    <inkscape:path-effect
       effect="powerclip"
       id="path-effect678"
       is_visible="true"
       lpeversion="1"
       inverse="true"
       flatten="false"
       hide_clip="false"
       message="Use fill-rule evenodd on &lt;b&gt;fill and stroke&lt;/b&gt; dialog if no flatten result after convert clip to paths." />
    <clipPath
       clipPathUnits="userSpaceOnUse"
       id="clipPath674">
      <path
         id="path676"
         style="display:none;fill:#e9721a"
         d="M 32.394531,6.0019531 C 24.996463,6.0972919 17.79659,9.2755922 12.808594,15.001953 h -0.002 L 25.128906,29.152344 33.875,6.0253906 c -0.494368,-0.0212 -0.987264,-0.029793 -1.480469,-0.023437 z m 4.941407,1.1113281 -6.269532,17.5976568 24.6875,-4.095704 C 52.097955,13.691526 45.359831,8.6022614 37.335938,7.1132812 Z M 10.121094,17.410156 C 5.8675502,23.993869 4.7678922,32.290573 7.4726562,39.888672 L 26.064453,36.443359 Z m 46.40625,6.703125 -18.589844,3.44336 15.941406,19.033203 c 4.253343,-6.584312 5.353402,-14.879064 2.648438,-22.476563 z m -17.65625,10.734375 -8.748047,23.126953 c 7.910095,0.339615 15.748029,-2.868443 21.068359,-8.976562 z m -5.9375,4.44336 -24.6875002,4.095703 c 3.6567512,6.923908 10.3922752,12.01082 18.4179682,13.5 z" />
      <path
         id="lpe_path-effect678"
         style="fill:#e9721a"
         class="powerclip"
         d="M 2.9999701,3.0007835 H 60.999332 V 61.000145 H 2.9999701 Z M 32.394531,6.0019531 C 24.996463,6.0972919 17.79659,9.2755922 12.808594,15.001953 h -0.002 L 25.128906,29.152344 33.875,6.0253906 c -0.494368,-0.0212 -0.987264,-0.029793 -1.480469,-0.023437 z m 4.941407,1.1113281 -6.269532,17.5976568 24.6875,-4.095704 C 52.097955,13.691526 45.359831,8.6022614 37.335938,7.1132812 Z M 10.121094,17.410156 C 5.8675502,23.993869 4.7678922,32.290573 7.4726562,39.888672 L 26.064453,36.443359 Z m 46.40625,6.703125 -18.589844,3.44336 15.941406,19.033203 c 4.253343,-6.584312 5.353402,-14.879064 2.648438,-22.476563 z m -17.65625,10.734375 -8.748047,23.126953 c 7.910095,0.339615 15.748029,-2.868443 21.068359,-8.976562 z m -5.9375,4.44336 -24.6875002,4.095703 c 3.6567512,6.923908 10.3922752,12.01082 18.4179682,13.5 z" />
    </clipPath>
  </defs>
  <sodipodi:namedview
     id="namedview32"
     pagecolor="#ffffff"
     bordercolor="#666666"
     borderopacity="1.0"
     inkscape:pageshadow="2"
     inkscape:pageopacity="0.0"
     inkscape:pagecheckerboard="0"
     showgrid="false"
     inkscape:zoom="12.859375"
     inkscape:cx="9.0595383"
     inkscape:cy="30.755772"
     inkscape:window-width="1920"
     inkscape:window-height="996"
     inkscape:window-x="0"
     inkscape:window-y="0"
     inkscape:window-maximized="1"
     inkscape:current-layer="svg30" />
</svg>
