<?xml version="1.0" encoding="UTF-8" standalone="no"?>
<svg
   width="64"
   height="64"
   version="1"
   id="svg28"
   sodipodi:docname="org.gnome.Music.svg"
   inkscape:version="1.1 (1:1.1+rc+202105240936+c4e8f9ed74)"
   xmlns:inkscape="http://www.inkscape.org/namespaces/inkscape"
   xmlns:sodipodi="http://sodipodi.sourceforge.net/DTD/sodipodi-0.dtd"
   xmlns="http://www.w3.org/2000/svg"
   xmlns:svg="http://www.w3.org/2000/svg">
  <g
     id="g446"
     style="fill:#29292a">
    <path
       id="circle4"
       style="fill:#29292a"
       d="M 32,4 A 28,28 0 0 0 17.677734,8 h -4.03125 C 10.518046,8 8,10.518046 8,13.646484 v 4.03125 A 28,28 0 0 0 4,32 28,28 0 0 0 8,46.322266 v 4.03125 C 8,53.481954 10.518046,56 13.646484,56 h 4.03125 A 28,28 0 0 0 32,60 28,28 0 0 0 46.322266,56 h 4.03125 C 53.481954,56 56,53.481954 56,50.353516 v -4.03125 A 28,28 0 0 0 60,32 28,28 0 0 0 56,17.580078 V 13.646484 C 56,10.518046 53.481954,8 50.353516,8 H 46.419922 A 28,28 0 0 0 32,4 Z"
       clip-path="url(#clipPath436)"
       inkscape:path-effect="#path-effect440"
       inkscape:original-d="M 32 4 A 28 28 0 0 0 17.677734 8 L 13.646484 8 C 10.518046 8 8 10.518046 8 13.646484 L 8 17.677734 A 28 28 0 0 0 4 32 A 28 28 0 0 0 8 46.322266 L 8 50.353516 C 8 53.481954 10.518046 56 13.646484 56 L 17.677734 56 A 28 28 0 0 0 32 60 A 28 28 0 0 0 46.322266 56 L 50.353516 56 C 53.481954 56 56 53.481954 56 50.353516 L 56 46.322266 A 28 28 0 0 0 60 32 A 28 28 0 0 0 56 17.580078 L 56 13.646484 C 56 10.518046 53.481954 8 50.353516 8 L 46.419922 8 A 28 28 0 0 0 32 4 z " />
    <circle
       style="fill:#29292a"
       cx="32"
       cy="32"
       r="7"
       id="circle14" />
  </g>
  <defs
     id="defs32">
    <inkscape:path-effect
       effect="powerclip"
       id="path-effect440"
       is_visible="true"
       lpeversion="1"
       inverse="true"
       flatten="false"
       hide_clip="false"
       message="Use fill-rule evenodd on &lt;b&gt;fill and stroke&lt;/b&gt; dialog if no flatten result after convert clip to paths." />
    <clipPath
       clipPathUnits="userSpaceOnUse"
       id="clipPath436">
      <path
         id="path438"
         style="display:none;fill:#ffcf24"
         d="m 13,11 a 2,2 0 0 0 -2,2 2,2 0 0 0 2,2 2,2 0 0 0 2,-2 2,2 0 0 0 -2,-2 z m 38,0 a 2,2 0 0 0 -2,2 2,2 0 0 0 2,2 2,2 0 0 0 2,-2 2,2 0 0 0 -2,-2 z M 32,12 A 20,20 0 0 0 12,32 20,20 0 0 0 32,52 20,20 0 0 0 52,32 20,20 0 0 0 32,12 Z M 13,49 a 2,2 0 0 0 -2,2 2,2 0 0 0 2,2 2,2 0 0 0 2,-2 2,2 0 0 0 -2,-2 z m 38,0 a 2,2 0 0 0 -2,2 2,2 0 0 0 2,2 2,2 0 0 0 2,-2 2,2 0 0 0 -2,-2 z" />
      <path
         id="lpe_path-effect440"
         style="fill:#ffcf24"
         class="powerclip"
         d="M -1,-1 H 65 V 65 H -1 Z m 14,12 a 2,2 0 0 0 -2,2 2,2 0 0 0 2,2 2,2 0 0 0 2,-2 2,2 0 0 0 -2,-2 z m 38,0 a 2,2 0 0 0 -2,2 2,2 0 0 0 2,2 2,2 0 0 0 2,-2 2,2 0 0 0 -2,-2 z M 32,12 A 20,20 0 0 0 12,32 20,20 0 0 0 32,52 20,20 0 0 0 52,32 20,20 0 0 0 32,12 Z M 13,49 a 2,2 0 0 0 -2,2 2,2 0 0 0 2,2 2,2 0 0 0 2,-2 2,2 0 0 0 -2,-2 z m 38,0 a 2,2 0 0 0 -2,2 2,2 0 0 0 2,2 2,2 0 0 0 2,-2 2,2 0 0 0 -2,-2 z" />
    </clipPath>
  </defs>
  <sodipodi:namedview
     id="namedview30"
     pagecolor="#ffffff"
     bordercolor="#666666"
     borderopacity="1.0"
     inkscape:pageshadow="2"
     inkscape:pageopacity="0.0"
     inkscape:pagecheckerboard="0"
     showgrid="false"
     inkscape:zoom="12.859375"
     inkscape:cx="32"
     inkscape:cy="32"
     inkscape:window-width="1920"
     inkscape:window-height="996"
     inkscape:window-x="0"
     inkscape:window-y="0"
     inkscape:window-maximized="1"
     inkscape:current-layer="svg28" />
</svg>
