<?xml version="1.0" encoding="UTF-8" standalone="no"?>
<svg
   width="64"
   height="64"
   version="1"
   id="svg34"
   sodipodi:docname="org.gnome.ArchiveManager.svg"
   inkscape:version="1.1 (1:1.1+202105261517+ce6663b3b7)"
   xmlns:inkscape="http://www.inkscape.org/namespaces/inkscape"
   xmlns:sodipodi="http://sodipodi.sourceforge.net/DTD/sodipodi-0.dtd"
   xmlns="http://www.w3.org/2000/svg"
   xmlns:svg="http://www.w3.org/2000/svg"
   xmlns:rdf="http://www.w3.org/1999/02/22-rdf-syntax-ns#"
   xmlns:cc="http://creativecommons.org/ns#"
   xmlns:dc="http://purl.org/dc/elements/1.1/">
  <metadata
     id="metadata40">
    <rdf:RDF>
      <cc:Work
         rdf:about="">
        <dc:format>image/svg+xml</dc:format>
        <dc:type
           rdf:resource="http://purl.org/dc/dcmitype/StillImage" />
        <dc:title />
      </cc:Work>
    </rdf:RDF>
  </metadata>
  <defs
     id="defs38">
    <inkscape:path-effect
       effect="powerclip"
       id="path-effect534"
       is_visible="true"
       lpeversion="1"
       inverse="true"
       flatten="false"
       hide_clip="false"
       message="Use fill-rule evenodd on &lt;b&gt;fill and stroke&lt;/b&gt; dialog if no flatten result after convert clip to paths." />
    <clipPath
       clipPathUnits="userSpaceOnUse"
       id="clipPath528">
      <g
         id="g532"
         style="display:none">
        <path
           id="path530"
           style="opacity:0.85;fill:#ffffff"
           d="m 31,4 v 3 h 3 V 4 Z m 0,3 h -3 v 3 h 3 z m 0,3 v 3 h 3 v -3 z m 0,3 h -3 v 3 h 3 z m 0,3 v 3 h 3 v -3 z m 0,3 h -3 v 3 h 3 z m 0,3 v 3 h 3 v -3 z m 0,3 h -3 v 3 h 3 z m 0,3 v 1.507812 h -0.07227 c -2.585333,0 -4.667968,2.102725 -4.667968,4.710938 v 9.578125 c 0,2.608214 2.082635,4.710937 4.667968,4.710937 h 0.664063 c 2.585333,0 4.667969,-2.102722 4.667969,-4.710937 V 34.21875 c 0,-1.718288 -0.903722,-3.216251 -2.259766,-4.039062 V 28 Z m 0.259766,11.507812 c 2.209139,4e-6 4,1.792882 4,4.001954 0,2.209073 -1.790861,3.998047 -4,3.998046 -2.209139,0 -4,-1.788973 -4,-3.998046 0,-2.209072 1.790861,-4.00195 4,-4.001954 z" />
      </g>
      <path
         id="lpe_path-effect534"
         class="powerclip"
         d="M -0.8775568,-0.97679901 H 65.122443 V 65.023201 H -0.8775568 Z M 31,4 v 3 h 3 V 4 Z m 0,3 h -3 v 3 h 3 z m 0,3 v 3 h 3 v -3 z m 0,3 h -3 v 3 h 3 z m 0,3 v 3 h 3 v -3 z m 0,3 h -3 v 3 h 3 z m 0,3 v 3 h 3 v -3 z m 0,3 h -3 v 3 h 3 z m 0,3 v 1.507812 h -0.07227 c -2.585333,0 -4.667968,2.102725 -4.667968,4.710938 v 9.578125 c 0,2.608214 2.082635,4.710937 4.667968,4.710937 h 0.664063 c 2.585333,0 4.667969,-2.102722 4.667969,-4.710937 V 34.21875 c 0,-1.718288 -0.903722,-3.216251 -2.259766,-4.039062 V 28 Z m 0.259766,11.507812 c -2.209139,4e-6 -4,1.792882 -4,4.001954 0,2.209073 1.790861,3.998046 4,3.998046 2.209139,10e-7 4,-1.788973 4,-3.998046 0,-2.209072 -1.790861,-4.00195 -4,-4.001954 z" />
    </clipPath>
  </defs>
  <sodipodi:namedview
     pagecolor="#ffffff"
     bordercolor="#666666"
     borderopacity="1"
     objecttolerance="10"
     gridtolerance="10"
     guidetolerance="10"
     inkscape:pageopacity="0"
     inkscape:pageshadow="2"
     inkscape:window-width="1487"
     inkscape:window-height="840"
     id="namedview36"
     showgrid="false"
     inkscape:zoom="12.890625"
     inkscape:cx="32.038788"
     inkscape:cy="32"
     inkscape:window-x="142"
     inkscape:window-y="302"
     inkscape:window-maximized="0"
     inkscape:current-layer="svg34"
     inkscape:document-rotation="0"
     inkscape:pagecheckerboard="0" />
  <path
     style="fill:#29292a"
     width="56"
     height="56"
     x="4.1224432"
     y="4.023201"
     rx="5.5999999"
     ry="5.5999999"
     id="rect4"
     sodipodi:type="rect"
     d="M 9.7224431,4.023201 H 54.522443 c 3.1024,0 5.6,2.4975999 5.6,5.5999999 V 54.423201 c 0,3.1024 -2.4976,5.6 -5.6,5.6 H 9.7224431 c -3.1023999,0 -5.5999999,-2.4976 -5.5999999,-5.6 V 9.6232009 c 0,-3.1024 2.4976,-5.5999999 5.5999999,-5.5999999 z"
     clip-path="url(#clipPath528)"
     inkscape:path-effect="#path-effect534" />
</svg>
