<?xml version="1.0" encoding="UTF-8" standalone="no"?>
<svg
   width="64"
   height="64"
   version="1.1"
   id="svg18"
   sodipodi:docname="org.gnome.baobab.svg"
   inkscape:version="1.1 (1:1.1+202105261517+ce6663b3b7)"
   xmlns:inkscape="http://www.inkscape.org/namespaces/inkscape"
   xmlns:sodipodi="http://sodipodi.sourceforge.net/DTD/sodipodi-0.dtd"
   xmlns="http://www.w3.org/2000/svg"
   xmlns:svg="http://www.w3.org/2000/svg"
   xmlns:rdf="http://www.w3.org/1999/02/22-rdf-syntax-ns#"
   xmlns:cc="http://creativecommons.org/ns#"
   xmlns:dc="http://purl.org/dc/elements/1.1/">
  <metadata
     id="metadata24">
    <rdf:RDF>
      <cc:Work
         rdf:about="">
        <dc:format>image/svg+xml</dc:format>
        <dc:type
           rdf:resource="http://purl.org/dc/dcmitype/StillImage" />
        <dc:title />
      </cc:Work>
    </rdf:RDF>
  </metadata>
  <defs
     id="defs22">
    <inkscape:path-effect
       effect="powerclip"
       id="path-effect84"
       is_visible="true"
       lpeversion="1"
       inverse="true"
       flatten="false"
       hide_clip="false"
       message="Use fill-rule evenodd on &lt;b&gt;fill and stroke&lt;/b&gt; dialog if no flatten result after convert clip to paths." />
    <clipPath
       clipPathUnits="userSpaceOnUse"
       id="clipPath80">
      <path
         id="path82"
         style="display:none;fill:#e6e6e6"
         d="M 32,4 C 16.536027,4 4,16.536027 4,32 4.00692,39.423412 6.9622361,46.539472 12.214844,51.785156 L 32,32 H 60 C 60,16.536027 47.463972,4 32,4 Z" />
      <path
         id="lpe_path-effect84"
         style="fill:#e6e6e6"
         class="powerclip"
         d="M 2.6824018,3.3343652 H 65 V 65 H 2.6824018 Z M 32,4 C 16.536027,4 4,16.536027 4,32 4.00692,39.423412 6.9622361,46.539472 12.214844,51.785156 L 32,32 H 60 C 60,16.536027 47.463972,4 32,4 Z" />
    </clipPath>
  </defs>
  <sodipodi:namedview
     pagecolor="#ffffff"
     bordercolor="#666666"
     borderopacity="1"
     objecttolerance="10"
     gridtolerance="10"
     guidetolerance="10"
     inkscape:pageopacity="0"
     inkscape:pageshadow="2"
     inkscape:window-width="1920"
     inkscape:window-height="996"
     id="namedview20"
     showgrid="false"
     inkscape:zoom="12.890625"
     inkscape:cx="32"
     inkscape:cy="21.604848"
     inkscape:window-x="0"
     inkscape:window-y="0"
     inkscape:window-maximized="1"
     inkscape:current-layer="svg18"
     inkscape:document-rotation="0"
     inkscape:pagecheckerboard="0" />
  <path
     style="fill:#29292a"
     d="M 60,32 C 60,47.463972 47.463972,60 32,60 24.04778,60 16.86984,56.684916 11.772766,51.361336 6.958015,46.332624 7.7275542,41.332188 7.7275542,33.820434 7.7275542,18.356461 16.362652,8.3343652 31.826626,8.3343652 47.290598,8.3343652 60,16.536027 60,32 Z"
     id="path4"
     clip-path="url(#clipPath80)"
     inkscape:path-effect="#path-effect84"
     inkscape:original-d="M 60,32 C 60,47.463972 47.463972,60 32,60 24.04778,60 16.86984,56.684916 11.772766,51.361336 6.958015,46.332624 7.7275542,41.332188 7.7275542,33.820434 7.7275542,18.356461 16.362652,8.3343652 31.826626,8.3343652 47.290598,8.3343652 60,16.536027 60,32 Z"
     transform="matrix(1.0578508,0,0,1.0598841,-0.84404173,-0.82390244)" />
  <path
     style="fill:#29292a;stroke-width:1.03658"
     d="M 62.582252,30.852688 H 33.882616 V 1.5002873 c 15.850371,0 28.699636,13.1415177 28.699636,29.3524007 z"
     id="path8-6" />
  <path
     style="fill:#29292a;stroke-width:1.05887"
     d="m 31.211522,1.3748285 c -16.358577,0 -29.619823,13.2867355 -29.619823,29.6767545 0.0073,7.867956 3.1327766,15.410981 8.689252,20.970799 L 31.211522,31.051583 Z"
     id="path10-3" />
</svg>
