<?xml version="1.0" encoding="UTF-8" standalone="no"?>
<svg
   width="64"
   height="64"
   version="1"
   id="svg16"
   sodipodi:docname="org.gnome.SoundRecorder.svg"
   inkscape:version="1.1 (1:1.1+202105261517+ce6663b3b7)"
   xmlns:inkscape="http://www.inkscape.org/namespaces/inkscape"
   xmlns:sodipodi="http://sodipodi.sourceforge.net/DTD/sodipodi-0.dtd"
   xmlns="http://www.w3.org/2000/svg"
   xmlns:svg="http://www.w3.org/2000/svg"
   xmlns:rdf="http://www.w3.org/1999/02/22-rdf-syntax-ns#"
   xmlns:cc="http://creativecommons.org/ns#"
   xmlns:dc="http://purl.org/dc/elements/1.1/">
  <metadata
     id="metadata22">
    <rdf:RDF>
      <cc:Work
         rdf:about="">
        <dc:format>image/svg+xml</dc:format>
        <dc:type
           rdf:resource="http://purl.org/dc/dcmitype/StillImage" />
        <dc:title />
      </cc:Work>
    </rdf:RDF>
  </metadata>
  <defs
     id="defs20">
    <inkscape:path-effect
       effect="powerclip"
       id="path-effect139"
       is_visible="true"
       lpeversion="1"
       inverse="true"
       flatten="false"
       hide_clip="false"
       message="Use fill-rule evenodd on &lt;b&gt;fill and stroke&lt;/b&gt; dialog if no flatten result after convert clip to paths." />
    <clipPath
       clipPathUnits="userSpaceOnUse"
       id="clipPath135">
      <path
         id="path137"
         style="color:#000000;display:none;stroke-width:1.99998;-inkscape-stroke:none"
         d="m 32.000004,16.000006 c -3.324166,0 -6,2.675834 -6,6 v 10 c 0,3.324166 2.675834,6 6,6 3.324166,0 6,-2.675834 6,-6 v -10 c 0,-3.324166 -2.675834,-6 -6,-6 z m -12,14 v 2 c 0,5.938939 4.324859,10.864511 10,11.812501 v 4.1875 h 4 v -4.1875 c 5.675141,-0.94817 10.000001,-5.873762 10.000001,-11.812501 v -2 h -4.000001 v 2 c 0,4.466754 -3.533246,8.000001 -8,8.000001 -4.466754,0 -8,-3.533247 -8,-8.000001 v -2 z" />
      <path
         id="lpe_path-effect139"
         style="color:#000000;stroke-width:1.99998;-inkscape-stroke:none"
         class="powerclip"
         d="M -1,-1 H 65 V 65 H -1 Z m 33.000004,17.000006 c -3.324166,0 -6,2.675834 -6,6 v 10 c 0,3.324166 2.675834,6 6,6 3.324166,0 6,-2.675834 6,-6 v -10 c 0,-3.324166 -2.675834,-6 -6,-6 z m -12,14 v 2 c 0,5.938939 4.324859,10.864511 10,11.812501 v 4.1875 h 4 v -4.1875 c 5.675141,-0.94817 10.000001,-5.873762 10.000001,-11.812501 v -2 h -4.000001 v 2 c 0,4.466754 -3.533246,8.000001 -8,8.000001 -4.466754,0 -8,-3.533247 -8,-8.000001 v -2 z" />
    </clipPath>
  </defs>
  <sodipodi:namedview
     pagecolor="#ffffff"
     bordercolor="#666666"
     borderopacity="1"
     objecttolerance="10"
     gridtolerance="10"
     guidetolerance="10"
     inkscape:pageopacity="0"
     inkscape:pageshadow="2"
     inkscape:window-width="1125"
     inkscape:window-height="652"
     id="namedview18"
     showgrid="false"
     inkscape:zoom="12.890625"
     inkscape:cx="32.038788"
     inkscape:cy="24.475152"
     inkscape:window-x="452"
     inkscape:window-y="65"
     inkscape:window-maximized="0"
     inkscape:current-layer="svg16"
     inkscape:document-rotation="0"
     inkscape:pagecheckerboard="0" />
  <path
     style="fill:#29292a;stroke-width:1"
     width="56"
     height="56"
     x="4"
     y="4"
     rx="28"
     ry="28"
     id="rect4"
     sodipodi:type="rect"
     clip-path="url(#clipPath135)"
     inkscape:path-effect="#path-effect139"
     d="M 32,4 C 47.512,4 60,16.488 60,32 60,47.512 47.512,60 32,60 16.488,60 4,47.512 4,32 4,16.488 16.488,4 32,4 Z" />
  <g
     style="opacity:0.85;fill:#ffffff;enable-background:new"
     transform="matrix(1.9999793,0,0,1.9999793,-673.99346,845.99189)"
     id="g12" />
</svg>
