<?xml version="1.0" encoding="UTF-8" standalone="no"?>
<svg
   width="64"
   height="64"
   version="1"
   id="svg20"
   sodipodi:docname="org.mixxx.Mixxx.svg"
   inkscape:version="1.1 (1:1.1+202106031931+af4d65493e)"
   xmlns:inkscape="http://www.inkscape.org/namespaces/inkscape"
   xmlns:sodipodi="http://sodipodi.sourceforge.net/DTD/sodipodi-0.dtd"
   xmlns="http://www.w3.org/2000/svg"
   xmlns:svg="http://www.w3.org/2000/svg">
  <g
     id="g365"
     style="fill:#123354">
    <g
       id="g690"
       transform="matrix(0.14966474,0,0,0.18841265,-6.3748344,-15.660774)"
       style="fill:#29292a">
      <path
         id="path5089"
         style="color:#000000;font-style:normal;font-variant:normal;font-weight:normal;font-stretch:normal;font-size:medium;line-height:normal;font-family:Sans;-inkscape-font-specification:Sans;text-indent:0;text-align:start;text-decoration:none;text-decoration-line:none;letter-spacing:normal;word-spacing:normal;text-transform:none;writing-mode:lr-tb;direction:ltr;baseline-shift:baseline;text-anchor:start;display:inline;overflow:visible;visibility:visible;fill:#29292a;fill-opacity:1;fill-rule:nonzero;stroke:none;stroke-width:9.40373;marker:none;enable-background:accumulate"
         d="m 182.39844,94.90625 c -14.52214,0 -26.39063,11.86848 -26.39063,26.39063 v 62.48046 H 82.398438 C 67.876306,183.77734 56,195.65364 56,210.17578 v 2.76758 c 0,14.52212 11.876306,26.39844 26.398438,26.39844 h 73.609372 v 51.36914 c 0,14.52214 11.86849,26.39062 26.39063,26.39062 h 147.20312 c 14.52214,0 26.39063,-11.86848 26.39063,-26.39062 V 239.3418 h 73.60937 C 444.12367,239.3418 456,227.46548 456,212.94336 v -2.76758 c 0,-14.52214 -11.87633,-26.39844 -26.39844,-26.39844 h -73.60937 v -62.48046 c 0,-14.52215 -11.86849,-26.39063 -26.39063,-26.39063 z"
         clip-path="url(#clipPath676)"
         inkscape:path-effect="#path-effect682"
         inkscape:original-d="m 182.39844,94.90625 c -14.52214,0 -26.39063,11.86848 -26.39063,26.39063 v 62.48046 H 82.398438 C 67.876306,183.77734 56,195.65364 56,210.17578 v 2.76758 c 0,14.52212 11.876306,26.39844 26.398438,26.39844 h 73.609372 v 51.36914 c 0,14.52214 11.86849,26.39062 26.39063,26.39062 h 147.20312 c 14.52214,0 26.39063,-11.86848 26.39063,-26.39062 V 239.3418 h 73.60937 C 444.12367,239.3418 456,227.46548 456,212.94336 v -2.76758 c 0,-14.52214 -11.87633,-26.39844 -26.39844,-26.39844 h -73.60937 v -62.48046 c 0,-14.52215 -11.86849,-26.39063 -26.39063,-26.39063 z" />
      <path
         id="path6077"
         d="m 76.25,337.3125 v 2 66.6875 2 h 2 11.09375 2 v -2 -66.6875 -2 h -2 H 78.25 Z m 44.4375,0 v 2 55.5625 2 h 2 11.09375 2 v -2 -55.5625 -2 h -2 -11.09375 z m 44.4375,0 v 2 44.46875 2 h 2 11.09375 2 v -2 -44.46875 -2 h -2 -11.09375 z m 44.4375,0 v 2 33.34375 2 h 2 11.09375 2 v -2 -33.34375 -2 h -2 -11.09375 z m 44.4375,0 v 2 66.6875 2 h 2 11.125 2 v -2 -66.6875 -2 h -2 H 256 Z m 44.4375,0 v 2 33.34375 2 h 2 11.125 2 v -2 -33.34375 -2 h -2 -11.125 z m 44.4375,0 v 2 44.46875 2 h 2 11.125 2 v -2 -44.46875 -2 h -2 -11.125 z m 33.34375,0 v 2 55.5625 2 h 2 11.09375 2 v -2 -55.5625 -2 h -2 -11.09375 z m 44.4375,0 v 2 66.6875 2 h 2 11.09375 2 v -2 -66.6875 -2 h -2 -11.09375 z"
         style="color:#000000;font-style:normal;font-variant:normal;font-weight:normal;font-stretch:normal;font-size:medium;line-height:normal;font-family:Sans;-inkscape-font-specification:Sans;text-indent:0;text-align:start;text-decoration:none;text-decoration-line:none;letter-spacing:normal;word-spacing:normal;text-transform:none;writing-mode:lr-tb;direction:ltr;baseline-shift:baseline;text-anchor:start;display:inline;overflow:visible;visibility:visible;fill:#29292a;fill-opacity:1;fill-rule:nonzero;stroke:none;stroke-width:4;marker:none;enable-background:accumulate" />
      <g
         transform="matrix(1.1427619,0,0,1.1427619,-36.547046,-34.547047)"
         id="g5961"
         style="fill:#29292a">
        <rect
           ry="6.5976653"
           rx="6.5976653"
           y="-265.72223"
           x="144.1875"
           height="19.444443"
           width="87.499985"
           id="rect3852-4"
           style="color:#000000;display:inline;overflow:visible;visibility:visible;fill:#29292a;fill-opacity:1;fill-rule:nonzero;stroke:none;stroke-width:1;marker:none;enable-background:accumulate"
           transform="rotate(90)" />
      </g>
    </g>
  </g>
  <defs
     id="defs24">
    <inkscape:path-effect
       effect="powerclip"
       id="path-effect358"
       is_visible="true"
       lpeversion="1"
       inverse="true"
       flatten="false"
       hide_clip="false"
       message="Use fill-rule evenodd on &lt;b&gt;fill and stroke&lt;/b&gt; dialog if no flatten result after convert clip to paths." />
    <inkscape:path-effect
       effect="powerclip"
       id="path-effect190"
       is_visible="true"
       lpeversion="1"
       inverse="true"
       flatten="false"
       hide_clip="false"
       message="Use fill-rule evenodd on &lt;b&gt;fill and stroke&lt;/b&gt; dialog if no flatten result after convert clip to paths." />
    <clipPath
       clipPathUnits="userSpaceOnUse"
       id="clipPath186">
      <rect
         style="display:block;opacity:0.2"
         width="36"
         height="36"
         x="5.391973"
         y="5.6022935"
         rx="2.7690001"
         ry="2.7690001"
         id="rect188" />
    </clipPath>
    <clipPath
       clipPathUnits="userSpaceOnUse"
       id="clipPath354">
      <rect
         style="display:block;opacity:0.2"
         width="36"
         height="36"
         x="15.620633"
         y="15.638589"
         rx="2.7690001"
         ry="2.7690001"
         id="rect356" />
    </clipPath>
    <clipPath
       clipPathUnits="userSpaceOnUse"
       id="clipPath676">
      <path
         id="path678"
         d="m 189.32699,134.40316 c 0,-14.52214 11.86852,-26.39066 26.39065,-26.39066 h 80.56472 c 14.52214,0 26.39066,11.86852 26.39066,26.39066 v 91.67093 c 0,14.52214 -11.86852,26.35495 -26.39066,26.35495 h -80.56472 c -14.52213,0 -26.39065,-11.83281 -26.39065,-26.35495 z"
         style="color:#000000;font-style:normal;font-variant:normal;font-weight:normal;font-stretch:normal;font-size:medium;line-height:normal;font-family:Sans;-inkscape-font-specification:Sans;text-indent:0;text-align:start;text-decoration:none;text-decoration-line:none;letter-spacing:normal;word-spacing:normal;text-transform:none;writing-mode:lr-tb;direction:ltr;baseline-shift:baseline;text-anchor:start;display:none;overflow:visible;visibility:visible;fill:url(#linearGradient680);fill-opacity:1;fill-rule:nonzero;stroke:none;stroke-width:11.1102;marker:none;enable-background:accumulate"
         inkscape:connector-curvature="0" />
      <path
         id="lpe_path-effect682"
         style="color:#000000;font-style:normal;font-variant:normal;font-weight:normal;font-stretch:normal;font-size:medium;line-height:normal;font-family:Sans;-inkscape-font-specification:Sans;text-indent:0;text-align:start;text-decoration:none;text-decoration-line:none;letter-spacing:normal;word-spacing:normal;text-transform:none;writing-mode:lr-tb;direction:ltr;baseline-shift:baseline;text-anchor:start;display:inline;overflow:visible;visibility:visible;fill:url(#linearGradient680);fill-opacity:1;fill-rule:nonzero;stroke:none;stroke-width:11.1102;marker:none;enable-background:accumulate"
         class="powerclip"
         d="M 51,89.90625 H 461 V 322.10156 H 51 Z m 138.32699,44.49691 v 91.67093 c 0,14.52214 11.86852,26.35495 26.39065,26.35495 h 80.56472 c 14.52214,0 26.39066,-11.83281 26.39066,-26.35495 v -91.67093 c 0,-14.52214 -11.86852,-26.39066 -26.39066,-26.39066 h -80.56472 c -14.52213,0 -26.39065,11.86852 -26.39065,26.39066 z" />
    </clipPath>
    <inkscape:path-effect
       effect="powerclip"
       id="path-effect682"
       is_visible="true"
       lpeversion="1"
       inverse="true"
       flatten="false"
       hide_clip="false"
       message="Use fill-rule evenodd on &lt;b&gt;fill and stroke&lt;/b&gt; dialog if no flatten result after convert clip to paths." />
  </defs>
  <sodipodi:namedview
     id="namedview22"
     pagecolor="#ffffff"
     bordercolor="#666666"
     borderopacity="1.0"
     inkscape:pageshadow="2"
     inkscape:pageopacity="0.0"
     inkscape:pagecheckerboard="0"
     showgrid="false"
     inkscape:zoom="9.0929513"
     inkscape:cx="31.947823"
     inkscape:cy="31.947823"
     inkscape:window-width="1920"
     inkscape:window-height="996"
     inkscape:window-x="0"
     inkscape:window-y="0"
     inkscape:window-maximized="1"
     inkscape:current-layer="g365" />
</svg>
