<?xml version="1.0" encoding="UTF-8" standalone="no"?>
<svg
   width="64"
   height="64"
   version="1.1"
   id="svg73"
   sodipodi:docname="org.gnome.Settings.svg"
   inkscape:version="1.1 (1:1.1+202105261517+ce6663b3b7)"
   xmlns:inkscape="http://www.inkscape.org/namespaces/inkscape"
   xmlns:sodipodi="http://sodipodi.sourceforge.net/DTD/sodipodi-0.dtd"
   xmlns:xlink="http://www.w3.org/1999/xlink"
   xmlns="http://www.w3.org/2000/svg"
   xmlns:svg="http://www.w3.org/2000/svg"
   xmlns:rdf="http://www.w3.org/1999/02/22-rdf-syntax-ns#"
   xmlns:cc="http://creativecommons.org/ns#"
   xmlns:dc="http://purl.org/dc/elements/1.1/">
  <metadata
     id="metadata77">
    <rdf:RDF>
      <cc:Work
         rdf:about="">
        <dc:format>image/svg+xml</dc:format>
        <dc:type
           rdf:resource="http://purl.org/dc/dcmitype/StillImage" />
        <dc:title />
      </cc:Work>
    </rdf:RDF>
  </metadata>
  <sodipodi:namedview
     pagecolor="#ffffff"
     bordercolor="#666666"
     borderopacity="1"
     objecttolerance="10"
     gridtolerance="10"
     guidetolerance="10"
     inkscape:pageopacity="0"
     inkscape:pageshadow="2"
     inkscape:window-width="1717"
     inkscape:window-height="798"
     id="namedview75"
     showgrid="false"
     inkscape:zoom="12.578125"
     inkscape:cx="32.039752"
     inkscape:cy="25.798758"
     inkscape:window-x="187"
     inkscape:window-y="198"
     inkscape:window-maximized="0"
     inkscape:current-layer="svg73"
     inkscape:document-rotation="0"
     inkscape:pagecheckerboard="0" />
  <defs
     id="defs29">
    <inkscape:path-effect
       effect="powerclip"
       id="path-effect188"
       is_visible="true"
       lpeversion="1"
       inverse="true"
       flatten="false"
       hide_clip="false"
       message="Use fill-rule evenodd on &lt;b&gt;fill and stroke&lt;/b&gt; dialog if no flatten result after convert clip to paths." />
    <linearGradient
       id="b"
       x1="399.57"
       x2="399.57"
       y1="545.8"
       y2="517.8"
       gradientTransform="matrix(2.1429,0,0,2.1429,-826.36,-1107.5)"
       gradientUnits="userSpaceOnUse">
      <stop
         stop-color="#3889e9"
         offset="0"
         id="stop2" />
      <stop
         stop-color="#5ea5fb"
         offset="1"
         id="stop4" />
    </linearGradient>
    <linearGradient
       id="linearGradient862"
       x1="7.9373"
       x2="7.9373"
       y1="15.081"
       y2="1.852"
       gradientTransform="matrix(3.3743 0 0 3.3743 3.4312 3.4278)"
       gradientUnits="userSpaceOnUse">
      <stop
         stop-color="#f1efeb"
         offset="0"
         id="stop7" />
      <stop
         stop-color="#fff"
         offset="1"
         id="stop9" />
    </linearGradient>
    <linearGradient
       id="linearGradient910"
       x1="7.9373"
       x2="7.9373"
       y1="15.081"
       y2="1.852"
       gradientTransform="scale(3.7796)"
       gradientUnits="userSpaceOnUse">
      <stop
         stop-color="#613583"
         offset="0"
         id="stop12" />
      <stop
         stop-color="#a663c0"
         offset="1"
         id="stop14" />
    </linearGradient>
    <linearGradient
       id="linearGradient932"
       x1="379.24"
       x2="374.24"
       y1="546.85"
       y2="546.85"
       gradientTransform="matrix(2.1429 0 0 2.1429 -769.68 -1134.5)"
       gradientUnits="userSpaceOnUse">
      <stop
         stop-color="#f6f5f4"
         offset="0"
         id="stop17" />
      <stop
         stop-color="#fff"
         offset=".6"
         id="stop19" />
      <stop
         stop-color="#dddbd8"
         offset="1"
         id="stop21" />
    </linearGradient>
    <linearGradient
       id="linearGradient1146"
       x1="18"
       x2="18"
       y1="52"
       y2="12"
       gradientUnits="userSpaceOnUse">
      <stop
         stop-color="#5e337f"
         offset="0"
         id="stop24" />
      <stop
         stop-color="#ab60bf"
         offset="1"
         id="stop26" />
    </linearGradient>
    <linearGradient
       id="linearGradient872"
       x1="8.4665003"
       x2="8.4665003"
       y1="7.9373002"
       y2="3.1749001"
       gradientUnits="userSpaceOnUse"
       gradientTransform="matrix(3.779602,0,0,3.779602,-0.36005671,-63.393019)">
      <stop
         stop-color="#0851d4"
         offset="0"
         id="stop17-3" />
      <stop
         stop-color="#588df8"
         offset="1"
         id="stop19-6" />
    </linearGradient>
    <linearGradient
       id="linearGradient998"
       x1="8.7311001"
       x2="8.7311001"
       y1="13.758"
       y2="8.9956999"
       gradientUnits="userSpaceOnUse"
       xlink:href="#linearGradient996"
       gradientTransform="matrix(3.779602,0,0,3.779602,-0.36005671,-63.393019)" />
    <linearGradient
       id="linearGradient996">
      <stop
         offset="0"
         id="stop2-7" />
      <stop
         stop-opacity=".5"
         offset="1"
         id="stop4-5" />
    </linearGradient>
    <linearGradient
       id="linearGradient982"
       x1="11.377"
       x2="11.377"
       y1="6.8790002"
       y2="4.2333002"
       gradientUnits="userSpaceOnUse"
       xlink:href="#linearGradient980"
       gradientTransform="matrix(3.779602,0,0,3.779602,-0.36005671,-63.393019)" />
    <linearGradient
       id="linearGradient980">
      <stop
         stop-color="#e4e4e4"
         offset="0"
         id="stop7-3" />
      <stop
         stop-color="#fafafa"
         offset="1"
         id="stop9-5" />
    </linearGradient>
    <linearGradient
       id="linearGradient1017"
       x1="8.7311001"
       x2="8.7311001"
       y1="13.758"
       y2="8.9956999"
       gradientTransform="matrix(0.00502936,3.7796235,-3.7796235,0.00502936,61.680449,1.3054052)"
       gradientUnits="userSpaceOnUse"
       xlink:href="#linearGradient996" />
    <linearGradient
       id="linearGradient869"
       x1="11.377"
       x2="11.377"
       y1="6.8790002"
       y2="4.2333002"
       gradientTransform="matrix(3.779602,0,0,3.779602,-22.360743,-41.392712)"
       gradientUnits="userSpaceOnUse"
       xlink:href="#linearGradient980" />
    <clipPath
       clipPathUnits="userSpaceOnUse"
       id="clipPath184">
      <path
         id="path186"
         style="color:#000000;display:none;opacity:0.85;fill:#f2f2f2;stroke-width:4.432;-inkscape-stroke:none"
         d="m 17.570312,8.4453125 a 6.5431986,7.565543 0 0 0 -6.535156,7.5761715 6.5431986,7.565543 0 0 0 6.552735,7.554688 6.5431986,7.565543 0 0 0 6.535156,-7.574219 6.5431986,7.565543 0 0 0 -6.552735,-7.5566405 z M 45.646484,40.601562 a 6.5431985,7.3194421 2.8802482e-6 0 0 -6.533203,7.328126 6.5431985,7.3194421 2.8802482e-6 0 0 6.550781,7.310546 6.5431985,7.3194421 2.8802482e-6 0 0 6.535157,-7.330078 6.5431985,7.3194421 2.8802482e-6 0 0 -6.552735,-7.308594 z" />
      <path
         id="lpe_path-effect188"
         style="color:#000000;opacity:0.85;fill:#f2f2f2;stroke-width:4.432;-inkscape-stroke:none"
         class="powerclip"
         d="M 2.7621276,-0.77411064 H 60.691885 V 64.99143 H 2.7621276 Z M 17.570312,8.4453125 a 6.5431986,7.565543 0 0 0 -6.535156,7.5761715 6.5431986,7.565543 0 0 0 6.552735,7.554688 6.5431986,7.565543 0 0 0 6.535156,-7.574219 6.5431986,7.565543 0 0 0 -6.552735,-7.5566405 z M 45.646484,40.601562 a 6.5431985,7.3194421 2.8802482e-6 0 0 -6.533203,7.328126 6.5431985,7.3194421 2.8802482e-6 0 0 6.550781,7.310546 6.5431985,7.3194421 2.8802482e-6 0 0 6.535157,-7.330078 6.5431985,7.3194421 2.8802482e-6 0 0 -6.552735,-7.308594 z" />
    </clipPath>
  </defs>
  <circle
     cx="32.02"
     cy="32.044"
     r="30.001"
     fill-opacity="0"
     stroke-width="1.5715"
     id="circle39" />
  <circle
     cx="32.02"
     cy="32.044"
     r="0"
     fill="url(#b)"
     stroke-width="1.5715"
     id="circle41" />
  <g
     id="g62"
     clip-path="url(#clipPath184)"
     inkscape:path-effect="#path-effect188">
    <path
       x="4.3018222"
       y="-55.63876"
       width="55.724762"
       height="20.049265"
       ry="10.024633"
       fill="url(#linearGradient872)"
       id="rect33"
       style="fill:#29292a;stroke-width:4.70822"
       transform="matrix(0.00106389,0.99999943,-0.99999862,0.00166431,0,0)"
       d="m 14.326456,-55.63876 35.675495,0 c 5.553647,0 10.024633,4.470986 10.024633,10.024633 0,5.553646 -4.470986,10.024632 -10.024633,10.024632 l -35.675495,0 c -5.5536473,0 -10.0246338,-4.470986 -10.0246338,-10.024632 0,-5.553647 4.4709865,-10.024633 10.0246338,-10.024633 z"
       sodipodi:type="rect" />
    <path
       x="4.2965436"
       y="-27.376642"
       width="55.724758"
       height="19.629196"
       ry="9.8145981"
       fill="url(#linearGradient998)"
       opacity="0.25"
       id="rect35-6"
       style="opacity:1;fill:#29292a;stroke-width:4.65861"
       transform="matrix(0.0010416,0.99999946,-0.99999856,0.00169992,0,0)"
       d="m 14.111142,-27.376642 36.095562,0 c 5.437287,0 9.814598,4.377311 9.814598,9.814598 0,5.437287 -4.377311,9.8145979 -9.814598,9.8145979 l -36.095562,0 c -5.4372877,0 -9.8145984,-4.3773109 -9.8145984,-9.8145979 0,-5.437287 4.3773107,-9.814598 9.8145984,-9.814598 z"
       sodipodi:type="rect" />
  </g>
  <circle
     cx="42.650215"
     cy="-42.284786"
     fill="url(#linearGradient982)"
     id="circle41-2"
     style="fill:#333333;stroke-width:3.48559"
     transform="matrix(0.00113168,0.99999936,-0.99999878,0.00156461,0,0)"
     rx="6.0001168"
     ry="5.1029348" />
</svg>
