<?xml version="1.0" encoding="UTF-8" standalone="no"?>
<svg
   width="16"
   height="16"
   version="1.1"
   id="svg7"
   sodipodi:docname="org.gnome.NetworkDisplays.svg"
   inkscape:version="1.1 (1:1.1+202106031931+af4d65493e)"
   xmlns:inkscape="http://www.inkscape.org/namespaces/inkscape"
   xmlns:sodipodi="http://sodipodi.sourceforge.net/DTD/sodipodi-0.dtd"
   xmlns="http://www.w3.org/2000/svg"
   xmlns:svg="http://www.w3.org/2000/svg"
   xmlns:rdf="http://www.w3.org/1999/02/22-rdf-syntax-ns#"
   xmlns:cc="http://creativecommons.org/ns#"
   xmlns:dc="http://purl.org/dc/elements/1.1/">
  <metadata
     id="metadata11">
    <rdf:RDF>
      <cc:Work
         rdf:about="">
        <dc:format>image/svg+xml</dc:format>
        <dc:type
           rdf:resource="http://purl.org/dc/dcmitype/StillImage" />
      </cc:Work>
    </rdf:RDF>
  </metadata>
  <sodipodi:namedview
     pagecolor="#ffffff"
     bordercolor="#666666"
     borderopacity="1"
     objecttolerance="10"
     gridtolerance="10"
     guidetolerance="10"
     inkscape:pageopacity="0"
     inkscape:pageshadow="2"
     inkscape:window-width="1920"
     inkscape:window-height="996"
     id="namedview9"
     showgrid="false"
     inkscape:zoom="18.230097"
     inkscape:cx="8.0361614"
     inkscape:cy="8.8041222"
     inkscape:window-x="0"
     inkscape:window-y="0"
     inkscape:window-maximized="1"
     inkscape:current-layer="g29"
     inkscape:pagecheckerboard="0" />
  <defs
     id="defs3">
    <style
       id="current-color-scheme"
       type="text/css">
   .ColorScheme-Text { color:#444444; } .ColorScheme-Highlight { color:#4285f4; } .ColorScheme-NeutralText { color:#ff9800; } .ColorScheme-PositiveText { color:#4caf50; } .ColorScheme-NegativeText { color:#f44336; }
  </style>
  </defs>
  <path
     style="fill:#29292a"
     class="ColorScheme-Text"
     d="M 1,1 C 0,1 0,2 0,2 V 12 C 0,13 1,13 1,13 H 6 C 6,13 5,13 5,14 V 15 H 11 V 14 C 11,13 10,13 10,13 H 15 C 16,13 16,12 16,12 V 2 C 16,2 16,1 15,1 Z M 2,3 H 14 V 11 H 2 Z"
     id="path5" />
  <g
     id="g29"
     transform="matrix(0.43956564,0,0,0.38298422,3.3731424,3.8252889)">
    <path
       style="fill:none;stroke:#29292a;stroke-width:2;stroke-linecap:round;stroke-linejoin:round"
       d="M 0.568696,3.379731 A 17.230768,17.230768 0 0 1 20.60508,3.397221"
       id="path18" />
    <path
       style="fill:#29292a"
       d="m 10.574654,14.155547 a 2,2 0 0 0 -2,2.000002 2,2 0 0 0 2,2 2,2 0 0 0 2,-2 2,2 0 0 0 -2,-2.000002 z"
       id="path20" />
    <path
       style="fill:none;stroke:#29292a;stroke-width:2;stroke-linecap:round;stroke-linejoin:round"
       d="m 3.410064,7.463215 a 12.307692,12.307692 0 0 1 14.416237,0.0629"
       id="path22" />
    <path
       style="fill:none;stroke:#29292a;stroke-width:2;stroke-linecap:round;stroke-linejoin:round"
       d="m 6.202865,11.61885 a 7.3846154,7.3846154 0 0 1 8.805662,0.04611"
       id="path24" />
  </g>
</svg>
