<?xml version="1.0" encoding="UTF-8" standalone="no"?>
<svg
   width="64"
   height="64"
   version="1"
   id="svg34"
   sodipodi:docname="org.gnome.PasswordSafe.svg"
   inkscape:version="1.1 (1:1.1+rc+202105240936+c4e8f9ed74)"
   xmlns:inkscape="http://www.inkscape.org/namespaces/inkscape"
   xmlns:sodipodi="http://sodipodi.sourceforge.net/DTD/sodipodi-0.dtd"
   xmlns="http://www.w3.org/2000/svg"
   xmlns:svg="http://www.w3.org/2000/svg">
  <g
     id="g979">
    <path
       style="fill:#29292a"
       width="56"
       height="56"
       x="4"
       y="4"
       rx="2.8"
       ry="2.8"
       id="rect4"
       clip-path="url(#clipPath861)"
       inkscape:path-effect="#path-effect865"
       d="M 6.8,4 H 57.2 C 58.7512,4 60,5.2488 60,6.8 V 57.2 C 60,58.7512 58.7512,60 57.2,60 H 6.8 C 5.2488,60 4,58.7512 4,57.2 V 6.8 C 4,5.2488 5.2488,4 6.8,4 Z"
       sodipodi:type="rect" />
    <path
       style="fill:#29292a"
       id="circle12"
       clip-path="url(#clipPath949)"
       inkscape:path-effect="#path-effect953"
       sodipodi:type="arc"
       sodipodi:cx="32"
       sodipodi:cy="32"
       sodipodi:rx="12"
       sodipodi:ry="12"
       d="M 44,32 A 12,12 0 0 1 32,44 12,12 0 0 1 20,32 12,12 0 0 1 32,20 12,12 0 0 1 44,32 Z" />
    <rect
       style="fill:#29292a"
       width="6"
       height="11"
       x="7"
       y="18"
       rx="1.5"
       ry="1.375"
       id="rect22" />
    <rect
       style="fill:#29292a"
       width="6"
       height="11"
       x="7"
       y="35"
       rx="1.5"
       ry="1.375"
       id="rect26" />
  </g>
  <defs
     id="defs38">
    <inkscape:path-effect
       effect="powerclip"
       id="path-effect953"
       is_visible="true"
       lpeversion="1"
       inverse="true"
       flatten="false"
       hide_clip="false"
       message="Use fill-rule evenodd on &lt;b&gt;fill and stroke&lt;/b&gt; dialog if no flatten result after convert clip to paths." />
    <inkscape:path-effect
       effect="powerclip"
       id="path-effect865"
       is_visible="true"
       lpeversion="1"
       inverse="true"
       flatten="false"
       hide_clip="false"
       message="Use fill-rule evenodd on &lt;b&gt;fill and stroke&lt;/b&gt; dialog if no flatten result after convert clip to paths." />
    <clipPath
       clipPathUnits="userSpaceOnUse"
       id="clipPath861">
      <rect
         style="display:none;fill:#d9d9d9"
         width="44"
         height="44"
         x="10"
         y="10"
         rx="2.75"
         ry="2.75"
         id="rect863"
         d="m 12.75,10 h 38.5 c 1.5235,0 2.75,1.2265 2.75,2.75 v 38.5 C 54,52.7735 52.7735,54 51.25,54 H 12.75 C 11.2265,54 10,52.7735 10,51.25 V 12.75 C 10,11.2265 11.2265,10 12.75,10 Z" />
      <path
         id="lpe_path-effect865"
         style="fill:#d9d9d9"
         class="powerclip"
         d="M -1,-1 H 65 V 65 H -1 Z M 12.75,10 C 11.2265,10 10,11.2265 10,12.75 v 38.5 c 0,1.5235 1.2265,2.75 2.75,2.75 h 38.5 C 52.7735,54 54,52.7735 54,51.25 V 12.75 C 54,11.2265 52.7735,10 51.25,10 Z" />
    </clipPath>
    <clipPath
       clipPathUnits="userSpaceOnUse"
       id="clipPath949">
      <circle
         style="display:none;fill:#d9d9d9"
         cx="32"
         cy="32"
         r="5"
         id="circle951"
         d="m 37,32 a 5,5 0 0 1 -5,5 5,5 0 0 1 -5,-5 5,5 0 0 1 5,-5 5,5 0 0 1 5,5 z" />
      <path
         id="lpe_path-effect953"
         style="fill:#d9d9d9"
         class="powerclip"
         d="M 15,15 H 49 V 49 H 15 Z m 22,17 a 5,5 0 0 0 -5,-5 5,5 0 0 0 -5,5 5,5 0 0 0 5,5 5,5 0 0 0 5,-5 z" />
    </clipPath>
  </defs>
  <sodipodi:namedview
     id="namedview36"
     pagecolor="#ffffff"
     bordercolor="#666666"
     borderopacity="1.0"
     inkscape:pageshadow="2"
     inkscape:pageopacity="0.0"
     inkscape:pagecheckerboard="0"
     showgrid="false"
     inkscape:zoom="12.859375"
     inkscape:cx="32"
     inkscape:cy="32"
     inkscape:window-width="1920"
     inkscape:window-height="996"
     inkscape:window-x="0"
     inkscape:window-y="0"
     inkscape:window-maximized="1"
     inkscape:current-layer="svg34" />
</svg>
