<?xml version="1.0" encoding="UTF-8" standalone="no"?>
<svg
   width="64"
   height="64"
   version="1"
   id="svg16"
   sodipodi:docname="pinta.svg"
   inkscape:version="1.1 (1:1.1+202105261517+ce6663b3b7)"
   xmlns:inkscape="http://www.inkscape.org/namespaces/inkscape"
   xmlns:sodipodi="http://sodipodi.sourceforge.net/DTD/sodipodi-0.dtd"
   xmlns="http://www.w3.org/2000/svg"
   xmlns:svg="http://www.w3.org/2000/svg">
  <defs
     id="defs20">
    <inkscape:path-effect
       effect="powerclip"
       id="path-effect15"
       is_visible="true"
       lpeversion="1"
       inverse="true"
       flatten="false"
       hide_clip="false"
       message="Use fill-rule evenodd on &lt;b&gt;fill and stroke&lt;/b&gt; dialog if no flatten result after convert clip to paths." />
    <clipPath
       clipPathUnits="userSpaceOnUse"
       id="clipPath11">
      <path
         id="path13"
         style="display:none;opacity:0.85;fill:#ffffff;stroke-width:1.14168"
         d="m 22.994141,9.2851562 c -2.426789,0 -4.550782,2.1396028 -4.550782,4.5839848 0,2.444382 2.123925,4.582031 4.550782,4.582031 2.426789,0 4.548828,-2.137649 4.548828,-4.582031 0,-2.444382 -2.122039,-4.5839848 -4.548828,-4.5839848 z m 15.925781,0 c -2.426791,0 -4.550781,2.1396028 -4.550781,4.5839848 0,2.444382 2.123922,4.582031 4.550781,4.582031 2.426789,0 4.548828,-2.137649 4.548828,-4.582031 0,-2.444382 -2.122039,-4.5839848 -4.548828,-4.5839848 z M 11.617188,23.035156 c -2.4268575,0 -4.5488286,2.138846 -4.5488286,4.583985 0,2.445137 2.1219711,4.582031 4.5488286,4.582031 2.426857,0 4.550781,-2.136894 4.550781,-4.582031 0,-2.445139 -2.123924,-4.583985 -4.550781,-4.583985 z m 38.677734,0 c -2.42679,0 -4.550781,2.139602 -4.550781,4.583985 0,2.444381 2.123923,4.582031 4.550781,4.582031 2.42679,0 4.550781,-2.13765 4.550781,-4.582031 0,-2.444383 -2.123991,-4.583985 -4.550781,-4.583985 z" />
      <path
         id="lpe_path-effect15"
         style="opacity:0.85;fill:#ffffff;stroke-width:1.14168"
         class="powerclip"
         d="M -2.4826733,-2.5895973 H 66.669768 V 66.992492 H -2.4826733 Z M 22.994141,9.2851562 c -2.426789,0 -4.550782,2.1396028 -4.550782,4.5839848 0,2.444382 2.123925,4.582031 4.550782,4.582031 2.426789,0 4.548828,-2.137649 4.548828,-4.582031 0,-2.444382 -2.122039,-4.5839848 -4.548828,-4.5839848 z m 15.925781,0 c -2.426791,0 -4.550781,2.1396028 -4.550781,4.5839848 0,2.444382 2.123922,4.582031 4.550781,4.582031 2.426789,0 4.548828,-2.137649 4.548828,-4.582031 0,-2.444382 -2.122039,-4.5839848 -4.548828,-4.5839848 z M 11.617188,23.035156 c -2.4268575,0 -4.5488286,2.138846 -4.5488286,4.583985 0,2.445137 2.1219711,4.582031 4.5488286,4.582031 2.426857,0 4.550781,-2.136894 4.550781,-4.582031 0,-2.445139 -2.123924,-4.583985 -4.550781,-4.583985 z m 38.677734,0 c -2.42679,0 -4.550781,2.139602 -4.550781,4.583985 0,2.444381 2.123923,4.582031 4.550781,4.582031 2.42679,0 4.550781,-2.13765 4.550781,-4.582031 0,-2.444383 -2.123991,-4.583985 -4.550781,-4.583985 z" />
    </clipPath>
  </defs>
  <sodipodi:namedview
     id="namedview18"
     pagecolor="#ffffff"
     bordercolor="#666666"
     borderopacity="1.0"
     inkscape:pageshadow="2"
     inkscape:pageopacity="0.0"
     inkscape:pagecheckerboard="0"
     showgrid="false"
     inkscape:zoom="12.859375"
     inkscape:cx="32.077764"
     inkscape:cy="32.699878"
     inkscape:window-width="1920"
     inkscape:window-height="996"
     inkscape:window-x="0"
     inkscape:window-y="0"
     inkscape:window-maximized="1"
     inkscape:current-layer="svg16" />
  <path
     style="fill:#29292a;stroke-width:1.14168"
     d="m 32.093729,2.410861 c -16.431284,0 -29.5764023,13.240413 -29.5764023,29.790815 0,16.550402 13.1451183,29.790816 29.5764023,29.790816 2.629115,0 4.550249,-2.317038 4.550249,-4.965212 0,-1.324042 0.05061,-2.317038 -0.935285,-3.30999 -0.657255,-0.993018 -1.314512,-1.986062 -1.314512,-3.309987 0,-2.648175 2.30059,-4.456155 4.929477,-4.456155 h 5.91528 c 9.200537,0 16.43083,-7.791766 16.43083,-17.059001 0,-14.565418 -13.145574,-26.4817443 -29.576403,-26.4817443 z"
     id="path4"
     clip-path="url(#clipPath11)"
     inkscape:path-effect="#path-effect15"
     inkscape:original-d="m 32.093729,2.410861 c -16.431284,0 -29.5764023,13.240413 -29.5764023,29.790815 0,16.550402 13.1451183,29.790816 29.5764023,29.790816 2.629115,0 4.550249,-2.317038 4.550249,-4.965212 0,-1.324042 0.05061,-2.317038 -0.935285,-3.30999 -0.657255,-0.993018 -1.314512,-1.986062 -1.314512,-3.309987 0,-2.648175 2.30059,-4.456155 4.929477,-4.456155 h 5.91528 c 9.200537,0 16.43083,-7.791766 16.43083,-17.059001 0,-14.565418 -13.145574,-26.4817443 -29.576403,-26.4817443 z" />
</svg>
