<?xml version="1.0" encoding="UTF-8" standalone="no"?>
<svg
   width="64"
   height="64"
   version="1"
   id="svg12"
   sodipodi:docname="poweriso-gui.svg"
   inkscape:version="1.1 (1:1.1+rc+202105240936+c4e8f9ed74)"
   xmlns:inkscape="http://www.inkscape.org/namespaces/inkscape"
   xmlns:sodipodi="http://sodipodi.sourceforge.net/DTD/sodipodi-0.dtd"
   xmlns="http://www.w3.org/2000/svg"
   xmlns:svg="http://www.w3.org/2000/svg">
  <defs
     id="defs16">
    <inkscape:path-effect
       effect="powerclip"
       id="path-effect515"
       is_visible="true"
       lpeversion="1"
       inverse="true"
       flatten="false"
       hide_clip="false"
       message="Use fill-rule evenodd on &lt;b&gt;fill and stroke&lt;/b&gt; dialog if no flatten result after convert clip to paths." />
    <clipPath
       clipPathUnits="userSpaceOnUse"
       id="clipPath511">
      <path
         d="M 32,8 A 23.999999,23.999999 0 0 0 8,32 23.999999,23.999999 0 0 0 10.755859,43.130859 l 6.25586,-11.376953 A 15,15.000001 0 0 1 32,17 15,15.000001 0 0 1 46.388672,27.796875 l 5.257812,-9.560547 A 23.999999,23.999999 0 0 0 32,8 Z m 21.244141,12.869141 -6.25586,11.376953 A 15,15.000001 0 0 1 32,47 15,15.000001 0 0 1 17.611328,36.203125 l -5.257812,9.560547 A 23.999999,23.999999 0 0 0 32,56 23.999999,23.999999 0 0 0 56,32 23.999999,23.999999 0 0 0 53.244141,20.869141 Z"
         style="display:none;fill:#e4e4e4"
         id="path513" />
      <path
         id="lpe_path-effect515"
         style="fill:#e4e4e4"
         class="powerclip"
         d="M -1,-1 H 65 V 65 H -1 Z M 32,8 A 23.999999,23.999999 0 0 0 8,32 23.999999,23.999999 0 0 0 10.755859,43.130859 l 6.25586,-11.376953 A 15,15.000001 0 0 1 32,17 15,15.000001 0 0 1 46.388672,27.796875 l 5.257812,-9.560547 A 23.999999,23.999999 0 0 0 32,8 Z m 21.244141,12.869141 -6.25586,11.376953 A 15,15.000001 0 0 1 32,47 15,15.000001 0 0 1 17.611328,36.203125 l -5.257812,9.560547 A 23.999999,23.999999 0 0 0 32,56 23.999999,23.999999 0 0 0 56,32 23.999999,23.999999 0 0 0 53.244141,20.869141 Z" />
    </clipPath>
  </defs>
  <sodipodi:namedview
     id="namedview14"
     pagecolor="#ffffff"
     bordercolor="#666666"
     borderopacity="1.0"
     inkscape:pageshadow="2"
     inkscape:pageopacity="0.0"
     inkscape:pagecheckerboard="0"
     showgrid="false"
     inkscape:zoom="12.859375"
     inkscape:cx="32"
     inkscape:cy="32"
     inkscape:window-width="1920"
     inkscape:window-height="996"
     inkscape:window-x="0"
     inkscape:window-y="0"
     inkscape:window-maximized="1"
     inkscape:current-layer="svg12" />
  <path
     d="m32 17a15 15 0 0 0-15 15 15 15 0 0 0 15 15 15 15 0 0 0 15-15 15 15 0 0 0-15-15zm0 9a6 6 0 0 1 6 6 6 6 0 0 1-6 6 6 6 0 0 1-6-6 6 6 0 0 1 6-6z"
     style="fill:#29292a"
     id="path4" />
  <path
     d="M 32,4 A 28,28 0 0 0 4,32 28,28 0 0 0 32,60 28,28 0 0 0 60,32 28,28 0 0 0 32,4 Z m 0,16 A 12,12 0 0 1 44,32 12,12 0 0 1 32,44 12,12 0 0 1 20,32 12,12 0 0 1 32,20 Z"
     style="fill:#29292a"
     id="path6"
     clip-path="url(#clipPath511)"
     inkscape:path-effect="#path-effect515"
     inkscape:original-d="m32 4a28 28 0 0 0-28 28 28 28 0 0 0 28 28 28 28 0 0 0 28-28 28 28 0 0 0-28-28zm0 16a12 12 0 0 1 12 12 12 12 0 0 1-12 12 12 12 0 0 1-12-12 12 12 0 0 1 12-12z" />
</svg>
