<?xml version="1.0" encoding="UTF-8" standalone="no"?>
<svg
   width="64"
   height="64"
   version="1.1"
   id="svg18"
   sodipodi:docname="rocketchat.svg"
   inkscape:version="1.1 (1:1.1+202105261517+ce6663b3b7)"
   xmlns:inkscape="http://www.inkscape.org/namespaces/inkscape"
   xmlns:sodipodi="http://sodipodi.sourceforge.net/DTD/sodipodi-0.dtd"
   xmlns="http://www.w3.org/2000/svg"
   xmlns:svg="http://www.w3.org/2000/svg"
   xmlns:rdf="http://www.w3.org/1999/02/22-rdf-syntax-ns#"
   xmlns:cc="http://creativecommons.org/ns#"
   xmlns:dc="http://purl.org/dc/elements/1.1/">
  <metadata
     id="metadata24">
    <rdf:RDF>
      <cc:Work
         rdf:about="">
        <dc:format>image/svg+xml</dc:format>
        <dc:type
           rdf:resource="http://purl.org/dc/dcmitype/StillImage" />
        <dc:title />
      </cc:Work>
    </rdf:RDF>
  </metadata>
  <defs
     id="defs22">
    <inkscape:path-effect
       effect="powerclip"
       id="path-effect15"
       is_visible="true"
       lpeversion="1"
       inverse="true"
       flatten="false"
       hide_clip="false"
       message="Use fill-rule evenodd on &lt;b&gt;fill and stroke&lt;/b&gt; dialog if no flatten result after convert clip to paths." />
    <clipPath
       clipPathUnits="userSpaceOnUse"
       id="clipPath11">
      <path
         style="display:none;opacity:0.85;fill:#ffffff"
         d="M 32,16 C 24.436316,16 17.651506,18.0891 13.003906,21.1875 8.3577592,24.284932 6.001473,28.09584 6,31.996094 c 0.0099,2.817942 1.252715,5.69631 4.050781,8.414062 a 4.0004,4.0004 0 0 1 1.191407,3.300782 c -0.432268,4.004714 -1.078989,7.744074 -2.1406256,11.085938 4.0564106,-1.271584 7.6895906,-3.480812 10.5156256,-6.54297 a 4.0004,4.0004 0 0 1 3.8125,-1.191406 c 2.74881,0.613708 5.653504,0.9319 8.578124,0.9375 7.56038,-0.0015 14.342366,-2.090222 18.988282,-5.1875 C 55.643694,39.7141 58,35.901528 58,32 58,28.098472 55.643694,24.2859 50.996094,21.1875 46.348494,18.0891 39.563684,16 32,16 Z"
         id="path13" />
      <path
         id="lpe_path-effect15"
         style="opacity:0.85;fill:#ffffff"
         class="powerclip"
         d="M -3,-1 H 67 V 65 H -3 Z M 32,16 C 24.436316,16 17.651506,18.0891 13.003906,21.1875 8.3577592,24.284932 6.001473,28.09584 6,31.996094 c 0.0099,2.817942 1.252715,5.69631 4.050781,8.414062 a 4.0004,4.0004 0 0 1 1.191407,3.300782 c -0.432268,4.004714 -1.078989,7.744074 -2.1406256,11.085938 4.0564106,-1.271584 7.6895906,-3.480812 10.5156256,-6.54297 a 4.0004,4.0004 0 0 1 3.8125,-1.191406 c 2.74881,0.613708 5.653504,0.9319 8.578124,0.9375 7.56038,-0.0015 14.342366,-2.090222 18.988282,-5.1875 C 55.643694,39.7141 58,35.901528 58,32 58,28.098472 55.643694,24.2859 50.996094,21.1875 46.348494,18.0891 39.563684,16 32,16 Z" />
    </clipPath>
  </defs>
  <sodipodi:namedview
     pagecolor="#ffffff"
     bordercolor="#666666"
     borderopacity="1"
     objecttolerance="10"
     gridtolerance="10"
     guidetolerance="10"
     inkscape:pageopacity="0"
     inkscape:pageshadow="2"
     inkscape:window-width="1920"
     inkscape:window-height="996"
     id="namedview20"
     showgrid="false"
     inkscape:zoom="12.890625"
     inkscape:cx="32"
     inkscape:cy="25.793939"
     inkscape:window-x="0"
     inkscape:window-y="0"
     inkscape:window-maximized="1"
     inkscape:current-layer="svg18"
     inkscape:pagecheckerboard="0" />
  <path
     id="path4"
     style="fill:#29292a"
     d="m 2,4 c 2.366442,3.3130184 4.0895125,9.670183 5.0136719,17.007812 A 30,20 0 0 0 2,32 30,20 0 0 0 7.2871094,43.265625 C 6.5109476,50.486622 4.8041458,56.728497 2,60 10.153153,60 17.490227,56.512474 22.607422,50.951172 A 30,20 0 0 0 32,52 30,20 0 0 0 62,32 30,20 0 0 0 32,12 30,20 0 0 0 22.607422,13.048828 C 17.490227,7.4875258 10.153153,4 2,4 Z"
     clip-path="url(#clipPath11)"
     inkscape:path-effect="#path-effect15"
     inkscape:original-d="M 2 4 C 4.366442 7.3130184 6.0895125 13.670183 7.0136719 21.007812 A 30 20 0 0 0 2 32 A 30 20 0 0 0 7.2871094 43.265625 C 6.5109476 50.486622 4.8041458 56.728497 2 60 C 10.153153 60 17.490227 56.512474 22.607422 50.951172 A 30 20 0 0 0 32 52 A 30 20 0 0 0 62 32 A 30 20 0 0 0 32 12 A 30 20 0 0 0 22.607422 13.048828 C 17.490227 7.4875258 10.153153 4 2 4 z " />
  <path
     style="fill:#29292a"
     d="m 20,28 a 4,4 0 0 0 -4,4 4,4 0 0 0 4,4 4,4 0 0 0 4,-4 4,4 0 0 0 -4,-4 z m 12,0 a 4,4 0 0 0 -4,4 4,4 0 0 0 4,4 4,4 0 0 0 4,-4 4,4 0 0 0 -4,-4 z m 12,0 a 4,4 0 0 0 -4,4 4,4 0 0 0 4,4 4,4 0 0 0 4,-4 4,4 0 0 0 -4,-4 z"
     id="path14" />
</svg>
