<?xml version="1.0" encoding="UTF-8" standalone="no"?>
<svg
   width="64"
   height="64"
   version="1.1"
   id="svg73"
   sodipodi:docname="sa.sy.bluerecorder.svg"
   inkscape:version="1.1 (1:1.1+202105261517+ce6663b3b7)"
   xmlns:inkscape="http://www.inkscape.org/namespaces/inkscape"
   xmlns:sodipodi="http://sodipodi.sourceforge.net/DTD/sodipodi-0.dtd"
   xmlns="http://www.w3.org/2000/svg"
   xmlns:svg="http://www.w3.org/2000/svg"
   xmlns:rdf="http://www.w3.org/1999/02/22-rdf-syntax-ns#"
   xmlns:cc="http://creativecommons.org/ns#"
   xmlns:dc="http://purl.org/dc/elements/1.1/">
  <metadata
     id="metadata77">
    <rdf:RDF>
      <cc:Work
         rdf:about="">
        <dc:format>image/svg+xml</dc:format>
        <dc:type
           rdf:resource="http://purl.org/dc/dcmitype/StillImage" />
        <dc:title />
      </cc:Work>
    </rdf:RDF>
  </metadata>
  <sodipodi:namedview
     pagecolor="#ffffff"
     bordercolor="#666666"
     borderopacity="1"
     objecttolerance="10"
     gridtolerance="10"
     guidetolerance="10"
     inkscape:pageopacity="0"
     inkscape:pageshadow="2"
     inkscape:window-width="1717"
     inkscape:window-height="798"
     id="namedview75"
     showgrid="false"
     inkscape:zoom="12.578125"
     inkscape:cx="32.039752"
     inkscape:cy="25.639752"
     inkscape:window-x="203"
     inkscape:window-y="198"
     inkscape:window-maximized="0"
     inkscape:current-layer="svg73"
     inkscape:document-rotation="0"
     inkscape:pagecheckerboard="0" />
  <defs
     id="defs29">
    <inkscape:path-effect
       effect="powerclip"
       id="path-effect199"
       is_visible="true"
       lpeversion="1"
       inverse="true"
       flatten="false"
       hide_clip="false"
       message="Use fill-rule evenodd on &lt;b&gt;fill and stroke&lt;/b&gt; dialog if no flatten result after convert clip to paths." />
    <linearGradient
       id="b"
       x1="399.57"
       x2="399.57"
       y1="545.8"
       y2="517.8"
       gradientTransform="matrix(2.1429,0,0,2.1429,-826.36,-1107.5)"
       gradientUnits="userSpaceOnUse">
      <stop
         stop-color="#3889e9"
         offset="0"
         id="stop2" />
      <stop
         stop-color="#5ea5fb"
         offset="1"
         id="stop4" />
    </linearGradient>
    <linearGradient
       id="linearGradient862"
       x1="7.9373"
       x2="7.9373"
       y1="15.081"
       y2="1.852"
       gradientTransform="matrix(3.3743 0 0 3.3743 3.4312 3.4278)"
       gradientUnits="userSpaceOnUse">
      <stop
         stop-color="#f1efeb"
         offset="0"
         id="stop7" />
      <stop
         stop-color="#fff"
         offset="1"
         id="stop9" />
    </linearGradient>
    <linearGradient
       id="linearGradient910"
       x1="7.9373"
       x2="7.9373"
       y1="15.081"
       y2="1.852"
       gradientTransform="scale(3.7796)"
       gradientUnits="userSpaceOnUse">
      <stop
         stop-color="#613583"
         offset="0"
         id="stop12" />
      <stop
         stop-color="#a663c0"
         offset="1"
         id="stop14" />
    </linearGradient>
    <linearGradient
       id="linearGradient932"
       x1="379.24"
       x2="374.24"
       y1="546.85"
       y2="546.85"
       gradientTransform="matrix(2.1429 0 0 2.1429 -769.68 -1134.5)"
       gradientUnits="userSpaceOnUse">
      <stop
         stop-color="#f6f5f4"
         offset="0"
         id="stop17" />
      <stop
         stop-color="#fff"
         offset=".6"
         id="stop19" />
      <stop
         stop-color="#dddbd8"
         offset="1"
         id="stop21" />
    </linearGradient>
    <linearGradient
       id="linearGradient1146"
       x1="18"
       x2="18"
       y1="52"
       y2="12"
       gradientUnits="userSpaceOnUse">
      <stop
         stop-color="#5e337f"
         offset="0"
         id="stop24" />
      <stop
         stop-color="#ab60bf"
         offset="1"
         id="stop26" />
    </linearGradient>
    <filter
       id="filter959"
       x="-0.086140998"
       y="-0.14473"
       width="1.1723"
       height="1.2895"
       color-interpolation-filters="sRGB">
      <feGaussianBlur
         stdDeviation="1.3860344"
         id="feGaussianBlur2" />
    </filter>
    <clipPath
       clipPathUnits="userSpaceOnUse"
       id="clipPath195">
      <path
         id="path197"
         style="display:none;fill:#e6e6e6;stroke:#e6e6e6;stroke-width:1.61369;stroke-linecap:butt;stroke-linejoin:miter;stroke-miterlimit:4;stroke-dasharray:none;stroke-opacity:1"
         d="m 13.794922,23.748047 a 6.7090249,8.8862982 0 0 0 -6.7089845,8.886719 6.7090249,8.8862982 0 0 0 6.7089845,8.886718 6.7090249,8.8862982 0 0 0 6.708984,-8.886718 6.7090249,8.8862982 0 0 0 -6.708984,-8.886719 z m 18.724609,0 a 6.7090249,8.8862982 0 0 0 -6.708984,8.886719 6.7090249,8.8862982 0 0 0 6.708984,8.886718 6.7090249,8.8862982 0 0 0 6.708985,-8.886718 6.7090249,8.8862982 0 0 0 -6.708985,-8.886719 z" />
      <path
         id="lpe_path-effect199"
         style="fill:#e6e6e6;stroke:#e6e6e6;stroke-width:1.61369;stroke-linecap:butt;stroke-linejoin:miter;stroke-miterlimit:4;stroke-dasharray:none;stroke-opacity:1"
         class="powerclip"
         d="M -2.0648704,10.772183 H 48.21889 V 54.630216 H -2.0648704 Z M 13.794922,23.748047 a 6.7090249,8.8862982 0 0 0 -6.7089845,8.886719 6.7090249,8.8862982 0 0 0 6.7089845,8.886718 6.7090249,8.8862982 0 0 0 6.708984,-8.886718 6.7090249,8.8862982 0 0 0 -6.708984,-8.886719 z m 18.724609,0 a 6.7090249,8.8862982 0 0 0 -6.708984,8.886719 6.7090249,8.8862982 0 0 0 6.708984,8.886718 6.7090249,8.8862982 0 0 0 6.708985,-8.886718 6.7090249,8.8862982 0 0 0 -6.708985,-8.886719 z" />
    </clipPath>
  </defs>
  <circle
     cx="32.02"
     cy="32.044"
     r="30.001"
     fill-opacity="0"
     stroke-width="1.5715"
     id="circle39" />
  <circle
     cx="32.02"
     cy="32.044"
     r="0"
     fill="url(#b)"
     stroke-width="1.5715"
     id="circle41" />
  <path
     style="fill:#29292a;fill-rule:evenodd;stroke-width:0.599444"
     id="rect74"
     width="40.28376"
     height="33.858032"
     x="2.9351296"
     y="15.772183"
     ry="7.8656673"
     rx="5.9384632"
     clip-path="url(#clipPath195)"
     inkscape:path-effect="#path-effect199"
     d="M 8.8735929,15.772183 H 37.280427 c 3.289908,0 5.938463,3.508088 5.938463,7.865668 v 18.126697 c 0,4.35758 -2.648555,7.865668 -5.938463,7.865668 H 8.8735929 c -3.2899087,0 -5.9384633,-3.508088 -5.9384633,-7.865668 V 23.637851 c 0,-4.35758 2.6485546,-7.865668 5.9384633,-7.865668 z"
     sodipodi:type="rect" />
  <path
     style="fill:#29292a;stroke:none;stroke-width:0.597658px;stroke-linecap:butt;stroke-linejoin:miter;stroke-opacity:1"
     d="m 44.720231,27.299421 c 0,0 2.999332,-2.309373 9.688696,-7.455488 6.515919,-5.012679 6.515965,1.445308 6.515965,6.667983 0,9.824252 0.07608,5.083201 0.07608,13.479575 0,7.33118 -2.700127,8.744431 -7.643046,4.941856 -6.816907,-5.244232 -8.724337,-6.11889 -8.724337,-6.11889 z"
     id="path114"
     sodipodi:nodetypes="ccccccc" />
  <ellipse
     style="fill:#29292a;stroke:none;stroke-width:0.411796"
     id="circle943"
     cx="32.571934"
     cy="32.668163"
     rx="5.2048163"
     ry="6.6820312" />
  <ellipse
     style="fill:#29292a;stroke:none;stroke-width:0.411796"
     id="ellipse945"
     cx="13.761339"
     cy="32.668163"
     rx="5.2048163"
     ry="6.6820312" />
</svg>
