<?xml version="1.0" encoding="UTF-8" standalone="no"?>
<svg
   width="64"
   height="64"
   version="1"
   id="svg12"
   sodipodi:docname="scribus.svg"
   inkscape:version="1.1 (1:1.1+202106031931+af4d65493e)"
   xmlns:inkscape="http://www.inkscape.org/namespaces/inkscape"
   xmlns:sodipodi="http://sodipodi.sourceforge.net/DTD/sodipodi-0.dtd"
   xmlns="http://www.w3.org/2000/svg"
   xmlns:svg="http://www.w3.org/2000/svg">
  <defs
     id="defs16">
    <inkscape:path-effect
       effect="powerclip"
       id="path-effect262"
       is_visible="true"
       lpeversion="1"
       inverse="true"
       flatten="false"
       hide_clip="false"
       message="Use fill-rule evenodd on &lt;b&gt;fill and stroke&lt;/b&gt; dialog if no flatten result after convert clip to paths." />
    <clipPath
       clipPathUnits="userSpaceOnUse"
       id="clipPath258">
      <path
         style="display:none;fill:#ffffff;fill-rule:evenodd"
         d="M 34,14 C 29.505,21.748 25.6904,29.5704 23.388,37.322 22.16836,41.4708 21.0684,45.8316 20,50 h 2 c 3.682,-5.882 10.376,-10.043476 16,-11.999476 0.06,-4.252 -0.368,-9.142 1.324,-12.87 0.692,-1.55 1.78,-3.724 2.676,-5.13 0,-4 -4.465963,-9.192279 -8,-6 z"
         id="path260" />
      <path
         id="lpe_path-effect262"
         style="fill:#ffffff;fill-rule:evenodd"
         class="powerclip"
         d="M -1,-1 H 65 V 65 H -1 Z M 34,14 C 29.505,21.748 25.6904,29.5704 23.388,37.322 22.16836,41.4708 21.0684,45.8316 20,50 h 2 c 3.682,-5.882 10.376,-10.043476 16,-11.999476 0.06,-4.252 -0.368,-9.142 1.324,-12.87 0.692,-1.55 1.78,-3.724 2.676,-5.13 0,-4 -4.465963,-9.192279 -8,-6 z" />
    </clipPath>
  </defs>
  <sodipodi:namedview
     id="namedview14"
     pagecolor="#ffffff"
     bordercolor="#666666"
     borderopacity="1.0"
     inkscape:pageshadow="2"
     inkscape:pageopacity="0.0"
     inkscape:pagecheckerboard="0"
     showgrid="false"
     inkscape:zoom="12.859375"
     inkscape:cx="32"
     inkscape:cy="44.442284"
     inkscape:window-width="1920"
     inkscape:window-height="996"
     inkscape:window-x="0"
     inkscape:window-y="0"
     inkscape:window-maximized="1"
     inkscape:current-layer="svg12" />
  <path
     style="fill:#29292a"
     id="circle4"
     clip-path="url(#clipPath258)"
     inkscape:path-effect="#path-effect262"
     sodipodi:type="arc"
     sodipodi:cx="32"
     sodipodi:cy="32"
     sodipodi:rx="28"
     sodipodi:ry="28"
     d="M 60,32 A 28,28 0 0 1 32,60 28,28 0 0 1 4,32 28,28 0 0 1 32,4 28,28 0 0 1 60,32 Z"
     transform="matrix(1.0639505,0,0,1.082075,-2.0340188,-2.4931978)" />
</svg>
