<?xml version="1.0" encoding="UTF-8" standalone="no"?>
<svg
   width="64"
   height="64"
   version="1"
   id="svg20"
   sodipodi:docname="stacer.svg"
   inkscape:version="1.1 (1:1.1+202105261517+ce6663b3b7)"
   xmlns:inkscape="http://www.inkscape.org/namespaces/inkscape"
   xmlns:sodipodi="http://sodipodi.sourceforge.net/DTD/sodipodi-0.dtd"
   xmlns="http://www.w3.org/2000/svg"
   xmlns:svg="http://www.w3.org/2000/svg"
   xmlns:rdf="http://www.w3.org/1999/02/22-rdf-syntax-ns#"
   xmlns:cc="http://creativecommons.org/ns#"
   xmlns:dc="http://purl.org/dc/elements/1.1/">
  <metadata
     id="metadata26">
    <rdf:RDF>
      <cc:Work
         rdf:about="">
        <dc:format>image/svg+xml</dc:format>
        <dc:type
           rdf:resource="http://purl.org/dc/dcmitype/StillImage" />
        <dc:title />
      </cc:Work>
    </rdf:RDF>
  </metadata>
  <defs
     id="defs24">
    <inkscape:path-effect
       effect="powerclip"
       id="path-effect114"
       is_visible="true"
       lpeversion="1"
       inverse="true"
       flatten="false"
       hide_clip="false"
       message="Use fill-rule evenodd on &lt;b&gt;fill and stroke&lt;/b&gt; dialog if no flatten result after convert clip to paths." />
    <clipPath
       clipPathUnits="userSpaceOnUse"
       id="clipPath110">
      <path
         id="path112"
         style="display:none;opacity:0.85;fill:#f2f2f2"
         d="m -7,-32 a 3,3 0 0 1 -3,3 3,3 0 0 1 -3,-3 3,3 0 0 1 3,-3 3,3 0 0 1 3,3 z m -4,12.070312 A 3,3 0 0 1 -11.398438,-18.5 3,3 0 0 1 -15.5,-17.402344 3,3 0 0 1 -16.597656,-21.5 3,3 0 0 1 -12.5,-22.597656 a 3,3 0 0 1 1.5,2.667968 z m 0,-24.140624 a 3,3 0 0 1 -1.5,2.667968 A 3,3 0 0 1 -16.597656,-42.5 3,3 0 0 1 -15.5,-46.597656 3,3 0 0 1 -11.398438,-45.5 3,3 0 0 1 -11,-44.070312 Z m -8,31.996093 a 3,3 0 0 1 -0.0039,0.214844 3,3 0 0 1 -1.4961,2.4570312 3,3 0 0 1 -4.097656,-1.1015622 3,3 0 0 1 1.097656,-4.097656 3,3 0 0 1 4.097656,1.097656 A 3,3 0 0 1 -19,-12.074219 Z m 0,-39.851562 a 3,3 0 0 1 -0.402344,1.429687 3,3 0 0 1 -4.097656,1.097656 3,3 0 0 1 -1.097656,-4.097656 3,3 0 0 1 4.097656,-1.101562 3,3 0 0 1 1.496094,2.457031 3,3 0 0 1 0.0039,0.214844 z m -8.001953,20.044922 a 5,5 0 0 1 -3.703125,4.710937 5,5 0 0 1 -6.125,-3.537109 5,5 0 0 1 1.238281,-4.757813 l -1.066406,-13.921875 6.03125,12.578125 a 5,5 0 0 0 0.002,0 5,5 0 0 1 3.455078,3.513672 5,5 0 0 1 0.167969,1.414063 z M -31,-10 a 3,3 0 0 1 -3,3 3,3 0 0 1 -3,-3 3,3 0 0 1 3,-3 3,3 0 0 1 3,3 z m 0,-44 a 3,3 0 0 1 -3,3 3,3 0 0 1 -3,-3 3,3 0 0 1 3,-3 3,3 0 0 1 3,3 z m -10,40.070312 a 3,3 0 0 1 -0.402344,1.425782 3,3 0 0 1 -4.097656,1.101562 3,3 0 0 1 -1.097656,-4.101562 3,3 0 0 1 4.097656,-1.097656 3,3 0 0 1 1.5,2.671874 z m 0,-35.925781 a 3,3 0 0 1 -1.5,2.457031 3,3 0 0 1 -4.097656,-1.097656 3,3 0 0 1 1.097656,-4.101562 3,3 0 0 1 4.097656,1.101562 3,3 0 0 1 0.402344,1.425782 3,3 0 0 1 0,0.214843 z" />
      <path
         id="lpe_path-effect114"
         style="opacity:0.85;fill:#f2f2f2"
         class="powerclip"
         d="M -66,-66 H 2 V 2 h -68 z m 59,34 a 3,3 0 0 0 -3,-3 3,3 0 0 0 -3,3 3,3 0 0 0 3,3 3,3 0 0 0 3,-3 z m -4,12.070312 A 3,3 0 0 0 -12.5,-22.597656 3,3 0 0 0 -16.597656,-21.5 3,3 0 0 0 -15.5,-17.402344 3,3 0 0 0 -11.398438,-18.5 3,3 0 0 0 -11,-19.929688 Z m 0,-24.140624 A 3,3 0 0 0 -11.398438,-45.5 3,3 0 0 0 -15.5,-46.597656 3,3 0 0 0 -16.597656,-42.5 3,3 0 0 0 -12.5,-41.402344 3,3 0 0 0 -11,-44.070312 Z m -8,31.996093 a 3,3 0 0 0 -0.402344,-1.429687 3,3 0 0 0 -4.097656,-1.097656 3,3 0 0 0 -1.097656,4.097656 3,3 0 0 0 4.097656,1.1015622 3,3 0 0 0 1.4961,-2.4570312 3,3 0 0 0 0.0039,-0.214844 z m 0,-39.851562 h -6e-6 a 3,3 0 0 0 -0.0039,-0.214844 3,3 0 0 0 -1.496094,-2.457031 3,3 0 0 0 -4.097656,1.101562 3,3 0 0 0 1.097656,4.097656 3,3 0 0 0 4.097656,-1.097656 A 3,3 0 0 0 -19,-51.925781 Z m -8.001953,20.044922 h 4.7e-5 a 5,5 0 0 0 -0.167969,-1.414063 5,5 0 0 0 -3.455078,-3.513672 5,5 0 0 1 -0.002,0 l -6.03125,-12.578125 1.066406,13.921875 a 5,5 0 0 0 -1.238281,4.757813 5,5 0 0 0 6.125,3.537109 5,5 0 0 0 3.703125,-4.710937 z M -31,-10 a 3,3 0 0 0 -3,-3 3,3 0 0 0 -3,3 3,3 0 0 0 3,3 3,3 0 0 0 3,-3 z m 0,-44 a 3,3 0 0 0 -3,-3 3,3 0 0 0 -3,3 3,3 0 0 0 3,3 3,3 0 0 0 3,-3 z m -10,40.070312 a 3,3 0 0 0 -1.5,-2.671874 3,3 0 0 0 -4.097656,1.097656 3,3 0 0 0 1.097656,4.101562 3,3 0 0 0 4.097656,-1.101562 A 3,3 0 0 0 -41,-13.929688 Z m 0,-35.925781 a 3,3 0 0 0 0,-0.214843 3,3 0 0 0 -0.402344,-1.425782 3,3 0 0 0 -4.097656,-1.101562 3,3 0 0 0 -1.097656,4.101562 3,3 0 0 0 4.097656,1.097656 3,3 0 0 0 1.5,-2.457031 z" />
    </clipPath>
  </defs>
  <sodipodi:namedview
     pagecolor="#ffffff"
     bordercolor="#666666"
     borderopacity="1"
     objecttolerance="10"
     gridtolerance="10"
     guidetolerance="10"
     inkscape:pageopacity="0"
     inkscape:pageshadow="2"
     inkscape:window-width="1920"
     inkscape:window-height="996"
     id="namedview22"
     showgrid="false"
     inkscape:zoom="12.890625"
     inkscape:cx="32"
     inkscape:cy="22.690909"
     inkscape:window-x="0"
     inkscape:window-y="0"
     inkscape:window-maximized="1"
     inkscape:current-layer="svg20"
     inkscape:document-rotation="0"
     inkscape:pagecheckerboard="0" />
  <path
     style="fill:#29292a"
     width="58"
     height="58"
     x="-61"
     y="-61"
     rx="29"
     ry="29"
     transform="matrix(0,-1,-1,0,0,0)"
     id="rect4"
     clip-path="url(#clipPath110)"
     inkscape:path-effect="#path-effect114"
     d="m -32,-61 c 16.066,0 29,12.934 29,29 0,16.066 -12.934,29 -29,29 -16.066,0 -29,-12.934 -29,-29 0,-16.066 12.934,-29 29,-29 z"
     sodipodi:type="rect" />
</svg>
