<?xml version="1.0" encoding="UTF-8" standalone="no"?>
<svg
   width="64"
   height="64"
   version="1"
   id="svg22"
   sodipodi:docname="steam_icon_466560.svg"
   inkscape:version="1.1 (1:1.1+202105261517+ce6663b3b7)"
   xmlns:inkscape="http://www.inkscape.org/namespaces/inkscape"
   xmlns:sodipodi="http://sodipodi.sourceforge.net/DTD/sodipodi-0.dtd"
   xmlns="http://www.w3.org/2000/svg"
   xmlns:svg="http://www.w3.org/2000/svg"
   xmlns:rdf="http://www.w3.org/1999/02/22-rdf-syntax-ns#"
   xmlns:cc="http://creativecommons.org/ns#"
   xmlns:dc="http://purl.org/dc/elements/1.1/">
  <metadata
     id="metadata28">
    <rdf:RDF>
      <cc:Work
         rdf:about="">
        <dc:format>image/svg+xml</dc:format>
        <dc:type
           rdf:resource="http://purl.org/dc/dcmitype/StillImage" />
      </cc:Work>
    </rdf:RDF>
  </metadata>
  <defs
     id="defs26">
    <inkscape:path-effect
       effect="powerclip"
       id="path-effect22"
       is_visible="true"
       lpeversion="1"
       inverse="true"
       flatten="false"
       hide_clip="false"
       message="Use fill-rule evenodd on &lt;b&gt;fill and stroke&lt;/b&gt; dialog if no flatten result after convert clip to paths." />
    <clipPath
       clipPathUnits="userSpaceOnUse"
       id="clipPath18">
      <path
         id="path20"
         style="display:none;fill:#ffffff;stroke-width:0.251003"
         d="M 31.492189,8.3203123 C 25.646312,8.4476317 19.834352,10.908163 15.44922,15.673828 6.6791231,25.204973 6.8902463,40.397398 15.921876,49.541015 24.95333,58.684455 39.436761,58.368857 48.207033,48.83789 56.977299,39.306558 56.764053,24.11432 47.732424,14.970703 43.216609,10.398894 37.338065,8.1929929 31.492189,8.3203123 Z m 1.261718,2.5800787 c 4.102429,0.16719 8.162703,1.624905 11.57422,4.386718 l 0.466797,33.384765 c -3.332156,2.908686 -7.347938,4.540803 -11.443361,4.886719 l -0.1875,-13.337891 c 1.546885,-0.293138 3.025959,-1.079856 4.201172,-2.357422 2.965193,-3.222503 2.893402,-8.359752 -0.160156,-11.451172 -1.210417,-1.225426 -2.709357,-1.948413 -4.263672,-2.173828 z m -2.449218,0.05273 0.185546,13.33789 c -1.54723,0.293146 -3.025953,1.082173 -4.201172,2.359375 -2.965191,3.222504 -2.893399,8.357799 0.160157,11.449218 1.210417,1.225426 2.711309,1.948412 4.265625,2.173829 l 0.185547,13.33789 C 26.797962,53.444136 22.739644,51.986419 19.328126,49.224608 L 18.861329,15.841797 c 3.332332,-2.908508 7.347761,-4.542934 11.44336,-4.888672 z m 16.507813,6.712891 c 7.025849,7.941148 7.197627,20.275872 0.398438,28.517577 z M 16.44336,18.328125 16.843751,46.845702 C 9.8179042,38.904917 9.6438287,26.5702 16.44336,18.328125 Z" />
      <path
         id="lpe_path-effect22"
         style="fill:#ffffff;stroke-width:0.251003"
         class="powerclip"
         d="M -1.9983251,-2.2882962 H 66.205437 V 66.558849 H -1.9983251 Z M 31.492189,8.3203123 C 25.646312,8.4476317 19.834352,10.908163 15.44922,15.673828 6.6791231,25.204973 6.8902463,40.397398 15.921876,49.541015 24.95333,58.684455 39.436761,58.368857 48.207033,48.83789 56.977299,39.306558 56.764053,24.11432 47.732424,14.970703 43.216609,10.398894 37.338065,8.1929929 31.492189,8.3203123 Z m 1.261718,2.5800787 0.1875,13.337889 c 1.554315,0.225415 3.053255,0.948402 4.263672,2.173828 3.053558,3.09142 3.125349,8.228669 0.160156,11.451172 -1.175213,1.277566 -2.654287,2.064284 -4.201172,2.357422 l 0.1875,13.337891 c 4.095423,-0.345916 8.111205,-1.978033 11.443361,-4.886719 L 44.328127,15.287109 C 40.91661,12.525296 36.856336,11.067581 32.753907,10.900391 Z m -2.449218,0.05273 v 4e-6 c -4.095599,0.345738 -8.111028,1.980164 -11.44336,4.888672 l 0.466797,33.382811 c 3.411518,2.761811 7.469836,4.219528 11.572266,4.386715 L 30.714845,40.273433 C 29.160529,40.048016 27.659637,39.32503 26.44922,38.099604 23.395664,35.008185 23.323872,29.87289 26.289063,26.650386 c 1.175219,-1.277202 2.653942,-2.066229 4.201172,-2.359375 z m 16.507813,6.712891 0.398438,28.517577 C 54.010129,37.941884 53.838351,25.60716 46.812502,17.666012 Z M 16.44336,18.328125 C 9.6438287,26.5702 9.8179042,38.904917 16.843751,46.845702 Z" />
    </clipPath>
  </defs>
  <sodipodi:namedview
     pagecolor="#ffffff"
     bordercolor="#666666"
     borderopacity="1"
     objecttolerance="10"
     gridtolerance="10"
     guidetolerance="10"
     inkscape:pageopacity="0"
     inkscape:pageshadow="2"
     inkscape:window-width="1355"
     inkscape:window-height="912"
     id="namedview24"
     showgrid="false"
     inkscape:zoom="12.890625"
     inkscape:cx="19.471515"
     inkscape:cy="25.561212"
     inkscape:window-x="268"
     inkscape:window-y="0"
     inkscape:window-maximized="0"
     inkscape:current-layer="svg22"
     inkscape:pagecheckerboard="0" />
  <path
     style="fill:#29292a;stroke-width:1.04509"
     width="58.203762"
     height="58.847145"
     x="3.0016749"
     y="2.7117038"
     rx="29.1024"
     ry="29.424097"
     id="rect4"
     clip-path="url(#clipPath18)"
     inkscape:path-effect="#path-effect22"
     d="m 32.103556,2.7117038 c 16.122442,0 29.101881,13.1229132 29.101881,29.4235722 0,16.30066 -12.979439,29.423573 -29.101881,29.423573 -16.122442,0 -29.1018811,-13.122913 -29.1018811,-29.423573 0,-16.300659 12.9794391,-29.4235722 29.1018811,-29.4235722 z"
     sodipodi:type="rect" />
  <g
     id="g10"
     transform="matrix(0.76507696,0,0,0.80251191,7.1618677,6.5963772)"
     style="fill:#ffffff;opacity:0.85" />
</svg>
