<?xml version="1.0" encoding="UTF-8" standalone="no"?>
<svg
   width="64"
   height="64"
   version="1"
   id="svg22"
   sodipodi:docname="steam_icon_410980.svg"
   inkscape:version="1.1 (1:1.1+202105261517+ce6663b3b7)"
   xmlns:inkscape="http://www.inkscape.org/namespaces/inkscape"
   xmlns:sodipodi="http://sodipodi.sourceforge.net/DTD/sodipodi-0.dtd"
   xmlns="http://www.w3.org/2000/svg"
   xmlns:svg="http://www.w3.org/2000/svg"
   xmlns:rdf="http://www.w3.org/1999/02/22-rdf-syntax-ns#"
   xmlns:cc="http://creativecommons.org/ns#"
   xmlns:dc="http://purl.org/dc/elements/1.1/">
  <metadata
     id="metadata28">
    <rdf:RDF>
      <cc:Work
         rdf:about="">
        <dc:format>image/svg+xml</dc:format>
        <dc:type
           rdf:resource="http://purl.org/dc/dcmitype/StillImage" />
      </cc:Work>
    </rdf:RDF>
  </metadata>
  <defs
     id="defs26">
    <inkscape:path-effect
       effect="powerclip"
       id="path-effect5807"
       is_visible="true"
       lpeversion="1"
       inverse="true"
       flatten="false"
       hide_clip="false"
       message="Use fill-rule evenodd on &lt;b&gt;fill and stroke&lt;/b&gt; dialog if no flatten result after convert clip to paths." />
    <clipPath
       clipPathUnits="userSpaceOnUse"
       id="clipPath5803">
      <path
         id="path5805"
         d="m 32.027344,14.351562 c -5.4125,1e-6 -9.958172,1.626765 -13.638672,4.882813 -3.6805,3.222823 -5.521484,7.492596 -5.521484,12.808594 0,5.249547 1.787125,9.51932 5.359374,12.808593 3.608334,3.25605 8.207866,4.884767 13.800782,4.884767 5.556833,0 10.139714,-1.64432 13.748047,-4.933595 3.608333,-3.289273 5.414062,-7.543443 5.414062,-12.759765 0,-5.315998 -1.894844,-9.634533 -5.683594,-12.957031 -3.608333,-3.156374 -8.102099,-4.734376 -13.478515,-4.734376 z m 0,1.644532 c 3.464,0 6.009062,1.761355 7.632812,5.283203 1.299,2.790898 1.949219,6.377974 1.949219,10.763672 0,3.920547 -0.451433,7.14287 -1.353516,9.667969 -1.515499,4.252797 -4.259348,6.38086 -8.228515,6.38086 -3.139249,0 -5.518828,-1.312727 -7.142578,-3.937501 -1.62375,-2.624774 -2.4375,-6.662431 -2.4375,-12.111328 0,-4.418923 0.650219,-8.005999 1.949218,-10.763672 1.659833,-3.521848 4.202943,-5.283203 7.63086,-5.283203 z"
         style="display:none" />
      <path
         id="lpe_path-effect5807"
         class="powerclip"
         d="M -1.9983251,-2.2882962 H 66.205437 V 66.558849 H -1.9983251 Z M 32.027344,14.351562 c -5.4125,1e-6 -9.958172,1.626765 -13.638672,4.882813 -3.6805,3.222823 -5.521484,7.492596 -5.521484,12.808594 0,5.249547 1.787125,9.51932 5.359374,12.808593 3.608334,3.25605 8.207866,4.884767 13.800782,4.884767 5.556833,0 10.139714,-1.64432 13.748047,-4.933595 3.608333,-3.289273 5.414062,-7.543443 5.414062,-12.759765 0,-5.315998 -1.894844,-9.634533 -5.683594,-12.957031 -3.608333,-3.156374 -8.102099,-4.734376 -13.478515,-4.734376 z m 0,1.644532 c -3.427917,0 -5.971027,1.761355 -7.63086,5.283203 -1.298999,2.757673 -1.949218,6.344749 -1.949218,10.763672 0,5.448897 0.81375,9.486554 2.4375,12.111328 1.62375,2.624774 4.003329,3.937501 7.142578,3.937501 3.969167,0 6.713016,-2.128063 8.228515,-6.38086 0.902083,-2.525099 1.353516,-5.747422 1.353516,-9.667969 0,-4.385698 -0.650219,-7.972774 -1.949219,-10.763672 -1.62375,-3.521848 -4.168812,-5.283203 -7.632812,-5.283203 z" />
    </clipPath>
  </defs>
  <sodipodi:namedview
     pagecolor="#ffffff"
     bordercolor="#666666"
     borderopacity="1"
     objecttolerance="10"
     gridtolerance="10"
     guidetolerance="10"
     inkscape:pageopacity="0"
     inkscape:pageshadow="2"
     inkscape:window-width="1355"
     inkscape:window-height="912"
     id="namedview24"
     showgrid="false"
     inkscape:zoom="6.4453125"
     inkscape:cx="83.006061"
     inkscape:cy="13.110303"
     inkscape:window-x="884"
     inkscape:window-y="281"
     inkscape:window-maximized="0"
     inkscape:current-layer="svg22"
     inkscape:pagecheckerboard="0" />
  <path
     style="fill:#29292a;stroke-width:1.04509"
     width="58.203762"
     height="58.847145"
     x="3.0016749"
     y="2.7117038"
     rx="29.1024"
     ry="29.424097"
     id="rect4"
     sodipodi:type="rect"
     clip-path="url(#clipPath5803)"
     inkscape:path-effect="#path-effect5807"
     d="m 32.103556,2.7117038 c 16.122442,0 29.101881,13.1229132 29.101881,29.4235722 0,16.30066 -12.979439,29.423573 -29.101881,29.423573 -16.122442,0 -29.1018811,-13.122913 -29.1018811,-29.423573 0,-16.300659 12.9794391,-29.4235722 29.1018811,-29.4235722 z" />
  <g
     aria-label="BG"
     transform="scale(0.97514702,1.0254864)"
     id="text6568"
     style="font-size:34.1545px;line-height:1.25;font-family:'padmaa-Bold.1.1';-inkscape-font-specification:'padmaa-Bold.1.1';opacity:0.85;fill:#ffffff;stroke-width:0.85386">
    <text
       xml:space="preserve"
       style="font-size:40px;line-height:1.25;font-family:Ancient;-inkscape-font-specification:Ancient;fill:#ffffff"
       x="5.9679508"
       y="40.362118"
       id="text3216"
       transform="scale(1.0254864,0.97514701)"><tspan
         sodipodi:role="line"
         id="tspan3214"
         x="5.9679508"
         y="40.362118"
         style="fill:#ffffff" /></text>
  </g>
  <g
     aria-label="O"
     transform="scale(1.0421277,0.95957531)"
     id="text2488"
     style="font-size:53.1835px;line-height:1.25;font-family:'padmaa-Bold.1.1';-inkscape-font-specification:'padmaa-Bold.1.1';stroke-width:1.32959" />
</svg>
