<?xml version="1.0" encoding="UTF-8" standalone="no"?>
<svg
   width="64"
   height="64"
   version="1"
   id="svg22"
   sodipodi:docname="steam_icon_281990.svg"
   inkscape:version="1.1 (1:1.1+202105261517+ce6663b3b7)"
   xmlns:inkscape="http://www.inkscape.org/namespaces/inkscape"
   xmlns:sodipodi="http://sodipodi.sourceforge.net/DTD/sodipodi-0.dtd"
   xmlns="http://www.w3.org/2000/svg"
   xmlns:svg="http://www.w3.org/2000/svg"
   xmlns:rdf="http://www.w3.org/1999/02/22-rdf-syntax-ns#"
   xmlns:cc="http://creativecommons.org/ns#"
   xmlns:dc="http://purl.org/dc/elements/1.1/">
  <metadata
     id="metadata28">
    <rdf:RDF>
      <cc:Work
         rdf:about="">
        <dc:format>image/svg+xml</dc:format>
        <dc:type
           rdf:resource="http://purl.org/dc/dcmitype/StillImage" />
      </cc:Work>
    </rdf:RDF>
  </metadata>
  <defs
     id="defs26">
    <inkscape:path-effect
       effect="powerclip"
       id="path-effect249"
       is_visible="true"
       lpeversion="1"
       inverse="true"
       flatten="false"
       hide_clip="false"
       message="Use fill-rule evenodd on &lt;b&gt;fill and stroke&lt;/b&gt; dialog if no flatten result after convert clip to paths." />
    <clipPath
       clipPathUnits="userSpaceOnUse"
       id="clipPath245">
      <path
         id="path247"
         style="color:#000000;-inkscape-font-specification:'padmaa-Bold.1.1';display:none;stroke-width:0.0417939;-inkscape-stroke:none"
         d="m 32.095705,15.505859 c -7.139097,0 -12.971858,6.952414 -13.392578,15.726564 -0.01753,0.338939 -0.02734,0.678639 -0.02734,1.017578 0,2.192171 0.339099,4.290152 0.957031,6.208984 0.122711,0.377207 0.252339,0.750522 0.392579,1.111328 0.512752,-0.153069 1.048366,-0.323895 1.591797,-0.509765 3.251817,-1.109752 6.901633,-2.743689 10.55664,-4.722656 4.667366,-2.53111 9.042393,-5.46158 12.390625,-8.298829 -0.12271,-0.377206 -0.254291,-0.748961 -0.394531,-1.115234 -0.872118,-2.230438 -2.130187,-4.18103 -3.664063,-5.722656 -2.300814,-2.312441 -5.228459,-3.695314 -8.410156,-3.695314 z m 17.722656,3.349611 c -1.831886,0.267871 -4.013254,0.946838 -6.173828,1.919922 0.644228,0.912949 0.744011,1.196083 1.230469,2.240234 1.954596,-0.524809 3.659286,-0.808594 4.943359,-0.808594 0.1753,0 0.332417,0.0047 0.472657,0.01563 -0.170918,0.262405 -0.384059,0.56419 -0.660157,0.914063 -0.933473,1.175353 -2.27148,2.531365 -3.871093,3.919922 -3.470943,3.012185 -8.103412,6.143553 -13.046875,8.822265 -3.71198,2.011768 -7.427539,3.675021 -10.736329,4.806641 -3.058986,1.044151 -5.753575,1.617187 -7.589843,1.617187 -0.1753,0 -0.33437,-0.0047 -0.47461,-0.01563 0.170918,-0.262404 0.386012,-0.564189 0.66211,-0.914062 0.845823,-1.071485 2.03367,-2.29538 3.449219,-3.552735 -0.298011,-1.158953 -0.390914,-1.377783 -0.496094,-2.585937 -4.807606,3.71193 -7.370603,6.499598 -6.835938,8.615234 0.306775,1.213621 1.629677,1.792969 3.689453,1.792969 4.198438,0 11.465632,-2.404298 19.402344,-6.701172 C 45.607198,32.534364 54.436905,24.343968 53.507814,20.648439 53.201039,19.434818 51.86499,18.560264 49.818361,18.85547 Z M 45.49219,33.265626 c -3.243053,2.509243 -7.082048,4.991433 -11.179688,7.210937 -3.72951,2.022702 -7.353224,3.657846 -10.626953,4.822266 2.300814,2.31244 5.224077,3.695313 8.410156,3.695313 7.139097,0 12.975764,-6.954366 13.396485,-15.728516 z" />
      <path
         id="lpe_path-effect249"
         style="color:#000000;-inkscape-font-specification:'padmaa-Bold.1.1';stroke-width:0.0417939;-inkscape-stroke:none"
         class="powerclip"
         d="M -1.9983251,-2.2882962 H 66.205437 V 66.558849 H -1.9983251 Z M 32.095705,15.505859 c -7.139097,0 -12.971858,6.952414 -13.392578,15.726564 -0.01753,0.338939 -0.02734,0.678639 -0.02734,1.017578 0,2.192171 0.339099,4.290152 0.957031,6.208984 0.122711,0.377207 0.252339,0.750522 0.392579,1.111328 0.512752,-0.153069 1.048366,-0.323895 1.591797,-0.509765 3.251817,-1.109752 6.901633,-2.743689 10.55664,-4.722656 4.667366,-2.53111 9.042393,-5.46158 12.390625,-8.298829 -0.12271,-0.377206 -0.254291,-0.748961 -0.394531,-1.115234 -0.872118,-2.230438 -2.130187,-4.18103 -3.664063,-5.722656 -2.300814,-2.312441 -5.228459,-3.695314 -8.410156,-3.695314 z m 17.722656,3.349611 c -1.831886,0.267871 -4.013254,0.946838 -6.173828,1.919922 0.644228,0.912949 0.744011,1.196083 1.230469,2.240234 1.954596,-0.524809 3.659286,-0.808594 4.943359,-0.808594 0.1753,0 0.332417,0.0047 0.472657,0.01563 -0.170918,0.262405 -0.384059,0.56419 -0.660157,0.914063 -0.933473,1.175353 -2.27148,2.531365 -3.871093,3.919922 -3.470943,3.012185 -8.103412,6.143553 -13.046875,8.822265 -3.71198,2.011768 -7.427539,3.675021 -10.736329,4.806641 -3.058986,1.044151 -5.753575,1.617187 -7.589843,1.617187 -0.1753,0 -0.33437,-0.0047 -0.47461,-0.01563 0.170918,-0.262404 0.386012,-0.564189 0.66211,-0.914062 0.845823,-1.071485 2.03367,-2.29538 3.449219,-3.552735 -0.298011,-1.158953 -0.390914,-1.377783 -0.496094,-2.585937 -4.807606,3.71193 -7.370603,6.499598 -6.835938,8.615234 0.306775,1.213621 1.629677,1.792969 3.689453,1.792969 4.198438,0 11.465632,-2.404298 19.402344,-6.701172 C 45.607198,32.534364 54.436905,24.343968 53.507814,20.648439 53.201039,19.434818 51.86499,18.560264 49.818361,18.85547 Z M 45.49219,33.265626 c -3.243053,2.509243 -7.082048,4.991433 -11.179688,7.210937 -3.72951,2.022702 -7.353224,3.657846 -10.626953,4.822266 2.300814,2.31244 5.224077,3.695313 8.410156,3.695313 7.139097,0 12.975764,-6.954366 13.396485,-15.728516 z" />
    </clipPath>
  </defs>
  <sodipodi:namedview
     pagecolor="#ffffff"
     bordercolor="#666666"
     borderopacity="1"
     objecttolerance="10"
     gridtolerance="10"
     guidetolerance="10"
     inkscape:pageopacity="0"
     inkscape:pageshadow="2"
     inkscape:window-width="1355"
     inkscape:window-height="912"
     id="namedview24"
     showgrid="false"
     inkscape:zoom="6.4453125"
     inkscape:cx="39.873939"
     inkscape:cy="13.110303"
     inkscape:window-x="208"
     inkscape:window-y="13"
     inkscape:window-maximized="0"
     inkscape:current-layer="svg22"
     inkscape:pagecheckerboard="0" />
  <path
     style="fill:#29292a;stroke-width:1.04509"
     width="58.203762"
     height="58.847145"
     x="3.0016749"
     y="2.7117038"
     rx="29.1024"
     ry="29.424097"
     id="rect4"
     sodipodi:type="rect"
     clip-path="url(#clipPath245)"
     inkscape:path-effect="#path-effect249"
     d="m 32.103556,2.7117038 c 16.122442,0 29.101881,13.1229132 29.101881,29.4235722 0,16.30066 -12.979439,29.423573 -29.101881,29.423573 -16.122442,0 -29.1018811,-13.122913 -29.1018811,-29.423573 0,-16.300659 12.9794391,-29.4235722 29.1018811,-29.4235722 z" />
  <g
     aria-label="BG"
     transform="scale(0.97514702,1.0254864)"
     id="text6568"
     style="font-size:34.1545px;font-family:'padmaa-Bold.1.1';-inkscape-font-specification:'padmaa-Bold.1.1';opacity:0.85;fill:#ffffff;stroke-width:0.85386">
    <g
       transform="scale(1.0254864,0.97514701)"
       id="text3216"
       style="font-size:40px;font-family:Ancient;-inkscape-font-specification:Ancient" />
    <g
       id="g10"
       transform="matrix(-0.04494197,0,0,0.05330895,55.384737,4.7936913)" />
  </g>
</svg>
