<?xml version="1.0" encoding="UTF-8" standalone="no"?>
<svg
   width="64"
   height="64"
   version="1"
   id="svg22"
   sodipodi:docname="steam_icon_646570.svg"
   inkscape:version="1.1 (1:1.1+202105261517+ce6663b3b7)"
   xmlns:inkscape="http://www.inkscape.org/namespaces/inkscape"
   xmlns:sodipodi="http://sodipodi.sourceforge.net/DTD/sodipodi-0.dtd"
   xmlns="http://www.w3.org/2000/svg"
   xmlns:svg="http://www.w3.org/2000/svg"
   xmlns:rdf="http://www.w3.org/1999/02/22-rdf-syntax-ns#"
   xmlns:cc="http://creativecommons.org/ns#"
   xmlns:dc="http://purl.org/dc/elements/1.1/">
  <metadata
     id="metadata28">
    <rdf:RDF>
      <cc:Work
         rdf:about="">
        <dc:format>image/svg+xml</dc:format>
        <dc:type
           rdf:resource="http://purl.org/dc/dcmitype/StillImage" />
      </cc:Work>
    </rdf:RDF>
  </metadata>
  <defs
     id="defs26">
    <inkscape:path-effect
       effect="powerclip"
       id="path-effect106"
       is_visible="true"
       lpeversion="1"
       inverse="true"
       flatten="false"
       hide_clip="false"
       message="Use fill-rule evenodd on &lt;b&gt;fill and stroke&lt;/b&gt; dialog if no flatten result after convert clip to paths." />
    <clipPath
       clipPathUnits="userSpaceOnUse"
       id="clipPath102">
      <path
         style="display:none;fill:#000000;stroke-width:0.052194"
         d="m 21.950136,52.899247 c -3.542088,-2.413482 -6.365339,-5.69954 -7.52853,-8.762637 -0.531282,-1.399061 -0.720267,-2.413606 -0.720973,-3.870504 -5.76e-4,-1.19341 0.07234,-1.754648 0.365983,-2.817021 0.423991,-1.533933 1.044438,-2.700803 2.578929,-4.850161 0.605969,-0.848775 1.193989,-1.70159 1.306711,-1.89514 l 0.204947,-0.351916 0.161143,0.07322 c 0.276823,0.125725 0.523114,0.373472 0.699994,0.70412 0.270016,0.504754 0.544997,0.693423 0.62113,0.426171 0.180924,-0.635114 0.226526,-1.194937 0.230267,-2.826753 0.0044,-1.904851 0.01483,-1.978235 0.444635,-3.119417 0.308861,-0.82005 0.643805,-1.43887 0.923516,-1.706224 0.219713,-0.21001 0.324007,-0.260238 0.752027,-0.362182 0.307507,-0.07322 0.384185,-0.237031 0.373946,-0.798782 -0.0096,-0.525008 -0.119035,-0.754819 -0.427142,-0.896716 l -0.212758,-0.09793 0.03766,-1.053318 c 0.03105,-0.868372 0.02317,-1.089877 -0.04487,-1.261533 -0.04539,-0.114516 -0.06386,-0.208215 -0.04103,-0.208215 0.02282,0 0.152711,0.104754 0.288644,0.232796 0.507348,0.477877 0.962949,1.314735 1.24182,2.28101 0.189875,0.657911 0.398454,2.249927 0.315732,2.409883 -0.03283,0.06348 -0.194678,0.203292 -0.359652,0.310671 -0.637772,0.415106 -1.017447,1.315812 -0.818521,1.941789 0.07212,0.22694 0.419174,0.56451 0.580374,0.56451 0.05541,0 0.08963,0.08481 0.113742,0.281701 0.131192,1.071377 0.305314,1.698011 0.576433,2.074477 0.508199,0.705668 1.464759,0.593787 1.919533,-0.2245 0.167433,-0.301267 0.352216,-0.885969 0.404971,-1.281437 l 0.03385,-0.253757 0.32215,-0.103492 c 0.613509,-0.197088 0.808339,-0.483332 0.716763,-1.053051 -0.08468,-0.526864 -0.351216,-1.0916 -0.833233,-1.765529 l -0.211324,-0.295453 -0.03896,-0.857358 c -0.04458,-0.981298 0.017,-1.631651 0.227778,-2.405165 0.283077,-1.038869 0.67175,-1.874313 1.334648,-2.868829 0.359571,-0.539447 1.173451,-1.614382 1.107199,-1.462344 -0.282694,0.648764 -0.305364,0.806935 -0.136928,0.955333 0.13746,0.12111 0.45014,0.129293 0.644874,0.01692 0.328741,-0.189777 0.618014,-0.990866 0.672122,-1.861299 l 0.03394,-0.546144 -0.202822,-0.183992 c -0.188403,-0.170918 -0.20281,-0.205231 -0.202654,-0.482676 1.11e-4,-0.164283 0.05014,-0.525439 0.111212,-0.802587 0.139548,-0.633248 0.139718,-1.085006 6.95e-4,-1.917424 -0.137377,-0.822706 -0.230498,-1.110374 -0.50636,-1.564242 l -0.218924,-0.360191 0.406783,0.320762 c 0.22373,0.176419 0.618179,0.533405 0.876552,0.793302 1.683475,1.693405 2.642526,3.363359 2.396675,4.173226 -0.08688,0.286162 -0.379524,0.629946 -0.745692,0.875981 -0.153658,0.103236 -0.313388,0.259428 -0.354955,0.347076 -0.111073,0.234211 -0.103215,1.18376 0.01098,1.32741 0.272871,0.34323 1.075823,-0.177583 1.493811,-0.968931 l 0.142325,-0.269457 5.26e-4,0.497854 c 3.56e-4,0.273825 -0.0377,0.670647 -0.08444,0.881846 -0.163367,0.738207 -0.186126,1.066578 -0.141185,2.037108 0.04093,0.883918 0.05654,0.988159 0.181171,1.210044 0.07501,0.133538 0.109566,0.228519 0.07678,0.211065 -0.657281,-0.349957 -0.99419,-0.575718 -1.057691,-0.708785 -0.06865,-0.143845 -0.07507,-0.146491 -0.11131,-0.04584 -0.02115,0.05876 -0.03846,0.378907 -0.03846,0.711534 0,0.938392 0.282094,1.796868 0.728844,2.218025 0.637833,0.601304 1.641692,1.04576 2.532043,1.121072 0.351965,0.02974 0.404556,0.02225 0.549143,-0.07835 0.316895,-0.22046 0.461331,-0.726383 0.289907,-1.015468 -0.04315,-0.07281 -0.210166,-0.220285 -0.371156,-0.327817 -0.353328,-0.235995 -0.606919,-0.569073 -0.606919,-0.797121 0,-0.20201 0.09495,-0.370611 0.190511,-0.338298 0.05432,0.01836 0.06083,-0.02348 0.02804,-0.179921 -0.0494,-0.235636 0.01593,-0.599079 0.148915,-0.82846 0.130423,-0.224961 0.299013,-0.428704 0.354741,-0.428704 0.02605,0 0.03428,0.203928 0.01828,0.453172 -0.03026,0.471468 0.02369,0.702058 0.176302,0.753661 0.132378,0.04471 0.35916,-0.02389 0.505951,-0.15328 0.115947,-0.102138 0.134227,-0.164272 0.134227,-0.456115 0,-0.445995 0.04335,-0.542944 0.628682,-1.405799 0.542753,-0.800094 0.836041,-1.167875 1.012628,-1.269818 l 0.113773,-0.06563 -0.09813,0.422788 c -0.213074,0.918067 -0.082,1.137828 0.454532,0.76209 0.33988,-0.238025 0.445761,-0.394504 0.445061,-0.657747 -6.96e-4,-0.280993 -0.164205,-0.837033 -0.352691,-1.199768 -0.08055,-0.155002 -0.14627,-0.32876 -0.146058,-0.386126 1.7e-4,-0.05733 0.150349,-0.34201 0.333639,-0.63253 0.492771,-0.781052 0.574746,-1.028327 0.539514,-1.627416 -0.04887,-0.831116 -0.352618,-1.903313 -0.768993,-2.714514 -0.08862,-0.172661 -0.153757,-0.320424 -0.14474,-0.328371 0.05391,-0.04748 1.111828,0.720158 1.655182,1.201039 0.658897,0.583123 0.99744,0.965916 1.347323,1.523401 0.450632,0.718025 0.657105,1.632749 0.547212,2.424291 -0.08312,0.598679 -0.179401,0.750656 -0.590213,0.931634 -0.417266,0.183818 -0.499604,0.349199 -0.451231,0.906345 0.04197,0.483394 0.118942,0.707237 0.306946,0.892625 0.282586,0.278645 0.672708,0.171912 0.950571,-0.260074 0.119,-0.185008 0.139015,-0.277845 0.139015,-0.644805 0,-0.23577 0.0053,-0.428674 0.01166,-0.428674 0.0064,0 0.06272,0.145629 0.125113,0.323613 0.126625,0.361197 0.14286,0.739868 0.05349,1.247391 -0.06676,0.379081 -0.08592,0.326915 0.38731,1.054364 0.310697,0.47761 0.532045,0.698562 0.812095,0.810658 0.430513,0.172312 1.086548,0.08655 1.3912,-0.18186 0.241222,-0.212522 0.331705,-0.473457 0.499846,-1.441475 0.225493,-1.298194 0.318719,-1.510234 0.919154,-2.090567 0.409502,-0.395786 0.637703,-0.7512 0.698928,-1.088544 0.02031,-0.111911 0.0575,-0.214675 0.08262,-0.228355 0.05958,-0.03241 0.305094,0.672463 0.418933,1.202844 0.103857,0.483876 0.08529,1.371886 -0.0328,1.567733 -0.09945,0.164939 -0.160185,0.19433 -0.403449,0.195212 -0.265082,9.64e-4 -0.364547,0.126832 -0.409762,0.518547 -0.04402,0.381327 0.06137,1.192097 0.204638,1.574378 0.197679,0.527449 0.691272,0.780129 0.871973,0.446384 0.0426,-0.07866 0.09361,-0.51141 0.127057,-1.077817 0.03073,-0.520485 0.09163,-1.133747 0.135349,-1.36281 0.09953,-0.521511 0.468684,-1.476382 0.981075,-2.537699 0.568941,-1.178448 0.660161,-1.433897 0.660161,-1.848665 0,-0.292407 -0.02778,-0.400483 -0.164211,-0.638775 -0.09032,-0.157751 -0.155056,-0.294889 -0.143872,-0.304744 0.01118,-0.01025 0.161624,0.132647 0.334309,0.31667 0.568345,0.605632 0.856804,1.280597 0.972762,2.276159 0.07425,0.637443 0.07388,2.364813 -5.08e-4,2.600931 -0.07492,0.237698 -0.23664,0.332145 -0.56872,0.332145 -0.652208,0 -0.883363,0.34403 -1.237889,1.842389 -0.172658,0.729705 -0.167381,1.153365 0.03441,2.762814 0.06334,0.505227 0.126583,1.415879 0.142888,2.057649 0.02736,1.077181 0.01615,1.264845 -0.174381,2.914996 -0.386597,3.348439 -0.327121,4.844818 0.216147,5.438062 l 0.134592,0.146973 0.03775,-0.146973 c 0.387694,-1.509731 0.517802,-1.757099 1.104744,-2.100339 0.167188,-0.09773 0.314069,-0.177768 0.326406,-0.177768 0.01234,0 -0.02381,0.159832 -0.08032,0.355187 -0.25323,0.875335 -0.264055,1.934498 -0.03893,3.809097 0.141874,1.181371 0.166436,2.542099 0.05571,3.086468 -0.29474,1.449054 -1.220374,2.767942 -2.718667,3.873693 -1.381674,1.019693 -2.368345,1.489663 -4.293211,2.044953 -2.030831,0.585861 -4.035367,0.962953 -9.313986,1.752188 -4.559287,0.681671 -5.401077,0.85665 -6.811724,1.41593 -1.793484,0.711062 -3.729059,1.947562 -4.917337,3.141321 -0.212,0.212983 -0.414307,0.415876 -0.449568,0.450886 -0.05127,0.05086 -0.146697,0.0072 -0.476433,-0.217301 z m 2.340169,-10.404236 c 0.34035,-0.105543 0.476609,-0.114116 2.335447,-0.146952 2.142087,-0.03784 2.329526,-0.0563 3.781199,-0.372549 2.467933,-0.537642 4.687377,-1.440911 5.875596,-2.39125 0.394196,-0.315275 1.248263,-1.195307 1.715586,-1.767733 0.400897,-0.491065 0.824113,-1.252099 0.980812,-1.763693 0.172073,-0.561793 0.172479,-1.787464 8.64e-4,-2.523066 -0.140835,-0.603601 -0.458069,-1.617654 -0.505102,-1.614598 -0.01797,0.001 -0.157786,0.159207 -0.310703,0.351199 -1.250352,1.569886 -3.815564,3.076038 -7.28437,4.276996 -1.543991,0.534545 -2.707423,0.827198 -3.987625,1.003038 -2.237859,0.30738 -3.240446,0.840735 -3.915952,2.083225 -0.445044,0.818594 -0.63291,2.067144 -0.431209,2.865814 0.05869,0.232395 0.105113,0.603868 0.105113,0.841145 v 0.424941 l 0.639467,-0.577216 c 0.580671,-0.524146 0.672702,-0.587522 1.000907,-0.689301 z M 28.34152,29.451214 c 0.07174,-0.168406 0.240945,-0.4772 0.376014,-0.686205 0.32486,-0.502683 0.461864,-0.819281 0.502399,-1.160963 0.04896,-0.412769 -0.04063,-0.589286 -0.51709,-1.018708 -0.227817,-0.205333 -0.492303,-0.479507 -0.587745,-0.609282 -0.09545,-0.129776 -0.193866,-0.235955 -0.218715,-0.235955 -0.07267,0 -0.119187,0.235575 -0.08413,0.425957 0.02755,0.149587 0.136151,0.322895 0.395319,0.630858 0.03729,0.0443 -0.01693,0.129089 -0.185675,0.290387 -0.131087,0.125305 -0.287036,0.324803 -0.346553,0.443349 -0.234784,0.467632 -0.184469,1.255 0.10827,1.694278 0.237518,0.356418 0.369169,0.531838 0.399377,0.532176 0.01545,1.44e-4 0.08678,-0.137477 0.15852,-0.305892 z m 20.339345,-2.029797 c 0.19408,-0.349496 0.161803,-0.541149 -0.161112,-0.956717 -0.137766,-0.177297 -0.29398,-0.440416 -0.34714,-0.584712 -0.05316,-0.144296 -0.113327,-0.278655 -0.133702,-0.29857 -0.04939,-0.0483 -0.338526,0.875047 -0.338526,1.081037 0,0.217146 0.07797,0.333365 0.406168,0.605396 0.257767,0.21366 0.274558,0.241902 0.243629,0.409815 -0.03252,0.176588 -0.03094,0.178537 0.07576,0.09342 0.05994,-0.04779 0.174655,-0.205158 0.25492,-0.349701 z M 13.949806,33.330803 C 13.660473,33.195521 13.297644,33.001037 13.14352,32.898622 12.989396,32.796176 12.707832,32.6181 12.517823,32.502866 c -0.700104,-0.424623 -0.691076,-0.628274 0.0621,-1.400732 0.507918,-0.520927 0.558729,-0.643882 0.677175,-1.638666 0.109765,-0.921871 0.255893,-1.538875 0.554317,-2.340529 0.573597,-1.540834 1.506087,-2.691645 2.562212,-3.162098 l 0.285188,-0.127037 -0.270435,0.476964 c -0.525014,0.925953 -0.652392,1.716357 -0.412378,2.558896 0.03349,0.117552 0.02558,0.122023 -0.184256,0.104395 -0.470092,-0.03948 -0.698901,0.264534 -0.693636,0.921676 0.0091,1.130158 0.684666,1.684967 1.397352,1.147489 l 0.2305,-0.17382 0.147221,0.129703 c 0.135449,0.119336 0.144967,0.153875 0.119004,0.431761 -0.05742,0.614533 -0.606132,1.733072 -1.397922,2.849611 -0.430294,0.606781 -0.968652,1.255052 -1.064072,1.281325 -0.02988,0.0082 -0.291051,-0.09568 -0.580384,-0.231001 z m 36.025831,-4.361291 c -0.09921,-0.08747 -0.110548,-0.138287 -0.07915,-0.355188 0.0586,-0.404759 0.119618,-0.560069 0.298062,-0.758572 0.260705,-0.290008 0.261798,-0.366171 0.01576,-1.100368 -0.452314,-1.349807 -0.439003,-2.196048 0.03893,-2.475637 0.123764,-0.0724 0.123991,-0.07199 0.08046,0.142717 -0.02401,0.118434 -0.04265,0.424767 -0.04142,0.680749 0.0027,0.573575 0.130502,0.850384 0.609365,1.320324 0.468024,0.459305 0.550517,0.652342 0.512913,1.20027 -0.04881,0.711185 -0.327082,1.227128 -0.744784,1.3809 -0.269289,0.09916 -0.554167,0.0846 -0.690143,-0.03517 z m 1.26015,-4.899415 c -0.07946,-0.08317 -0.210343,-0.250301 -0.290855,-0.371339 -0.08051,-0.121038 -0.1616,-0.198637 -0.180203,-0.172436 -0.01861,0.02625 -0.267292,0.126997 -0.552641,0.223987 -0.408544,0.138871 -0.542072,0.16538 -0.628229,0.124761 -0.422614,-0.199273 -0.185479,-1.396938 0.399753,-2.018968 0.373154,-0.396617 0.82468,-0.473323 1.365023,-0.231903 0.180166,0.0805 0.333127,0.146634 0.339919,0.146973 0.0068,3.28e-4 0.05624,-0.126145 0.109875,-0.281086 0.155746,-0.449861 0.100361,-2.064899 -0.118866,-3.466144 -0.03405,-0.217619 0.379051,0.556552 0.548982,1.028819 0.438006,1.217304 0.474591,2.381046 0.114211,3.632724 -0.07629,0.264955 -0.222602,0.637391 -0.325147,0.827629 -0.176706,0.327838 -0.494924,0.708252 -0.592448,0.708252 -0.0247,0 -0.109915,-0.06809 -0.189374,-0.151269 z m -6.732349,-4.259061 c 0.129297,-0.35892 0.248308,-1.064044 0.247883,-1.46865 -5.09e-4,-0.496869 -0.0922,-0.769187 -0.318644,-0.946544 -0.177164,-0.138769 -0.715355,-0.244087 -1.07893,-0.211158 -0.250869,0.02277 -0.338259,0.01128 -0.428128,-0.05599 -0.179902,-0.134728 -0.21748,-0.374333 -0.12544,-0.799807 0.07427,-0.343344 0.07296,-0.418296 -0.01411,-0.811355 -0.173428,-0.782785 -1.047523,-2.535146 -1.624152,-3.256053 -0.359077,-0.448927 -0.358195,-0.449347 0.345194,-0.165831 0.624726,0.251818 0.992579,0.503934 1.843664,1.263625 0.835196,0.745498 1.131653,0.930188 1.742369,1.085467 0.271866,0.06912 0.323934,0.102815 0.404221,0.26155 0.15263,0.30177 0.255929,0.876883 0.292314,1.627457 0.08579,1.769877 -0.370985,3.149064 -1.16236,3.509615 -0.157075,0.07158 -0.160931,0.07055 -0.123875,-0.0323 z M 24.792914,17.963582 c 0.757696,-0.914057 0.996725,-1.298266 1.147709,-1.844799 0.07792,-0.28205 0.08257,-0.382178 0.0283,-0.610123 -0.0867,-0.364181 -0.258409,-0.538073 -0.984711,-0.997214 -0.759665,-0.480236 -0.947022,-0.640037 -1.062354,-0.90611 -0.131507,-0.30338 -0.07201,-0.64019 0.197418,-1.117442 0.215335,-0.381439 0.859147,-1.170625 1.35888,-1.665716 l 0.247255,-0.244956 -0.137295,0.440923 c -0.184684,0.593111 -0.229549,1.349583 -0.10718,1.807135 0.177661,0.664289 0.718595,1.335819 1.447594,1.797072 0.333579,0.211066 0.442129,0.422654 0.404484,0.788435 -0.09399,0.913319 -1.446334,2.336243 -2.48449,2.61418 -0.128832,0.03446 -0.132094,0.03087 -0.0556,-0.06143 z"
         id="path104" />
      <path
         id="lpe_path-effect106"
         style="fill:#000000;stroke-width:0.052194"
         class="powerclip"
         d="M -1.9983251,-2.2882962 H 66.205437 V 66.558849 H -1.9983251 Z m 23.9484611,55.1875432 -4e-5,1.57e-4 c 0.329736,0.224501 0.425163,0.268161 0.476433,0.217301 0.03526,-0.03501 0.237568,-0.237903 0.449568,-0.450886 1.188278,-1.193759 3.123853,-2.430259 4.917337,-3.141321 1.410647,-0.55928 2.252437,-0.734259 6.811724,-1.41593 5.278619,-0.789235 7.283155,-1.166327 9.313986,-1.752188 1.924866,-0.55529 2.911537,-1.02526 4.293211,-2.044953 1.498293,-1.105751 2.423927,-2.424639 2.718667,-3.873693 0.110726,-0.544369 0.08616,-1.905097 -0.05571,-3.086468 -0.225125,-1.874599 -0.2143,-2.933762 0.03893,-3.809097 0.05651,-0.195355 0.09266,-0.355187 0.08032,-0.355187 -0.01234,0 -0.159218,0.08004 -0.326406,0.177768 -0.586942,0.34324 -0.71705,0.590608 -1.104744,2.100339 l -0.03775,0.146973 -0.134592,-0.146973 c -0.543268,-0.593244 -0.602744,-2.089623 -0.216147,-5.438062 0.190531,-1.650151 0.201741,-1.837815 0.174381,-2.914996 -0.0163,-0.64177 -0.07955,-1.552422 -0.142888,-2.057649 -0.201791,-1.609449 -0.207068,-2.033109 -0.03441,-2.762814 0.354526,-1.498359 0.585681,-1.842389 1.237889,-1.842389 0.33208,0 0.4938,-0.09445 0.56872,-0.332145 0.07439,-0.236118 0.07476,-1.963488 5.08e-4,-2.600931 -0.115958,-0.995562 -0.404417,-1.670527 -0.972762,-2.276159 -0.172685,-0.184023 -0.323129,-0.32692 -0.334309,-0.31667 -0.01118,0.0099 0.05355,0.146993 0.143872,0.304744 0.136431,0.238292 0.164211,0.346368 0.164211,0.638775 0,0.414768 -0.09122,0.670217 -0.660161,1.848665 -0.512391,1.061317 -0.881545,2.016188 -0.981075,2.537699 -0.04372,0.229063 -0.104619,0.842325 -0.135349,1.36281 -0.03345,0.566407 -0.08446,0.999157 -0.127057,1.077817 -0.180701,0.333745 -0.674294,0.08106 -0.871973,-0.446384 -0.143268,-0.382281 -0.248658,-1.193051 -0.204638,-1.574378 0.04521,-0.391715 0.14468,-0.517583 0.409762,-0.518547 0.243264,-8.82e-4 0.303999,-0.03027 0.403449,-0.195212 0.11809,-0.195847 0.136657,-1.083857 0.0328,-1.567733 -0.113839,-0.530381 -0.359353,-1.235254 -0.418933,-1.202844 -0.02512,0.01368 -0.06231,0.116444 -0.08262,0.228355 -0.06123,0.337344 -0.289426,0.692758 -0.698928,1.088544 -0.600435,0.580333 -0.693661,0.792373 -0.919154,2.090567 -0.168141,0.968018 -0.258624,1.228953 -0.499846,1.441475 -0.304652,0.26841 -0.960687,0.354172 -1.3912,0.18186 -0.28005,-0.112096 -0.501398,-0.333048 -0.812095,-0.810658 -0.47323,-0.727449 -0.45407,-0.675283 -0.38731,-1.054364 0.08937,-0.507523 0.07314,-0.886194 -0.05349,-1.247391 -0.06239,-0.177984 -0.118713,-0.323613 -0.125113,-0.323613 -0.0064,0 -0.01166,0.192904 -0.01166,0.428674 0,0.36696 -0.02002,0.459797 -0.139015,0.644805 -0.277863,0.431986 -0.667985,0.538719 -0.950571,0.260074 -0.188004,-0.185388 -0.264976,-0.409231 -0.306946,-0.892625 -0.04837,-0.557146 0.03397,-0.722527 0.451231,-0.906345 0.410812,-0.180978 0.507093,-0.332955 0.590213,-0.931634 0.109893,-0.791542 -0.09658,-1.706266 -0.547212,-2.424291 -0.349883,-0.557485 -0.688426,-0.940278 -1.347323,-1.523401 -0.543354,-0.480881 -1.601272,-1.248519 -1.655182,-1.201039 -0.009,0.0079 0.05612,0.15571 0.14474,0.328371 0.416375,0.811201 0.720123,1.883398 0.768993,2.714514 0.03523,0.599089 -0.04674,0.846364 -0.539514,1.627416 -0.18329,0.29052 -0.333469,0.5752 -0.333639,0.63253 -2.12e-4,0.05737 0.06551,0.231124 0.146058,0.386126 0.188486,0.362735 0.351995,0.918775 0.352691,1.199768 7e-4,0.263243 -0.105181,0.419722 -0.445061,0.657747 -0.536532,0.375738 -0.667606,0.155977 -0.454532,-0.76209 l 0.09813,-0.422788 -0.113773,0.06563 c -0.176587,0.101943 -0.469875,0.469724 -1.012628,1.269818 -0.585332,0.862855 -0.628682,0.959804 -0.628682,1.405799 0,0.291843 -0.01828,0.353977 -0.134227,0.456115 -0.146791,0.12939 -0.373573,0.19799 -0.505951,0.15328 -0.152612,-0.0516 -0.206562,-0.282193 -0.176302,-0.753661 0.016,-0.249244 0.0078,-0.453172 -0.01828,-0.453172 -0.05573,0 -0.224318,0.203743 -0.354741,0.428704 -0.132985,0.229381 -0.198315,0.592824 -0.148915,0.82846 0.03279,0.156441 0.02628,0.198281 -0.02804,0.179921 -0.09556,-0.03231 -0.190511,0.136288 -0.190511,0.338298 0,0.228048 0.253591,0.561126 0.606919,0.797121 0.16099,0.107532 0.328006,0.255007 0.371156,0.327817 0.171424,0.289085 0.02699,0.795008 -0.289907,1.015468 -0.144587,0.1006 -0.197178,0.10809 -0.549143,0.07835 -0.890351,-0.07531 -1.89421,-0.519768 -2.532043,-1.121072 -0.44675,-0.421157 -0.728844,-1.279633 -0.728844,-2.218025 0,-0.332627 0.01731,-0.652774 0.03846,-0.711534 0.03624,-0.100651 0.04266,-0.09801 0.11131,0.04584 0.0635,0.133067 0.40041,0.358828 1.057691,0.708785 0.03279,0.01745 -0.0018,-0.07753 -0.07678,-0.211065 -0.124631,-0.221885 -0.140241,-0.326126 -0.181171,-1.210044 -0.04494,-0.97053 -0.02218,-1.298901 0.141185,-2.037108 0.04674,-0.211199 0.0848,-0.608021 0.08444,-0.881846 l -5.26e-4,-0.497854 -0.142325,0.269457 c -0.417988,0.791348 -1.22094,1.312161 -1.493811,0.968931 -0.114195,-0.14365 -0.122053,-1.093199 -0.01098,-1.32741 0.04157,-0.08765 0.201297,-0.24384 0.354955,-0.347076 0.366168,-0.246035 0.658812,-0.589819 0.745692,-0.875981 0.245851,-0.809867 -0.7132,-2.479821 -2.396675,-4.173226 -0.258373,-0.259897 -0.652822,-0.616883 -0.876552,-0.793302 l -0.406783,-0.320762 0.218924,0.360191 c 0.275862,0.453868 0.368983,0.741536 0.50636,1.564242 0.139023,0.832418 0.138853,1.284176 -6.95e-4,1.917424 -0.06107,0.277148 -0.111101,0.638304 -0.111212,0.802587 -1.56e-4,0.277445 0.01425,0.311758 0.202654,0.482676 l 0.202822,0.183992 -0.03394,0.546144 c -0.05411,0.870433 -0.343381,1.671522 -0.672122,1.861299 -0.194734,0.112373 -0.507414,0.10419 -0.644874,-0.01692 -0.168436,-0.148398 -0.145766,-0.306569 0.136928,-0.955333 0.06625,-0.152038 -0.747628,0.922897 -1.107199,1.462344 -0.662898,0.994516 -1.051571,1.82996 -1.334648,2.868829 -0.210778,0.773514 -0.272358,1.423867 -0.227778,2.405165 l 0.03896,0.857358 0.211324,0.295453 c 0.482017,0.673929 0.748553,1.238665 0.833233,1.765529 0.09158,0.569719 -0.103254,0.855963 -0.716763,1.053051 l -0.32215,0.103492 -0.03385,0.253757 c -0.05276,0.395468 -0.237538,0.98017 -0.404971,1.281437 -0.454774,0.818287 -1.411334,0.930168 -1.919533,0.2245 -0.271119,-0.376466 -0.445241,-1.0031 -0.576433,-2.074477 -0.02411,-0.196891 -0.05833,-0.281701 -0.113742,-0.281701 -0.1612,0 -0.508254,-0.33757 -0.580374,-0.56451 -0.198926,-0.625977 0.180749,-1.526683 0.818521,-1.941789 0.164974,-0.107379 0.326822,-0.247191 0.359652,-0.310671 0.08272,-0.159956 -0.125857,-1.751972 -0.315732,-2.409883 -0.278871,-0.966275 -0.734472,-1.803133 -1.24182,-2.28101 -0.135933,-0.128042 -0.265824,-0.232796 -0.288644,-0.232796 -0.02283,0 -0.0044,0.0937 0.04103,0.208215 0.06804,0.171656 0.07592,0.393161 0.04487,1.261533 l -0.03766,1.053318 0.212758,0.09793 c 0.308107,0.141897 0.417542,0.371708 0.427142,0.896716 0.01024,0.561751 -0.06644,0.725562 -0.373946,0.798782 -0.42802,0.101944 -0.532314,0.152172 -0.752027,0.362182 -0.279711,0.267354 -0.614655,0.886174 -0.923516,1.706224 -0.429805,1.141182 -0.440235,1.214566 -0.444635,3.119417 -0.0037,1.631816 -0.04934,2.191639 -0.230267,2.826753 -0.07613,0.267252 -0.351114,0.07858 -0.62113,-0.426171 -0.17688,-0.330648 -0.423171,-0.578395 -0.699994,-0.70412 l -0.161143,-0.07322 -0.204947,0.351916 c -0.112722,0.19355 -0.700742,1.046365 -1.306711,1.89514 -1.534491,2.149358 -2.154938,3.316228 -2.578929,4.850161 -0.293643,1.062373 -0.366559,1.623611 -0.365983,2.817021 7.06e-4,1.456898 0.189691,2.471443 0.720973,3.870504 1.163191,3.063097 3.986442,6.349155 7.52853,8.762637 z m 2.340169,-10.404236 c 0.34035,-0.105543 0.476609,-0.114116 2.335447,-0.146952 2.142087,-0.03784 2.329526,-0.0563 3.781199,-0.372549 2.467933,-0.537642 4.687377,-1.440911 5.875596,-2.39125 0.394196,-0.315275 1.248263,-1.195307 1.715586,-1.767733 0.400897,-0.491065 0.824113,-1.252099 0.980812,-1.763693 0.172073,-0.561793 0.172479,-1.787464 8.64e-4,-2.523066 -0.140835,-0.603601 -0.458069,-1.617654 -0.505102,-1.614598 -0.01797,0.001 -0.157786,0.159207 -0.310703,0.351199 -1.250352,1.569886 -3.815564,3.076038 -7.28437,4.276996 -1.543991,0.534545 -2.707423,0.827198 -3.987625,1.003038 -2.237859,0.30738 -3.240446,0.840735 -3.915952,2.083225 -0.445044,0.818594 -0.63291,2.067144 -0.431209,2.865814 0.05869,0.232395 0.105113,0.603868 0.105113,0.841145 v 0.424941 l 0.639467,-0.577216 c 0.580671,-0.524146 0.672702,-0.587522 1.000907,-0.689301 z M 28.34152,29.451214 c 0.07174,-0.168406 0.240945,-0.4772 0.376014,-0.686205 0.32486,-0.502683 0.461864,-0.819281 0.502399,-1.160963 0.04896,-0.412769 -0.04063,-0.589286 -0.51709,-1.018708 -0.227817,-0.205333 -0.492303,-0.479507 -0.587745,-0.609282 -0.09545,-0.129776 -0.193866,-0.235955 -0.218715,-0.235955 -0.07267,0 -0.119187,0.235575 -0.08413,0.425957 0.02755,0.149587 0.136151,0.322895 0.395319,0.630858 0.03729,0.0443 -0.01693,0.129089 -0.185675,0.290387 -0.131087,0.125305 -0.287036,0.324803 -0.346553,0.443349 -0.234784,0.467632 -0.184469,1.255 0.10827,1.694278 0.237518,0.356418 0.369169,0.531838 0.399377,0.532176 0.01545,1.44e-4 0.08678,-0.137477 0.15852,-0.305892 z m 20.339345,-2.029797 c 0.19408,-0.349496 0.161803,-0.541149 -0.161112,-0.956717 -0.137766,-0.177297 -0.29398,-0.440416 -0.34714,-0.584712 -0.05316,-0.144296 -0.113327,-0.278655 -0.133702,-0.29857 -0.04939,-0.0483 -0.338526,0.875047 -0.338526,1.081037 0,0.217146 0.07797,0.333365 0.406168,0.605396 0.257767,0.21366 0.274558,0.241902 0.243629,0.409815 -0.03252,0.176588 -0.03094,0.178537 0.07576,0.09342 0.05994,-0.04779 0.174655,-0.205158 0.25492,-0.349701 z m -34.731059,5.909386 h 3e-6 c 0.289333,0.135321 0.550504,0.239201 0.580384,0.231001 0.09542,-0.02627 0.633778,-0.674544 1.064072,-1.281325 0.79179,-1.116539 1.340502,-2.235078 1.397922,-2.849611 0.02596,-0.277886 0.01644,-0.312425 -0.119004,-0.431761 l -0.147221,-0.129703 -0.2305,0.17382 c -0.712686,0.537478 -1.388252,-0.01733 -1.397352,-1.147489 -0.0053,-0.657142 0.223544,-0.961156 0.693636,-0.921676 0.209836,0.01763 0.217746,0.01316 0.184256,-0.104395 -0.240014,-0.842539 -0.112636,-1.632943 0.412378,-2.558896 l 0.270435,-0.476964 -0.285188,0.127037 c -1.056125,0.470453 -1.988615,1.621264 -2.562212,3.162098 -0.298424,0.801654 -0.444552,1.418658 -0.554317,2.340529 -0.118446,0.994784 -0.169257,1.117739 -0.677175,1.638666 -0.753176,0.772458 -0.762204,0.976109 -0.0621,1.400732 0.190009,0.115234 0.471573,0.29331 0.625697,0.395756 0.154124,0.102415 0.516953,0.296899 0.806286,0.432181 z m 36.025831,-4.361291 -7e-6,2.5e-5 c 0.135976,0.11977 0.420854,0.13433 0.690143,0.03517 0.417702,-0.153772 0.695974,-0.669715 0.744784,-1.3809 0.0376,-0.547928 -0.04489,-0.740965 -0.512913,-1.20027 -0.478863,-0.46994 -0.606665,-0.746749 -0.609365,-1.320324 -0.0012,-0.255982 0.01741,-0.562315 0.04142,-0.680749 0.04353,-0.214707 0.0433,-0.215117 -0.08046,-0.142717 -0.477933,0.279589 -0.491244,1.12583 -0.03893,2.475637 0.246038,0.734197 0.244945,0.81036 -0.01576,1.100368 -0.178444,0.198503 -0.239462,0.353813 -0.298062,0.758572 -0.0314,0.216901 -0.02006,0.267718 0.07915,0.355188 z m 1.26015,-4.899415 c 0.07946,0.08318 0.164674,0.151269 0.189374,0.151269 0.09752,0 0.415742,-0.380414 0.592448,-0.708252 0.102545,-0.190238 0.248857,-0.562674 0.325147,-0.827629 0.36038,-1.251678 0.323795,-2.41542 -0.114211,-3.632724 -0.169931,-0.472267 -0.583032,-1.246438 -0.548982,-1.028819 0.219227,1.401245 0.274612,3.016283 0.118866,3.466144 -0.05363,0.154941 -0.103075,0.281414 -0.109875,0.281086 -0.0068,-3.39e-4 -0.159753,-0.06647 -0.339919,-0.146973 -0.540343,-0.24142 -0.991869,-0.164714 -1.365023,0.231903 -0.585232,0.62203 -0.822367,1.819695 -0.399753,2.018968 0.08616,0.04062 0.219685,0.01411 0.628229,-0.124761 0.285349,-0.09699 0.534031,-0.197737 0.552641,-0.223987 0.0186,-0.0262 0.09969,0.0514 0.180203,0.172436 0.08051,0.121038 0.211395,0.288169 0.290855,0.371339 z m -6.732349,-4.259061 6e-6,2.6e-5 c -0.03706,0.10285 -0.0332,0.10388 0.123875,0.0323 0.791375,-0.360551 1.24815,-1.739738 1.16236,-3.509615 -0.03639,-0.750574 -0.139684,-1.325687 -0.292314,-1.627457 -0.08029,-0.158735 -0.132355,-0.19243 -0.404221,-0.26155 -0.610716,-0.155279 -0.907173,-0.339969 -1.742369,-1.085467 -0.851085,-0.759691 -1.218938,-1.011807 -1.843664,-1.263625 -0.703389,-0.283516 -0.704271,-0.283096 -0.345194,0.165831 0.576629,0.720907 1.450724,2.473268 1.624152,3.256053 0.08707,0.393059 0.08838,0.468011 0.01411,0.811355 -0.09204,0.425474 -0.05446,0.665079 0.12544,0.799807 0.08987,0.06727 0.177259,0.07876 0.428128,0.05599 0.363575,-0.03293 0.901766,0.07239 1.07893,0.211158 0.226444,0.177357 0.318135,0.449675 0.318644,0.946544 4.25e-4,0.404606 -0.118586,1.10973 -0.247883,1.46865 z m -19.710524,-1.847454 10e-6,-4.5e-5 c -0.07649,0.0923 -0.07323,0.09589 0.0556,0.06143 1.038156,-0.277937 2.3905,-1.700861 2.48449,-2.61418 0.03765,-0.365781 -0.0709,-0.577369 -0.404484,-0.788435 -0.728999,-0.461253 -1.269933,-1.132783 -1.447594,-1.797072 -0.122369,-0.457552 -0.0775,-1.214024 0.10718,-1.807135 l 0.137295,-0.440923 -0.247255,0.244956 c -0.499733,0.495091 -1.143545,1.284277 -1.35888,1.665716 -0.269428,0.477252 -0.328925,0.814062 -0.197418,1.117442 0.115332,0.266073 0.302689,0.425874 1.062354,0.90611 0.726302,0.459141 0.898011,0.633033 0.984711,0.997214 0.05427,0.227945 0.04962,0.328073 -0.0283,0.610123 -0.150984,0.546533 -0.390013,0.930742 -1.147709,1.844799 z" />
    </clipPath>
  </defs>
  <sodipodi:namedview
     pagecolor="#ffffff"
     bordercolor="#666666"
     borderopacity="1"
     objecttolerance="10"
     gridtolerance="10"
     guidetolerance="10"
     inkscape:pageopacity="0"
     inkscape:pageshadow="2"
     inkscape:window-width="1355"
     inkscape:window-height="912"
     id="namedview24"
     showgrid="false"
     inkscape:zoom="9.1150483"
     inkscape:cx="40.043671"
     inkscape:cy="21.886883"
     inkscape:window-x="275"
     inkscape:window-y="84"
     inkscape:window-maximized="0"
     inkscape:current-layer="svg22"
     inkscape:pagecheckerboard="0" />
  <path
     style="fill:#29292a;stroke-width:1.04509"
     width="58.203762"
     height="58.847145"
     x="3.0016749"
     y="2.7117038"
     rx="29.1024"
     ry="29.424097"
     id="rect4"
     clip-path="url(#clipPath102)"
     inkscape:path-effect="#path-effect106"
     d="m 32.103556,2.7117038 c 16.122442,0 29.101881,13.1229132 29.101881,29.4235722 0,16.30066 -12.979439,29.423573 -29.101881,29.423573 -16.122442,0 -29.1018811,-13.122913 -29.1018811,-29.423573 0,-16.300659 12.9794391,-29.4235722 29.1018811,-29.4235722 z"
     sodipodi:type="rect" />
  <g
     aria-label="BG"
     transform="scale(0.97514702,1.0254864)"
     id="text6568"
     style="font-size:34.1545px;line-height:1.25;font-family:'padmaa-Bold.1.1';-inkscape-font-specification:'padmaa-Bold.1.1';opacity:0.85;fill:#ffffff;stroke-width:0.85386">
    <text
       xml:space="preserve"
       style="font-size:40px;line-height:1.25;font-family:Ancient;-inkscape-font-specification:Ancient;fill:#ffffff"
       x="5.9679508"
       y="40.362118"
       id="text3216"
       transform="scale(1.0254864,0.97514701)"><tspan
         sodipodi:role="line"
         id="tspan3214"
         x="5.9679508"
         y="40.362118"
         style="fill:#ffffff" /></text>
  </g>
</svg>
