<?xml version="1.0" encoding="UTF-8" standalone="no"?>
<svg
   width="64"
   height="64"
   version="1"
   id="svg22"
   sodipodi:docname="steam_icon_493900.svg"
   inkscape:version="1.1 (1:1.1+202105261517+ce6663b3b7)"
   xmlns:inkscape="http://www.inkscape.org/namespaces/inkscape"
   xmlns:sodipodi="http://sodipodi.sourceforge.net/DTD/sodipodi-0.dtd"
   xmlns="http://www.w3.org/2000/svg"
   xmlns:svg="http://www.w3.org/2000/svg"
   xmlns:rdf="http://www.w3.org/1999/02/22-rdf-syntax-ns#"
   xmlns:cc="http://creativecommons.org/ns#"
   xmlns:dc="http://purl.org/dc/elements/1.1/">
  <metadata
     id="metadata28">
    <rdf:RDF>
      <cc:Work
         rdf:about="">
        <dc:format>image/svg+xml</dc:format>
        <dc:type
           rdf:resource="http://purl.org/dc/dcmitype/StillImage" />
      </cc:Work>
    </rdf:RDF>
  </metadata>
  <defs
     id="defs26">
    <inkscape:path-effect
       effect="powerclip"
       id="path-effect106"
       is_visible="true"
       lpeversion="1"
       inverse="true"
       flatten="false"
       hide_clip="false"
       message="Use fill-rule evenodd on &lt;b&gt;fill and stroke&lt;/b&gt; dialog if no flatten result after convert clip to paths." />
    <clipPath
       clipPathUnits="userSpaceOnUse"
       id="clipPath102">
      <path
         style="display:none;fill:#000000;stroke-width:0.515038"
         d="m 11.753532,47.241469 v -2.657427 h 3.696644 3.696643 v 2.657427 2.657429 h -3.696643 -3.696644 z m 33.269791,0 v -2.657427 h 3.696644 3.696643 v 2.657427 2.657429 H 48.719967 45.023323 Z M 22.843463,37.47404 c 0,-7.69492 0.163463,-9.188739 1.22341,-11.180185 0.672875,-1.264212 1.50462,-2.465152 1.848321,-2.668756 0.414342,-0.245449 0.624912,3.521828 0.624912,11.180186 V 46.35566 h -1.848322 -1.848321 z m 7.393286,-3.519713 V 21.552995 h 1.848322 1.848321 V 33.954327 46.35566 h -1.848321 -1.848322 z m 7.393287,0.850958 c 0,-7.658358 0.210569,-11.425635 0.624911,-11.180186 0.343702,0.203604 1.175447,1.404544 1.848322,2.668756 1.059947,1.991446 1.22341,3.485265 1.22341,11.180185 v 8.88162 h -1.848321 -1.848322 z m -25.876504,2.692281 v -3.543239 h 3.696644 3.696643 v 3.543239 3.543238 h -3.696643 -3.696644 z m 33.269791,0 v -3.543239 h 3.696644 3.696643 v 3.543239 3.543238 H 48.719967 45.023323 Z M 11.753532,29.337195 c 0,-1.024093 1.76285,-7.273477 2.167968,-7.685548 0.106316,-0.108141 1.533441,0.689088 3.171391,1.771619 l 2.978089,1.968238 -0.58041,2.509793 -0.580412,2.509793 h -3.578312 c -3.048527,0 -3.578314,-0.158995 -3.578314,-1.073895 z M 44.819,28.251957 c -0.451263,-2.665406 -0.412767,-2.724162 2.973197,-4.538079 l 2.757243,-1.477103 0.933585,3.013263 c 1.550667,5.004972 1.469545,5.161052 -2.682446,5.161052 h -3.61603 z m -4.429158,-7.208563 -1.860307,-1.593206 1.133846,-2.927056 c 0.623615,-1.60988 1.244319,-3.032946 1.379344,-3.162367 0.659803,-0.632423 7.06165,4.352364 7.060508,5.497652 -3.45e-4,0.345229 -1.317429,1.33655 -2.926856,2.202936 L 42.250148,22.6366 Z M 18.968648,20.280031 16.017993,18.43042 17.417869,17.002156 c 1.512336,-1.543003 5.350952,-3.9869 5.71174,-3.636442 0.121733,0.118249 0.747275,1.543711 1.390092,3.167695 l 1.16876,2.952698 -1.673971,1.328714 c -0.920683,0.730793 -1.768743,1.325587 -1.884579,1.321767 -0.115834,-0.0038 -1.538404,-0.839271 -3.161263,-1.856557 z m 8.909445,-5.370606 -1.212557,-3.100333 1.323526,-0.38404 c 1.705433,-0.494855 6.486585,-0.494855 8.192018,0 l 1.323527,0.38404 -1.212558,3.100333 -1.212557,3.100332 h -2.994421 -2.994422 z"
         id="path104" />
      <path
         id="lpe_path-effect106"
         style="fill:#000000;stroke-width:0.515038"
         class="powerclip"
         d="M -1.9983251,-2.2882962 H 66.205437 V 66.558849 H -1.9983251 Z M 11.753532,47.241469 v 2.657429 h 3.696644 3.696643 v -2.657429 -2.657427 h -3.696643 -3.696644 z m 33.269791,0 v 2.657429 h 3.696644 3.696643 V 47.241469 44.584042 H 48.719967 45.023323 Z M 22.843463,37.47404 v 8.88162 h 1.848321 1.848322 V 34.805285 c 0,-7.658358 -0.21057,-11.425635 -0.624912,-11.180186 -0.343701,0.203604 -1.175446,1.404544 -1.848321,2.668756 -1.059947,1.991446 -1.22341,3.485265 -1.22341,11.180185 z m 7.393286,-3.519713 V 46.35566 h 1.848322 1.848321 V 33.954327 21.552995 h -1.848321 -1.848322 z m 7.393287,0.850958 V 46.35566 h 1.848322 1.848321 v -8.88162 c 0,-7.69492 -0.163463,-9.188739 -1.22341,-11.180185 -0.672875,-1.264212 -1.50462,-2.465152 -1.848322,-2.668756 -0.414342,-0.245449 -0.624911,3.521828 -0.624911,11.180186 z m -25.876504,2.692281 v 3.543238 h 3.696644 3.696643 v -3.543238 -3.543239 h -3.696643 -3.696644 z m 33.269791,0 v 3.543238 h 3.696644 3.696643 V 37.497566 33.954327 H 48.719967 45.023323 Z M 11.753532,29.337195 c 0,0.9149 0.529787,1.073895 3.578314,1.073895 h 3.578312 l 0.580412,-2.509793 0.58041,-2.509793 -2.978089,-1.968238 c -1.63795,-1.082531 -3.065075,-1.87976 -3.171391,-1.771619 -0.405118,0.412071 -2.167968,6.661455 -2.167968,7.685548 z M 44.819,28.251957 45.184549,30.41109 h 3.61603 c 4.151991,0 4.233113,-0.15608 2.682446,-5.161052 l -0.933585,-3.013263 -2.757243,1.477103 c -3.385964,1.813917 -3.42446,1.872673 -2.973197,4.538079 z m -4.429158,-7.208563 1.860306,1.593206 2.926229,-1.575247 c 1.609427,-0.866386 2.926511,-1.857707 2.926856,-2.202936 0.0011,-1.145288 -6.400705,-6.130075 -7.060508,-5.497652 -0.135025,0.129421 -0.755729,1.552487 -1.379344,3.162367 l -1.133846,2.927056 z M 18.968648,20.280031 c 1.622859,1.017286 3.045429,1.852757 3.161263,1.856557 0.115836,0.0038 0.963896,-0.590974 1.884579,-1.321767 l 1.673971,-1.328714 -1.16876,-2.952698 c -0.642817,-1.623984 -1.268359,-3.049446 -1.390092,-3.167695 -0.360788,-0.350458 -4.199404,2.093439 -5.71174,3.636442 l -1.399876,1.428264 z m 8.909445,-5.370606 1.212556,3.100332 h 2.994422 2.994421 l 1.212557,-3.100332 1.212558,-3.100333 -1.323527,-0.38404 c -1.705433,-0.494855 -6.486585,-0.494855 -8.192018,0 l -1.323526,0.38404 z" />
    </clipPath>
  </defs>
  <sodipodi:namedview
     pagecolor="#ffffff"
     bordercolor="#666666"
     borderopacity="1"
     objecttolerance="10"
     gridtolerance="10"
     guidetolerance="10"
     inkscape:pageopacity="0"
     inkscape:pageshadow="2"
     inkscape:window-width="1355"
     inkscape:window-height="912"
     id="namedview24"
     showgrid="false"
     inkscape:zoom="6.4453125"
     inkscape:cx="39.873939"
     inkscape:cy="13.110303"
     inkscape:window-x="275"
     inkscape:window-y="84"
     inkscape:window-maximized="0"
     inkscape:current-layer="svg22"
     inkscape:pagecheckerboard="0" />
  <path
     style="fill:#29292a;stroke-width:1.04509"
     width="58.203762"
     height="58.847145"
     x="3.0016749"
     y="2.7117038"
     rx="29.1024"
     ry="29.424097"
     id="rect4"
     clip-path="url(#clipPath102)"
     inkscape:path-effect="#path-effect106"
     d="m 32.103556,2.7117038 c 16.122442,0 29.101881,13.1229132 29.101881,29.4235722 0,16.30066 -12.979439,29.423573 -29.101881,29.423573 -16.122442,0 -29.1018811,-13.122913 -29.1018811,-29.423573 0,-16.300659 12.9794391,-29.4235722 29.1018811,-29.4235722 z"
     sodipodi:type="rect" />
  <g
     aria-label="BG"
     transform="scale(0.97514702,1.0254864)"
     id="text6568"
     style="font-size:34.1545px;line-height:1.25;font-family:'padmaa-Bold.1.1';-inkscape-font-specification:'padmaa-Bold.1.1';opacity:0.85;fill:#ffffff;stroke-width:0.85386">
    <text
       xml:space="preserve"
       style="font-size:40px;line-height:1.25;font-family:Ancient;-inkscape-font-specification:Ancient;fill:#ffffff"
       x="5.9679508"
       y="40.362118"
       id="text3216"
       transform="scale(1.0254864,0.97514701)"><tspan
         sodipodi:role="line"
         id="tspan3214"
         x="5.9679508"
         y="40.362118"
         style="fill:#ffffff" /></text>
  </g>
</svg>
