<?xml version="1.0" encoding="UTF-8" standalone="no"?>
<svg
   width="64"
   height="64"
   version="1"
   id="svg22"
   sodipodi:docname="steam_icon_576770.svg"
   inkscape:version="1.1 (1:1.1+202105261517+ce6663b3b7)"
   xmlns:inkscape="http://www.inkscape.org/namespaces/inkscape"
   xmlns:sodipodi="http://sodipodi.sourceforge.net/DTD/sodipodi-0.dtd"
   xmlns="http://www.w3.org/2000/svg"
   xmlns:svg="http://www.w3.org/2000/svg"
   xmlns:rdf="http://www.w3.org/1999/02/22-rdf-syntax-ns#"
   xmlns:cc="http://creativecommons.org/ns#"
   xmlns:dc="http://purl.org/dc/elements/1.1/">
  <metadata
     id="metadata28">
    <rdf:RDF>
      <cc:Work
         rdf:about="">
        <dc:format>image/svg+xml</dc:format>
        <dc:type
           rdf:resource="http://purl.org/dc/dcmitype/StillImage" />
      </cc:Work>
    </rdf:RDF>
  </metadata>
  <defs
     id="defs26">
    <inkscape:path-effect
       effect="powerclip"
       id="path-effect235"
       is_visible="true"
       lpeversion="1"
       inverse="true"
       flatten="false"
       hide_clip="false"
       message="Use fill-rule evenodd on &lt;b&gt;fill and stroke&lt;/b&gt; dialog if no flatten result after convert clip to paths." />
    <clipPath
       clipPathUnits="userSpaceOnUse"
       id="clipPath231">
      <path
         id="path233"
         style="display:none;fill:#ffffff;stroke-width:0.108064"
         d="M 32.535156,7.6972649 C 31.607116,7.69693 30.733969,8.0356118 30.076172,8.6503899 29.41893,9.2649955 29.0568,10.083151 29.054688,10.953124 c -0.0021,0.869973 0.357157,1.687001 1.011718,2.302734 0.654469,0.615647 1.525733,0.956438 2.453125,0.957032 0.927947,0.0011 1.801742,-0.336567 2.458985,-0.951172 C 35.636128,12.646766 35.997887,11.82787 36,10.95703 36.001742,10.087403 35.642658,9.2698558 34.988281,8.6542962 34.333443,8.0383026 33.462179,7.6982051 32.535156,7.6972649 Z m -2.044922,8.2128901 c -0.335298,0.0881 -0.398229,0.433659 -0.398437,0.433594 -0.208294,1.059837 -0.463905,2.085861 -0.703125,2.951172 l -4.296875,-0.002 -2.103516,-1.980469 c -0.402849,-0.378953 -1.056801,-0.377919 -1.460937,0 -0.403767,0.377573 -0.404711,0.990275 -0.002,1.369141 l 2.40625,2.261718 c 0.193212,0.181752 0.454438,0.284776 0.728515,0.285157 l 15.771485,0.01367 c 0.273615,2.93e-4 0.536128,-0.09952 0.730468,-0.28125 L 43.5625,18.714843 c 0.403674,-0.377487 0.404341,-0.990622 0.002,-1.369141 -0.402573,-0.378692 -1.055311,-0.37944 -1.458984,-0.002 l -2.09961,1.962891 -4.316406,-0.0059 c -0.245131,-0.834695 -0.505732,-1.811274 -0.726562,-2.820312 0,0 -0.141679,-0.751471 -0.779297,-0.56836 -0.533521,0.153269 -1.092356,0.238731 -1.666016,0.238282 -0.547416,-7.6e-4 -1.081659,-0.07847 -1.591797,-0.220703 -0.180137,-0.05024 -0.323781,-0.0489 -0.435547,-0.01953 z m -1.382812,7.435547 c -0.646846,-5.51e-4 -1.176408,0.494887 -1.177734,1.101563 L 27.875,50.503905 c -0.0012,0.606763 0.334616,1.484496 0.748047,1.951172 l 3.085937,3.484375 c 0.413431,0.466676 1.090958,0.467479 1.50586,0.002 l 3.101562,-3.482422 c 0.414809,-0.465439 0.756486,-1.342542 0.757813,-1.949218 l 0.05469,-26.054688 c 0.0013,-0.606676 -0.526982,-1.102964 -1.173828,-1.103516 l -1.626953,-0.002 c -0.646846,-5.51e-4 -1.1765,0.496753 -1.177734,1.103516 l -0.04492,21.816406 c -9.69e-4,0.321278 -0.279098,0.580986 -0.621094,0.580078 -0.342182,-2.15e-4 -0.620201,-0.261186 -0.619141,-0.582031 l 0.04687,-21.816406 c 0.0012,-0.606763 -0.526982,-1.102965 -1.173828,-1.103516 z m 10.703125,1.326172 c -1.706959,0.03995 -1.335938,3.849609 -1.335938,3.849609 l 0.347657,14.794922 0.517578,4.966797 c 0,0 1.567719,2.07007 1.966797,1.017578 0.39992,-1.056737 0.611328,-6.361328 0.611328,-6.361328 0,0 1.736321,5.487437 2.691406,4.953125 5.155878,-1.718011 3.576172,-4.207031 3.576172,-4.207031 0,0 -3.851847,-4.304162 -3.861328,-4.851563 -0.0038,-0.330733 2.898368,2.119402 4.568359,3.675782 3.892426,-1.063392 4.091797,-5.359375 4.091797,-5.359375 0,0 -2.775464,-0.747343 -7.333984,-4.386719 9.472256,4.544539 10.440914,-4.102208 10.611328,-4.955078 0.411391,-2.712066 -0.03125,-3.125 -0.03125,-3.125 0,0 -14.712111,-0.05591 -16.419922,-0.01172 z m -14.591797,0.0098 c -1.707806,-0.04419 -16.4199221,0.01172 -16.4199221,0.01172 0,0 -0.4426393,0.412933 -0.03125,3.125 0.1704128,0.852871 1.1390737,9.497662 10.6113281,4.953125 -4.558517,3.639376 -7.333984,4.388672 -7.333984,4.388672 0,0 0.197416,4.294029 4.089844,5.357422 1.669991,-1.556383 4.574145,-4.004563 4.570312,-3.673828 -0.0095,0.547399 -3.861328,4.851562 -3.861328,4.851562 0,0 -1.579706,2.489022 3.576172,4.207032 0.955083,0.53431 2.691406,-4.953125 2.691406,-4.953125 0,0 0.211406,5.304591 0.611328,6.361328 0.399075,1.052493 1.966797,-1.017578 1.966797,-1.017578 l 0.517578,-4.966797 0.347657,-14.796875 c 0,0 0.37102,-3.807707 -1.335938,-3.847656 z" />
      <path
         id="lpe_path-effect235"
         style="fill:#ffffff;stroke-width:0.108064"
         class="powerclip"
         d="M -1.9983251,-2.2882962 H 66.205437 V 66.558849 H -1.9983251 Z M 32.535156,7.6972649 C 31.607116,7.69693 30.733969,8.0356118 30.076172,8.6503899 29.41893,9.2649955 29.0568,10.083151 29.054688,10.953124 c -0.0021,0.869973 0.357157,1.687001 1.011718,2.302734 0.654469,0.615647 1.525733,0.956438 2.453125,0.957032 0.927947,0.0011 1.801742,-0.336567 2.458985,-0.951172 C 35.636128,12.646766 35.997887,11.82787 36,10.95703 36.001742,10.087403 35.642658,9.2698558 34.988281,8.6542962 34.333443,8.0383026 33.462179,7.6982051 32.535156,7.6972649 Z m -2.044922,8.2128901 c -0.335298,0.0881 -0.398229,0.433659 -0.398437,0.433594 -0.208294,1.059837 -0.463905,2.085861 -0.703125,2.951172 l -4.296875,-0.002 -2.103516,-1.980469 c -0.402849,-0.378953 -1.056801,-0.377919 -1.460937,0 -0.403767,0.377573 -0.404711,0.990275 -0.002,1.369141 l 2.40625,2.261718 c 0.193212,0.181752 0.454438,0.284776 0.728515,0.285157 l 15.771485,0.01367 c 0.273615,2.93e-4 0.536128,-0.09952 0.730468,-0.28125 L 43.5625,18.714843 c 0.403674,-0.377487 0.404341,-0.990622 0.002,-1.369141 -0.402573,-0.378692 -1.055311,-0.37944 -1.458984,-0.002 l -2.09961,1.962891 -4.316406,-0.0059 c -0.245131,-0.834695 -0.505732,-1.811274 -0.726562,-2.820312 0,0 -0.141679,-0.751471 -0.779297,-0.56836 -0.533521,0.153269 -1.092356,0.238731 -1.666016,0.238282 -0.547416,-7.6e-4 -1.081659,-0.07847 -1.591797,-0.220703 -0.180137,-0.05024 -0.323781,-0.0489 -0.435547,-0.01953 z m -1.382812,7.435547 c -0.646846,-5.51e-4 -1.176408,0.494887 -1.177734,1.101563 L 27.875,50.503905 c -0.0012,0.606763 0.334616,1.484496 0.748047,1.951172 l 3.085937,3.484375 c 0.413431,0.466676 1.090958,0.467479 1.50586,0.002 l 3.101562,-3.482422 c 0.414809,-0.465439 0.756486,-1.342542 0.757813,-1.949218 l 0.05469,-26.054688 c 0.0013,-0.606676 -0.526982,-1.102964 -1.173828,-1.103516 l -1.626953,-0.002 c -0.646846,-5.51e-4 -1.1765,0.496753 -1.177734,1.103516 l -0.04492,21.816406 c -9.69e-4,0.321278 -0.279098,0.580986 -0.621094,0.580078 -0.342182,-2.15e-4 -0.620201,-0.261186 -0.619141,-0.582031 l 0.04687,-21.816406 c 0.0012,-0.606763 -0.526982,-1.102965 -1.173828,-1.103516 z m 10.703125,1.326172 c -1.706959,0.03995 -1.335938,3.849609 -1.335938,3.849609 l 0.347657,14.794922 0.517578,4.966797 c 0,0 1.567719,2.07007 1.966797,1.017578 0.39992,-1.056737 0.611328,-6.361328 0.611328,-6.361328 0,0 1.736321,5.487437 2.691406,4.953125 5.155878,-1.718011 3.576172,-4.207031 3.576172,-4.207031 0,0 -3.851847,-4.304162 -3.861328,-4.851563 -0.0038,-0.330733 2.898368,2.119402 4.568359,3.675782 3.892426,-1.063392 4.091797,-5.359375 4.091797,-5.359375 0,0 -2.775464,-0.747343 -7.333984,-4.386719 9.472256,4.544539 10.440914,-4.102208 10.611328,-4.955078 0.411391,-2.712066 -0.03125,-3.125 -0.03125,-3.125 0,0 -14.712111,-0.05591 -16.419922,-0.01172 z m -14.591797,0.0098 c -1.707806,-0.04419 -16.4199221,0.01172 -16.4199221,0.01172 0,0 -0.4426393,0.412933 -0.03125,3.125 0.1704128,0.852871 1.1390737,9.497662 10.6113281,4.953125 -4.558517,3.639376 -7.333984,4.388672 -7.333984,4.388672 0,0 0.197416,4.294029 4.089844,5.357422 1.669991,-1.556383 4.574145,-4.004563 4.570312,-3.673828 -0.0095,0.547399 -3.861328,4.851562 -3.861328,4.851562 0,0 -1.579706,2.489022 3.576172,4.207032 0.955083,0.53431 2.691406,-4.953125 2.691406,-4.953125 0,0 0.211406,5.304591 0.611328,6.361328 0.399075,1.052493 1.966797,-1.017578 1.966797,-1.017578 l 0.517578,-4.966797 0.347657,-14.796875 c 0,0 0.37102,-3.807707 -1.335938,-3.847656 z" />
    </clipPath>
  </defs>
  <sodipodi:namedview
     pagecolor="#ffffff"
     bordercolor="#666666"
     borderopacity="1"
     objecttolerance="10"
     gridtolerance="10"
     guidetolerance="10"
     inkscape:pageopacity="0"
     inkscape:pageshadow="2"
     inkscape:window-width="1355"
     inkscape:window-height="912"
     id="namedview24"
     showgrid="false"
     inkscape:zoom="12.890625"
     inkscape:cx="19.471515"
     inkscape:cy="31.767273"
     inkscape:window-x="110"
     inkscape:window-y="64"
     inkscape:window-maximized="0"
     inkscape:current-layer="svg22"
     inkscape:pagecheckerboard="0" />
  <path
     style="fill:#29292a;stroke-width:1.04509"
     width="58.203762"
     height="58.847145"
     x="3.0016749"
     y="2.7117038"
     rx="29.1024"
     ry="29.424097"
     id="rect4"
     clip-path="url(#clipPath231)"
     inkscape:path-effect="#path-effect235"
     d="m 32.103556,2.7117038 c 16.122442,0 29.101881,13.1229132 29.101881,29.4235722 0,16.30066 -12.979439,29.423573 -29.101881,29.423573 -16.122442,0 -29.1018811,-13.122913 -29.1018811,-29.423573 0,-16.300659 12.9794391,-29.4235722 29.1018811,-29.4235722 z"
     sodipodi:type="rect" />
  <g
     aria-label="BG"
     transform="scale(0.97514702,1.0254864)"
     id="text6568"
     style="font-size:34.1545px;line-height:1.25;font-family:'padmaa-Bold.1.1';-inkscape-font-specification:'padmaa-Bold.1.1';opacity:0.85;fill:#ffffff;stroke-width:0.85386">
    <text
       xml:space="preserve"
       style="font-size:40px;line-height:1.25;font-family:Ancient;-inkscape-font-specification:Ancient;fill:#ffffff"
       x="5.9679508"
       y="40.362118"
       id="text3216"
       transform="scale(1.0254864,0.97514701)"><tspan
         sodipodi:role="line"
         id="tspan3214"
         x="5.9679508"
         y="40.362118"
         style="fill:#ffffff" /></text>
    <g
       id="g8"
       style="fill:#ffffff"
       transform="matrix(-0.09490186,0.08438902,-0.09462136,-0.08463919,60.829495,30.753717)" />
    <g
       id="g6"
       style="fill:#ffffff"
       transform="matrix(0.03956987,-0.01785532,0.01707557,0.04137682,-18.025361,25.626127)" />
  </g>
</svg>
