<?xml version="1.0" encoding="UTF-8" standalone="no"?>
<svg
   width="64"
   height="64"
   version="1"
   id="svg22"
   sodipodi:docname="steam_icon_560130.svg"
   inkscape:version="1.1 (1:1.1+202105261517+ce6663b3b7)"
   xmlns:inkscape="http://www.inkscape.org/namespaces/inkscape"
   xmlns:sodipodi="http://sodipodi.sourceforge.net/DTD/sodipodi-0.dtd"
   xmlns="http://www.w3.org/2000/svg"
   xmlns:svg="http://www.w3.org/2000/svg"
   xmlns:rdf="http://www.w3.org/1999/02/22-rdf-syntax-ns#"
   xmlns:cc="http://creativecommons.org/ns#"
   xmlns:dc="http://purl.org/dc/elements/1.1/">
  <metadata
     id="metadata28">
    <rdf:RDF>
      <cc:Work
         rdf:about="">
        <dc:format>image/svg+xml</dc:format>
        <dc:type
           rdf:resource="http://purl.org/dc/dcmitype/StillImage" />
      </cc:Work>
    </rdf:RDF>
  </metadata>
  <defs
     id="defs26">
    <inkscape:path-effect
       effect="powerclip"
       id="path-effect390"
       is_visible="true"
       lpeversion="1"
       inverse="true"
       flatten="false"
       hide_clip="false"
       message="Use fill-rule evenodd on &lt;b&gt;fill and stroke&lt;/b&gt; dialog if no flatten result after convert clip to paths." />
    <clipPath
       clipPathUnits="userSpaceOnUse"
       id="clipPath386">
      <path
         style="color:#000000;display:none;opacity:0.85;fill:#ffffff;stroke-width:0.0693271;-inkscape-stroke:none"
         d="m 13.357422,15.287109 c -0.07216,0.0011 -0.141865,0.01416 -0.208984,0.03516 -0.01513,0.005 -0.02843,0.01149 -0.04297,0.01758 -0.06838,0.02657 -0.133063,0.06181 -0.1875,0.109375 -0.05444,0.0475 -0.09264,0.104377 -0.123047,0.164062 -0.007,0.01277 -0.01389,0.02382 -0.01953,0.03711 -0.0247,0.05865 -0.03976,0.120539 -0.04102,0.183593 0,0.0083 0.0013,0.01514 0.002,0.02344 0.0013,0.03376 0.0035,0.06786 0.01172,0.101562 l 1.265625,4.978516 c 0.02655,0.102844 0.08448,0.19546 0.169922,0.269531 l 12.210937,10.669922 -1.451172,1.267578 c -0.24749,0.216252 -0.24749,0.565063 0,0.78125 0.115423,0.100854 1.837376,1.694137 2.205079,1.914063 0.0064,0.0061 0.003,0.01559 0.0098,0.02148 0.02193,0.01917 0.04876,0.02729 0.07031,0.04883 0.0084,0.0035 0.06731,0.0625 0.07227,0.0625 0.0032,0 -0.003,-0.01325 0,-0.01367 0.0789,0.07714 0.150048,0.175782 0.253907,0.175782 -0.288166,0.158041 1.570868,1.445922 1.818359,1.662109 0.123411,0.107834 0.285288,0.162109 0.447265,0.162109 0.161978,0 0.323855,-0.05428 0.447266,-0.162109 l 1.451172,-1.267578 1.451172,1.267578 c 0.123263,0.107834 0.285288,0.162109 0.447266,0.162109 0.162051,0 0.323854,-0.05428 0.447265,-0.162109 0.247416,-0.216252 2.014995,-1.55725 1.767578,-1.773437 0.158413,-0.168331 0.204714,-0.151932 0.328125,-0.259766 0.132978,-0.116193 0.214402,-0.241625 0.236328,-0.367188 0.461832,-0.07974 1.875047,-1.274426 2.09961,-1.470703 0.247416,-0.216252 0.247416,-0.565063 0,-0.78125 L 19.509766,16.554688 c -0.08544,-0.07465 -0.193514,-0.125821 -0.310547,-0.148438 l -5.697266,-1.105469 c -0.03797,-0.0072 -0.07464,-0.0087 -0.113281,-0.0098 -0.01075,-5.84e-4 -0.0205,-0.0039 -0.03125,-0.0039 z m 36.722656,0 c -0.01075,0 -0.01854,0.0033 -0.0293,0.0039 -0.03864,0.0011 -0.07734,0.0026 -0.115234,0.0098 l -5.695313,1.105469 c -0.117107,0.02268 -0.225108,0.07378 -0.310546,0.148438 l -10.759766,9.40039 c -0.145996,0.127568 -0.178595,0.297308 -0.152344,0.462891 0.0034,0.0076 0.0075,0.01522 0.01172,0.02344 0.0226,0.105965 0.04663,0.214766 0.140625,0.296875 0.30591,0.388689 0.632224,0.646554 0.966797,0.84961 1.329698,1.231603 3.355286,2.92749 3.46289,3.021484 0.123412,0.107834 0.287242,0.162109 0.449219,0.162109 0.162052,0 0.323854,-0.05428 0.447266,-0.162109 l 10.757812,-9.402344 c 0.08544,-0.07407 0.145324,-0.166687 0.171875,-0.269531 l 1.265625,-4.978516 c 0.0082,-0.03376 0.0085,-0.06786 0.0098,-0.101562 6.67e-4,-0.0083 0.0039,-0.01514 0.0039,-0.02344 -0.0013,-0.06305 -0.01632,-0.124945 -0.04102,-0.183593 -0.0057,-0.01329 -0.01256,-0.02441 -0.01953,-0.03711 -0.031,-0.05975 -0.07056,-0.116496 -0.125,-0.164062 -0.05444,-0.04757 -0.117833,-0.08222 -0.185547,-0.109375 -0.0152,-0.0061 -0.02979,-0.01259 -0.04492,-0.01758 -0.06705,-0.021 -0.137488,-0.03406 -0.208984,-0.03516 z M 36.199219,27.90625 c 0.0223,0.03232 0.03031,0.07004 0.05469,0.101562 -0.04688,-0.02892 -0.100866,-0.06183 -0.146484,-0.08984 0.03113,-0.0065 0.06055,-0.0044 0.0918,-0.01172 z M 21.59375,32.429688 c -0.161857,0 -0.323557,0.05398 -0.447266,0.162109 -1.876462,1.639095 -1.914787,3.441019 -0.126953,5.087891 l -3.998047,3.492187 -0.658203,-0.570313 c -0.492978,-0.431337 -1.295392,-0.433558 -1.787109,-0.0039 l -1.472656,1.289063 c -0.493646,0.430754 -0.493646,1.133115 0,1.564453 l 5.36914,4.691406 c 0.246823,0.215669 0.572455,0.324219 0.896485,0.324219 0.324029,0 0.648375,-0.10855 0.894531,-0.324219 l 1.472656,-1.287109 c 0.258245,-0.225649 0.383651,-0.541213 0.34375,-0.865235 -0.03671,-0.296933 -0.204029,-0.583164 -0.484375,-0.828125 l -0.513672,-0.445312 3.992188,-3.488281 c 1.910653,1.589325 3.921897,1.550634 5.826172,-0.113282 0.24749,-0.216252 0.24749,-0.565062 0,-0.78125 L 22.041016,32.591797 C 21.91727,32.483671 21.755607,32.429688 21.59375,32.429688 Z m 20.179688,0.251953 c -0.161857,0 -0.325474,0.05398 -0.449219,0.162109 l -8.859375,7.742188 c -0.24749,0.216186 -0.24749,0.564998 0,0.78125 1.904275,1.663915 3.915519,1.702606 5.826172,0.113281 l 3.992187,3.488281 -0.513672,0.445312 c -0.280346,0.244961 -0.447665,0.531192 -0.484375,0.828126 -0.0399,0.324022 0.0855,0.639585 0.34375,0.865234 l 1.472656,1.287109 c 0.246156,0.215669 0.570503,0.324219 0.894532,0.324219 0.32403,0 0.649661,-0.10855 0.896484,-0.324219 l 5.369141,-4.691406 c 0.493645,-0.431338 0.493645,-1.133699 0,-1.564453 l -1.472657,-1.28711 c -0.491717,-0.429639 -1.29413,-0.429384 -1.787109,0.002 l -0.658203,0.570312 -3.998047,-3.492187 c 1.787835,-1.646872 1.751463,-3.448796 -0.125,-5.087891 -0.123708,-0.108126 -0.285409,-0.162109 -0.447265,-0.162109 z"
         id="path388" />
      <path
         id="lpe_path-effect390"
         style="color:#000000;opacity:0.85;fill:#ffffff;stroke-width:0.0693271;-inkscape-stroke:none"
         class="powerclip"
         d="M -1.9983251,-2.2882962 H 66.205437 V 66.558849 H -1.9983251 Z M 13.357422,15.287109 c -0.07216,0.0011 -0.141865,0.01416 -0.208984,0.03516 -0.01513,0.005 -0.02843,0.01149 -0.04297,0.01758 -0.06838,0.02657 -0.133063,0.06181 -0.1875,0.109375 -0.05444,0.0475 -0.09264,0.104377 -0.123047,0.164062 -0.007,0.01277 -0.01389,0.02382 -0.01953,0.03711 -0.0247,0.05865 -0.03976,0.120539 -0.04102,0.183593 0,0.0083 0.0013,0.01514 0.002,0.02344 0.0013,0.03376 0.0035,0.06786 0.01172,0.101562 l 1.265625,4.978516 c 0.02655,0.102844 0.08448,0.19546 0.169922,0.269531 l 12.210937,10.669922 -1.451172,1.267578 c -0.24749,0.216252 -0.24749,0.565063 0,0.78125 0.115423,0.100854 1.837376,1.694137 2.205079,1.914063 0.0064,0.0061 0.003,0.01559 0.0098,0.02148 0.02193,0.01917 0.04876,0.02729 0.07031,0.04883 0.0084,0.0035 0.06731,0.0625 0.07227,0.0625 0.0032,0 -0.003,-0.01325 0,-0.01367 0.0789,0.07714 0.150048,0.175782 0.253907,0.175782 -0.288166,0.158041 1.570868,1.445922 1.818359,1.662109 0.123411,0.107834 0.285288,0.162109 0.447265,0.162109 0.161978,0 0.323855,-0.05428 0.447266,-0.162109 l 1.451172,-1.267578 1.451172,1.267578 c 0.123263,0.107834 0.285288,0.162109 0.447266,0.162109 0.162051,0 0.323854,-0.05428 0.447265,-0.162109 0.247416,-0.216252 2.014995,-1.55725 1.767578,-1.773437 0.158413,-0.168331 0.204714,-0.151932 0.328125,-0.259766 0.132978,-0.116193 0.214402,-0.241625 0.236328,-0.367188 0.461832,-0.07974 1.875047,-1.274426 2.09961,-1.470703 0.247416,-0.216252 0.247416,-0.565063 0,-0.78125 L 19.509766,16.554688 c -0.08544,-0.07465 -0.193514,-0.125821 -0.310547,-0.148438 l -5.697266,-1.105469 c -0.03797,-0.0072 -0.07464,-0.0087 -0.113281,-0.0098 -0.01075,-5.84e-4 -0.0205,-0.0039 -0.03125,-0.0039 z m 36.722656,0 c -0.01075,0 -0.01854,0.0033 -0.0293,0.0039 -0.03864,0.0011 -0.07734,0.0026 -0.115234,0.0098 l -5.695313,1.105469 c -0.117107,0.02268 -0.225108,0.07378 -0.310546,0.148438 l -10.759766,9.40039 c -0.145996,0.127568 -0.178595,0.297308 -0.152344,0.462891 0.0034,0.0076 0.0075,0.01522 0.01172,0.02344 0.0226,0.105965 0.04663,0.214766 0.140625,0.296875 0.30591,0.388689 0.632224,0.646554 0.966797,0.84961 1.329698,1.231603 3.355286,2.92749 3.46289,3.021484 0.123412,0.107834 0.287242,0.162109 0.449219,0.162109 0.162052,0 0.323854,-0.05428 0.447266,-0.162109 l 10.757812,-9.402344 c 0.08544,-0.07407 0.145324,-0.166687 0.171875,-0.269531 l 1.265625,-4.978516 c 0.0082,-0.03376 0.0085,-0.06786 0.0098,-0.101562 6.67e-4,-0.0083 0.0039,-0.01514 0.0039,-0.02344 -0.0013,-0.06305 -0.01632,-0.124945 -0.04102,-0.183593 -0.0057,-0.01329 -0.01256,-0.02441 -0.01953,-0.03711 -0.031,-0.05975 -0.07056,-0.116496 -0.125,-0.164062 -0.05444,-0.04757 -0.117833,-0.08222 -0.185547,-0.109375 -0.0152,-0.0061 -0.02979,-0.01259 -0.04492,-0.01758 -0.06705,-0.021 -0.137488,-0.03406 -0.208984,-0.03516 z m -13.880859,12.619141 6e-6,2e-6 c -0.03125,0.0073 -0.06067,0.0052 -0.0918,0.01172 0.04562,0.02801 0.0996,0.06092 0.146484,0.08984 -0.02438,-0.03152 -0.03239,-0.06924 -0.05469,-0.101562 z M 21.59375,32.429688 c -0.161857,0 -0.323557,0.05398 -0.447266,0.162109 -1.876462,1.639095 -1.914787,3.441019 -0.126953,5.087891 l -3.998047,3.492187 -0.658203,-0.570313 c -0.492978,-0.431337 -1.295392,-0.433558 -1.787109,-0.0039 l -1.472656,1.289063 c -0.493646,0.430754 -0.493646,1.133115 0,1.564453 l 5.36914,4.691406 c 0.246823,0.215669 0.572455,0.324219 0.896485,0.324219 0.324029,0 0.648375,-0.10855 0.894531,-0.324219 l 1.472656,-1.287109 c 0.258245,-0.225649 0.383651,-0.541213 0.34375,-0.865235 -0.03671,-0.296933 -0.204029,-0.583164 -0.484375,-0.828125 l -0.513672,-0.445312 3.992188,-3.488281 c 1.910653,1.589325 3.921897,1.550634 5.826172,-0.113282 0.24749,-0.216252 0.24749,-0.565062 0,-0.78125 L 22.041016,32.591797 C 21.91727,32.483671 21.755607,32.429688 21.59375,32.429688 Z m 20.179688,0.251953 c -0.161857,0 -0.325474,0.05398 -0.449219,0.162109 l -8.859375,7.742188 c -0.24749,0.216186 -0.24749,0.564998 0,0.78125 1.904275,1.663915 3.915519,1.702606 5.826172,0.113281 l 3.992187,3.488281 -0.513672,0.445312 c -0.280346,0.244961 -0.447665,0.531192 -0.484375,0.828126 -0.0399,0.324022 0.0855,0.639585 0.34375,0.865234 l 1.472656,1.287109 c 0.246156,0.215669 0.570503,0.324219 0.894532,0.324219 0.32403,0 0.649661,-0.10855 0.896484,-0.324219 l 5.369141,-4.691406 c 0.493645,-0.431338 0.493645,-1.133699 0,-1.564453 l -1.472657,-1.28711 c -0.491717,-0.429639 -1.29413,-0.429384 -1.787109,0.002 l -0.658203,0.570312 -3.998047,-3.492187 c 1.787835,-1.646872 1.751463,-3.448796 -0.125,-5.087891 -0.123708,-0.108126 -0.285409,-0.162109 -0.447265,-0.162109 z" />
    </clipPath>
  </defs>
  <sodipodi:namedview
     pagecolor="#ffffff"
     bordercolor="#666666"
     borderopacity="1"
     objecttolerance="10"
     gridtolerance="10"
     guidetolerance="10"
     inkscape:pageopacity="0"
     inkscape:pageshadow="2"
     inkscape:window-width="1355"
     inkscape:window-height="912"
     id="namedview24"
     showgrid="false"
     inkscape:zoom="9.1150484"
     inkscape:cx="32.254354"
     inkscape:cy="33.954839"
     inkscape:window-x="206"
     inkscape:window-y="61"
     inkscape:window-maximized="0"
     inkscape:current-layer="svg22"
     inkscape:pagecheckerboard="0" />
  <path
     style="fill:#29292a;stroke-width:1.04509"
     width="58.203762"
     height="58.847145"
     x="3.0016749"
     y="2.7117038"
     rx="29.1024"
     ry="29.424097"
     id="rect4"
     clip-path="url(#clipPath386)"
     inkscape:path-effect="#path-effect390"
     d="m 32.103556,2.7117038 c 16.122442,0 29.101881,13.1229132 29.101881,29.4235722 0,16.30066 -12.979439,29.423573 -29.101881,29.423573 -16.122442,0 -29.1018811,-13.122913 -29.1018811,-29.423573 0,-16.300659 12.9794391,-29.4235722 29.1018811,-29.4235722 z"
     sodipodi:type="rect" />
  <g
     id="g14"
     transform="matrix(0.07416555,0,0,0.06480431,12.733298,15.287545)"
     style="fill:#ffffff;opacity:0.85">
    <g
       id="g12"
       style="fill:#ffffff">
      <g
         id="g10"
         style="fill:#ffffff" />
    </g>
  </g>
</svg>
