<?xml version="1.0" encoding="UTF-8" standalone="no"?>
<svg
   width="64"
   height="64"
   version="1"
   id="svg22"
   sodipodi:docname="steam_icon_375480.svg"
   inkscape:version="1.1 (1:1.1+202105261517+ce6663b3b7)"
   xmlns:inkscape="http://www.inkscape.org/namespaces/inkscape"
   xmlns:sodipodi="http://sodipodi.sourceforge.net/DTD/sodipodi-0.dtd"
   xmlns="http://www.w3.org/2000/svg"
   xmlns:svg="http://www.w3.org/2000/svg"
   xmlns:rdf="http://www.w3.org/1999/02/22-rdf-syntax-ns#"
   xmlns:cc="http://creativecommons.org/ns#"
   xmlns:dc="http://purl.org/dc/elements/1.1/">
  <metadata
     id="metadata28">
    <rdf:RDF>
      <cc:Work
         rdf:about="">
        <dc:format>image/svg+xml</dc:format>
        <dc:type
           rdf:resource="http://purl.org/dc/dcmitype/StillImage" />
      </cc:Work>
    </rdf:RDF>
  </metadata>
  <defs
     id="defs26">
    <inkscape:path-effect
       effect="powerclip"
       id="path-effect135"
       is_visible="true"
       lpeversion="1"
       inverse="true"
       flatten="false"
       hide_clip="false"
       message="Use fill-rule evenodd on &lt;b&gt;fill and stroke&lt;/b&gt; dialog if no flatten result after convert clip to paths." />
    <clipPath
       clipPathUnits="userSpaceOnUse"
       id="clipPath131">
      <path
         id="path133"
         style="display:none;fill:#ffffff;stroke-width:1.79992"
         d="m 33.595703,11.746094 c -6.219887,0 -11.122287,1.816757 -14.707031,5.449218 -3.561005,3.632462 -5.341797,8.617577 -5.341797,14.957032 0,6.246908 1.767423,11.209937 5.304687,14.888673 3.537265,3.678734 8.310179,5.519531 14.316407,5.519531 2.207822,0 4.283786,-0.20854 6.230469,-0.625 1.970422,-0.416461 3.871236,-1.042079 5.699218,-1.875 v -5.898439 c -1.851722,0.994879 -3.716334,1.744899 -5.591797,2.253907 -1.851722,0.485871 -3.72775,0.730469 -5.626953,0.730469 -4.249465,0 -7.548174,-1.307429 -9.898437,-3.921876 -2.350263,-2.637583 -3.525391,-6.329243 -3.525391,-11.072265 0,-4.743023 1.175128,-8.42071 3.525391,-11.035156 2.350263,-2.637584 5.648972,-3.957032 9.898437,-3.957032 1.899203,0 3.775231,0.254665 5.626953,0.763672 1.875463,0.485871 3.740075,1.225825 5.591797,2.220703 v -5.96875 c -1.804242,-0.809784 -3.668854,-1.411363 -5.591797,-1.804687 -1.922942,-0.416461 -3.892253,-0.625 -5.910156,-0.625 z m 1.46875,10.363281 a 10.005287,9.9988196 0 0 0 -10.005859,9.998047 10.005287,9.9988196 0 0 0 10.005859,9.998047 10.005287,9.9988196 0 0 0 10.005859,-9.998047 10.005287,9.9988196 0 0 0 -10.005859,-9.998047 z" />
      <path
         id="lpe_path-effect135"
         style="fill:#ffffff;stroke-width:1.79992"
         class="powerclip"
         d="M -1.9983251,-2.2882962 H 66.205437 V 66.558849 H -1.9983251 Z M 33.595703,11.746094 c -6.219887,0 -11.122287,1.816757 -14.707031,5.449218 -3.561005,3.632462 -5.341797,8.617577 -5.341797,14.957032 0,6.246908 1.767423,11.209937 5.304687,14.888673 3.537265,3.678734 8.310179,5.519531 14.316407,5.519531 2.207822,0 4.283786,-0.20854 6.230469,-0.625 1.970422,-0.416461 3.871236,-1.042079 5.699218,-1.875 v -5.898439 c -1.851722,0.994879 -3.716334,1.744899 -5.591797,2.253907 -1.851722,0.485871 -3.72775,0.730469 -5.626953,0.730469 -4.249465,0 -7.548174,-1.307429 -9.898437,-3.921876 -2.350263,-2.637583 -3.525391,-6.329243 -3.525391,-11.072265 0,-4.743023 1.175128,-8.42071 3.525391,-11.035156 2.350263,-2.637584 5.648972,-3.957032 9.898437,-3.957032 1.899203,0 3.775231,0.254665 5.626953,0.763672 1.875463,0.485871 3.740075,1.225825 5.591797,2.220703 v -5.96875 c -1.804242,-0.809784 -3.668854,-1.411363 -5.591797,-1.804687 -1.922942,-0.416461 -3.892253,-0.625 -5.910156,-0.625 z m 1.46875,10.363281 a 10.005287,9.9988196 0 0 0 -10.005859,9.998047 10.005287,9.9988196 0 0 0 10.005859,9.998047 10.005287,9.9988196 0 0 0 10.005859,-9.998047 10.005287,9.9988196 0 0 0 -10.005859,-9.998047 z" />
    </clipPath>
  </defs>
  <sodipodi:namedview
     pagecolor="#ffffff"
     bordercolor="#666666"
     borderopacity="1"
     objecttolerance="10"
     gridtolerance="10"
     guidetolerance="10"
     inkscape:pageopacity="0"
     inkscape:pageshadow="2"
     inkscape:window-width="1355"
     inkscape:window-height="912"
     id="namedview24"
     showgrid="false"
     inkscape:zoom="12.890625"
     inkscape:cx="39.796364"
     inkscape:cy="31.767273"
     inkscape:window-x="373"
     inkscape:window-y="48"
     inkscape:window-maximized="0"
     inkscape:current-layer="svg22"
     inkscape:pagecheckerboard="0" />
  <path
     style="fill:#29292a;stroke-width:1.04509"
     width="58.203762"
     height="58.847145"
     x="3.0016749"
     y="2.7117038"
     rx="29.1024"
     ry="29.424097"
     id="rect4"
     sodipodi:type="rect"
     clip-path="url(#clipPath131)"
     inkscape:path-effect="#path-effect135"
     d="m 32.103556,2.7117038 c 16.122442,0 29.101881,13.1229132 29.101881,29.4235722 0,16.30066 -12.979439,29.423573 -29.101881,29.423573 -16.122442,0 -29.1018811,-13.122913 -29.1018811,-29.423573 0,-16.300659 12.9794391,-29.4235722 29.1018811,-29.4235722 z" />
  <g
     aria-label="BG"
     transform="scale(0.97514702,1.0254864)"
     id="text6568"
     style="font-size:34.1545px;line-height:1.25;font-family:'padmaa-Bold.1.1';-inkscape-font-specification:'padmaa-Bold.1.1';opacity:0.85;fill:#ffffff;stroke-width:0.85386">
    <text
       xml:space="preserve"
       style="font-size:40px;line-height:1.25;font-family:Ancient;-inkscape-font-specification:Ancient;fill:#ffffff"
       x="5.9679508"
       y="40.362118"
       id="text3216"
       transform="scale(1.0254864,0.97514701)"><tspan
         sodipodi:role="line"
         id="tspan3214"
         x="5.9679508"
         y="40.362118"
         style="fill:#ffffff" /></text>
    <g
       id="g846"
       style="fill:#ffffff"
       transform="matrix(0.7150692,0,0,0.67974408,9.9403537,9.3819639)">
      <circle
         cx="28.096931"
         cy="32.101971"
         r="30.000999"
         fill-opacity="0"
         stroke-width="1.5715"
         id="circle39"
         style="fill:#ffffff" />
      <g
         aria-label="c"
         transform="matrix(1.012788,0,0,0.9873735,-3.9230687,0.05797263)"
         id="text31"
         style="font-style:normal;font-variant:normal;font-weight:normal;font-stretch:normal;font-size:103.268px;line-height:1.25;font-family:'Droid Sans Fallback';-inkscape-font-specification:'Droid Sans Fallback';fill:#ffffff;fill-opacity:1;stroke:none;stroke-width:2.58171" />
    </g>
  </g>
</svg>
