<?xml version="1.0" encoding="UTF-8" standalone="no"?>
<svg
   width="64"
   height="64"
   version="1"
   id="svg22"
   sodipodi:docname="steam_icon_289070.svg"
   inkscape:version="1.1 (1:1.1+rc+202105240936+c4e8f9ed74)"
   xmlns:inkscape="http://www.inkscape.org/namespaces/inkscape"
   xmlns:sodipodi="http://sodipodi.sourceforge.net/DTD/sodipodi-0.dtd"
   xmlns="http://www.w3.org/2000/svg"
   xmlns:svg="http://www.w3.org/2000/svg"
   xmlns:rdf="http://www.w3.org/1999/02/22-rdf-syntax-ns#"
   xmlns:cc="http://creativecommons.org/ns#"
   xmlns:dc="http://purl.org/dc/elements/1.1/">
  <metadata
     id="metadata28">
    <rdf:RDF>
      <cc:Work
         rdf:about="">
        <dc:format>image/svg+xml</dc:format>
        <dc:type
           rdf:resource="http://purl.org/dc/dcmitype/StillImage" />
      </cc:Work>
    </rdf:RDF>
  </metadata>
  <defs
     id="defs26">
    <inkscape:path-effect
       effect="powerclip"
       id="path-effect124"
       is_visible="true"
       lpeversion="1"
       inverse="true"
       flatten="false"
       hide_clip="false"
       message="Use fill-rule evenodd on &lt;b&gt;fill and stroke&lt;/b&gt; dialog if no flatten result after convert clip to paths." />
    <clipPath
       clipPathUnits="userSpaceOnUse"
       id="clipPath120">
      <path
         style="display:none;fill:#b3b3b3;stroke-width:0.0791947"
         d="m 22.772534,46.969996 c -5.445289,-3.29237 -9.931187,-6.01872 -9.968659,-6.05856 -0.03747,-0.03984 0.991773,-1.557896 2.287211,-3.373459 l 2.355346,-3.301024 7.659018,4.057609 7.659015,4.05761 7.657953,-4.057788 7.657955,-4.05779 2.35604,3.301204 c 1.780564,2.494864 2.329576,3.326558 2.247694,3.405008 -0.164184,0.157305 -19.841962,12.020441 -19.932383,12.016628 -0.04326,-0.0017 -4.533898,-2.697069 -9.97919,-5.989438 z m 3.141681,-12.203069 c -3.767122,-1.999426 -6.874314,-3.661598 -6.904871,-3.693713 -0.03055,-0.03211 1.179214,-1.788366 2.688375,-3.902775 l 2.743931,-3.844382 4.159604,2.016774 c 4.058365,1.96769 4.166242,2.013537 4.432341,1.883789 0.150004,-0.07314 2.022831,-0.980968 4.161835,-2.01739 l 3.8891,-1.884405 2.745662,3.846807 c 1.510117,2.115746 2.7115,3.879054 2.669746,3.918464 -0.04176,0.03941 -3.149529,1.700766 -6.906163,3.691902 l -6.830245,3.620251 z m 3.366342,-12.856668 c -1.865877,-0.911247 -3.382075,-1.700634 -3.369327,-1.754194 0.02949,-0.12389 6.793381,-9.602668 6.8523,-9.602668 0.05889,0 6.822801,9.478738 6.8523,9.602606 0.02026,0.0851 -6.726127,3.435222 -6.882611,3.417776 -0.03309,-0.0037 -1.586782,-0.752272 -3.452662,-1.66352 z"
         id="path122" />
      <path
         id="lpe_path-effect124"
         style="fill:#b3b3b3;stroke-width:0.0791947"
         class="powerclip"
         d="M -1.9983251,-2.2882962 H 66.205437 V 66.558849 H -1.9983251 Z M 22.772534,46.969996 c 5.445292,3.292369 9.93593,5.987738 9.97919,5.989438 0.09042,0.0038 19.768199,-11.859323 19.932383,-12.016628 0.08188,-0.07845 -0.46713,-0.910144 -2.247694,-3.405008 l -2.35604,-3.301204 -7.657955,4.05779 -7.657953,4.057788 -7.659015,-4.05761 -7.659018,-4.057609 -2.355346,3.301024 c -1.295438,1.815563 -2.324681,3.333619 -2.287211,3.373459 0.03747,0.03984 4.52337,2.76619 9.968659,6.05856 z m 3.141681,-12.203069 6.849315,3.635322 6.830245,-3.620251 c 3.756634,-1.991136 6.864403,-3.652492 6.906163,-3.691902 0.04175,-0.03941 -1.159629,-1.802718 -2.669746,-3.918464 l -2.745662,-3.846807 -3.8891,1.884405 c -2.139004,1.036422 -4.011831,1.94425 -4.161835,2.01739 -0.266099,0.129748 -0.373976,0.0839 -4.432341,-1.883789 l -4.159604,-2.016774 -2.743931,3.844382 c -1.509161,2.114409 -2.718925,3.870665 -2.688375,3.902775 0.03056,0.03212 3.137749,1.694287 6.904871,3.693713 z m 3.366342,-12.856668 c 1.86588,0.911248 3.419572,1.65982 3.452662,1.66352 0.156484,0.01745 6.902871,-3.332676 6.882611,-3.417776 -0.0295,-0.123868 -6.79341,-9.602606 -6.8523,-9.602606 -0.05892,0 -6.82281,9.478778 -6.8523,9.602668 -0.01275,0.05356 1.50345,0.842947 3.369327,1.754194 z" />
    </clipPath>
  </defs>
  <sodipodi:namedview
     pagecolor="#ffffff"
     bordercolor="#666666"
     borderopacity="1"
     objecttolerance="10"
     gridtolerance="10"
     guidetolerance="10"
     inkscape:pageopacity="0"
     inkscape:pageshadow="2"
     inkscape:window-width="1355"
     inkscape:window-height="912"
     id="namedview24"
     showgrid="false"
     inkscape:zoom="6.4453125"
     inkscape:cx="53.21697"
     inkscape:cy="12.955152"
     inkscape:window-x="275"
     inkscape:window-y="84"
     inkscape:window-maximized="0"
     inkscape:current-layer="svg22"
     inkscape:pagecheckerboard="0" />
  <path
     style="fill:#29292a;stroke-width:1.04509"
     width="58.203762"
     height="58.847145"
     x="3.0016749"
     y="2.7117038"
     rx="29.1024"
     ry="29.424097"
     id="rect4"
     clip-path="url(#clipPath120)"
     inkscape:path-effect="#path-effect124"
     d="m 32.103556,2.7117038 c 16.122442,0 29.101881,13.1229132 29.101881,29.4235722 0,16.30066 -12.979439,29.423573 -29.101881,29.423573 -16.122442,0 -29.1018811,-13.122913 -29.1018811,-29.423573 0,-16.300659 12.9794391,-29.4235722 29.1018811,-29.4235722 z"
     sodipodi:type="rect" />
  <g
     aria-label="BG"
     transform="scale(0.97514702,1.0254864)"
     id="text6568"
     style="font-size:34.1545px;line-height:1.25;font-family:'padmaa-Bold.1.1';-inkscape-font-specification:'padmaa-Bold.1.1';opacity:0.85;fill:#ffffff;stroke-width:0.85386">
    <text
       xml:space="preserve"
       style="font-size:40px;line-height:1.25;font-family:Ancient;-inkscape-font-specification:Ancient;fill:#ffffff"
       x="5.9679508"
       y="40.362118"
       id="text3216"
       transform="scale(1.0254864,0.97514701)"><tspan
         sodipodi:role="line"
         id="tspan3214"
         x="5.9679508"
         y="40.362118"
         style="fill:#ffffff" /></text>
  </g>
</svg>
