<?xml version="1.0" encoding="UTF-8" standalone="no"?>
<svg
   width="64"
   height="64"
   version="1"
   id="svg22"
   sodipodi:docname="steam_icon_594570.svg"
   inkscape:version="1.1 (1:1.1+202105261517+ce6663b3b7)"
   xmlns:inkscape="http://www.inkscape.org/namespaces/inkscape"
   xmlns:sodipodi="http://sodipodi.sourceforge.net/DTD/sodipodi-0.dtd"
   xmlns="http://www.w3.org/2000/svg"
   xmlns:svg="http://www.w3.org/2000/svg"
   xmlns:rdf="http://www.w3.org/1999/02/22-rdf-syntax-ns#"
   xmlns:cc="http://creativecommons.org/ns#"
   xmlns:dc="http://purl.org/dc/elements/1.1/">
  <metadata
     id="metadata28">
    <rdf:RDF>
      <cc:Work
         rdf:about="">
        <dc:format>image/svg+xml</dc:format>
        <dc:type
           rdf:resource="http://purl.org/dc/dcmitype/StillImage" />
      </cc:Work>
    </rdf:RDF>
  </metadata>
  <defs
     id="defs26">
    <inkscape:path-effect
       effect="powerclip"
       id="path-effect139"
       is_visible="true"
       lpeversion="1"
       inverse="true"
       flatten="false"
       hide_clip="false"
       message="Use fill-rule evenodd on &lt;b&gt;fill and stroke&lt;/b&gt; dialog if no flatten result after convert clip to paths." />
    <clipPath
       clipPathUnits="userSpaceOnUse"
       id="clipPath135">
      <path
         id="path137"
         style="display:none;opacity:0.85;fill:#ffffff;stroke-width:0.0855177"
         d="m 31.771484,4.2089844 -2.417968,5.2207031 4.796875,0.03125 z m -1.746093,6.9902346 -0.01172,2.935547 3.433594,0.01367 0.01367,-2.929688 z m -5.994141,4.65625 -0.0059,1.375 8.896484,0.05273 -0.0078,1.755859 -8.892578,-0.04492 -0.01758,4.496093 8.892578,0.04492 -0.002,1.763672 L 24,25.253906 l -0.0039,1.359375 13.318359,0.08008 2.087891,-2.613281 0.02539,-8.128906 z m 16.744141,0.09961 -0.02734,7.632813 1.046875,0.002 0.02734,-7.632813 z m 2.398437,0.142578 -0.02344,6.017578 c 0.850795,-0.381641 1.807486,-0.65272 2.796875,-0.894531 1.522814,-0.38327 3.138,-0.668673 4.535156,-0.982422 -1.688841,-1.749317 -3.719208,-3.620849 -7.308594,-4.140625 z m -20.490234,0.298828 -2.617188,1.689454 2.603516,1.716796 z m -0.02148,6.259766 -2.617187,1.6875 2.603516,1.71875 z m 4.304688,5.742188 1.480469,2.941406 6.460937,0.03711 1.503906,-2.927734 z m 2.982422,4.707031 -0.08789,26.27539 3.449219,-2.861328 0.08008,-23.398437 z m 8.603515,0.04102 c -1.651555,0.03202 -1.291015,3.085938 -1.291015,3.085938 l 0.335937,11.859375 0.501953,3.980469 c 0,0 1.516219,1.66006 1.902344,0.816406 0.38694,-0.847057 0.591797,-5.09961 0.591797,-5.09961 0,0 1.679431,4.398996 2.603516,3.970704 4.98853,-1.377121 3.458984,-3.371094 3.458984,-3.371094 0,0 -3.727154,-3.451841 -3.736328,-3.890625 -0.0037,-0.265109 2.806088,1.699706 4.421875,2.947265 3.766087,-0.852391 3.958984,-4.294921 3.958984,-4.294921 0,0 -2.685142,-0.600335 -7.095703,-3.517579 9.16481,3.642802 10.100743,-3.289014 10.265625,-3.972656 0.398039,-2.173932 -0.0293,-2.503906 -0.0293,-2.503906 0,0 -14.236292,-0.04519 -15.888672,-0.0098 z m -14.115234,0.0078 c -1.652375,-0.03542 -15.8886719,0.0098 -15.8886719,0.0098 0,0 -0.4273332,0.329973 -0.029297,2.503907 0.1648815,0.683642 1.1008167,7.613505 10.2656249,3.970703 -4.410559,2.917244 -7.095703,3.519531 -7.095703,3.519531 0,0 0.192896,3.440577 3.958985,4.292969 1.615788,-1.247563 4.425583,-3.210422 4.421874,-2.945313 -0.0092,0.438783 -3.738281,3.890625 -3.738281,3.890625 0,0 -1.527593,1.993976 3.460938,3.371094 0.924084,0.428291 2.603515,-3.970703 2.603515,-3.970703 0,0 0.204856,4.252552 0.591797,5.099609 0.386122,0.843656 1.902344,-0.816406 1.902344,-0.816406 l 0.5,-3.980469 0.337891,-11.861328 c 0,0 0.360539,-3.051962 -1.291016,-3.083984 z" />
      <path
         id="lpe_path-effect139"
         style="opacity:0.85;fill:#ffffff;stroke-width:0.0855177"
         class="powerclip"
         d="M -1.9983251,-2.2882962 H 66.205437 V 66.558849 H -1.9983251 Z m 33.7698091,6.4972806 -2.417968,5.2207031 4.796875,0.03125 z m -1.746093,6.9902346 -0.01172,2.935547 3.433594,0.01367 0.01367,-2.929688 z m -5.994141,4.65625 -0.0059,1.375 8.896484,0.05273 -0.0078,1.755859 -8.892578,-0.04492 -0.01758,4.496093 8.892578,0.04492 -0.002,1.763672 L 24,25.253906 l -0.0039,1.359375 13.318359,0.08008 2.087891,-2.613281 0.02539,-8.128906 z m 16.744141,0.09961 -0.02734,7.632813 1.046875,0.002 0.02734,-7.632813 z m 2.398437,0.142578 -0.02344,6.017578 c 0.850795,-0.381641 1.807486,-0.65272 2.796875,-0.894531 1.522814,-0.38327 3.138,-0.668673 4.535156,-0.982422 -1.688841,-1.749317 -3.719208,-3.620849 -7.308594,-4.140625 z m -20.490234,0.298828 -2.617188,1.689454 2.603516,1.716796 z m -0.02148,6.259766 -2.617187,1.6875 2.603516,1.71875 z m 4.304688,5.742188 1.480469,2.941406 6.460937,0.03711 1.503906,-2.927734 z m 2.982422,4.707031 -0.08789,26.27539 3.449219,-2.861328 0.08008,-23.398437 z m 8.603515,0.04102 c -1.651555,0.03202 -1.291015,3.085938 -1.291015,3.085938 l 0.335937,11.859375 0.501953,3.980469 c 0,0 1.516219,1.66006 1.902344,0.816406 0.38694,-0.847057 0.591797,-5.09961 0.591797,-5.09961 0,0 1.679431,4.398996 2.603516,3.970704 4.98853,-1.377121 3.458984,-3.371094 3.458984,-3.371094 0,0 -3.727154,-3.451841 -3.736328,-3.890625 -0.0037,-0.265109 2.806088,1.699706 4.421875,2.947265 3.766087,-0.852391 3.958984,-4.294921 3.958984,-4.294921 0,0 -2.685142,-0.600335 -7.095703,-3.517579 9.16481,3.642802 10.100743,-3.289014 10.265625,-3.972656 0.398039,-2.173932 -0.0293,-2.503906 -0.0293,-2.503906 0,0 -14.236292,-0.04519 -15.888672,-0.0098 z m -14.115234,0.0078 c -1.652375,-0.03542 -15.8886719,0.0098 -15.8886719,0.0098 0,0 -0.4273332,0.329973 -0.029297,2.503907 0.1648815,0.683642 1.1008167,7.613505 10.2656249,3.970703 -4.410559,2.917244 -7.095703,3.519531 -7.095703,3.519531 0,0 0.192896,3.440577 3.958985,4.292969 1.615788,-1.247563 4.425583,-3.210422 4.421874,-2.945313 -0.0092,0.438783 -3.738281,3.890625 -3.738281,3.890625 0,0 -1.527593,1.993976 3.460938,3.371094 0.924084,0.428291 2.603515,-3.970703 2.603515,-3.970703 0,0 0.204856,4.252552 0.591797,5.099609 0.386122,0.843656 1.902344,-0.816406 1.902344,-0.816406 l 0.5,-3.980469 0.337891,-11.861328 c 0,0 0.360539,-3.051962 -1.291016,-3.083984 z" />
    </clipPath>
  </defs>
  <sodipodi:namedview
     pagecolor="#ffffff"
     bordercolor="#666666"
     borderopacity="1"
     objecttolerance="10"
     gridtolerance="10"
     guidetolerance="10"
     inkscape:pageopacity="0"
     inkscape:pageshadow="2"
     inkscape:window-width="1355"
     inkscape:window-height="912"
     id="namedview24"
     showgrid="false"
     inkscape:zoom="12.890625"
     inkscape:cx="32.193939"
     inkscape:cy="38.438788"
     inkscape:window-x="41"
     inkscape:window-y="84"
     inkscape:window-maximized="0"
     inkscape:current-layer="svg22"
     inkscape:pagecheckerboard="0" />
  <path
     style="fill:#29292a;stroke-width:1.04509"
     width="58.203762"
     height="58.847145"
     x="3.0016749"
     y="2.7117038"
     rx="29.1024"
     ry="29.424097"
     id="rect4"
     sodipodi:type="rect"
     clip-path="url(#clipPath135)"
     inkscape:path-effect="#path-effect139"
     d="m 32.103556,2.7117038 c 16.122442,0 29.101881,13.1229132 29.101881,29.4235722 0,16.30066 -12.979439,29.423573 -29.101881,29.423573 -16.122442,0 -29.1018811,-13.122913 -29.1018811,-29.423573 0,-16.300659 12.9794391,-29.4235722 29.1018811,-29.4235722 z" />
  <g
     id="g6"
     style="opacity:0.85;fill:#ffffff"
     transform="matrix(0.03733402,-0.01467721,0.01611073,0.03401205,-16.970925,34.435064)" />
</svg>
