<?xml version="1.0" encoding="UTF-8" standalone="no"?>
<svg
   width="64"
   height="64"
   version="1"
   id="svg22"
   sodipodi:docname="steam_icon_816340.svg"
   inkscape:version="1.1 (1:1.1+202106031931+af4d65493e)"
   xmlns:inkscape="http://www.inkscape.org/namespaces/inkscape"
   xmlns:sodipodi="http://sodipodi.sourceforge.net/DTD/sodipodi-0.dtd"
   xmlns="http://www.w3.org/2000/svg"
   xmlns:svg="http://www.w3.org/2000/svg"
   xmlns:rdf="http://www.w3.org/1999/02/22-rdf-syntax-ns#"
   xmlns:cc="http://creativecommons.org/ns#"
   xmlns:dc="http://purl.org/dc/elements/1.1/">
  <metadata
     id="metadata28">
    <rdf:RDF>
      <cc:Work
         rdf:about="">
        <dc:format>image/svg+xml</dc:format>
        <dc:type
           rdf:resource="http://purl.org/dc/dcmitype/StillImage" />
      </cc:Work>
    </rdf:RDF>
  </metadata>
  <defs
     id="defs26">
    <inkscape:path-effect
       effect="powerclip"
       id="path-effect7048"
       is_visible="true"
       lpeversion="1"
       inverse="true"
       flatten="false"
       hide_clip="false"
       message="Use fill-rule evenodd on &lt;b&gt;fill and stroke&lt;/b&gt; dialog if no flatten result after convert clip to paths." />
    <clipPath
       clipPathUnits="userSpaceOnUse"
       id="clipPath7044">
      <path
         id="path7046"
         d="m 8.2949219,21.421875 v 0.779297 c 1.1780013,0 1.9628021,0.20736 2.3554691,0.623047 0.327222,0.353333 0.490234,0.883175 0.490234,1.589842 v 15.089844 c 0,0.893727 -0.250212,1.486364 -0.751953,1.777344 -0.305408,0.187059 -1.0030082,0.331625 -2.0937501,0.435547 v 0.779297 H 19.322266 v -0.779297 c -1.047113,-0.124707 -1.746667,-0.290204 -2.095704,-0.498047 -0.523556,-0.311765 -0.785156,-0.88347 -0.785156,-1.714844 v -6.111328 l 0.884766,-0.779297 5.955078,7.078125 c 0.523556,0.602746 0.785156,1.059329 0.785156,1.371094 0,0.270196 -0.1744,0.448112 -0.523437,0.53125 -0.349037,0.08314 -1.037203,0.123047 -2.0625,0.123047 v 0.779297 h 10.996093 v -0.779297 c -0.370852,0 -0.676052,-0.03991 -0.916015,-0.123047 -0.239963,-0.08314 -0.469351,-0.261054 -0.6875,-0.53125 L 20.892578,29.277343 c 2.792299,-2.72275 4.4055,-4.270413 4.841797,-4.644532 1.897891,-1.621177 3.786033,-2.431639 5.662109,-2.431639 v -0.779297 h -9.457031 v 0.779297 c 1.134372,0 1.875573,0.08373 2.224609,0.25 0.370853,0.145491 0.556641,0.405179 0.556641,0.779296 0,0.33255 -0.142188,0.655031 -0.425781,0.966797 -0.130889,0.14549 -0.381101,0.394712 -0.751953,0.748046 l -7.101563,6.794922 v -6.671875 c 0,-1.247061 0.2616,-2.067987 0.785156,-2.462889 0.370853,-0.270197 1.079842,-0.404297 2.126954,-0.404297 v -0.779297 z m 25.3261721,0 v 0.779297 c 1.068927,0 1.789304,0.144566 2.160156,0.435547 0.479926,0.374118 0.71875,1.184578 0.71875,2.431639 v 13.78125 c 0,1.184708 -0.206612,1.953307 -0.621094,2.306641 -0.283593,0.228628 -1.036181,0.415056 -2.257812,0.560547 v 0.779297 H 44.681641 V 41.716796 C 43.503639,41.571305 42.75105,41.363945 42.423828,41.093749 42.009346,40.761199 41.802734,40.013532 41.802734,38.849608 V 32.73828 h 0.882813 l 6.773437,9.757813 h 6.707032 v -0.779297 c -0.261778,0 -0.500602,-0.0314 -0.71875,-0.09375 -0.218148,-0.08314 -0.42476,-0.248635 -0.621094,-0.498047 l -6.578125,-8.884766 c 1.461594,-0.436471 2.54216,-0.913985 3.240234,-1.433593 1.265261,-0.935296 1.896485,-2.23569 1.896485,-3.898438 0,-1.766669 -0.784801,-3.117439 -2.355469,-4.052733 -1.570669,-0.95608 -3.860646,-1.433594 -6.871094,-1.433594 z m 10.208984,1.060547 c 1.352521,0 2.345886,0.362391 2.978516,1.089843 0.654445,0.706667 0.980468,1.839611 0.980468,3.398437 0,1.953729 -0.468211,3.262636 -1.40625,3.927735 -0.785333,0.561177 -2.311334,0.841796 -4.580078,0.841796 v -7.949218 c 0.08726,-0.561178 0.227495,-0.915056 0.423828,-1.060546 0.218149,-0.166275 0.752738,-0.248047 1.603516,-0.248047 z"
         style="display:none" />
      <path
         id="lpe_path-effect7048"
         class="powerclip"
         d="M -1.9983251,-2.2882962 H 66.205437 V 66.558849 H -1.9983251 Z M 8.2949219,21.421875 v 0.779297 c 1.1780013,0 1.9628021,0.20736 2.3554691,0.623047 0.327222,0.353333 0.490234,0.883175 0.490234,1.589842 v 15.089844 c 0,0.893727 -0.250212,1.486364 -0.751953,1.777344 -0.305408,0.187059 -1.0030082,0.331625 -2.0937501,0.435547 v 0.779297 H 19.322266 v -0.779297 c -1.047113,-0.124707 -1.746667,-0.290204 -2.095704,-0.498047 -0.523556,-0.311765 -0.785156,-0.88347 -0.785156,-1.714844 v -6.111328 l 0.884766,-0.779297 5.955078,7.078125 c 0.523556,0.602746 0.785156,1.059329 0.785156,1.371094 0,0.270196 -0.1744,0.448112 -0.523437,0.53125 -0.349037,0.08314 -1.037203,0.123047 -2.0625,0.123047 v 0.779297 h 10.996093 v -0.779297 c -0.370852,0 -0.676052,-0.03991 -0.916015,-0.123047 -0.239963,-0.08314 -0.469351,-0.261054 -0.6875,-0.53125 L 20.892578,29.277343 c 2.792299,-2.72275 4.4055,-4.270413 4.841797,-4.644532 1.897891,-1.621177 3.786033,-2.431639 5.662109,-2.431639 v -0.779297 h -9.457031 v 0.779297 c 1.134372,0 1.875573,0.08373 2.224609,0.25 0.370853,0.145491 0.556641,0.405179 0.556641,0.779296 0,0.33255 -0.142188,0.655031 -0.425781,0.966797 -0.130889,0.14549 -0.381101,0.394712 -0.751953,0.748046 l -7.101563,6.794922 v -6.671875 c 0,-1.247061 0.2616,-2.067987 0.785156,-2.462889 0.370853,-0.270197 1.079842,-0.404297 2.126954,-0.404297 v -0.779297 z m 25.3261721,0 v 0.779297 c 1.068927,0 1.789304,0.144566 2.160156,0.435547 0.479926,0.374118 0.71875,1.184578 0.71875,2.431639 v 13.78125 c 0,1.184708 -0.206612,1.953307 -0.621094,2.306641 -0.283593,0.228628 -1.036181,0.415056 -2.257812,0.560547 v 0.779297 H 44.681641 V 41.716796 C 43.503639,41.571305 42.75105,41.363945 42.423828,41.093749 42.009346,40.761199 41.802734,40.013532 41.802734,38.849608 V 32.73828 h 0.882813 l 6.773437,9.757813 h 6.707032 v -0.779297 c -0.261778,0 -0.500602,-0.0314 -0.71875,-0.09375 -0.218148,-0.08314 -0.42476,-0.248635 -0.621094,-0.498047 l -6.578125,-8.884766 c 1.461594,-0.436471 2.54216,-0.913985 3.240234,-1.433593 1.265261,-0.935296 1.896485,-2.23569 1.896485,-3.898438 0,-1.766669 -0.784801,-3.117439 -2.355469,-4.052733 -1.570669,-0.95608 -3.860646,-1.433594 -6.871094,-1.433594 z m 10.208984,1.060547 c -0.850778,0 -1.385367,0.08177 -1.603516,0.248047 -0.196333,0.14549 -0.336568,0.499368 -0.423828,1.060546 v 7.949218 c 2.268744,0 3.794745,-0.280619 4.580078,-0.841796 0.938039,-0.665099 1.40625,-1.974006 1.40625,-3.927735 0,-1.558826 -0.326023,-2.69177 -0.980468,-3.398437 -0.63263,-0.727452 -1.625995,-1.089843 -2.978516,-1.089843 z" />
    </clipPath>
  </defs>
  <sodipodi:namedview
     pagecolor="#ffffff"
     bordercolor="#666666"
     borderopacity="1"
     objecttolerance="10"
     gridtolerance="10"
     guidetolerance="10"
     inkscape:pageopacity="0"
     inkscape:pageshadow="2"
     inkscape:window-width="1355"
     inkscape:window-height="912"
     id="namedview24"
     showgrid="false"
     inkscape:zoom="6.4453125"
     inkscape:cx="39.873939"
     inkscape:cy="13.110303"
     inkscape:window-x="275"
     inkscape:window-y="84"
     inkscape:window-maximized="0"
     inkscape:current-layer="svg22"
     inkscape:pagecheckerboard="0" />
  <path
     style="fill:#29292a;stroke-width:1.04509"
     width="58.203762"
     height="58.847145"
     x="3.0016749"
     y="2.7117038"
     rx="29.1024"
     ry="29.424097"
     id="rect4"
     clip-path="url(#clipPath7044)"
     inkscape:path-effect="#path-effect7048"
     d="m 32.103556,2.7117038 c 16.122442,0 29.101881,13.1229132 29.101881,29.4235722 0,16.30066 -12.979439,29.423573 -29.101881,29.423573 -16.122442,0 -29.1018811,-13.122913 -29.1018811,-29.423573 0,-16.300659 12.9794391,-29.4235722 29.1018811,-29.4235722 z"
     sodipodi:type="rect" />
  <g
     aria-label="BG"
     transform="scale(0.97514702,1.0254864)"
     id="text6568"
     style="font-size:34.1545px;line-height:1.25;font-family:'padmaa-Bold.1.1';-inkscape-font-specification:'padmaa-Bold.1.1';opacity:0.85;fill:#ffffff;stroke-width:0.85386">
    <text
       xml:space="preserve"
       style="font-size:40px;line-height:1.25;font-family:Ancient;-inkscape-font-specification:Ancient;fill:#ffffff"
       x="5.9679508"
       y="40.362118"
       id="text3216"
       transform="scale(1.0254864,0.97514701)"><tspan
         sodipodi:role="line"
         id="tspan3214"
         x="5.9679508"
         y="40.362118"
         style="fill:#ffffff" /></text>
    <g
       aria-label="KR"
       transform="scale(1.0506008,0.95183633)"
       id="text4738"
       style="font-size:32.7066px;stroke-width:0.698171" />
  </g>
</svg>
