<?xml version="1.0" encoding="UTF-8" standalone="no"?>
<svg
   width="64"
   height="64"
   version="1"
   id="svg22"
   sodipodi:docname="steam_icon_323190.svg"
   inkscape:version="1.1 (1:1.1+rc+202105240936+c4e8f9ed74)"
   xmlns:inkscape="http://www.inkscape.org/namespaces/inkscape"
   xmlns:sodipodi="http://sodipodi.sourceforge.net/DTD/sodipodi-0.dtd"
   xmlns="http://www.w3.org/2000/svg"
   xmlns:svg="http://www.w3.org/2000/svg"
   xmlns:rdf="http://www.w3.org/1999/02/22-rdf-syntax-ns#"
   xmlns:cc="http://creativecommons.org/ns#"
   xmlns:dc="http://purl.org/dc/elements/1.1/">
  <metadata
     id="metadata28">
    <rdf:RDF>
      <cc:Work
         rdf:about="">
        <dc:format>image/svg+xml</dc:format>
        <dc:type
           rdf:resource="http://purl.org/dc/dcmitype/StillImage" />
      </cc:Work>
    </rdf:RDF>
  </metadata>
  <defs
     id="defs26">
    <inkscape:path-effect
       effect="powerclip"
       id="path-effect246"
       is_visible="true"
       lpeversion="1"
       inverse="true"
       flatten="false"
       hide_clip="false"
       message="Use fill-rule evenodd on &lt;b&gt;fill and stroke&lt;/b&gt; dialog if no flatten result after convert clip to paths." />
    <clipPath
       clipPathUnits="userSpaceOnUse"
       id="clipPath242">
      <path
         id="path244"
         style="display:none;fill:#cccccc;stroke-width:0.102677"
         d="m 31.814452,11.607422 c -0.50042,0.01159 -0.998539,0.166953 -1.398437,0.484375 -0.602863,0.478516 -0.627782,0.596087 -0.6875,3.277344 l -0.05664,2.498046 -1.160156,-0.972657 c -1.239112,-1.038231 -1.616991,-1.23376 -2.371094,-1.230468 -1.593866,0.0069 -2.655681,1.394457 -1.990234,2.601562 0.132322,0.240028 1.193137,1.208732 2.894531,2.648437 l 2.683594,2.271485 v 2.865234 c 0,1.575482 -0.02241,2.865235 -0.04883,2.865235 -0.07192,0 -5.672929,-2.747508 -5.777344,-2.833985 -0.04954,-0.04103 -0.511295,-1.412381 -1.027344,-3.046875 -0.516049,-1.634495 -0.995091,-3.087843 -1.064453,-3.230468 -0.187175,-0.384852 -0.921069,-0.905158 -1.380859,-0.978516 -1.119976,-0.178619 -2.070254,0.172017 -2.535157,0.933594 -0.305949,0.501181 -0.276219,1.015441 0.136719,2.326172 0.200599,0.636742 0.337518,1.181072 0.304688,1.208984 -0.03283,0.02791 -1.121234,-0.469409 -2.417969,-1.105469 -2.511481,-1.231909 -2.922567,-1.357832 -3.724609,-1.132812 -0.529794,0.148643 -1.165149,0.622482 -1.357421,1.013671 -0.309581,0.629877 -0.140561,1.53342 0.380859,2.039063 0.09344,0.09061 1.239595,0.687816 2.546874,1.326172 1.307286,0.638348 2.376284,1.183275 2.376953,1.210937 6.21e-4,0.02765 -0.637043,0.193214 -1.417969,0.369141 -1.586323,0.357353 -1.872387,0.459238 -2.214843,0.779297 -1.150721,1.075469 -0.594618,2.733607 1.041016,3.103516 0.5574,0.126052 0.570407,0.122198 4.982421,-0.884766 l 3.111328,-0.708984 2.902344,1.423828 c 1.595518,0.783517 2.912131,1.432654 2.925781,1.443359 0.01364,0.01069 -1.293743,0.66616 -2.904297,1.455078 l -2.927734,1.433594 -3.556641,-0.8125 c -2.048995,-0.468776 -3.770002,-0.813323 -4.0625,-0.8125 -0.534863,0.0016 -1.257876,0.259767 -1.566405,0.558594 -0.774523,0.750158 -0.707442,1.980656 0.144531,2.65625 0.349343,0.277017 0.793975,0.420117 2.291015,0.740234 0.689048,0.147343 1.252619,0.292632 1.251953,0.322266 -7.78e-4,0.02961 -0.890165,0.48807 -1.976563,1.019531 -2.817777,1.378462 -2.990909,1.482317 -3.249999,1.914062 -0.266139,0.443478 -0.301963,1.191062 -0.07812,1.646485 0.192272,0.39119 0.827629,0.865028 1.357421,1.013672 0.805106,0.225883 1.220673,0.09912 3.730468,-1.132813 1.294927,-0.635614 2.379552,-1.133135 2.41211,-1.105469 0.03253,0.02766 -0.104089,0.572242 -0.304688,1.208985 -0.200606,0.636751 -0.361548,1.340777 -0.357422,1.566406 0.02073,1.166154 1.353556,1.983754 2.744141,1.683594 0.566505,-0.122283 1.195135,-0.562868 1.398437,-0.980469 0.06639,-0.136352 0.543434,-1.585246 1.060547,-3.220703 0.517114,-1.635458 0.978953,-3.00639 1.027344,-3.044922 0.110209,-0.08765 5.705126,-2.833984 5.773437,-2.833984 0.02751,0 0.05078,1.289752 0.05078,2.865234 v 2.863281 l -2.683594,2.271485 c -1.701394,1.439697 -2.762209,2.410363 -2.894531,2.65039 -0.668894,1.213369 0.406313,2.603516 2.013671,2.603516 0.735349,0 1.164205,-0.221012 2.396485,-1.240234 l 1.167969,-0.966797 v 2.433593 c 0,2.204863 0.01888,2.46483 0.210937,2.783203 0.262618,0.435343 0.619046,0.723632 1.125,0.910156 1.058253,0.390128 2.302211,-0.02635 2.796875,-0.9375 0.182555,-0.336253 0.204835,-0.647561 0.207031,-2.783202 l 0.0039,-2.40625 1.166015,0.966797 c 1.232283,1.019222 1.661137,1.240234 2.396485,1.240234 1.607358,0 2.682569,-1.390147 2.013672,-2.603516 -0.132322,-0.240027 -1.191186,-1.210693 -2.892579,-2.65039 L 34.072265,41.17578 v -2.863281 c 0,-1.575482 0.01865,-2.865234 0.04297,-2.865234 0.06518,0 5.676656,2.749729 5.775391,2.830078 0.04628,0.03764 0.513515,1.425656 1.037109,3.083984 0.523594,1.658329 1.018474,3.124616 1.101563,3.259766 0.176622,0.287292 0.67386,0.694914 1.044922,0.857422 0.651493,0.285325 1.978311,0.05271 2.482422,-0.435547 0.640368,-0.620228 0.682489,-1.227299 0.193359,-2.798828 -0.1921,-0.617199 -0.32384,-1.143964 -0.291016,-1.171875 0.03282,-0.0279 1.118979,0.468592 2.414063,1.103515 2.510332,1.230716 2.928938,1.356835 3.734374,1.13086 0.529795,-0.148644 1.163202,-0.622482 1.355469,-1.013672 0.221743,-0.451158 0.187549,-1.137917 -0.08203,-1.611328 -0.277294,-0.486964 -0.491894,-0.615876 -3.191405,-1.927735 -1.117682,-0.543144 -2.031167,-1.008646 -2.03125,-1.035156 -1.12e-4,-0.02651 0.438681,-0.145763 0.974609,-0.265625 2.335835,-0.522389 2.617224,-0.648628 3.039062,-1.351563 0.372949,-0.62147 0.226066,-1.593558 -0.316406,-2.103515 -0.34745,-0.326628 -1.047513,-0.566023 -1.636718,-0.558594 -0.328451,0.0043 -1.998562,0.340598 -4.060547,0.816406 l -3.501953,0.806641 -2.921875,-1.435547 c -2.446853,-1.202881 -2.891647,-1.45239 -2.734375,-1.541015 0.103283,-0.0582 1.418745,-0.710255 2.921875,-1.447266 l 2.732422,-1.339844 3.503906,0.808594 c 2.062554,0.475939 3.732085,0.812269 4.060547,0.816406 0.589205,0.0077 1.289268,-0.231965 1.636718,-0.558594 0.542472,-0.509965 0.689355,-1.482045 0.316406,-2.103515 -0.421838,-0.702935 -0.703227,-0.829174 -3.039062,-1.351563 -0.535928,-0.119862 -0.975027,-0.239115 -0.974609,-0.265625 4.35e-4,-0.02651 0.915845,-0.492341 2.033203,-1.035156 2.692704,-1.308104 2.911693,-1.44191 3.189452,-1.929687 0.269581,-0.473412 0.303775,-1.158217 0.08203,-1.609376 -0.192267,-0.391189 -0.825674,-0.865028 -1.355469,-1.013671 -0.805436,-0.225974 -1.224042,-0.09986 -3.734374,1.130859 -1.295084,0.634923 -2.381239,1.131427 -2.414063,1.103516 -0.03282,-0.0279 0.09892,-0.554678 0.291016,-1.171875 0.192099,-0.617198 0.347656,-1.322774 0.347656,-1.56836 0,-1.030732 -0.910967,-1.779297 -2.169922,-1.779297 -0.326033,0 -0.736304,0.06349 -0.910156,0.140625 -0.35131,0.155946 -0.838362,0.574536 -1.019531,0.875 -0.065,0.10781 -0.546306,1.553254 -1.070313,3.212891 -0.524008,1.659638 -0.990828,3.048317 -1.037109,3.085938 -0.09874,0.08031 -5.710215,2.830078 -5.775391,2.830078 -0.02432,0 -0.04297,-1.289753 -0.04297,-2.865235 v -2.865234 l 2.683593,-2.271485 c 1.701393,-1.439705 2.760257,-2.408409 2.892579,-2.648437 0.665446,-1.207105 -0.394416,-2.594976 -1.988282,-2.601562 -0.758984,-0.0033 -1.178478,0.209871 -2.421875,1.238281 l -1.166015,0.966797 -0.0039,-2.406249 c -0.0022,-2.128489 -0.02611,-2.44851 -0.207031,-2.78711 -0.377025,-0.705614 -1.212842,-1.087683 -2.046875,-1.068359 z" />
      <path
         id="lpe_path-effect246"
         style="fill:#cccccc;stroke-width:0.102677"
         class="powerclip"
         d="M -1.9983251,-2.2882962 H 66.205437 V 66.558849 H -1.9983251 Z M 31.814452,11.607422 c -0.50042,0.01159 -0.998539,0.166953 -1.398437,0.484375 -0.602863,0.478516 -0.627782,0.596087 -0.6875,3.277344 l -0.05664,2.498046 -1.160156,-0.972657 c -1.239112,-1.038231 -1.616991,-1.23376 -2.371094,-1.230468 -1.593866,0.0069 -2.655681,1.394457 -1.990234,2.601562 0.132322,0.240028 1.193137,1.208732 2.894531,2.648437 l 2.683594,2.271485 v 2.865234 c 0,1.575482 -0.02241,2.865235 -0.04883,2.865235 -0.07192,0 -5.672929,-2.747508 -5.777344,-2.833985 -0.04954,-0.04103 -0.511295,-1.412381 -1.027344,-3.046875 -0.516049,-1.634495 -0.995091,-3.087843 -1.064453,-3.230468 -0.187175,-0.384852 -0.921069,-0.905158 -1.380859,-0.978516 -1.119976,-0.178619 -2.070254,0.172017 -2.535157,0.933594 -0.305949,0.501181 -0.276219,1.015441 0.136719,2.326172 0.200599,0.636742 0.337518,1.181072 0.304688,1.208984 -0.03283,0.02791 -1.121234,-0.469409 -2.417969,-1.105469 -2.511481,-1.231909 -2.922567,-1.357832 -3.724609,-1.132812 -0.529794,0.148643 -1.165149,0.622482 -1.357421,1.013671 -0.309581,0.629877 -0.140561,1.53342 0.380859,2.039063 0.09344,0.09061 1.239595,0.687816 2.546874,1.326172 1.307286,0.638348 2.376284,1.183275 2.376953,1.210937 6.21e-4,0.02765 -0.637043,0.193214 -1.417969,0.369141 -1.586323,0.357353 -1.872387,0.459238 -2.214843,0.779297 -1.150721,1.075469 -0.594618,2.733607 1.041016,3.103516 0.5574,0.126052 0.570407,0.122198 4.982421,-0.884766 l 3.111328,-0.708984 2.902344,1.423828 c 1.595518,0.783517 2.912131,1.432654 2.925781,1.443359 0.01364,0.01069 -1.293743,0.66616 -2.904297,1.455078 l -2.927734,1.433594 -3.556641,-0.8125 c -2.048995,-0.468776 -3.770002,-0.813323 -4.0625,-0.8125 -0.534863,0.0016 -1.257876,0.259767 -1.566405,0.558594 -0.774523,0.750158 -0.707442,1.980656 0.144531,2.65625 0.349343,0.277017 0.793975,0.420117 2.291015,0.740234 0.689048,0.147343 1.252619,0.292632 1.251953,0.322266 -7.78e-4,0.02961 -0.890165,0.48807 -1.976563,1.019531 -2.817777,1.378462 -2.990909,1.482317 -3.249999,1.914062 -0.266139,0.443478 -0.301963,1.191062 -0.07812,1.646485 0.192272,0.39119 0.827629,0.865028 1.357421,1.013672 0.805106,0.225883 1.220673,0.09912 3.730468,-1.132813 1.294927,-0.635614 2.379552,-1.133135 2.41211,-1.105469 0.03253,0.02766 -0.104089,0.572242 -0.304688,1.208985 -0.200606,0.636751 -0.361548,1.340777 -0.357422,1.566406 0.02073,1.166154 1.353556,1.983754 2.744141,1.683594 0.566505,-0.122283 1.195135,-0.562868 1.398437,-0.980469 0.06639,-0.136352 0.543434,-1.585246 1.060547,-3.220703 0.517114,-1.635458 0.978953,-3.00639 1.027344,-3.044922 0.110209,-0.08765 5.705126,-2.833984 5.773437,-2.833984 0.02751,0 0.05078,1.289752 0.05078,2.865234 v 2.863281 l -2.683594,2.271485 c -1.701394,1.439697 -2.762209,2.410363 -2.894531,2.65039 -0.668894,1.213369 0.406313,2.603516 2.013671,2.603516 0.735349,0 1.164205,-0.221012 2.396485,-1.240234 l 1.167969,-0.966797 v 2.433593 c 0,2.204863 0.01888,2.46483 0.210937,2.783203 0.262618,0.435343 0.619046,0.723632 1.125,0.910156 1.058253,0.390128 2.302211,-0.02635 2.796875,-0.9375 0.182555,-0.336253 0.204835,-0.647561 0.207031,-2.783202 l 0.0039,-2.40625 1.166015,0.966797 c 1.232283,1.019222 1.661137,1.240234 2.396485,1.240234 1.607358,0 2.682569,-1.390147 2.013672,-2.603516 -0.132322,-0.240027 -1.191186,-1.210693 -2.892579,-2.65039 L 34.072265,41.17578 v -2.863281 c 0,-1.575482 0.01865,-2.865234 0.04297,-2.865234 0.06518,0 5.676656,2.749729 5.775391,2.830078 0.04628,0.03764 0.513515,1.425656 1.037109,3.083984 0.523594,1.658329 1.018474,3.124616 1.101563,3.259766 0.176622,0.287292 0.67386,0.694914 1.044922,0.857422 0.651493,0.285325 1.978311,0.05271 2.482422,-0.435547 0.640368,-0.620228 0.682489,-1.227299 0.193359,-2.798828 -0.1921,-0.617199 -0.32384,-1.143964 -0.291016,-1.171875 0.03282,-0.0279 1.118979,0.468592 2.414063,1.103515 2.510332,1.230716 2.928938,1.356835 3.734374,1.13086 0.529795,-0.148644 1.163202,-0.622482 1.355469,-1.013672 0.221743,-0.451158 0.187549,-1.137917 -0.08203,-1.611328 -0.277294,-0.486964 -0.491894,-0.615876 -3.191405,-1.927735 -1.117682,-0.543144 -2.031167,-1.008646 -2.03125,-1.035156 -1.12e-4,-0.02651 0.438681,-0.145763 0.974609,-0.265625 2.335835,-0.522389 2.617224,-0.648628 3.039062,-1.351563 0.372949,-0.62147 0.226066,-1.593558 -0.316406,-2.103515 -0.34745,-0.326628 -1.047513,-0.566023 -1.636718,-0.558594 -0.328451,0.0043 -1.998562,0.340598 -4.060547,0.816406 l -3.501953,0.806641 -2.921875,-1.435547 c -2.446853,-1.202881 -2.891647,-1.45239 -2.734375,-1.541015 0.103283,-0.0582 1.418745,-0.710255 2.921875,-1.447266 l 2.732422,-1.339844 3.503906,0.808594 c 2.062554,0.475939 3.732085,0.812269 4.060547,0.816406 0.589205,0.0077 1.289268,-0.231965 1.636718,-0.558594 0.542472,-0.509965 0.689355,-1.482045 0.316406,-2.103515 -0.421838,-0.702935 -0.703227,-0.829174 -3.039062,-1.351563 -0.535928,-0.119862 -0.975027,-0.239115 -0.974609,-0.265625 4.35e-4,-0.02651 0.915845,-0.492341 2.033203,-1.035156 2.692704,-1.308104 2.911693,-1.44191 3.189452,-1.929687 0.269581,-0.473412 0.303775,-1.158217 0.08203,-1.609376 -0.192267,-0.391189 -0.825674,-0.865028 -1.355469,-1.013671 -0.805436,-0.225974 -1.224042,-0.09986 -3.734374,1.130859 -1.295084,0.634923 -2.381239,1.131427 -2.414063,1.103516 -0.03282,-0.0279 0.09892,-0.554678 0.291016,-1.171875 0.192099,-0.617198 0.347656,-1.322774 0.347656,-1.56836 0,-1.030732 -0.910967,-1.779297 -2.169922,-1.779297 -0.326033,0 -0.736304,0.06349 -0.910156,0.140625 -0.35131,0.155946 -0.838362,0.574536 -1.019531,0.875 -0.065,0.10781 -0.546306,1.553254 -1.070313,3.212891 -0.524008,1.659638 -0.990828,3.048317 -1.037109,3.085938 -0.09874,0.08031 -5.710215,2.830078 -5.775391,2.830078 -0.02432,0 -0.04297,-1.289753 -0.04297,-2.865235 v -2.865234 l 2.683593,-2.271485 c 1.701393,-1.439705 2.760257,-2.408409 2.892579,-2.648437 0.665446,-1.207105 -0.394416,-2.594976 -1.988282,-2.601562 -0.758984,-0.0033 -1.178478,0.209871 -2.421875,1.238281 l -1.166015,0.966797 -0.0039,-2.406249 c -0.0022,-2.128489 -0.02611,-2.44851 -0.207031,-2.78711 -0.377025,-0.705614 -1.212842,-1.087683 -2.046875,-1.068359 z" />
    </clipPath>
  </defs>
  <sodipodi:namedview
     pagecolor="#ffffff"
     bordercolor="#666666"
     borderopacity="1"
     objecttolerance="10"
     gridtolerance="10"
     guidetolerance="10"
     inkscape:pageopacity="0"
     inkscape:pageshadow="2"
     inkscape:window-width="1355"
     inkscape:window-height="912"
     id="namedview24"
     showgrid="false"
     inkscape:zoom="6.4453125"
     inkscape:cx="39.873939"
     inkscape:cy="25.522424"
     inkscape:window-x="275"
     inkscape:window-y="84"
     inkscape:window-maximized="0"
     inkscape:current-layer="svg22"
     inkscape:pagecheckerboard="0" />
  <path
     style="fill:#29292a;stroke-width:1.04509"
     width="58.203762"
     height="58.847145"
     x="3.0016749"
     y="2.7117038"
     rx="29.1024"
     ry="29.424097"
     id="rect4"
     sodipodi:type="rect"
     clip-path="url(#clipPath242)"
     inkscape:path-effect="#path-effect246"
     d="m 32.103556,2.7117038 c 16.122442,0 29.101881,13.1229132 29.101881,29.4235722 0,16.30066 -12.979439,29.423573 -29.101881,29.423573 -16.122442,0 -29.1018811,-13.122913 -29.1018811,-29.423573 0,-16.300659 12.9794391,-29.4235722 29.1018811,-29.4235722 z" />
  <g
     aria-label="BG"
     transform="matrix(0.6655336,0,0,0.84426435,8.6522488,7.5593939)"
     id="text6568"
     style="font-size:34.1545px;line-height:1.25;font-family:'padmaa-Bold.1.1';-inkscape-font-specification:'padmaa-Bold.1.1';opacity:0.85;fill:#ffffff;stroke-width:0.85386">
    <text
       xml:space="preserve"
       style="font-size:40px;line-height:1.25;font-family:Ancient;-inkscape-font-specification:Ancient;fill:#ffffff"
       x="5.9679508"
       y="40.362118"
       id="text3216"
       transform="scale(1.0254864,0.97514701)"><tspan
         sodipodi:role="line"
         id="tspan3214"
         x="5.9679508"
         y="40.362118"
         style="fill:#ffffff" /></text>
  </g>
</svg>
