<?xml version="1.0" encoding="UTF-8" standalone="no"?>
<svg
   width="64"
   height="64"
   version="1"
   id="svg22"
   sodipodi:docname="steam_icon_367520.svg"
   inkscape:version="1.1 (1:1.1+202105261517+ce6663b3b7)"
   xmlns:inkscape="http://www.inkscape.org/namespaces/inkscape"
   xmlns:sodipodi="http://sodipodi.sourceforge.net/DTD/sodipodi-0.dtd"
   xmlns="http://www.w3.org/2000/svg"
   xmlns:svg="http://www.w3.org/2000/svg"
   xmlns:rdf="http://www.w3.org/1999/02/22-rdf-syntax-ns#"
   xmlns:cc="http://creativecommons.org/ns#"
   xmlns:dc="http://purl.org/dc/elements/1.1/">
  <metadata
     id="metadata28">
    <rdf:RDF>
      <cc:Work
         rdf:about="">
        <dc:format>image/svg+xml</dc:format>
        <dc:type
           rdf:resource="http://purl.org/dc/dcmitype/StillImage" />
      </cc:Work>
    </rdf:RDF>
  </metadata>
  <defs
     id="defs26">
    <inkscape:path-effect
       effect="powerclip"
       id="path-effect17"
       is_visible="true"
       lpeversion="1"
       inverse="true"
       flatten="false"
       hide_clip="false"
       message="Use fill-rule evenodd on &lt;b&gt;fill and stroke&lt;/b&gt; dialog if no flatten result after convert clip to paths." />
    <clipPath
       clipPathUnits="userSpaceOnUse"
       id="clipPath13">
      <path
         style="display:none;fill:#ffffff;stroke-width:1.06826"
         d="m 20.092891,8.7463086 c -0.204464,0.017433 -0.458128,0.1287508 -0.821172,0.3426314 -2.037025,1.200047 -4.303063,4.682363 -5.287407,8.123474 -0.877785,3.068588 -0.962778,6.432413 -0.234251,9.166942 0.836233,3.044574 2.325569,5.622317 4.324415,7.768381 0.579319,1.5305 -0.233719,2.599935 0.139007,6.682714 0.872143,9.764003 2.814394,15.639554 13.496774,15.639554 10.682379,0 12.624629,-5.875551 13.495802,-15.639554 0.372726,-4.082779 -0.440312,-5.152214 0.139006,-6.682714 1.998846,-2.146064 3.489153,-4.723807 4.325387,-7.768381 0.728527,-2.734529 0.643533,-6.098354 -0.23425,-9.166942 C 48.451858,13.771303 46.185817,10.288987 44.148794,9.08894 43.785749,8.8750574 43.532086,8.7637542 43.327622,8.7463086 c -0.204463,-0.017454 -0.357686,0.061693 -0.522561,0.2304975 0,0 1.396523,1.7346359 1.552242,3.4387709 -0.292305,1.243544 -2.262722,1.043467 -2.262722,1.043467 0,-1e-6 3.037417,3.38619 3.57299,6.020965 0.431342,2.213607 0.197739,6.303641 -1.830256,7.329192 0,0 -5.047414,-2.118084 -12.127058,-2.118084 -7.079646,0 -12.127058,2.118084 -12.127058,2.118084 -2.027996,-1.025551 -2.2616,-5.115585 -1.830258,-7.329192 0.535574,-2.634775 3.572991,-6.020966 3.572991,-6.020965 0,0 -1.970416,0.200077 -2.262722,-1.043467 0.15572,-1.704135 1.552242,-3.4387709 1.552242,-3.4387709 C 20.450579,8.8080008 20.297354,8.7288558 20.092891,8.7463086 Z"
         id="path15" />
      <path
         id="lpe_path-effect17"
         style="fill:#ffffff;stroke-width:1.06826"
         class="powerclip"
         d="M -1.9983251,-2.2882962 H 66.205437 V 66.558849 H -1.9983251 Z M 20.092891,8.7463086 c -0.204464,0.017433 -0.458128,0.1287508 -0.821172,0.3426314 -2.037025,1.200047 -4.303063,4.682363 -5.287407,8.123474 -0.877785,3.068588 -0.962778,6.432413 -0.234251,9.166942 0.836233,3.044574 2.325569,5.622317 4.324415,7.768381 0.579319,1.5305 -0.233719,2.599935 0.139007,6.682714 0.872143,9.764003 2.814394,15.639554 13.496774,15.639554 10.682379,0 12.624629,-5.875551 13.495802,-15.639554 0.372726,-4.082779 -0.440312,-5.152214 0.139006,-6.682714 1.998846,-2.146064 3.489153,-4.723807 4.325387,-7.768381 0.728527,-2.734529 0.643533,-6.098354 -0.23425,-9.166942 C 48.451858,13.771303 46.185817,10.288987 44.148794,9.08894 43.785749,8.8750574 43.532086,8.7637542 43.327622,8.7463086 c -0.204463,-0.017454 -0.357686,0.061693 -0.522561,0.2304975 0,0 1.396523,1.7346359 1.552242,3.4387709 -0.292305,1.243544 -2.262722,1.043467 -2.262722,1.043467 0,-1e-6 3.037417,3.38619 3.57299,6.020965 0.431342,2.213607 0.197739,6.303641 -1.830256,7.329192 0,0 -5.047414,-2.118084 -12.127058,-2.118084 -7.079646,0 -12.127058,2.118084 -12.127058,2.118084 -2.027996,-1.025551 -2.2616,-5.115585 -1.830258,-7.329192 0.535574,-2.634775 3.572991,-6.020966 3.572991,-6.020965 0,0 -1.970416,0.200077 -2.262722,-1.043467 0.15572,-1.704135 1.552242,-3.4387709 1.552242,-3.4387709 C 20.450579,8.8080008 20.297354,8.7288558 20.092891,8.7463086 Z" />
    </clipPath>
  </defs>
  <sodipodi:namedview
     pagecolor="#ffffff"
     bordercolor="#666666"
     borderopacity="1"
     objecttolerance="10"
     gridtolerance="10"
     guidetolerance="10"
     inkscape:pageopacity="0"
     inkscape:pageshadow="2"
     inkscape:window-width="1355"
     inkscape:window-height="912"
     id="namedview24"
     showgrid="false"
     inkscape:zoom="12.890625"
     inkscape:cx="39.873939"
     inkscape:cy="31.767273"
     inkscape:window-x="100"
     inkscape:window-y="68"
     inkscape:window-maximized="0"
     inkscape:current-layer="svg22"
     inkscape:pagecheckerboard="0" />
  <path
     style="fill:#29292a;stroke-width:1.04509"
     width="58.203762"
     height="58.847145"
     x="3.0016749"
     y="2.7117038"
     rx="29.1024"
     ry="29.424097"
     id="rect4"
     clip-path="url(#clipPath13)"
     inkscape:path-effect="#path-effect17"
     d="m 32.103556,2.7117038 c 16.122442,0 29.101881,13.1229132 29.101881,29.4235722 0,16.30066 -12.979439,29.423573 -29.101881,29.423573 -16.122442,0 -29.1018811,-13.122913 -29.1018811,-29.423573 0,-16.300659 12.9794391,-29.4235722 29.1018811,-29.4235722 z"
     sodipodi:type="rect" />
  <g
     aria-label="BG"
     transform="scale(0.97514702,1.0254864)"
     id="text6568"
     style="font-size:34.1545px;line-height:1.25;font-family:'padmaa-Bold.1.1';-inkscape-font-specification:'padmaa-Bold.1.1';opacity:1;fill:#ffffff;stroke-width:0.85386">
    <text
       xml:space="preserve"
       style="font-size:40px;line-height:1.25;font-family:Ancient;-inkscape-font-specification:Ancient;fill:#ffffff"
       x="5.9679508"
       y="40.362118"
       id="text3216"
       transform="scale(1.0254864,0.97514701)"><tspan
         sodipodi:role="line"
         id="tspan3214"
         x="5.9679508"
         y="40.362118"
         style="fill:#ffffff" /></text>
    <ellipse
       style="opacity:1;fill:#29292a;stroke-width:1.07203"
       cx="54.813999"
       cy="19.035263"
       rx="3.9354718"
       ry="5.1930623"
       transform="matrix(0.8606461,0.50920359,-0.403784,0.91485435,0,0)"
       id="ellipse10" />
    <ellipse
       id="ellipse840"
       style="opacity:1;fill:#29292a;stroke-width:1.07203"
       cx="-5.1056194"
       cy="52.387352"
       rx="3.9351182"
       ry="5.1930623"
       transform="matrix(-0.8606461,0.50920359,0.403784,0.91485435,0,0)" />
  </g>
</svg>
