<?xml version="1.0" encoding="UTF-8" standalone="no"?>
<svg
   width="64"
   height="64"
   version="1"
   id="svg22"
   sodipodi:docname="steam_icon_650940.svg"
   inkscape:version="1.1 (1:1.1+202105261517+ce6663b3b7)"
   xmlns:inkscape="http://www.inkscape.org/namespaces/inkscape"
   xmlns:sodipodi="http://sodipodi.sourceforge.net/DTD/sodipodi-0.dtd"
   xmlns="http://www.w3.org/2000/svg"
   xmlns:svg="http://www.w3.org/2000/svg"
   xmlns:rdf="http://www.w3.org/1999/02/22-rdf-syntax-ns#"
   xmlns:cc="http://creativecommons.org/ns#"
   xmlns:dc="http://purl.org/dc/elements/1.1/">
  <metadata
     id="metadata28">
    <rdf:RDF>
      <cc:Work
         rdf:about="">
        <dc:format>image/svg+xml</dc:format>
        <dc:type
           rdf:resource="http://purl.org/dc/dcmitype/StillImage" />
      </cc:Work>
    </rdf:RDF>
  </metadata>
  <defs
     id="defs26">
    <inkscape:path-effect
       effect="powerclip"
       id="path-effect330"
       is_visible="true"
       lpeversion="1"
       inverse="true"
       flatten="false"
       hide_clip="false"
       message="Use fill-rule evenodd on &lt;b&gt;fill and stroke&lt;/b&gt; dialog if no flatten result after convert clip to paths." />
    <clipPath
       clipPathUnits="userSpaceOnUse"
       id="clipPath326">
      <path
         id="path328"
         style="display:none;fill:#f2f2f2;stroke-width:0.081751"
         d="m 17.644531,17.439453 5.730469,7.958985 6.599609,-7.958985 z m 15.773438,0 6.384766,7.923828 6.628907,-7.923828 z m 15.052735,1.558594 -7.105469,8.496094 h 14.074219 z m -32.73047,0.183594 -6.8183589,8.3125 H 21.724609 Z m 15.953125,0.207031 -6.722656,8.105469 H 38.22461 Z M 9.1757814,30.109375 29.027344,51.107422 21.107422,30.109375 Z m 14.6640626,0 8.353515,22.144531 8.755861,-22.144531 z m 19.861329,0 -8.47461,21.431641 19.976563,-21.431641 z" />
      <path
         id="lpe_path-effect330"
         style="fill:#f2f2f2;stroke-width:0.081751"
         class="powerclip"
         d="M -1.9983251,-2.2882962 H 66.205437 V 66.558849 H -1.9983251 Z M 17.644531,17.439453 23.375,25.398438 29.974609,17.439453 Z m 15.773438,0 6.384766,7.923828 6.628907,-7.923828 z m 15.052735,1.558594 -7.105469,8.496094 h 14.074219 z m -32.73047,0.183594 -6.8183589,8.3125 H 21.724609 Z m 15.953125,0.207031 -6.722656,8.105469 H 38.22461 Z M 9.1757814,30.109375 29.027344,51.107422 21.107422,30.109375 Z m 14.6640626,0 8.353515,22.144531 8.755861,-22.144531 z m 19.861329,0 -8.47461,21.431641 19.976563,-21.431641 z" />
    </clipPath>
  </defs>
  <sodipodi:namedview
     pagecolor="#ffffff"
     bordercolor="#666666"
     borderopacity="1"
     objecttolerance="10"
     gridtolerance="10"
     guidetolerance="10"
     inkscape:pageopacity="0"
     inkscape:pageshadow="2"
     inkscape:window-width="1355"
     inkscape:window-height="912"
     id="namedview24"
     showgrid="false"
     inkscape:zoom="9.1150483"
     inkscape:cx="40.043671"
     inkscape:cy="22.106301"
     inkscape:window-x="55"
     inkscape:window-y="64"
     inkscape:window-maximized="0"
     inkscape:current-layer="svg22"
     inkscape:pagecheckerboard="0" />
  <path
     style="fill:#29292a;stroke-width:1.04509"
     width="58.203762"
     height="58.847145"
     x="3.0016749"
     y="2.7117038"
     rx="29.1024"
     ry="29.424097"
     id="rect4"
     sodipodi:type="rect"
     clip-path="url(#clipPath326)"
     inkscape:path-effect="#path-effect330"
     d="m 32.103556,2.7117038 c 16.122442,0 29.101881,13.1229132 29.101881,29.4235722 0,16.30066 -12.979439,29.423573 -29.101881,29.423573 -16.122442,0 -29.1018811,-13.122913 -29.1018811,-29.423573 0,-16.300659 12.9794391,-29.4235722 29.1018811,-29.4235722 z" />
  <g
     aria-label="BG"
     transform="scale(0.97514702,1.0254864)"
     id="text6568"
     style="font-size:34.1545px;line-height:1.25;font-family:'padmaa-Bold.1.1';-inkscape-font-specification:'padmaa-Bold.1.1';opacity:0.85;fill:#ffffff;stroke-width:0.85386">
    <text
       xml:space="preserve"
       style="font-size:40px;line-height:1.25;font-family:Ancient;-inkscape-font-specification:Ancient;fill:#ffffff"
       x="5.9679508"
       y="40.362118"
       id="text3216"
       transform="scale(1.0254864,0.97514701)"><tspan
         sodipodi:role="line"
         id="tspan3214"
         x="5.9679508"
         y="40.362118"
         style="fill:#ffffff" /></text>
    <g
       id="g34"
       style="fill:#f2f2f2"
       transform="matrix(0.09761924,0,0,0.09390248,8.0108793,9.9417463)" />
  </g>
</svg>
