<?xml version="1.0" encoding="UTF-8" standalone="no"?>
<svg
   width="64"
   height="64"
   version="1"
   id="svg22"
   sodipodi:docname="steam_icon_719040.svg"
   inkscape:version="1.1 (1:1.1+rc+202105240936+c4e8f9ed74)"
   xmlns:inkscape="http://www.inkscape.org/namespaces/inkscape"
   xmlns:sodipodi="http://sodipodi.sourceforge.net/DTD/sodipodi-0.dtd"
   xmlns="http://www.w3.org/2000/svg"
   xmlns:svg="http://www.w3.org/2000/svg"
   xmlns:rdf="http://www.w3.org/1999/02/22-rdf-syntax-ns#"
   xmlns:cc="http://creativecommons.org/ns#"
   xmlns:dc="http://purl.org/dc/elements/1.1/">
  <metadata
     id="metadata28">
    <rdf:RDF>
      <cc:Work
         rdf:about="">
        <dc:format>image/svg+xml</dc:format>
        <dc:type
           rdf:resource="http://purl.org/dc/dcmitype/StillImage" />
      </cc:Work>
    </rdf:RDF>
  </metadata>
  <defs
     id="defs26">
    <inkscape:path-effect
       effect="powerclip"
       id="path-effect106"
       is_visible="true"
       lpeversion="1"
       inverse="true"
       flatten="false"
       hide_clip="false"
       message="Use fill-rule evenodd on &lt;b&gt;fill and stroke&lt;/b&gt; dialog if no flatten result after convert clip to paths." />
    <clipPath
       clipPathUnits="userSpaceOnUse"
       id="clipPath102">
      <path
         style="display:none;fill:#000000;stroke-width:0.0784343"
         d="m 19.729049,51.757896 c -0.227843,-0.102415 -9.469245,-11.69124 -9.553991,-11.980809 -0.02727,-0.09319 -0.0015,-0.256964 0.05736,-0.363956 0.06829,-0.124224 1.132516,-0.828657 2.944713,-1.949161 2.996519,-1.852788 3.145842,-1.921603 3.529648,-1.62666 0.15212,0.116903 1.170115,1.392232 7.416017,9.290683 1.067437,1.34986 1.962493,2.514667 1.989013,2.588458 0.07669,0.213369 -0.08371,0.482617 -0.429178,0.720465 -0.833201,0.573636 -5.385903,3.340231 -5.554172,3.375171 -0.10491,0.02178 -0.284644,-0.0027 -0.399406,-0.05419 z m 24.374134,0.03977 c -0.160718,-0.0578 -5.033698,-3.066218 -5.480786,-3.383656 -0.381881,-0.271141 -0.501667,-0.535408 -0.355814,-0.784977 0.0952,-0.162897 2.046326,-2.651292 3.914324,-4.992184 0.533771,-0.668897 1.974962,-2.484722 3.202646,-4.035165 2.29661,-2.90039 2.356072,-2.960858 2.829119,-2.877007 0.182928,0.03244 5.455535,3.252041 5.774163,3.525882 0.343308,0.295049 0.236395,0.531767 -0.880928,1.9505 -3.32484,4.221753 -8.258791,10.41344 -8.353358,10.482749 -0.146617,0.107457 -0.496556,0.168816 -0.649366,0.113858 z M 29.619529,45.409074 c -0.486369,-0.194161 -0.792907,-0.626071 -0.792907,-1.117202 0,-0.201096 -0.0378,-0.259153 -0.187795,-0.288441 -1.144342,-0.223435 -1.828284,-0.371913 -2.095906,-0.455 l -0.322297,-0.100057 -0.957173,0.595708 c -0.526443,0.327641 -0.96655,0.584529 -0.97801,0.570866 -0.442277,-0.527303 -5.477782,-6.936404 -5.459454,-6.948698 0.01467,-0.0098 0.766849,-0.47184 1.67149,-1.026645 0.904642,-0.554806 1.664596,-1.037022 1.688787,-1.071589 0.02419,-0.03457 -0.04937,-0.338317 -0.163488,-0.674994 -0.229917,-0.67836 -0.421577,-1.54829 -0.503311,-2.284502 -0.05268,-0.474497 -0.06036,-0.486941 -0.42735,-0.691977 -0.519675,-0.290339 -1.350522,-1.029865 -1.770206,-1.575639 -1.390658,-1.808459 -1.728594,-4.426433 -0.878235,-6.80364 0.294803,-0.824128 0.75663,-1.684691 1.241018,-2.312496 0.361034,-0.46793 0.412471,-0.589257 0.552625,-1.303494 0.26646,-1.35792 0.796619,-2.43857 1.721711,-3.509466 1.476384,-1.709073 4.198722,-3.171021 6.898362,-3.704554 0.432897,-0.08556 0.470016,-0.109046 0.470016,-0.297484 0,-0.341192 0.138563,-0.554376 0.431163,-0.663354 0.401862,-0.149674 4.41136,-0.149674 4.813222,0 0.292599,0.108978 0.431165,0.322162 0.431165,0.663354 0,0.188438 0.03711,0.211932 0.470014,0.297484 2.69964,0.533533 5.421978,1.995481 6.898363,3.704554 0.925093,1.070896 1.45525,2.151546 1.72171,3.509466 0.140153,0.714237 0.191591,0.835564 0.552626,1.303494 0.751752,0.974331 1.336008,2.29418 1.594347,3.601674 0.172944,0.8753 0.113672,2.410634 -0.125587,3.25314 -0.353778,1.245761 -1.016202,2.32521 -1.912818,3.117018 -0.408177,0.360462 -0.645998,0.527638 -1.331498,0.935965 -0.0111,0.0066 -0.04051,0.191957 -0.06535,0.411874 -0.09969,0.882533 -0.235182,1.537326 -0.462326,2.23432 -0.131181,0.402523 -0.219575,0.758915 -0.196432,0.791984 0.02315,0.03306 0.782238,0.514056 1.686879,1.068862 0.904642,0.554805 1.656812,1.016796 1.671492,1.026645 0.01832,0.0123 -5.017178,6.421395 -5.459454,6.948698 -0.01146,0.01366 -0.451567,-0.243225 -0.978011,-0.570866 l -0.957173,-0.595708 -0.322297,0.100057 c -0.265773,0.08251 -1.024938,0.247302 -2.085182,0.452624 -0.144891,0.02806 -0.184483,0.102435 -0.217871,0.409292 -0.04309,0.395993 -0.216791,0.661489 -0.596867,0.912275 -0.218526,0.144189 -0.352861,0.152849 -2.623958,0.169188 -1.869495,0.01344 -2.448469,-0.0046 -2.644033,-0.08274 z m 4.423591,-4.275126 c 3.233994,-0.973014 4.899355,-3.994297 3.779347,-6.856457 -0.488039,-1.247172 -1.705383,-2.422738 -3.105829,-2.999238 -0.849637,-0.349756 -1.491322,-0.467275 -2.551458,-0.467275 -1.062998,0 -1.701725,0.117469 -2.560046,0.470823 -3.244825,1.335836 -4.453166,5.025698 -2.507659,7.657551 0.882722,1.194132 2.02201,1.921811 3.607086,2.303899 0.887039,0.213823 2.432789,0.163215 3.338559,-0.109303 z m -3.129899,-0.451486 c -4.020175,-0.870592 -5.447653,-5.340543 -2.522469,-7.898767 1.112245,-0.972718 2.262545,-1.388082 3.816159,-1.377984 1.163461,0.0075 1.997298,0.228371 2.919622,0.77315 2.26603,1.338449 3.007743,3.866443 1.777028,6.056668 -0.66084,1.176055 -2.045265,2.143459 -3.501229,2.446579 -0.645428,0.134375 -1.869435,0.134547 -2.489111,3.43e-4 z M 33.288476,39.7968 c 0.769857,-0.177084 1.413176,-0.521776 2.001214,-1.072265 1.675077,-1.568107 1.625206,-3.846445 -0.117651,-5.374858 -1.339055,-1.174293 -3.150161,-1.426176 -4.919927,-0.684246 -2.131966,0.893769 -3.026044,3.17591 -1.995511,5.093561 0.500076,0.930559 1.633532,1.769141 2.749459,2.03417 0.596901,0.141762 1.67446,0.14348 2.282416,0.0036 z m -1.672463,-1.205435 c -0.529936,-0.285382 -0.59244,-0.977581 -0.122087,-1.352061 0.471824,-0.375651 0.930046,-0.358982 1.393964,0.05071 0.817698,0.722116 -0.273754,1.838861 -1.271877,1.301354 z m -2.003135,-1.768986 c -0.969258,-0.521962 -0.162089,-1.938601 0.886104,-1.555176 0.372534,0.136272 0.664631,0.480003 0.664631,0.78212 0,0.727765 -0.848954,1.150978 -1.550735,0.773056 z m 4.00627,0 c -0.678519,-0.365395 -0.548614,-1.276862 0.222165,-1.55881 0.36611,-0.133921 0.775652,-0.03254 1.071803,0.265333 0.757482,0.761879 -0.306362,1.825321 -1.293968,1.293477 z m -2.008746,-1.771995 c -0.519623,-0.279812 -0.5754,-1.014059 -0.103662,-1.364601 0.328013,-0.243743 0.581445,-0.296272 0.933858,-0.19356 0.391974,0.114242 0.648161,0.378578 0.700427,0.722705 0.112973,0.743826 -0.787764,1.235474 -1.530623,0.835456 z m -5.97598,-4.612456 c 1.972788,-0.410764 3.682428,-2.011566 4.411846,-4.130972 0.201901,-0.586648 0.227734,-0.782211 0.233196,-1.765348 0.0059,-1.052691 -0.0059,-1.13576 -0.248432,-1.735385 -0.450855,-1.11532 -1.142181,-1.846325 -2.156562,-2.280335 -1.636685,-0.70027 -3.528162,-0.297769 -5.098715,1.084992 -2.577959,2.269711 -2.850494,6.246105 -0.552998,8.068502 0.960015,0.761494 2.138783,1.023579 3.411665,0.758546 z m 14.784361,0.03268 c 3.266852,-0.665095 4.323539,-4.810314 2.014781,-7.903666 -1.240334,-1.661842 -3.199673,-2.595795 -4.91201,-2.341397 -1.516348,0.225282 -2.630942,1.117956 -3.222225,2.580671 -0.242391,0.599625 -0.254282,0.682693 -0.248433,1.735385 0.0055,0.983271 0.03133,1.179022 0.233745,1.768986 0.429569,1.25202 1.326306,2.49018 2.315366,3.196919 1.163078,0.831085 2.63895,1.203302 3.818776,0.963102 z"
         id="path104" />
      <path
         id="lpe_path-effect106"
         style="fill:#000000;stroke-width:0.0784343"
         class="powerclip"
         d="M -1.9983251,-2.2882962 H 66.205437 V 66.558849 H -1.9983251 Z m 21.7273741,54.0461922 4e-6,10e-7 c 0.114762,0.05149 0.294496,0.07597 0.399406,0.05419 0.168269,-0.03494 4.720971,-2.801535 5.554172,-3.375171 0.345468,-0.237848 0.505868,-0.507096 0.429178,-0.720465 -0.02652,-0.07379 -0.921576,-1.238598 -1.989013,-2.588458 -6.245902,-7.898451 -7.263897,-9.17378 -7.416017,-9.290683 -0.383806,-0.294943 -0.533129,-0.226128 -3.529648,1.62666 -1.812197,1.120504 -2.876423,1.824937 -2.944713,1.949161 -0.05886,0.106992 -0.08463,0.270766 -0.05736,0.363956 0.08475,0.289569 9.326148,11.878394 9.553991,11.980809 z m 24.374134,0.03977 c 0.15281,0.05496 0.502749,-0.0064 0.649366,-0.113858 0.09457,-0.06931 5.028518,-6.260996 8.353358,-10.482749 1.117323,-1.418733 1.224236,-1.655451 0.880928,-1.9505 -0.318628,-0.273841 -5.591235,-3.493442 -5.774163,-3.525882 -0.473047,-0.08385 -0.532509,-0.02338 -2.829119,2.877007 -1.227684,1.550443 -2.668875,3.366268 -3.202646,4.035165 -1.867998,2.340892 -3.819124,4.829287 -3.914324,4.992184 -0.145853,0.249569 -0.02607,0.513836 0.355814,0.784977 0.447088,0.317438 5.320068,3.325856 5.480786,3.383656 z m -14.483654,-6.388592 1e-6,-4e-6 c 0.195564,0.07814 0.774538,0.09618 2.644033,0.08274 2.271097,-0.01634 2.405432,-0.025 2.623958,-0.169188 0.380076,-0.250786 0.553777,-0.516282 0.596867,-0.912275 0.03339,-0.306857 0.07298,-0.381232 0.217871,-0.409292 1.060244,-0.205322 1.819409,-0.370114 2.085182,-0.452624 l 0.322297,-0.100057 0.957173,0.595708 c 0.526444,0.327641 0.966551,0.584526 0.978011,0.570866 0.442276,-0.527303 5.477774,-6.936398 5.459454,-6.948698 -0.01468,-0.0098 -0.76685,-0.47184 -1.671492,-1.026645 -0.904641,-0.554806 -1.663729,-1.035802 -1.686879,-1.068862 -0.02314,-0.03307 0.06525,-0.389461 0.196432,-0.791984 0.227144,-0.696994 0.362636,-1.351787 0.462326,-2.23432 0.02484,-0.219917 0.05425,-0.405274 0.06535,-0.411874 0.6855,-0.408327 0.923321,-0.575503 1.331498,-0.935965 0.896616,-0.791808 1.55904,-1.871257 1.912818,-3.117018 0.239259,-0.842506 0.298531,-2.37784 0.125587,-3.25314 -0.258339,-1.307494 -0.842595,-2.627343 -1.594347,-3.601674 -0.361035,-0.46793 -0.412473,-0.589257 -0.552626,-1.303494 -0.26646,-1.35792 -0.796617,-2.43857 -1.72171,-3.509466 -1.476385,-1.709073 -4.198723,-3.171021 -6.898363,-3.704554 -0.432904,-0.08555 -0.470014,-0.109046 -0.470014,-0.297484 0,-0.341192 -0.138566,-0.554376 -0.431165,-0.663354 -0.401862,-0.149674 -4.41136,-0.149674 -4.813222,0 -0.2926,0.108978 -0.431163,0.322162 -0.431163,0.663354 0,0.188438 -0.03712,0.211924 -0.470016,0.297484 -2.69964,0.533533 -5.421978,1.995481 -6.898362,3.704554 -0.925092,1.070896 -1.455251,2.151546 -1.721711,3.509466 -0.140154,0.714237 -0.191591,0.835564 -0.552625,1.303494 -0.484388,0.627805 -0.946215,1.488368 -1.241018,2.312496 -0.850359,2.377207 -0.512423,4.995181 0.878235,6.80364 0.419684,0.545774 1.250531,1.2853 1.770206,1.575639 0.36699,0.205036 0.37467,0.21748 0.42735,0.691977 0.08173,0.736212 0.273394,1.606142 0.503311,2.284502 0.114118,0.336677 0.187678,0.640424 0.163488,0.674994 -0.02419,0.03457 -0.784145,0.516783 -1.688787,1.071589 -0.904641,0.554805 -1.65682,1.016845 -1.67149,1.026645 -0.01833,0.01229 5.017177,6.421395 5.459454,6.948698 0.01146,0.01366 0.451567,-0.243225 0.97801,-0.570866 l 0.957173,-0.595708 0.322297,0.100057 c 0.267622,0.08309 0.951564,0.231565 2.095906,0.455 0.149995,0.02929 0.187795,0.08734 0.187795,0.288441 0,0.491131 0.306538,0.923041 0.792907,1.117202 z m 4.423591,-4.275126 c 3.233994,-0.973014 4.899355,-3.994297 3.779347,-6.856457 -0.488039,-1.247172 -1.705383,-2.422738 -3.105829,-2.999238 -0.849637,-0.349756 -1.491322,-0.467275 -2.551458,-0.467275 -1.062998,0 -1.701725,0.117469 -2.560046,0.470823 -3.244825,1.335836 -4.453166,5.025698 -2.507659,7.657551 0.882722,1.194132 2.02201,1.921811 3.607086,2.303899 0.887039,0.213823 2.432789,0.163215 3.338559,-0.109303 z m -3.129899,-0.451486 v -1.1e-5 c 0.619676,0.134204 1.843683,0.134032 2.489111,-3.43e-4 1.455964,-0.30312 2.840389,-1.270524 3.501229,-2.446579 1.230715,-2.190225 0.489002,-4.718219 -1.777028,-6.056668 -0.922324,-0.544779 -1.756161,-0.76565 -2.919622,-0.77315 -1.553614,-0.0101 -2.703914,0.405266 -3.816159,1.377984 -2.925184,2.558224 -1.497706,7.028175 2.522469,7.898767 z M 33.288476,39.7968 c 0.769857,-0.177084 1.413176,-0.521776 2.001214,-1.072265 1.675077,-1.568107 1.625206,-3.846445 -0.117651,-5.374858 -1.339055,-1.174293 -3.150161,-1.426176 -4.919927,-0.684246 -2.131966,0.893769 -3.026044,3.17591 -1.995511,5.093561 0.500076,0.930559 1.633532,1.769141 2.749459,2.03417 0.596901,0.141762 1.67446,0.14348 2.282416,0.0036 z m -1.672463,-1.205435 v 3e-6 c 0.998123,0.537507 2.089575,-0.579238 1.271877,-1.301354 -0.463918,-0.409692 -0.92214,-0.426361 -1.393964,-0.05071 -0.470353,0.37448 -0.407849,1.066679 0.122087,1.352061 z m -2.003135,-1.768986 c 0.701781,0.377922 1.550735,-0.04529 1.550735,-0.773056 0,-0.302117 -0.292097,-0.645848 -0.664631,-0.78212 -1.048193,-0.383425 -1.855362,1.033214 -0.886104,1.555176 z m 4.00627,0 c 0.987606,0.531844 2.05145,-0.531598 1.293968,-1.293477 -0.296151,-0.297873 -0.705693,-0.399254 -1.071803,-0.265333 -0.770779,0.281948 -0.900684,1.193415 -0.222165,1.55881 z m -2.008746,-1.771995 c 0.742859,0.400018 1.643596,-0.09163 1.530623,-0.835456 -0.05227,-0.344127 -0.308453,-0.608463 -0.700427,-0.722705 -0.352413,-0.102712 -0.605845,-0.05018 -0.933858,0.19356 -0.471738,0.350542 -0.415961,1.084789 0.103662,1.364601 z m -5.97598,-4.612456 c 1.972788,-0.410764 3.682428,-2.011566 4.411846,-4.130972 0.201901,-0.586648 0.227734,-0.782211 0.233196,-1.765348 0.0059,-1.052691 -0.0059,-1.13576 -0.248432,-1.735385 -0.450855,-1.11532 -1.142181,-1.846325 -2.156562,-2.280335 -1.636685,-0.70027 -3.528162,-0.297769 -5.098715,1.084992 -2.577959,2.269711 -2.850494,6.246105 -0.552998,8.068502 0.960015,0.761494 2.138783,1.023579 3.411665,0.758546 z m 14.784361,0.03268 c 3.266852,-0.665095 4.323539,-4.810314 2.014781,-7.903666 -1.240334,-1.661842 -3.199673,-2.595795 -4.91201,-2.341397 -1.516348,0.225282 -2.630942,1.117956 -3.222225,2.580671 -0.242391,0.599625 -0.254282,0.682693 -0.248433,1.735385 0.0055,0.983271 0.03133,1.179022 0.233745,1.768986 0.429569,1.25202 1.326306,2.49018 2.315366,3.196919 1.163078,0.831085 2.63895,1.203302 3.818776,0.963102 z" />
    </clipPath>
  </defs>
  <sodipodi:namedview
     pagecolor="#ffffff"
     bordercolor="#666666"
     borderopacity="1"
     objecttolerance="10"
     gridtolerance="10"
     guidetolerance="10"
     inkscape:pageopacity="0"
     inkscape:pageshadow="2"
     inkscape:window-width="1355"
     inkscape:window-height="912"
     id="namedview24"
     showgrid="false"
     inkscape:zoom="9.1150483"
     inkscape:cx="40.372797"
     inkscape:cy="30.992705"
     inkscape:window-x="275"
     inkscape:window-y="84"
     inkscape:window-maximized="0"
     inkscape:current-layer="svg22"
     inkscape:pagecheckerboard="0" />
  <path
     style="fill:#29292a;stroke-width:1.04509"
     width="58.203762"
     height="58.847145"
     x="3.0016749"
     y="2.7117038"
     rx="29.1024"
     ry="29.424097"
     id="rect4"
     clip-path="url(#clipPath102)"
     inkscape:path-effect="#path-effect106"
     d="m 32.103556,2.7117038 c 16.122442,0 29.101881,13.1229132 29.101881,29.4235722 0,16.30066 -12.979439,29.423573 -29.101881,29.423573 -16.122442,0 -29.1018811,-13.122913 -29.1018811,-29.423573 0,-16.300659 12.9794391,-29.4235722 29.1018811,-29.4235722 z"
     sodipodi:type="rect" />
  <g
     aria-label="BG"
     transform="scale(0.97514702,1.0254864)"
     id="text6568"
     style="font-size:34.1545px;line-height:1.25;font-family:'padmaa-Bold.1.1';-inkscape-font-specification:'padmaa-Bold.1.1';opacity:0.85;fill:#ffffff;stroke-width:0.85386">
    <text
       xml:space="preserve"
       style="font-size:40px;line-height:1.25;font-family:Ancient;-inkscape-font-specification:Ancient;fill:#ffffff"
       x="5.9679508"
       y="40.362118"
       id="text3216"
       transform="scale(1.0254864,0.97514701)"><tspan
         sodipodi:role="line"
         id="tspan3214"
         x="5.9679508"
         y="40.362118"
         style="fill:#ffffff" /></text>
  </g>
</svg>
