<?xml version="1.0" encoding="UTF-8" standalone="no"?>
<svg
   width="64"
   height="64"
   version="1"
   id="svg12"
   sodipodi:docname="Studio-3T.svg"
   inkscape:version="1.1 (c68e22c387, 2021-05-23)"
   xmlns:inkscape="http://www.inkscape.org/namespaces/inkscape"
   xmlns:sodipodi="http://sodipodi.sourceforge.net/DTD/sodipodi-0.dtd"
   xmlns="http://www.w3.org/2000/svg"
   xmlns:svg="http://www.w3.org/2000/svg">
  <defs
     id="defs16" />
  <sodipodi:namedview
     id="namedview14"
     pagecolor="#ffffff"
     bordercolor="#666666"
     borderopacity="1.0"
     inkscape:pageshadow="2"
     inkscape:pageopacity="0.0"
     inkscape:pagecheckerboard="0"
     showgrid="false"
     inkscape:zoom="12.859375"
     inkscape:cx="32"
     inkscape:cy="32"
     inkscape:window-width="1920"
     inkscape:window-height="996"
     inkscape:window-x="0"
     inkscape:window-y="0"
     inkscape:window-maximized="1"
     inkscape:current-layer="svg12" />
  <path
     style="fill:#29292a;stroke-width:1.432"
     d="m 32.062979,10.673255 c -0.583161,-0.0143 -1.167328,-0.01348 -1.750665,0.0029 -7.000051,0.195113 -14.900564,2.599312 -20.3733481,7.51068 -3.8856619,3.514541 -8.0348261,7.883635 -8.0003584,13.822985 -0.3526608,2.091166 0.7644873,3.120345 2.1594239,3.260853 l 0.018818,-0.01454 c 1.7728036,-1.37259 3.931219,-2.203977 6.2227996,-2.251472 2.296391,-0.04761 4.845805,0.849149 6.577773,3.074682 l 0.06992,0.08726 0.06186,0.09308 c 1.125797,1.698515 1.814289,3.587126 2.186318,5.526865 2.854695,0.400591 5.778369,0.185533 8.648453,0.02037 0.827313,-0.01852 1.597855,-0.155219 2.353046,-0.328703 1.400945,-1.618942 3.279645,-3.477333 6.212043,-3.956074 l 0.06723,-0.0087 0.06723,-0.0087 c 2.19309,-0.239246 4.079916,0.393799 5.851689,1.896589 0.387012,0.328256 0.786513,0.76749 1.126774,1.291541 0.962042,-2.535155 3.875275,-1.60478 3.364184,1.093738 2.425546,2.415438 1.925412,-3.341761 3.756806,-2.632533 1.610871,2.15404 3.450938,4.983051 6.018421,5.678128 1.941377,0.269607 4.144807,-0.425667 5.096026,-2.458001 1.509585,-3.216207 -1.176649,-6.165528 -2.32884,-8.933176 C 57.946232,29.28339 57.19043,24.729881 54.654922,21.089932 50.574185,15.090825 43.789328,12.404135 37.274651,11.205617 35.5568,10.89511 33.812475,10.715986 32.062989,10.673292 Z M 53.29687,31.515364 c 1.140635,0 2.065304,1.000203 2.065304,2.234017 0,1.233818 -0.924669,2.234018 -2.065304,2.234018 -1.140636,0 -2.065302,-1.0002 -2.065302,-2.234018 0,-1.233814 0.924666,-2.234017 2.065302,-2.234017 z m -42.90343,4.468035 c -1.6627962,0.03446 -3.3697683,0.686226 -4.6738242,1.695876 -2.4242798,2.213038 -4.4176212,5.889103 -3.9988326,9.529482 0.9908417,3.495721 4.5017123,4.258584 7.258139,4.916005 2.6023948,0.541687 6.3806988,0.417804 7.4141138,-3.007782 0.825467,-3.705114 0.491549,-7.993356 -1.581248,-11.120639 -1.136175,-1.459865 -2.755551,-2.047403 -4.418348,-2.012942 z m 26.467066,4.48549 c -2.872041,0.468886 -4.576471,3.406284 -6.645004,5.314518 -1.161625,1.781033 -5.124104,4.201772 -3.288887,6.422801 5.424868,1.018297 10.180374,-3.00454 13.523966,-7.158746 3.280533,-2.454051 -1.323754,-4.825808 -3.590075,-4.578573 z"
     id="path8" />
  <path
     style="fill:#ffffff;opacity:0.2"
     d="M 6.8007812 4 C 5.2495813 4 4 5.2495813 4 6.8007812 L 4 7.8007812 C 4 6.2495813 5.2495813 5 6.8007812 5 L 57.199219 5 C 58.750419 5 60 6.2495813 60 7.8007812 L 60 6.8007812 C 60 5.2495813 58.750419 4 57.199219 4 L 6.8007812 4 z"
     id="path10" />
</svg>
