<?xml version="1.0" encoding="UTF-8" standalone="no"?>
<svg
   width="64"
   height="64"
   version="1"
   id="svg58"
   sodipodi:docname="supertuxkart.svg"
   inkscape:version="1.1 (1:1.1+202105261517+ce6663b3b7)"
   xmlns:inkscape="http://www.inkscape.org/namespaces/inkscape"
   xmlns:sodipodi="http://sodipodi.sourceforge.net/DTD/sodipodi-0.dtd"
   xmlns="http://www.w3.org/2000/svg"
   xmlns:svg="http://www.w3.org/2000/svg"
   xmlns:rdf="http://www.w3.org/1999/02/22-rdf-syntax-ns#"
   xmlns:cc="http://creativecommons.org/ns#"
   xmlns:dc="http://purl.org/dc/elements/1.1/">
  <metadata
     id="metadata64">
    <rdf:RDF>
      <cc:Work
         rdf:about="">
        <dc:format>image/svg+xml</dc:format>
        <dc:type
           rdf:resource="http://purl.org/dc/dcmitype/StillImage" />
        <dc:title />
      </cc:Work>
    </rdf:RDF>
  </metadata>
  <defs
     id="defs62">
    <inkscape:path-effect
       effect="powerclip"
       id="path-effect250"
       is_visible="true"
       lpeversion="1"
       inverse="true"
       flatten="false"
       hide_clip="false"
       message="Use fill-rule evenodd on &lt;b&gt;fill and stroke&lt;/b&gt; dialog if no flatten result after convert clip to paths." />
    <inkscape:path-effect
       effect="powerclip"
       id="path-effect164"
       is_visible="true"
       lpeversion="1"
       inverse="true"
       flatten="false"
       hide_clip="false"
       message="Use fill-rule evenodd on &lt;b&gt;fill and stroke&lt;/b&gt; dialog if no flatten result after convert clip to paths." />
    <clipPath
       clipPathUnits="userSpaceOnUse"
       id="clipPath160">
      <path
         id="path162"
         style="display:none;opacity:0.85;fill:#ffffff"
         d="m 22,14 a 4,4 0 0 0 -4,4 4,4 0 0 0 4,4 4,4 0 0 0 4,-4 4,4 0 0 0 -4,-4 z m 20,0 a 4,4 0 0 0 -4,4 4,4 0 0 0 4,4 4,4 0 0 0 4,-4 4,4 0 0 0 -4,-4 z M 32,23.599609 A 14,15.4 0 0 0 18,39 14,15.4 0 0 0 32,54.400391 14,15.4 0 0 0 46,39 14,15.4 0 0 0 32,23.599609 Z" />
      <path
         id="lpe_path-effect164"
         style="opacity:0.85;fill:#ffffff"
         class="powerclip"
         d="M 6.9127236,-1.0008 H 57.089697 V 51.7894 H 6.9127236 Z M 22,14 a 4,4 0 0 0 -4,4 4,4 0 0 0 4,4 4,4 0 0 0 4,-4 4,4 0 0 0 -4,-4 z m 20,0 a 4,4 0 0 0 -4,4 4,4 0 0 0 4,4 4,4 0 0 0 4,-4 4,4 0 0 0 -4,-4 z M 32,23.599609 A 14,15.4 0 0 0 18,39 14,15.4 0 0 0 32,54.400391 14,15.4 0 0 0 46,39 14,15.4 0 0 0 32,23.599609 Z" />
    </clipPath>
    <clipPath
       clipPathUnits="userSpaceOnUse"
       id="clipPath242">
      <g
         id="g248"
         style="display:none">
        <ellipse
           style="opacity:0.85;fill:#ffffff"
           id="ellipse244"
           ry="2.8"
           rx="3"
           cy="49.200001"
           cx="21"
           d="m 24,49.200001 a 3,2.8 0 0 1 -3,2.8 3,2.8 0 0 1 -3,-2.8 3,2.8 0 0 1 3,-2.8 3,2.8 0 0 1 3,2.8 z" />
        <ellipse
           style="opacity:0.85;fill:#ffffff"
           id="ellipse246"
           ry="2.8"
           rx="3"
           cy="49.200001"
           cx="43"
           d="m 46,49.200001 a 3,2.8 0 0 1 -3,2.8 3,2.8 0 0 1 -3,-2.8 3,2.8 0 0 1 3,-2.8 3,2.8 0 0 1 3,2.8 z" />
      </g>
      <path
         id="lpe_path-effect250"
         class="powerclip"
         d="M 1,35 H 63 V 65 H 1 Z m 23,14.200001 a 3,2.8 0 0 0 -3,-2.8 3,2.8 0 0 0 -3,2.8 3,2.8 0 0 0 3,2.8 3,2.8 0 0 0 3,-2.8 z m 22,0 a 3,2.8 0 0 0 -3,-2.8 3,2.8 0 0 0 -3,2.8 3,2.8 0 0 0 3,2.8 3,2.8 0 0 0 3,-2.8 z" />
    </clipPath>
  </defs>
  <sodipodi:namedview
     pagecolor="#ffffff"
     bordercolor="#666666"
     borderopacity="1"
     objecttolerance="10"
     gridtolerance="10"
     guidetolerance="10"
     inkscape:pageopacity="0"
     inkscape:pageshadow="2"
     inkscape:window-width="1521"
     inkscape:window-height="942"
     id="namedview60"
     showgrid="false"
     inkscape:zoom="12.890625"
     inkscape:cx="32.038788"
     inkscape:cy="32"
     inkscape:window-x="399"
     inkscape:window-y="54"
     inkscape:window-maximized="0"
     inkscape:current-layer="svg58"
     inkscape:pagecheckerboard="0" />
  <path
     style="fill:#29292a"
     d="m6.707 44c-1.499 0-2.707 1.192-2.707 2.668v10.664c0 1.476 1.208 2.668 2.707 2.668h2.586c1.499 0 2.707-1.192 2.707-2.668v-10.664c0-1.476-1.208-2.668-2.707-2.668h-2.586zm47.996 0c-1.5 0-2.704 1.192-2.704 2.668v10.664c0 1.476 1.204 2.668 2.704 2.668h2.5898c1.498 0 2.706-1.192 2.706-2.668v-10.664c0-1.476-1.208-2.668-2.708-2.668h-2.5898z"
     id="path4" />
  <path
     style="fill:#29292a"
     d="m 32.003,3.9998 c -10.338,0 -18.72,8.1659 -18.72,18.243 0,1.773 0.26946,3.4818 0.75469,5.1023 0,0 -2.8655,10.201 -1.9414,15.236 0.26924,1.4668 0.82209,2.8787 1.5532,4.2083 2.8476,-3.8374 10.164,-6.3854 18.35,-6.391 8.1819,0.0024 15.5,2.5456 18.356,6.3793 0.72875,-1.3263 1.2817,-2.7343 1.5504,-4.1972 0.92488,-5.0347 -1.9414,-15.236 -1.9414,-15.236 0.48705,-1.6206 0.75469,-3.3295 0.75469,-5.1023 10e-4,-10.075 -8.376,-18.243 -18.716,-18.243 z"
     id="path6"
     clip-path="url(#clipPath160)"
     inkscape:original-d="m32.003 3.9998c-10.338 0-18.72 8.1659-18.72 18.243 0 1.773 0.26946 3.4818 0.75469 5.1023 0 0-2.8655 10.201-1.9414 15.236 0.26924 1.4668 0.82209 2.8787 1.5532 4.2083 2.8476-3.8374 10.164-6.3854 18.35-6.391 8.1819 0.0024 15.5 2.5456 18.356 6.3793 0.72875-1.3263 1.2817-2.7343 1.5504-4.1972 0.92488-5.0347-1.9414-15.236-1.9414-15.236 0.48705-1.6206 0.75469-3.3295 0.75469-5.1023 0.001-10.075-8.376-18.243-18.716-18.243z"
     inkscape:path-effect="#path-effect164" />
  <circle
     style="fill:#303030"
     cx="22"
     cy="18"
     r="2"
     id="circle18" />
  <circle
     style="fill:#303030"
     cx="42"
     cy="18"
     r="2"
     id="circle20" />
  <path
     style="fill:#29292a"
     d="m28 20h8c-0.641 6.163-4 12-4 12s-4-6.9274-4-12z"
     id="path24" />
  <path
     style="fill:#303030"
     d="m32 32a8 8 0 0 0 -8 8 8 8 0 0 0 8 8 8 8 0 0 0 8 -8 8 8 0 0 0 -8 -8zm0 3.2a4.8 4.8 0 0 1 3.1188 1.1531l-3.118 1.8-3.116-1.798a4.8 4.8 0 0 1 3.116 -1.156zm4.7188 3.9218a4.8 4.8 0 0 1 0.082 0.878 4.8 4.8 0 0 1 -3.2 4.5218v-3.6l3.1188-1.8zm-9.4344 0.0032 3.1156 1.7968v3.5968a4.8 4.8 0 0 1 -3.2 -4.518 4.8 4.8 0 0 1 0.084 -0.876z"
     id="path26" />
  <path
     style="fill:#29292a"
     d="m 32,40 c -10.825,0 -20,4.4772 -20,10 0.0046,0.96788 1.2312,2 1.2312,2 H 6 v 6 h 12.309 c 3.657,1.828 8.571,1.996 13.691,2 5.1266,-9.32e-4 10.048,-0.16946 13.71,-2 H 58 v -6 h -7.2258 c 0,0 1.2229,-1.0322 1.2258,-2 0,-5.5228 -9.1752,-10 -20,-10 z"
     id="path30"
     clip-path="url(#clipPath242)"
     inkscape:path-effect="#path-effect250"
     inkscape:original-d="m32 40c-10.825 0-20 4.4772-20 10 0.0046 0.96788 1.2312 2 1.2312 2h-7.2312v6h12.309c3.657 1.828 8.571 1.996 13.691 2 5.1266-0.000932 10.048-0.16946 13.71-2h12.29v-6h-7.2258s1.2229-1.0322 1.2258-2c0-5.5228-9.1752-10-20-10z" />
  <ellipse
     style="fill:#29292a"
     cx="-17.46"
     cy="39.618"
     rx="4.97"
     ry="8.788"
     transform="matrix(.70175 -.71242 .86961 .49374 0 0)"
     id="ellipse32" />
  <ellipse
     style="fill:#29292a"
     cx="-50.172"
     cy="-7.582"
     rx="4.97"
     ry="8.788"
     transform="matrix(-.70175 -.71242 -.86961 .49374 0 0)"
     id="ellipse34" />
  <path
     style="opacity:1;fill:#29292a"
     d="m31.334 46c-0.36934 0-0.66666 0.892-0.66666 2v4c0 1.108 0.29734 2 0.66666 2 0.368 0 0.666-0.892 0.666-2v-4c0-1.108-0.29734-2-0.66666-2zm-2.6666 1.3333c-0.37 0-0.668 0.594-0.668 1.332v2.6666c0 0.73866 0.29734 1.3333 0.66666 1.3333 0.36934 0 0.66666-0.59466 0.66666-1.3333v-2.6666c0-0.73866-0.29734-1.3333-0.66666-1.3333z"
     id="path44" />
  <path
     style="opacity:1;fill:#29292a"
     d="m32.666 46c0.36934 0 0.66666 0.892 0.66666 2v4c0 1.108-0.29734 2-0.66666 2-0.368 0-0.666-0.892-0.666-2v-4c0-1.108 0.29734-2 0.66666-2zm2.6666 1.3333c0.37 0 0.668 0.594 0.668 1.332v2.6666c0 0.73866-0.29734 1.3333-0.66666 1.3333-0.36934 0-0.66666-0.59466-0.66666-1.3333v-2.6666c0-0.73866 0.29734-1.3333 0.66666-1.3333z"
     id="path46" />
</svg>
