<?xml version="1.0" encoding="UTF-8" standalone="no"?>
<svg
   width="64"
   height="64"
   version="1.1"
   id="svg73"
   sodipodi:docname="viber.svg"
   inkscape:version="1.1 (c68e22c387, 2021-05-23)"
   xmlns:inkscape="http://www.inkscape.org/namespaces/inkscape"
   xmlns:sodipodi="http://sodipodi.sourceforge.net/DTD/sodipodi-0.dtd"
   xmlns="http://www.w3.org/2000/svg"
   xmlns:svg="http://www.w3.org/2000/svg"
   xmlns:rdf="http://www.w3.org/1999/02/22-rdf-syntax-ns#"
   xmlns:cc="http://creativecommons.org/ns#"
   xmlns:dc="http://purl.org/dc/elements/1.1/">
  <metadata
     id="metadata77">
    <rdf:RDF>
      <cc:Work
         rdf:about="">
        <dc:format>image/svg+xml</dc:format>
        <dc:type
           rdf:resource="http://purl.org/dc/dcmitype/StillImage" />
      </cc:Work>
    </rdf:RDF>
  </metadata>
  <sodipodi:namedview
     pagecolor="#ffffff"
     bordercolor="#666666"
     borderopacity="1"
     objecttolerance="10"
     gridtolerance="10"
     guidetolerance="10"
     inkscape:pageopacity="0"
     inkscape:pageshadow="2"
     inkscape:window-width="1920"
     inkscape:window-height="996"
     id="namedview75"
     showgrid="false"
     inkscape:zoom="12.578125"
     inkscape:cx="32"
     inkscape:cy="19.279503"
     inkscape:window-x="0"
     inkscape:window-y="0"
     inkscape:window-maximized="1"
     inkscape:current-layer="svg73"
     inkscape:document-rotation="0"
     inkscape:pagecheckerboard="0" />
  <defs
     id="defs29">
    <linearGradient
       id="b"
       x1="399.57"
       x2="399.57"
       y1="545.8"
       y2="517.8"
       gradientTransform="matrix(2.1429,0,0,2.1429,-826.36,-1107.5)"
       gradientUnits="userSpaceOnUse">
      <stop
         stop-color="#3889e9"
         offset="0"
         id="stop2" />
      <stop
         stop-color="#5ea5fb"
         offset="1"
         id="stop4" />
    </linearGradient>
    <linearGradient
       id="linearGradient862"
       x1="7.9373"
       x2="7.9373"
       y1="15.081"
       y2="1.852"
       gradientTransform="matrix(3.3743 0 0 3.3743 3.4312 3.4278)"
       gradientUnits="userSpaceOnUse">
      <stop
         stop-color="#f1efeb"
         offset="0"
         id="stop7" />
      <stop
         stop-color="#fff"
         offset="1"
         id="stop9" />
    </linearGradient>
    <linearGradient
       id="linearGradient910"
       x1="7.9373"
       x2="7.9373"
       y1="15.081"
       y2="1.852"
       gradientTransform="scale(3.7796)"
       gradientUnits="userSpaceOnUse">
      <stop
         stop-color="#613583"
         offset="0"
         id="stop12" />
      <stop
         stop-color="#a663c0"
         offset="1"
         id="stop14" />
    </linearGradient>
    <linearGradient
       id="linearGradient932"
       x1="379.24"
       x2="374.24"
       y1="546.85"
       y2="546.85"
       gradientTransform="matrix(2.1429 0 0 2.1429 -769.68 -1134.5)"
       gradientUnits="userSpaceOnUse">
      <stop
         stop-color="#f6f5f4"
         offset="0"
         id="stop17" />
      <stop
         stop-color="#fff"
         offset=".6"
         id="stop19" />
      <stop
         stop-color="#dddbd8"
         offset="1"
         id="stop21" />
    </linearGradient>
    <linearGradient
       id="linearGradient1146"
       x1="18"
       x2="18"
       y1="52"
       y2="12"
       gradientUnits="userSpaceOnUse">
      <stop
         stop-color="#5e337f"
         offset="0"
         id="stop24" />
      <stop
         stop-color="#ab60bf"
         offset="1"
         id="stop26" />
    </linearGradient>
    <linearGradient
       id="linearGradient4152"
       x1="26.173"
       x2="14.482"
       y1="32.403"
       y2="5.7698998"
       gradientTransform="matrix(1.5808308,0,0,1.5714791,-5.9128974,-1.5664642)"
       gradientUnits="userSpaceOnUse">
      <stop
         stop-color="#fff"
         offset="0"
         id="stop2-3" />
      <stop
         stop-color="#cbb0ea"
         offset="1"
         id="stop4-6" />
    </linearGradient>
  </defs>
  <circle
     cx="32.02"
     cy="32.044"
     r="30.001"
     fill-opacity="0"
     stroke-width="1.5715"
     id="circle39" />
  <circle
     cx="32.02"
     cy="32.044"
     r="0"
     fill="url(#b)"
     stroke-width="1.5715"
     id="circle41" />
  <path
     d="m 37.157861,2.0839687 c -1.309244,0 -2.395664,1.0506434 -2.408273,2.3238885 -0.0076,1.2789449 1.079046,2.3544684 2.39762,2.3610241 5.690412,0.042948 10.369547,1.8498691 14.142427,5.4134457 3.728522,3.530392 5.672144,8.42152 5.721285,14.804237 v 0.0054 c 0.01354,1.269684 1.100814,2.318425 2.413497,2.318425 1.25e-4,0 0.02465,-0.0049 0.02675,-0.0054 1.315659,-0.01233 2.408277,-1.077884 2.397623,-2.355783 v -0.0054 C 61.817804,23.223517 61.215968,19.803222 60.038313,16.793179 58.846525,13.751681 57.034926,11.060578 54.671438,8.8223242 50.003611,4.4120065 44.040756,2.1337776 37.178821,2.0850619 H 37.15705 Z M 12.716336,7.5876373 C 11.798187,7.4308302 10.803698,7.6025364 9.8105766,8.0821675 H 9.7317015 L 9.6205743,8.1459753 C 7.7801862,9.1969878 6.0549083,10.606176 4.438953,12.373231 l -0.1270058,0.138252 v 0.127621 c -1.118056,1.400492 -1.8570862,2.80994 -2.0271398,4.222227 -0.054288,0.239313 -0.053291,0.455055 -0.053291,0.68598 0,0.642423 0.094231,1.295287 0.2911003,1.935613 l 0.05329,0.180815 0.1111273,0.0638 c 0.6382933,2.200026 2.0866295,5.624034 5.2557658,11.421955 2.1107862,3.842999 4.2675352,7.053142 6.4094582,9.75801 1.12834,1.421507 2.406536,2.901471 3.890075,4.392405 0.01747,0.01767 0.07994,0.08193 0.14821,0.143623 0.0236,0.02335 0.05635,0.07278 0.137547,0.154173 l 0.148209,0.148924 h 0.01023 c 0.05223,0.05237 0.08704,0.09054 0.09525,0.101087 l 0.02661,0.03182 0.02662,0.02687 c 1.48358,1.474285 2.946854,2.766251 4.377123,3.892589 2.687893,2.152227 5.882404,4.33626 9.706816,6.4607 5.777383,3.202281 9.217371,4.649742 11.395388,5.280409 l 0.07971,0.09573 0.132303,0.04738 c 0.616985,0.206654 1.259106,0.302161 1.894812,0.292462 0.257873,0.0149 0.48609,-0.0041 0.70387,-0.05307 1.491759,-0.175308 2.968597,-0.884901 4.430176,-2.116358 l 0.01629,-0.02191 0.01629,-0.01079 c 0.02254,-0.02263 0.0091,-0.01104 0.02182,-0.02687 0.01354,-0.01104 0.01822,-0.02616 0.0317,-0.03748 1.729691,-1.585915 3.125583,-3.310852 4.175998,-5.157858 l 0.06829,-0.117 v -0.11086 c 0.965831,-2.018316 0.583825,-4.078707 -0.983292,-5.392038 -0.03802,-0.03326 -0.791323,-0.665447 -1.725476,-1.430419 -0.957724,-0.781029 -2.090651,-1.700384 -2.855751,-2.264249 -1.447337,-1.0757 -3.684384,-2.466972 -4.959405,-3.179998 h -0.0053 c -2.449153,-1.378495 -5.008111,-0.577675 -6.134406,0.887501 l -1.974175,2.483357 c -0.796131,1.007931 -2.38719,0.91179 -2.42937,0.909321 -13.390981,-3.461143 -16.990567,-16.988972 -17.016007,-17.08509 -0.0024,-0.0423 -0.09832,-1.643564 0.904996,-2.456705 l 2.461112,-1.978124 c 1.461903,-1.124935 2.283906,-3.695543 0.90506,-6.16317 -0.719221,-1.275625 -2.11009,-3.540007 -3.165156,-4.982659 h -0.0053 C 18.337394,12.905571 17.425224,11.760558 16.648209,10.799787 16.259723,10.319434 15.906027,9.8797988 15.647804,9.5661257 15.518657,9.4092841 15.41489,9.282598 15.340834,9.1938845 15.303998,9.1495159 15.272163,9.1183653 15.25072,9.0928464 15.239607,9.080196 15.23323,9.0716413 15.2241,9.0609341 14.541948,8.2472004 13.672633,7.7514903 12.71515,7.5879352 Z m 24.585031,5.3920367 c -1.29135,-0.09148 -2.451763,0.880643 -2.545911,2.132348 -0.09423,1.253058 0.91189,2.370635 2.201716,2.461947 3.189945,0.226491 5.342303,1.16865 6.960213,2.887272 v 0.0054 c 1.651114,1.750604 2.402406,3.74972 2.339352,6.482331 v 0.01079 c -0.02747,1.257233 1.02167,2.322794 2.318261,2.350321 h 0.05844 c 1.27763,0 2.34283,-1.013288 2.371096,-2.254638 0.08698,-3.755182 -1.130104,-7.106445 -3.583279,-9.704925 -2.464374,-2.611367 -5.955677,-4.073901 -10.1195,-4.371215 z"
     fill="url(#linearGradient4152)"
     stroke-width="2.71619"
     id="path33-7"
     style="fill:#29292a" />
</svg>
