<?xml version="1.0" encoding="UTF-8" standalone="no"?>
<svg
   width="64"
   height="64"
   version="1.1"
   id="svg73"
   sodipodi:docname="vivaldi-snapshot.svg"
   inkscape:version="1.1 (c68e22c387, 2021-05-23)"
   xmlns:inkscape="http://www.inkscape.org/namespaces/inkscape"
   xmlns:sodipodi="http://sodipodi.sourceforge.net/DTD/sodipodi-0.dtd"
   xmlns="http://www.w3.org/2000/svg"
   xmlns:svg="http://www.w3.org/2000/svg"
   xmlns:rdf="http://www.w3.org/1999/02/22-rdf-syntax-ns#"
   xmlns:cc="http://creativecommons.org/ns#"
   xmlns:dc="http://purl.org/dc/elements/1.1/">
  <metadata
     id="metadata77">
    <rdf:RDF>
      <cc:Work
         rdf:about="">
        <dc:format>image/svg+xml</dc:format>
        <dc:type
           rdf:resource="http://purl.org/dc/dcmitype/StillImage" />
      </cc:Work>
    </rdf:RDF>
  </metadata>
  <sodipodi:namedview
     pagecolor="#ffffff"
     bordercolor="#666666"
     borderopacity="1"
     objecttolerance="10"
     gridtolerance="10"
     guidetolerance="10"
     inkscape:pageopacity="0"
     inkscape:pageshadow="2"
     inkscape:window-width="1717"
     inkscape:window-height="798"
     id="namedview75"
     showgrid="false"
     inkscape:zoom="12.578125"
     inkscape:cx="31.960248"
     inkscape:cy="19.279503"
     inkscape:window-x="106"
     inkscape:window-y="477"
     inkscape:window-maximized="0"
     inkscape:current-layer="svg73"
     inkscape:document-rotation="0"
     inkscape:pagecheckerboard="0" />
  <defs
     id="defs29">
    <linearGradient
       id="b"
       x1="399.57"
       x2="399.57"
       y1="545.8"
       y2="517.8"
       gradientTransform="matrix(2.1429,0,0,2.1429,-826.36,-1107.5)"
       gradientUnits="userSpaceOnUse">
      <stop
         stop-color="#3889e9"
         offset="0"
         id="stop2" />
      <stop
         stop-color="#5ea5fb"
         offset="1"
         id="stop4" />
    </linearGradient>
    <linearGradient
       id="linearGradient862"
       x1="7.9373"
       x2="7.9373"
       y1="15.081"
       y2="1.852"
       gradientTransform="matrix(3.3743 0 0 3.3743 3.4312 3.4278)"
       gradientUnits="userSpaceOnUse">
      <stop
         stop-color="#f1efeb"
         offset="0"
         id="stop7" />
      <stop
         stop-color="#fff"
         offset="1"
         id="stop9" />
    </linearGradient>
    <linearGradient
       id="linearGradient910"
       x1="7.9373"
       x2="7.9373"
       y1="15.081"
       y2="1.852"
       gradientTransform="scale(3.7796)"
       gradientUnits="userSpaceOnUse">
      <stop
         stop-color="#613583"
         offset="0"
         id="stop12" />
      <stop
         stop-color="#a663c0"
         offset="1"
         id="stop14" />
    </linearGradient>
    <linearGradient
       id="linearGradient932"
       x1="379.24"
       x2="374.24"
       y1="546.85"
       y2="546.85"
       gradientTransform="matrix(2.1429 0 0 2.1429 -769.68 -1134.5)"
       gradientUnits="userSpaceOnUse">
      <stop
         stop-color="#f6f5f4"
         offset="0"
         id="stop17" />
      <stop
         stop-color="#fff"
         offset=".6"
         id="stop19" />
      <stop
         stop-color="#dddbd8"
         offset="1"
         id="stop21" />
    </linearGradient>
    <linearGradient
       id="linearGradient1146"
       x1="18"
       x2="18"
       y1="52"
       y2="12"
       gradientUnits="userSpaceOnUse">
      <stop
         stop-color="#5e337f"
         offset="0"
         id="stop24" />
      <stop
         stop-color="#ab60bf"
         offset="1"
         id="stop26" />
    </linearGradient>
    <linearGradient
       id="linearGradient984"
       x1="8.3681002"
       x2="8.3681002"
       y1="5.1468"
       y2="11.387"
       gradientUnits="userSpaceOnUse"
       gradientTransform="matrix(3.779602,0,0,3.779602,-0.06344947,0.04669005)">
      <stop
         stop-color="#fff"
         offset="0"
         id="stop7-3" />
      <stop
         stop-color="#ffcdd6"
         offset="1"
         id="stop9-6" />
    </linearGradient>
  </defs>
  <circle
     cx="32.02"
     cy="32.044"
     r="30.001"
     fill-opacity="0"
     stroke-width="1.5715"
     id="circle39" />
  <circle
     cx="32.02"
     cy="32.044"
     r="0"
     fill="url(#b)"
     stroke-width="1.5715"
     id="circle41" />
  <path
     d="M 4.0390008,13.865746 27.2664,58.891073 c 0,0 1.259149,2.413386 4.423936,2.413386 3.156329,0 4.415478,-2.413386 4.415478,-2.413386 0,0 16.142474,-27.127768 22.7322,-41.598803 0.6632,-1.455413 1.376674,-2.929236 1.678911,-4.513685 a 7.0092143,7.69134 0 0 0 0.05866,-3.3160487 6.4805221,7.1111964 0 0 0 -1.737637,-3.5740485 6.9089463,7.5813142 0 0 0 -3.895039,-1.8607114 8.0841971,8.8709384 0 0 0 -4.491054,0.9947997 5.876117,6.4479716 0 0 0 -2.325263,2.4686984 7.1354021,7.8298082 0 0 0 -0.73032,3.4266725 8.5118709,9.3402328 0 0 0 0.47849,3.205573 c 0.218269,0.654168 0.50366,1.28955 0.730319,1.934436 0.176245,0.553125 0.436542,1.077656 0.48688,1.658026 a 5.3724577,5.8952969 0 0 1 -0.23505,2.772579 c -1.510977,4.218935 -4.121699,8.262429 -7.571942,10.740633 -1.427082,1.022419 -3.257075,1.280343 -4.952765,1.363275 -1.94752,0.09207 -4.197276,-0.07486 -5.76705,-1.022495 C 28.986994,30.630413 28.248284,28.990801 27.257745,27.5538 22.724742,20.949174 15.312204,6.487195 15.312204,6.487195 c 0,0 -3.223515,-6.25456611 -9.0241234,-2.4686251 C 0.49585979,7.8136423 4.0299352,13.874503 4.0299352,13.874503 Z"
     fill="url(#linearGradient984)"
     fill-rule="evenodd"
     id="path20"
     style="fill:#29292a;stroke-width:7.14515" />
</svg>
