<?xml version="1.0" encoding="UTF-8" standalone="no"?>
<svg
   width="64"
   height="64"
   version="1"
   id="svg12"
   sodipodi:docname="vmware-player.svg"
   inkscape:version="1.1 (c68e22c387, 2021-05-23)"
   xmlns:inkscape="http://www.inkscape.org/namespaces/inkscape"
   xmlns:sodipodi="http://sodipodi.sourceforge.net/DTD/sodipodi-0.dtd"
   xmlns="http://www.w3.org/2000/svg"
   xmlns:svg="http://www.w3.org/2000/svg">
  <defs
     id="defs16" />
  <sodipodi:namedview
     id="namedview14"
     pagecolor="#ffffff"
     bordercolor="#666666"
     borderopacity="1.0"
     inkscape:pageshadow="2"
     inkscape:pageopacity="0.0"
     inkscape:pagecheckerboard="0"
     showgrid="false"
     inkscape:zoom="12.859375"
     inkscape:cx="32"
     inkscape:cy="25.778858"
     inkscape:window-width="1920"
     inkscape:window-height="996"
     inkscape:window-x="0"
     inkscape:window-y="0"
     inkscape:window-maximized="1"
     inkscape:current-layer="svg12" />
  <path
     style="fill:#29292a;stroke-width:1.46215"
     d="m 6.9178048,2.7612926 c -2.3124718,0 -4.1744687,1.8650471 -4.1744687,4.1815039 V 25.026442 c 0,2.31637 2.0702047,4.075751 4.3827639,4.075751 2.3124718,0 4.382764,-1.759294 4.382764,-4.075751 v -8.022885 l 5.843684,6.270827 v 5.827809 h 8.348938 v -1.254736 c 0,-1.1582 0.929556,-2.089324 2.085807,-2.089324 h 1.252625 v -8.363007 h -5.818005 l -6.260275,-5.853532 h 8.009388 c 2.312471,0 4.068892,-2.0736943 4.068892,-4.3901512 0,-2.316369 -1.756333,-4.3901502 -4.068892,-4.3901502 z m 32.0346922,0 c -2.312559,0 -4.068894,2.0737812 -4.068894,4.3901502 0,2.3164569 1.756421,4.3901512 4.068894,4.3901512 h 8.009387 l -6.260276,5.853532 h -5.818005 v 8.363007 h 1.252626 c 1.156251,0 2.085807,0.931124 2.085807,2.089324 v 1.254736 h 8.348938 v -5.827809 l 5.843684,-6.270827 v 8.022885 c 0,2.316457 2.070292,4.075751 4.382764,4.075751 2.312559,0 4.382764,-1.759381 4.382764,-4.075751 V 6.9427965 c 0,-2.3164568 -1.861997,-4.1815039 -4.174469,-4.1815039 z M 17.352548,34.955728 v 7.525562 c 0,2.318038 1.860332,4.181504 4.174469,4.181504 h 7.512901 v -8.363007 h -1.252625 c -1.156251,0 -2.085807,-0.931124 -2.085807,-2.089322 v -1.254737 z m 20.869488,0 v 1.254737 c 0,1.158198 -0.929556,2.089322 -2.085807,2.089322 h -1.252626 v 8.363007 h 5.818005 l 6.260276,5.853534 h -8.009387 c -2.312473,0 -4.068894,2.073694 -4.068894,4.39015 0,2.31637 1.756335,4.39015 4.068894,4.39015 h 18.05322 c 2.312472,0 4.174469,-1.865046 4.174469,-4.181504 V 39.031479 c 0,-2.31637 -2.070205,-4.075751 -4.382764,-4.075751 -2.312472,0 -4.382764,1.759293 -4.382764,4.075751 v 8.022885 l -5.843684,-6.270827 v -5.827809 z"
     id="path8" />
</svg>
