<?xml version="1.0" encoding="UTF-8" standalone="no"?>
<svg
   width="64"
   height="64"
   version="1"
   id="svg18"
   sodipodi:docname="vmware-workstation.svg"
   inkscape:version="1.1 (1:1.1+rc+202105240936+c4e8f9ed74)"
   xmlns:inkscape="http://www.inkscape.org/namespaces/inkscape"
   xmlns:sodipodi="http://sodipodi.sourceforge.net/DTD/sodipodi-0.dtd"
   xmlns="http://www.w3.org/2000/svg"
   xmlns:svg="http://www.w3.org/2000/svg">
  <defs
     id="defs22" />
  <sodipodi:namedview
     id="namedview20"
     pagecolor="#ffffff"
     bordercolor="#666666"
     borderopacity="1.0"
     inkscape:pageshadow="2"
     inkscape:pageopacity="0.0"
     inkscape:pagecheckerboard="0"
     showgrid="false"
     inkscape:zoom="12.859375"
     inkscape:cx="23.873633"
     inkscape:cy="32"
     inkscape:window-width="1920"
     inkscape:window-height="996"
     inkscape:window-x="0"
     inkscape:window-y="0"
     inkscape:window-maximized="1"
     inkscape:current-layer="svg18" />
  <path
     style="fill:#29292a;stroke-width:1.3832"
     d="m 42.611932,62.332311 c 2.413291,0 4.356121,-1.762976 4.356121,-3.952861 V 24.121323 c 0,-2.189885 -1.94283,-3.952861 -4.356121,-3.952861 H 4.8588903 c -2.4132906,0 -4.35612082,1.762976 -4.35612082,3.952861 V 58.37945 c 0,2.189885 1.94283022,3.952861 4.35612082,3.952861 z m -7.2602,-10.540962 H 12.119091 V 30.709424 h 23.232641 z"
     id="path10" />
  <path
     id="path12"
     style="fill:#29292a;stroke-width:1.4076"
     d="M 21.212891 3.5039062 C 18.799601 3.5039062 16.857422 5.3298578 16.857422 7.5976562 L 16.857422 14.419922 L 16.857422 29.615234 L 28.494141 29.615234 L 28.494141 14.419922 L 51.705078 14.419922 L 51.705078 36.251953 L 28.472656 36.251953 L 28.490234 30.691406 L 16.976562 30.650391 L 16.857422 43.074219 C 16.835602 45.341913 18.799601 47.167969 21.212891 47.167969 L 58.966797 47.167969 C 61.380088 47.167969 63.322266 45.342018 63.322266 43.074219 L 63.322266 7.5976562 C 63.322266 5.3298578 61.380088 3.5039063 58.966797 3.5039062 L 21.212891 3.5039062 z " />
  <path
     id="path12-3"
     style="fill:#29292a;stroke-width:1.4076"
     d="m 103.99069,27.23723 c -2.41329,0 -4.355466,1.825952 -4.355466,4.09375 v 6.822266 15.195312 H 111.27194 V 38.153246 h 23.21094 v 21.832031 h -23.23242 l 0.0176,-5.560547 -11.513674,-0.04102 -0.11914,12.423828 c -0.02182,2.267694 1.942184,4.09375 4.355464,4.09375 h 37.75391 c 2.41329,0 4.35547,-1.825951 4.35547,-4.09375 V 31.33098 c 0,-2.267798 -1.94218,-4.09375 -4.35547,-4.09375 z" />
</svg>
