<?xml version="1.0" encoding="UTF-8" standalone="no"?>
<svg
   width="64"
   height="64"
   version="1"
   id="svg12"
   sodipodi:docname="warpinator.svg"
   inkscape:version="1.1 (c68e22c387, 2021-05-23)"
   xmlns:inkscape="http://www.inkscape.org/namespaces/inkscape"
   xmlns:sodipodi="http://sodipodi.sourceforge.net/DTD/sodipodi-0.dtd"
   xmlns="http://www.w3.org/2000/svg"
   xmlns:svg="http://www.w3.org/2000/svg">
  <defs
     id="defs16" />
  <sodipodi:namedview
     id="namedview14"
     pagecolor="#ffffff"
     bordercolor="#666666"
     borderopacity="1.0"
     inkscape:pageshadow="2"
     inkscape:pageopacity="0.0"
     inkscape:pagecheckerboard="0"
     showgrid="false"
     inkscape:zoom="12.859375"
     inkscape:cx="32"
     inkscape:cy="25.778858"
     inkscape:window-width="1920"
     inkscape:window-height="996"
     inkscape:window-x="0"
     inkscape:window-y="0"
     inkscape:window-maximized="1"
     inkscape:current-layer="svg12" />
  <path
     style="fill:#29292a;stroke-width:1.50988"
     d="m 55.751985,2.2828685 a 5.784847,6.3054035 0 0 0 -5.784847,6.3054035 5.784847,6.3054035 0 0 0 0.271164,1.896547 L 40.306895,22.356713 A 11.569694,12.610807 0 0 0 35.505021,21.199079 11.569694,12.610807 0 0 0 23.946624,33.397326 L 9.9082018,35.577123 c -0.7826783,-1.087578 -1.9801886,-1.723188 -3.248325,-1.724134 -2.2823754,0.0014 -4.1313965,2.019622 -4.1296136,4.507378 0.00129,2.485353 1.8494431,4.499765 4.1296136,4.501222 1.6848288,-0.001 3.2003649,-1.116888 3.8302002,-2.820193 l 14.066669,-2.192112 a 11.569694,12.610807 0 0 0 10.948275,8.571408 11.569694,12.610807 0 0 0 11.569694,-12.610806 11.569694,12.610807 0 0 0 -2.022438,-7.118208 l 9.92011,-11.865735 a 5.784847,6.3054035 0 0 0 0.779598,0.06774 5.784847,6.3054035 0 0 0 5.784847,-6.3054034 5.784847,6.3054035 0 0 0 -5.784847,-6.3054035 z m -33.26287,3.1527017 a 4.3386349,4.7290522 0 0 0 -4.338635,4.7290528 4.3386349,4.7290522 0 0 0 4.338635,4.729052 4.3386349,4.7290522 0 0 0 4.338635,-4.729052 4.3386349,4.7290522 0 0 0 -4.338635,-4.7290528 z m 33.26287,0 a 2.8924235,3.1527017 0 0 1 2.892423,3.1527018 2.8924235,3.1527017 0 0 1 -2.892423,3.152702 2.8924235,3.1527017 0 0 1 -2.892424,-3.152702 2.8924235,3.1527017 0 0 1 2.892424,-3.1527018 z m -29.330983,8.7376618 -2.141069,1.717977 1.434911,2.235219 2.141073,-1.724134 z m 2.141071,3.337432 -2.135422,1.724134 1.881207,2.937185 2.141071,-1.724132 z m 6.942948,9.993819 a 5.784847,6.3054035 0 0 1 5.784846,6.305403 5.784847,6.3054035 0 0 1 -5.784846,6.305403 5.784847,6.3054035 0 0 1 -5.784847,-6.305403 5.784847,6.3054035 0 0 1 5.784847,-6.305403 z M 6.6598768,36.106679 c 1.1422884,-9.73e-4 2.0685209,1.008607 2.0676301,2.253688 8.932e-4,1.24508 -0.9253405,2.254663 -2.0676301,2.253689 -1.1400858,-0.0024 -2.0628756,-1.011012 -2.0619835,-2.253689 -8.909e-4,-1.242676 0.9219,-2.25126 2.0619835,-2.253688 z m 38.8725892,5.911316 -2.016789,2.198268 2.604312,2.850979 2.028087,-2.210585 z m 3.553385,3.866984 -2.022434,2.204429 3.022357,3.288171 2.016785,-2.198272 z m -18.665167,0.33867 -1.802116,4.907625 2.587363,0.985219 1.796467,-4.901467 z m 24.608194,3.349745 a 5.0617405,5.5172274 0 0 0 -5.06174,5.517228 5.0617405,5.5172274 0 0 0 5.06174,5.517228 5.0617405,5.5172274 0 0 0 5.061742,-5.517228 5.0617405,5.5172274 0 0 0 -5.061742,-5.517228 z m -26.754916,3.152703 a 4.3386349,4.7290522 0 0 0 -4.338636,4.729051 4.3386349,4.7290522 0 0 0 4.338636,4.729053 4.3386349,4.7290522 0 0 0 4.338635,-4.729053 4.3386349,4.7290522 0 0 0 -4.338635,-4.729051 z"
     id="path8" />
</svg>
