<?xml version="1.0" encoding="UTF-8" standalone="no"?>
<svg
   width="64"
   height="64"
   version="1"
   id="svg12"
   sodipodi:docname="wps-office-wpsmain.svg"
   inkscape:version="1.1 (1:1.1+202105261517+ce6663b3b7)"
   xmlns:inkscape="http://www.inkscape.org/namespaces/inkscape"
   xmlns:sodipodi="http://sodipodi.sourceforge.net/DTD/sodipodi-0.dtd"
   xmlns="http://www.w3.org/2000/svg"
   xmlns:svg="http://www.w3.org/2000/svg"
   xmlns:rdf="http://www.w3.org/1999/02/22-rdf-syntax-ns#"
   xmlns:cc="http://creativecommons.org/ns#"
   xmlns:dc="http://purl.org/dc/elements/1.1/">
  <metadata
     id="metadata18">
    <rdf:RDF>
      <cc:Work
         rdf:about="">
        <dc:format>image/svg+xml</dc:format>
        <dc:type
           rdf:resource="http://purl.org/dc/dcmitype/StillImage" />
        <dc:title />
      </cc:Work>
    </rdf:RDF>
  </metadata>
  <defs
     id="defs16">
    <inkscape:path-effect
       effect="powerclip"
       id="path-effect107"
       is_visible="true"
       lpeversion="1"
       inverse="true"
       flatten="false"
       hide_clip="false"
       message="Use fill-rule evenodd on &lt;b&gt;fill and stroke&lt;/b&gt; dialog if no flatten result after convert clip to paths." />
    <clipPath
       clipPathUnits="userSpaceOnUse"
       id="clipPath103">
      <path
         style="color:#000000;display:none;opacity:0.85;fill:#f2f2f2;stroke-linecap:round;stroke-linejoin:round;-inkscape-stroke:none"
         d="m 14.001953,15 a 3,3 0 0 0 -3,3 v 26.400391 a 3.0003,3.0003 0 0 0 0.05664,0.58789 c 0,0 0.05973,1.817219 2.013672,3.212891 0.97697,0.697836 2.605009,0.991059 3.916015,0.605469 1.311006,-0.38559 2.365994,-1.166776 3.484375,-2.285157 A 3.0003,3.0003 0 0 0 20.65625,46.318359 L 32,32.689453 43.345703,46.318359 a 3.0003,3.0003 0 0 0 0.183594,0.203125 c 1.118381,1.118381 2.173369,1.899567 3.484375,2.285157 1.311006,0.38559 2.939045,0.09237 3.916015,-0.605469 1.953941,-1.395672 2.013672,-3.212891 2.013672,-3.212891 a 3.0003,3.0003 0 0 0 0.05859,-0.58789 L 53,18 a 3,3 0 0 0 -3,-3 3,3 0 0 0 -3,3 L 47.002,41.332031 34.306688,26.080078 a 3.0003,3.0003 0 0 0 -4.613282,0 L 17.002,41.330078 V 18 a 3,3 0 0 0 -3,-3 z"
         id="path105" />
      <path
         id="lpe_path-effect107"
         style="color:#000000;opacity:0.85;fill:#f2f2f2;stroke-linecap:round;stroke-linejoin:round;-inkscape-stroke:none"
         class="powerclip"
         d="M -2,-2 H 66 V 66 H -2 Z m 16.001953,17 a 3,3 0 0 0 -3,3 v 26.400391 a 3.0003,3.0003 0 0 0 0.05664,0.58789 c 0,0 0.05973,1.817219 2.013672,3.212891 0.97697,0.697836 2.605009,0.991059 3.916015,0.605469 1.311006,-0.38559 2.365994,-1.166776 3.484375,-2.285157 A 3.0003,3.0003 0 0 0 20.65625,46.318359 L 32,32.689453 43.345703,46.318359 a 3.0003,3.0003 0 0 0 0.183594,0.203125 c 1.118381,1.118381 2.173369,1.899567 3.484375,2.285157 1.311006,0.38559 2.939045,0.09237 3.916015,-0.605469 1.953941,-1.395672 2.013672,-3.212891 2.013672,-3.212891 a 3.0003,3.0003 0 0 0 0.05859,-0.58789 L 53,18 a 3,3 0 0 0 -3,-3 3,3 0 0 0 -3,3 L 47.002,41.332031 34.306688,26.080078 a 3.0003,3.0003 0 0 0 -4.613282,0 L 17.002,41.330078 V 18 a 3,3 0 0 0 -3,-3 z" />
    </clipPath>
  </defs>
  <sodipodi:namedview
     pagecolor="#ffffff"
     bordercolor="#666666"
     borderopacity="1"
     objecttolerance="10"
     gridtolerance="10"
     guidetolerance="10"
     inkscape:pageopacity="0"
     inkscape:pageshadow="2"
     inkscape:window-width="1495"
     inkscape:window-height="901"
     id="namedview14"
     showgrid="false"
     inkscape:zoom="12.890625"
     inkscape:cx="32.038788"
     inkscape:cy="25.832727"
     inkscape:window-x="0"
     inkscape:window-y="0"
     inkscape:window-maximized="0"
     inkscape:current-layer="svg12"
     inkscape:document-rotation="0"
     inkscape:pagecheckerboard="0" />
  <path
     style="fill:#29292a"
     width="58"
     height="58"
     x="3"
     y="3"
     rx="2.9000001"
     ry="2.9000001"
     id="rect4"
     sodipodi:type="rect"
     clip-path="url(#clipPath103)"
     inkscape:path-effect="#path-effect107"
     d="M 5.9000001,3 H 58.1 C 59.7066,3 61,4.2934 61,5.9000001 V 58.1 C 61,59.7066 59.7066,61 58.1,61 H 5.9000001 C 4.2934,61 3,59.7066 3,58.1 V 5.9000001 C 3,4.2934 4.2934,3 5.9000001,3 Z" />
</svg>
