/* XPM */
static char * browser_xpm[] = {
"20 20 157 2",
"  	c #000000",
". 	c #030303",
"+ 	c #262626",
"@ 	c #535353",
"# 	c #858585",
"$ 	c #B4B4B4",
"% 	c #D8D8D8",
"& 	c #EBEBEB",
"* 	c #F0F0F0",
"= 	c #EEEEEE",
"- 	c #E7E7E7",
"; 	c #D4D4D4",
"> 	c #B1B1B1",
", 	c #828282",
"' 	c #505050",
") 	c #242424",
"! 	c #373737",
"~ 	c #737373",
"{ 	c #ADADAD",
"] 	c #D0D0D0",
"^ 	c #E4E4E4",
"/ 	c #D5D5D5",
"( 	c #C5C5C5",
"_ 	c #E8E8E8",
": 	c #CECECE",
"< 	c #AAAAAA",
"[ 	c #6F6F6F",
"} 	c #343434",
"| 	c #7E7E7E",
"1 	c #B8B8B8",
"2 	c #D9D9D9",
"3 	c #F1F1F1",
"4 	c #F2F2F2",
"5 	c #DADADA",
"6 	c #888888",
"7 	c #8A8A8A",
"8 	c #DEDEDE",
"9 	c #F4F4F4",
"0 	c #B5B5B5",
"a 	c #7B7B7B",
"b 	c #272727",
"c 	c #BABABA",
"d 	c #E9E9E9",
"e 	c #E5E5E5",
"f 	c #C1C1C1",
"g 	c #999999",
"h 	c #9B9B9B",
"i 	c #ECECEC",
"j 	c #E6E6E6",
"k 	c #B7B7B7",
"l 	c #565656",
"m 	c #ACACAC",
"n 	c #DDDDDD",
"o 	c #F6F6F6",
"p 	c #DFDFDF",
"q 	c #F7F7F7",
"r 	c #F5F5F5",
"s 	c #DBDBDB",
"t 	c #A8A8A8",
"u 	c #4F4F4F",
"v 	c #8B8B8B",
"w 	c #C6C6C6",
"x 	c #C7C7C7",
"y 	c #CCCCCC",
"z 	c #E2E2E2",
"A 	c #D6D6D6",
"B 	c #838383",
"C 	c #A5A5A5",
"D 	c #818181",
"E 	c #B0B0B0",
"F 	c #5A5A5A",
"G 	c #585858",
"H 	c #5B5B5B",
"I 	c #8D8D8D",
"J 	c #AFAFAF",
"K 	c #A9A9A9",
"L 	c #AEAEAE",
"M 	c #6E6E6E",
"N 	c #707070",
"O 	c #676767",
"P 	c #6C6C6C",
"Q 	c #6B6B6B",
"R 	c #606060",
"S 	c #515151",
"T 	c #3A3A3A",
"U 	c #454545",
"V 	c #616161",
"W 	c #6A6A6A",
"X 	c #696969",
"Y 	c #5C5C5C",
"Z 	c #717171",
"` 	c #6D6D6D",
" .	c #A6A6A6",
"..	c #969696",
"+.	c #979797",
"@.	c #A0A0A0",
"#.	c #808080",
"$.	c #868686",
"%.	c #9D9D9D",
"&.	c #A3A3A3",
"*.	c #939393",
"=.	c #7D7D7D",
"-.	c #C2C2C2",
";.	c #D1D1D1",
">.	c #BBBBBB",
",.	c #A4A4A4",
"'.	c #BCBCBC",
").	c #B2B2B2",
"!.	c #CFCFCF",
"~.	c #C3C3C3",
"{.	c #C4C4C4",
"].	c #D3D3D3",
"^.	c #CACACA",
"/.	c #CBCBCB",
"(.	c #A2A2A2",
"_.	c #9C9C9C",
":.	c #9A9A9A",
"<.	c #D2D2D2",
"[.	c #9F9F9F",
"}.	c #7F7F7F",
"|.	c #636363",
"1.	c #989898",
"2.	c #5F5F5F",
"3.	c #3B3B3B",
"4.	c #878787",
"5.	c #646464",
"6.	c #575757",
"7.	c #686868",
"8.	c #525252",
"9.	c #777777",
"0.	c #656565",
"a.	c #3E3E3E",
"b.	c #303030",
"c.	c #484848",
"d.	c #2E2E2E",
"e.	c #3F3F3F",
"f.	c #666666",
"g.	c #757575",
"h.	c #545454",
"i.	c #ABABAB",
"j.	c #E1E1E1",
"k.	c #E0E0E0",
"l.	c #EFEFEF",
"m.	c #DCDCDC",
"n.	c #292929",
"o.	c #797979",
"p.	c #BEBEBE",
"q.	c #929292",
"r.	c #A1A1A1",
"s.	c #C8C8C8",
"t.	c #B9B9B9",
"u.	c #040404",
"v.	c #3C3C3C",
"w.	c #F3F3F3",
"x.	c #898989",
"y.	c #EDEDED",
"z.	c #B6B6B6",
"    . + @ # $ % & * = - ; > , ' ) .     ",
"    ! ~ { ] ^ - / ( ( / _ ^ : < [ }     ",
". ! | 1 2 3 4 5 < 6 7 { 8 9 3 5 0 a } . ",
"b ~ c - d * e f g 7 7 h ( - 3 i j k [ ) ",
"l m n * o o * e p 8 8 p j 3 q r * s t u ",
"v w / x - ^ y $ $ $ $ $ 0 : z z x A ( B ",
"6 { C D 0 E v F G G G G H I J E , K L D ",
"M N O H P Q R S T U U T ' V W X Y X Z ` ",
" ...+.@.#.$.%.&.| *.*.=.@.%.6 D @.....K ",
"$ -.] ;.>.,.&.$ '.: : '.).&. .>.!.] ~.$ ",
"%.{.].^./.(.#._.^.] ] ^.:.D ,.y x <.{.g ",
"X g [.I { }.! |.t :.1.C 2.3.B { 4.%.1.5.",
"6.M 7.8.9.0.a.b.S c.c.' d.e.f.g.' 7.M h.",
"# < (.=.{ i.6 l ' S S S l 6 < m | &.K }.",
"6 ( ].{.j.k.^.> E > > > ).^.p k.{.].~., ",
"G J p * 9 o * e p 8 8 k.j * o r l.m.< 8.",
"n.o.p.d _ l.j ( @.q.*.r.s.- 3 & - t.~ + ",
"u.v.B '.s 3 w.s < x.7 { 8 9 3 s 1 | ! . ",
"    v.o.E <.e _ ; -.~./ _ ^ ] m ~ !     ",
"    u.n.G 7 c p y.l.l.i 2 z.6 @ + .     "};
