/* XPM */
static char * calendar_xpm[] = {
"20 22 6 1",
" 	c #F7F7F7",
".	c #000000",
"+	c #F6F6F6",
"@	c #F5F5F5",
"#	c #777777",
"$	c #EAEAEA",
"                    ",
"     .       +.     ",
"     .       @.     ",
" #................@ ",
" ... . ......+..... ",
" .... ........ .... ",
" .................. ",
" .................. ",
" .                . ",
" .  .. .. $.. ..  . ",
" .  .. .. $.. ..  . ",
" .                . ",
" .  .. .. $.. ..  . ",
" .  .. .. $.. ..  . ",
" .                . ",
" .  .. .. $..     . ",
" .  .. .. $..     . ",
" .                . ",
" .................. ",
"                    ",
"                    ",
"                    "};
