/* XPM */
static char * camera_xpm[] = {
"25 20 42 1",
" 	c #000000",
".	c #FFFFFF",
"+	c #B0B0B0",
"@	c #F2F2F2",
"#	c #FAFAFA",
"$	c #ECECEC",
"%	c #ABABAB",
"&	c #757575",
"*	c #D2D2D2",
"=	c #CBCBCB",
"-	c #C5C5C5",
";	c #E6E6E6",
">	c #464646",
",	c #F6F6F6",
"'	c #3C3C3C",
")	c #E1E1E1",
"!	c #9E9E9E",
"~	c #868686",
"{	c #808080",
"]	c #353535",
"^	c #909090",
"/	c #898989",
"(	c #626262",
"_	c #D6D6D6",
":	c #181818",
"<	c #9A9A9A",
"[	c #BEBEBE",
"}	c #1D1D1D",
"|	c #5D5D5D",
"1	c #4B4B4B",
"2	c #686868",
"3	c #383838",
"4	c #707070",
"5	c #303030",
"6	c #272727",
"7	c #0B0B0B",
"8	c #535353",
"9	c #A4A4A4",
"0	c #232323",
"a	c #2B2B2B",
"b	c #1A1A1A",
"c	c #575757",
".......<         <.......",
"...@$$$           $$$@...",
".*|                   |*.",
"_7                     7_",
"&  7:     6{^{6         &",
": 1@,|  5[,.@.,[5       :",
"  4../ >;$!a a!$;>       ",
"   <9  _;>     >;_       ",
"      {.2       2.{      ",
"      [_         _[      ",
"      _[         [_      ",
"      _[         [_      ",
"      [)         )[      ",
"      2.~       ~.2      ",
"       -@2     2@-       ",
"       0*#[&1&[#*0       ",
"6        !;...;!        6",
"/          5(5          /",
";]                     ];",
".;^3                 3^;."};
