/* XPM */
static char * clock_xpm[] = {
"20 20 46 1",
" 	c #000000",
".	c #FFFFFF",
"+	c #ABABAB",
"@	c #CACACA",
"#	c #D8D8D8",
"$	c #EEEEEE",
"%	c #303030",
"&	c #F6F6F6",
"*	c #F2F2F2",
"=	c #202020",
"-	c #FCFCFC",
";	c #E2E2E2",
">	c #C0C0C0",
",	c #FAFAFA",
"'	c #A5A5A5",
")	c #D5D5D5",
"!	c #4F4F4F",
"~	c #595959",
"{	c #454545",
"]	c #989898",
"^	c #393939",
"/	c #E9E9E9",
"(	c #6B6B6B",
"_	c #545454",
":	c #B7B7B7",
"<	c #DDDDDD",
"[	c #767676",
"}	c #8F8F8F",
"|	c #494949",
"1	c #E4E4E4",
"2	c #A1A1A1",
"3	c #AFAFAF",
"4	c #404040",
"5	c #858585",
"6	c #7E7E7E",
"7	c #6A6A6A",
"8	c #171717",
"9	c #242424",
"0	c #737373",
"a	c #626262",
"b	c #131313",
"c	c #2B2B2B",
"d	c #949494",
"e	c #141414",
"f	c #BCBCBC",
"g	c #8B8B8B",
"     ],,,,,,,,2     ",
"    d-.<:++f<..+    ",
"   f.)a  ))  7#.>   ",
"  >.+    55    +.f  ",
" d.+            +.} ",
"8$)          56  @$=",
"d.a         5-)  _-]",
"@<         5,;^   #)",
"/>   =    5,;^    3$",
"&:)( @-*/#,;^   0)',",
"&:)( a}':@@^    0)'&",
"/>                3/",
");                ))",
"].7              |,2",
"=$#              @*c",
" }.+            d.] ",
"  f.'    00    ]-@  ",
"   f.)a  ))  !@.>b  ",
"    ]-.<:33:#--2    ",
"     ],,,,,,,,'     "};
