/* XPM */
static char * cpu_xpm[] = {
"20 20 43 1",
" 	g #FFFFFF",
".	g #E7E7E7",
"+	g #868686",
"@	g #AAAAAA",
"#	g #A9A9A9",
"$	g #E2E2E2",
"%	g #CACACA",
"&	g #B4B4B4",
"*	g #9A9A9A",
"=	g #7C7C7C",
"-	g #000000",
";	g #D7D7D7",
">	g #CBCBCB",
",	g #484848",
"'	g #5C5C5C",
")	g #FAFAFA",
"!	g #D3D3D3",
"~	g #6F6F6F",
"{	g #C0C0C0",
"]	g #D9D9D9",
"^	g #D2D2D2",
"/	g #A7A7A7",
"(	g #A4A4A4",
"_	g #CECECE",
":	g #D1D1D1",
"<	g #C7C7C7",
"[	g #BFBFBF",
"}	g #A6A6A6",
"|	g #646464",
"1	g #B2B2B2",
"2	g #636363",
"3	g #F2F2F2",
"4	g #F6F6F6",
"5	g #F1F1F1",
"6	g #4D4D4D",
"7	g #C5C5C5",
"8	g #A5A5A5",
"9	g #A1A1A1",
"0	g #ABABAB",
"a	g #9C9C9C",
"b	g #999999",
"c	g #B3B3B3",
"d	g #E9E9E9",
"                    ",
"  .+@@@@#$$#@@@@+.  ",
"  .%&**********&%.  ",
"  .%=----------=%.  ",
"  .%=----------=%.  ",
"  .%=----------=%.  ",
"  .%=----------=%.  ",
"  .%=----------=%.  ",
"  .%;>>>>>>>>>>;%.  ",
"  .,'''''''''''',.  ",
"  )..............)  ",
"  !~${]%^^^^%]{$~!  ",
"  /(_:<^[::[^<:_(}  ",
"  |<&$&$1^^1$&$&<2  ",
" 3-_...4....)..._-5 ",
" ^----6;----7|----^ ",
" 8----9!0000:(----8 ",
" a====b@@@@@@b====a ",
" c0000000000000000c ",
" d................d "};
