/* XPM */
static char * cpu_xpm[] = {
"14 20 34 1",
" 	c #F6F6F6",
".	c #DFDFDF",
"+	c #C4C4C4",
"@	c #B6B6B6",
"#	c #000000",
"$	c #B2B2B2",
"%	c #777777",
"&	c #949494",
"*	c #A3A3A3",
"=	c #C5C5C5",
"-	c #B9B9B9",
";	c #BCBCBC",
">	c #6B6B6B",
",	c #333333",
"'	c #CDCDCD",
")	c #C6C6C6",
"!	c #B4B4B4",
"~	c #A4A4A4",
"{	c #A7A7A7",
"]	c #E3E3E3",
"^	c #E0E0E0",
"/	c #050505",
"(	c #ADADAD",
"_	c #AEAEAE",
":	c #181818",
"<	c #9C9C9C",
"[	c #7F7F7F",
"}	c #F4F4F4",
"|	c #818181",
"1	c #5D5D5D",
"2	c #9E9E9E",
"3	c #F2F2F2",
"4	c #C2C2C2",
"5	c #C1C1C1",
" .++++++++++. ",
"@############$",
"%#&********&#%",
"%#.=------;.#%",
"%#.>######,.#%",
"%#.'++++++).#%",
"%#.!~~~~~~{.#%",
"%#.>######,.#%",
"%#.]......^.#%",
"%#>%%%%%%%%>#%",
"%############%",
"%############%",
"%############%",
"%####/(_:####%",
"%####<  <####%",
"%####[} |####%",
"%#####11#####%",
"%############%",
"2############<",
"34**********53"};
