/* XPM */
static char * credit_xpm[] = {
"20 20 44 1",
" 	c #FFFFFF",
".	c #000000",
"+	c #EEEEEE",
"@	c #ABABAB",
"#	c #DDDDDD",
"$	c #BFBFBF",
"%	c #080808",
"&	c #CECECE",
"*	c #828282",
"=	c #F9F9F9",
"-	c #989898",
";	c #F6F6F6",
">	c #747474",
",	c #E1E1E1",
"'	c #FCFCFC",
")	c #8B8B8B",
"!	c #919191",
"~	c #B5B5B5",
"{	c #EAEAEA",
"]	c #606060",
"^	c #373737",
"/	c #666666",
"(	c #A5A5A5",
"_	c #D5D5D5",
":	c #C6C6C6",
"<	c #141414",
"[	c #212121",
"}	c #9C9C9C",
"|	c #727272",
"1	c #C9C9C9",
"2	c #6C6C6C",
"3	c #4E4E4E",
"4	c #474747",
"5	c #1E1E1E",
"6	c #555555",
"7	c #2E2E2E",
"8	c #3E3E3E",
"9	c #2B2B2B",
"0	c #7D7D7D",
"a	c #3B3B3B",
"b	c #484848",
"c	c #515151",
"d	c #111111",
"e	c #5A5A5A",
"....................",
"....................",
"....................",
".@{+++++++++++++{{~d",
"~                  $",
"+                  ;",
"=           '      =",
"={-]={._%11^.~ ~.# =",
"= {0,~6{.#3-;+'c^$ =",
"=  c_/~_.;@.-=&e@! =",
"=  ->d+$8  _.&>*}c =",
"=  :.! }*_!!b&%@}.+=",
"=  ;&+ #,+$:;{_  _;=",
"=                  =",
"+                  ;",
"$                  $",
"d~++++++++++++++++$5",
"....................",
"....................",
"...................."};
