/* XPM */
static char * firefox_xpm[] = {
"20 20 47 1",
" 	c #000000",
".	c #FFFFFF",
"+	c #FCFCFC",
"@	c #F7F7F7",
"#	c #F2F2F2",
"$	c #F5F5F5",
"%	c #E6E6E6",
"&	c #525252",
"*	c #EEEEEE",
"=	c #878787",
"-	c #FAFAFA",
";	c #E9E9E9",
">	c #E1E1E1",
",	c #ECECEC",
"'	c #D4D4D4",
")	c #F3F3F3",
"!	c #6C6C6C",
"~	c #A2A2A2",
"{	c #7F7F7F",
"]	c #C6C6C6",
"^	c #151515",
"/	c #B4B4B4",
"(	c #2E2E2E",
"_	c #191919",
":	c #9E9E9E",
"<	c #212121",
"[	c #262626",
"}	c #BDBDBD",
"|	c #AAAAAA",
"1	c #737373",
"2	c #DBDBDB",
"3	c #555555",
"4	c #929292",
"5	c #484848",
"6	c #5D5D5D",
"7	c #0F0F0F",
"8	c #C4C4C4",
"9	c #323232",
"0	c #3D3D3D",
"a	c #3B3B3B",
"b	c #676767",
"c	c #7A7A7A",
"d	c #8D8D8D",
"e	c #444444",
"f	c #CECECE",
"g	c #545454",
"h	c #707070",
"       1|}}|h       ",
"    7~;'|4:/2;:     ",
" 14&>]56<    !,>c   ",
" ]2%~&f|     hf.+4a ",
" >....#        =@@/ ",
" ,...../7       d.+e",
":.......@b      d@.4",
"%......#!       /..}",
"f......,        |..#",
"2.....=:       b}..$",
"%.....|   ^    c-..>",
"2......f/;+}   =...}",
"}........+}6  3}...{",
"!......2|6   62$..% ",
" '.....+}6 <:$....d ",
" 6@.......-+.....f  ",
"  {-............>9  ",
"   c#..........20   ",
"    0}@......#~     ",
"      (d/]]/=^      "};
