/* XPM */
static char * temp_xpm[] = {
"20 20 65 1",
" 	c #000000",
".	c #858584",
"+	c #8F8F8F",
"@	c #272727",
"#	c #606060",
"$	c #F7F7F5",
"%	c #F6F6F4",
"&	c #BDBDBC",
"*	c #373737",
"=	c #A5A5A4",
"-	c #FEFEFC",
";	c #EEEEEC",
">	c #616160",
",	c #070707",
"'	c #F4F4F2",
")	c #FFFFFD",
"!	c #F1F1EF",
"~	c #3E3E3E",
"{	c #DCDCDA",
"]	c #C7C7C5",
"^	c #9A9A99",
"/	c #383838",
"(	c #ECECEA",
"_	c #FBFBF9",
":	c #494949",
"<	c #A9A9A8",
"[	c #E1E1DF",
"}	c #8F8F8E",
"|	c #9D9D9C",
"1	c #444444",
"2	c #D0D0CE",
"3	c #FAFAF8",
"4	c #C6C6C5",
"5	c #ACACAA",
"6	c #70706F",
"7	c #666666",
"8	c #CCCCCA",
"9	c #D7D7D6",
"0	c #C5C5C3",
"a	c #565655",
"b	c #E7E7E5",
"c	c #F2F2F0",
"d	c #E2E2E0",
"e	c #0B0B0B",
"f	c #3F3F3E",
"g	c #E2E2E1",
"h	c #464645",
"i	c #F0F0EE",
"j	c #CCCCCB",
"k	c #DDDDDB",
"l	c #9F9F9E",
"m	c #6E6E6D",
"n	c #A0A09F",
"o	c #B1B1B0",
"p	c #7B7B7A",
"q	c #F9F9F8",
"r	c #878786",
"s	c #C2C2C0",
"t	c #AAAAA9",
"u	c #C1C1C0",
"v	c #D1D1D0",
"w	c #636362",
"x	c #A8A8A7",
"y	c #ADADAB",
"z	c #393939",
"                    ",
"                    ",
"      .+@           ",
"      #$%&*         ",
"       =--;>        ",
"       ,'-)!~       ",
"        {-))]       ",
"     ^/ ()))_:      ",
"     <[}--)))|1     ",
"     2)3)))))456    ",
"    7-))%))))890    ",
"    &)))ab)))c)b    ",
"    d))-efg))))b    ",
"    b)))} hi)))j    ",
"    k))){  l))3m    ",
"    n))-o  p)qr     ",
"     s))t  uvw      ",
"      #xy z>        ",
"                    ",
"                    "};
