/* XPM */
static char * fm_xpm[] = {
"20 20 43 1",
" 	c #000000",
".	c #FFFFFF",
"+	c #C3C3C3",
"@	c #E7E7E7",
"#	c #5C5C5C",
"$	c #F3F3F3",
"%	c #878787",
"&	c #F6F6F6",
"*	c #787878",
"=	c #6A6A6A",
"-	c #EBEBEB",
";	c #0C0C0C",
">	c #F9F9F9",
",	c #565656",
"'	c #FCFCFC",
")	c #232323",
"!	c #636363",
"~	c #373737",
"{	c #E0E0E0",
"]	c #1A1A1A",
"^	c #474747",
"/	c #DDDDDD",
"(	c #737373",
"_	c #989898",
":	c #D2D2D2",
"<	c #3D3D3D",
"[	c #B3B3B3",
"}	c #2E2E2E",
"|	c #333333",
"1	c #9D9D9D",
"2	c #8B8B8B",
"3	c #D8D8D8",
"4	c #A8A8A8",
"5	c #4E4E4E",
"6	c #141414",
"7	c #CCCCCC",
"8	c #1E1E1E",
"9	c #BCBCBC",
"0	c #7F7F7F",
"a	c #414141",
"b	c #A3A3A3",
"c	c #919191",
"d	c #B0B0B0",
"                    ",
"                    ",
"]47777+(            ",
"+......>!           ",
"&.......7_ccccc#    ",
"&..............'c   ",
"&...............@]  ",
">.................>4",
">...'7++++++++++++@&",
">...[             -{",
">..'5            *.4",
">..3             7'a",
">.._            }&: ",
">.&)            _.c ",
">.7             3$; ",
"&.0            0.9  ",
"7.@@@@@@@@@@@@@.$5  ",
"}9:::::::::::::9^   ",
"                    ",
"                    "};
