/* XPM */
static char * folder_xpm[] = {
"20 20 37 1",
" 	c #000000",
".	c #FCFEFC",
"+	c #FFFFFF",
"@	c #363636",
"#	c #292A29",
"$	c #858685",
"%	c #F2F4F2",
"&	c #CDCECD",
"*	c #A9AAA9",
"=	c #979897",
"-	c #606060",
";	c #676867",
">	c #AFB1AF",
",	c #F6F8F6",
"'	c #8B8C8B",
")	c #767776",
"!	c #E3E5E3",
"~	c #D8DAD8",
"{	c #B5B7B5",
"]	c #212121",
"^	c #E9EBE9",
"/	c #C6C7C6",
"(	c #A2A3A2",
"_	c #1A1A1A",
":	c #5A5B5A",
"<	c #515251",
"[	c #9C9E9C",
"}	c #CFD1CF",
"|	c #6F6F6F",
"1	c #C8CAC8",
"2	c #0C0C0C",
"3	c #909190",
"4	c #4E4E4E",
"5	c #3B3C3B",
"6	c #BDBFBD",
"7	c #434443",
"8	c #242524",
"                    ",
"5/!!!!~3            ",
"}.......|           ",
"%.......~>>>>>****' ",
"%..................>",
"%}888222]888888888}%",
"%6                6%",
"%6                6%",
"%6                6%",
"%6                6%",
"%6                6%",
"%6                6,",
",6                6,",
",6                6,",
",6                6,",
"%6                6,",
"%/                /%",
"~,}&&&&&&&&&&&&&&},~",
"7&!!!!!!!!!!!!!!!!&4",
"                    "};
