/* XPM */
static char * hacker_alt_xpm[] = {
"20 20 85 1",
" 	c #000000",
".	c #010101",
"+	c #8E8E8E",
"@	c #8F8F8F",
"#	c #313131",
"$	c #CDCDCD",
"%	c #F8F8F8",
"&	c #FFFFFF",
"*	c #FDFDFD",
"=	c #DCDCDC",
"-	c #4F4F4F",
";	c #626262",
">	c #959595",
",	c #9E9E9E",
"'	c #BFBFBF",
")	c #C5C5C5",
"!	c #C3C3C3",
"~	c #C9C9C9",
"{	c #5B5B5B",
"]	c #B6B6B6",
"^	c #D7D7D7",
"/	c #E5E5E5",
"(	c #BABABA",
"_	c #838383",
":	c #B7B7B7",
"<	c #EDEDED",
"[	c #EFEFEF",
"}	c #B8B8B8",
"|	c #E3E3E3",
"1	c #D8D8D8",
"2	c #646464",
"3	c #A4A4A4",
"4	c #ECECEC",
"5	c #E7E7E7",
"6	c #B5B5B5",
"7	c #B2B2B2",
"8	c #E6E6E6",
"9	c #A6A6A6",
"0	c #C4C4C4",
"a	c #2A2A2A",
"b	c #ADADAD",
"c	c #F1F1F1",
"d	c #FBFBFB",
"e	c #F5F5F5",
"f	c #B0B0B0",
"g	c #373737",
"h	c #858585",
"i	c #EBEBEB",
"j	c #303030",
"k	c #ACACAC",
"l	c #DFDFDF",
"m	c #E4E4E4",
"n	c #D9D9D9",
"o	c #3B3B3B",
"p	c #7C7C7C",
"q	c #575757",
"r	c #909090",
"s	c #292929",
"t	c #1B1B1B",
"u	c #595959",
"v	c #C8C8C8",
"w	c #9F9F9F",
"x	c #9D9D9D",
"y	c #585858",
"z	c #FEFEFE",
"A	c #9C9C9C",
"B	c #131313",
"C	c #D6D6D6",
"D	c #6C6C6C",
"E	c #141414",
"F	c #989898",
"G	c #D2D2D2",
"H	c #727272",
"I	c #4D4D4D",
"J	c #D5D5D5",
"K	c #717171",
"L	c #969696",
"M	c #F0F0F0",
"N	c #9A9A9A",
"O	c #3A3A3A",
"P	c #979797",
"Q	c #4A4A4A",
"R	c #C1C1C1",
"S	c #4C4C4C",
"T	c #464646",
"                    ",
"        .+@#        ",
"       $%&&*=       ",
"      -&&&&&&;      ",
"      >&&&&&&,      ",
"      '&&&&&&)      ",
"      !&&&&&&~      ",
"  {]^/(_:<[}_}|1}2  ",
"   34&&&5678&&&<9   ",
"  07abc&&&&d&efg7)  ",
"  hi_;jk^lmnbo;_ih  ",
"   ,~pqrs  t@upvw   ",
"    kxy&z55*&yAk    ",
"  B>C<D^&&&&^D4C>E  ",
"   Fe&GHG&&GHG&eF   ",
"    IJ&6K]:K6&JI    ",
"      LMNOoNcP      ",
"       QRSSRQ       ",
"         TT         ",
"                    "};
