/* XPM */
static char * hacker_xpm[] = {
"20 21 65 1",
" 	g #000000",
".	g #656565",
"+	g #FFFFFF",
"@	g #989898",
"#	g #A0A0A0",
"$	g #C9C9C9",
"%	g #E4E4E4",
"&	g #404040",
"*	g #FAFAFA",
"=	g #E8E8E8",
"-	g #898989",
";	g #969696",
">	g #C2C2C2",
",	g #030303",
"'	g #E5E5E5",
")	g #434343",
"!	g #F9F9F9",
"~	g #8A8A8A",
"{	g #666666",
"]	g #E3E3E3",
"^	g #E9E9E9",
"/	g #333333",
"(	g #7A7A7A",
"_	g #9D9D9D",
":	g #2D2D2D",
"<	g #C0C0C0",
"[	g #F2F2F2",
"}	g #BBBBBB",
"|	g #FDFDFD",
"1	g #B0B0B0",
"2	g #7C7C7C",
"3	g #373737",
"4	g #E1E1E1",
"5	g #424242",
"6	g #D2D2D2",
"7	g #F6F6F6",
"8	g #F1F1F1",
"9	g #C3C3C3",
"0	g #181818",
"a	g #606060",
"b	g #4A4A4A",
"c	g #B8B8B8",
"d	g #C5C5C5",
"e	g #D8D8D8",
"f	g #FEFEFE",
"g	g #C1C1C1",
"h	g #CCCCCC",
"i	g #9B9B9B",
"j	g #838383",
"k	g #808080",
"l	g #C8C8C8",
"m	g #A5A5A5",
"n	g #2C2C2C",
"o	g #585858",
"p	g #E0E0E0",
"q	g #9E9E9E",
"r	g #DFDFDF",
"s	g #A6A6A6",
"t	g #EEEEEE",
"u	g #F3F3F3",
"v	g #676767",
"w	g #BFBFBF",
"x	g #A8A8A8",
"y	g #CBCBCB",
"z	g #AAAAAA",
"         .++++++++++",
"         .++++++++++",
"        @#$%++++++++",
"       &*= -++++++++",
"      ;>+= ,$'++++++",
"     )!++=   ~++++++",
"      {]^%/(_!++++++",
"      :< .+[}|++++++",
"      1+2.+}34++++++",
"    5678[#90abc+++++",
"    d++++=     e++++",
"    ^++++=     1++++",
"   /fghhhgiiiiij++++",
"   k+l+++=    mn++++",
"   o!h+++p5   _(++++",
"    q$+++rb   st++++",
"     _+++=    u+++++",
"     vlllwmmmx++++++",
"     (yyy>zzzz*+++++",
"         .++++++++++",
"         .++++++++++"};
