/* XPM */
static char * hdd_xpm[] = {
"20 21 52 1",
" 	c #F6F6F6",
".	c #818181",
"+	c #000000",
"@	c #363636",
"#	c #A4A4A4",
"$	c #A3A3A3",
"%	c #606060",
"&	c #3E3E3E",
"*	c #D4D4D4",
"=	c #777777",
"-	c #D0D0D0",
";	c #C7C7C7",
">	c #030303",
",	c #C4C4C4",
"'	c #A6A6A6",
")	c #C6C6C6",
"!	c #5D5D5D",
"~	c #DEDEDE",
"{	c #B2B2B2",
"]	c #A7A7A7",
"^	c #909090",
"/	c #9C9C9C",
"(	c #D6D6D6",
"_	c #C2C2C2",
":	c #ADADAD",
"<	c #AEAEAE",
"[	c #E2E2E2",
"}	c #E3E3E3",
"|	c #F3F3F3",
"1	c #EDEDED",
"2	c #EAEAEA",
"3	c #E9E9E9",
"4	c #E8E8E8",
"5	c #E7E7E7",
"6	c #E5E5E5",
"7	c #F4F4F4",
"8	c #F0F0F0",
"9	c #EFEFEF",
"0	c #EEEEEE",
"a	c #ECECEC",
"b	c #F5F5F5",
"c	c #BABABA",
"d	c #B9B9B9",
"e	c #E0E0E0",
"f	c #B8B8B8",
"g	c #575757",
"h	c #B0B0B0",
"i	c #DFDFDF",
"j	c #C9C9C9",
"k	c #A5A5A5",
"l	c #AAAAAA",
"m	c #CFCFCF",
"                    ",
".++@#######$%+++&*  ",
"=++=      -;#++++>, ",
"=++=      =+'++++++)",
"=++=      =+'++++++=",
"=++=      =+'++++++=",
"=++!~~~~~~{]^++++++=",
"=++++++++++++++++++=",
"=++++++++++++++++++=",
"=+/,,,,,,,,,,,,,,/+=",
"=+-$$$$$$$$$$$$$$-+=",
"=+(_{::::<<<:::{_(+=",
"=+[              [+=",
"=+}|123445544321|}+=",
"=+6              6+=",
"=+5              5+=",
"=+4789011aa11098b4+=",
"=+6              6+=",
"cde              efd",
".ghiiiiiiiiiiiiiihg.",
"j]''kkk###$$$$$$$#lm"};
