/* XPM */
static char * clock_xpm[] = {
"20 20 133 2",
"  	c #000000",
". 	c #272727",
"+ 	c #626262",
"@ 	c #7B7B7B",
"# 	c #7F7F7F",
"$ 	c #7E7E7E",
"% 	c #7A7A7A",
"& 	c #6C6C6C",
"* 	c #323232",
"= 	c #020202",
"- 	c #010101",
"; 	c #474747",
"> 	c #9E9E9E",
", 	c #BABABA",
"' 	c #B5B5B5",
") 	c #AFAFAF",
"! 	c #B7B7B7",
"~ 	c #B2B2B2",
"{ 	c #565656",
"] 	c #4A4A4A",
"^ 	c #9C9C9C",
"/ 	c #9A9A9A",
"( 	c #545454",
"_ 	c #555555",
": 	c #5A5A5A",
"< 	c #8A8A8A",
"[ 	c #5B5B5B",
"} 	c #424242",
"| 	c #909090",
"1 	c #999999",
"2 	c #3B3B3B",
"3 	c #898989",
"4 	c #A7A7A7",
"5 	c #2A2A2A",
"6 	c #A9A9A9",
"7 	c #6E6E6E",
"8 	c #484848",
"9 	c #444444",
"0 	c #313131",
"a 	c #343434",
"b 	c #515151",
"c 	c #A1A1A1",
"d 	c #949494",
"e 	c #434343",
"f 	c #060606",
"g 	c #696969",
"h 	c #9B9B9B",
"i 	c #A6A6A6",
"j 	c #B4B4B4",
"k 	c #B6B6B6",
"l 	c #767676",
"m 	c #222222",
"n 	c #A2A2A2",
"o 	c #B3B3B3",
"p 	c #CFCFCF",
"q 	c #E9E9E9",
"r 	c #EEEEEE",
"s 	c #D9D9D9",
"t 	c #ADADAD",
"u 	c #5D5D5D",
"v 	c #262626",
"w 	c #C5C5C5",
"x 	c #E3E3E3",
"y 	c #F8F8F8",
"z 	c #FAFAFA",
"A 	c #E7E7E7",
"B 	c #CACACA",
"C 	c #383838",
"D 	c #4C4C4C",
"E 	c #989898",
"F 	c #C1C1C1",
"G 	c #D3D3D3",
"H 	c #D8D8D8",
"I 	c #070707",
"J 	c #171717",
"K 	c #5E5E5E",
"L 	c #A5A5A5",
"M 	c #C0C0C0",
"N 	c #AAAAAA",
"O 	c #BFBFBF",
"P 	c #707070",
"Q 	c #131313",
"R 	c #5F5F5F",
"S 	c #B9B9B9",
"T 	c #979797",
"U 	c #969696",
"V 	c #1F1F1F",
"W 	c #A4A4A4",
"X 	c #828282",
"Y 	c #747474",
"Z 	c #797979",
"` 	c #808080",
" .	c #9D9D9D",
"..	c #080808",
"+.	c #ABABAB",
"@.	c #6F6F6F",
"#.	c #757575",
"$.	c #ACACAC",
"%.	c #8C8C8C",
"&.	c #4B4B4B",
"*.	c #363636",
"=.	c #777777",
"-.	c #838383",
";.	c #8F8F8F",
">.	c #212121",
",.	c #686868",
"'.	c #1E1E1E",
").	c #1C1C1C",
"!.	c #A8A8A8",
"~.	c #4D4D4D",
"{.	c #E1E1E1",
"].	c #E6E6E6",
"^.	c #636363",
"/.	c #8E8E8E",
"(.	c #3D3D3D",
"_.	c #404040",
":.	c #595959",
"<.	c #F5F5F5",
"[.	c #F9F9F9",
"}.	c #E5E5E5",
"|.	c #505050",
"1.	c #787878",
"2.	c #D2D2D2",
"3.	c #DADADA",
"4.	c #DBDBDB",
"5.	c #575757",
"6.	c #9F9F9F",
"7.	c #BBBBBB",
"8.	c #BCBCBC",
"9.	c #B1B1B1",
"0.	c #B0B0B0",
"a.	c #646464",
"b.	c #737373",
"      . + @ # $ $ $ $ $ $ $ % & * =     ",
"    - ; > , ' ) ) ) ) ) ) ) ! ~ { -     ",
"    - ] ^ / & ( _ _ _ _ _ : < ~ [       ",
"    = } | 1 (   = = = =   2 3 4 ( -     ",
"    - 5 @ 6 7 8 9 0 a 8 b & c d e -     ",
"      f g ' h i 6 / ^ ) j 6 k l m -     ",
"        b n o p q r r r s k t u         ",
"        v @ ! w x y z A B ! 3 C         ",
"          D E j F G H w k n : I         ",
"          J K L M 6 N O ) P m           ",
"          Q R 4 S T U k t 7 V           ",
"          8 d W X Y Z ` c  .{ ..        ",
"        v % +.# 9 @.Z D #.$.%.C         ",
"        b n T &.*.=.-.&.*.;.$.u         ",
"      f g ~ Y >.{ ;.1 ,.'.& ) Y ).      ",
"    - 5 @ !.+ ~.6 {.]., ^.{ > /.(.      ",
"      _.;.T :.< s <.[.}.n :.3 n |.-     ",
"    - ] ^ E 1.6 2.3.4.s S 1.3 +.5.-     ",
"    - 8 6.S ~ ! 7.8.8.8.S $.9.0.{ -     ",
"      . a.` -.-.-.-.-.-.-.X -.b.a -     "};
