/* XPM */
static char * image_xpm[] = {
"23 20 40 1",
" 	c #000000",
".	c #FFFFFF",
"+	c #2F2F2F",
"@	c #9C9C9C",
"#	c #C5C5C5",
"$	c #959595",
"%	c #AEAEAE",
"&	c #B9B9B9",
"*	c #C1C1C1",
"=	c #FBFBFB",
"-	c #F8F8F8",
";	c #A1A1A1",
">	c #A4A4A4",
",	c #A8A8A8",
"'	c #F3F3F3",
")	c #999999",
"!	c #575757",
"~	c #E6E6E6",
"{	c #D1D1D1",
"]	c #838383",
"^	c #8D8D8D",
"/	c #525252",
"(	c #B5B5B5",
"_	c #090909",
":	c #6C6C6C",
"<	c #1D1D1D",
"[	c #7A7A7A",
"}	c #292929",
"|	c #3F3F3F",
"1	c #CBCBCB",
"2	c #EDEDED",
"3	c #373737",
"4	c #636363",
"5	c #D7D7D7",
"6	c #494949",
"7	c #202020",
"8	c #7B7B7B",
"9	c #686868",
"0	c #171717",
"a	c #424242",
"_                     _",
"__]$$$$$$$$$$$$$$$$$^|_",
"_$...................&_",
"_;.............=#,{..#_",
"_@.............;   #.#_",
"_@............=_   :.#_",
"_@.............+   8.#_",
"_)......~5.....*  }5.#_",
"_@.....~} #.....~12..#_",
"_@....'/   {.........#_",
"_@...=[    }5.~[#....#_",
"_@...)      +>3  1...#_",
"_@..&            0{..#_",
"_;.5_             }5.#_",
"_;2|               3~#_",
"_]4                 6;_",
"_                     _",
"_                     _",
"_                     _",
"_                     _"};
