/* XPM */
static char * magnet_xpm[] = {
"20 20 40 1",
" 	c #000000",
".	c #FFFFFF",
"+	c #DBDBDB",
"@	c #101010",
"#	c #D1D1D1",
"$	c #878787",
"%	c #282828",
"&	c #787878",
"*	c #FCFCFC",
"=	c #F3F3F3",
"-	c #F9F9F9",
";	c #171717",
">	c #ECECEC",
",	c #DCDCDC",
"'	c #646464",
")	c #F6F6F6",
"!	c #373737",
"~	c #424242",
"{	c #C2C2C2",
"]	c #4F4F4F",
"^	c #555555",
"/	c #303030",
"(	c #5E5E5E",
"_	c #707070",
":	c #C0C0C0",
"<	c #8D8D8D",
"[	c #E6E6E6",
"}	c #C8C8C8",
"|	c #E3E3E3",
"1	c #989898",
"2	c #1C1C1C",
"3	c #494949",
"4	c #A1A1A1",
"5	c #B1B1B1",
"6	c #AEAEAE",
"7	c #808080",
"8	c #696969",
"9	c #232323",
"0	c #A4A4A4",
"a	c #2D2D2D",
"      &{[--[{&      ",
"    !#........#!    ",
"   3[..........[3   ",
"   ,............,   ",
"  4....)5775)....4  ",
"  [...=(    (=...[  ",
" ^....<      <....^ ",
" $...)@      @)...$ ",
" <...>        >...< ",
" <...>        >...< ",
" <...>        >...< ",
" <...>        >...< ",
" <...>        >...< ",
" 7...|        |...7 ",
"  '&&~        ~&&'  ",
" &*..+        +..*& ",
" <...>        >...< ",
" <...>        >...< ",
" <...>        >...< ",
" _)--#        #--)_ "};
