/* XPM */
static char * email_xpm[] = {
"20 15 44 1",
" 	c #F6F6F6",
".	c #C0C0C0",
"+	c #000000",
"@	c #BDBDBD",
"#	c #F4F4F4",
"$	c #F5F5F5",
"%	c #A3A3A3",
"&	c #9D9D9D",
"*	c #959595",
"=	c #E9E9E9",
"-	c #9F9F9F",
";	c #777777",
">	c #5D5D5D",
",	c #E8E8E8",
"'	c #5E5E5E",
")	c #A8A8A8",
"!	c #A4A4A4",
"~	c #5A5A5A",
"{	c #E3E3E3",
"]	c #414141",
"^	c #DBDBDB",
"/	c #C4C4C4",
"(	c #ACACAC",
"_	c #363636",
":	c #DADADA",
"<	c #373737",
"[	c #C5C5C5",
"}	c #C8C8C8",
"|	c #787878",
"1	c #3B3B3B",
"2	c #C2C2C2",
"3	c #D5D5D5",
"4	c #797979",
"5	c #4C4C4C",
"6	c #DDDDDD",
"7	c #BBBBBB",
"8	c #181818",
"9	c #BFBFBF",
"0	c #CFCFCF",
"a	c #7D7D7D",
"b	c #A0A0A0",
"c	c #E5E5E5",
"d	c #B4B4B4",
"e	c #EDEDED",
"                    ",
" .++++++++++++++++@ ",
"#$%++++++++++++++&# ",
"*= %++++++++++++% =-",
";>, %++++++++++% =';",
";+>, )++++++++! =>+;",
";++~{ @++++++! ='++;",
";+++]^ /++++( ,>+++;",
";+++_:  /++@  :_+++;",
";++<: /: [/ ^} :_++|",
";+1: 2+_3  :_+/ :_+4",
";56 7+++890_+++/ :_a",
"bc d++++++++++++/ :&",
"  (++++++++++++++/ #",
" c%%%%%%%%%%%%%%%%e "};
