/* XPM */
static char * net_xpm[] = {
"20 20 8 1",
" 	g #FFFFFF",
".	g #000000",
"+	g #696969",
"@	g #131313",
"#	g #353535",
"$	g #383838",
"%	g #636363",
"&	g #595959",
"                    ",
"                    ",
"                    ",
"                    ",
"     ...    +.      ",
"     ...   @...     ",
"     ...  ......    ",
"     ... ........   ",
"     ...    ...     ",
"     ...    ...     ",
"     ...    ...     ",
"     ...    ...     ",
"   .......# ...     ",
"    .....$  ...     ",
"     ...%   ...     ",
"      .&    ...     ",
"                    ",
"                    ",
"                    ",
"                    "};
