/* XPM */
static char * netdown_xpm[] = {
"20 20 43 1",
" 	c #000000",
".	c #FFFFFF",
"+	c #F9F9F9",
"@	c #F6F6F6",
"#	c #E2E2E2",
"$	c #EBEBEB",
"%	c #AFAFAF",
"&	c #FCFCFC",
"*	c #959595",
"=	c #DBDBDB",
"-	c #C7C7C7",
";	c #A6A6A6",
">	c #F3F3F3",
",	c #2F2F2F",
"'	c #5B5B5B",
")	c #E1E1E1",
"!	c #646464",
"~	c #CDCDCD",
"{	c #707070",
"]	c #222222",
"^	c #909090",
"/	c #B6B6B6",
"(	c #D5D5D5",
"_	c #868686",
":	c #272727",
"<	c #363636",
"[	c #555555",
"}	c #0C0C0C",
"|	c #3B3B3B",
"1	c #484848",
"2	c #C1C1C1",
"3	c #414141",
"4	c #797979",
"5	c #9E9E9E",
"6	c #6D6D6D",
"7	c #828282",
"8	c #949494",
"9	c #191919",
"0	c #4F4F4F",
"a	c #585858",
"b	c #616161",
"c	c #131313",
"d	c #232323",
"     (*c    c8(}    ",
"     =.>/11/>.)     ",
"     /...+&...2     ",
"     ^........8     ",
"     |........0     ",
"      $......$      ",
"      -......~      ",
"      ;......%      ",
"      !......{      ",
"       @....+c      ",
"       =....=       ",
"       /....2       ",
"    [] _....^ 90    ",
"    8.&>....>&.5    ",
"     /........2     ",
"      (......=}     ",
"      <$....$3      ",
"       b>..@!       ",
"        _&&^        ",
"         ;%         "};
