/* XPM */
static char * netup_xpm[] = {
"20 20 43 1",
" 	c #000000",
".	c #FFFFFF",
"+	c #F6F6F6",
"@	c #FBFBFB",
"#	c #C2C2C2",
"$	c #F9F9F9",
"%	c #303030",
"&	c #EFEFEF",
"*	c #222222",
"=	c #DCDCDC",
"-	c #F2F2F2",
";	c #EBEBEB",
">	c #D6D6D6",
",	c #CFCFCF",
"'	c #545454",
")	c #AAAAAA",
"!	c #A3A3A3",
"~	c #191919",
"{	c #7C7C7C",
"]	c #0D0D0D",
"^	c #4D4D4D",
"/	c #E1E1E1",
"(	c #878787",
"_	c #8E8E8E",
":	c #727272",
"<	c #B2B2B2",
"[	c #949494",
"}	c #2A2A2A",
"|	c #6A6A6A",
"1	c #BDBDBD",
"2	c #585858",
"3	c #3C3C3C",
"4	c #9C9C9C",
"5	c #1C1C1C",
"6	c #454545",
"7	c #373737",
"8	c #636363",
"9	c #2F2F2F",
"0	c #131313",
"a	c #404040",
"b	c #767676",
"c	c #828282",
"d	c #262626",
"         4!         ",
"        {@@(        ",
"       2-..+8       ",
"      %/....;3      ",
"      ,......>      ",
"     <........1     ",
"    _..-....+..[    ",
"    2% c...._ }2    ",
"       <....1       ",
"       >....=       ",
"       +....$]      ",
"      8......:      ",
"      4......)      ",
"      #......,      ",
"      ;......;      ",
"     7........^     ",
"     (........[     ",
"     <...@@...1     ",
"     =.+1'^<&.=     ",
"     >4*    0[>]    "};
