/* XPM */
static char * pacman_alt_xpm[] = {
"20 16 57 1",
" 	c #F6F6F6",
".	c #C9C9C9",
"+	c #8A8A8A",
"@	c #323232",
"#	c #000000",
"$	c #404040",
"%	c #8D8D8D",
"&	c #D0D0D0",
"*	c #E9E9E9",
"=	c #767676",
"-	c #8B8B8B",
";	c #F1F1F1",
">	c #EAEAEA",
",	c #5D5D5D",
"'	c #7E7E7E",
")	c #F2F2F2",
"!	c #363636",
"~	c #D6D6D6",
"{	c #DEDEDE",
"]	c #898989",
"^	c #E6E6E6",
"/	c #B1B1B1",
"(	c #494949",
"_	c #C7C7C7",
":	c #979797",
"<	c #EDEDED",
"[	c #CACACA",
"}	c #B8B8B8",
"|	c #E8E8E8",
"1	c #A5A5A5",
"2	c #EBEBEB",
"3	c #D5D5D5",
"4	c #777777",
"5	c #757575",
"6	c #7A7A7A",
"7	c #B9B9B9",
"8	c #868686",
"9	c #989898",
"0	c #4A4A4A",
"a	c #C8C8C8",
"b	c #E5E5E5",
"c	c #DDDDDD",
"d	c #D3D3D3",
"e	c #DADADA",
"f	c #BFBFBF",
"g	c #B7B7B7",
"h	c #D4D4D4",
"i	c #A3A3A3",
"j	c #AEAEAE",
"k	c #BABABA",
"l	c #393939",
"m	c #4D4D4D",
"n	c #CBCBCB",
"o	c #EEEEEE",
"p	c #A4A4A4",
"q	c #A7A7A7",
"r	c #CFCFCF",
"                    ",
"    .+@#$%&         ",
"  *=#######-;       ",
" >,#########')      ",
" %##########!~      ",
"{##########]^       ",
"/########(_         ",
"+#######:< [} |12 /3",
"4######5<  6@ 7#[^#8",
"9#######0a bc )d  e<",
"f#########+^        ",
"<!#########!7       ",
" g###########h      ",
"  i#########j       ",
"   kl#####mn        ",
"    o.ppqr)         "};
