/* XPM */
static char * pacman_xpm[] = {
"20 23 68 1",
" 	c #F7F7F7",
".	c #EEEEEE",
"+	c #B8B8B8",
"@	c #808080",
"#	c #050505",
"$	c #000000",
"%	c #464646",
"&	c #8D8D8D",
"*	c #CACACA",
"=	c #F3F3F3",
"-	c #F4F4F4",
";	c #B3B3B3",
">	c #363636",
",	c #545454",
"'	c #D0D0D0",
")	c #F1F1F1",
"!	c #828282",
"~	c #AAAAAA",
"{	c #818181",
"]	c #595959",
"^	c #DFDFDF",
"/	c #DCDCDC",
"(	c #4D4D4D",
"_	c #ADADAD",
":	c #A7A7A7",
"<	c #A4A4A4",
"[	c #E3E3E3",
"}	c #E5E5E5",
"|	c #626262",
"1	c #E9E9E9",
"2	c #E6E6E6",
"3	c #4F4F4F",
"4	c #333333",
"5	c #A6A6A6",
"6	c #A3A3A3",
"7	c #393939",
"8	c #ACACAC",
"9	c #BEBEBE",
"0	c #F0F0F0",
"a	c #616161",
"b	c #C1C1C1",
"c	c #6C6C6C",
"d	c #CBCBCB",
"e	c #7C7C7C",
"f	c #E0E0E0",
"g	c #4E4E4E",
"h	c #B5B5B5",
"i	c #F2F2F2",
"j	c #222222",
"k	c #9C9C9C",
"l	c #898989",
"m	c #757575",
"n	c #C7C7C7",
"o	c #4A4A4A",
"p	c #6E6E6E",
"q	c #E4E4E4",
"r	c #E1E1E1",
"s	c #D7D7D7",
"t	c #343434",
"u	c #5E5E5E",
"v	c #DBDBDB",
"w	c #5D5D5D",
"x	c #8B8B8B",
"y	c #EBEBEB",
"z	c #BBBBBB",
"A	c #535353",
"B	c #787878",
"C	c #C5C5C5",
"                    ",
"      .+@#$$%&*=    ",
"    -;>$$$$$$$$,'   ",
"   )!$$$$$$$$$$$$~  ",
"  ={$$$$]^/($$$$$$_ ",
"  :$$$$$<  <$$$$$$$[",
" }$$$$$$|123$$$$$45=",
" 6$$$$$$$$$$$$$78.  ",
" ($$$$$$$$$$$(90    ",
"}$$$$$$$$$$ab=      ",
"^$$$$$$$$cd         ",
"/$$$$$$$e-          ",
"f$$$$$$$$gh.        ",
"i$$$$$$$$$$jk/      ",
" l$$$$$$$$$$$$mn=   ",
" d$$$$$$$$$$$$$$o_1 ",
"  p$$$$$$$$$$$$$$$$q",
"  r>$$$$$$$$$$$$$$c=",
"   st$$$$$$$$$$$$u1 ",
"    vw$$$$$$$$$$xy  ",
"     =zA$$$$$$Bd    ",
"        fCCCd1      ",
"                    "};
