/* XPM */
static char * ram_xpm[] = {
"20 20 40 1",
" 	c #000000",
".	c #FFFFFF",
"+	c #E8E8E8",
"@	c #7A7A7A",
"#	c #DADADA",
"$	c #F2F2F2",
"%	c #1A1A1A",
"&	c #464646",
"*	c #6A6A6A",
"=	c #EBEBEB",
"-	c #D5D5D5",
";	c #0E0E0E",
">	c #F6F6F6",
",	c #CFCFCF",
"'	c #C5C5C5",
")	c #3F3F3F",
"!	c #5B5B5B",
"~	c #9A9A9A",
"{	c #353535",
"]	c #ABABAB",
"^	c #B3B3B3",
"/	c #525252",
"(	c #767676",
"_	c #636363",
":	c #BFBFBF",
"<	c #262626",
"[	c #909090",
"}	c #CBCBCB",
"|	c #2E2E2E",
"1	c #4B4B4B",
"2	c #222222",
"3	c #898989",
"4	c #A1A1A1",
"5	c #3A3A3A",
"6	c #818181",
"7	c #949494",
"8	c #141414",
"9	c #676767",
"0	c #A6A6A6",
"a	c #787878",
"    a=19=!!=*1=@    ",
"    4.(3.@@.3(.~    ",
"    [.!a.**.@!.[    ",
"    |!11_11_1&_{    ",
"(765>..........>567(",
"$..!............!..$",
"!a_/............!_@!",
"_6*!...++++++...!*6_",
"$.._..>      >.._..$",
"_6*!..>      >..!*6_",
"/@_!..>      >..!_@!",
"$.._..>      >.._..$",
"(~6!...,,,,,,...!6~(",
")*1!............!1*)",
"=.._............!..=",
"3]7&............)703",
"    /***(((((((!    ",
"    3>!(.99.(!>3    ",
"    ~.(3.@@.3(.0    ",
"    6$/*>__$*/$6    "};
