/* XPM */
static char * swap_alt_xpm[] = {
"20 16 41 1",
" 	c #F7F7F7",
".	c #CACACA",
"+	c #BFBFBF",
"@	c #C5C5C5",
"#	c #000000",
"$	c #949494",
"%	c #F2F2F2",
"&	c #D9D9D9",
"*	c #9B9B9B",
"=	c #787878",
"-	c #5E5E5E",
";	c #5F5F5F",
">	c #E0E0E0",
",	c #C3C3C3",
"'	c #545454",
")	c #EFEFEF",
"!	c #EEEEEE",
"~	c #343434",
"{	c #6C6C6C",
"]	c #A4A4A4",
"^	c #828282",
"/	c #7B7B7B",
"(	c #E9E9E9",
"_	c #DFDFDF",
":	c #777777",
"<	c #AEAEAE",
"[	c #F4F4F4",
"}	c #CCCCCC",
"|	c #D2D2D2",
"1	c #E8E8E8",
"2	c #5C5C5C",
"3	c #DEDEDE",
"4	c #4D4D4D",
"5	c #383838",
"6	c #F1F1F1",
"7	c #555555",
"8	c #0F0F0F",
"9	c #7C7C7C",
"0	c #B0B0B0",
"a	c #E5E5E5",
"b	c #ADADAD",
"                    ",
"              .+    ",
"              @#$%  ",
"  &*==========-##;> ",
" ,################')",
"!~#{]]]]]]]]]]^##/( ",
"_::!          @#<[  ",
"              }|    ",
"    +.              ",
"  %$#@          1223",
" >;##-==========4#56",
")7###############8. ",
" (9##^]]]]]]]]]]0a  ",
"  [b#@              ",
"    |}              ",
"                    "};
