/* XPM */
static char * swap_xpm[] = {
"20 25 67 1",
" 	c #F7F7F7",
".	c #EBEBEB",
"+	c #818181",
"@	c #E9E9E9",
"#	c #8B8B8B",
"$	c #4E4E4E",
"%	c #D9D9D9",
"&	c #CCCCCC",
"*	c #000000",
"=	c #020202",
"-	c #BABABA",
";	c #F6F6F6",
">	c #F5F5F5",
",	c #F4F4F4",
"'	c #F3F3F3",
")	c #F2F2F2",
"!	c #EDEDED",
"~	c #444444",
"{	c #929292",
"]	c #A7A7A7",
"^	c #636363",
"/	c #E6E6E6",
"(	c #A4A4A4",
"_	c #363636",
":	c #E8E8E8",
"<	c #131313",
"[	c #C0C0C0",
"}	c #E0E0E0",
"|	c #C5C5C5",
"1	c #3E3E3E",
"2	c #545454",
"3	c #DADADA",
"4	c #DDDDDD",
"5	c #7F7F7F",
"6	c #EAEAEA",
"7	c #A3A3A3",
"8	c #AAAAAA",
"9	c #515151",
"0	c #808080",
"a	c #ECECEC",
"b	c #E5E5E5",
"c	c #D6D6D6",
"d	c #4A4A4A",
"e	c #8D8D8D",
"f	c #B6B6B6",
"g	c #CFCFCF",
"h	c #F1F1F1",
"i	c #DEDEDE",
"j	c #E1E1E1",
"k	c #E3E3E3",
"l	c #E4E4E4",
"m	c #E7E7E7",
"n	c #EEEEEE",
"o	c #E2E2E2",
"p	c #5E5E5E",
"q	c #A5A5A5",
"r	c #C3C3C3",
"s	c #2D2D2D",
"t	c #DBDBDB",
"u	c #5D5D5D",
"v	c #393939",
"w	c #838383",
"x	c #DCDCDC",
"y	c #B0B0B0",
"z	c #A2A2A2",
"A	c #D2D2D2",
"B	c #525252",
"                    ",
"           .+@      ",
"            #$%     ",
"            &*=-    ",
"     ;>,,'')!~**{'  ",
" ]***************^/ ",
" (****************_:",
" (***************<[ ",
" }|||||||||||1**23  ",
"            4**56   ",
"            7*8,    ",
"           '9&      ",
"      60a  )b       ",
"     cde            ",
"    f**g            ",
"  he**_ijkl/m@6.n;  ",
" op***************q ",
"@_****************( ",
" rs***************( ",
"  tu**v|||||||||||} ",
"   aw**x            ",
"     y*z            ",
"      AB)           ",
"       @'           ",
"                    "};
