/* XPM */
static char * temp_alt_xpm[] = {
"20 20 42 1",
" 	c #000000",
".	c #FFFFFF",
"+	c #F4F4F4",
"@	c #F8F8F8",
"#	c #404040",
"$	c #E9E9E9",
"%	c #ECECEC",
"&	c #D5D5D5",
"*	c #A1A1A1",
"=	c #959595",
"-	c #E4E4E4",
";	c #BDBDBD",
">	c #DFDFDF",
",	c #2D2D2D",
"'	c #9B9B9B",
")	c #F0F0F0",
"!	c #8B8B8B",
"~	c #464646",
"{	c #C7C7C7",
"]	c #717171",
"^	c #ABABAB",
"/	c #CECECE",
"(	c #7B7B7B",
"_	c #858585",
":	c #171717",
"<	c #393939",
"[	c #525252",
"}	c #CACACA",
"|	c #D9D9D9",
"1	c #282828",
"2	c #686868",
"3	c #B5B5B5",
"4	c #5F5F5F",
"5	c #323232",
"6	c #4B4B4B",
"7	c #212121",
"8	c #A7A7A7",
"9	c #8F8F8F",
"0	c #5B5B5B",
"a	c #101010",
"b	c #767676",
"c	c #131313",
"         !&<        ",
"          +-<       ",
"          +.&       ",
"      c=<_..._      ",
"     6-+#>.../      ",
"    a-.;}....-      ",
"    !........>9     ",
"    *........-@=    ",
"    (...-$.....$a   ",
"   (1...&0+@....=   ",
"   )0%..; [-....|   ",
"  ].;+..(  -.....~  ",
"  *....%   &.....9  ",
"  3....^   _=....^  ",
"  ^....4    <....^  ",
"  !....5    4....'  ",
"  :)...'    ^...@#  ",
"   !...@*,<8@...'   ",
"    9+........)9    ",
"     <^>+@@$&'1     "};
