/* XPM */
static char * temp_xpm[] = {
"20 20 43 1",
" 	c #000000",
".	c #FCFEFC",
"+	c #FFFFFF",
"@	c #A9AAA9",
"#	c #A3A4A3",
"$	c #B2B3B2",
"%	c #ACADAC",
"&	c #F8FAF8",
"*	c #BABBBA",
"=	c #DDDFDD",
"-	c #E5E7E5",
";	c #F5F7F5",
">	c #F2F4F2",
",	c #8E8F8E",
"'	c #BDBFBD",
")	c #818281",
"!	c #686968",
"~	c #5E5F5E",
"{	c #CCCDCC",
"]	c #D7D9D7",
"^	c #C3C5C3",
"/	c #D2D4D2",
"(	c #6E6F6E",
"_	c #EDEFED",
":	c #323232",
"<	c #727372",
"[	c #868786",
"}	c #595A59",
"|	c #363636",
"1	c #7A7B7A",
"2	c #2B2B2B",
"3	c #494A49",
"4	c #202120",
"5	c #1A1A1A",
"6	c #989998",
"7	c #484848",
"8	c #3E3F3E",
"9	c #0D0D0D",
"0	c #545454",
"a	c #131313",
"b	c #9A9B9A",
"c	c #272827",
"d	c #414241",
"      6<            ",
"      [&b           ",
"      )..6          ",
"      $..;0         ",
"     d>...^         ",
"     /....;5        ",
"    $......<        ",
"   6.......[ |0     ",
"  !;.......!  -,    ",
"  =.......-   =.b   ",
" ,........b   _.&1  ",
" ^.......]   )...-9 ",
" {......-8  c-...., ",
" {.....>!   ^.....^ ",
" #.....,   %....../ ",
" 7&...^   ,.......] ",
"  $...0  0>.......{ ",
"  a=.-   ^........% ",
"   |]-  2&.......&0 ",
"    a$| <&&&&&&&>6  "};
