/* XPM */
static char * terminal_xpm[] = {
"20 20 32 1",
" 	c #000000",
".	c #FFFFFF",
"+	c #F7F7F7",
"@	c #2E2E2E",
"#	c #7D7D7D",
"$	c #BBBBBB",
"%	c #979797",
"&	c #B2B2B2",
"*	c #A5A5A5",
"=	c #C8C8C8",
"-	c #777777",
";	c #CCCCCC",
">	c #CFCFCF",
",	c #323232",
"'	c #F2F2F2",
")	c #666666",
"!	c #939393",
"~	c #EDEDED",
"{	c #6C6C6C",
"]	c #E5E5E5",
"^	c #262626",
"/	c #202020",
"(	c #9F9F9F",
"_	c #0B0B0B",
":	c #292929",
"<	c #454545",
"[	c #4C4C4C",
"}	c #8A8A8A",
"|	c #515151",
"1	c #717171",
"2	c #595959",
"3	c #404040",
"....................",
"]******************]",
"[                  [",
"                    ",
"   |*               ",
"  /~.$              ",
"   (..$             ",
"    (..$            ",
"     $..!           ",
"    }+.>_           ",
"   }+.>_            ",
"  /~.>_ }====={     ",
"   {=_  (~~~~~#     ",
"                    ",
"                    ",
"                    ",
"                    ",
"[                  [",
"]******************]",
"...................."};
