/* XPM */
static char * terminal_alt_xpm[] = {
"23 20 75 1",
" 	c #E2E6E8",
".	c #98A1A3",
"+	c #97A1A3",
"@	c #97A0A3",
"#	c #98A0A3",
"$	c #E2E7E8",
"%	c #B2B9BB",
"&	c #171717",
"*	c #1B1B1B",
"=	c #1A1A1A",
"-	c #AFB6B8",
";	c #161616",
">	c #262626",
",	c #161716",
"'	c #B0B6B8",
")	c #AEB4B6",
"!	c #C4C4C4",
"~	c #9E9E9E",
"{	c #383838",
"]	c #ACB2B4",
"^	c #141414",
"/	c #515151",
"(	c #AAAAAA",
"_	c #E8E8E8",
":	c #9A9A9A",
"<	c #ADB2B4",
"[	c #ABB0B1",
"}	c #131313",
"|	c #AFAFAF",
"1	c #DFDFDF",
"2	c #BCBCBC",
"3	c #5E5E5E",
"4	c #ABAFB1",
"5	c #A9ADAF",
"6	c #121212",
"7	c #7A7A7A",
"8	c #707070",
"9	c #A4A4A4",
"0	c #949494",
"a	c #A6ABAC",
"b	c #101010",
"c	c #747474",
"d	c #ACACAC",
"e	c #9B9B9B",
"f	c #A7ABAC",
"g	c #A5A8A9",
"h	c #0F0F0F",
"i	c #A3A6A7",
"j	c #0D0D0D",
"k	c #0D0E0D",
"l	c #A1A4A4",
"m	c #0C0C0C",
"n	c #A2A3A5",
"o	c #9FA1A2",
"p	c #0B0B0B",
"q	c #A0A1A2",
"r	c #9E9FA0",
"s	c #090909",
"t	c #9D9D9E",
"u	c #080808",
"v	c #9C9E9E",
"w	c #9B9C9D",
"x	c #070707",
"y	c #9B9C9C",
"z	c #9A9A9B",
"A	c #060606",
"B	c #999999",
"C	c #050505",
"D	c #989898",
"E	c #030303",
"F	c #D6D6D6",
"G	c #949393",
"H	c #929192",
"I	c #939393",
"J	c #D7D6D6",
" .+++++++++@@+++++@@+#$",
"%&*=**====*=**===*===&%",
"-;>>>>>>>>>>>>>>>>>>>,'",
");>!~{>>>>>>>>>>>>>>>;)",
"]^>/(_:>>>>>>>>>>>>>>^<",
"[}>|123>>>>>>>>>>>>>>}4",
"56>7>>8990>>>>>>>>>>>65",
"ab>>>>cdde>>>>>>>>>>>bf",
"gh>>>>>>>>>>>>>>>>>>>hg",
"ij>>>>>>>>>>>>>>>>>>>ki",
"lm>>>>>>>>>>>>>>>>>>>mn",
"op>>>>>>>>>>>>>>>>>>>pq",
"rs>>>>>>>>>>>>>>>>>>>sr",
"tu>>>>>>>>>>>>>>>>>>>uv",
"wx>>>>>>>>>>>>>>>>>>>xy",
"zA>>>>>>>>>>>>>>>>>>>Az",
"BC>>>>>>>>>>>>>>>>>>>CB",
"DC>>>>>>>>>>>>>>>>>>>CD",
":EEEEEEEEEEEEEEEEEEEEE:",
"FGHHHHHHHHHHHHHHHHHHHIJ"};
