/* XPM */
static char * tools_xpm[] = {
"20 20 84 1",
" 	g #000000",
".	g #414141",
"+	g #C5C5C5",
"@	g #C1C1C1",
"#	g #717171",
"$	g #B5B5B5",
"%	g #FFFFFF",
"&	g #FEFEFE",
"*	g #A1A1A1",
"=	g #404040",
"-	g #F5F5F5",
";	g #F8F8F8",
">	g #D0D0D0",
",	g #444444",
"'	g #505050",
")	g #5B5B5B",
"!	g #BABABA",
"~	g #2E2E2E",
"{	g #383838",
"]	g #F1F1F1",
"^	g #EFEFEF",
"/	g #5E5E5E",
"(	g #A7A7A7",
"_	g #EEEEEE",
":	g #CBCBCB",
"<	g #7B7B7B",
"[	g #010101",
"}	g #6F6F6F",
"|	g #515151",
"1	g #B8B8B8",
"2	g #F0F0F0",
"3	g #8E8E8E",
"4	g #5D5D5D",
"5	g #606060",
"6	g #B0B0B0",
"7	g #E7E7E7",
"8	g #484848",
"9	g #E9E9E9",
"0	g #030303",
"a	g #B3B3B3",
"b	g #D1D1D1",
"c	g #FCFCFC",
"d	g #FAFAFA",
"e	g #DADADA",
"f	g #373737",
"g	g #CACACA",
"h	g #9B9B9B",
"i	g #616161",
"j	g #858585",
"k	g #FBFBFB",
"l	g #CDCDCD",
"m	g #070707",
"n	g #060606",
"o	g #050505",
"p	g #A2A2A2",
"q	g #CCCCCC",
"r	g #636363",
"s	g #090909",
"t	g #080808",
"u	g #0B0B0B",
"v	g #FDFDFD",
"w	g #626262",
"x	g #0A0A0A",
"y	g #838383",
"z	g #E1E1E1",
"A	g #797979",
"B	g #4F4F4F",
"C	g #919191",
"D	g #E2E2E2",
"E	g #242424",
"F	g #E0E0E0",
"G	g #A9A9A9",
"H	g #848484",
"I	g #C4C4C4",
"J	g #D9D9D9",
"K	g #DEDEDE",
"L	g #2C2C2C",
"M	g #A8A8A8",
"N	g #E8E8E8",
"O	g #909090",
"P	g #B1B1B1",
"Q	g #8F8F8F",
"R	g #C3C3C3",
"S	g #333333",
"                    ",
"  .+@#              ",
"   $%&*   =+-;>,    ",
"')  !%;~ {]%%%%^/   ",
"(_) :%%< [} |1%%2#. ",
"3%_>%%%4    5>6%%%78",
" 9%%%%%:0  52%6a%%]5",
" )bc;d%%ef52%g h%]i ",
"     jk%li2%:   *i  ",
"  m0nopqr^%:snntn[  ",
"  nmstui2v:5wssxs[  ",
"     yz2%g5]]A      ",
"    yd%%>B]%%dj     ",
"   yd%%%+ q%%%dC    ",
"  yd%%%Df EF%%%%G   ",
" Hd%%%Df   fz%%IJ*  ",
" *%%%Df     {9K L7  ",
"  M%Df       5NOP+  ",
"   Q{         5RPS  ",
"                    "};
