/* XPM */
static char * volume_xpm[] = {
"20 20 44 1",
" 	c #000000",
".	c #FCFEFC",
"+	c #FFFFFF",
"@	c #C6C8C6",
"#	c #333333",
"$	c #E3E5E3",
"%	c #B9BBB9",
"&	c #0A0A0A",
"*	c #C1C2C1",
"=	c #919391",
"-	c #3E3F3E",
";	c #F8FAF8",
">	c #EFF1EF",
",	c #A9AAA9",
"'	c #5D5E5D",
")	c #F7F9F7",
"!	c #D1D3D1",
"~	c #B4B5B4",
"{	c #282828",
"]	c #CCCDCC",
"^	c #9D9E9D",
"/	c #DADCDA",
"(	c #E1E3E1",
"_	c #D2D4D2",
":	c #6F706F",
"<	c #8B8C8B",
"[	c #515251",
"}	c #666766",
"|	c #2B2B2B",
"1	c #575857",
"2	c #434343",
"3	c #212121",
"4	c #4A4B4A",
"5	c #393A39",
"6	c #7E7F7E",
"7	c #AEAFAE",
"8	c #999A99",
"9	c #1A1B1A",
"0	c #757675",
"a	c #141414",
"b	c #868786",
"c	c #737473",
"d	c #7C7D7C",
"e	c #5B5B5B",
"          =$]       ",
"         8(-/e      ",
"        ^(2 ]}      ",
"       ^(-  ]}      ",
"      8(-   ]} [b   ",
"5,,,,%(2    <2 '/_# ",
"!%,,,,5       |%2*! ",
"${            &~>4(<",
"$9            @d~*=_",
"$9            6$4$[$",
"$9            c$4$[$",
"$9            ]b7*=_",
"${             7>1/=",
"_~^^^^#       |*1%_ ",
"2,777*/5    ,[ 1//5 ",
"      ^(#   ]} e=   ",
"       ,/#  ]}      ",
"        ,(5 ]}      ",
"         ^/#/'      ",
"          ^$_       "};
