/* XPM */
static char * volume_xpm[] = {
"20 20 42 1",
" 	c #000000",
".	c #FFFFFF",
"+	c #909090",
"@	c #ABABAB",
"#	c #7B7B7B",
"$	c #666666",
"%	c #F6F6F6",
"&	c #F9F9F9",
"*	c #CFCFCF",
"=	c #1F1F1F",
"-	c #C5C5C5",
";	c #F3F3F3",
">	c #DBDBDB",
",	c #E3E3E3",
"'	c #FCFCFC",
")	c #DFDFDF",
"!	c #EAEAEA",
"~	c #898989",
"{	c #989898",
"]	c #121212",
"^	c #292929",
"/	c #333333",
"(	c #616161",
"_	c #BCBCBC",
":	c #3D3D3D",
"<	c #757575",
"[	c #6D6D6D",
"}	c #CBCBCB",
"|	c #B0B0B0",
"1	c #A4A4A4",
"2	c #242424",
"3	c #424242",
"4	c #535353",
"5	c #818181",
"6	c #5B5B5B",
"7	c #4A4A4A",
"8	c #2F2F2F",
"9	c #171717",
"0	c #505050",
"a	c #9F9F9F",
"b	c #0C0C0C",
"c	c #202020",
"                    ",
"        0~          ",
"       (;'    {@]   ",
"      $;..    }.,7  ",
"     $;...  01^1'!3 ",
"    [;....  {.,7+'* ",
"]2^<;.....   {')b_.<",
"!.........+;| @.{7'-",
"&.........6>.1b;> )!",
"&.........  !, *! }%",
"&.........  !, *! }&",
"&.........4>.@b;> )!",
"!.........+%_ 1.a7'-",
"=//#%.....   {',]_.<",
"    [;....  {.,0~'* ",
"     [;...  01^a'!3 ",
"      $;..    -.,0  ",
"       $;'    {@9   ",
"        4~          ",
"                    "};
