/* XPM */
static char * uyuy_xpm[] = {
"20 20 40 1",
" 	c #000000",
".	c #FFFFFF",
"+	c #8E8E8E",
"@	c #E9E9E9",
"#	c #070707",
"$	c #6C6C6C",
"%	c #E4E4E4",
"&	c #F0F0F0",
"*	c #A0A0A0",
"=	c #494949",
"-	c #0D0D0D",
";	c #3D3D3D",
">	c #9A9A9A",
",	c #D8D8D8",
"'	c #272727",
")	c #E1E1E1",
"!	c #CFCFCF",
"~	c #D9D9D9",
"{	c #F9F9F9",
"]	c #C6C6C6",
"^	c #565656",
"/	c #626262",
"(	c #1A1A1A",
"_	c #868686",
":	c #2A2A2A",
"<	c #181818",
"[	c #B4B4B4",
"}	c #BBBBBB",
"|	c #1F1F1F",
"1	c #949494",
"2	c #424242",
"3	c #808080",
"4	c #ACACAC",
"5	c #515151",
"6	c #777777",
"7	c #303030",
"8	c #666666",
"9	c #363636",
"0	c #3F3F3F",
"a	c #B8B8B8",
"        $;          ",
"      '*][>         ",
"       +..$         ",
" ;<   '}%)[         ",
"64*$    +/          ",
"5{{;    '     ^9    ",
"3}[$          #4[<  ",
" 2'             }~: ",
"                (@! ",
"},,,,,,,,,,1     [.3",
"!@@@@@@@@@@*     3.!",
"                 6.@",
"  +!!!!!!!!!!4   _.{",
"  4@&&&&&&&&&!   }.&",
"                ;&.~",
"*}]]]]]]]]}6   #!..*",
"%{........{[  ;!..@'",
"  #####23666+}{..{6 ",
"       <}.......@$  ",
"         $]@{&~*|   "};
