<?xml version="1.0" encoding="UTF-8" standalone="no"?>
<svg
   width="64"
   height="64"
   version="1.1"
   id="svg73"
   sodipodi:docname="gnome-settings.svg"
   inkscape:version="1.1 (1:1.1+rc+202105240936+c4e8f9ed74)"
   xmlns:inkscape="http://www.inkscape.org/namespaces/inkscape"
   xmlns:sodipodi="http://sodipodi.sourceforge.net/DTD/sodipodi-0.dtd"
   xmlns:xlink="http://www.w3.org/1999/xlink"
   xmlns="http://www.w3.org/2000/svg"
   xmlns:svg="http://www.w3.org/2000/svg"
   xmlns:rdf="http://www.w3.org/1999/02/22-rdf-syntax-ns#"
   xmlns:cc="http://creativecommons.org/ns#"
   xmlns:dc="http://purl.org/dc/elements/1.1/">
  <metadata
     id="metadata77">
    <rdf:RDF>
      <cc:Work
         rdf:about="">
        <dc:format>image/svg+xml</dc:format>
        <dc:type
           rdf:resource="http://purl.org/dc/dcmitype/StillImage" />
        <dc:title />
      </cc:Work>
    </rdf:RDF>
  </metadata>
  <sodipodi:namedview
     pagecolor="#ffffff"
     bordercolor="#666666"
     borderopacity="1"
     objecttolerance="10"
     gridtolerance="10"
     guidetolerance="10"
     inkscape:pageopacity="0"
     inkscape:pageshadow="2"
     inkscape:window-width="1717"
     inkscape:window-height="798"
     id="namedview75"
     showgrid="false"
     inkscape:zoom="12.578125"
     inkscape:cx="32.039752"
     inkscape:cy="32.159006"
     inkscape:window-x="187"
     inkscape:window-y="198"
     inkscape:window-maximized="0"
     inkscape:current-layer="svg73"
     inkscape:document-rotation="0"
     inkscape:pagecheckerboard="0" />
  <defs
     id="defs29">
    <inkscape:path-effect
       effect="powerclip"
       id="path-effect48"
       is_visible="true"
       lpeversion="1"
       inverse="true"
       flatten="false"
       hide_clip="false"
       message="Use fill-rule evenodd on &lt;b&gt;fill and stroke&lt;/b&gt; dialog if no flatten result after convert clip to paths." />
    <linearGradient
       id="b"
       x1="399.57"
       x2="399.57"
       y1="545.8"
       y2="517.8"
       gradientTransform="matrix(2.1429,0,0,2.1429,-826.36,-1107.5)"
       gradientUnits="userSpaceOnUse">
      <stop
         stop-color="#3889e9"
         offset="0"
         id="stop2" />
      <stop
         stop-color="#5ea5fb"
         offset="1"
         id="stop4" />
    </linearGradient>
    <linearGradient
       id="linearGradient862"
       x1="7.9373"
       x2="7.9373"
       y1="15.081"
       y2="1.852"
       gradientTransform="matrix(3.3743 0 0 3.3743 3.4312 3.4278)"
       gradientUnits="userSpaceOnUse">
      <stop
         stop-color="#f1efeb"
         offset="0"
         id="stop7" />
      <stop
         stop-color="#fff"
         offset="1"
         id="stop9" />
    </linearGradient>
    <linearGradient
       id="linearGradient910"
       x1="7.9373"
       x2="7.9373"
       y1="15.081"
       y2="1.852"
       gradientTransform="scale(3.7796)"
       gradientUnits="userSpaceOnUse">
      <stop
         stop-color="#613583"
         offset="0"
         id="stop12" />
      <stop
         stop-color="#a663c0"
         offset="1"
         id="stop14" />
    </linearGradient>
    <linearGradient
       id="linearGradient932"
       x1="379.24"
       x2="374.24"
       y1="546.85"
       y2="546.85"
       gradientTransform="matrix(2.1429 0 0 2.1429 -769.68 -1134.5)"
       gradientUnits="userSpaceOnUse">
      <stop
         stop-color="#f6f5f4"
         offset="0"
         id="stop17" />
      <stop
         stop-color="#fff"
         offset=".6"
         id="stop19" />
      <stop
         stop-color="#dddbd8"
         offset="1"
         id="stop21" />
    </linearGradient>
    <linearGradient
       id="linearGradient1146"
       x1="18"
       x2="18"
       y1="52"
       y2="12"
       gradientUnits="userSpaceOnUse">
      <stop
         stop-color="#5e337f"
         offset="0"
         id="stop24" />
      <stop
         stop-color="#ab60bf"
         offset="1"
         id="stop26" />
    </linearGradient>
    <linearGradient
       id="linearGradient872"
       x1="8.4665003"
       x2="8.4665003"
       y1="7.9373002"
       y2="3.1749001"
       gradientUnits="userSpaceOnUse"
       gradientTransform="matrix(3.779602,0,0,3.779602,-0.36005671,-63.393019)">
      <stop
         stop-color="#0851d4"
         offset="0"
         id="stop17-3" />
      <stop
         stop-color="#588df8"
         offset="1"
         id="stop19-6" />
    </linearGradient>
    <linearGradient
       id="linearGradient998"
       x1="8.7311001"
       x2="8.7311001"
       y1="13.758"
       y2="8.9956999"
       gradientUnits="userSpaceOnUse"
       xlink:href="#linearGradient996"
       gradientTransform="matrix(3.779602,0,0,3.779602,-0.36005671,-63.393019)" />
    <linearGradient
       id="linearGradient996">
      <stop
         offset="0"
         id="stop2-7" />
      <stop
         stop-opacity=".5"
         offset="1"
         id="stop4-5" />
    </linearGradient>
    <linearGradient
       id="linearGradient982"
       x1="11.377"
       x2="11.377"
       y1="6.8790002"
       y2="4.2333002"
       gradientUnits="userSpaceOnUse"
       xlink:href="#linearGradient980"
       gradientTransform="matrix(3.779602,0,0,3.779602,-0.36005671,-63.393019)" />
    <linearGradient
       id="linearGradient980">
      <stop
         stop-color="#e4e4e4"
         offset="0"
         id="stop7-3" />
      <stop
         stop-color="#fafafa"
         offset="1"
         id="stop9-5" />
    </linearGradient>
    <linearGradient
       id="linearGradient1017"
       x1="8.7311001"
       x2="8.7311001"
       y1="13.758"
       y2="8.9956999"
       gradientTransform="matrix(0.00502936,3.7796235,-3.7796235,0.00502936,61.680449,1.3054052)"
       gradientUnits="userSpaceOnUse"
       xlink:href="#linearGradient996" />
    <linearGradient
       id="linearGradient869"
       x1="11.377"
       x2="11.377"
       y1="6.8790002"
       y2="4.2333002"
       gradientTransform="matrix(3.779602,0,0,3.779602,-22.360743,-41.392712)"
       gradientUnits="userSpaceOnUse"
       xlink:href="#linearGradient980" />
    <clipPath
       clipPathUnits="userSpaceOnUse"
       id="clipPath44">
      <path
         id="path46"
         style="display:none;opacity:0.85;fill:#f2f2f2;stroke-width:4.39162"
         d="m 17.570312,8.4453125 a 6.5431988,7.4283052 9.9958727e-8 0 0 -6.535156,7.4394535 6.5431988,7.4283052 9.9958727e-8 0 0 6.552735,7.417968 6.5431988,7.4283052 9.9958727e-8 0 0 6.535156,-7.4375 6.5431988,7.4283052 9.9958727e-8 0 0 -6.552735,-7.4199215 z M 45.646484,41.177734 a 6.5431986,7.0703472 2.4665357e-6 0 0 -6.533203,7.080078 6.5431986,7.0703472 2.4665357e-6 0 0 6.550781,7.060547 6.5431986,7.0703472 2.4665357e-6 0 0 6.535157,-7.080078 6.5431986,7.0703472 2.4665357e-6 0 0 -6.552735,-7.060547 z" />
      <path
         id="lpe_path-effect48"
         style="opacity:0.85;fill:#f2f2f2;stroke-width:4.39162"
         class="powerclip"
         d="M 2.7617133,-0.77345183 H 60.691412 V 64.992203 H 2.7617133 Z M 17.570312,8.4453125 a 6.5431988,7.4283052 9.9958727e-8 0 0 -6.535156,7.4394535 6.5431988,7.4283052 9.9958727e-8 0 0 6.552735,7.417968 6.5431988,7.4283052 9.9958727e-8 0 0 6.535156,-7.4375 6.5431988,7.4283052 9.9958727e-8 0 0 -6.552735,-7.4199215 z M 45.646484,41.177734 a 6.5431986,7.0703472 2.4665357e-6 0 0 -6.533203,7.080078 6.5431986,7.0703472 2.4665357e-6 0 0 6.550781,7.060547 6.5431986,7.0703472 2.4665357e-6 0 0 6.535157,-7.080078 6.5431986,7.0703472 2.4665357e-6 0 0 -6.552735,-7.060547 z" />
    </clipPath>
  </defs>
  <circle
     cx="32.02"
     cy="32.044"
     r="30.001"
     fill-opacity="0"
     stroke-width="1.5715"
     id="circle39" />
  <circle
     cx="32.02"
     cy="32.044"
     r="0"
     fill="url(#b)"
     stroke-width="1.5715"
     id="circle41" />
  <path
     id="rect33"
     style="fill:#29292a;stroke-width:4.70822"
     d="M 45.619141,4.2265625 C 40.065502,4.2358055 35.59956,8.7139344 35.605469,14.267578 l 0.03711,35.675781 c 0.0059,5.553644 4.481518,10.017056 10.035156,10.007813 5.553639,-0.0092 10.019581,-4.487372 10.013672,-10.041016 L 55.654297,14.234375 C 55.648388,8.6807313 51.172779,4.2173195 45.619141,4.2265625 Z m -28.052735,0.041016 c -5.437279,0.00924 -9.8103507,4.3927937 -9.8046872,9.8300779 l 0.037109,36.095703 c 0.00566,5.437285 4.3888919,9.808071 9.8261719,9.798829 5.43728,-0.0092 9.810351,-4.394747 9.804688,-9.832032 L 27.390625,14.064453 C 27.384962,8.6271687 23.003686,4.2583352 17.566406,4.2675781 Z"
     clip-path="url(#clipPath44)"
     inkscape:path-effect="#path-effect48"
     inkscape:original-d="M 45.619141 4.2265625 C 40.065502 4.2358055 35.59956 8.7139344 35.605469 14.267578 L 35.642578 49.943359 C 35.648487 55.497003 40.124096 59.960415 45.677734 59.951172 C 51.231373 59.941929 55.697315 55.4638 55.691406 49.910156 L 55.654297 14.234375 C 55.648388 8.6807313 51.172779 4.2173195 45.619141 4.2265625 z M 17.566406 4.2675781 C 12.129127 4.2768211 7.7560553 8.6603718 7.7617188 14.097656 L 7.7988281 50.193359 C 7.8044916 55.630644 12.18772 60.00143 17.625 59.992188 C 23.06228 59.982945 27.435351 55.597441 27.429688 50.160156 L 27.390625 14.064453 C 27.384962 8.6271687 23.003686 4.2583352 17.566406 4.2675781 z " />
  <circle
     cx="42.650215"
     cy="-42.284786"
     fill="url(#linearGradient982)"
     id="circle41-2"
     style="fill:#333333;stroke-width:3.48559"
     transform="matrix(0.00113168,0.99999936,-0.99999878,0.00156461,0,0)"
     rx="6.0001168"
     ry="5.1029348" />
</svg>
