<?xml version="1.0" encoding="UTF-8" standalone="no"?>
<svg
   width="64"
   height="64"
   version="1.1"
   viewBox="0 0 16.933 16.933"
   id="svg56"
   sodipodi:docname="folder-github.svg"
   inkscape:version="1.1 (1:1.1+202105261517+ce6663b3b7)"
   xmlns:inkscape="http://www.inkscape.org/namespaces/inkscape"
   xmlns:sodipodi="http://sodipodi.sourceforge.net/DTD/sodipodi-0.dtd"
   xmlns:xlink="http://www.w3.org/1999/xlink"
   xmlns="http://www.w3.org/2000/svg"
   xmlns:svg="http://www.w3.org/2000/svg"
   xmlns:rdf="http://www.w3.org/1999/02/22-rdf-syntax-ns#"
   xmlns:cc="http://creativecommons.org/ns#"
   xmlns:dc="http://purl.org/dc/elements/1.1/">
  <sodipodi:namedview
     pagecolor="#ffffff"
     bordercolor="#666666"
     borderopacity="1"
     objecttolerance="10"
     gridtolerance="10"
     guidetolerance="10"
     inkscape:pageopacity="0"
     inkscape:pageshadow="2"
     inkscape:window-width="1502"
     inkscape:window-height="856"
     id="namedview58"
     showgrid="false"
     inkscape:zoom="12.890625"
     inkscape:cx="32"
     inkscape:cy="35.10303"
     inkscape:window-x="339"
     inkscape:window-y="130"
     inkscape:window-maximized="0"
     inkscape:current-layer="svg56"
     inkscape:document-rotation="0"
     inkscape:pagecheckerboard="0" />
  <defs
     id="defs18">
    <inkscape:path-effect
       effect="powerclip"
       id="path-effect51"
       is_visible="true"
       lpeversion="1"
       inverse="true"
       flatten="false"
       hide_clip="false"
       message="Use fill-rule evenodd on &lt;b&gt;fill and stroke&lt;/b&gt; dialog if no flatten result after convert clip to paths." />
    <inkscape:path-effect
       effect="powerclip"
       id="path-effect43"
       is_visible="true"
       lpeversion="1"
       inverse="true"
       flatten="false"
       hide_clip="false"
       message="Use fill-rule evenodd on &lt;b&gt;fill and stroke&lt;/b&gt; dialog if no flatten result after convert clip to paths." />
    <linearGradient
       id="linearGradient1064"
       x1="-15.961"
       x2="-.30109"
       y1="-43.254"
       y2="-54.196"
       gradientTransform="matrix(1 0 0 1.1 16.669 62.435)"
       gradientUnits="userSpaceOnUse">
      <stop
         stop-color="#3c3c3c"
         offset="0"
         id="stop2" />
      <stop
         stop-color="#646464"
         offset="1"
         id="stop4" />
    </linearGradient>
    <linearGradient
       id="linearGradient992"
       x1="-16.14"
       x2="-1.0699"
       y1="-55.616"
       y2="-44.835"
       gradientTransform="matrix(1 0 0 1.1 16.669 62.435)"
       gradientUnits="userSpaceOnUse">
      <stop
         stop-color="#3c3c3c"
         offset="0"
         id="stop7" />
      <stop
         stop-color="#646464"
         offset="1"
         id="stop9" />
    </linearGradient>
    <linearGradient
       id="linearGradient1006"
       x1=".52939"
       x2="16.217"
       y1="2.7784"
       y2="14.872"
       gradientTransform="matrix(1,0,0,1.1,16.669,62.435)"
       gradientUnits="userSpaceOnUse">
      <stop
         stop-color="#3c3c3c"
         offset="0"
         id="stop12" />
      <stop
         stop-color="#646464"
         offset="1"
         id="stop14" />
    </linearGradient>
    <linearGradient
       id="linearGradient939"
       x1="-16.14"
       x2="-1.0699"
       y1="-55.616"
       y2="-44.835"
       gradientTransform="matrix(1,0,0,1.1,16.669,62.435)"
       gradientUnits="userSpaceOnUse"
       xlink:href="#linearGradient992" />
    <clipPath
       clipPathUnits="userSpaceOnUse"
       id="clipPath39">
      <rect
         x="0.97311002"
         y="4.6963"
         width="14.987"
         height="9.9216995"
         ry="0.29919001"
         fill="#fffffc"
         id="rect41"
         style="display:none;opacity:0.85;fill:#f2f2f2;stroke-width:0.999999" />
      <path
         id="lpe_path-effect43"
         style="opacity:0.85;fill:#f2f2f2;stroke-width:0.999999"
         class="powerclip"
         d="M -4.4709,-2.221974 H 21.40339 V 20.0813 H -4.4709 Z M 1.2723,4.6963 c -0.1657512,0 -0.29918998,0.1334388 -0.29918998,0.29919 v 9.32332 c 0,0.165751 0.13343878,0.29919 0.29918998,0.29919 h 14.38862 c 0.165752,0 0.29919,-0.133439 0.29919,-0.29919 V 4.99549 c 0,-0.1657512 -0.133438,-0.29919 -0.29919,-0.29919 z" />
    </clipPath>
    <clipPath
       clipPathUnits="userSpaceOnUse"
       id="clipPath47">
      <path
         style="display:none;fill:#ffffff;stroke-width:0.311506"
         d="m 12.608499,7.9908118 c -1.750075,0 -3.1589804,1.3700006 -3.1589804,3.0717512 0,1.371909 0.9347484,2.526565 2.2066574,2.923263 v -0.515261 c -0.799636,0.171588 -0.986563,-0.341972 -0.986563,-0.341972 -0.130777,-0.328147 -0.319292,-0.354009 -0.319292,-0.354009 -0.261022,-0.176076 0.01928,-0.173235 0.01928,-0.173235 0.288541,0.02004 0.440375,0.293226 0.440375,0.293226 0.256431,0.434008 0.69168,0.30894 0.855453,0.236231 0.02612,-0.183434 0.08206,-0.493646 0.164121,-0.564615 -0.638313,-0.07169 -1.116442,-0.468602 -1.116442,-1.556999 0,-0.310017 0.188235,-0.717153 0.372128,-0.915551 -0.02966,-0.07184 -0.128764,-0.4874234 0.02776,-0.8783423 0,0 0.01508,-0.00462 0.04628,-0.006 0.09355,-0.00426 0.303972,0.1414789 0.715706,0.4171304 0.24859,-0.069451 0.534909,-0.1019123 0.733517,-0.1034913 0.223944,-0.00185 0.451669,0.035666 0.685345,0.1034913 0.411851,-0.2756515 0.67496,-0.422104 0.76815,-0.4178808 h 7.94e-4 c 0.03115,0.00143 0.04628,0.006 0.04628,0.006 0.15689,0.3909029 0.058,0.8072527 0.02854,0.8790927 0.184213,0.198435 0.366288,0.605532 0.366288,0.915551 0,1.09117 -0.719019,1.484478 -1.359265,1.554749 0.103063,0.0877 0.128797,0.261592 0.128797,0.526457 0,0.319893 -8.21e-4,0.527819 -0.0016,0.659947 v 0.284227 c 1.364903,-0.33969 2.495601,-1.535998 2.495601,-2.972009 0,-1.7017506 -1.408904,-3.0717512 -3.158979,-3.0717512 z"
         id="path49" />
      <path
         id="lpe_path-effect51"
         style="fill:#ffffff;stroke-width:0.311506"
         class="powerclip"
         d="M -4.47124,-0.7672 H 21.40365 V 20.08058 H -4.47124 Z m 17.079739,8.7580118 c -1.750075,0 -3.1589804,1.3700006 -3.1589804,3.0717512 0,1.371909 0.9347484,2.526565 2.2066574,2.923263 v -0.515261 c -0.799636,0.171588 -0.986563,-0.341972 -0.986563,-0.341972 -0.130777,-0.328147 -0.319292,-0.354009 -0.319292,-0.354009 -0.261022,-0.176076 0.01928,-0.173235 0.01928,-0.173235 0.288541,0.02004 0.440375,0.293226 0.440375,0.293226 0.256431,0.434008 0.69168,0.30894 0.855453,0.236231 0.02612,-0.183434 0.08206,-0.493646 0.164121,-0.564615 -0.638313,-0.07169 -1.116442,-0.468602 -1.116442,-1.556999 0,-0.310017 0.188235,-0.717153 0.372128,-0.915551 -0.02966,-0.07184 -0.128764,-0.4874234 0.02776,-0.8783423 0,0 0.01508,-0.00462 0.04628,-0.006 0.09355,-0.00426 0.303972,0.1414789 0.715706,0.4171304 0.24859,-0.069451 0.534909,-0.1019123 0.733517,-0.1034913 0.223944,-0.00185 0.451669,0.035666 0.685345,0.1034913 0.411851,-0.2756515 0.67496,-0.422104 0.76815,-0.4178808 h 7.94e-4 c 0.03115,0.00143 0.04628,0.006 0.04628,0.006 0.15689,0.3909029 0.058,0.8072527 0.02854,0.8790927 0.184213,0.198435 0.366288,0.605532 0.366288,0.915551 0,1.09117 -0.719019,1.484478 -1.359265,1.554749 0.103063,0.0877 0.128797,0.261592 0.128797,0.526457 0,0.319893 -8.21e-4,0.527819 -0.0016,0.659947 v 0.284227 c 1.364903,-0.33969 2.495601,-1.535998 2.495601,-2.972009 0,-1.7017506 -1.408904,-3.0717512 -3.158979,-3.0717512 z" />
    </clipPath>
  </defs>
  <metadata
     id="metadata20">
    <rdf:RDF>
      <cc:Work
         rdf:about="">
        <dc:format>image/svg+xml</dc:format>
        <dc:type
           rdf:resource="http://purl.org/dc/dcmitype/StillImage" />
        <dc:title />
      </cc:Work>
    </rdf:RDF>
  </metadata>
  <g
     fill="#5e4aa6"
     stroke-width=".26458"
     id="g30">
    <circle
       cx="-330.35"
       cy="-328.38"
       r="0"
       id="circle22" />
    <circle
       cx="-312.11"
       cy="-326.25"
       r="0"
       id="circle24" />
    <circle
       cx="-306.02"
       cy="-333.07"
       r="0"
       id="circle26" />
    <circle
       cx="-308.84"
       cy="-326.01"
       r="0"
       id="circle28" />
  </g>
  <g
     transform="translate(.000295 -.00032978)"
     fill="#5e4aa6"
     stroke-width=".26458"
     id="g42">
    <circle
       cx="-330.35"
       cy="-328.38"
       r="0"
       id="circle32" />
    <circle
       cx="-312.11"
       cy="-326.25"
       r="0"
       id="circle34" />
    <circle
       cx="-306.02"
       cy="-333.07"
       r="0"
       id="circle36" />
    <circle
       cx="-308.84"
       cy="-326.01"
       r="0"
       id="circle38" />
    <circle
       cx="-328.8"
       cy="-330.45"
       r="0"
       id="circle40" />
  </g>
  <g
     transform="translate(.000295 -.00032978)"
     id="g52"
     style="fill:#4d4d4d">
    <g
       id="g37"
       clip-path="url(#clipPath39)"
       inkscape:path-effect="#path-effect43"
       style="fill:#4d4d4d">
      <g
         transform="matrix(1,0,0,1.1,16.669,63.956)"
         fill="url(#linearGradient939)"
         stroke-width=".66145"
         id="g46"
         style="fill:#4d4d4d">
        <path
           d="m -8.2026,-51.317 h -7.9373 v -3.6379 c 0,-0.36531 0.29614,-0.66144 0.66144,-0.66144 h 5.6223 l 1.6536,1.3229 z"
           fill="url(#linearGradient939)"
           id="path44"
           style="fill:#4d4d4d"
           inkscape:original-d="m-8.2026-51.317h-7.9373v-3.6379c0-0.36531 0.29614-0.66144 0.66144-0.66144h5.6223l1.6536 1.3229z" />
      </g>
      <path
         x="0.52938998"
         y="4.2333002"
         width="15.874"
         height="10.848"
         ry="0.79373002"
         fill="url(#linearGradient1006)"
         id="rect48"
         style="fill:#4d4d4d"
         d="m 1.32312,4.2333002 h 14.28654 c 0.439726,0 0.79373,0.3540036 0.79373,0.79373 V 14.28757 c 0,0.439726 -0.354004,0.79373 -0.79373,0.79373 H 1.32312 c -0.43972643,0 -0.79373002,-0.354004 -0.79373002,-0.79373 V 5.0270302 c 0,-0.4397264 0.35400359,-0.79373 0.79373002,-0.79373 z"
         sodipodi:type="rect" />
    </g>
  </g>
  <path
     d="M 15.742,4.2329 H 8.4661 L 6.8125,5.6881 H 1.1902 c -0.36531,0 -0.66144,0.32575 -0.66144,0.72759 v 7.9373 c 0,0.40184 0.29614,0.72759 0.66144,0.72759 h 14.552 c 0.36531,0 0.66145,-0.32575 0.66145,-0.72759 v -9.3926 c 0,-0.40184 -0.29614,-0.72759 -0.66145,-0.72759 z"
     fill="url(#linearGradient1064)"
     stroke-width=".69373"
     id="path54"
     style="fill:#2c2c2c"
     clip-path="url(#clipPath47)"
     inkscape:path-effect="#path-effect51"
     inkscape:original-d="m15.742 4.2329h-7.2759l-1.6536 1.4552h-5.6223c-0.36531 0-0.66144 0.32575-0.66144 0.72759v7.9373c0 0.40184 0.29614 0.72759 0.66144 0.72759h14.552c0.36531 0 0.66145-0.32575 0.66145-0.72759v-9.3926c0-0.40184-0.29614-0.72759-0.66145-0.72759z" />
</svg>
