<?xml version="1.0" encoding="UTF-8" standalone="no"?>
<svg
   width="64"
   height="64"
   version="1.1"
   viewBox="0 0 16.933 16.933"
   id="svg56"
   sodipodi:docname="folder-publicshare.svg"
   inkscape:version="1.1 (1:1.1+202105261517+ce6663b3b7)"
   xmlns:inkscape="http://www.inkscape.org/namespaces/inkscape"
   xmlns:sodipodi="http://sodipodi.sourceforge.net/DTD/sodipodi-0.dtd"
   xmlns:xlink="http://www.w3.org/1999/xlink"
   xmlns="http://www.w3.org/2000/svg"
   xmlns:svg="http://www.w3.org/2000/svg"
   xmlns:rdf="http://www.w3.org/1999/02/22-rdf-syntax-ns#"
   xmlns:cc="http://creativecommons.org/ns#"
   xmlns:dc="http://purl.org/dc/elements/1.1/">
  <sodipodi:namedview
     pagecolor="#ffffff"
     bordercolor="#666666"
     borderopacity="1"
     objecttolerance="10"
     gridtolerance="10"
     guidetolerance="10"
     inkscape:pageopacity="0"
     inkscape:pageshadow="2"
     inkscape:window-width="1502"
     inkscape:window-height="851"
     id="namedview58"
     showgrid="false"
     inkscape:zoom="12.890625"
     inkscape:cx="32"
     inkscape:cy="32.038788"
     inkscape:window-x="237"
     inkscape:window-y="145"
     inkscape:window-maximized="0"
     inkscape:current-layer="svg56"
     inkscape:document-rotation="0"
     inkscape:pagecheckerboard="0" />
  <defs
     id="defs18">
    <inkscape:path-effect
       effect="powerclip"
       id="path-effect51"
       is_visible="true"
       lpeversion="1"
       inverse="true"
       flatten="false"
       hide_clip="false"
       message="Use fill-rule evenodd on &lt;b&gt;fill and stroke&lt;/b&gt; dialog if no flatten result after convert clip to paths." />
    <inkscape:path-effect
       effect="powerclip"
       id="path-effect43"
       is_visible="true"
       lpeversion="1"
       inverse="true"
       flatten="false"
       hide_clip="false"
       message="Use fill-rule evenodd on &lt;b&gt;fill and stroke&lt;/b&gt; dialog if no flatten result after convert clip to paths." />
    <linearGradient
       id="linearGradient1064"
       x1="-15.961"
       x2="-.30109"
       y1="-43.254"
       y2="-54.196"
       gradientTransform="matrix(1 0 0 1.1 16.669 62.435)"
       gradientUnits="userSpaceOnUse">
      <stop
         stop-color="#3c3c3c"
         offset="0"
         id="stop2" />
      <stop
         stop-color="#646464"
         offset="1"
         id="stop4" />
    </linearGradient>
    <linearGradient
       id="linearGradient992"
       x1="-16.14"
       x2="-1.0699"
       y1="-55.616"
       y2="-44.835"
       gradientTransform="matrix(1 0 0 1.1 16.669 62.435)"
       gradientUnits="userSpaceOnUse">
      <stop
         stop-color="#3c3c3c"
         offset="0"
         id="stop7" />
      <stop
         stop-color="#646464"
         offset="1"
         id="stop9" />
    </linearGradient>
    <linearGradient
       id="linearGradient1006"
       x1=".52939"
       x2="16.217"
       y1="2.7784"
       y2="14.872"
       gradientTransform="matrix(1,0,0,1.1,16.669,62.435)"
       gradientUnits="userSpaceOnUse">
      <stop
         stop-color="#3c3c3c"
         offset="0"
         id="stop12" />
      <stop
         stop-color="#646464"
         offset="1"
         id="stop14" />
    </linearGradient>
    <linearGradient
       id="linearGradient939"
       x1="-16.14"
       x2="-1.0699"
       y1="-55.616"
       y2="-44.835"
       gradientTransform="matrix(1,0,0,1.1,16.669,62.435)"
       gradientUnits="userSpaceOnUse"
       xlink:href="#linearGradient992" />
    <clipPath
       clipPathUnits="userSpaceOnUse"
       id="clipPath39">
      <rect
         x="0.97311002"
         y="4.6963"
         width="14.987"
         height="9.9216995"
         ry="0.29919001"
         fill="#fffffc"
         id="rect41"
         style="display:none;opacity:0.85;fill:#f2f2f2;stroke-width:0.999999" />
      <path
         id="lpe_path-effect43"
         style="opacity:0.85;fill:#f2f2f2;stroke-width:0.999999"
         class="powerclip"
         d="M -4.4709,-2.221974 H 21.40339 V 20.0813 H -4.4709 Z M 1.2723,4.6963 c -0.1657512,0 -0.29918998,0.1334388 -0.29918998,0.29919 v 9.32332 c 0,0.165751 0.13343878,0.29919 0.29918998,0.29919 h 14.38862 c 0.165752,0 0.29919,-0.133439 0.29919,-0.29919 V 4.99549 c 0,-0.1657512 -0.133438,-0.29919 -0.29919,-0.29919 z" />
    </clipPath>
    <clipPath
       clipPathUnits="userSpaceOnUse"
       id="clipPath47">
      <path
         style="display:none;fill:#ffffff;stroke-width:0.316401"
         d="m 10.795036,9.7427881 c -0.02132,0.0049 -0.04263,0.012959 -0.06271,0.022682 -0.199265,0.09819 -0.250856,0.4040869 -0.114617,0.6873039 0.109678,0.227806 0.304612,0.369089 0.481632,0.364553 0.132843,0.757297 0.663288,1.322758 1.29352,1.322758 h 0.0049 c 0.630232,0 1.160677,-0.565461 1.293519,-1.322758 0.176713,0.0042 0.37196,-0.136747 0.481634,-0.364553 0.13624,-0.283217 0.08464,-0.5891179 -0.114617,-0.6873039 -0.02009,-0.00968 -0.04139,-0.017822 -0.06271,-0.022682 -0.0256,-0.8282631 -0.731519,-1.4912629 -1.600251,-1.4912629 -0.868731,0 -1.574653,0.6629998 -1.600295,1.4912629 z m 2.569432,2.5376099 c -0.07662,0.111466 -0.177639,0.211927 -0.31388,0.287429 l -0.0013,0.0014 c -0.192468,0.139016 -0.415213,0.219055 -0.651549,0.219055 h -0.0049 c -0.36022,0 -0.685222,-0.188271 -0.92434,-0.487367 -1.008062,0.156191 -2.0850165,0.382377 -2.1529826,0.640318 -0.0013,0.0036 9.26e-4,0.0081 0,0.01139 -0.00303,0.01329 -0.00338,0.02495 -0.00467,0.03824 -6.086e-4,0.0059 -0.00491,0.01004 -0.00491,0.01621 v 0.0051 0.898582 c 0,0.09624 0.068892,0.173689 0.1544684,0.173689 h 5.8698072 c 0.08558,0 0.154469,-0.07745 0.154469,-0.173689 v -0.898582 -0.01139 c -9.53e-4,-0.02107 -0.009,-0.03889 -0.01451,-0.05962 -0.07106,-0.268312 -1.11588,-0.503893 -2.105715,-0.660732 z"
         id="path49" />
      <path
         id="lpe_path-effect51"
         style="fill:#ffffff;stroke-width:0.316401"
         class="powerclip"
         d="M -4.47124,-0.7672 H 21.40365 V 20.08058 H -4.47124 Z M 10.795036,9.7427881 c -0.02132,0.0049 -0.04263,0.012959 -0.06271,0.022682 -0.199265,0.09819 -0.250856,0.4040869 -0.114617,0.6873039 0.109678,0.227806 0.304612,0.369089 0.481632,0.364553 0.132843,0.757297 0.663288,1.322758 1.29352,1.322758 h 0.0049 c 0.630232,0 1.160677,-0.565461 1.293519,-1.322758 0.176713,0.0042 0.37196,-0.136747 0.481634,-0.364553 0.13624,-0.283217 0.08464,-0.5891179 -0.114617,-0.6873039 -0.02009,-0.00968 -0.04139,-0.017822 -0.06271,-0.022682 -0.0256,-0.8282631 -0.731519,-1.4912629 -1.600251,-1.4912629 -0.868731,0 -1.574653,0.6629998 -1.600295,1.4912629 z m 2.569432,2.5376099 c -0.07662,0.111466 -0.177639,0.211927 -0.31388,0.287429 l -0.0013,0.0014 c -0.192468,0.139016 -0.415213,0.219055 -0.651549,0.219055 h -0.0049 c -0.36022,0 -0.685222,-0.188271 -0.92434,-0.487367 -1.008062,0.156191 -2.0850165,0.382377 -2.1529826,0.640318 -0.0013,0.0036 9.26e-4,0.0081 0,0.01139 -0.00303,0.01329 -0.00338,0.02495 -0.00467,0.03824 -6.086e-4,0.0059 -0.00491,0.01004 -0.00491,0.01621 v 0.0051 0.898582 c 0,0.09624 0.068892,0.173689 0.1544684,0.173689 h 5.8698072 c 0.08558,0 0.154469,-0.07745 0.154469,-0.173689 v -0.898582 -0.01139 c -9.53e-4,-0.02107 -0.009,-0.03889 -0.01451,-0.05962 -0.07106,-0.268312 -1.11588,-0.503893 -2.105715,-0.660732 z" />
    </clipPath>
  </defs>
  <metadata
     id="metadata20">
    <rdf:RDF>
      <cc:Work
         rdf:about="">
        <dc:format>image/svg+xml</dc:format>
        <dc:type
           rdf:resource="http://purl.org/dc/dcmitype/StillImage" />
      </cc:Work>
    </rdf:RDF>
  </metadata>
  <g
     fill="#5e4aa6"
     stroke-width=".26458"
     id="g30">
    <circle
       cx="-330.35"
       cy="-328.38"
       r="0"
       id="circle22" />
    <circle
       cx="-312.11"
       cy="-326.25"
       r="0"
       id="circle24" />
    <circle
       cx="-306.02"
       cy="-333.07"
       r="0"
       id="circle26" />
    <circle
       cx="-308.84"
       cy="-326.01"
       r="0"
       id="circle28" />
  </g>
  <g
     transform="translate(.000295 -.00032978)"
     fill="#5e4aa6"
     stroke-width=".26458"
     id="g42">
    <circle
       cx="-330.35"
       cy="-328.38"
       r="0"
       id="circle32" />
    <circle
       cx="-312.11"
       cy="-326.25"
       r="0"
       id="circle34" />
    <circle
       cx="-306.02"
       cy="-333.07"
       r="0"
       id="circle36" />
    <circle
       cx="-308.84"
       cy="-326.01"
       r="0"
       id="circle38" />
    <circle
       cx="-328.8"
       cy="-330.45"
       r="0"
       id="circle40" />
  </g>
  <g
     transform="translate(.000295 -.00032978)"
     id="g52"
     style="fill:#4d4d4d">
    <g
       id="g37"
       clip-path="url(#clipPath39)"
       inkscape:path-effect="#path-effect43"
       style="fill:#4d4d4d">
      <g
         transform="matrix(1,0,0,1.1,16.669,63.956)"
         fill="url(#linearGradient939)"
         stroke-width=".66145"
         id="g46"
         style="fill:#4d4d4d">
        <path
           d="m -8.2026,-51.317 h -7.9373 v -3.6379 c 0,-0.36531 0.29614,-0.66144 0.66144,-0.66144 h 5.6223 l 1.6536,1.3229 z"
           fill="url(#linearGradient939)"
           id="path44"
           style="fill:#4d4d4d"
           inkscape:original-d="m-8.2026-51.317h-7.9373v-3.6379c0-0.36531 0.29614-0.66144 0.66144-0.66144h5.6223l1.6536 1.3229z" />
      </g>
      <path
         x="0.52938998"
         y="4.2333002"
         width="15.874"
         height="10.848"
         ry="0.79373002"
         fill="url(#linearGradient1006)"
         id="rect48"
         style="fill:#4d4d4d"
         d="m 1.32312,4.2333002 h 14.28654 c 0.439726,0 0.79373,0.3540036 0.79373,0.79373 V 14.28757 c 0,0.439726 -0.354004,0.79373 -0.79373,0.79373 H 1.32312 c -0.43972643,0 -0.79373002,-0.354004 -0.79373002,-0.79373 V 5.0270302 c 0,-0.4397264 0.35400359,-0.79373 0.79373002,-0.79373 z"
         sodipodi:type="rect" />
    </g>
  </g>
  <path
     d="M 15.742,4.2329 H 8.4661 L 6.8125,5.6881 H 1.1902 c -0.36531,0 -0.66144,0.32575 -0.66144,0.72759 v 7.9373 c 0,0.40184 0.29614,0.72759 0.66144,0.72759 h 14.552 c 0.36531,0 0.66145,-0.32575 0.66145,-0.72759 v -9.3926 c 0,-0.40184 -0.29614,-0.72759 -0.66145,-0.72759 z"
     fill="url(#linearGradient1064)"
     stroke-width=".69373"
     id="path54"
     style="fill:#2c2c2c"
     clip-path="url(#clipPath47)"
     inkscape:path-effect="#path-effect51"
     inkscape:original-d="m15.742 4.2329h-7.2759l-1.6536 1.4552h-5.6223c-0.36531 0-0.66144 0.32575-0.66144 0.72759v7.9373c0 0.40184 0.29614 0.72759 0.66144 0.72759h14.552c0.36531 0 0.66145-0.32575 0.66145-0.72759v-9.3926c0-0.40184-0.29614-0.72759-0.66145-0.72759z" />
</svg>
