<?xml version="1.0" encoding="UTF-8" standalone="no"?>
<svg
   width="64"
   height="64"
   version="1.1"
   viewBox="0 0 16.933 16.933"
   id="svg56"
   sodipodi:docname="folder-gitkraken.svg"
   inkscape:version="1.1 (1:1.1+202105261517+ce6663b3b7)"
   xmlns:inkscape="http://www.inkscape.org/namespaces/inkscape"
   xmlns:sodipodi="http://sodipodi.sourceforge.net/DTD/sodipodi-0.dtd"
   xmlns:xlink="http://www.w3.org/1999/xlink"
   xmlns="http://www.w3.org/2000/svg"
   xmlns:svg="http://www.w3.org/2000/svg"
   xmlns:rdf="http://www.w3.org/1999/02/22-rdf-syntax-ns#"
   xmlns:cc="http://creativecommons.org/ns#"
   xmlns:dc="http://purl.org/dc/elements/1.1/">
  <sodipodi:namedview
     pagecolor="#ffffff"
     bordercolor="#666666"
     borderopacity="1"
     objecttolerance="10"
     gridtolerance="10"
     guidetolerance="10"
     inkscape:pageopacity="0"
     inkscape:pageshadow="2"
     inkscape:window-width="1920"
     inkscape:window-height="996"
     id="namedview58"
     showgrid="false"
     inkscape:zoom="12.890625"
     inkscape:cx="32"
     inkscape:cy="35.10303"
     inkscape:window-x="0"
     inkscape:window-y="0"
     inkscape:window-maximized="1"
     inkscape:current-layer="svg56"
     inkscape:document-rotation="0"
     inkscape:pagecheckerboard="0" />
  <defs
     id="defs18">
    <inkscape:path-effect
       effect="powerclip"
       id="path-effect51"
       is_visible="true"
       lpeversion="1"
       inverse="true"
       flatten="false"
       hide_clip="false"
       message="Use fill-rule evenodd on &lt;b&gt;fill and stroke&lt;/b&gt; dialog if no flatten result after convert clip to paths." />
    <inkscape:path-effect
       effect="powerclip"
       id="path-effect43"
       is_visible="true"
       lpeversion="1"
       inverse="true"
       flatten="false"
       hide_clip="false"
       message="Use fill-rule evenodd on &lt;b&gt;fill and stroke&lt;/b&gt; dialog if no flatten result after convert clip to paths." />
    <linearGradient
       id="linearGradient1064"
       x1="-15.961"
       x2="-.30109"
       y1="-43.254"
       y2="-54.196"
       gradientTransform="matrix(1 0 0 1.1 16.669 62.435)"
       gradientUnits="userSpaceOnUse">
      <stop
         stop-color="#3c3c3c"
         offset="0"
         id="stop2" />
      <stop
         stop-color="#646464"
         offset="1"
         id="stop4" />
    </linearGradient>
    <linearGradient
       id="linearGradient992"
       x1="-16.14"
       x2="-1.0699"
       y1="-55.616"
       y2="-44.835"
       gradientTransform="matrix(1 0 0 1.1 16.669 62.435)"
       gradientUnits="userSpaceOnUse">
      <stop
         stop-color="#3c3c3c"
         offset="0"
         id="stop7" />
      <stop
         stop-color="#646464"
         offset="1"
         id="stop9" />
    </linearGradient>
    <linearGradient
       id="linearGradient1006"
       x1=".52939"
       x2="16.217"
       y1="2.7784"
       y2="14.872"
       gradientTransform="matrix(1,0,0,1.1,16.669,62.435)"
       gradientUnits="userSpaceOnUse">
      <stop
         stop-color="#3c3c3c"
         offset="0"
         id="stop12" />
      <stop
         stop-color="#646464"
         offset="1"
         id="stop14" />
    </linearGradient>
    <linearGradient
       id="linearGradient939"
       x1="-16.14"
       x2="-1.0699"
       y1="-55.616"
       y2="-44.835"
       gradientTransform="matrix(1,0,0,1.1,16.669,62.435)"
       gradientUnits="userSpaceOnUse"
       xlink:href="#linearGradient992" />
    <clipPath
       clipPathUnits="userSpaceOnUse"
       id="clipPath39">
      <rect
         x="0.97311002"
         y="4.6963"
         width="14.987"
         height="9.9216995"
         ry="0.29919001"
         fill="#fffffc"
         id="rect41"
         style="display:none;opacity:0.85;fill:#f2f2f2;stroke-width:0.999999" />
      <path
         id="lpe_path-effect43"
         style="opacity:0.85;fill:#f2f2f2;stroke-width:0.999999"
         class="powerclip"
         d="M -4.4709,-2.221974 H 21.40339 V 20.0813 H -4.4709 Z M 1.2723,4.6963 c -0.1657512,0 -0.29918998,0.1334388 -0.29918998,0.29919 v 9.32332 c 0,0.165751 0.13343878,0.29919 0.29918998,0.29919 h 14.38862 c 0.165752,0 0.29919,-0.133439 0.29919,-0.29919 V 4.99549 c 0,-0.1657512 -0.133438,-0.29919 -0.29919,-0.29919 z" />
    </clipPath>
    <clipPath
       clipPathUnits="userSpaceOnUse"
       id="clipPath47">
      <path
         style="display:none;opacity:1;fill:#ffffff;stroke-width:0.157226"
         d="m 11.052514,9.1295823 c -0.39116,0.4948862 -0.593222,0.8946337 -0.593222,1.1724167 0,0.184155 0.01694,0.213567 0.182409,0.319476 0.282852,0.247054 0.232025,0.477026 0.298488,0.802609 -0.09108,0 -0.160195,0.154312 -0.160195,0.308625 0,0.154313 0.0733,0.308626 0.160195,0.308626 l -3.17e-4,0.315558 C 10.221317,11.957565 9.8185067,11.211769 9.8185067,10.35203 c 0,-0.9204805 0.5534253,-1.6404322 1.3572773,-2.0140507 h -0.860735 v -3.175e-4 c -0.59866,0.5083123 -0.9771273,1.1813186 -0.9771273,2.0140512 0,1.124898 0.6083817,2.087372 1.6019503,2.525066 l 0.04631,0.0217 c 0.138912,0.05829 0.284976,0.103076 0.434279,0.140147 v 0.47168 C 9.8798348,13.184712 8.8607979,11.871515 8.8570311,10.352022 8.8575338,10.038393 8.905261,9.7184215 8.9987661,9.4180065 H 8.5019085 c -0.082149,0.3023197 -0.1244068,0.6215105 -0.1254651,0.9340155 7.673e-4,1.955277 1.498933,3.573169 3.5246026,3.695374 v -1.543734 c 8.1e-5,1.4e-5 2.41e-4,-1.1e-5 3.18e-4,0 l -8e-6,5.82e-4 c 0.04021,-8.73e-4 0.0998,0.002 0.15957,0.0036 4.76e-4,-1.3e-5 7.93e-4,1.3e-5 0.0013,0 0.05978,-0.0016 0.119365,-0.0045 0.159571,-0.0036 v -5.82e-4 c 8.1e-5,-1.1e-5 2.41e-4,1.4e-5 3.18e-4,0 v 1.543734 c 2.025663,-0.122206 3.523828,-1.740098 3.524596,-3.695375 -10e-4,-0.312505 -0.04332,-0.6316958 -0.125466,-0.9340155 h -0.496876 c 0.09351,0.3004152 0.141238,0.6203855 0.141735,0.9340155 -0.0038,1.519493 -1.022811,2.832698 -2.563433,3.158292 v -0.471678 c 0.149302,-0.03707 0.295367,-0.08186 0.434278,-0.140147 l 0.04631,-0.0217 c 0.993568,-0.437693 1.60195,-1.400168 1.60195,-2.525066 0,-0.8327321 -0.378468,-1.5057459 -0.977127,-2.0140581 v 3.175e-4 H 12.94731 c 0.803852,0.3736184 1.357278,1.0935773 1.357278,2.0140586 0,0.859738 -0.402811,1.605534 -1.121365,2.004863 l -3.18e-4,-0.315566 c 0.08689,0 0.160195,-0.154312 0.160195,-0.308625 0,-0.154314 -0.06912,-0.308626 -0.160195,-0.308626 0.06646,-0.325583 0.01564,-0.555555 0.298488,-0.802609 0.165475,-0.105909 0.18241,-0.135321 0.18241,-0.319476 0,-0.277783 -0.202063,-0.6775304 -0.593223,-1.1724167 -0.254142,-0.3214206 -0.528455,-0.7917572 -1.009041,-0.7917572 -0.480584,0 -0.793047,0.5286687 -1.00904,0.7917575 z m 0.288163,2.4488137 c 0.132711,0 0.24028,0.10362 0.240293,0.23147 -1.3e-5,0.12785 -0.107582,0.231469 -0.240293,0.231469 -0.132711,0 -0.24028,-0.10362 -0.240292,-0.231469 1.2e-5,-0.12785 0.107581,-0.23147 0.240292,-0.23147 z m 1.441755,0 c 0.132711,0 0.240281,0.10362 0.240293,0.23147 -1.2e-5,0.127849 -0.107582,0.231469 -0.240293,0.231469 -0.13271,0 -0.24028,-0.103619 -0.240292,-0.231469 1.2e-5,-0.12785 0.107582,-0.23147 0.240292,-0.23147 z"
         id="path49" />
      <path
         id="lpe_path-effect51"
         style="opacity:1;fill:#ffffff;stroke-width:0.157226"
         class="powerclip"
         d="M -4.47124,-0.7672 H 21.40365 V 20.08058 H -4.47124 Z m 15.523754,9.8967823 c -0.39116,0.4948862 -0.593222,0.8946337 -0.593222,1.1724167 0,0.184155 0.01694,0.213567 0.182409,0.319476 0.282852,0.247054 0.232025,0.477026 0.298488,0.802609 -0.09108,0 -0.160195,0.154312 -0.160195,0.308625 0,0.154313 0.0733,0.308626 0.160195,0.308626 l -3.17e-4,0.315558 C 10.221317,11.957565 9.8185067,11.211769 9.8185067,10.35203 c 0,-0.9204805 0.5534253,-1.6404322 1.3572773,-2.0140507 h -0.860735 v -3.175e-4 c -0.59866,0.5083123 -0.9771273,1.1813186 -0.9771273,2.0140512 0,1.124898 0.6083817,2.087372 1.6019503,2.525066 l 0.04631,0.0217 c 0.138912,0.05829 0.284976,0.103076 0.434279,0.140147 v 0.47168 C 9.8798348,13.184712 8.8607979,11.871515 8.8570311,10.352022 8.8575338,10.038393 8.905261,9.7184215 8.9987661,9.4180065 H 8.5019085 c -0.082149,0.3023197 -0.1244068,0.6215105 -0.1254651,0.9340155 7.673e-4,1.955277 1.498933,3.573169 3.5246026,3.695374 v -1.543734 c 8.1e-5,1.4e-5 2.41e-4,-1.1e-5 3.18e-4,0 l -8e-6,5.82e-4 c 0.04021,-8.73e-4 0.0998,0.002 0.15957,0.0036 4.76e-4,-1.3e-5 7.93e-4,1.3e-5 0.0013,0 0.05978,-0.0016 0.119365,-0.0045 0.159571,-0.0036 v -5.82e-4 c 8.1e-5,-1.1e-5 2.41e-4,1.4e-5 3.18e-4,0 v 1.543734 c 2.025663,-0.122206 3.523828,-1.740098 3.524596,-3.695375 -10e-4,-0.312505 -0.04332,-0.6316958 -0.125466,-0.9340155 h -0.496876 c 0.09351,0.3004152 0.141238,0.6203855 0.141735,0.9340155 -0.0038,1.519493 -1.022811,2.832698 -2.563433,3.158292 v -0.471678 c 0.149302,-0.03707 0.295367,-0.08186 0.434278,-0.140147 l 0.04631,-0.0217 c 0.993568,-0.437693 1.60195,-1.400168 1.60195,-2.525066 0,-0.8327321 -0.378468,-1.5057459 -0.977127,-2.0140581 v 3.175e-4 H 12.94731 c 0.803852,0.3736184 1.357278,1.0935773 1.357278,2.0140586 0,0.859738 -0.402811,1.605534 -1.121365,2.004863 l -3.18e-4,-0.315566 c 0.08689,0 0.160195,-0.154312 0.160195,-0.308625 0,-0.154314 -0.06912,-0.308626 -0.160195,-0.308626 0.06646,-0.325583 0.01564,-0.555555 0.298488,-0.802609 0.165475,-0.105909 0.18241,-0.135321 0.18241,-0.319476 0,-0.277783 -0.202063,-0.6775304 -0.593223,-1.1724167 -0.254142,-0.3214206 -0.528455,-0.7917572 -1.009041,-0.7917572 -0.480584,0 -0.793047,0.5286687 -1.00904,0.7917575 z m 0.288163,2.4488137 c -0.132711,0 -0.24028,0.10362 -0.240292,0.23147 1.2e-5,0.127849 0.107581,0.231469 0.240292,0.231469 0.132711,0 0.24028,-0.103619 0.240293,-0.231469 -1.3e-5,-0.12785 -0.107582,-0.23147 -0.240293,-0.23147 z m 1.441755,0 c -0.13271,0 -0.24028,0.10362 -0.240292,0.23147 1.2e-5,0.12785 0.107582,0.231469 0.240292,0.231469 0.132711,0 0.240281,-0.10362 0.240293,-0.231469 -1.2e-5,-0.12785 -0.107582,-0.23147 -0.240293,-0.23147 z" />
    </clipPath>
  </defs>
  <metadata
     id="metadata20">
    <rdf:RDF>
      <cc:Work
         rdf:about="">
        <dc:format>image/svg+xml</dc:format>
        <dc:type
           rdf:resource="http://purl.org/dc/dcmitype/StillImage" />
        <dc:title />
      </cc:Work>
    </rdf:RDF>
  </metadata>
  <g
     fill="#5e4aa6"
     stroke-width=".26458"
     id="g30">
    <circle
       cx="-330.35"
       cy="-328.38"
       r="0"
       id="circle22" />
    <circle
       cx="-312.11"
       cy="-326.25"
       r="0"
       id="circle24" />
    <circle
       cx="-306.02"
       cy="-333.07"
       r="0"
       id="circle26" />
    <circle
       cx="-308.84"
       cy="-326.01"
       r="0"
       id="circle28" />
  </g>
  <g
     transform="translate(.000295 -.00032978)"
     fill="#5e4aa6"
     stroke-width=".26458"
     id="g42">
    <circle
       cx="-330.35"
       cy="-328.38"
       r="0"
       id="circle32" />
    <circle
       cx="-312.11"
       cy="-326.25"
       r="0"
       id="circle34" />
    <circle
       cx="-306.02"
       cy="-333.07"
       r="0"
       id="circle36" />
    <circle
       cx="-308.84"
       cy="-326.01"
       r="0"
       id="circle38" />
    <circle
       cx="-328.8"
       cy="-330.45"
       r="0"
       id="circle40" />
  </g>
  <g
     transform="translate(.000295 -.00032978)"
     id="g52"
     style="fill:#4d4d4d">
    <g
       id="g37"
       clip-path="url(#clipPath39)"
       inkscape:path-effect="#path-effect43"
       style="fill:#4d4d4d">
      <g
         transform="matrix(1,0,0,1.1,16.669,63.956)"
         fill="url(#linearGradient939)"
         stroke-width=".66145"
         id="g46"
         style="fill:#4d4d4d">
        <path
           d="m -8.2026,-51.317 h -7.9373 v -3.6379 c 0,-0.36531 0.29614,-0.66144 0.66144,-0.66144 h 5.6223 l 1.6536,1.3229 z"
           fill="url(#linearGradient939)"
           id="path44"
           style="fill:#4d4d4d"
           inkscape:original-d="m-8.2026-51.317h-7.9373v-3.6379c0-0.36531 0.29614-0.66144 0.66144-0.66144h5.6223l1.6536 1.3229z" />
      </g>
      <path
         x="0.52938998"
         y="4.2333002"
         width="15.874"
         height="10.848"
         ry="0.79373002"
         fill="url(#linearGradient1006)"
         id="rect48"
         style="fill:#4d4d4d"
         d="m 1.32312,4.2333002 h 14.28654 c 0.439726,0 0.79373,0.3540036 0.79373,0.79373 V 14.28757 c 0,0.439726 -0.354004,0.79373 -0.79373,0.79373 H 1.32312 c -0.43972643,0 -0.79373002,-0.354004 -0.79373002,-0.79373 V 5.0270302 c 0,-0.4397264 0.35400359,-0.79373 0.79373002,-0.79373 z"
         sodipodi:type="rect" />
    </g>
  </g>
  <path
     d="M 15.742,4.2329 H 8.4661 L 6.8125,5.6881 H 1.1902 c -0.36531,0 -0.66144,0.32575 -0.66144,0.72759 v 7.9373 c 0,0.40184 0.29614,0.72759 0.66144,0.72759 h 14.552 c 0.36531,0 0.66145,-0.32575 0.66145,-0.72759 v -9.3926 c 0,-0.40184 -0.29614,-0.72759 -0.66145,-0.72759 z"
     fill="url(#linearGradient1064)"
     stroke-width=".69373"
     id="path54"
     style="fill:#2c2c2c"
     clip-path="url(#clipPath47)"
     inkscape:path-effect="#path-effect51"
     inkscape:original-d="m15.742 4.2329h-7.2759l-1.6536 1.4552h-5.6223c-0.36531 0-0.66144 0.32575-0.66144 0.72759v7.9373c0 0.40184 0.29614 0.72759 0.66144 0.72759h14.552c0.36531 0 0.66145-0.32575 0.66145-0.72759v-9.3926c0-0.40184-0.29614-0.72759-0.66145-0.72759z" />
</svg>
