<?xml version="1.0" encoding="UTF-8" standalone="no"?>
<svg
   width="64"
   height="64"
   version="1.1"
   viewBox="0 0 16.933 16.933"
   id="svg56"
   sodipodi:docname="folder-onedrive.svg"
   inkscape:version="1.1 (1:1.1+202105261517+ce6663b3b7)"
   xmlns:inkscape="http://www.inkscape.org/namespaces/inkscape"
   xmlns:sodipodi="http://sodipodi.sourceforge.net/DTD/sodipodi-0.dtd"
   xmlns:xlink="http://www.w3.org/1999/xlink"
   xmlns="http://www.w3.org/2000/svg"
   xmlns:svg="http://www.w3.org/2000/svg"
   xmlns:rdf="http://www.w3.org/1999/02/22-rdf-syntax-ns#"
   xmlns:cc="http://creativecommons.org/ns#"
   xmlns:dc="http://purl.org/dc/elements/1.1/">
  <sodipodi:namedview
     pagecolor="#ffffff"
     bordercolor="#666666"
     borderopacity="1"
     objecttolerance="10"
     gridtolerance="10"
     guidetolerance="10"
     inkscape:pageopacity="0"
     inkscape:pageshadow="2"
     inkscape:window-width="1502"
     inkscape:window-height="856"
     id="namedview58"
     showgrid="false"
     inkscape:zoom="12.890625"
     inkscape:cx="32"
     inkscape:cy="28.89697"
     inkscape:window-x="103"
     inkscape:window-y="135"
     inkscape:window-maximized="0"
     inkscape:current-layer="svg56"
     inkscape:document-rotation="0"
     inkscape:pagecheckerboard="0" />
  <defs
     id="defs18">
    <inkscape:path-effect
       effect="powerclip"
       id="path-effect51"
       is_visible="true"
       lpeversion="1"
       inverse="true"
       flatten="false"
       hide_clip="false"
       message="Use fill-rule evenodd on &lt;b&gt;fill and stroke&lt;/b&gt; dialog if no flatten result after convert clip to paths." />
    <inkscape:path-effect
       effect="powerclip"
       id="path-effect43"
       is_visible="true"
       lpeversion="1"
       inverse="true"
       flatten="false"
       hide_clip="false"
       message="Use fill-rule evenodd on &lt;b&gt;fill and stroke&lt;/b&gt; dialog if no flatten result after convert clip to paths." />
    <linearGradient
       id="linearGradient1064"
       x1="-15.961"
       x2="-.30109"
       y1="-43.254"
       y2="-54.196"
       gradientTransform="matrix(1 0 0 1.1 16.669 62.435)"
       gradientUnits="userSpaceOnUse">
      <stop
         stop-color="#3c3c3c"
         offset="0"
         id="stop2" />
      <stop
         stop-color="#646464"
         offset="1"
         id="stop4" />
    </linearGradient>
    <linearGradient
       id="linearGradient992"
       x1="-16.14"
       x2="-1.0699"
       y1="-55.616"
       y2="-44.835"
       gradientTransform="matrix(1 0 0 1.1 16.669 62.435)"
       gradientUnits="userSpaceOnUse">
      <stop
         stop-color="#3c3c3c"
         offset="0"
         id="stop7" />
      <stop
         stop-color="#646464"
         offset="1"
         id="stop9" />
    </linearGradient>
    <linearGradient
       id="linearGradient1006"
       x1=".52939"
       x2="16.217"
       y1="2.7784"
       y2="14.872"
       gradientTransform="matrix(1,0,0,1.1,16.669,62.435)"
       gradientUnits="userSpaceOnUse">
      <stop
         stop-color="#3c3c3c"
         offset="0"
         id="stop12" />
      <stop
         stop-color="#646464"
         offset="1"
         id="stop14" />
    </linearGradient>
    <linearGradient
       id="linearGradient939"
       x1="-16.14"
       x2="-1.0699"
       y1="-55.616"
       y2="-44.835"
       gradientTransform="matrix(1,0,0,1.1,16.669,62.435)"
       gradientUnits="userSpaceOnUse"
       xlink:href="#linearGradient992" />
    <clipPath
       clipPathUnits="userSpaceOnUse"
       id="clipPath39">
      <rect
         x="0.97311002"
         y="4.6963"
         width="14.987"
         height="9.9216995"
         ry="0.29919001"
         fill="#fffffc"
         id="rect41"
         style="display:none;opacity:0.85;fill:#f2f2f2;stroke-width:0.999999" />
      <path
         id="lpe_path-effect43"
         style="opacity:0.85;fill:#f2f2f2;stroke-width:0.999999"
         class="powerclip"
         d="M -4.4709,-2.221974 H 21.40339 V 20.0813 H -4.4709 Z M 1.2723,4.6963 c -0.1657512,0 -0.29918998,0.1334388 -0.29918998,0.29919 v 9.32332 c 0,0.165751 0.13343878,0.29919 0.29918998,0.29919 h 14.38862 c 0.165752,0 0.29919,-0.133439 0.29919,-0.29919 V 4.99549 c 0,-0.1657512 -0.133438,-0.29919 -0.29919,-0.29919 z" />
    </clipPath>
    <clipPath
       clipPathUnits="userSpaceOnUse"
       id="clipPath47">
      <path
         style="display:none;fill:#ffffff;stroke-width:0.264578"
         d="M 11.423231,9.1109544 A 1.5874687,1.5874687 0 0 0 9.9608169,10.081419 C 9.7622931,9.967656 9.5376141,9.9051279 9.3066059,9.9046887 c -0.7306089,0 -1.3228906,0.5922813 -1.3228906,1.3228903 6.35e-4,0.08929 0.010356,0.178279 0.028938,0.265612 -0.00964,-4.76e-4 -0.019285,-8.2e-4 -0.028938,-10e-4 -0.5844869,0 -1.0583125,0.473825 -1.0583125,1.058312 0,0.584486 0.4738256,1.058313 1.0583125,1.058313 0.2032349,-4.77e-4 0.4019696,-0.05958 0.5725637,-0.170013 -0.01312,-0.05569 -0.02401,-0.112322 -0.03101,-0.170012 -3.704e-4,-0.0029 -6.615e-4,-0.0058 -0.00101,-0.0088 -0.0069,-0.05933 -0.011369,-0.119315 -0.011369,-0.180349 0,-0.714958 0.4925598,-1.301912 1.1477108,-1.497554 0.01288,-0.05072 0.03337,-0.09818 0.05013,-0.147275 2.911e-4,-8.2e-4 2.601e-4,-0.0017 5.292e-4,-0.0026 0.00241,-0.0078 0.0039,-0.01607 0.0067,-0.02377 0.00169,-0.0048 0.0042,-0.0093 0.0062,-0.01395 2.619e-4,-7.14e-4 7.672e-4,-0.0014 0.00101,-0.0021 0.03022,-0.0823 0.06588,-0.16108 0.1064508,-0.237707 4.234e-4,-8.2e-4 5.821e-4,-0.0018 0.00101,-0.0026 1.789e-4,-3.43e-4 2.911e-4,-7.14e-4 5.292e-4,-0.001 0,0 5.292e-4,-5.29e-4 5.292e-4,-5.29e-4 0.3075018,-0.577534 0.8925078,-0.981293 1.5895008,-0.981293 a 0.52920917,0.52920917 0 0 0 5.29e-4,0 c 0.642287,3.17e-4 1.215551,0.341686 1.549229,0.864013 a 1.5874687,1.5874687 0 0 0 0.03771,-0.334856 1.5874687,1.5874687 0 0 0 -1.587469,-1.5874693 z m 0,1.5874686 c -0.730609,0 -1.322891,0.592281 -1.322891,1.322891 -0.5844869,0 -1.0583119,0.473825 -1.0583119,1.058313 0,0.584486 0.473825,1.058312 1.0583119,1.058312 h 4.497828 c 0.438365,0 0.793735,-0.355369 0.793735,-0.793734 0,-0.438366 -0.35537,-0.793735 -0.793735,-0.793735 -0.09095,4.5e-4 -0.181143,0.01654 -0.266645,0.04754 0.0011,-0.01583 0.0018,-0.03168 0.0021,-0.04754 0,-0.584487 -0.473825,-1.058313 -1.058312,-1.058313 -0.20559,9.5e-5 -0.406704,0.06007 -0.578765,0.172596 -0.159868,-0.571099 -0.680268,-0.966038 -1.273315,-0.96633 z"
         id="path49" />
      <path
         id="lpe_path-effect51"
         style="fill:#ffffff;stroke-width:0.264578"
         class="powerclip"
         d="M -4.47124,-0.7672 H 21.40365 V 20.08058 H -4.47124 Z M 11.423231,9.1109544 A 1.5874687,1.5874687 0 0 0 9.9608169,10.081419 C 9.7622931,9.967656 9.5376141,9.9051279 9.3066059,9.9046887 c -0.7306089,0 -1.3228906,0.5922813 -1.3228906,1.3228903 6.35e-4,0.08929 0.010356,0.178279 0.028938,0.265612 -0.00964,-4.76e-4 -0.019285,-8.2e-4 -0.028938,-10e-4 -0.5844869,0 -1.0583125,0.473825 -1.0583125,1.058312 0,0.584486 0.4738256,1.058313 1.0583125,1.058313 0.2032349,-4.77e-4 0.4019696,-0.05958 0.5725637,-0.170013 -0.01312,-0.05569 -0.02401,-0.112322 -0.03101,-0.170012 -3.704e-4,-0.0029 -6.615e-4,-0.0058 -0.00101,-0.0088 -0.0069,-0.05933 -0.011369,-0.119315 -0.011369,-0.180349 0,-0.714958 0.4925598,-1.301912 1.1477108,-1.497554 0.01288,-0.05072 0.03337,-0.09818 0.05013,-0.147275 2.911e-4,-8.2e-4 2.601e-4,-0.0017 5.292e-4,-0.0026 0.00241,-0.0078 0.0039,-0.01607 0.0067,-0.02377 0.00169,-0.0048 0.0042,-0.0093 0.0062,-0.01395 2.619e-4,-7.14e-4 7.672e-4,-0.0014 0.00101,-0.0021 0.03022,-0.0823 0.06588,-0.16108 0.1064508,-0.237707 4.234e-4,-8.2e-4 5.821e-4,-0.0018 0.00101,-0.0026 1.789e-4,-3.43e-4 2.911e-4,-7.14e-4 5.292e-4,-0.001 0,0 5.292e-4,-5.29e-4 5.292e-4,-5.29e-4 0.3075018,-0.577534 0.8925078,-0.981293 1.5895008,-0.981293 a 0.52920917,0.52920917 0 0 0 5.29e-4,0 c 0.642287,3.17e-4 1.215551,0.341686 1.549229,0.864013 a 1.5874687,1.5874687 0 0 0 0.03771,-0.334856 1.5874687,1.5874687 0 0 0 -1.587469,-1.5874693 z m 0,1.5874686 c -0.730609,0 -1.322891,0.592281 -1.322891,1.322891 -0.5844869,0 -1.0583119,0.473825 -1.0583119,1.058313 0,0.584486 0.473825,1.058312 1.0583119,1.058312 h 4.497828 c 0.438365,0 0.793735,-0.355369 0.793735,-0.793734 0,-0.438366 -0.35537,-0.793735 -0.793735,-0.793735 -0.09095,4.5e-4 -0.181143,0.01654 -0.266645,0.04754 0.0011,-0.01583 0.0018,-0.03168 0.0021,-0.04754 0,-0.584487 -0.473825,-1.058313 -1.058312,-1.058313 -0.20559,9.5e-5 -0.406704,0.06007 -0.578765,0.172596 -0.159868,-0.571099 -0.680268,-0.966038 -1.273315,-0.96633 z" />
    </clipPath>
  </defs>
  <metadata
     id="metadata20">
    <rdf:RDF>
      <cc:Work
         rdf:about="">
        <dc:format>image/svg+xml</dc:format>
        <dc:type
           rdf:resource="http://purl.org/dc/dcmitype/StillImage" />
        <dc:title />
      </cc:Work>
    </rdf:RDF>
  </metadata>
  <g
     fill="#5e4aa6"
     stroke-width=".26458"
     id="g30">
    <circle
       cx="-330.35"
       cy="-328.38"
       r="0"
       id="circle22" />
    <circle
       cx="-312.11"
       cy="-326.25"
       r="0"
       id="circle24" />
    <circle
       cx="-306.02"
       cy="-333.07"
       r="0"
       id="circle26" />
    <circle
       cx="-308.84"
       cy="-326.01"
       r="0"
       id="circle28" />
  </g>
  <g
     transform="translate(.000295 -.00032978)"
     fill="#5e4aa6"
     stroke-width=".26458"
     id="g42">
    <circle
       cx="-330.35"
       cy="-328.38"
       r="0"
       id="circle32" />
    <circle
       cx="-312.11"
       cy="-326.25"
       r="0"
       id="circle34" />
    <circle
       cx="-306.02"
       cy="-333.07"
       r="0"
       id="circle36" />
    <circle
       cx="-308.84"
       cy="-326.01"
       r="0"
       id="circle38" />
    <circle
       cx="-328.8"
       cy="-330.45"
       r="0"
       id="circle40" />
  </g>
  <g
     transform="translate(.000295 -.00032978)"
     id="g52"
     style="fill:#4d4d4d">
    <g
       id="g37"
       clip-path="url(#clipPath39)"
       inkscape:path-effect="#path-effect43"
       style="fill:#4d4d4d">
      <g
         transform="matrix(1,0,0,1.1,16.669,63.956)"
         fill="url(#linearGradient939)"
         stroke-width=".66145"
         id="g46"
         style="fill:#4d4d4d">
        <path
           d="m -8.2026,-51.317 h -7.9373 v -3.6379 c 0,-0.36531 0.29614,-0.66144 0.66144,-0.66144 h 5.6223 l 1.6536,1.3229 z"
           fill="url(#linearGradient939)"
           id="path44"
           style="fill:#4d4d4d"
           inkscape:original-d="m-8.2026-51.317h-7.9373v-3.6379c0-0.36531 0.29614-0.66144 0.66144-0.66144h5.6223l1.6536 1.3229z" />
      </g>
      <path
         x="0.52938998"
         y="4.2333002"
         width="15.874"
         height="10.848"
         ry="0.79373002"
         fill="url(#linearGradient1006)"
         id="rect48"
         style="fill:#4d4d4d"
         d="m 1.32312,4.2333002 h 14.28654 c 0.439726,0 0.79373,0.3540036 0.79373,0.79373 V 14.28757 c 0,0.439726 -0.354004,0.79373 -0.79373,0.79373 H 1.32312 c -0.43972643,0 -0.79373002,-0.354004 -0.79373002,-0.79373 V 5.0270302 c 0,-0.4397264 0.35400359,-0.79373 0.79373002,-0.79373 z"
         sodipodi:type="rect" />
    </g>
  </g>
  <path
     d="M 15.742,4.2329 H 8.4661 L 6.8125,5.6881 H 1.1902 c -0.36531,0 -0.66144,0.32575 -0.66144,0.72759 v 7.9373 c 0,0.40184 0.29614,0.72759 0.66144,0.72759 h 14.552 c 0.36531,0 0.66145,-0.32575 0.66145,-0.72759 v -9.3926 c 0,-0.40184 -0.29614,-0.72759 -0.66145,-0.72759 z"
     fill="url(#linearGradient1064)"
     stroke-width=".69373"
     id="path54"
     style="fill:#2c2c2c"
     clip-path="url(#clipPath47)"
     inkscape:path-effect="#path-effect51"
     inkscape:original-d="m15.742 4.2329h-7.2759l-1.6536 1.4552h-5.6223c-0.36531 0-0.66144 0.32575-0.66144 0.72759v7.9373c0 0.40184 0.29614 0.72759 0.66144 0.72759h14.552c0.36531 0 0.66145-0.32575 0.66145-0.72759v-9.3926c0-0.40184-0.29614-0.72759-0.66145-0.72759z" />
</svg>
