<?xml version="1.0" encoding="UTF-8" standalone="no"?>
<svg
   width="64"
   height="64"
   version="1.1"
   viewBox="0 0 16.933 16.933"
   id="svg56"
   sodipodi:docname="folder-lightworks.svg"
   inkscape:version="1.1 (1:1.1+202105261517+ce6663b3b7)"
   xmlns:inkscape="http://www.inkscape.org/namespaces/inkscape"
   xmlns:sodipodi="http://sodipodi.sourceforge.net/DTD/sodipodi-0.dtd"
   xmlns:xlink="http://www.w3.org/1999/xlink"
   xmlns="http://www.w3.org/2000/svg"
   xmlns:svg="http://www.w3.org/2000/svg"
   xmlns:rdf="http://www.w3.org/1999/02/22-rdf-syntax-ns#"
   xmlns:cc="http://creativecommons.org/ns#"
   xmlns:dc="http://purl.org/dc/elements/1.1/">
  <sodipodi:namedview
     pagecolor="#ffffff"
     bordercolor="#666666"
     borderopacity="1"
     objecttolerance="10"
     gridtolerance="10"
     guidetolerance="10"
     inkscape:pageopacity="0"
     inkscape:pageshadow="2"
     inkscape:window-width="1502"
     inkscape:window-height="856"
     id="namedview58"
     showgrid="false"
     inkscape:zoom="12.890625"
     inkscape:cx="32"
     inkscape:cy="35.10303"
     inkscape:window-x="418"
     inkscape:window-y="140"
     inkscape:window-maximized="0"
     inkscape:current-layer="svg56"
     inkscape:document-rotation="0"
     inkscape:pagecheckerboard="0" />
  <defs
     id="defs18">
    <inkscape:path-effect
       effect="powerclip"
       id="path-effect625"
       is_visible="true"
       lpeversion="1"
       inverse="true"
       flatten="false"
       hide_clip="false"
       message="Use fill-rule evenodd on &lt;b&gt;fill and stroke&lt;/b&gt; dialog if no flatten result after convert clip to paths." />
    <inkscape:path-effect
       effect="powerclip"
       id="path-effect474"
       is_visible="true"
       lpeversion="1"
       inverse="true"
       flatten="false"
       hide_clip="false"
       message="Use fill-rule evenodd on &lt;b&gt;fill and stroke&lt;/b&gt; dialog if no flatten result after convert clip to paths." />
    <inkscape:path-effect
       effect="powerclip"
       id="path-effect49"
       is_visible="true"
       lpeversion="1"
       inverse="true"
       flatten="false"
       hide_clip="false"
       message="Use fill-rule evenodd on &lt;b&gt;fill and stroke&lt;/b&gt; dialog if no flatten result after convert clip to paths." />
    <linearGradient
       id="linearGradient1064"
       x1="-15.961"
       x2="-.30109"
       y1="-43.254"
       y2="-54.196"
       gradientTransform="matrix(1 0 0 1.1 16.669 62.435)"
       gradientUnits="userSpaceOnUse">
      <stop
         stop-color="#3c3c3c"
         offset="0"
         id="stop2" />
      <stop
         stop-color="#646464"
         offset="1"
         id="stop4" />
    </linearGradient>
    <linearGradient
       id="linearGradient992"
       x1="-16.14"
       x2="-1.0699"
       y1="-55.616"
       y2="-44.835"
       gradientTransform="matrix(1 0 0 1.1 16.669 62.435)"
       gradientUnits="userSpaceOnUse">
      <stop
         stop-color="#3c3c3c"
         offset="0"
         id="stop7" />
      <stop
         stop-color="#646464"
         offset="1"
         id="stop9" />
    </linearGradient>
    <linearGradient
       id="linearGradient1006"
       x1=".52939"
       x2="16.217"
       y1="2.7784"
       y2="14.872"
       gradientTransform="matrix(1,0,0,1.1,16.669,62.435)"
       gradientUnits="userSpaceOnUse">
      <stop
         stop-color="#3c3c3c"
         offset="0"
         id="stop12" />
      <stop
         stop-color="#646464"
         offset="1"
         id="stop14" />
    </linearGradient>
    <linearGradient
       id="linearGradient939"
       x1="-16.14"
       x2="-1.0699"
       y1="-55.616"
       y2="-44.835"
       gradientTransform="matrix(1,0,0,1.1,16.669,62.435)"
       gradientUnits="userSpaceOnUse"
       xlink:href="#linearGradient992" />
    <clipPath
       clipPathUnits="userSpaceOnUse"
       id="clipPath45">
      <rect
         x="0.97311002"
         y="4.6963"
         width="14.987"
         height="9.9216995"
         ry="0.29919001"
         fill="#fffffc"
         id="rect47"
         style="display:none;opacity:0.85;fill:#f2f2f2;stroke-width:0.999999" />
      <path
         id="lpe_path-effect49"
         style="opacity:0.85;fill:#f2f2f2;stroke-width:0.999999"
         class="powerclip"
         d="M -4.4709,-2.221974 H 21.40339 V 20.0813 H -4.4709 Z M 1.2723,4.6963 c -0.1657512,0 -0.29918998,0.1334388 -0.29918998,0.29919 v 9.32332 c 0,0.165751 0.13343878,0.29919 0.29918998,0.29919 h 14.38862 c 0.165752,0 0.29919,-0.133439 0.29919,-0.29919 V 4.99549 c 0,-0.1657512 -0.133438,-0.29919 -0.29919,-0.29919 z" />
    </clipPath>
    <clipPath
       clipPathUnits="userSpaceOnUse"
       id="clipPath470">
      <path
         id="path472"
         style="display:none;fill:#ffffff;fill-rule:evenodd;stroke-width:0.12334"
         d="M 15.161567,7.4670971 C 14.906919,7.5600829 11.706923,8.8046933 10.628599,9.4540169 9.502245,10.13226 9.484626,10.379899 9.6162777,10.743835 c 0.1316519,0.363936 0.5295153,0.559951 0.7343073,1.105854 0.08338,0.222259 0.375136,0.345756 0.691934,0.41392 l 0.456294,0.74671 0.146242,-0.47128 0.321937,0.520888 0.226339,-0.537424 0.512103,0.570497 0.182931,-0.653178 0.482648,0.520889 0.23409,-0.711054 0.365862,0.446475 0.226855,-0.653177 0.402035,0.314187 0.170012,-0.605119 c 0.272397,-0.118052 0.55185,-0.259533 0.831974,-0.428906 V 8.0003874 c 0,-0.2029999 0.02207,-0.2778279 -0.108518,-0.3653451 z m 0.440274,4.5639729 c 0,0 -0.206483,0.268971 -0.537424,0.603569 -0.01486,-0.0035 -0.02752,-0.0063 -0.03152,-0.0078 l -0.439241,-0.152443 -0.0677,0.503319 -0.330723,-0.263545 -0.0155,0.584966 -0.434591,-0.345192 -0.06201,0.64956 -0.470246,-0.456294 -0.134873,0.532257 -0.372063,-0.485749 -0.222721,0.41547 -0.191199,-0.497117 -0.164328,0.373613 c 7.8e-5,9.3e-5 -7.5e-5,4.23e-4 0,5.29e-4 0.0012,0.0015 0.0025,0.003 0.0031,0.0052 -9.79e-4,-0.0018 -0.0021,-0.0034 -0.0031,-0.0052 0,0 -0.117025,0.02008 -0.09508,0.202051 0.112185,0.645199 1.078718,0.747279 1.31514,0.750844 0.534217,-0.0017 1.267069,-0.168315 2.254081,-0.679532 z" />
      <path
         id="lpe_path-effect474"
         style="fill:#ffffff;fill-rule:evenodd;stroke-width:0.12334"
         class="powerclip"
         d="M -4.47124,-0.7672 H 21.40365 V 20.08058 H -4.47124 Z M 15.161567,7.4670971 C 14.906919,7.5600829 11.706923,8.8046933 10.628599,9.4540169 9.502245,10.13226 9.484626,10.379899 9.6162777,10.743835 c 0.1316519,0.363936 0.5295153,0.559951 0.7343073,1.105854 0.08338,0.222259 0.375136,0.345756 0.691934,0.41392 l 0.456294,0.74671 0.146242,-0.47128 0.321937,0.520888 0.226339,-0.537424 0.512103,0.570497 0.182931,-0.653178 0.482648,0.520889 0.23409,-0.711054 0.365862,0.446475 0.226855,-0.653177 0.402035,0.314187 0.170012,-0.605119 c 0.272397,-0.118052 0.55185,-0.259533 0.831974,-0.428906 V 8.0003874 c 0,-0.2029999 0.02207,-0.2778279 -0.108518,-0.3653451 z m 0.440274,4.5639729 c 0,0 -0.206483,0.268971 -0.537424,0.603569 -0.01486,-0.0035 -0.02752,-0.0063 -0.03152,-0.0078 l -0.439241,-0.152443 -0.0677,0.503319 -0.330723,-0.263545 -0.0155,0.584966 -0.434591,-0.345192 -0.06201,0.64956 -0.470246,-0.456294 -0.134873,0.532257 -0.372063,-0.485749 -0.222721,0.41547 -0.191199,-0.497117 -0.164328,0.373613 c 7.8e-5,9.3e-5 -7.5e-5,4.23e-4 0,5.29e-4 0.0012,0.0015 0.0025,0.003 0.0031,0.0052 -9.79e-4,-0.0018 -0.0021,-0.0034 -0.0031,-0.0052 0,0 -0.117025,0.02008 -0.09508,0.202051 0.112185,0.645199 1.078718,0.747279 1.31514,0.750844 0.534217,-0.0017 1.267069,-0.168315 2.254081,-0.679532 z" />
    </clipPath>
    <clipPath
       clipPathUnits="userSpaceOnUse"
       id="clipPath621">
      <ellipse
         style="display:none;fill:#ffffff;stroke-width:0.12334"
         cx="14.265095"
         cy="10.054947"
         id="ellipse623"
         rx="0.17436959"
         ry="0.19629948"
         d="m 14.439464,10.054947 a 0.17436959,0.19629948 0 0 1 -0.174369,0.196299 0.17436959,0.19629948 0 0 1 -0.17437,-0.196299 0.17436959,0.19629948 0 0 1 0.17437,-0.1962996 0.17436959,0.19629948 0 0 1 0.174369,0.1962996 z" />
      <path
         id="lpe_path-effect625"
         style="fill:#ffffff;stroke-width:0.12334"
         class="powerclip"
         d="M 8.9746008,4.7277793 H 19.904328 V 15.77471 H 8.9746008 Z m 5.4648632,5.3271677 a 0.17436959,0.19629948 0 0 0 -0.174369,-0.1962996 0.17436959,0.19629948 0 0 0 -0.17437,0.1962996 0.17436959,0.19629948 0 0 0 0.17437,0.196299 0.17436959,0.19629948 0 0 0 0.174369,-0.196299 z" />
    </clipPath>
  </defs>
  <metadata
     id="metadata20">
    <rdf:RDF>
      <cc:Work
         rdf:about="">
        <dc:format>image/svg+xml</dc:format>
        <dc:type
           rdf:resource="http://purl.org/dc/dcmitype/StillImage" />
        <dc:title />
      </cc:Work>
    </rdf:RDF>
  </metadata>
  <g
     fill="#5e4aa6"
     stroke-width=".26458"
     id="g30">
    <circle
       cx="-330.35"
       cy="-328.38"
       r="0"
       id="circle22" />
    <circle
       cx="-312.11"
       cy="-326.25"
       r="0"
       id="circle24" />
    <circle
       cx="-306.02"
       cy="-333.07"
       r="0"
       id="circle26" />
    <circle
       cx="-308.84"
       cy="-326.01"
       r="0"
       id="circle28" />
  </g>
  <g
     transform="translate(.000295 -.00032978)"
     fill="#5e4aa6"
     stroke-width=".26458"
     id="g42">
    <circle
       cx="-330.35"
       cy="-328.38"
       r="0"
       id="circle32" />
    <circle
       cx="-312.11"
       cy="-326.25"
       r="0"
       id="circle34" />
    <circle
       cx="-306.02"
       cy="-333.07"
       r="0"
       id="circle36" />
    <circle
       cx="-308.84"
       cy="-326.01"
       r="0"
       id="circle38" />
    <circle
       cx="-328.8"
       cy="-330.45"
       r="0"
       id="circle40" />
  </g>
  <g
     transform="translate(.000295 -.00032978)"
     id="g52"
     style="fill:#4d4d4d">
    <g
       id="g43"
       clip-path="url(#clipPath45)"
       inkscape:path-effect="#path-effect49"
       style="fill:#4d4d4d">
      <g
         transform="matrix(1,0,0,1.1,16.669,63.956)"
         fill="url(#linearGradient939)"
         stroke-width=".66145"
         id="g46"
         style="fill:#4d4d4d">
        <path
           d="m -8.2026,-51.317 h -7.9373 v -3.6379 c 0,-0.36531 0.29614,-0.66144 0.66144,-0.66144 h 5.6223 l 1.6536,1.3229 z"
           fill="url(#linearGradient939)"
           id="path44"
           style="fill:#4d4d4d"
           inkscape:original-d="m-8.2026-51.317h-7.9373v-3.6379c0-0.36531 0.29614-0.66144 0.66144-0.66144h5.6223l1.6536 1.3229z" />
      </g>
      <path
         x="0.52938998"
         y="4.2333002"
         width="15.874"
         height="10.848"
         ry="0.79373002"
         fill="url(#linearGradient1006)"
         id="rect48"
         style="fill:#4d4d4d"
         d="m 1.32312,4.2333002 h 14.28654 c 0.439726,0 0.79373,0.3540036 0.79373,0.79373 V 14.28757 c 0,0.439726 -0.354004,0.79373 -0.79373,0.79373 H 1.32312 c -0.43972643,0 -0.79373002,-0.354004 -0.79373002,-0.79373 V 5.0270302 c 0,-0.4397264 0.35400359,-0.79373 0.79373002,-0.79373 z"
         sodipodi:type="rect" />
    </g>
  </g>
  <path
     d="M 15.742,4.2329 H 8.4661 L 6.8125,5.6881 H 1.1902 c -0.36531,0 -0.66144,0.32575 -0.66144,0.72759 v 7.9373 c 0,0.40184 0.29614,0.72759 0.66144,0.72759 h 14.552 c 0.36531,0 0.66145,-0.32575 0.66145,-0.72759 v -9.3926 c 0,-0.40184 -0.29614,-0.72759 -0.66145,-0.72759 z"
     fill="url(#linearGradient1064)"
     stroke-width=".69373"
     id="path54"
     style="fill:#2c2c2c"
     clip-path="url(#clipPath470)"
     inkscape:path-effect="#path-effect474"
     inkscape:original-d="m15.742 4.2329h-7.2759l-1.6536 1.4552h-5.6223c-0.36531 0-0.66144 0.32575-0.66144 0.72759v7.9373c0 0.40184 0.29614 0.72759 0.66144 0.72759h14.552c0.36531 0 0.66145-0.32575 0.66145-0.72759v-9.3926c0-0.40184-0.29614-0.72759-0.66145-0.72759z" />
  <path
     style="fill:#2c2c2c;stroke-width:0.12334"
     id="circle38-7"
     clip-path="url(#clipPath621)"
     inkscape:path-effect="#path-effect625"
     sodipodi:type="arc"
     sodipodi:cx="14.439465"
     sodipodi:cy="10.251245"
     sodipodi:rx="0.46486378"
     sodipodi:ry="0.52346528"
     d="m 14.904328,10.251245 a 0.46486378,0.52346528 0 0 1 -0.464863,0.523465 0.46486378,0.52346528 0 0 1 -0.464864,-0.523465 0.46486378,0.52346528 0 0 1 0.464864,-0.5234657 0.46486378,0.52346528 0 0 1 0.464863,0.5234657 z" />
</svg>
