<?xml version="1.0" encoding="UTF-8" standalone="no"?>
<svg
   width="22"
   height="22"
   viewBox="0 0 22 22"
   version="1.1"
   id="svg9"
   sodipodi:docname="megawarning.svg"
   inkscape:version="1.1 (1:1.1+202105261517+ce6663b3b7)"
   xmlns:inkscape="http://www.inkscape.org/namespaces/inkscape"
   xmlns:sodipodi="http://sodipodi.sourceforge.net/DTD/sodipodi-0.dtd"
   xmlns="http://www.w3.org/2000/svg"
   xmlns:svg="http://www.w3.org/2000/svg"
   xmlns:rdf="http://www.w3.org/1999/02/22-rdf-syntax-ns#"
   xmlns:x="adobe:ns:meta/">
  <sodipodi:namedview
     id="namedview11"
     pagecolor="#ffffff"
     bordercolor="#666666"
     borderopacity="1.0"
     inkscape:pageshadow="2"
     inkscape:pageopacity="0.0"
     inkscape:pagecheckerboard="0"
     showgrid="false"
     inkscape:zoom="23.227273"
     inkscape:cx="11.021526"
     inkscape:cy="11"
     inkscape:window-width="1567"
     inkscape:window-height="738"
     inkscape:window-x="213"
     inkscape:window-y="426"
     inkscape:window-maximized="0"
     inkscape:current-layer="svg9" />
  <metadata
     id="metadata2">
<?xpacket begin="﻿" id="W5M0MpCehiHzreSzNTczkc9d"?>    <x:xmpmeta
       x:xmptk="Adobe XMP Core 5.6-c138 79.159824, 2016/09/14-01:09:01        ">
      <rdf:RDF>
        <rdf:Description
           rdf:about="" />
      </rdf:RDF>
    </x:xmpmeta>
<?xpacket end="w"?>  </metadata>
  <defs
     id="defs4">
    <inkscape:path-effect
       effect="powerclip"
       id="path-effect118"
       is_visible="true"
       lpeversion="1"
       inverse="true"
       flatten="false"
       hide_clip="false"
       message="Use fill-rule evenodd on &lt;b&gt;fill and stroke&lt;/b&gt; dialog if no flatten result after convert clip to paths." />
    <clipPath
       clipPathUnits="userSpaceOnUse"
       id="clipPath114">
      <path
         style="display:none;opacity:0.85;fill:#ffffff;fill-rule:evenodd;stroke-width:1.89295"
         d="M 11.427092,10.990883 15.527164,6.9660686 A 0.95528246,0.937748 0 0 0 14.176395,5.6400928 L 10.076322,9.6649072 5.9762495,5.6400928 A 0.95528246,0.937748 0 0 0 4.6254801,6.9660686 l 4.1000727,4.0248144 -4.1000727,4.024815 a 0.95528246,0.937748 0 1 0 1.3507694,1.325975 l 4.1000725,-4.024814 4.100073,4.024814 a 0.95528246,0.937748 0 0 0 1.350769,-1.325975 z"
         id="path116" />
      <path
         id="lpe_path-effect118"
         style="opacity:0.85;fill:#ffffff;fill-rule:evenodd;stroke-width:1.89295"
         class="powerclip"
         d="M -5,-4 H 25 V 26 H -5 Z M 11.427092,10.990883 15.527164,6.9660686 A 0.95528246,0.937748 0 0 0 14.176395,5.6400928 L 10.076322,9.6649072 5.9762495,5.6400928 A 0.95528246,0.937748 0 0 0 4.6254801,6.9660686 l 4.1000727,4.0248144 -4.1000727,4.024815 a 0.95528246,0.937748 0 1 0 1.3507694,1.325975 l 4.1000725,-4.024814 4.100073,4.024814 a 0.95528246,0.937748 0 0 0 1.350769,-1.325975 z" />
    </clipPath>
  </defs>
  <path
     style="fill:#ff0000"
     id="circle6"
     clip-path="url(#clipPath114)"
     inkscape:path-effect="#path-effect118"
     sodipodi:type="arc"
     sodipodi:cx="10"
     sodipodi:cy="11"
     sodipodi:rx="10"
     sodipodi:ry="10"
     d="M 20,11 A 10,10 0 0 1 10,21 10,10 0 0 1 0,11 10,10 0 0 1 10,1 10,10 0 0 1 20,11 Z" />
</svg>
