<?xml version="1.0" encoding="UTF-8" standalone="no"?>
<svg
   width="64"
   height="64"
   version="1.1"
   id="svg73"
   sodipodi:docname="application-vnd.debian.binary-package.svg"
   inkscape:version="1.1 (1:1.1+202105261517+ce6663b3b7)"
   xmlns:inkscape="http://www.inkscape.org/namespaces/inkscape"
   xmlns:sodipodi="http://sodipodi.sourceforge.net/DTD/sodipodi-0.dtd"
   xmlns="http://www.w3.org/2000/svg"
   xmlns:svg="http://www.w3.org/2000/svg"
   xmlns:rdf="http://www.w3.org/1999/02/22-rdf-syntax-ns#"
   xmlns:cc="http://creativecommons.org/ns#"
   xmlns:dc="http://purl.org/dc/elements/1.1/">
  <metadata
     id="metadata77">
    <rdf:RDF>
      <cc:Work
         rdf:about="">
        <dc:format>image/svg+xml</dc:format>
        <dc:type
           rdf:resource="http://purl.org/dc/dcmitype/StillImage" />
        <dc:title />
      </cc:Work>
    </rdf:RDF>
  </metadata>
  <sodipodi:namedview
     pagecolor="#ffffff"
     bordercolor="#666666"
     borderopacity="1"
     objecttolerance="10"
     gridtolerance="10"
     guidetolerance="10"
     inkscape:pageopacity="0"
     inkscape:pageshadow="2"
     inkscape:window-width="1567"
     inkscape:window-height="738"
     id="namedview75"
     showgrid="false"
     inkscape:zoom="17.788155"
     inkscape:cx="21.924702"
     inkscape:cy="39.492572"
     inkscape:window-x="247"
     inkscape:window-y="146"
     inkscape:window-maximized="0"
     inkscape:current-layer="svg73"
     inkscape:document-rotation="0"
     inkscape:pagecheckerboard="0" />
  <defs
     id="defs29">
    <inkscape:path-effect
       effect="powerclip"
       id="path-effect373"
       is_visible="true"
       lpeversion="1"
       inverse="true"
       flatten="false"
       hide_clip="false"
       message="Use fill-rule evenodd on &lt;b&gt;fill and stroke&lt;/b&gt; dialog if no flatten result after convert clip to paths." />
    <linearGradient
       id="b"
       x1="399.57"
       x2="399.57"
       y1="545.8"
       y2="517.8"
       gradientTransform="matrix(2.1429,0,0,2.1429,-826.36,-1107.5)"
       gradientUnits="userSpaceOnUse">
      <stop
         stop-color="#3889e9"
         offset="0"
         id="stop2" />
      <stop
         stop-color="#5ea5fb"
         offset="1"
         id="stop4" />
    </linearGradient>
    <linearGradient
       id="linearGradient862"
       x1="7.9373"
       x2="7.9373"
       y1="15.081"
       y2="1.852"
       gradientTransform="matrix(3.3743 0 0 3.3743 3.4312 3.4278)"
       gradientUnits="userSpaceOnUse">
      <stop
         stop-color="#f1efeb"
         offset="0"
         id="stop7" />
      <stop
         stop-color="#fff"
         offset="1"
         id="stop9" />
    </linearGradient>
    <linearGradient
       id="linearGradient910"
       x1="7.9373"
       x2="7.9373"
       y1="15.081"
       y2="1.852"
       gradientTransform="scale(3.7796)"
       gradientUnits="userSpaceOnUse">
      <stop
         stop-color="#613583"
         offset="0"
         id="stop12" />
      <stop
         stop-color="#a663c0"
         offset="1"
         id="stop14" />
    </linearGradient>
    <linearGradient
       id="linearGradient932"
       x1="379.24"
       x2="374.24"
       y1="546.85"
       y2="546.85"
       gradientTransform="matrix(2.1429 0 0 2.1429 -769.68 -1134.5)"
       gradientUnits="userSpaceOnUse">
      <stop
         stop-color="#f6f5f4"
         offset="0"
         id="stop17" />
      <stop
         stop-color="#fff"
         offset=".6"
         id="stop19" />
      <stop
         stop-color="#dddbd8"
         offset="1"
         id="stop21" />
    </linearGradient>
    <linearGradient
       id="linearGradient1146"
       x1="18"
       x2="18"
       y1="52"
       y2="12"
       gradientUnits="userSpaceOnUse">
      <stop
         stop-color="#5e337f"
         offset="0"
         id="stop24" />
      <stop
         stop-color="#ab60bf"
         offset="1"
         id="stop26" />
    </linearGradient>
    <clipPath
       clipPathUnits="userSpaceOnUse"
       id="clipPath369">
      <path
         id="path371"
         style="display:none;opacity:0.2;fill:#e6e6e6"
         d="m 32.1875,6.0332031 v 1 h 1 v -1 z m 0,1 h -1 v 1 h 1 z m 0,1 v 1 h 1 v -1 z m 0,1 h -1 v 0.9999999 h 1 z m 0,0.9999999 v 1 h 1 v -1 z m 0,1 h -1 v 1 h 1 z m 0,1 v 1 h 1 v -1 z m 0,1 h -1 v 1 h 1 z m 0,1 v 1 h 1 v -1 z m 0,1 h -1 v 1 h 1 z m 0,1 v 1 h 1 v -1 z m 0,1 h -1 v 1 h 1 z m 0,1 v 1 h 1 v -1 z m 0,1 h -1 v 1 h 1 c 0.04125,-0.367529 0,-1 0,-1 z m 0,1 v 1 h 1 v -1 z m 0,1 h -1 v 1 h 1 z m 0,1 v 1 h 1 v -1 z m 0,1 h -1 v 1 h 1 z m 0,1 v 1 h 1 v -1 z m 0,1 h -1 v 1 h 1 z m 0,1 v 1 h 1 v -1 z m 0,1 h -1 c -0.0049,0.04347 -0.0074,0.08816 -0.0098,0.128906 -1.721073,0.449126 -2.990234,2.018304 -2.990234,3.871094 v 8 c 0,2.2 1.79,4 4,4 2.21,0 4,-1.8 4,-4 v -8 c 0,-2.2 -1.789334,-4 -4,-4 z m 0,2 c 1.104,0 2,0.8 2,2 0,0.999998 -0.896,2 -2,2 -1.104,0 -2,-1.000002 -2,-2 0,-1.2 0.896,-2 2,-2 z m 0,6 c 1.10457,0 2,0.89543 2,2 v 2 c 0,1.10457 -0.89543,2 -2,2 -1.10457,0 -2,-0.89543 -2,-2 v -2 c 0,-1.10457 0.89543,-2 2,-2 z M 17.087891,45.765625 v 6.880859 h 2.789062 c 1.539636,0 2.695026,-0.07519 3.464844,-0.222656 0.769818,-0.150541 1.428646,-0.403382 1.978515,-0.759766 0.481138,-0.310298 0.838571,-0.668679 1.072266,-1.074218 0.233695,-0.408611 0.351563,-0.871413 0.351563,-1.390625 0,-0.513069 -0.117868,-0.973367 -0.351563,-1.378907 -0.233695,-0.405538 -0.591128,-0.763919 -1.072266,-1.074218 -0.545287,-0.356382 -1.199607,-0.608391 -1.964843,-0.75586 -0.760653,-0.150541 -1.92055,-0.224609 -3.478516,-0.224609 z m 11.683593,0 v 6.880859 h 7.292969 v -1.341796 h -4.646484 v -1.576172 h 4.226562 v -1.341797 h -4.226562 v -1.28125 h 4.496093 v -1.339844 z m 9.615235,0 v 6.880859 h 4.392578 c 1.36551,0 2.383725,-0.164574 3.052734,-0.490234 0.669009,-0.32566 1.001953,-0.818813 1.001953,-1.482422 0,-0.433189 -0.155203,-0.799646 -0.466796,-1.097656 -0.311594,-0.29801 -0.752114,-0.50268 -1.320313,-0.613281 0.444478,-0.113674 0.783883,-0.28604 1.017578,-0.519532 0.233695,-0.236564 0.351563,-0.522544 0.351563,-0.857421 0,-0.63596 -0.321376,-1.097926 -0.962891,-1.386719 -0.636932,-0.288793 -1.66867,-0.433594 -3.09375,-0.433594 z m 2.646484,1.207031 h 1.464844 c 0.416985,0 0.733852,0.06349 0.949219,0.189453 0.215366,0.122891 0.322265,0.302498 0.322265,0.539063 0,0.239637 -0.106899,0.420078 -0.322265,0.542969 -0.215367,0.12289 -0.532234,0.185546 -0.949219,0.185547 h -1.464844 z m -21.300781,0.132813 h 0.949219 c 1.085993,0 1.91227,0.178773 2.480468,0.535156 0.5682,0.356383 0.853516,0.876551 0.853516,1.558594 0,0.685115 -0.286593,1.206951 -0.859375,1.566406 -0.568199,0.359455 -1.393198,0.539063 -2.474609,0.539063 h -0.949219 z m 21.300781,2.53125 h 1.554688 c 0.536123,0 0.9354,0.07407 1.201171,0.224609 0.265772,0.147469 0.400391,0.371913 0.400391,0.669922 0,0.304154 -0.135897,0.5311 -0.40625,0.681641 -0.265771,0.150541 -0.663771,0.224609 -1.195312,0.224609 h -1.554688 z" />
      <path
         id="lpe_path-effect373"
         style="opacity:0.2;fill:#e6e6e6"
         class="powerclip"
         d="M 4.6784649,1.9709001 H 58.021723 V 61.968901 H 4.6784649 Z M 32.1875,6.0332031 v 1 h 1 v -1 z m 0,1 h -1 v 1 h 1 z m 0,1 v 1 h 1 v -1 z m 0,1 h -1 v 0.9999999 h 1 z m 0,0.9999999 v 1 h 1 v -1 z m 0,1 h -1 v 1 h 1 z m 0,1 v 1 h 1 v -1 z m 0,1 h -1 v 1 h 1 z m 0,1 v 1 h 1 v -1 z m 0,1 h -1 v 1 h 1 z m 0,1 v 1 h 1 v -1 z m 0,1 h -1 v 1 h 1 z m 0,1 v 1 h 1 v -1 z m 0,1 h -1 v 1 h 1 c 0.04125,-0.367529 0,-1 0,-1 z m 0,1 v 1 h 1 v -1 z m 0,1 h -1 v 1 h 1 z m 0,1 v 1 h 1 v -1 z m 0,1 h -1 v 1 h 1 z m 0,1 v 1 h 1 v -1 z m 0,1 h -1 v 1 h 1 z m 0,1 v 1 h 1 v -1 z m 0,1 h -1 c -0.0049,0.04347 -0.0074,0.08816 -0.0098,0.128906 -1.721073,0.449126 -2.990234,2.018304 -2.990234,3.871094 v 8 c 0,2.2 1.79,4 4,4 2.21,0 4,-1.8 4,-4 v -8 c 0,-2.2 -1.789334,-4 -4,-4 z m 0,2 c -1.104,0 -2,0.8 -2,2 0,0.999998 0.896,2 2,2 1.104,0 2,-1.000002 2,-2 0,-1.2 -0.896,-2 -2,-2 z m 0,6 c -1.10457,0 -2,0.89543 -2,2 v 2 c 0,1.10457 0.89543,2 2,2 1.10457,0 2,-0.89543 2,-2 v -2 c 0,-1.10457 -0.89543,-2 -2,-2 z M 17.087891,45.765625 v 6.880859 h 2.789062 c 1.539636,0 2.695026,-0.07519 3.464844,-0.222656 0.769818,-0.150541 1.428646,-0.403382 1.978515,-0.759766 0.481138,-0.310298 0.838571,-0.668679 1.072266,-1.074218 0.233695,-0.408611 0.351563,-0.871413 0.351563,-1.390625 0,-0.513069 -0.117868,-0.973367 -0.351563,-1.378907 -0.233695,-0.405538 -0.591128,-0.763919 -1.072266,-1.074218 -0.545287,-0.356382 -1.199607,-0.608391 -1.964843,-0.75586 -0.760653,-0.150541 -1.92055,-0.224609 -3.478516,-0.224609 z m 11.683593,0 v 6.880859 h 7.292969 v -1.341796 h -4.646484 v -1.576172 h 4.226562 v -1.341797 h -4.226562 v -1.28125 h 4.496093 v -1.339844 z m 9.615235,0 v 6.880859 h 4.392578 c 1.36551,0 2.383725,-0.164574 3.052734,-0.490234 0.669009,-0.32566 1.001953,-0.818813 1.001953,-1.482422 0,-0.433189 -0.155203,-0.799646 -0.466796,-1.097656 -0.311594,-0.29801 -0.752114,-0.50268 -1.320313,-0.613281 0.444478,-0.113674 0.783883,-0.28604 1.017578,-0.519532 0.233695,-0.236564 0.351563,-0.522544 0.351563,-0.857421 0,-0.63596 -0.321376,-1.097926 -0.962891,-1.386719 -0.636932,-0.288793 -1.66867,-0.433594 -3.09375,-0.433594 z m 2.646484,1.207031 v 1.457032 h 1.464844 c 0.416985,-10e-7 0.733852,-0.06266 0.949219,-0.185547 0.215366,-0.122891 0.322265,-0.303332 0.322265,-0.542969 0,-0.236565 -0.106899,-0.416172 -0.322265,-0.539063 -0.215367,-0.125963 -0.532234,-0.189453 -0.949219,-0.189453 z m -21.300781,0.132813 v 4.199219 h 0.949219 c 1.081411,0 1.90641,-0.179608 2.474609,-0.539063 0.572782,-0.359455 0.859375,-0.881291 0.859375,-1.566406 0,-0.682043 -0.285316,-1.202211 -0.853516,-1.558594 -0.568198,-0.356383 -1.394475,-0.535156 -2.480468,-0.535156 z m 21.300781,2.53125 V 51.4375 h 1.554688 c 0.531541,0 0.929541,-0.07407 1.195312,-0.224609 0.270353,-0.150541 0.40625,-0.377487 0.40625,-0.681641 0,-0.298009 -0.134619,-0.522453 -0.400391,-0.669922 -0.265771,-0.150539 -0.665048,-0.224609 -1.201171,-0.224609 z" />
    </clipPath>
  </defs>
  <path
     x="9.6784649"
     y="6.9709001"
     width="43.343258"
     height="49.998001"
     rx="8.6689987"
     ry="10"
     fill="url(#linearGradient862)"
     stroke-width="3.14173"
     id="rect35"
     style="fill:#2c2c2c;fill-opacity:1"
     clip-path="url(#clipPath369)"
     inkscape:path-effect="#path-effect373"
     d="m 18.347464,6.9709001 h 26.00526 c 4.802625,0 8.668999,4.4599999 8.668999,9.9999999 v 29.998001 c 0,5.54 -3.866374,10 -8.668999,10 h -26.00526 c -4.802626,0 -8.6689991,-4.46 -8.6689991,-10 V 16.9709 c 0,-5.54 3.8663731,-9.9999999 8.6689991,-9.9999999 z"
     sodipodi:type="rect" />
  <ellipse
     cx="31.366306"
     cy="32.043999"
     fill-opacity="0"
     stroke-width="1.46319"
     id="circle39"
     rx="26.007862"
     ry="30.000999" />
  <circle
     cx="32.02"
     cy="32.044"
     r="0"
     fill="url(#b)"
     stroke-width="1.5715"
     id="circle41" />
  <g
     aria-label="DEB"
     transform="matrix(1.2212657,0,0,0.81882264,-1.9965027,-0.01534444)"
     id="text93"
     style="font-weight:bold;font-size:11.5263px;line-height:1.25;font-family:sans-serif;-inkscape-font-specification:'sans-serif Bold';fill:#e6e6e6;stroke-width:0.288159" />
</svg>
