<?xml version="1.0" encoding="UTF-8" standalone="no"?>
<svg
   width="64"
   height="64"
   version="1.1"
   id="svg125"
   sodipodi:docname="application-x-fusioncomp.svg"
   inkscape:version="1.1 (1:1.1+rc+202105240936+c4e8f9ed74)"
   xmlns:inkscape="http://www.inkscape.org/namespaces/inkscape"
   xmlns:sodipodi="http://sodipodi.sourceforge.net/DTD/sodipodi-0.dtd"
   xmlns:xlink="http://www.w3.org/1999/xlink"
   xmlns="http://www.w3.org/2000/svg"
   xmlns:svg="http://www.w3.org/2000/svg"
   xmlns:rdf="http://www.w3.org/1999/02/22-rdf-syntax-ns#"
   xmlns:cc="http://creativecommons.org/ns#"
   xmlns:dc="http://purl.org/dc/elements/1.1/">
  <metadata
     id="metadata129">
    <rdf:RDF>
      <cc:Work
         rdf:about="">
        <dc:format>image/svg+xml</dc:format>
        <dc:type
           rdf:resource="http://purl.org/dc/dcmitype/StillImage" />
        <dc:title />
      </cc:Work>
    </rdf:RDF>
  </metadata>
  <sodipodi:namedview
     pagecolor="#ffffff"
     bordercolor="#666666"
     borderopacity="1"
     objecttolerance="10"
     gridtolerance="10"
     guidetolerance="10"
     inkscape:pageopacity="0"
     inkscape:pageshadow="2"
     inkscape:window-width="1920"
     inkscape:window-height="996"
     id="namedview127"
     showgrid="false"
     inkscape:zoom="12.578125"
     inkscape:cx="32"
     inkscape:cy="35.180124"
     inkscape:window-x="0"
     inkscape:window-y="0"
     inkscape:window-maximized="1"
     inkscape:current-layer="g121"
     inkscape:document-rotation="0"
     inkscape:pagecheckerboard="0" />
  <defs
     id="defs47">
    <inkscape:path-effect
       effect="powerclip"
       id="path-effect53"
       is_visible="true"
       lpeversion="1"
       inverse="true"
       flatten="false"
       hide_clip="false"
       message="Use fill-rule evenodd on &lt;b&gt;fill and stroke&lt;/b&gt; dialog if no flatten result after convert clip to paths." />
    <linearGradient
       id="linearGradient6721-3"
       x1="7.9373"
       x2="7.9373"
       y1="15.346"
       y2="16.933"
       gradientUnits="userSpaceOnUse"
       xlink:href="#linearGradient6261" />
    <linearGradient
       id="linearGradient6261">
      <stop
         offset="0"
         id="stop3" />
      <stop
         stop-opacity="0"
         offset="1"
         id="stop5" />
    </linearGradient>
    <radialGradient
       id="radialGradient6723-5"
       cx="35"
       cy="4"
       r="3.7275"
       gradientTransform="matrix(1.696 0 0 1.0731 -24.361 -.29238)"
       gradientUnits="userSpaceOnUse"
       xlink:href="#linearGradient6261" />
    <linearGradient
       id="linearGradient6725-3"
       x1="43"
       x2="46.748"
       y1="12"
       y2="8.2517"
       gradientUnits="userSpaceOnUse"
       xlink:href="#linearGradient6261" />
    <radialGradient
       id="radialGradient6727-5"
       cx="52"
       cy="22"
       r="5.2061"
       gradientTransform="matrix(.96042 0 0 1.3331 2.0581 -7.3283)"
       gradientUnits="userSpaceOnUse"
       xlink:href="#linearGradient6261" />
    <linearGradient
       id="linearGradient6729-6"
       x1="5.8207"
       x2="5.8207"
       y1="1.0583"
       gradientUnits="userSpaceOnUse"
       xlink:href="#linearGradient6261" />
    <radialGradient
       id="radialGradient6731-2"
       cx="3.1749"
       cy="1.3229"
       r=".79373"
       gradientTransform="matrix(-2.1078e-8 -1.3333 1.6667 -2.6348e-8 .97012 5.2916)"
       gradientUnits="userSpaceOnUse"
       xlink:href="#linearGradient6261" />
    <linearGradient
       id="linearGradient6733-9"
       x1="13.758"
       x2="15.081"
       y1="10.583"
       y2="10.583"
       gradientUnits="userSpaceOnUse"
       xlink:href="#linearGradient6261" />
    <linearGradient
       id="linearGradient6735-1"
       x1="3.1749"
       x2="1.852"
       y1="8.4665"
       y2="8.4665"
       gradientUnits="userSpaceOnUse"
       xlink:href="#linearGradient6261" />
    <radialGradient
       id="radialGradient6737-2"
       cx="13.758"
       cy="15.346"
       r=".79373"
       gradientTransform="matrix(5.1718e-7 2 -1.6667 4.3098e-7 39.334 -12.171)"
       gradientUnits="userSpaceOnUse"
       xlink:href="#linearGradient6261" />
    <radialGradient
       id="radialGradient6739-7"
       cx="3.1749"
       cy="15.346"
       r=".79373"
       gradientTransform="matrix(-1.6667 -1.37e-6 1.644e-6 -2 8.4665 46.037)"
       gradientUnits="userSpaceOnUse"
       xlink:href="#linearGradient6261" />
    <linearGradient
       id="linearGradient6741-0"
       x1="7.9373"
       x2="7.9373"
       y1="15.346"
       y2="16.668"
       gradientUnits="userSpaceOnUse"
       xlink:href="#linearGradient6261" />
    <radialGradient
       id="radialGradient6743-9"
       cx="35"
       cy="4"
       r="3.7275"
       gradientTransform="matrix(1.6115 -1.9122e-7 9.5496e-8 .80482 -21.403 .78072)"
       gradientUnits="userSpaceOnUse"
       xlink:href="#linearGradient6261" />
    <linearGradient
       id="linearGradient6745-3"
       x1="43"
       x2="46.004"
       y1="12"
       y2="8.9965"
       gradientUnits="userSpaceOnUse"
       xlink:href="#linearGradient6261" />
    <radialGradient
       id="radialGradient6747-6"
       cx="52"
       cy="22"
       r="5.2061"
       gradientTransform="matrix(.76834 -9.6042e-8 1.534e-7 1.2272 12.047 -4.9986)"
       gradientUnits="userSpaceOnUse"
       xlink:href="#linearGradient6261" />
    <linearGradient
       id="linearGradient6749-0"
       x1="5.8207"
       x2="5.8207"
       y1="1.0583"
       y2=".26458"
       gradientUnits="userSpaceOnUse"
       xlink:href="#linearGradient6261" />
    <radialGradient
       id="radialGradient6751-6"
       cx="3.1749"
       cy="1.3229"
       r=".79373"
       gradientTransform="matrix(-7.442e-8 -1 1.3333 -9.9226e-8 1.4111 4.2333)"
       gradientUnits="userSpaceOnUse"
       xlink:href="#linearGradient6261" />
    <linearGradient
       id="linearGradient6753-2"
       x1="13.758"
       x2="14.816"
       y1="10.583"
       y2="10.583"
       gradientUnits="userSpaceOnUse"
       xlink:href="#linearGradient6261" />
    <linearGradient
       id="linearGradient6755-6"
       x1="3.1749"
       x2="2.1166"
       y1="8.4665"
       y2="8.4665"
       gradientUnits="userSpaceOnUse"
       xlink:href="#linearGradient6261" />
    <radialGradient
       id="radialGradient6757-1"
       cx="13.758"
       cy="15.346"
       r=".79373"
       gradientTransform="matrix(0 1.6667 -1.3333 0 34.219 -7.5846)"
       gradientUnits="userSpaceOnUse"
       xlink:href="#linearGradient6261" />
    <radialGradient
       id="radialGradient6759-8"
       cx="3.1749"
       cy="15.346"
       r=".79373"
       gradientTransform="matrix(-1.3333 0 0 -1.6667 7.4082 40.921)"
       gradientUnits="userSpaceOnUse"
       xlink:href="#linearGradient6261" />
    <linearGradient
       id="linearGradient6761-7"
       x1="21.039"
       x2="21.039"
       y1="2"
       y2="62"
       gradientTransform="matrix(.26458 0 0 .26458 0 -.26458)"
       gradientUnits="userSpaceOnUse">
      <stop
         stop-color="#ff5b59"
         offset="0"
         id="stop27" />
      <stop
         stop-color="#ff983d"
         offset="1"
         id="stop29" />
    </linearGradient>
    <radialGradient
       id="radialGradient6763-2"
       cx="40"
       cy="12"
       r="8"
       gradientTransform="matrix(1.5 0 0 -2 -14 40)"
       gradientUnits="userSpaceOnUse"
       xlink:href="#linearGradient6261" />
    <radialGradient
       id="radialGradient6765-3"
       cx="10.583"
       cy="4.2333"
       r="2.1166"
       gradientTransform="matrix(-2 3.1236e-7 -3.1236e-7 -2 31.749 12.7)"
       gradientUnits="userSpaceOnUse"
       xlink:href="#linearGradient6261" />
    <radialGradient
       id="radialGradient6767-7"
       cx="40"
       cy="12"
       r="8"
       gradientTransform="matrix(0 -1.5 2 0 16 70)"
       gradientUnits="userSpaceOnUse"
       xlink:href="#linearGradient6261" />
    <linearGradient
       id="linearGradient7282"
       x1="10.583"
       x2="6.3499"
       y1="3.1749"
       y2="3.1749"
       gradientTransform="matrix(1 0 0 .66667 0 1.4111)"
       gradientUnits="userSpaceOnUse"
       xlink:href="#linearGradient6261" />
    <linearGradient
       id="linearGradient7284"
       x1="10.583"
       x2="8.7311"
       y1="3.0426"
       y2="3.0426"
       gradientTransform="matrix(1 0 0 .66667 0 1.4111)"
       gradientUnits="userSpaceOnUse"
       xlink:href="#linearGradient6261" />
    <radialGradient
       id="radialGradient6773-5"
       cx="10.583"
       cy="4.2333"
       r="2.1166"
       gradientTransform="matrix(-.875 -1.6564e-7 1.6631e-7 -.87849 19.843 7.9521)"
       gradientUnits="userSpaceOnUse"
       xlink:href="#linearGradient6261" />
    <radialGradient
       id="radialGradient6775-9"
       cx="40"
       cy="12"
       r="8"
       gradientTransform="matrix(0 -1.3078 .87983 0 29.442 62.311)"
       gradientUnits="userSpaceOnUse"
       xlink:href="#linearGradient6261" />
    <linearGradient
       id="linearGradient7286"
       x1="10.583"
       x2="6.3499"
       y1="3.1749"
       y2="3.1749"
       gradientTransform="matrix(1 0 0 .66667 -14.816 9.3484)"
       gradientUnits="userSpaceOnUse"
       xlink:href="#linearGradient6261" />
    <linearGradient
       id="linearGradient7288"
       x1="10.583"
       x2="8.7237"
       y1="3.0426"
       y2="3.0426"
       gradientTransform="matrix(1 0 0 .66667 -14.816 9.3484)"
       gradientUnits="userSpaceOnUse"
       xlink:href="#linearGradient6261" />
    <radialGradient
       id="radialGradient6781-2"
       cx="40"
       cy="12"
       r="8"
       gradientTransform="matrix(1.4336 0 0 -.87849 -11.344 26.542)"
       gradientUnits="userSpaceOnUse"
       xlink:href="#linearGradient6261" />
    <linearGradient
       id="linearGradient7290"
       x1="40"
       x2="46"
       y1="17"
       y2="11"
       gradientTransform="matrix(.26458 0 0 .26458 -1.6667e-7 -.26458)"
       gradientUnits="userSpaceOnUse">
      <stop
         stop-color="#fefefe"
         offset="0"
         id="stop42" />
      <stop
         stop-color="#e9e9e9"
         offset="1"
         id="stop44" />
    </linearGradient>
    <clipPath
       clipPathUnits="userSpaceOnUse"
       id="clipPath49">
      <path
         style="display:none;fill:#e6e6e6;stroke-width:0.314978"
         d="m 8.5425262,11.815037 c -0.051855,0.0032 -0.1035776,0.01181 -0.1537954,0.02503 -0.2008826,0.05297 -0.3778622,0.187094 -0.4818473,0.364338 -0.1039845,0.177243 -0.1332043,0.395501 -0.079378,0.593191 0.053826,0.19769 0.1901161,0.371856 0.370223,0.474187 0.1801077,0.102333 0.4018917,0.131087 0.6027754,0.07812 0.2008834,-0.05297 0.377862,-0.187095 0.4818476,-0.364337 C 9.3863359,12.80832 9.4155564,12.590062 9.3617295,12.392372 9.307903,12.19468 9.1716129,12.020514 8.991506,11.918182 8.8564253,11.84143 8.6980985,11.805575 8.5425257,11.815046 Z M 10.775647,8.689691 C 10.548078,8.695831 10.321807,8.767405 10.137523,8.8990168 9.9238208,9.0516399 9.772151,9.2713187 9.605444,9.4726799 9.5220875,9.5733612 9.4335972,9.6706337 9.3313419,9.7527982 9.2290843,9.8349632 9.1122881,9.9022942 8.9846852,9.9358818 8.8570822,9.9694708 8.7218915,9.968412 8.5915163,9.9474783 8.4611414,9.9265475 8.3348021,9.8857085 8.2113718,9.8394576 7.9645113,9.7469566 7.721897,9.6310991 7.4591433,9.6038893 7.096611,9.566347 6.7192176,9.7142624 6.4824246,9.9865351 6.2456318,10.258808 6.1561427,10.6482 6.2504929,10.994105 c 0.09435,0.345907 0.36951,0.63848 0.7131593,0.757968 0.3436504,0.119487 0.745739,0.06229 1.0405932,-0.148297 0.213702,-0.152623 0.3653731,-0.372303 0.5320788,-0.573664 0.083356,-0.100678 0.1718481,-0.197954 0.274102,-0.280119 0.1022574,-0.08216 0.2190539,-0.149495 0.3466568,-0.183082 0.127604,-0.03359 0.2627937,-0.03253 0.3931689,-0.0116 0.1303749,0.02093 0.2567142,0.06177 0.3801447,0.10802 0.2468604,0.0925 0.4894754,0.208359 0.7522284,0.235569 0.362533,0.03754 0.739926,-0.110376 0.97672,-0.382646 0.236793,-0.272271 0.326282,-0.6616622 0.231931,-1.007569 -0.09435,-0.3459059 -0.369509,-0.6384784 -0.71316,-0.7579659 -0.128869,-0.044808 -0.265929,-0.06471 -0.402469,-0.061028 z M 10.708667,5.5651627 C 10.405244,5.5731424 10.103549,5.6662515 9.8578368,5.8373473 9.5729043,6.0357575 9.371297,6.3219505 9.1490221,6.5837197 9.0378842,6.7146042 8.9194796,6.8406318 8.7831403,6.947446 8.646801,7.0542605 8.4912737,7.1411805 8.3211358,7.184845 8.1509988,7.2285094 7.9709522,7.2279236 7.7971187,7.2007117 7.6232853,7.1734993 7.454419,7.1204731 7.2898455,7.0603471 6.9606982,6.9400955 6.6367991,6.7893592 6.286461,6.7539869 5.803085,6.705182 5.2998931,6.8974103 4.9841692,7.251365 4.6684456,7.6053193 4.54892,8.1113462 4.6747201,8.5610252 4.8005204,9.0107043 5.1684329,9.3912938 5.6266332,9.5466274 6.0848331,9.7019613 6.6207453,9.6275331 7.0138835,9.3537787 7.2988202,9.1553688 7.5004273,8.8691758 7.7227021,8.6074063 7.8338398,8.4765219 7.9522449,8.3504942 8.0885842,8.2436798 8.224923,8.1368655 8.3804503,8.0499452 8.5505871,8.0062811 8.7207249,7.9626161 8.9007718,7.9632019 9.074605,7.9904143 c 0.173834,0.027212 0.3427,0.080239 0.5072732,0.1403646 0.3291476,0.1202514 0.6530468,0.270988 1.0033858,0.30636 0.483375,0.048806 0.986567,-0.1434232 1.302291,-0.4973781 0.315724,-0.3539541 0.435249,-0.8599809 0.30945,-1.3096603 -0.125801,-0.4496788 -0.493714,-0.830268 -0.951913,-0.9856016 -0.171825,-0.05825 -0.354366,-0.084123 -0.536421,-0.079336 z"
         id="path51" />
      <path
         id="lpe_path-effect53"
         style="fill:#e6e6e6;stroke-width:0.314978"
         class="powerclip"
         d="M -1.7916522,-3.7813297 H 18.718883 V 20.283949 H -1.7916522 Z M 8.5425262,11.815037 c -0.051855,0.0032 -0.1035776,0.01181 -0.1537954,0.02503 -0.2008826,0.05297 -0.3778622,0.187094 -0.4818473,0.364338 -0.1039845,0.177243 -0.1332043,0.395501 -0.079378,0.593191 0.053826,0.19769 0.1901161,0.371856 0.370223,0.474187 0.1801077,0.102333 0.4018917,0.131087 0.6027754,0.07812 0.2008834,-0.05297 0.377862,-0.187095 0.4818476,-0.364337 C 9.3863359,12.80832 9.4155564,12.590062 9.3617295,12.392372 9.307903,12.19468 9.1716129,12.020514 8.991506,11.918182 8.8564253,11.84143 8.6980985,11.805575 8.5425257,11.815046 Z M 10.775647,8.689691 C 10.548078,8.695831 10.321807,8.767405 10.137523,8.8990168 9.9238208,9.0516399 9.772151,9.2713187 9.605444,9.4726799 9.5220875,9.5733612 9.4335972,9.6706337 9.3313419,9.7527982 9.2290843,9.8349632 9.1122881,9.9022942 8.9846852,9.9358818 8.8570822,9.9694708 8.7218915,9.968412 8.5915163,9.9474783 8.4611414,9.9265475 8.3348021,9.8857085 8.2113718,9.8394576 7.9645113,9.7469566 7.721897,9.6310991 7.4591433,9.6038893 7.096611,9.566347 6.7192176,9.7142624 6.4824246,9.9865351 6.2456318,10.258808 6.1561427,10.6482 6.2504929,10.994105 c 0.09435,0.345907 0.36951,0.63848 0.7131593,0.757968 0.3436504,0.119487 0.745739,0.06229 1.0405932,-0.148297 0.213702,-0.152623 0.3653731,-0.372303 0.5320788,-0.573664 0.083356,-0.100678 0.1718481,-0.197954 0.274102,-0.280119 0.1022574,-0.08216 0.2190539,-0.149495 0.3466568,-0.183082 0.127604,-0.03359 0.2627937,-0.03253 0.3931689,-0.0116 0.1303749,0.02093 0.2567142,0.06177 0.3801447,0.10802 0.2468604,0.0925 0.4894754,0.208359 0.7522284,0.235569 0.362533,0.03754 0.739926,-0.110376 0.97672,-0.382646 0.236793,-0.272271 0.326282,-0.6616622 0.231931,-1.007569 -0.09435,-0.3459059 -0.369509,-0.6384784 -0.71316,-0.7579659 -0.128869,-0.044808 -0.265929,-0.06471 -0.402469,-0.061028 z M 10.708667,5.5651627 C 10.405244,5.5731424 10.103549,5.6662515 9.8578368,5.8373473 9.5729043,6.0357575 9.371297,6.3219505 9.1490221,6.5837197 9.0378842,6.7146042 8.9194796,6.8406318 8.7831403,6.947446 8.646801,7.0542605 8.4912737,7.1411805 8.3211358,7.184845 8.1509988,7.2285094 7.9709522,7.2279236 7.7971187,7.2007117 7.6232853,7.1734993 7.454419,7.1204731 7.2898455,7.0603471 6.9606982,6.9400955 6.6367991,6.7893592 6.286461,6.7539869 5.803085,6.705182 5.2998931,6.8974103 4.9841692,7.251365 4.6684456,7.6053193 4.54892,8.1113462 4.6747201,8.5610252 4.8005204,9.0107043 5.1684329,9.3912938 5.6266332,9.5466274 6.0848331,9.7019613 6.6207453,9.6275331 7.0138835,9.3537787 7.2988202,9.1553688 7.5004273,8.8691758 7.7227021,8.6074063 7.8338398,8.4765219 7.9522449,8.3504942 8.0885842,8.2436798 8.224923,8.1368655 8.3804503,8.0499452 8.5505871,8.0062811 8.7207249,7.9626161 8.9007718,7.9632019 9.074605,7.9904143 c 0.173834,0.027212 0.3427,0.080239 0.5072732,0.1403646 0.3291476,0.1202514 0.6530468,0.270988 1.0033858,0.30636 0.483375,0.048806 0.986567,-0.1434232 1.302291,-0.4973781 0.315724,-0.3539541 0.435249,-0.8599809 0.30945,-1.3096603 -0.125801,-0.4496788 -0.493714,-0.830268 -0.951913,-0.9856016 -0.171825,-0.05825 -0.354366,-0.084123 -0.536421,-0.079336 z" />
    </clipPath>
  </defs>
  <g
     transform="matrix(3.7796 0 0 3.7796 -.021092 1.0245)"
     id="g121">
    <rect
       x="8.7209"
       y="-.54211"
       width="6.6358"
       height="6.6348"
       fill="none"
       id="rect97" />
    <path
       d="m 3.6653411,1.219379 c -0.2531703,0 -0.4569933,0.2091037 -0.4569933,0.4688332 V 14.815114 c 0,0.259739 0.203823,0.468835 0.4569933,0.468835 H 13.26189 c 0.25318,0 0.456993,-0.209104 0.456993,-0.468835 V 5.6725322 c 0,-0.2344167 -0.139155,-0.6115936 -0.456993,-0.9376488 l -2.970423,-3.04738 C 9.9857202,1.2905865 9.6059778,1.2186703 9.3774984,1.2186703 Z"
       fill="url(#linearGradient6761-7)"
       stroke-width="0.231438"
       id="path93-3"
       style="fill:#2c2c2c"
       clip-path="url(#clipPath49)"
       inkscape:path-effect="#path-effect53"
       inkscape:original-d="m 3.6653411,1.219379 c -0.2531703,0 -0.4569933,0.2091037 -0.4569933,0.4688332 V 14.815114 c 0,0.259739 0.203823,0.468835 0.4569933,0.468835 H 13.26189 c 0.25318,0 0.456993,-0.209104 0.456993,-0.468835 V 5.6725322 c 0,-0.2344167 -0.139155,-0.6115936 -0.456993,-0.9376488 l -2.970423,-3.04738 C 9.9857202,1.2905865 9.6059778,1.2186703 9.3774984,1.2186703 Z" />
  </g>
</svg>
