<?xml version="1.0" encoding="UTF-8" standalone="no"?>
<svg
   width="64"
   height="64"
   version="1.1"
   id="svg125"
   sodipodi:docname="application-x-java.svg"
   inkscape:version="1.1 (1:1.1+rc+202105240936+c4e8f9ed74)"
   xmlns:inkscape="http://www.inkscape.org/namespaces/inkscape"
   xmlns:sodipodi="http://sodipodi.sourceforge.net/DTD/sodipodi-0.dtd"
   xmlns:xlink="http://www.w3.org/1999/xlink"
   xmlns="http://www.w3.org/2000/svg"
   xmlns:svg="http://www.w3.org/2000/svg"
   xmlns:rdf="http://www.w3.org/1999/02/22-rdf-syntax-ns#"
   xmlns:cc="http://creativecommons.org/ns#"
   xmlns:dc="http://purl.org/dc/elements/1.1/">
  <metadata
     id="metadata129">
    <rdf:RDF>
      <cc:Work
         rdf:about="">
        <dc:format>image/svg+xml</dc:format>
        <dc:type
           rdf:resource="http://purl.org/dc/dcmitype/StillImage" />
        <dc:title />
      </cc:Work>
    </rdf:RDF>
  </metadata>
  <sodipodi:namedview
     pagecolor="#ffffff"
     bordercolor="#666666"
     borderopacity="1"
     objecttolerance="10"
     gridtolerance="10"
     guidetolerance="10"
     inkscape:pageopacity="0"
     inkscape:pageshadow="2"
     inkscape:window-width="1920"
     inkscape:window-height="996"
     id="namedview127"
     showgrid="false"
     inkscape:zoom="12.578125"
     inkscape:cx="32"
     inkscape:cy="36.293168"
     inkscape:window-x="0"
     inkscape:window-y="0"
     inkscape:window-maximized="1"
     inkscape:current-layer="g121"
     inkscape:document-rotation="0"
     inkscape:pagecheckerboard="0" />
  <defs
     id="defs47">
    <inkscape:path-effect
       effect="powerclip"
       id="path-effect460"
       is_visible="true"
       lpeversion="1"
       inverse="true"
       flatten="false"
       hide_clip="false"
       message="Use fill-rule evenodd on &lt;b&gt;fill and stroke&lt;/b&gt; dialog if no flatten result after convert clip to paths." />
    <linearGradient
       id="linearGradient6721-3"
       x1="7.9373"
       x2="7.9373"
       y1="15.346"
       y2="16.933"
       gradientUnits="userSpaceOnUse"
       xlink:href="#linearGradient6261" />
    <linearGradient
       id="linearGradient6261">
      <stop
         offset="0"
         id="stop3" />
      <stop
         stop-opacity="0"
         offset="1"
         id="stop5" />
    </linearGradient>
    <radialGradient
       id="radialGradient6723-5"
       cx="35"
       cy="4"
       r="3.7275"
       gradientTransform="matrix(1.696 0 0 1.0731 -24.361 -.29238)"
       gradientUnits="userSpaceOnUse"
       xlink:href="#linearGradient6261" />
    <linearGradient
       id="linearGradient6725-3"
       x1="43"
       x2="46.748"
       y1="12"
       y2="8.2517"
       gradientUnits="userSpaceOnUse"
       xlink:href="#linearGradient6261" />
    <radialGradient
       id="radialGradient6727-5"
       cx="52"
       cy="22"
       r="5.2061"
       gradientTransform="matrix(.96042 0 0 1.3331 2.0581 -7.3283)"
       gradientUnits="userSpaceOnUse"
       xlink:href="#linearGradient6261" />
    <linearGradient
       id="linearGradient6729-6"
       x1="5.8207"
       x2="5.8207"
       y1="1.0583"
       gradientUnits="userSpaceOnUse"
       xlink:href="#linearGradient6261" />
    <radialGradient
       id="radialGradient6731-2"
       cx="3.1749"
       cy="1.3229"
       r=".79373"
       gradientTransform="matrix(-2.1078e-8 -1.3333 1.6667 -2.6348e-8 .97012 5.2916)"
       gradientUnits="userSpaceOnUse"
       xlink:href="#linearGradient6261" />
    <linearGradient
       id="linearGradient6733-9"
       x1="13.758"
       x2="15.081"
       y1="10.583"
       y2="10.583"
       gradientUnits="userSpaceOnUse"
       xlink:href="#linearGradient6261" />
    <linearGradient
       id="linearGradient6735-1"
       x1="3.1749"
       x2="1.852"
       y1="8.4665"
       y2="8.4665"
       gradientUnits="userSpaceOnUse"
       xlink:href="#linearGradient6261" />
    <radialGradient
       id="radialGradient6737-2"
       cx="13.758"
       cy="15.346"
       r=".79373"
       gradientTransform="matrix(5.1718e-7 2 -1.6667 4.3098e-7 39.334 -12.171)"
       gradientUnits="userSpaceOnUse"
       xlink:href="#linearGradient6261" />
    <radialGradient
       id="radialGradient6739-7"
       cx="3.1749"
       cy="15.346"
       r=".79373"
       gradientTransform="matrix(-1.6667 -1.37e-6 1.644e-6 -2 8.4665 46.037)"
       gradientUnits="userSpaceOnUse"
       xlink:href="#linearGradient6261" />
    <linearGradient
       id="linearGradient6741-0"
       x1="7.9373"
       x2="7.9373"
       y1="15.346"
       y2="16.668"
       gradientUnits="userSpaceOnUse"
       xlink:href="#linearGradient6261" />
    <radialGradient
       id="radialGradient6743-9"
       cx="35"
       cy="4"
       r="3.7275"
       gradientTransform="matrix(1.6115 -1.9122e-7 9.5496e-8 .80482 -21.403 .78072)"
       gradientUnits="userSpaceOnUse"
       xlink:href="#linearGradient6261" />
    <linearGradient
       id="linearGradient6745-3"
       x1="43"
       x2="46.004"
       y1="12"
       y2="8.9965"
       gradientUnits="userSpaceOnUse"
       xlink:href="#linearGradient6261" />
    <radialGradient
       id="radialGradient6747-6"
       cx="52"
       cy="22"
       r="5.2061"
       gradientTransform="matrix(.76834 -9.6042e-8 1.534e-7 1.2272 12.047 -4.9986)"
       gradientUnits="userSpaceOnUse"
       xlink:href="#linearGradient6261" />
    <linearGradient
       id="linearGradient6749-0"
       x1="5.8207"
       x2="5.8207"
       y1="1.0583"
       y2=".26458"
       gradientUnits="userSpaceOnUse"
       xlink:href="#linearGradient6261" />
    <radialGradient
       id="radialGradient6751-6"
       cx="3.1749"
       cy="1.3229"
       r=".79373"
       gradientTransform="matrix(-7.442e-8 -1 1.3333 -9.9226e-8 1.4111 4.2333)"
       gradientUnits="userSpaceOnUse"
       xlink:href="#linearGradient6261" />
    <linearGradient
       id="linearGradient6753-2"
       x1="13.758"
       x2="14.816"
       y1="10.583"
       y2="10.583"
       gradientUnits="userSpaceOnUse"
       xlink:href="#linearGradient6261" />
    <linearGradient
       id="linearGradient6755-6"
       x1="3.1749"
       x2="2.1166"
       y1="8.4665"
       y2="8.4665"
       gradientUnits="userSpaceOnUse"
       xlink:href="#linearGradient6261" />
    <radialGradient
       id="radialGradient6757-1"
       cx="13.758"
       cy="15.346"
       r=".79373"
       gradientTransform="matrix(0 1.6667 -1.3333 0 34.219 -7.5846)"
       gradientUnits="userSpaceOnUse"
       xlink:href="#linearGradient6261" />
    <radialGradient
       id="radialGradient6759-8"
       cx="3.1749"
       cy="15.346"
       r=".79373"
       gradientTransform="matrix(-1.3333 0 0 -1.6667 7.4082 40.921)"
       gradientUnits="userSpaceOnUse"
       xlink:href="#linearGradient6261" />
    <linearGradient
       id="linearGradient6761-7"
       x1="21.039"
       x2="21.039"
       y1="2"
       y2="62"
       gradientTransform="matrix(.26458 0 0 .26458 0 -.26458)"
       gradientUnits="userSpaceOnUse">
      <stop
         stop-color="#ff5b59"
         offset="0"
         id="stop27" />
      <stop
         stop-color="#ff983d"
         offset="1"
         id="stop29" />
    </linearGradient>
    <radialGradient
       id="radialGradient6763-2"
       cx="40"
       cy="12"
       r="8"
       gradientTransform="matrix(1.5 0 0 -2 -14 40)"
       gradientUnits="userSpaceOnUse"
       xlink:href="#linearGradient6261" />
    <radialGradient
       id="radialGradient6765-3"
       cx="10.583"
       cy="4.2333"
       r="2.1166"
       gradientTransform="matrix(-2 3.1236e-7 -3.1236e-7 -2 31.749 12.7)"
       gradientUnits="userSpaceOnUse"
       xlink:href="#linearGradient6261" />
    <radialGradient
       id="radialGradient6767-7"
       cx="40"
       cy="12"
       r="8"
       gradientTransform="matrix(0 -1.5 2 0 16 70)"
       gradientUnits="userSpaceOnUse"
       xlink:href="#linearGradient6261" />
    <linearGradient
       id="linearGradient7282"
       x1="10.583"
       x2="6.3499"
       y1="3.1749"
       y2="3.1749"
       gradientTransform="matrix(1 0 0 .66667 0 1.4111)"
       gradientUnits="userSpaceOnUse"
       xlink:href="#linearGradient6261" />
    <linearGradient
       id="linearGradient7284"
       x1="10.583"
       x2="8.7311"
       y1="3.0426"
       y2="3.0426"
       gradientTransform="matrix(1 0 0 .66667 0 1.4111)"
       gradientUnits="userSpaceOnUse"
       xlink:href="#linearGradient6261" />
    <radialGradient
       id="radialGradient6773-5"
       cx="10.583"
       cy="4.2333"
       r="2.1166"
       gradientTransform="matrix(-.875 -1.6564e-7 1.6631e-7 -.87849 19.843 7.9521)"
       gradientUnits="userSpaceOnUse"
       xlink:href="#linearGradient6261" />
    <radialGradient
       id="radialGradient6775-9"
       cx="40"
       cy="12"
       r="8"
       gradientTransform="matrix(0 -1.3078 .87983 0 29.442 62.311)"
       gradientUnits="userSpaceOnUse"
       xlink:href="#linearGradient6261" />
    <linearGradient
       id="linearGradient7286"
       x1="10.583"
       x2="6.3499"
       y1="3.1749"
       y2="3.1749"
       gradientTransform="matrix(1 0 0 .66667 -14.816 9.3484)"
       gradientUnits="userSpaceOnUse"
       xlink:href="#linearGradient6261" />
    <linearGradient
       id="linearGradient7288"
       x1="10.583"
       x2="8.7237"
       y1="3.0426"
       y2="3.0426"
       gradientTransform="matrix(1 0 0 .66667 -14.816 9.3484)"
       gradientUnits="userSpaceOnUse"
       xlink:href="#linearGradient6261" />
    <radialGradient
       id="radialGradient6781-2"
       cx="40"
       cy="12"
       r="8"
       gradientTransform="matrix(1.4336 0 0 -.87849 -11.344 26.542)"
       gradientUnits="userSpaceOnUse"
       xlink:href="#linearGradient6261" />
    <linearGradient
       id="linearGradient7290"
       x1="40"
       x2="46"
       y1="17"
       y2="11"
       gradientTransform="matrix(.26458 0 0 .26458 -1.6667e-7 -.26458)"
       gradientUnits="userSpaceOnUse">
      <stop
         stop-color="#fefefe"
         offset="0"
         id="stop42" />
      <stop
         stop-color="#e9e9e9"
         offset="1"
         id="stop44" />
    </linearGradient>
    <clipPath
       clipPathUnits="userSpaceOnUse"
       id="clipPath456">
      <path
         id="path458"
         style="display:none;fill:#e6e6e6;stroke-width:0.176542"
         d="M 9.3924246,3.307464 C 9.8132855,5.0546669 7.9077278,5.5824431 7.2199889,6.6705014 6.7516584,7.4117539 7.4498727,8.2083477 8.4018063,9.1131995 8.030599,8.2290605 6.7716629,7.4554874 8.4023354,6.0984543 10.435746,4.4074275 9.392437,3.307464 9.392437,3.307464 Z m 1.2577804,2.1615833 c 2.2e-5,0 -3.4384051,0.9047319 -1.7962387,2.8984757 0.4847555,0.5879278 -0.1271214,1.1161896 -0.1271214,1.1161896 0,0 1.2304141,-0.6687269 0.6655797,-1.5068561 C 8.8646886,7.1956104 8.4598182,6.8075241 10.650205,5.4690473 Z m 0.609253,3.5614715 c -0.120811,2.376e-4 -0.249244,0.022587 -0.380848,0.071312 -0.105514,0.03935 -0.16071,0.1307389 -0.16071,0.1307389 0,0 0.06676,-0.028274 0.215486,-0.060977 0.60821,-0.1335541 1.479366,0.8577523 -0.405135,1.8892543 -0.0087,0.02458 -0.03723,0.05219 -0.03721,0.05219 2.241164,-0.620701 1.75216,-2.0844557 0.768414,-2.0825203 z M 7.1295568,9.1312859 c -0.2402598,0.00662 -0.802542,0.061617 -1.4562139,0.3948005 -1.0310837,0.5252646 2.5497225,0.7649186 4.4037811,0.2511427 0.192733,-0.1385919 0.458878,-0.2594108 0.458878,-0.2594108 0,0 -0.7585356,0.1429908 -1.5140904,0.2098023 -0.9247249,0.081745 -1.9163295,0.09811 -2.4142767,0.027905 C 5.4286737,9.589462 7.2535779,9.13232 7.2535779,9.13232 c 0,0 -0.043934,-0.00324 -0.1240211,-0.00103 z M 6.8288057,10.33274 C 5.1281628,10.927491 7.7754881,11.602737 10.15257,10.870165 9.900009,10.776363 9.7396836,10.604553 9.7396836,10.604553 8.5775085,10.840219 7.9059826,10.83295 7.0556609,10.740459 6.3982612,10.66888 6.8288057,10.33274 6.8288057,10.33274 Z m 0.240291,1.158563 c -1.5443039,0.454643 0.9398582,1.394038 2.9062269,0.50642 -0.3220526,-0.131867 -0.553444,-0.284215 -0.553444,-0.284215 -0.8768598,0.174637 -1.2834816,0.188245 -2.0794198,0.0925 -0.656901,-0.07937 -0.2733631,-0.314704 -0.2733631,-0.314705 z m -0.9983696,0.768414 c -0.6636515,-0.0269 -2.1699484,0.671461 -0.8836502,0.891402 4.0087573,0.684641 7.3075701,-0.308225 6.2677151,-0.80252 0,0 0.284102,0.246429 -0.312637,0.437174 -1.134708,0.362119 -4.7236139,0.471333 -5.7204715,0.01447 -0.3580844,-0.164335 0.3136462,-0.392163 0.5250225,-0.440275 0.2204061,-0.05024 0.3462255,-0.04082 0.3462255,-0.04082 -0.049817,-0.03696 -0.1273971,-0.05558 -0.2222044,-0.05943 z m 6.0207059,0.627857 c 0,0 -0.126594,0.341649 -1.494971,0.61287 -1.543753,0.306215 -3.4482921,0.270328 -4.5774102,0.0739 0,0 0.2314483,0.20208 1.420041,0.282665 1.8084813,0.121824 4.5866392,-0.06772 4.6523402,-0.969431 z" />
      <path
         id="lpe_path-effect460"
         style="fill:#e6e6e6;stroke-width:0.176542"
         class="powerclip"
         d="M -1.7916522,-3.7813297 H 18.718883 V 20.283949 H -1.7916522 Z M 9.3924246,3.307464 C 9.8132855,5.0546669 7.9077278,5.5824431 7.2199889,6.6705014 6.7516584,7.4117539 7.4498727,8.2083477 8.4018063,9.1131995 8.030599,8.2290605 6.7716629,7.4554874 8.4023354,6.0984543 10.435746,4.4074275 9.392437,3.307464 9.392437,3.307464 Z m 1.2577804,2.1615833 c 2.2e-5,0 -3.4384051,0.9047319 -1.7962387,2.8984757 0.4847555,0.5879278 -0.1271214,1.1161896 -0.1271214,1.1161896 0,0 1.2304141,-0.6687269 0.6655797,-1.5068561 C 8.8646886,7.1956104 8.4598182,6.8075241 10.650205,5.4690473 Z m 0.609253,3.5614715 c -0.120811,2.376e-4 -0.249244,0.022587 -0.380848,0.071312 -0.105514,0.03935 -0.16071,0.1307389 -0.16071,0.1307389 0,0 0.06676,-0.028274 0.215486,-0.060977 0.60821,-0.1335541 1.479366,0.8577523 -0.405135,1.8892543 -0.0087,0.02458 -0.03723,0.05219 -0.03721,0.05219 2.241164,-0.620701 1.75216,-2.0844557 0.768414,-2.0825203 z M 7.1295568,9.1312859 c -0.2402598,0.00662 -0.802542,0.061617 -1.4562139,0.3948005 -1.0310837,0.5252646 2.5497225,0.7649186 4.4037811,0.2511427 0.192733,-0.1385919 0.458878,-0.2594108 0.458878,-0.2594108 0,0 -0.7585356,0.1429908 -1.5140904,0.2098023 -0.9247249,0.081745 -1.9163295,0.09811 -2.4142767,0.027905 C 5.4286737,9.589462 7.2535779,9.13232 7.2535779,9.13232 c 0,0 -0.043934,-0.00324 -0.1240211,-0.00103 z M 6.8288057,10.33274 C 5.1281628,10.927491 7.7754881,11.602737 10.15257,10.870165 9.900009,10.776363 9.7396836,10.604553 9.7396836,10.604553 8.5775085,10.840219 7.9059826,10.83295 7.0556609,10.740459 6.3982612,10.66888 6.8288057,10.33274 6.8288057,10.33274 Z m 0.240291,1.158563 c -1.5443039,0.454643 0.9398582,1.394038 2.9062269,0.50642 -0.3220526,-0.131867 -0.553444,-0.284215 -0.553444,-0.284215 -0.8768598,0.174637 -1.2834816,0.188245 -2.0794198,0.0925 -0.656901,-0.07937 -0.2733631,-0.314704 -0.2733631,-0.314705 z m -0.9983696,0.768414 c -0.6636515,-0.0269 -2.1699484,0.671461 -0.8836502,0.891402 4.0087573,0.684641 7.3075701,-0.308225 6.2677151,-0.80252 0,0 0.284102,0.246429 -0.312637,0.437174 -1.134708,0.362119 -4.7236139,0.471333 -5.7204715,0.01447 -0.3580844,-0.164335 0.3136462,-0.392163 0.5250225,-0.440275 0.2204061,-0.05024 0.3462255,-0.04082 0.3462255,-0.04082 -0.049817,-0.03696 -0.1273971,-0.05558 -0.2222044,-0.05943 z m 6.0207059,0.627857 c 0,0 -0.126594,0.341649 -1.494971,0.61287 -1.543753,0.306215 -3.4482921,0.270328 -4.5774102,0.0739 0,0 0.2314483,0.20208 1.420041,0.282665 1.8084813,0.121824 4.5866392,-0.06772 4.6523402,-0.969431 z" />
    </clipPath>
  </defs>
  <g
     transform="matrix(3.7796 0 0 3.7796 -.021092 1.0245)"
     id="g121">
    <rect
       x="8.7209"
       y="-.54211"
       width="6.6358"
       height="6.6348"
       fill="none"
       id="rect97" />
    <path
       d="m 3.6653411,1.219379 c -0.2531703,0 -0.4569933,0.2091037 -0.4569933,0.4688332 V 14.815114 c 0,0.259739 0.203823,0.468835 0.4569933,0.468835 H 13.26189 c 0.25318,0 0.456993,-0.209104 0.456993,-0.468835 V 5.6725322 c 0,-0.2344167 -0.139155,-0.6115936 -0.456993,-0.9376488 l -2.970423,-3.04738 C 9.9857202,1.2905865 9.6059778,1.2186703 9.3774984,1.2186703 Z"
       fill="url(#linearGradient6761-7)"
       stroke-width="0.231438"
       id="path93-3"
       style="fill:#2c2c2c"
       clip-path="url(#clipPath456)"
       inkscape:path-effect="#path-effect460"
       inkscape:original-d="m 3.6653411,1.219379 c -0.2531703,0 -0.4569933,0.2091037 -0.4569933,0.4688332 V 14.815114 c 0,0.259739 0.203823,0.468835 0.4569933,0.468835 H 13.26189 c 0.25318,0 0.456993,-0.209104 0.456993,-0.468835 V 5.6725322 c 0,-0.2344167 -0.139155,-0.6115936 -0.456993,-0.9376488 l -2.970423,-3.04738 C 9.9857202,1.2905865 9.6059778,1.2186703 9.3774984,1.2186703 Z" />
    <g
       style="fill:#e6e6e6;enable-background:new"
       transform="matrix(0.17199061,0,0,0.18121318,21.977718,-1.1972346)"
       id="g40" />
  </g>
</svg>
