<?xml version="1.0" encoding="UTF-8" standalone="no"?>
<svg
   width="64"
   height="64"
   version="1.1"
   id="svg125"
   sodipodi:docname="application-x-desktop.svg"
   inkscape:version="1.1 (1:1.1+rc+202105240936+c4e8f9ed74)"
   xmlns:inkscape="http://www.inkscape.org/namespaces/inkscape"
   xmlns:sodipodi="http://sodipodi.sourceforge.net/DTD/sodipodi-0.dtd"
   xmlns:xlink="http://www.w3.org/1999/xlink"
   xmlns="http://www.w3.org/2000/svg"
   xmlns:svg="http://www.w3.org/2000/svg"
   xmlns:rdf="http://www.w3.org/1999/02/22-rdf-syntax-ns#"
   xmlns:cc="http://creativecommons.org/ns#"
   xmlns:dc="http://purl.org/dc/elements/1.1/">
  <metadata
     id="metadata129">
    <rdf:RDF>
      <cc:Work
         rdf:about="">
        <dc:format>image/svg+xml</dc:format>
        <dc:type
           rdf:resource="http://purl.org/dc/dcmitype/StillImage" />
        <dc:title />
      </cc:Work>
    </rdf:RDF>
  </metadata>
  <sodipodi:namedview
     pagecolor="#ffffff"
     bordercolor="#666666"
     borderopacity="1"
     objecttolerance="10"
     gridtolerance="10"
     guidetolerance="10"
     inkscape:pageopacity="0"
     inkscape:pageshadow="2"
     inkscape:window-width="1920"
     inkscape:window-height="996"
     id="namedview127"
     showgrid="false"
     inkscape:zoom="12.578125"
     inkscape:cx="32"
     inkscape:cy="32"
     inkscape:window-x="0"
     inkscape:window-y="0"
     inkscape:window-maximized="1"
     inkscape:current-layer="g121"
     inkscape:document-rotation="0"
     inkscape:pagecheckerboard="0" />
  <defs
     id="defs47">
    <inkscape:path-effect
       effect="powerclip"
       id="path-effect53"
       is_visible="true"
       lpeversion="1"
       inverse="true"
       flatten="false"
       hide_clip="false"
       message="Use fill-rule evenodd on &lt;b&gt;fill and stroke&lt;/b&gt; dialog if no flatten result after convert clip to paths." />
    <linearGradient
       id="linearGradient6721-3"
       x1="7.9373"
       x2="7.9373"
       y1="15.346"
       y2="16.933"
       gradientUnits="userSpaceOnUse"
       xlink:href="#linearGradient6261" />
    <linearGradient
       id="linearGradient6261">
      <stop
         offset="0"
         id="stop3" />
      <stop
         stop-opacity="0"
         offset="1"
         id="stop5" />
    </linearGradient>
    <radialGradient
       id="radialGradient6723-5"
       cx="35"
       cy="4"
       r="3.7275"
       gradientTransform="matrix(1.696 0 0 1.0731 -24.361 -.29238)"
       gradientUnits="userSpaceOnUse"
       xlink:href="#linearGradient6261" />
    <linearGradient
       id="linearGradient6725-3"
       x1="43"
       x2="46.748"
       y1="12"
       y2="8.2517"
       gradientUnits="userSpaceOnUse"
       xlink:href="#linearGradient6261" />
    <radialGradient
       id="radialGradient6727-5"
       cx="52"
       cy="22"
       r="5.2061"
       gradientTransform="matrix(.96042 0 0 1.3331 2.0581 -7.3283)"
       gradientUnits="userSpaceOnUse"
       xlink:href="#linearGradient6261" />
    <linearGradient
       id="linearGradient6729-6"
       x1="5.8207"
       x2="5.8207"
       y1="1.0583"
       gradientUnits="userSpaceOnUse"
       xlink:href="#linearGradient6261" />
    <radialGradient
       id="radialGradient6731-2"
       cx="3.1749"
       cy="1.3229"
       r=".79373"
       gradientTransform="matrix(-2.1078e-8 -1.3333 1.6667 -2.6348e-8 .97012 5.2916)"
       gradientUnits="userSpaceOnUse"
       xlink:href="#linearGradient6261" />
    <linearGradient
       id="linearGradient6733-9"
       x1="13.758"
       x2="15.081"
       y1="10.583"
       y2="10.583"
       gradientUnits="userSpaceOnUse"
       xlink:href="#linearGradient6261" />
    <linearGradient
       id="linearGradient6735-1"
       x1="3.1749"
       x2="1.852"
       y1="8.4665"
       y2="8.4665"
       gradientUnits="userSpaceOnUse"
       xlink:href="#linearGradient6261" />
    <radialGradient
       id="radialGradient6737-2"
       cx="13.758"
       cy="15.346"
       r=".79373"
       gradientTransform="matrix(5.1718e-7 2 -1.6667 4.3098e-7 39.334 -12.171)"
       gradientUnits="userSpaceOnUse"
       xlink:href="#linearGradient6261" />
    <radialGradient
       id="radialGradient6739-7"
       cx="3.1749"
       cy="15.346"
       r=".79373"
       gradientTransform="matrix(-1.6667 -1.37e-6 1.644e-6 -2 8.4665 46.037)"
       gradientUnits="userSpaceOnUse"
       xlink:href="#linearGradient6261" />
    <linearGradient
       id="linearGradient6741-0"
       x1="7.9373"
       x2="7.9373"
       y1="15.346"
       y2="16.668"
       gradientUnits="userSpaceOnUse"
       xlink:href="#linearGradient6261" />
    <radialGradient
       id="radialGradient6743-9"
       cx="35"
       cy="4"
       r="3.7275"
       gradientTransform="matrix(1.6115 -1.9122e-7 9.5496e-8 .80482 -21.403 .78072)"
       gradientUnits="userSpaceOnUse"
       xlink:href="#linearGradient6261" />
    <linearGradient
       id="linearGradient6745-3"
       x1="43"
       x2="46.004"
       y1="12"
       y2="8.9965"
       gradientUnits="userSpaceOnUse"
       xlink:href="#linearGradient6261" />
    <radialGradient
       id="radialGradient6747-6"
       cx="52"
       cy="22"
       r="5.2061"
       gradientTransform="matrix(.76834 -9.6042e-8 1.534e-7 1.2272 12.047 -4.9986)"
       gradientUnits="userSpaceOnUse"
       xlink:href="#linearGradient6261" />
    <linearGradient
       id="linearGradient6749-0"
       x1="5.8207"
       x2="5.8207"
       y1="1.0583"
       y2=".26458"
       gradientUnits="userSpaceOnUse"
       xlink:href="#linearGradient6261" />
    <radialGradient
       id="radialGradient6751-6"
       cx="3.1749"
       cy="1.3229"
       r=".79373"
       gradientTransform="matrix(-7.442e-8 -1 1.3333 -9.9226e-8 1.4111 4.2333)"
       gradientUnits="userSpaceOnUse"
       xlink:href="#linearGradient6261" />
    <linearGradient
       id="linearGradient6753-2"
       x1="13.758"
       x2="14.816"
       y1="10.583"
       y2="10.583"
       gradientUnits="userSpaceOnUse"
       xlink:href="#linearGradient6261" />
    <linearGradient
       id="linearGradient6755-6"
       x1="3.1749"
       x2="2.1166"
       y1="8.4665"
       y2="8.4665"
       gradientUnits="userSpaceOnUse"
       xlink:href="#linearGradient6261" />
    <radialGradient
       id="radialGradient6757-1"
       cx="13.758"
       cy="15.346"
       r=".79373"
       gradientTransform="matrix(0 1.6667 -1.3333 0 34.219 -7.5846)"
       gradientUnits="userSpaceOnUse"
       xlink:href="#linearGradient6261" />
    <radialGradient
       id="radialGradient6759-8"
       cx="3.1749"
       cy="15.346"
       r=".79373"
       gradientTransform="matrix(-1.3333 0 0 -1.6667 7.4082 40.921)"
       gradientUnits="userSpaceOnUse"
       xlink:href="#linearGradient6261" />
    <linearGradient
       id="linearGradient6761-7"
       x1="21.039"
       x2="21.039"
       y1="2"
       y2="62"
       gradientTransform="matrix(.26458 0 0 .26458 0 -.26458)"
       gradientUnits="userSpaceOnUse">
      <stop
         stop-color="#ff5b59"
         offset="0"
         id="stop27" />
      <stop
         stop-color="#ff983d"
         offset="1"
         id="stop29" />
    </linearGradient>
    <radialGradient
       id="radialGradient6763-2"
       cx="40"
       cy="12"
       r="8"
       gradientTransform="matrix(1.5 0 0 -2 -14 40)"
       gradientUnits="userSpaceOnUse"
       xlink:href="#linearGradient6261" />
    <radialGradient
       id="radialGradient6765-3"
       cx="10.583"
       cy="4.2333"
       r="2.1166"
       gradientTransform="matrix(-2 3.1236e-7 -3.1236e-7 -2 31.749 12.7)"
       gradientUnits="userSpaceOnUse"
       xlink:href="#linearGradient6261" />
    <radialGradient
       id="radialGradient6767-7"
       cx="40"
       cy="12"
       r="8"
       gradientTransform="matrix(0 -1.5 2 0 16 70)"
       gradientUnits="userSpaceOnUse"
       xlink:href="#linearGradient6261" />
    <linearGradient
       id="linearGradient7282"
       x1="10.583"
       x2="6.3499"
       y1="3.1749"
       y2="3.1749"
       gradientTransform="matrix(1 0 0 .66667 0 1.4111)"
       gradientUnits="userSpaceOnUse"
       xlink:href="#linearGradient6261" />
    <linearGradient
       id="linearGradient7284"
       x1="10.583"
       x2="8.7311"
       y1="3.0426"
       y2="3.0426"
       gradientTransform="matrix(1 0 0 .66667 0 1.4111)"
       gradientUnits="userSpaceOnUse"
       xlink:href="#linearGradient6261" />
    <radialGradient
       id="radialGradient6773-5"
       cx="10.583"
       cy="4.2333"
       r="2.1166"
       gradientTransform="matrix(-.875 -1.6564e-7 1.6631e-7 -.87849 19.843 7.9521)"
       gradientUnits="userSpaceOnUse"
       xlink:href="#linearGradient6261" />
    <radialGradient
       id="radialGradient6775-9"
       cx="40"
       cy="12"
       r="8"
       gradientTransform="matrix(0 -1.3078 .87983 0 29.442 62.311)"
       gradientUnits="userSpaceOnUse"
       xlink:href="#linearGradient6261" />
    <linearGradient
       id="linearGradient7286"
       x1="10.583"
       x2="6.3499"
       y1="3.1749"
       y2="3.1749"
       gradientTransform="matrix(1 0 0 .66667 -14.816 9.3484)"
       gradientUnits="userSpaceOnUse"
       xlink:href="#linearGradient6261" />
    <linearGradient
       id="linearGradient7288"
       x1="10.583"
       x2="8.7237"
       y1="3.0426"
       y2="3.0426"
       gradientTransform="matrix(1 0 0 .66667 -14.816 9.3484)"
       gradientUnits="userSpaceOnUse"
       xlink:href="#linearGradient6261" />
    <radialGradient
       id="radialGradient6781-2"
       cx="40"
       cy="12"
       r="8"
       gradientTransform="matrix(1.4336 0 0 -.87849 -11.344 26.542)"
       gradientUnits="userSpaceOnUse"
       xlink:href="#linearGradient6261" />
    <linearGradient
       id="linearGradient7290"
       x1="40"
       x2="46"
       y1="17"
       y2="11"
       gradientTransform="matrix(.26458 0 0 .26458 -1.6667e-7 -.26458)"
       gradientUnits="userSpaceOnUse">
      <stop
         stop-color="#fefefe"
         offset="0"
         id="stop42" />
      <stop
         stop-color="#e9e9e9"
         offset="1"
         id="stop44" />
    </linearGradient>
    <clipPath
       clipPathUnits="userSpaceOnUse"
       id="clipPath49">
      <path
         fill="#ffffff"
         d="M 9.6927516,8.2806604 C 9.4598521,8.1957257 9.2957548,7.9976693 9.2957548,7.7645375 c 0,-0.2334765 0.1644918,-0.4315353 0.3973921,-0.5161231 0.030837,-0.011348 0.04982,-0.039198 0.041911,-0.067735 C 9.6646767,6.9286316 9.5500071,6.6917174 9.3985631,6.4764658 9.3811644,6.4517092 9.3451807,6.4434559 9.3139435,6.4548021 9.080254,6.5380154 8.8030678,6.4991597 8.6132686,6.3341102 8.4234692,6.1690618 8.3787877,5.9283646 8.474478,5.7251479 8.4871328,5.6983268 8.4780577,5.6670367 8.4495653,5.6515634 8.2016414,5.519868 7.929201,5.4201508 7.6393618,5.3589443 7.606542,5.3520732 7.574514,5.3685644 7.561465,5.3953934 7.464193,5.598267 7.2360387,5.7416531 6.9675516,5.7416531 6.6994603,5.7416531 6.4717012,5.5986102 6.374034,5.3960816 6.360985,5.3692606 6.328957,5.3527556 6.296137,5.3596326 6.0062979,5.4211826 5.7334616,5.521242 5.4859319,5.6532816 c -0.02847,0.015131 -0.037169,0.046077 -0.02491,0.072553 C 5.5563169,5.9290511 5.5116349,6.169748 5.321836,6.3347977 5.1324325,6.4995031 4.8560374,6.538702 4.6227424,6.4561771 4.5918997,6.4451707 4.5567076,6.4530736 4.53931,6.4778408 4.3878659,6.6934369 4.2731956,6.930695 4.2032072,7.1827394 c -0.00791,0.028194 0.011073,0.056387 0.041914,0.067735 0.2321085,0.084935 0.396206,0.2829903 0.396206,0.5157784 0,0.2327884 -0.1633067,0.4301598 -0.3950196,0.5154349 -0.030843,0.011348 -0.049822,0.039198 -0.041914,0.067735 0.070384,0.2520449 0.1858447,0.4889591 0.3376838,0.7045552 0.017399,0.024415 0.05259,0.032316 0.083433,0.021666 0.2332945,-0.082175 0.5092946,-0.042634 0.698303,0.1217238 0.1890081,0.1640181 0.2340853,0.4040266 0.1399767,0.6065573 -0.012258,0.026819 -0.00316,0.057418 0.02491,0.072556 0.2479254,0.132039 0.5207617,0.231756 0.8106008,0.292962 0.032424,0.0069 0.064848,-0.0097 0.077897,-0.03645 0.098063,-0.2014972 0.3254262,-0.343509 0.5927267,-0.343509 0.2676961,0 0.4946645,0.1420118 0.5927273,0.343509 0.013049,0.02682 0.045077,0.04333 0.077897,0.03645 C 7.930388,10.108233 8.2032243,10.00852 8.4511495,9.876481 8.4796215,9.861355 8.4883175,9.830744 8.4760625,9.803925 8.3811625,9.6010509 8.4262405,9.3606979 8.6156435,9.1959924 8.8050476,9.0312874 9.0818383,8.9924328 9.3151326,9.074956 9.3459776,9.08596 9.3811666,9.078066 9.3985656,9.05329 9.5504032,8.8376961 9.6654699,8.6007808 9.7358541,8.3483935 9.7429844,8.3198563 9.723993,8.2919957 9.692749,8.2806583 Z M 6.9691332,8.967677 c -0.7631508,0 -1.3839522,-0.5398481 -1.3839522,-1.2034842 0,-0.663634 0.6208014,-1.2034835 1.3839522,-1.2034835 0.7631509,0 1.3839526,0.5398495 1.3839526,1.2034835 0,0.6636361 -0.6208017,1.2034842 -1.3839526,1.2034842 z m 5.5324438,1.836671 c -0.0017,0.0189 -0.01927,0.03317 -0.04059,0.03459 -0.162798,0.0139 -0.308373,0.109119 -0.359631,0.253895 -0.05125,0.144423 0.0074,0.294549 0.132862,0.385837 0.01682,0.01213 0.02214,0.03246 0.01107,0.04885 -0.09883,0.144778 -0.222258,0.27244 -0.363731,0.380844 -0.0164,0.01249 -0.03977,0.01141 -0.05659,-3.7e-4 -0.126711,-0.08986 -0.306732,-0.111615 -0.460097,-0.04101 -0.153368,0.0706 -0.23374,0.211818 -0.219798,0.353386 0.002,0.0189 -0.01025,0.03637 -0.03117,0.04101 -0.182481,0.04029 -0.373163,0.05705 -0.566306,0.04671 -0.02173,-0.0012 -0.03814,-0.0164 -0.04019,-0.0353 -0.01681,-0.141213 -0.126303,-0.266734 -0.29197,-0.311309 -0.166079,-0.04458 -0.3378974,0.006 -0.4428759,0.114469 -0.013943,0.01462 -0.037311,0.01926 -0.056178,0.0097 C 9.5498943,11.99935 9.4030889,11.892376 9.278428,11.769351 9.26408,11.755081 9.265305,11.734761 9.2788249,11.720131 9.3813429,11.610299 9.4063564,11.454109 9.3251629,11.3211 9.2439679,11.187733 9.0815815,11.117483 8.919194,11.129607 c -0.021322,0.0018 -0.041417,-0.0089 -0.046748,-0.0271 -0.046748,-0.159041 -0.066021,-0.324857 -0.054539,-0.492814 0.00124,-0.0189 0.018864,-0.03317 0.040597,-0.03495 0.1623875,-0.01464 0.3067327,-0.109854 0.3579905,-0.253918 0.051262,-0.144422 -0.00696,-0.294192 -0.132042,-0.3854798 -0.016404,-0.012131 -0.02214,-0.032445 -0.011075,-0.04885 0.098417,-0.1444219 0.2218473,-0.2724402 0.3629104,-0.3808442 0.016404,-0.012486 0.039781,-0.011414 0.056592,3.704e-4 0.126302,0.089863 0.3063216,0.1116152 0.4596881,0.041013 0.153776,-0.070602 0.234149,-0.212531 0.219798,-0.3540997 -0.002,-0.018542 0.01024,-0.036375 0.03117,-0.041013 0.182481,-0.040648 0.373573,-0.057407 0.566715,-0.047422 0.02173,0.00106 0.03814,0.016758 0.04019,0.035666 0.016,0.141925 0.125892,0.268159 0.29197,0.3127339 0.166488,0.044577 0.339128,-0.00644 0.444105,-0.1158938 0.01394,-0.014258 0.03731,-0.019261 0.05618,-0.00966 0.166488,0.085944 0.313294,0.1932744 0.437954,0.3159429 0.01435,0.013904 0.01353,0.034947 -3.7e-4,0.049569 -0.103749,0.1101879 -0.128764,0.2667346 -0.04756,0.4004573 0.08119,0.133725 0.244402,0.203973 0.407609,0.191135 0.02173,-0.0018 0.04223,0.0092 0.04756,0.02745 0.04634,0.158687 0.06561,0.324504 0.05372,0.492461 z m -2.106525,0.647935 c 0.47281,0.126591 0.976374,-0.10484 1.121949,-0.515995 0.145575,-0.411154 -0.120561,-0.849055 -0.59337,-0.9756453 -0.47281,-0.1265925 -0.9763755,0.1048393 -1.1219504,0.5159933 -0.1455741,0.411156 0.120562,0.849056 0.5933714,0.975647 z"
         id="path51"
         style="display:none;fill:#e6e6e6;stroke-width:0.0358498" />
      <path
         id="lpe_path-effect53"
         style="fill:#e6e6e6;stroke-width:0.0358498"
         class="powerclip"
         d="M -1.7916522,-3.7813297 H 18.718883 V 20.283949 H -1.7916522 Z M 9.6927516,8.2806604 C 9.4598521,8.1957257 9.2957548,7.9976693 9.2957548,7.7645375 c 0,-0.2334765 0.1644918,-0.4315353 0.3973921,-0.5161231 0.030837,-0.011348 0.04982,-0.039198 0.041911,-0.067735 C 9.6646767,6.9286316 9.5500071,6.6917174 9.3985631,6.4764658 9.3811644,6.4517092 9.3451807,6.4434559 9.3139435,6.4548021 9.080254,6.5380154 8.8030678,6.4991597 8.6132686,6.3341102 8.4234692,6.1690618 8.3787877,5.9283646 8.474478,5.7251479 8.4871328,5.6983268 8.4780577,5.6670367 8.4495653,5.6515634 8.2016414,5.519868 7.929201,5.4201508 7.6393618,5.3589443 7.606542,5.3520732 7.574514,5.3685644 7.561465,5.3953934 7.464193,5.598267 7.2360387,5.7416531 6.9675516,5.7416531 6.6994603,5.7416531 6.4717012,5.5986102 6.374034,5.3960816 6.360985,5.3692606 6.328957,5.3527556 6.296137,5.3596326 6.0062979,5.4211826 5.7334616,5.521242 5.4859319,5.6532816 c -0.02847,0.015131 -0.037169,0.046077 -0.02491,0.072553 C 5.5563169,5.9290511 5.5116349,6.169748 5.321836,6.3347977 5.1324325,6.4995031 4.8560374,6.538702 4.6227424,6.4561771 4.5918997,6.4451707 4.5567076,6.4530736 4.53931,6.4778408 4.3878659,6.6934369 4.2731956,6.930695 4.2032072,7.1827394 c -0.00791,0.028194 0.011073,0.056387 0.041914,0.067735 0.2321085,0.084935 0.396206,0.2829903 0.396206,0.5157784 0,0.2327884 -0.1633067,0.4301598 -0.3950196,0.5154349 -0.030843,0.011348 -0.049822,0.039198 -0.041914,0.067735 0.070384,0.2520449 0.1858447,0.4889591 0.3376838,0.7045552 0.017399,0.024415 0.05259,0.032316 0.083433,0.021666 0.2332945,-0.082175 0.5092946,-0.042634 0.698303,0.1217238 0.1890081,0.1640181 0.2340853,0.4040266 0.1399767,0.6065573 -0.012258,0.026819 -0.00316,0.057418 0.02491,0.072556 0.2479254,0.132039 0.5207617,0.231756 0.8106008,0.292962 0.032424,0.0069 0.064848,-0.0097 0.077897,-0.03645 0.098063,-0.2014972 0.3254262,-0.343509 0.5927267,-0.343509 0.2676961,0 0.4946645,0.1420118 0.5927273,0.343509 0.013049,0.02682 0.045077,0.04333 0.077897,0.03645 C 7.930388,10.108233 8.2032243,10.00852 8.4511495,9.876481 8.4796215,9.861355 8.4883175,9.830744 8.4760625,9.803925 8.3811625,9.6010509 8.4262405,9.3606979 8.6156435,9.1959924 8.8050476,9.0312874 9.0818383,8.9924328 9.3151326,9.074956 9.3459776,9.08596 9.3811666,9.078066 9.3985656,9.05329 9.5504032,8.8376961 9.6654699,8.6007808 9.7358541,8.3483935 9.7429844,8.3198563 9.723993,8.2919957 9.692749,8.2806583 Z M 6.9691332,8.967677 c 0.7631509,0 1.3839526,-0.5398481 1.3839526,-1.2034842 0,-0.663634 -0.6208017,-1.2034835 -1.3839526,-1.2034835 -0.7631508,0 -1.3839522,0.5398495 -1.3839522,1.2034835 0,0.6636361 0.6208014,1.2034842 1.3839522,1.2034842 z m 5.5324438,1.836671 3.2e-5,1.3e-5 c 0.01189,-0.167957 -0.0074,-0.333774 -0.05372,-0.492461 -0.0053,-0.01825 -0.02583,-0.02925 -0.04756,-0.02745 -0.163207,0.01284 -0.326419,-0.05741 -0.407609,-0.191135 -0.0812,-0.1337227 -0.05619,-0.2902694 0.04756,-0.4004573 0.0139,-0.014622 0.01472,-0.035665 3.7e-4,-0.049569 -0.12466,-0.1226685 -0.271466,-0.2299989 -0.437954,-0.3159429 -0.01887,-0.0096 -0.04224,-0.0046 -0.05618,0.00966 -0.104977,0.1094538 -0.277617,0.1604708 -0.444105,0.1158938 -0.166078,-0.044575 -0.27597,-0.1708089 -0.29197,-0.3127339 -0.0021,-0.018908 -0.01846,-0.034606 -0.04019,-0.035666 -0.193142,-0.00999 -0.384234,0.00677 -0.566715,0.047422 -0.02093,0.00464 -0.03317,0.022471 -0.03117,0.041013 0.01435,0.1415687 -0.06602,0.2834977 -0.219798,0.3540997 C 9.7992015,9.6176366 9.6191819,9.5958844 9.4928799,9.5060214 9.4760689,9.494237 9.4526919,9.493165 9.4362879,9.505651 9.2952248,9.614055 9.1717945,9.7420733 9.0733775,9.8864952 c -0.011065,0.016405 -0.00533,0.036719 0.011075,0.04885 0.125082,0.091288 0.183304,0.2410578 0.132042,0.3854798 -0.051258,0.144064 -0.195603,0.239278 -0.3579905,0.253918 -0.021733,0.0018 -0.039357,0.01605 -0.040597,0.03495 -0.011482,0.167957 0.00779,0.333773 0.054539,0.492814 0.00533,0.0182 0.025426,0.0289 0.046748,0.0271 0.1623875,-0.01212 0.3247739,0.05813 0.4059689,0.191493 0.081193,0.133009 0.05618,0.289199 -0.046338,0.399031 -0.01352,0.01463 -0.014745,0.03495 -3.969e-4,0.04922 0.1246609,0.123025 0.2714663,0.229999 0.4379541,0.316299 0.018867,0.0096 0.042235,0.0049 0.056178,-0.0097 0.1049785,-0.108469 0.2767969,-0.159049 0.4428759,-0.114469 0.165667,0.04458 0.27516,0.170096 0.29197,0.311309 0.0021,0.0189 0.01846,0.0341 0.04019,0.0353 0.193143,0.01034 0.383825,-0.0064 0.566306,-0.04671 0.02092,-0.0046 0.03317,-0.02211 0.03117,-0.04101 -0.01394,-0.141568 0.06643,-0.282786 0.219798,-0.353386 0.153365,-0.07061 0.333386,-0.04885 0.460097,0.04101 0.01682,0.01178 0.04019,0.01286 0.05659,3.7e-4 0.141473,-0.108404 0.264901,-0.236066 0.363731,-0.380844 0.01107,-0.01639 0.0057,-0.03672 -0.01107,-0.04885 -0.125462,-0.09129 -0.184112,-0.241414 -0.132862,-0.385837 0.05126,-0.144776 0.196833,-0.239995 0.359631,-0.253895 0.02132,-0.0014 0.03889,-0.01569 0.04059,-0.03459 z m -2.106525,0.647935 c 0.47281,0.126591 0.976374,-0.10484 1.121949,-0.515995 0.145575,-0.411154 -0.120561,-0.849055 -0.59337,-0.9756453 -0.47281,-0.1265925 -0.9763755,0.1048393 -1.1219504,0.5159933 -0.1455741,0.411156 0.120562,0.849056 0.5933714,0.975647 z" />
    </clipPath>
  </defs>
  <g
     transform="matrix(3.7796 0 0 3.7796 -.021092 1.0245)"
     id="g121">
    <rect
       x="8.7209"
       y="-.54211"
       width="6.6358"
       height="6.6348"
       fill="none"
       id="rect97" />
    <path
       d="m 3.6653411,1.219379 c -0.2531703,0 -0.4569933,0.2091037 -0.4569933,0.4688332 V 14.815114 c 0,0.259739 0.203823,0.468835 0.4569933,0.468835 H 13.26189 c 0.25318,0 0.456993,-0.209104 0.456993,-0.468835 V 5.6725322 c 0,-0.2344167 -0.139155,-0.6115936 -0.456993,-0.9376488 l -2.970423,-3.04738 C 9.9857202,1.2905865 9.6059778,1.2186703 9.3774984,1.2186703 Z"
       fill="url(#linearGradient6761-7)"
       stroke-width="0.231438"
       id="path93-3"
       style="fill:#2c2c2c"
       clip-path="url(#clipPath49)"
       inkscape:path-effect="#path-effect53"
       inkscape:original-d="m 3.6653411,1.219379 c -0.2531703,0 -0.4569933,0.2091037 -0.4569933,0.4688332 V 14.815114 c 0,0.259739 0.203823,0.468835 0.4569933,0.468835 H 13.26189 c 0.25318,0 0.456993,-0.209104 0.456993,-0.468835 V 5.6725322 c 0,-0.2344167 -0.139155,-0.6115936 -0.456993,-0.9376488 l -2.970423,-3.04738 C 9.9857202,1.2905865 9.6059778,1.2186703 9.3774984,1.2186703 Z" />
  </g>
</svg>
