<?xml version="1.0" encoding="UTF-8" standalone="no"?>
<svg
   width="64"
   height="64"
   version="1.1"
   id="svg125"
   sodipodi:docname="application-x-virtualbox-vbox.svg"
   inkscape:version="1.1 (1:1.1+rc+202105240936+c4e8f9ed74)"
   xmlns:inkscape="http://www.inkscape.org/namespaces/inkscape"
   xmlns:sodipodi="http://sodipodi.sourceforge.net/DTD/sodipodi-0.dtd"
   xmlns:xlink="http://www.w3.org/1999/xlink"
   xmlns="http://www.w3.org/2000/svg"
   xmlns:svg="http://www.w3.org/2000/svg"
   xmlns:rdf="http://www.w3.org/1999/02/22-rdf-syntax-ns#"
   xmlns:cc="http://creativecommons.org/ns#"
   xmlns:dc="http://purl.org/dc/elements/1.1/">
  <metadata
     id="metadata129">
    <rdf:RDF>
      <cc:Work
         rdf:about="">
        <dc:format>image/svg+xml</dc:format>
        <dc:type
           rdf:resource="http://purl.org/dc/dcmitype/StillImage" />
        <dc:title />
      </cc:Work>
    </rdf:RDF>
  </metadata>
  <sodipodi:namedview
     pagecolor="#ffffff"
     bordercolor="#666666"
     borderopacity="1"
     objecttolerance="10"
     gridtolerance="10"
     guidetolerance="10"
     inkscape:pageopacity="0"
     inkscape:pageshadow="2"
     inkscape:window-width="1920"
     inkscape:window-height="996"
     id="namedview127"
     showgrid="false"
     inkscape:zoom="8.8940775"
     inkscape:cx="48.965168"
     inkscape:cy="36.260084"
     inkscape:window-x="0"
     inkscape:window-y="0"
     inkscape:window-maximized="1"
     inkscape:current-layer="g121"
     inkscape:document-rotation="0"
     inkscape:pagecheckerboard="0" />
  <defs
     id="defs47">
    <inkscape:path-effect
       effect="powerclip"
       id="path-effect236"
       is_visible="true"
       lpeversion="1"
       inverse="true"
       flatten="false"
       hide_clip="false"
       message="Use fill-rule evenodd on &lt;b&gt;fill and stroke&lt;/b&gt; dialog if no flatten result after convert clip to paths." />
    <linearGradient
       id="linearGradient6721-3"
       x1="7.9373"
       x2="7.9373"
       y1="15.346"
       y2="16.933"
       gradientUnits="userSpaceOnUse"
       xlink:href="#linearGradient6261" />
    <linearGradient
       id="linearGradient6261">
      <stop
         offset="0"
         id="stop3" />
      <stop
         stop-opacity="0"
         offset="1"
         id="stop5" />
    </linearGradient>
    <radialGradient
       id="radialGradient6723-5"
       cx="35"
       cy="4"
       r="3.7275"
       gradientTransform="matrix(1.696 0 0 1.0731 -24.361 -.29238)"
       gradientUnits="userSpaceOnUse"
       xlink:href="#linearGradient6261" />
    <linearGradient
       id="linearGradient6725-3"
       x1="43"
       x2="46.748"
       y1="12"
       y2="8.2517"
       gradientUnits="userSpaceOnUse"
       xlink:href="#linearGradient6261" />
    <radialGradient
       id="radialGradient6727-5"
       cx="52"
       cy="22"
       r="5.2061"
       gradientTransform="matrix(.96042 0 0 1.3331 2.0581 -7.3283)"
       gradientUnits="userSpaceOnUse"
       xlink:href="#linearGradient6261" />
    <linearGradient
       id="linearGradient6729-6"
       x1="5.8207"
       x2="5.8207"
       y1="1.0583"
       gradientUnits="userSpaceOnUse"
       xlink:href="#linearGradient6261" />
    <radialGradient
       id="radialGradient6731-2"
       cx="3.1749"
       cy="1.3229"
       r=".79373"
       gradientTransform="matrix(-2.1078e-8 -1.3333 1.6667 -2.6348e-8 .97012 5.2916)"
       gradientUnits="userSpaceOnUse"
       xlink:href="#linearGradient6261" />
    <linearGradient
       id="linearGradient6733-9"
       x1="13.758"
       x2="15.081"
       y1="10.583"
       y2="10.583"
       gradientUnits="userSpaceOnUse"
       xlink:href="#linearGradient6261" />
    <linearGradient
       id="linearGradient6735-1"
       x1="3.1749"
       x2="1.852"
       y1="8.4665"
       y2="8.4665"
       gradientUnits="userSpaceOnUse"
       xlink:href="#linearGradient6261" />
    <radialGradient
       id="radialGradient6737-2"
       cx="13.758"
       cy="15.346"
       r=".79373"
       gradientTransform="matrix(5.1718e-7 2 -1.6667 4.3098e-7 39.334 -12.171)"
       gradientUnits="userSpaceOnUse"
       xlink:href="#linearGradient6261" />
    <radialGradient
       id="radialGradient6739-7"
       cx="3.1749"
       cy="15.346"
       r=".79373"
       gradientTransform="matrix(-1.6667 -1.37e-6 1.644e-6 -2 8.4665 46.037)"
       gradientUnits="userSpaceOnUse"
       xlink:href="#linearGradient6261" />
    <linearGradient
       id="linearGradient6741-0"
       x1="7.9373"
       x2="7.9373"
       y1="15.346"
       y2="16.668"
       gradientUnits="userSpaceOnUse"
       xlink:href="#linearGradient6261" />
    <radialGradient
       id="radialGradient6743-9"
       cx="35"
       cy="4"
       r="3.7275"
       gradientTransform="matrix(1.6115 -1.9122e-7 9.5496e-8 .80482 -21.403 .78072)"
       gradientUnits="userSpaceOnUse"
       xlink:href="#linearGradient6261" />
    <linearGradient
       id="linearGradient6745-3"
       x1="43"
       x2="46.004"
       y1="12"
       y2="8.9965"
       gradientUnits="userSpaceOnUse"
       xlink:href="#linearGradient6261" />
    <radialGradient
       id="radialGradient6747-6"
       cx="52"
       cy="22"
       r="5.2061"
       gradientTransform="matrix(.76834 -9.6042e-8 1.534e-7 1.2272 12.047 -4.9986)"
       gradientUnits="userSpaceOnUse"
       xlink:href="#linearGradient6261" />
    <linearGradient
       id="linearGradient6749-0"
       x1="5.8207"
       x2="5.8207"
       y1="1.0583"
       y2=".26458"
       gradientUnits="userSpaceOnUse"
       xlink:href="#linearGradient6261" />
    <radialGradient
       id="radialGradient6751-6"
       cx="3.1749"
       cy="1.3229"
       r=".79373"
       gradientTransform="matrix(-7.442e-8 -1 1.3333 -9.9226e-8 1.4111 4.2333)"
       gradientUnits="userSpaceOnUse"
       xlink:href="#linearGradient6261" />
    <linearGradient
       id="linearGradient6753-2"
       x1="13.758"
       x2="14.816"
       y1="10.583"
       y2="10.583"
       gradientUnits="userSpaceOnUse"
       xlink:href="#linearGradient6261" />
    <linearGradient
       id="linearGradient6755-6"
       x1="3.1749"
       x2="2.1166"
       y1="8.4665"
       y2="8.4665"
       gradientUnits="userSpaceOnUse"
       xlink:href="#linearGradient6261" />
    <radialGradient
       id="radialGradient6757-1"
       cx="13.758"
       cy="15.346"
       r=".79373"
       gradientTransform="matrix(0 1.6667 -1.3333 0 34.219 -7.5846)"
       gradientUnits="userSpaceOnUse"
       xlink:href="#linearGradient6261" />
    <radialGradient
       id="radialGradient6759-8"
       cx="3.1749"
       cy="15.346"
       r=".79373"
       gradientTransform="matrix(-1.3333 0 0 -1.6667 7.4082 40.921)"
       gradientUnits="userSpaceOnUse"
       xlink:href="#linearGradient6261" />
    <linearGradient
       id="linearGradient6761-7"
       x1="21.039"
       x2="21.039"
       y1="2"
       y2="62"
       gradientTransform="matrix(.26458 0 0 .26458 0 -.26458)"
       gradientUnits="userSpaceOnUse">
      <stop
         stop-color="#ff5b59"
         offset="0"
         id="stop27" />
      <stop
         stop-color="#ff983d"
         offset="1"
         id="stop29" />
    </linearGradient>
    <radialGradient
       id="radialGradient6763-2"
       cx="40"
       cy="12"
       r="8"
       gradientTransform="matrix(1.5 0 0 -2 -14 40)"
       gradientUnits="userSpaceOnUse"
       xlink:href="#linearGradient6261" />
    <radialGradient
       id="radialGradient6765-3"
       cx="10.583"
       cy="4.2333"
       r="2.1166"
       gradientTransform="matrix(-2 3.1236e-7 -3.1236e-7 -2 31.749 12.7)"
       gradientUnits="userSpaceOnUse"
       xlink:href="#linearGradient6261" />
    <radialGradient
       id="radialGradient6767-7"
       cx="40"
       cy="12"
       r="8"
       gradientTransform="matrix(0 -1.5 2 0 16 70)"
       gradientUnits="userSpaceOnUse"
       xlink:href="#linearGradient6261" />
    <linearGradient
       id="linearGradient7282"
       x1="10.583"
       x2="6.3499"
       y1="3.1749"
       y2="3.1749"
       gradientTransform="matrix(1 0 0 .66667 0 1.4111)"
       gradientUnits="userSpaceOnUse"
       xlink:href="#linearGradient6261" />
    <linearGradient
       id="linearGradient7284"
       x1="10.583"
       x2="8.7311"
       y1="3.0426"
       y2="3.0426"
       gradientTransform="matrix(1 0 0 .66667 0 1.4111)"
       gradientUnits="userSpaceOnUse"
       xlink:href="#linearGradient6261" />
    <radialGradient
       id="radialGradient6773-5"
       cx="10.583"
       cy="4.2333"
       r="2.1166"
       gradientTransform="matrix(-.875 -1.6564e-7 1.6631e-7 -.87849 19.843 7.9521)"
       gradientUnits="userSpaceOnUse"
       xlink:href="#linearGradient6261" />
    <radialGradient
       id="radialGradient6775-9"
       cx="40"
       cy="12"
       r="8"
       gradientTransform="matrix(0 -1.3078 .87983 0 29.442 62.311)"
       gradientUnits="userSpaceOnUse"
       xlink:href="#linearGradient6261" />
    <linearGradient
       id="linearGradient7286"
       x1="10.583"
       x2="6.3499"
       y1="3.1749"
       y2="3.1749"
       gradientTransform="matrix(1 0 0 .66667 -14.816 9.3484)"
       gradientUnits="userSpaceOnUse"
       xlink:href="#linearGradient6261" />
    <linearGradient
       id="linearGradient7288"
       x1="10.583"
       x2="8.7237"
       y1="3.0426"
       y2="3.0426"
       gradientTransform="matrix(1 0 0 .66667 -14.816 9.3484)"
       gradientUnits="userSpaceOnUse"
       xlink:href="#linearGradient6261" />
    <radialGradient
       id="radialGradient6781-2"
       cx="40"
       cy="12"
       r="8"
       gradientTransform="matrix(1.4336 0 0 -.87849 -11.344 26.542)"
       gradientUnits="userSpaceOnUse"
       xlink:href="#linearGradient6261" />
    <linearGradient
       id="linearGradient7290"
       x1="40"
       x2="46"
       y1="17"
       y2="11"
       gradientTransform="matrix(.26458 0 0 .26458 -1.6667e-7 -.26458)"
       gradientUnits="userSpaceOnUse">
      <stop
         stop-color="#fefefe"
         offset="0"
         id="stop42" />
      <stop
         stop-color="#e9e9e9"
         offset="1"
         id="stop44" />
    </linearGradient>
    <clipPath
       clipPathUnits="userSpaceOnUse"
       id="clipPath232">
      <path
         id="path234"
         style="display:none;fill:#e6e6e6;stroke-width:0.263826"
         d="M 8.2064732,4.495999 6.6277884,9.6552752 5.6154665,6.6126251 H 3.2079077 V 7.6709382 H 5.0041459 L 6.6277884,12.168769 8.2064732,7.1417817 9.258585,10.316721 10.574242,7.1417817 11.560726,10.316721 h 2.170369 V 9.2584078 H 12.15241 L 10.574242,5.0251556 9.258585,7.9355165 Z m 1.3885191,8.367288 c -0.3304722,0 -0.5900391,0.08187 -0.778749,0.244941 -0.1877892,0.163072 -0.2816312,0.388044 -0.2816312,0.675398 0,0.286563 0.093842,0.511293 0.2816312,0.674365 0.1887099,0.163071 0.4482768,0.244941 0.778749,0.244941 0.3313928,0 0.5909597,-0.08187 0.7787487,-0.244941 0.187789,-0.163072 0.281631,-0.387802 0.281631,-0.674365 0,-0.287354 -0.09384,-0.512326 -0.281631,-0.675398 C 10.185952,12.945157 9.9263851,12.863287 9.5949923,12.863287 Z M 4.063653,12.895325 4.8274159,14.66831 H 5.460957 L 6.2247198,12.895325 H 5.6903958 L 5.1447031,14.203747 4.597977,12.895325 Z m 2.4344299,0 v 1.772985 h 0.8820999 c 0.2743195,0 0.4789893,-0.04218 0.6133874,-0.126088 0.1343984,-0.08391 0.2015343,-0.21141 0.2015343,-0.382398 0,-0.111617 -0.031452,-0.205362 -0.094049,-0.282149 -0.062596,-0.07678 -0.1509485,-0.129626 -0.2650949,-0.158126 0.089292,-0.02929 0.1576873,-0.07419 0.2046348,-0.134356 0.046948,-0.06095 0.070279,-0.134369 0.070279,-0.220655 0,-0.163863 -0.064391,-0.283182 -0.1932662,-0.357594 C 7.7896529,12.932533 7.5822383,12.895325 7.295952,12.895325 Z m 4.2802771,0 0.6878,0.868148 -0.715188,0.904837 h 0.556544 l 0.477481,-0.605636 0.482132,0.605636 h 0.553444 l -0.715188,-0.904837 0.6878,-0.868148 H 12.23509 l -0.450093,0.571531 -0.451643,-0.571531 z m -1.1833677,0.299201 c 0.1629347,0 0.2889721,0.0516 0.3782641,0.15451 0.089292,0.102909 0.1343566,0.247771 0.1343566,0.43459 0,0.186029 -0.04507,0.330647 -0.1343566,0.433557 -0.089292,0.102909 -0.2153294,0.153993 -0.3782641,0.153993 -0.1620142,0 -0.2874222,-0.05108 -0.3767142,-0.153993 -0.089292,-0.10291 -0.1338393,-0.247528 -0.1338393,-0.433557 0,-0.186819 0.044548,-0.331681 0.1338393,-0.43459 0.089292,-0.10291 0.2147,-0.15451 0.3767142,-0.15451 z m -2.565169,0.01188 h 0.2940332 c 0.083769,0 0.1474172,0.01663 0.1906823,0.04909 0.043265,0.03167 0.064594,0.07754 0.064594,0.13849 0,0.06175 -0.02133,0.108892 -0.064594,0.140557 -0.043265,0.03167 -0.1069134,0.04703 -0.1906823,0.04703 H 7.0298233 Z m 0,0.68625 h 0.3121198 c 0.1077024,0 0.1879331,0.01961 0.2413242,0.05839 0.053391,0.038 0.080097,0.09529 0.080097,0.172079 0,0.07837 -0.027336,0.13691 -0.081647,0.175697 -0.053391,0.03879 -0.1329921,0.05839 -0.239774,0.05839 h -0.31212 z" />
      <path
         id="lpe_path-effect236"
         style="fill:#e6e6e6;stroke-width:0.263826"
         class="powerclip"
         d="M -1.7916522,-3.7813297 H 18.718883 V 20.283949 H -1.7916522 Z M 8.2064732,4.495999 6.6277884,9.6552752 5.6154665,6.6126251 H 3.2079077 V 7.6709382 H 5.0041459 L 6.6277884,12.168769 8.2064732,7.1417817 9.258585,10.316721 10.574242,7.1417817 11.560726,10.316721 h 2.170369 V 9.2584078 H 12.15241 L 10.574242,5.0251556 9.258585,7.9355165 Z m 1.3885191,8.367288 c -0.3304722,0 -0.5900391,0.08187 -0.778749,0.244941 -0.1877892,0.163072 -0.2816312,0.388044 -0.2816312,0.675398 0,0.286563 0.093842,0.511293 0.2816312,0.674365 0.1887099,0.163071 0.4482768,0.244941 0.778749,0.244941 0.3313928,0 0.5909597,-0.08187 0.7787487,-0.244941 0.187789,-0.163072 0.281631,-0.387802 0.281631,-0.674365 0,-0.287354 -0.09384,-0.512326 -0.281631,-0.675398 C 10.185952,12.945157 9.9263851,12.863287 9.5949923,12.863287 Z M 4.063653,12.895325 4.8274159,14.66831 H 5.460957 L 6.2247198,12.895325 H 5.6903958 L 5.1447031,14.203747 4.597977,12.895325 Z m 2.4344299,0 v 1.772985 h 0.8820999 c 0.2743195,0 0.4789893,-0.04218 0.6133874,-0.126088 0.1343984,-0.08391 0.2015343,-0.21141 0.2015343,-0.382398 0,-0.111617 -0.031452,-0.205362 -0.094049,-0.282149 -0.062596,-0.07678 -0.1509485,-0.129626 -0.2650949,-0.158126 0.089292,-0.02929 0.1576873,-0.07419 0.2046348,-0.134356 0.046948,-0.06095 0.070279,-0.134369 0.070279,-0.220655 0,-0.163863 -0.064391,-0.283182 -0.1932662,-0.357594 C 7.7896529,12.932533 7.5822383,12.895325 7.295952,12.895325 Z m 4.2802771,0 0.6878,0.868148 -0.715188,0.904837 h 0.556544 l 0.477481,-0.605636 0.482132,0.605636 h 0.553444 l -0.715188,-0.904837 0.6878,-0.868148 H 12.23509 l -0.450093,0.571531 -0.451643,-0.571531 z m -1.1833677,0.299201 c -0.1620142,0 -0.2874222,0.0516 -0.3767142,0.15451 -0.089291,0.102909 -0.1338393,0.247771 -0.1338393,0.43459 0,0.186029 0.044547,0.330647 0.1338393,0.433557 0.089292,0.102913 0.2147,0.153993 0.3767142,0.153993 0.1629347,0 0.2889721,-0.05108 0.3782641,-0.153993 0.089287,-0.10291 0.1343566,-0.247528 0.1343566,-0.433557 0,-0.186819 -0.04507,-0.331681 -0.1343566,-0.43459 -0.089292,-0.10291 -0.2153294,-0.15451 -0.3782641,-0.15451 z m -2.565169,0.01188 v 0.375167 h 0.2940332 c 0.083769,0 0.1474173,-0.01536 0.1906823,-0.04703 0.043264,-0.03166 0.064594,-0.07881 0.064594,-0.140557 0,-0.06095 -0.021329,-0.10682 -0.064594,-0.13849 -0.043265,-0.03246 -0.1069133,-0.04909 -0.1906823,-0.04909 z m 0,0.68625 v 0.464556 h 0.31212 c 0.1067819,0 0.186383,-0.0196 0.239774,-0.05839 0.054311,-0.03879 0.081647,-0.09733 0.081647,-0.175697 0,-0.07679 -0.026706,-0.134079 -0.080097,-0.172079 -0.053391,-0.03878 -0.1336218,-0.05839 -0.2413242,-0.05839 z" />
    </clipPath>
  </defs>
  <g
     transform="matrix(3.7796 0 0 3.7796 -.021092 1.0245)"
     id="g121">
    <rect
       x="8.7209"
       y="-.54211"
       width="6.6358"
       height="6.6348"
       fill="none"
       id="rect97" />
    <path
       d="m 3.6653411,1.219379 c -0.2531703,0 -0.4569933,0.2091037 -0.4569933,0.4688332 V 14.815114 c 0,0.259739 0.203823,0.468835 0.4569933,0.468835 H 13.26189 c 0.25318,0 0.456993,-0.209104 0.456993,-0.468835 V 5.6725322 c 0,-0.2344167 -0.139155,-0.6115936 -0.456993,-0.9376488 l -2.970423,-3.04738 C 9.9857202,1.2905865 9.6059778,1.2186703 9.3774984,1.2186703 Z"
       fill="url(#linearGradient6761-7)"
       stroke-width="0.231438"
       id="path93-3"
       style="fill:#2c2c2c"
       clip-path="url(#clipPath232)"
       inkscape:path-effect="#path-effect236"
       inkscape:original-d="m 3.6653411,1.219379 c -0.2531703,0 -0.4569933,0.2091037 -0.4569933,0.4688332 V 14.815114 c 0,0.259739 0.203823,0.468835 0.4569933,0.468835 H 13.26189 c 0.25318,0 0.456993,-0.209104 0.456993,-0.468835 V 5.6725322 c 0,-0.2344167 -0.139155,-0.6115936 -0.456993,-0.9376488 l -2.970423,-3.04738 C 9.9857202,1.2905865 9.6059778,1.2186703 9.3774984,1.2186703 Z" />
    <g
       aria-label="VBOX"
       transform="scale(1.0783617,0.92733262)"
       id="text80"
       style="font-weight:bold;font-size:2.62239px;line-height:1.25;font-family:sans-serif;-inkscape-font-specification:'sans-serif Bold';fill:#e6e6e6;stroke-width:0.06556" />
    <text
       xml:space="preserve"
       style="font-weight:bold;font-size:3.06432px;line-height:1.25;font-family:sans-serif;-inkscape-font-specification:'sans-serif Bold';fill:#333333;stroke-width:0.0766078;"
       x="16.113657"
       y="6.023231"
       id="text80-3"
       transform="scale(1.2600832,0.7935984)"><tspan
         sodipodi:role="line"
         id="tspan78-6"
         x="16.113657"
         y="6.023231"
         style="fill:#333333;stroke-width:0.0766078;">HDD</tspan></text>
  </g>
</svg>
