<?xml version="1.0" encoding="UTF-8" standalone="no"?>
<svg
   width="64"
   height="64"
   version="1.1"
   id="svg73"
   sodipodi:docname="application-gzip.svg"
   inkscape:version="1.1 (1:1.1+202105261517+ce6663b3b7)"
   xmlns:inkscape="http://www.inkscape.org/namespaces/inkscape"
   xmlns:sodipodi="http://sodipodi.sourceforge.net/DTD/sodipodi-0.dtd"
   xmlns="http://www.w3.org/2000/svg"
   xmlns:svg="http://www.w3.org/2000/svg"
   xmlns:rdf="http://www.w3.org/1999/02/22-rdf-syntax-ns#"
   xmlns:cc="http://creativecommons.org/ns#"
   xmlns:dc="http://purl.org/dc/elements/1.1/">
  <metadata
     id="metadata77">
    <rdf:RDF>
      <cc:Work
         rdf:about="">
        <dc:format>image/svg+xml</dc:format>
        <dc:type
           rdf:resource="http://purl.org/dc/dcmitype/StillImage" />
        <dc:title />
      </cc:Work>
    </rdf:RDF>
  </metadata>
  <sodipodi:namedview
     pagecolor="#ffffff"
     bordercolor="#666666"
     borderopacity="1"
     objecttolerance="10"
     gridtolerance="10"
     guidetolerance="10"
     inkscape:pageopacity="0"
     inkscape:pageshadow="2"
     inkscape:window-width="1920"
     inkscape:window-height="996"
     id="namedview75"
     showgrid="false"
     inkscape:zoom="17.788155"
     inkscape:cx="26.393968"
     inkscape:cy="37.243885"
     inkscape:window-x="0"
     inkscape:window-y="0"
     inkscape:window-maximized="1"
     inkscape:current-layer="svg73"
     inkscape:document-rotation="0"
     inkscape:pagecheckerboard="0" />
  <defs
     id="defs29">
    <inkscape:path-effect
       effect="powerclip"
       id="path-effect340"
       is_visible="true"
       lpeversion="1"
       inverse="true"
       flatten="false"
       hide_clip="false"
       message="Use fill-rule evenodd on &lt;b&gt;fill and stroke&lt;/b&gt; dialog if no flatten result after convert clip to paths." />
    <linearGradient
       id="b"
       x1="399.57"
       x2="399.57"
       y1="545.8"
       y2="517.8"
       gradientTransform="matrix(2.1429,0,0,2.1429,-826.36,-1107.5)"
       gradientUnits="userSpaceOnUse">
      <stop
         stop-color="#3889e9"
         offset="0"
         id="stop2" />
      <stop
         stop-color="#5ea5fb"
         offset="1"
         id="stop4" />
    </linearGradient>
    <linearGradient
       id="linearGradient862"
       x1="7.9373"
       x2="7.9373"
       y1="15.081"
       y2="1.852"
       gradientTransform="matrix(3.3743 0 0 3.3743 3.4312 3.4278)"
       gradientUnits="userSpaceOnUse">
      <stop
         stop-color="#f1efeb"
         offset="0"
         id="stop7" />
      <stop
         stop-color="#fff"
         offset="1"
         id="stop9" />
    </linearGradient>
    <linearGradient
       id="linearGradient910"
       x1="7.9373"
       x2="7.9373"
       y1="15.081"
       y2="1.852"
       gradientTransform="scale(3.7796)"
       gradientUnits="userSpaceOnUse">
      <stop
         stop-color="#613583"
         offset="0"
         id="stop12" />
      <stop
         stop-color="#a663c0"
         offset="1"
         id="stop14" />
    </linearGradient>
    <linearGradient
       id="linearGradient932"
       x1="379.24"
       x2="374.24"
       y1="546.85"
       y2="546.85"
       gradientTransform="matrix(2.1429 0 0 2.1429 -769.68 -1134.5)"
       gradientUnits="userSpaceOnUse">
      <stop
         stop-color="#f6f5f4"
         offset="0"
         id="stop17" />
      <stop
         stop-color="#fff"
         offset=".6"
         id="stop19" />
      <stop
         stop-color="#dddbd8"
         offset="1"
         id="stop21" />
    </linearGradient>
    <linearGradient
       id="linearGradient1146"
       x1="18"
       x2="18"
       y1="52"
       y2="12"
       gradientUnits="userSpaceOnUse">
      <stop
         stop-color="#5e337f"
         offset="0"
         id="stop24" />
      <stop
         stop-color="#ab60bf"
         offset="1"
         id="stop26" />
    </linearGradient>
    <clipPath
       clipPathUnits="userSpaceOnUse"
       id="clipPath336">
      <path
         id="path338"
         style="display:none;opacity:0.2;fill:#e6e6e6"
         d="m 32.1875,7.0332031 v 1 h 1 v -1 z m 0,1 h -1 v 1 h 1 z m 0,1 v 0.9999999 h 1 V 9.0332031 Z m 0,0.9999999 h -1 v 1 h 1 z m 0,1 v 1 h 1 v -1 z m 0,1 h -1 v 1 h 1 z m 0,1 v 1 h 1 v -1 z m 0,1 h -1 v 1 h 1 z m 0,1 v 1 h 1 v -1 z m 0,1 h -1 v 1 h 1 z m 0,1 v 1 h 1 v -1 z m 0,1 h -1 v 1 h 1 z m 0,1 v 1 h 1 v -1 z m 0,1 h -1 v 1 h 1 c 0.04125,-0.367529 0,-1 0,-1 z m 0,1 v 1 h 1 v -1 z m 0,1 h -1 v 1 h 1 z m 0,1 v 1 h 1 v -1 z m 0,1 h -1 v 1 h 1 z m 0,1 v 1 h 1 v -1 z m 0,1 h -1 v 1 h 1 z m 0,1 c -2.210666,0 -4,1.8 -4,4 v 8 c 0,2.2 1.79,4 4,4 2.21,0 4,-1.8 4,-4 v -8 c 0,-1.85625 -1.274024,-3.427276 -3,-3.873047 v -0.126953 z m 0,2 c 1.104,0 2,0.8 2,2 0,0.999998 -0.896,2 -2,2 -1.104,0 -2,-1.000002 -2,-2 0,-1.2 0.896,-2 2,-2 z m 0,6 c 1.10457,0 2,0.89543 2,2 v 2 c 0,1.10457 -0.89543,2 -2,2 -1.10457,0 -2,-0.89543 -2,-2 v -2 c 0,-1.10457 0.89543,-2 2,-2 z m -4.720703,10.988281 c -1.768749,0 -3.162428,0.317167 -4.179688,0.953125 -1.017259,0.635959 -1.52539,1.5081 -1.52539,2.617188 0,1.096798 0.499116,1.967272 1.498047,2.609375 0.99893,0.639031 2.35332,0.958984 4.0625,0.958984 0.756071,0 1.488969,-0.05458 2.199218,-0.162109 0.710249,-0.107529 1.394844,-0.269316 2.054688,-0.484375 v -3.308594 h -4.123047 v 1.189453 h 1.615234 v 1.335938 c -0.187872,0.04916 -0.402348,0.08675 -0.640625,0.111328 -0.233695,0.02151 -0.486784,0.03125 -0.761718,0.03125 -1.012678,0 -1.79388,-0.197428 -2.34375,-0.59375 -0.549871,-0.396322 -0.826172,-0.959374 -0.826172,-1.6875 0,-0.734271 0.285316,-1.298156 0.853515,-1.691406 0.572781,-0.396323 1.385535,-0.59375 2.439453,-0.59375 0.568199,0 1.133649,0.05458 1.697266,0.162109 0.568199,0.107529 1.138156,0.27015 1.710938,0.488281 v -1.423828 c -0.554453,-0.168974 -1.143716,-0.296789 -1.771485,-0.382812 -0.623186,-0.08602 -1.276228,-0.128907 -1.958984,-0.128907 z m 5.9375,0.123047 v 1.341797 h 5.347656 l -5.505859,4.464844 v 1.074219 h 8.943359 V 51.683594 H 36.525391 L 42.03125,47.21875 v -1.074219 z" />
      <path
         id="lpe_path-effect340"
         style="opacity:0.2;fill:#e6e6e6"
         class="powerclip"
         d="M 4.6784649,1.9709001 H 58.021723 V 61.968901 H 4.6784649 Z M 32.1875,7.0332031 v 1 h 1 v -1 z m 0,1 h -1 v 1 h 1 z m 0,1 v 0.9999999 h 1 V 9.0332031 Z m 0,0.9999999 h -1 v 1 h 1 z m 0,1 v 1 h 1 v -1 z m 0,1 h -1 v 1 h 1 z m 0,1 v 1 h 1 v -1 z m 0,1 h -1 v 1 h 1 z m 0,1 v 1 h 1 v -1 z m 0,1 h -1 v 1 h 1 z m 0,1 v 1 h 1 v -1 z m 0,1 h -1 v 1 h 1 z m 0,1 v 1 h 1 v -1 z m 0,1 h -1 v 1 h 1 c 0.04125,-0.367529 0,-1 0,-1 z m 0,1 v 1 h 1 v -1 z m 0,1 h -1 v 1 h 1 z m 0,1 v 1 h 1 v -1 z m 0,1 h -1 v 1 h 1 z m 0,1 v 1 h 1 v -1 z m 0,1 h -1 v 1 h 1 z m 0,1 c -2.210666,0 -4,1.8 -4,4 v 8 c 0,2.2 1.79,4 4,4 2.21,0 4,-1.8 4,-4 v -8 c 0,-1.85625 -1.274024,-3.427276 -3,-3.873047 v -0.126953 z m 0,2 c -1.104,0 -2,0.8 -2,2 0,0.999998 0.896,2 2,2 1.104,0 2,-1.000002 2,-2 0,-1.2 -0.896,-2 -2,-2 z m 0,6 c -1.10457,0 -2,0.89543 -2,2 v 2 c 0,1.10457 0.89543,2 2,2 1.10457,0 2,-0.89543 2,-2 v -2 c 0,-1.10457 -0.89543,-2 -2,-2 z m -4.720703,10.988281 c -1.768749,0 -3.162428,0.317167 -4.179688,0.953125 -1.017259,0.635959 -1.52539,1.5081 -1.52539,2.617188 0,1.096798 0.499116,1.967272 1.498047,2.609375 0.99893,0.639031 2.35332,0.958984 4.0625,0.958984 0.756071,0 1.488969,-0.05458 2.199218,-0.162109 0.710249,-0.107529 1.394844,-0.269316 2.054688,-0.484375 v -3.308594 h -4.123047 v 1.189453 h 1.615234 v 1.335938 c -0.187872,0.04916 -0.402348,0.08675 -0.640625,0.111328 -0.233695,0.02151 -0.486784,0.03125 -0.761718,0.03125 -1.012678,0 -1.79388,-0.197428 -2.34375,-0.59375 -0.549871,-0.396322 -0.826172,-0.959374 -0.826172,-1.6875 0,-0.734271 0.285316,-1.298156 0.853515,-1.691406 0.572781,-0.396323 1.385535,-0.59375 2.439453,-0.59375 0.568199,0 1.133649,0.05458 1.697266,0.162109 0.568199,0.107529 1.138156,0.27015 1.710938,0.488281 v -1.423828 c -0.554453,-0.168974 -1.143716,-0.296789 -1.771485,-0.382812 -0.623186,-0.08602 -1.276228,-0.128907 -1.958984,-0.128907 z m 5.9375,0.123047 v 1.341797 h 5.347656 l -5.505859,4.464844 v 1.074219 h 8.943359 V 51.683594 H 36.525391 L 42.03125,47.21875 v -1.074219 z" />
    </clipPath>
  </defs>
  <path
     x="9.6784649"
     y="6.9709001"
     width="43.343258"
     height="49.998001"
     rx="8.6689987"
     ry="10"
     fill="url(#linearGradient862)"
     stroke-width="3.14173"
     id="rect35"
     style="fill:#2c2c2c;fill-opacity:1"
     sodipodi:type="rect"
     clip-path="url(#clipPath336)"
     inkscape:path-effect="#path-effect340"
     d="m 18.347464,6.9709001 h 26.00526 c 4.802625,0 8.668999,4.4599999 8.668999,9.9999999 v 29.998001 c 0,5.54 -3.866374,10 -8.668999,10 h -26.00526 c -4.802626,0 -8.6689991,-4.46 -8.6689991,-10 V 16.9709 c 0,-5.54 3.8663731,-9.9999999 8.6689991,-9.9999999 z" />
  <ellipse
     cx="31.366306"
     cy="32.043999"
     fill-opacity="0"
     stroke-width="1.46319"
     id="circle39"
     rx="26.007862"
     ry="30.000999" />
  <circle
     cx="32.02"
     cy="32.044"
     r="0"
     fill="url(#b)"
     stroke-width="1.5715"
     id="circle41" />
  <g
     aria-label="GZ"
     transform="scale(1.2212657,0.81882264)"
     id="text93"
     style="font-weight:bold;font-size:11.5263px;line-height:1.25;font-family:sans-serif;-inkscape-font-specification:'sans-serif Bold';fill:#e6e6e6;stroke-width:0.288159" />
</svg>
