<?xml version="1.0" encoding="UTF-8" standalone="no"?>
<svg
   width="64"
   height="64"
   version="1.1"
   id="svg125"
   sodipodi:docname="application-vnd.nokia.qt.qmakeprofile.svg"
   inkscape:version="1.1 (1:1.1+202105261517+ce6663b3b7)"
   xmlns:inkscape="http://www.inkscape.org/namespaces/inkscape"
   xmlns:sodipodi="http://sodipodi.sourceforge.net/DTD/sodipodi-0.dtd"
   xmlns:xlink="http://www.w3.org/1999/xlink"
   xmlns="http://www.w3.org/2000/svg"
   xmlns:svg="http://www.w3.org/2000/svg"
   xmlns:rdf="http://www.w3.org/1999/02/22-rdf-syntax-ns#"
   xmlns:cc="http://creativecommons.org/ns#"
   xmlns:dc="http://purl.org/dc/elements/1.1/">
  <metadata
     id="metadata129">
    <rdf:RDF>
      <cc:Work
         rdf:about="">
        <dc:format>image/svg+xml</dc:format>
        <dc:type
           rdf:resource="http://purl.org/dc/dcmitype/StillImage" />
        <dc:title />
      </cc:Work>
    </rdf:RDF>
  </metadata>
  <sodipodi:namedview
     pagecolor="#ffffff"
     bordercolor="#666666"
     borderopacity="1"
     objecttolerance="10"
     gridtolerance="10"
     guidetolerance="10"
     inkscape:pageopacity="0"
     inkscape:pageshadow="2"
     inkscape:window-width="1920"
     inkscape:window-height="996"
     id="namedview127"
     showgrid="false"
     inkscape:zoom="12.578125"
     inkscape:cx="63.801242"
     inkscape:cy="30.648447"
     inkscape:window-x="0"
     inkscape:window-y="0"
     inkscape:window-maximized="1"
     inkscape:current-layer="g121"
     inkscape:document-rotation="0"
     inkscape:pagecheckerboard="0" />
  <defs
     id="defs47">
    <inkscape:path-effect
       effect="powerclip"
       id="path-effect161"
       is_visible="true"
       lpeversion="1"
       inverse="true"
       flatten="false"
       hide_clip="false"
       message="Use fill-rule evenodd on &lt;b&gt;fill and stroke&lt;/b&gt; dialog if no flatten result after convert clip to paths." />
    <linearGradient
       id="linearGradient6721-3"
       x1="7.9373"
       x2="7.9373"
       y1="15.346"
       y2="16.933"
       gradientUnits="userSpaceOnUse"
       xlink:href="#linearGradient6261" />
    <linearGradient
       id="linearGradient6261">
      <stop
         offset="0"
         id="stop3" />
      <stop
         stop-opacity="0"
         offset="1"
         id="stop5" />
    </linearGradient>
    <radialGradient
       id="radialGradient6723-5"
       cx="35"
       cy="4"
       r="3.7275"
       gradientTransform="matrix(1.696 0 0 1.0731 -24.361 -.29238)"
       gradientUnits="userSpaceOnUse"
       xlink:href="#linearGradient6261" />
    <linearGradient
       id="linearGradient6725-3"
       x1="43"
       x2="46.748"
       y1="12"
       y2="8.2517"
       gradientUnits="userSpaceOnUse"
       xlink:href="#linearGradient6261" />
    <radialGradient
       id="radialGradient6727-5"
       cx="52"
       cy="22"
       r="5.2061"
       gradientTransform="matrix(.96042 0 0 1.3331 2.0581 -7.3283)"
       gradientUnits="userSpaceOnUse"
       xlink:href="#linearGradient6261" />
    <linearGradient
       id="linearGradient6729-6"
       x1="5.8207"
       x2="5.8207"
       y1="1.0583"
       gradientUnits="userSpaceOnUse"
       xlink:href="#linearGradient6261" />
    <radialGradient
       id="radialGradient6731-2"
       cx="3.1749"
       cy="1.3229"
       r=".79373"
       gradientTransform="matrix(-2.1078e-8 -1.3333 1.6667 -2.6348e-8 .97012 5.2916)"
       gradientUnits="userSpaceOnUse"
       xlink:href="#linearGradient6261" />
    <linearGradient
       id="linearGradient6733-9"
       x1="13.758"
       x2="15.081"
       y1="10.583"
       y2="10.583"
       gradientUnits="userSpaceOnUse"
       xlink:href="#linearGradient6261" />
    <linearGradient
       id="linearGradient6735-1"
       x1="3.1749"
       x2="1.852"
       y1="8.4665"
       y2="8.4665"
       gradientUnits="userSpaceOnUse"
       xlink:href="#linearGradient6261" />
    <radialGradient
       id="radialGradient6737-2"
       cx="13.758"
       cy="15.346"
       r=".79373"
       gradientTransform="matrix(5.1718e-7 2 -1.6667 4.3098e-7 39.334 -12.171)"
       gradientUnits="userSpaceOnUse"
       xlink:href="#linearGradient6261" />
    <radialGradient
       id="radialGradient6739-7"
       cx="3.1749"
       cy="15.346"
       r=".79373"
       gradientTransform="matrix(-1.6667 -1.37e-6 1.644e-6 -2 8.4665 46.037)"
       gradientUnits="userSpaceOnUse"
       xlink:href="#linearGradient6261" />
    <linearGradient
       id="linearGradient6741-0"
       x1="7.9373"
       x2="7.9373"
       y1="15.346"
       y2="16.668"
       gradientUnits="userSpaceOnUse"
       xlink:href="#linearGradient6261" />
    <radialGradient
       id="radialGradient6743-9"
       cx="35"
       cy="4"
       r="3.7275"
       gradientTransform="matrix(1.6115 -1.9122e-7 9.5496e-8 .80482 -21.403 .78072)"
       gradientUnits="userSpaceOnUse"
       xlink:href="#linearGradient6261" />
    <linearGradient
       id="linearGradient6745-3"
       x1="43"
       x2="46.004"
       y1="12"
       y2="8.9965"
       gradientUnits="userSpaceOnUse"
       xlink:href="#linearGradient6261" />
    <radialGradient
       id="radialGradient6747-6"
       cx="52"
       cy="22"
       r="5.2061"
       gradientTransform="matrix(.76834 -9.6042e-8 1.534e-7 1.2272 12.047 -4.9986)"
       gradientUnits="userSpaceOnUse"
       xlink:href="#linearGradient6261" />
    <linearGradient
       id="linearGradient6749-0"
       x1="5.8207"
       x2="5.8207"
       y1="1.0583"
       y2=".26458"
       gradientUnits="userSpaceOnUse"
       xlink:href="#linearGradient6261" />
    <radialGradient
       id="radialGradient6751-6"
       cx="3.1749"
       cy="1.3229"
       r=".79373"
       gradientTransform="matrix(-7.442e-8 -1 1.3333 -9.9226e-8 1.4111 4.2333)"
       gradientUnits="userSpaceOnUse"
       xlink:href="#linearGradient6261" />
    <linearGradient
       id="linearGradient6753-2"
       x1="13.758"
       x2="14.816"
       y1="10.583"
       y2="10.583"
       gradientUnits="userSpaceOnUse"
       xlink:href="#linearGradient6261" />
    <linearGradient
       id="linearGradient6755-6"
       x1="3.1749"
       x2="2.1166"
       y1="8.4665"
       y2="8.4665"
       gradientUnits="userSpaceOnUse"
       xlink:href="#linearGradient6261" />
    <radialGradient
       id="radialGradient6757-1"
       cx="13.758"
       cy="15.346"
       r=".79373"
       gradientTransform="matrix(0 1.6667 -1.3333 0 34.219 -7.5846)"
       gradientUnits="userSpaceOnUse"
       xlink:href="#linearGradient6261" />
    <radialGradient
       id="radialGradient6759-8"
       cx="3.1749"
       cy="15.346"
       r=".79373"
       gradientTransform="matrix(-1.3333 0 0 -1.6667 7.4082 40.921)"
       gradientUnits="userSpaceOnUse"
       xlink:href="#linearGradient6261" />
    <linearGradient
       id="linearGradient6761-7"
       x1="21.039"
       x2="21.039"
       y1="2"
       y2="62"
       gradientTransform="matrix(.26458 0 0 .26458 0 -.26458)"
       gradientUnits="userSpaceOnUse">
      <stop
         stop-color="#ff5b59"
         offset="0"
         id="stop27" />
      <stop
         stop-color="#ff983d"
         offset="1"
         id="stop29" />
    </linearGradient>
    <radialGradient
       id="radialGradient6763-2"
       cx="40"
       cy="12"
       r="8"
       gradientTransform="matrix(1.5 0 0 -2 -14 40)"
       gradientUnits="userSpaceOnUse"
       xlink:href="#linearGradient6261" />
    <radialGradient
       id="radialGradient6765-3"
       cx="10.583"
       cy="4.2333"
       r="2.1166"
       gradientTransform="matrix(-2 3.1236e-7 -3.1236e-7 -2 31.749 12.7)"
       gradientUnits="userSpaceOnUse"
       xlink:href="#linearGradient6261" />
    <radialGradient
       id="radialGradient6767-7"
       cx="40"
       cy="12"
       r="8"
       gradientTransform="matrix(0 -1.5 2 0 16 70)"
       gradientUnits="userSpaceOnUse"
       xlink:href="#linearGradient6261" />
    <linearGradient
       id="linearGradient7282"
       x1="10.583"
       x2="6.3499"
       y1="3.1749"
       y2="3.1749"
       gradientTransform="matrix(1 0 0 .66667 0 1.4111)"
       gradientUnits="userSpaceOnUse"
       xlink:href="#linearGradient6261" />
    <linearGradient
       id="linearGradient7284"
       x1="10.583"
       x2="8.7311"
       y1="3.0426"
       y2="3.0426"
       gradientTransform="matrix(1 0 0 .66667 0 1.4111)"
       gradientUnits="userSpaceOnUse"
       xlink:href="#linearGradient6261" />
    <radialGradient
       id="radialGradient6773-5"
       cx="10.583"
       cy="4.2333"
       r="2.1166"
       gradientTransform="matrix(-.875 -1.6564e-7 1.6631e-7 -.87849 19.843 7.9521)"
       gradientUnits="userSpaceOnUse"
       xlink:href="#linearGradient6261" />
    <radialGradient
       id="radialGradient6775-9"
       cx="40"
       cy="12"
       r="8"
       gradientTransform="matrix(0 -1.3078 .87983 0 29.442 62.311)"
       gradientUnits="userSpaceOnUse"
       xlink:href="#linearGradient6261" />
    <linearGradient
       id="linearGradient7286"
       x1="10.583"
       x2="6.3499"
       y1="3.1749"
       y2="3.1749"
       gradientTransform="matrix(1 0 0 .66667 -14.816 9.3484)"
       gradientUnits="userSpaceOnUse"
       xlink:href="#linearGradient6261" />
    <linearGradient
       id="linearGradient7288"
       x1="10.583"
       x2="8.7237"
       y1="3.0426"
       y2="3.0426"
       gradientTransform="matrix(1 0 0 .66667 -14.816 9.3484)"
       gradientUnits="userSpaceOnUse"
       xlink:href="#linearGradient6261" />
    <radialGradient
       id="radialGradient6781-2"
       cx="40"
       cy="12"
       r="8"
       gradientTransform="matrix(1.4336 0 0 -.87849 -11.344 26.542)"
       gradientUnits="userSpaceOnUse"
       xlink:href="#linearGradient6261" />
    <linearGradient
       id="linearGradient7290"
       x1="40"
       x2="46"
       y1="17"
       y2="11"
       gradientTransform="matrix(.26458 0 0 .26458 -1.6667e-7 -.26458)"
       gradientUnits="userSpaceOnUse">
      <stop
         stop-color="#fefefe"
         offset="0"
         id="stop42" />
      <stop
         stop-color="#e9e9e9"
         offset="1"
         id="stop44" />
    </linearGradient>
    <clipPath
       clipPathUnits="userSpaceOnUse"
       id="clipPath157">
      <path
         id="path159"
         style="display:none;fill:#e6e6e6;stroke-width:0.146607"
         d="m 6.451575,4.9610782 c -0.6362895,0 -1.1362805,0.2115544 -1.4996214,0.635091 -0.3615681,0.4235366 -0.5420753,1.0085689 -0.5420753,1.7548981 0,0.748385 0.1813184,1.3323727 0.5446592,1.7517976 0.3633408,0.4194245 0.8719624,0.62889 1.5259758,0.62889 h 0.080097 L 7.2091369,10.570447 H 8.1847693 L 7.3848336,9.5343547 C 7.7428572,9.3452024 8.0163099,9.0636538 8.2059565,8.6894613 8.3973749,8.3152685 8.4932718,7.8691801 8.4932718,7.3510673 8.4932718,6.5965142 8.3135763,6.0093928 7.9537803,5.5899683 7.5957564,5.1705437 7.0949542,4.9610782 6.451575,4.9610782 Z M 9.3123275,5.213771 V 6.1945709 H 8.8389806 v 0.7896007 h 0.4733469 v 1.464482 c 0,0.4358728 0.077602,0.7456236 0.2335731,0.9286078 0.1577429,0.1809284 0.4247048,0.2712961 0.8004524,0.2712961 h 0.815955 v -0.789601 h -0.488849 c -0.163058,3e-7 -0.272159,-0.027685 -0.327106,-0.083197 -0.05495,-0.057568 -0.08268,-0.1667372 -0.08268,-0.3271055 V 6.984172 H 11.24499 V 6.1945709 H 10.263672 V 5.213771 Z M 6.451575,5.8214742 c 0.3137139,0 0.5567015,0.1337211 0.728624,0.4010015 0.1719221,0.2672801 0.2578603,0.6433749 0.2578603,1.1285916 0,0.4831607 -0.085938,0.8582107 -0.2578603,1.1254911 C 7.0082765,8.7438388 6.7652889,8.8775598 6.451575,8.8775598 6.1325442,8.8775598 5.8887451,8.7469724 5.7203675,8.4858599 5.5519902,8.2226916 5.4676746,7.8445079 5.4676746,7.3510673 c 0,-0.4852167 0.085938,-0.8613115 0.2578606,-1.1285916 C 5.8974574,5.9551953 6.1396338,5.8214742 6.451575,5.8214742 Z m 2.3522661,6.4470278 c -0.1077746,0.0027 -0.2037152,0.02577 -0.287832,0.06925 -0.089725,0.04538 -0.1716848,0.116734 -0.2454585,0.21342 v -0.24288 H 7.7351931 v 2.287672 h 0.5353575 v -0.869698 c 0.073774,0.09668 0.1557337,0.168083 0.2454585,0.214453 0.089725,0.04538 0.1928937,0.06821 0.3095359,0.06821 0.2063668,0 0.375893,-0.08107 0.5084861,-0.242875 0.1325934,-0.162786 0.1984337,-0.371813 0.1984337,-0.627339 0,-0.255527 -0.06584,-0.464506 -0.1984337,-0.626307 C 9.201438,12.349624 9.0319118,12.268502 8.825545,12.268502 c -0.00729,0 -0.014517,-1.81e-4 -0.021704,0 z m 2.1936229,0 c -0.114785,0.0029 -0.214051,0.02828 -0.298168,0.07545 -0.08873,0.04933 -0.167884,0.128148 -0.236673,0.236673 v -0.27233 H 9.9272653 v 1.657232 H 10.462623 V 13.20228 c 0,-0.162787 0.03733,-0.287827 0.111102,-0.374647 0.07477,-0.08781 0.180743,-0.131772 0.318321,-0.131772 0.04686,0 0.09315,0.0057 0.139007,0.01654 0.04686,0.0099 0.0937,0.02532 0.140557,0.04702 l -0.0016,-0.479031 c -0.03988,-0.0049 -0.07001,-0.0083 -0.09095,-0.0093 -0.02094,-0.002 -0.04045,-0.0026 -0.05839,-0.0026 -0.0078,0 -0.0156,-1.96e-4 -0.02325,0 z m 1.210755,0 c -0.276275,0.0047 -0.493755,0.08137 -0.652144,0.230473 -0.162501,0.153907 -0.243908,0.367443 -0.243908,0.639742 0,0.272298 0.08141,0.485317 0.243908,0.639225 0.163499,0.153908 0.389903,0.230989 0.679015,0.230989 0.288117,0 0.512861,-0.07708 0.674365,-0.230989 0.162501,-0.153908 0.243391,-0.366927 0.243391,-0.639225 0,-0.272299 -0.08089,-0.485835 -0.243391,-0.639742 -0.161504,-0.153908 -0.386248,-0.230473 -0.674365,-0.230473 -0.009,0 -0.01796,-1.5e-4 -0.02687,0 z m 0.02687,0.378781 c 0.116645,0 0.205871,0.04228 0.267679,0.127122 0.06181,0.08386 0.0925,0.205471 0.0925,0.364312 0,0.15884 -0.03069,0.280498 -0.0925,0.365345 -0.06181,0.08386 -0.151036,0.125571 -0.267679,0.125571 -0.118636,0 -0.209522,-0.04171 -0.272329,-0.125571 -0.06181,-0.08485 -0.0925,-0.206505 -0.0925,-0.365345 0,-0.158841 0.03069,-0.280453 0.0925,-0.364312 0.06281,-0.08485 0.153694,-0.127122 0.272329,-0.127122 z m -3.6084957,0.0057 c 0.1146482,0 0.2016611,0.04167 0.261478,0.124538 0.060813,0.08287 0.091465,0.203357 0.091465,0.361211 0,0.157855 -0.030652,0.277822 -0.091465,0.360695 -0.059817,0.08287 -0.1468296,0.124538 -0.261478,0.124538 -0.1146481,0 -0.2027677,-0.04166 -0.2645782,-0.124538 -0.060813,-0.08386 -0.091465,-0.203827 -0.091465,-0.360695 0,-0.156867 0.030652,-0.276787 0.091465,-0.359661 0.06181,-0.08386 0.1499301,-0.126088 0.2645782,-0.126088 z" />
      <path
         id="lpe_path-effect161"
         style="fill:#e6e6e6;stroke-width:0.146607"
         class="powerclip"
         d="M -1.7916522,-3.7813297 H 18.718883 V 20.283949 H -1.7916522 Z M 6.451575,4.9610782 c -0.6362895,0 -1.1362805,0.2115544 -1.4996214,0.635091 -0.3615681,0.4235366 -0.5420753,1.0085689 -0.5420753,1.7548981 0,0.748385 0.1813184,1.3323727 0.5446592,1.7517976 0.3633408,0.4194245 0.8719624,0.62889 1.5259758,0.62889 h 0.080097 L 7.2091369,10.570447 H 8.1847693 L 7.3848336,9.5343547 C 7.7428572,9.3452024 8.0163099,9.0636538 8.2059565,8.6894613 8.3973749,8.3152685 8.4932718,7.8691801 8.4932718,7.3510673 8.4932718,6.5965142 8.3135763,6.0093928 7.9537803,5.5899683 7.5957564,5.1705437 7.0949542,4.9610782 6.451575,4.9610782 Z M 9.3123275,5.213771 V 6.1945709 H 8.8389806 v 0.7896007 h 0.4733469 v 1.464482 c 0,0.4358728 0.077602,0.7456236 0.2335731,0.9286078 0.1577429,0.1809284 0.4247048,0.2712961 0.8004524,0.2712961 h 0.815955 v -0.789601 h -0.488849 c -0.163058,3e-7 -0.272159,-0.027685 -0.327106,-0.083197 -0.05495,-0.057568 -0.08268,-0.1667372 -0.08268,-0.3271055 V 6.984172 H 11.24499 V 6.1945709 H 10.263672 V 5.213771 Z M 6.451575,5.8214742 c -0.3119412,0 -0.5541176,0.1337211 -0.7260398,0.4010015 -0.1719226,0.2672801 -0.2578606,0.6433749 -0.2578606,1.1285916 0,0.4934406 0.084316,0.8716243 0.2526929,1.1347926 0.1683776,0.2611125 0.4121767,0.3916999 0.7312075,0.3916999 0.3137139,0 0.5567015,-0.133721 0.728624,-0.4010014 C 7.3521213,8.209278 7.4380593,7.834228 7.4380593,7.3510673 7.4380593,6.8658506 7.3521211,6.4897558 7.180199,6.2224757 7.0082765,5.9551953 6.7652889,5.8214742 6.451575,5.8214742 Z m 2.3522661,6.4470278 c -0.1077746,0.0027 -0.2037152,0.02577 -0.287832,0.06925 -0.089725,0.04538 -0.1716848,0.116734 -0.2454585,0.21342 v -0.24288 H 7.7351931 v 2.287672 h 0.5353575 v -0.869698 c 0.073774,0.09668 0.1557337,0.168083 0.2454585,0.214453 0.089725,0.04538 0.1928937,0.06821 0.3095359,0.06821 0.2063668,0 0.375893,-0.08107 0.5084861,-0.242875 0.1325934,-0.162786 0.1984337,-0.371813 0.1984337,-0.627339 0,-0.255527 -0.06584,-0.464506 -0.1984337,-0.626307 C 9.201438,12.349624 9.0319118,12.268502 8.825545,12.268502 c -0.00729,0 -0.014517,-1.81e-4 -0.021704,0 z m 2.1936229,0 c -0.114785,0.0029 -0.214051,0.02828 -0.298168,0.07545 -0.08873,0.04933 -0.167884,0.128148 -0.236673,0.236673 v -0.27233 H 9.9272653 v 1.657232 H 10.462623 V 13.20228 c 0,-0.162787 0.03733,-0.287827 0.111102,-0.374647 0.07477,-0.08781 0.180743,-0.131772 0.318321,-0.131772 0.04686,0 0.09315,0.0057 0.139007,0.01654 0.04686,0.0099 0.0937,0.02532 0.140557,0.04702 l -0.0016,-0.479031 c -0.03988,-0.0049 -0.07001,-0.0083 -0.09095,-0.0093 -0.02094,-0.002 -0.04045,-0.0026 -0.05839,-0.0026 -0.0078,0 -0.0156,-1.96e-4 -0.02325,0 z m 1.210755,0 c -0.276275,0.0047 -0.493755,0.08137 -0.652144,0.230473 -0.162501,0.153907 -0.243908,0.367443 -0.243908,0.639742 0,0.272298 0.08141,0.485317 0.243908,0.639225 0.163499,0.153908 0.389903,0.230989 0.679015,0.230989 0.288117,0 0.512861,-0.07708 0.674365,-0.230989 0.162501,-0.153908 0.243391,-0.366927 0.243391,-0.639225 0,-0.272299 -0.08089,-0.485835 -0.243391,-0.639742 -0.161504,-0.153908 -0.386248,-0.230473 -0.674365,-0.230473 -0.009,0 -0.01796,-1.5e-4 -0.02687,0 z m 0.02687,0.378781 c -0.118635,0 -0.209519,0.04227 -0.272329,0.127122 -0.06181,0.08386 -0.0925,0.205471 -0.0925,0.364312 0,0.15884 0.03069,0.280495 0.0925,0.365345 0.06281,0.08386 0.153693,0.125571 0.272329,0.125571 0.116643,0 0.205869,-0.04171 0.267679,-0.125571 0.06181,-0.08485 0.0925,-0.206505 0.0925,-0.365345 0,-0.158841 -0.03069,-0.280452 -0.0925,-0.364312 -0.06181,-0.08484 -0.151034,-0.127122 -0.267679,-0.127122 z m -3.6084957,0.0057 c -0.1146481,0 -0.2027682,0.04223 -0.2645782,0.126088 -0.060813,0.08287 -0.091465,0.202794 -0.091465,0.359661 0,0.156868 0.030652,0.276835 0.091465,0.360695 0.06181,0.08288 0.1499301,0.124538 0.2645782,0.124538 0.1146484,0 0.201661,-0.04167 0.261478,-0.124538 0.060813,-0.08287 0.091465,-0.20284 0.091465,-0.360695 0,-0.157854 -0.030652,-0.278341 -0.091465,-0.361211 -0.059817,-0.08287 -0.1468298,-0.124538 -0.261478,-0.124538 z" />
    </clipPath>
  </defs>
  <g
     transform="matrix(3.7796 0 0 3.7796 -.021092 1.0245)"
     id="g121">
    <rect
       x="8.7209"
       y="-.54211"
       width="6.6358"
       height="6.6348"
       fill="none"
       id="rect97" />
    <path
       d="m 3.6653411,1.219379 c -0.2531703,0 -0.4569933,0.2091037 -0.4569933,0.4688332 V 14.815114 c 0,0.259739 0.203823,0.468835 0.4569933,0.468835 H 13.26189 c 0.25318,0 0.456993,-0.209104 0.456993,-0.468835 V 5.6725322 c 0,-0.2344167 -0.139155,-0.6115936 -0.456993,-0.9376488 l -2.970423,-3.04738 C 9.9857202,1.2905865 9.6059778,1.2186703 9.3774984,1.2186703 Z"
       fill="url(#linearGradient6761-7)"
       stroke-width="0.231438"
       id="path93-3"
       style="fill:#2c2c2c"
       clip-path="url(#clipPath157)"
       inkscape:path-effect="#path-effect161"
       inkscape:original-d="m 3.6653411,1.219379 c -0.2531703,0 -0.4569933,0.2091037 -0.4569933,0.4688332 V 14.815114 c 0,0.259739 0.203823,0.468835 0.4569933,0.468835 H 13.26189 c 0.25318,0 0.456993,-0.209104 0.456993,-0.468835 V 5.6725322 c 0,-0.2344167 -0.139155,-0.6115936 -0.456993,-0.9376488 l -2.970423,-3.04738 C 9.9857202,1.2905865 9.6059778,1.2186703 9.3774984,1.2186703 Z" />
    <text
       xml:space="preserve"
       style="font-weight:bold;font-size:2.89813px;line-height:1.25;font-family:sans-serif;-inkscape-font-specification:'sans-serif Bold';fill:#f2f2f2;stroke-width:0.0724533"
       x="3.1518662"
       y="18.611214"
       id="text80"
       transform="scale(1.3094601,0.76367352)"><tspan
         sodipodi:role="line"
         id="tspan78"
         x="3.1518662"
         y="18.611214"
         style="fill:#f2f2f2;stroke-width:0.0724533" /></text>
    <g
       aria-label="Qt"
       transform="scale(0.92847089,1.0770397)"
       id="text88"
       style="font-weight:bold;font-size:5.86426px;line-height:1.25;font-family:sans-serif;-inkscape-font-specification:'sans-serif Bold';fill:#e6e6e6;stroke-width:0.146607" />
    <g
       aria-label="pro"
       transform="scale(1.0052333,0.99479394)"
       id="text92"
       style="font-weight:bold;font-size:3.04666px;line-height:1.25;font-family:sans-serif;-inkscape-font-specification:'sans-serif Bold';fill:#e6e6e6;stroke-width:0.0761667" />
  </g>
</svg>
