<?xml version="1.0" encoding="UTF-8" standalone="no"?>
<svg
   width="64"
   height="64"
   version="1.1"
   id="svg125"
   sodipodi:docname="application-x-cd-image.svg"
   inkscape:version="1.1 (1:1.1+rc+202105240936+c4e8f9ed74)"
   xmlns:inkscape="http://www.inkscape.org/namespaces/inkscape"
   xmlns:sodipodi="http://sodipodi.sourceforge.net/DTD/sodipodi-0.dtd"
   xmlns:xlink="http://www.w3.org/1999/xlink"
   xmlns="http://www.w3.org/2000/svg"
   xmlns:svg="http://www.w3.org/2000/svg"
   xmlns:rdf="http://www.w3.org/1999/02/22-rdf-syntax-ns#"
   xmlns:cc="http://creativecommons.org/ns#"
   xmlns:dc="http://purl.org/dc/elements/1.1/">
  <metadata
     id="metadata129">
    <rdf:RDF>
      <cc:Work
         rdf:about="">
        <dc:format>image/svg+xml</dc:format>
        <dc:type
           rdf:resource="http://purl.org/dc/dcmitype/StillImage" />
        <dc:title />
      </cc:Work>
    </rdf:RDF>
  </metadata>
  <sodipodi:namedview
     pagecolor="#ffffff"
     bordercolor="#666666"
     borderopacity="1"
     objecttolerance="10"
     gridtolerance="10"
     guidetolerance="10"
     inkscape:pageopacity="0"
     inkscape:pageshadow="2"
     inkscape:window-width="1920"
     inkscape:window-height="996"
     id="namedview127"
     showgrid="false"
     inkscape:zoom="12.578125"
     inkscape:cx="38.678261"
     inkscape:cy="35.180124"
     inkscape:window-x="0"
     inkscape:window-y="0"
     inkscape:window-maximized="1"
     inkscape:current-layer="g121"
     inkscape:document-rotation="0"
     inkscape:pagecheckerboard="0" />
  <defs
     id="defs47">
    <inkscape:path-effect
       effect="powerclip"
       id="path-effect308"
       is_visible="true"
       lpeversion="1"
       inverse="true"
       flatten="false"
       hide_clip="false"
       message="Use fill-rule evenodd on &lt;b&gt;fill and stroke&lt;/b&gt; dialog if no flatten result after convert clip to paths." />
    <linearGradient
       id="linearGradient6721-3"
       x1="7.9373"
       x2="7.9373"
       y1="15.346"
       y2="16.933"
       gradientUnits="userSpaceOnUse"
       xlink:href="#linearGradient6261" />
    <linearGradient
       id="linearGradient6261">
      <stop
         offset="0"
         id="stop3" />
      <stop
         stop-opacity="0"
         offset="1"
         id="stop5" />
    </linearGradient>
    <radialGradient
       id="radialGradient6723-5"
       cx="35"
       cy="4"
       r="3.7275"
       gradientTransform="matrix(1.696 0 0 1.0731 -24.361 -.29238)"
       gradientUnits="userSpaceOnUse"
       xlink:href="#linearGradient6261" />
    <linearGradient
       id="linearGradient6725-3"
       x1="43"
       x2="46.748"
       y1="12"
       y2="8.2517"
       gradientUnits="userSpaceOnUse"
       xlink:href="#linearGradient6261" />
    <radialGradient
       id="radialGradient6727-5"
       cx="52"
       cy="22"
       r="5.2061"
       gradientTransform="matrix(.96042 0 0 1.3331 2.0581 -7.3283)"
       gradientUnits="userSpaceOnUse"
       xlink:href="#linearGradient6261" />
    <linearGradient
       id="linearGradient6729-6"
       x1="5.8207"
       x2="5.8207"
       y1="1.0583"
       gradientUnits="userSpaceOnUse"
       xlink:href="#linearGradient6261" />
    <radialGradient
       id="radialGradient6731-2"
       cx="3.1749"
       cy="1.3229"
       r=".79373"
       gradientTransform="matrix(-2.1078e-8 -1.3333 1.6667 -2.6348e-8 .97012 5.2916)"
       gradientUnits="userSpaceOnUse"
       xlink:href="#linearGradient6261" />
    <linearGradient
       id="linearGradient6733-9"
       x1="13.758"
       x2="15.081"
       y1="10.583"
       y2="10.583"
       gradientUnits="userSpaceOnUse"
       xlink:href="#linearGradient6261" />
    <linearGradient
       id="linearGradient6735-1"
       x1="3.1749"
       x2="1.852"
       y1="8.4665"
       y2="8.4665"
       gradientUnits="userSpaceOnUse"
       xlink:href="#linearGradient6261" />
    <radialGradient
       id="radialGradient6737-2"
       cx="13.758"
       cy="15.346"
       r=".79373"
       gradientTransform="matrix(5.1718e-7 2 -1.6667 4.3098e-7 39.334 -12.171)"
       gradientUnits="userSpaceOnUse"
       xlink:href="#linearGradient6261" />
    <radialGradient
       id="radialGradient6739-7"
       cx="3.1749"
       cy="15.346"
       r=".79373"
       gradientTransform="matrix(-1.6667 -1.37e-6 1.644e-6 -2 8.4665 46.037)"
       gradientUnits="userSpaceOnUse"
       xlink:href="#linearGradient6261" />
    <linearGradient
       id="linearGradient6741-0"
       x1="7.9373"
       x2="7.9373"
       y1="15.346"
       y2="16.668"
       gradientUnits="userSpaceOnUse"
       xlink:href="#linearGradient6261" />
    <radialGradient
       id="radialGradient6743-9"
       cx="35"
       cy="4"
       r="3.7275"
       gradientTransform="matrix(1.6115 -1.9122e-7 9.5496e-8 .80482 -21.403 .78072)"
       gradientUnits="userSpaceOnUse"
       xlink:href="#linearGradient6261" />
    <linearGradient
       id="linearGradient6745-3"
       x1="43"
       x2="46.004"
       y1="12"
       y2="8.9965"
       gradientUnits="userSpaceOnUse"
       xlink:href="#linearGradient6261" />
    <radialGradient
       id="radialGradient6747-6"
       cx="52"
       cy="22"
       r="5.2061"
       gradientTransform="matrix(.76834 -9.6042e-8 1.534e-7 1.2272 12.047 -4.9986)"
       gradientUnits="userSpaceOnUse"
       xlink:href="#linearGradient6261" />
    <linearGradient
       id="linearGradient6749-0"
       x1="5.8207"
       x2="5.8207"
       y1="1.0583"
       y2=".26458"
       gradientUnits="userSpaceOnUse"
       xlink:href="#linearGradient6261" />
    <radialGradient
       id="radialGradient6751-6"
       cx="3.1749"
       cy="1.3229"
       r=".79373"
       gradientTransform="matrix(-7.442e-8 -1 1.3333 -9.9226e-8 1.4111 4.2333)"
       gradientUnits="userSpaceOnUse"
       xlink:href="#linearGradient6261" />
    <linearGradient
       id="linearGradient6753-2"
       x1="13.758"
       x2="14.816"
       y1="10.583"
       y2="10.583"
       gradientUnits="userSpaceOnUse"
       xlink:href="#linearGradient6261" />
    <linearGradient
       id="linearGradient6755-6"
       x1="3.1749"
       x2="2.1166"
       y1="8.4665"
       y2="8.4665"
       gradientUnits="userSpaceOnUse"
       xlink:href="#linearGradient6261" />
    <radialGradient
       id="radialGradient6757-1"
       cx="13.758"
       cy="15.346"
       r=".79373"
       gradientTransform="matrix(0 1.6667 -1.3333 0 34.219 -7.5846)"
       gradientUnits="userSpaceOnUse"
       xlink:href="#linearGradient6261" />
    <radialGradient
       id="radialGradient6759-8"
       cx="3.1749"
       cy="15.346"
       r=".79373"
       gradientTransform="matrix(-1.3333 0 0 -1.6667 7.4082 40.921)"
       gradientUnits="userSpaceOnUse"
       xlink:href="#linearGradient6261" />
    <linearGradient
       id="linearGradient6761-7"
       x1="21.039"
       x2="21.039"
       y1="2"
       y2="62"
       gradientTransform="matrix(.26458 0 0 .26458 0 -.26458)"
       gradientUnits="userSpaceOnUse">
      <stop
         stop-color="#ff5b59"
         offset="0"
         id="stop27" />
      <stop
         stop-color="#ff983d"
         offset="1"
         id="stop29" />
    </linearGradient>
    <radialGradient
       id="radialGradient6763-2"
       cx="40"
       cy="12"
       r="8"
       gradientTransform="matrix(1.5 0 0 -2 -14 40)"
       gradientUnits="userSpaceOnUse"
       xlink:href="#linearGradient6261" />
    <radialGradient
       id="radialGradient6765-3"
       cx="10.583"
       cy="4.2333"
       r="2.1166"
       gradientTransform="matrix(-2 3.1236e-7 -3.1236e-7 -2 31.749 12.7)"
       gradientUnits="userSpaceOnUse"
       xlink:href="#linearGradient6261" />
    <radialGradient
       id="radialGradient6767-7"
       cx="40"
       cy="12"
       r="8"
       gradientTransform="matrix(0 -1.5 2 0 16 70)"
       gradientUnits="userSpaceOnUse"
       xlink:href="#linearGradient6261" />
    <linearGradient
       id="linearGradient7282"
       x1="10.583"
       x2="6.3499"
       y1="3.1749"
       y2="3.1749"
       gradientTransform="matrix(1 0 0 .66667 0 1.4111)"
       gradientUnits="userSpaceOnUse"
       xlink:href="#linearGradient6261" />
    <linearGradient
       id="linearGradient7284"
       x1="10.583"
       x2="8.7311"
       y1="3.0426"
       y2="3.0426"
       gradientTransform="matrix(1 0 0 .66667 0 1.4111)"
       gradientUnits="userSpaceOnUse"
       xlink:href="#linearGradient6261" />
    <radialGradient
       id="radialGradient6773-5"
       cx="10.583"
       cy="4.2333"
       r="2.1166"
       gradientTransform="matrix(-.875 -1.6564e-7 1.6631e-7 -.87849 19.843 7.9521)"
       gradientUnits="userSpaceOnUse"
       xlink:href="#linearGradient6261" />
    <radialGradient
       id="radialGradient6775-9"
       cx="40"
       cy="12"
       r="8"
       gradientTransform="matrix(0 -1.3078 .87983 0 29.442 62.311)"
       gradientUnits="userSpaceOnUse"
       xlink:href="#linearGradient6261" />
    <linearGradient
       id="linearGradient7286"
       x1="10.583"
       x2="6.3499"
       y1="3.1749"
       y2="3.1749"
       gradientTransform="matrix(1 0 0 .66667 -14.816 9.3484)"
       gradientUnits="userSpaceOnUse"
       xlink:href="#linearGradient6261" />
    <linearGradient
       id="linearGradient7288"
       x1="10.583"
       x2="8.7237"
       y1="3.0426"
       y2="3.0426"
       gradientTransform="matrix(1 0 0 .66667 -14.816 9.3484)"
       gradientUnits="userSpaceOnUse"
       xlink:href="#linearGradient6261" />
    <radialGradient
       id="radialGradient6781-2"
       cx="40"
       cy="12"
       r="8"
       gradientTransform="matrix(1.4336 0 0 -.87849 -11.344 26.542)"
       gradientUnits="userSpaceOnUse"
       xlink:href="#linearGradient6261" />
    <linearGradient
       id="linearGradient7290"
       x1="40"
       x2="46"
       y1="17"
       y2="11"
       gradientTransform="matrix(.26458 0 0 .26458 -1.6667e-7 -.26458)"
       gradientUnits="userSpaceOnUse">
      <stop
         stop-color="#fefefe"
         offset="0"
         id="stop42" />
      <stop
         stop-color="#e9e9e9"
         offset="1"
         id="stop44" />
    </linearGradient>
    <clipPath
       clipPathUnits="userSpaceOnUse"
       id="clipPath304">
      <path
         id="path306"
         style="display:none;fill:#e6e6e6;stroke-width:0.090831"
         d="m 8.4607162,4.9962173 c -1.546289,0 -2.7997754,1.1626022 -2.7997754,2.5972077 0,1.4346055 1.2534864,2.597725 2.7997754,2.597725 1.5462878,0 2.7997758,-1.1631195 2.7997758,-2.597725 0,-1.4346055 -1.253488,-2.5972077 -2.7997758,-2.5972077 z m 0,0.5772148 c 0.085905,0 0.1555432,0.064474 0.1555432,0.1441745 0,0.079699 -0.069638,0.1441745 -0.1555432,0.1441745 -1.0308591,0 -1.8665168,0.7752403 -1.8665168,1.7316439 0,0.079702 -0.069638,0.1446912 -0.1555432,0.1446912 -0.085905,0 -0.1555432,-0.064991 -0.1555432,-0.1446912 0,-1.1158038 0.9749339,-2.0199929 2.1776032,-2.0199929 z m 0,0.8655636 c 0.6872394,0 1.2443447,0.5168271 1.2443447,1.1544293 0,0.6376016 -0.5571053,1.1549463 -1.2443447,1.1549463 -0.6872396,0 -1.2443446,-0.5173447 -1.2443446,-1.1549463 0,-0.6376022 0.557105,-1.1544293 1.2443446,-1.1544293 z m 0,0.2888657 c -0.5154297,0 -0.9332583,0.3873616 -0.9332583,0.8655636 0,0.4782019 0.4178286,0.8660805 0.9332583,0.8660805 0.5154297,0 0.9332586,-0.3878786 0.9332586,-0.8660805 0,-0.478202 -0.4178289,-0.8655636 -0.9332586,-0.8655636 z m 0,0.288349 c 0.3436197,0 0.6221725,0.2584128 0.6221725,0.5772146 0,0.3188017 -0.2785528,0.5777315 -0.6221725,0.5777315 -0.3436199,0 -0.6221722,-0.2589298 -0.6221722,-0.5777315 0,-0.3188018 0.2785523,-0.5772146 0.6221722,-0.5772146 z M 6.8892661,12.002891 c -0.5420624,0 -0.9714602,0.100618 -1.2882686,0.301784 -0.3168087,0.200205 -0.4748974,0.472923 -0.4748974,0.817506 0,0.34362 0.1580887,0.615822 0.4748974,0.816988 0.3168084,0.200205 0.7462062,0.300235 1.2882686,0.300235 0.1816562,0 0.3563485,-0.01336 0.5234723,-0.04031 0.1671238,-0.02695 0.3275706,-0.06695 0.481615,-0.119887 v -0.445959 c -0.1554977,0.07026 -0.3087734,0.121783 -0.4599114,0.15451 -0.1511379,0.03273 -0.3103572,0.04909 -0.4774809,0.04909 -0.2993696,0 -0.5349199,-0.06363 -0.7064034,-0.190682 -0.1714837,-0.127053 -0.2568271,-0.301647 -0.2568271,-0.523989 2e-7,-0.223305 0.085343,-0.398487 0.2568271,-0.525539 0.1714835,-0.127053 0.4070338,-0.190683 0.7064034,-0.190683 0.1671237,0 0.326343,0.01636 0.4774809,0.04909 0.151138,0.03273 0.3044137,0.08425 0.4599114,0.15451 v -0.44647 C 7.740309,12.110144 7.5798622,12.070146 7.4127384,12.043198 7.2456146,12.016249 7.0709223,12.002891 6.8892661,12.002891 Z m 1.7006387,0.03927 v 2.155383 h 0.8846835 c 0.4882922,0 0.8544737,-0.02305 1.0986197,-0.06925 0.244146,-0.04716 0.453467,-0.126572 0.627857,-0.238224 0.152591,-0.09721 0.265908,-0.209354 0.340024,-0.336407 0.07412,-0.128015 0.111619,-0.273475 0.111619,-0.436141 0,-0.160741 -0.0375,-0.304437 -0.111619,-0.43149 -0.07412,-0.127053 -0.187433,-0.239192 -0.340024,-0.336407 -0.172937,-0.11165 -0.380513,-0.19047 -0.623206,-0.236673 -0.24124,-0.04716 -0.6091655,-0.0708 -1.1032707,-0.0708 z m 0.8392094,0.420121 h 0.3007509 c 0.3444199,0 0.6068139,0.05578 0.7870169,0.167429 0.180203,0.111652 0.270263,0.274136 0.270263,0.487816 0,0.214642 -0.09067,0.378301 -0.27233,0.490917 -0.180203,0.112614 -0.441983,0.168978 -0.7849499,0.168978 H 9.4291142 Z" />
      <path
         id="lpe_path-effect308"
         style="fill:#e6e6e6;stroke-width:0.090831"
         class="powerclip"
         d="M -1.7916522,-3.7813297 H 18.718883 V 20.283949 H -1.7916522 Z m 10.2523684,8.777547 c -1.546289,0 -2.7997754,1.1626022 -2.7997754,2.5972077 0,1.4346055 1.2534864,2.597725 2.7997754,2.597725 1.5462878,0 2.7997758,-1.1631195 2.7997758,-2.597725 0,-1.4346055 -1.253488,-2.5972077 -2.7997758,-2.5972077 z m 0,0.5772148 c -1.2026693,0 -2.1776032,0.9041891 -2.1776032,2.0199929 0,0.0797 0.069638,0.1446912 0.1555432,0.1446912 0.085905,0 0.1555432,-0.064989 0.1555432,-0.1446912 0,-0.9564036 0.8356577,-1.7316439 1.8665168,-1.7316439 0.085905,0 0.1555432,-0.064476 0.1555432,-0.1441745 0,-0.0797 -0.069638,-0.1441745 -0.1555432,-0.1441745 z m 0,0.8655636 c -0.6872396,0 -1.2443446,0.5168271 -1.2443446,1.1544293 0,0.6376016 0.557105,1.1549463 1.2443446,1.1549463 0.6872394,0 1.2443447,-0.5173447 1.2443447,-1.1549463 0,-0.6376022 -0.5571053,-1.1544293 -1.2443447,-1.1544293 z m 0,0.2888657 c -0.5154297,0 -0.9332583,0.3873616 -0.9332583,0.8655636 0,0.4782019 0.4178286,0.8660805 0.9332583,0.8660805 0.5154297,0 0.9332586,-0.3878786 0.9332586,-0.8660805 0,-0.478202 -0.4178289,-0.8655636 -0.9332586,-0.8655636 z m 0,0.288349 c -0.3436199,0 -0.6221722,0.2584128 -0.6221722,0.5772146 0,0.3188017 0.2785523,0.5777315 0.6221722,0.5777315 0.3436197,0 0.6221725,-0.2589298 0.6221725,-0.5777315 0,-0.3188018 -0.2785528,-0.5772146 -0.6221725,-0.5772146 z M 6.8892661,12.002891 c -0.5420624,0 -0.9714602,0.100618 -1.2882686,0.301784 -0.3168087,0.200205 -0.4748974,0.472923 -0.4748974,0.817506 0,0.34362 0.1580887,0.615822 0.4748974,0.816988 0.3168084,0.200205 0.7462062,0.300235 1.2882686,0.300235 0.1816562,0 0.3563485,-0.01336 0.5234723,-0.04031 0.1671238,-0.02695 0.3275706,-0.06695 0.481615,-0.119887 v -0.445959 c -0.1554977,0.07026 -0.3087734,0.121783 -0.4599114,0.15451 -0.1511379,0.03273 -0.3103572,0.04909 -0.4774809,0.04909 -0.2993696,0 -0.5349199,-0.06363 -0.7064034,-0.190682 -0.1714837,-0.127053 -0.2568271,-0.301647 -0.2568271,-0.523989 2e-7,-0.223305 0.085343,-0.398487 0.2568271,-0.525539 0.1714835,-0.127053 0.4070338,-0.190683 0.7064034,-0.190683 0.1671237,0 0.326343,0.01636 0.4774809,0.04909 0.151138,0.03273 0.3044137,0.08425 0.4599114,0.15451 v -0.44647 C 7.740309,12.110144 7.5798622,12.070146 7.4127384,12.043198 7.2456146,12.016249 7.0709223,12.002891 6.8892661,12.002891 Z m 1.7006387,0.03927 v 2.155383 h 0.8846835 c 0.4882922,0 0.8544737,-0.02305 1.0986197,-0.06925 0.244146,-0.04716 0.453467,-0.126572 0.627857,-0.238224 0.152591,-0.09721 0.265908,-0.209354 0.340024,-0.336407 0.07412,-0.128015 0.111619,-0.273475 0.111619,-0.436141 0,-0.160741 -0.0375,-0.304437 -0.111619,-0.43149 -0.07412,-0.127053 -0.187433,-0.239192 -0.340024,-0.336407 -0.172937,-0.11165 -0.380513,-0.19047 -0.623206,-0.236673 -0.24124,-0.04716 -0.6091655,-0.0708 -1.1032707,-0.0708 z m 0.8392094,0.420121 v 1.31514 h 0.3007509 c 0.3429669,0 0.6047469,-0.05636 0.7849499,-0.168978 0.18166,-0.112616 0.27233,-0.276275 0.27233,-0.490917 0,-0.21368 -0.09006,-0.376164 -0.270263,-0.487816 -0.180203,-0.111649 -0.442597,-0.167429 -0.7870169,-0.167429 z" />
    </clipPath>
  </defs>
  <g
     transform="matrix(3.7796 0 0 3.7796 -.021092 1.0245)"
     id="g121">
    <rect
       x="8.7209"
       y="-.54211"
       width="6.6358"
       height="6.6348"
       fill="none"
       id="rect97" />
    <path
       d="m 3.6653411,1.219379 c -0.2531703,0 -0.4569933,0.2091037 -0.4569933,0.4688332 V 14.815114 c 0,0.259739 0.203823,0.468835 0.4569933,0.468835 H 13.26189 c 0.25318,0 0.456993,-0.209104 0.456993,-0.468835 V 5.6725322 c 0,-0.2344167 -0.139155,-0.6115936 -0.456993,-0.9376488 l -2.970423,-3.04738 C 9.9857202,1.2905865 9.6059778,1.2186703 9.3774984,1.2186703 Z"
       fill="url(#linearGradient6761-7)"
       stroke-width="0.231438"
       id="path93-3"
       style="fill:#2c2c2c"
       clip-path="url(#clipPath304)"
       inkscape:path-effect="#path-effect308"
       inkscape:original-d="m 3.6653411,1.219379 c -0.2531703,0 -0.4569933,0.2091037 -0.4569933,0.4688332 V 14.815114 c 0,0.259739 0.203823,0.468835 0.4569933,0.468835 H 13.26189 c 0.25318,0 0.456993,-0.209104 0.456993,-0.468835 V 5.6725322 c 0,-0.2344167 -0.139155,-0.6115936 -0.456993,-0.9376488 l -2.970423,-3.04738 C 9.9857202,1.2905865 9.6059778,1.2186703 9.3774984,1.2186703 Z" />
    <g
       aria-label="CD"
       transform="matrix(1.2287544,0,0,0.81383228,-0.66919633,-0.0165156)"
       id="text134"
       style="font-weight:bold;font-size:3.63326px;line-height:1.25;font-family:sans-serif;-inkscape-font-specification:'sans-serif Bold';fill:#e6e6e6;stroke-width:0.0908311" />
  </g>
</svg>
