<?xml version="1.0" encoding="UTF-8" standalone="no"?>
<svg
   width="64"
   height="64"
   version="1.1"
   id="svg125"
   sodipodi:docname="application-x-perl.svg"
   inkscape:version="1.1 (1:1.1+rc+202105240936+c4e8f9ed74)"
   xmlns:inkscape="http://www.inkscape.org/namespaces/inkscape"
   xmlns:sodipodi="http://sodipodi.sourceforge.net/DTD/sodipodi-0.dtd"
   xmlns:xlink="http://www.w3.org/1999/xlink"
   xmlns="http://www.w3.org/2000/svg"
   xmlns:svg="http://www.w3.org/2000/svg"
   xmlns:rdf="http://www.w3.org/1999/02/22-rdf-syntax-ns#"
   xmlns:cc="http://creativecommons.org/ns#"
   xmlns:dc="http://purl.org/dc/elements/1.1/">
  <metadata
     id="metadata129">
    <rdf:RDF>
      <cc:Work
         rdf:about="">
        <dc:format>image/svg+xml</dc:format>
        <dc:type
           rdf:resource="http://purl.org/dc/dcmitype/StillImage" />
        <dc:title />
      </cc:Work>
    </rdf:RDF>
  </metadata>
  <sodipodi:namedview
     pagecolor="#ffffff"
     bordercolor="#666666"
     borderopacity="1"
     objecttolerance="10"
     gridtolerance="10"
     guidetolerance="10"
     inkscape:pageopacity="0"
     inkscape:pageshadow="2"
     inkscape:window-width="1920"
     inkscape:window-height="996"
     id="namedview127"
     showgrid="false"
     inkscape:zoom="12.578125"
     inkscape:cx="32"
     inkscape:cy="36.293168"
     inkscape:window-x="0"
     inkscape:window-y="0"
     inkscape:window-maximized="1"
     inkscape:current-layer="g121"
     inkscape:document-rotation="0"
     inkscape:pagecheckerboard="0" />
  <defs
     id="defs47">
    <inkscape:path-effect
       effect="powerclip"
       id="path-effect53"
       is_visible="true"
       lpeversion="1"
       inverse="true"
       flatten="false"
       hide_clip="false"
       message="Use fill-rule evenodd on &lt;b&gt;fill and stroke&lt;/b&gt; dialog if no flatten result after convert clip to paths." />
    <linearGradient
       id="linearGradient6721-3"
       x1="7.9373"
       x2="7.9373"
       y1="15.346"
       y2="16.933"
       gradientUnits="userSpaceOnUse"
       xlink:href="#linearGradient6261" />
    <linearGradient
       id="linearGradient6261">
      <stop
         offset="0"
         id="stop3" />
      <stop
         stop-opacity="0"
         offset="1"
         id="stop5" />
    </linearGradient>
    <radialGradient
       id="radialGradient6723-5"
       cx="35"
       cy="4"
       r="3.7275"
       gradientTransform="matrix(1.696 0 0 1.0731 -24.361 -.29238)"
       gradientUnits="userSpaceOnUse"
       xlink:href="#linearGradient6261" />
    <linearGradient
       id="linearGradient6725-3"
       x1="43"
       x2="46.748"
       y1="12"
       y2="8.2517"
       gradientUnits="userSpaceOnUse"
       xlink:href="#linearGradient6261" />
    <radialGradient
       id="radialGradient6727-5"
       cx="52"
       cy="22"
       r="5.2061"
       gradientTransform="matrix(.96042 0 0 1.3331 2.0581 -7.3283)"
       gradientUnits="userSpaceOnUse"
       xlink:href="#linearGradient6261" />
    <linearGradient
       id="linearGradient6729-6"
       x1="5.8207"
       x2="5.8207"
       y1="1.0583"
       gradientUnits="userSpaceOnUse"
       xlink:href="#linearGradient6261" />
    <radialGradient
       id="radialGradient6731-2"
       cx="3.1749"
       cy="1.3229"
       r=".79373"
       gradientTransform="matrix(-2.1078e-8 -1.3333 1.6667 -2.6348e-8 .97012 5.2916)"
       gradientUnits="userSpaceOnUse"
       xlink:href="#linearGradient6261" />
    <linearGradient
       id="linearGradient6733-9"
       x1="13.758"
       x2="15.081"
       y1="10.583"
       y2="10.583"
       gradientUnits="userSpaceOnUse"
       xlink:href="#linearGradient6261" />
    <linearGradient
       id="linearGradient6735-1"
       x1="3.1749"
       x2="1.852"
       y1="8.4665"
       y2="8.4665"
       gradientUnits="userSpaceOnUse"
       xlink:href="#linearGradient6261" />
    <radialGradient
       id="radialGradient6737-2"
       cx="13.758"
       cy="15.346"
       r=".79373"
       gradientTransform="matrix(5.1718e-7 2 -1.6667 4.3098e-7 39.334 -12.171)"
       gradientUnits="userSpaceOnUse"
       xlink:href="#linearGradient6261" />
    <radialGradient
       id="radialGradient6739-7"
       cx="3.1749"
       cy="15.346"
       r=".79373"
       gradientTransform="matrix(-1.6667 -1.37e-6 1.644e-6 -2 8.4665 46.037)"
       gradientUnits="userSpaceOnUse"
       xlink:href="#linearGradient6261" />
    <linearGradient
       id="linearGradient6741-0"
       x1="7.9373"
       x2="7.9373"
       y1="15.346"
       y2="16.668"
       gradientUnits="userSpaceOnUse"
       xlink:href="#linearGradient6261" />
    <radialGradient
       id="radialGradient6743-9"
       cx="35"
       cy="4"
       r="3.7275"
       gradientTransform="matrix(1.6115 -1.9122e-7 9.5496e-8 .80482 -21.403 .78072)"
       gradientUnits="userSpaceOnUse"
       xlink:href="#linearGradient6261" />
    <linearGradient
       id="linearGradient6745-3"
       x1="43"
       x2="46.004"
       y1="12"
       y2="8.9965"
       gradientUnits="userSpaceOnUse"
       xlink:href="#linearGradient6261" />
    <radialGradient
       id="radialGradient6747-6"
       cx="52"
       cy="22"
       r="5.2061"
       gradientTransform="matrix(.76834 -9.6042e-8 1.534e-7 1.2272 12.047 -4.9986)"
       gradientUnits="userSpaceOnUse"
       xlink:href="#linearGradient6261" />
    <linearGradient
       id="linearGradient6749-0"
       x1="5.8207"
       x2="5.8207"
       y1="1.0583"
       y2=".26458"
       gradientUnits="userSpaceOnUse"
       xlink:href="#linearGradient6261" />
    <radialGradient
       id="radialGradient6751-6"
       cx="3.1749"
       cy="1.3229"
       r=".79373"
       gradientTransform="matrix(-7.442e-8 -1 1.3333 -9.9226e-8 1.4111 4.2333)"
       gradientUnits="userSpaceOnUse"
       xlink:href="#linearGradient6261" />
    <linearGradient
       id="linearGradient6753-2"
       x1="13.758"
       x2="14.816"
       y1="10.583"
       y2="10.583"
       gradientUnits="userSpaceOnUse"
       xlink:href="#linearGradient6261" />
    <linearGradient
       id="linearGradient6755-6"
       x1="3.1749"
       x2="2.1166"
       y1="8.4665"
       y2="8.4665"
       gradientUnits="userSpaceOnUse"
       xlink:href="#linearGradient6261" />
    <radialGradient
       id="radialGradient6757-1"
       cx="13.758"
       cy="15.346"
       r=".79373"
       gradientTransform="matrix(0 1.6667 -1.3333 0 34.219 -7.5846)"
       gradientUnits="userSpaceOnUse"
       xlink:href="#linearGradient6261" />
    <radialGradient
       id="radialGradient6759-8"
       cx="3.1749"
       cy="15.346"
       r=".79373"
       gradientTransform="matrix(-1.3333 0 0 -1.6667 7.4082 40.921)"
       gradientUnits="userSpaceOnUse"
       xlink:href="#linearGradient6261" />
    <linearGradient
       id="linearGradient6761-7"
       x1="21.039"
       x2="21.039"
       y1="2"
       y2="62"
       gradientTransform="matrix(.26458 0 0 .26458 0 -.26458)"
       gradientUnits="userSpaceOnUse">
      <stop
         stop-color="#ff5b59"
         offset="0"
         id="stop27" />
      <stop
         stop-color="#ff983d"
         offset="1"
         id="stop29" />
    </linearGradient>
    <radialGradient
       id="radialGradient6763-2"
       cx="40"
       cy="12"
       r="8"
       gradientTransform="matrix(1.5 0 0 -2 -14 40)"
       gradientUnits="userSpaceOnUse"
       xlink:href="#linearGradient6261" />
    <radialGradient
       id="radialGradient6765-3"
       cx="10.583"
       cy="4.2333"
       r="2.1166"
       gradientTransform="matrix(-2 3.1236e-7 -3.1236e-7 -2 31.749 12.7)"
       gradientUnits="userSpaceOnUse"
       xlink:href="#linearGradient6261" />
    <radialGradient
       id="radialGradient6767-7"
       cx="40"
       cy="12"
       r="8"
       gradientTransform="matrix(0 -1.5 2 0 16 70)"
       gradientUnits="userSpaceOnUse"
       xlink:href="#linearGradient6261" />
    <linearGradient
       id="linearGradient7282"
       x1="10.583"
       x2="6.3499"
       y1="3.1749"
       y2="3.1749"
       gradientTransform="matrix(1 0 0 .66667 0 1.4111)"
       gradientUnits="userSpaceOnUse"
       xlink:href="#linearGradient6261" />
    <linearGradient
       id="linearGradient7284"
       x1="10.583"
       x2="8.7311"
       y1="3.0426"
       y2="3.0426"
       gradientTransform="matrix(1 0 0 .66667 0 1.4111)"
       gradientUnits="userSpaceOnUse"
       xlink:href="#linearGradient6261" />
    <radialGradient
       id="radialGradient6773-5"
       cx="10.583"
       cy="4.2333"
       r="2.1166"
       gradientTransform="matrix(-.875 -1.6564e-7 1.6631e-7 -.87849 19.843 7.9521)"
       gradientUnits="userSpaceOnUse"
       xlink:href="#linearGradient6261" />
    <radialGradient
       id="radialGradient6775-9"
       cx="40"
       cy="12"
       r="8"
       gradientTransform="matrix(0 -1.3078 .87983 0 29.442 62.311)"
       gradientUnits="userSpaceOnUse"
       xlink:href="#linearGradient6261" />
    <linearGradient
       id="linearGradient7286"
       x1="10.583"
       x2="6.3499"
       y1="3.1749"
       y2="3.1749"
       gradientTransform="matrix(1 0 0 .66667 -14.816 9.3484)"
       gradientUnits="userSpaceOnUse"
       xlink:href="#linearGradient6261" />
    <linearGradient
       id="linearGradient7288"
       x1="10.583"
       x2="8.7237"
       y1="3.0426"
       y2="3.0426"
       gradientTransform="matrix(1 0 0 .66667 -14.816 9.3484)"
       gradientUnits="userSpaceOnUse"
       xlink:href="#linearGradient6261" />
    <radialGradient
       id="radialGradient6781-2"
       cx="40"
       cy="12"
       r="8"
       gradientTransform="matrix(1.4336 0 0 -.87849 -11.344 26.542)"
       gradientUnits="userSpaceOnUse"
       xlink:href="#linearGradient6261" />
    <linearGradient
       id="linearGradient7290"
       x1="40"
       x2="46"
       y1="17"
       y2="11"
       gradientTransform="matrix(.26458 0 0 .26458 -1.6667e-7 -.26458)"
       gradientUnits="userSpaceOnUse">
      <stop
         stop-color="#fefefe"
         offset="0"
         id="stop42" />
      <stop
         stop-color="#e9e9e9"
         offset="1"
         id="stop44" />
    </linearGradient>
    <clipPath
       clipPathUnits="userSpaceOnUse"
       id="clipPath49">
      <path
         style="display:none;fill:#e6e6e6;stroke-width:0.264578"
         d="m 9.5604635,9.6098751 c 0.07263,0.4202279 0.121946,0.7322899 0.1477191,1.1577699 0.0071,0.264966 -0.07165,0.525311 -0.2250259,0.743484 -0.03608,0.126428 -0.144287,0 -0.2215952,0 -0.1906998,0 -0.2611122,-0.202326 -0.3642089,-0.327085 -0.1030662,-0.124759 -0.029251,-0.237712 0.03952,-0.337162 0.073874,-0.05226 0.1030659,-0.168581 0.2095939,-0.168581 0.1065001,0 0.09277,-0.143301 0.07731,-0.21917 0.07041,-0.106216 0.02746,-0.151293 0.0962,-0.267615 0.1236618,-0.05393 0.0876,-0.2427511 0.130557,-0.3489673 0.03436,-0.075868 0,-0.2208686 0.0979,-0.2528858 0,0 0.01194,0 0.010149,0.016703 M 9.4400545,5.2769788 C 9.2785755,5.2585244 9.1566155,5.3663517 9.0208945,5.4270465 8.9082519,5.4638319 8.7935446,5.4942187 8.6773407,5.5180596 8.5931683,5.6866695 8.3990343,5.7861197 8.2942375,5.9445949 8.1870055,6.2595013 7.9874124,6.5363226 7.7204932,6.7403371 7.3391211,6.9342277 7.252682,7.3556945 7.1272891,7.7518814 7.0843372,7.8412247 7.0912038,7.9727503 7.0448188,8.0485898 6.8936364,8.0907424 6.9743756,7.8968817 6.9572127,7.8041401 6.9348293,7.6659067 7.0585784,7.5765631 7.0671447,7.4416692 7.1183091,7.3458514 7.1398066,7.1052593 7.1289904,6.9976045 7.1116737,6.7565234 7.1856723,6.4631837 7.0121939,6.2659252 6.9090975,6.2069293 6.9417518,6.0821701 6.9039639,5.9860599 6.8014962,5.8487922 6.6710258,5.7339679 6.5208607,5.6488983 6.3971992,5.6371828 6.2838052,5.4802884 6.1566814,5.5527884 c -0.079009,0.091043 -0.2250267,0.089343 -0.271411,0.2107334 -0.029251,0.1517375 -0.2027,0.111284 -0.3160935,0.1483686 -0.1442872,0.055628 -0.4357874,0 -0.5543153,0.1129543 C 4.896334,6.1377982 4.7022005,6.3030101 4.7606133,6.4935316 4.896334,6.7548243 5.3527167,6.6233281 5.5434178,6.7818031 5.4831903,6.9571473 5.413811,7.2615171 5.335554,7.429864 5.3043798,7.6584636 5.299773,7.8897997 5.3218224,8.11942 c 0.036085,0.2292756 -0.024177,0.5243145 0.1718071,0.6861584 0.1116626,0.040454 0.1047971,0.1685808 0.1477196,0.2629921 0.042951,0.094411 0.125422,-0.033718 0.159778,0.057326 0.099634,0.053928 0.010147,0.1685805 0.065278,0.2360133 0.091674,0.017803 0.1759427,0.061799 0.2422193,0.126457 0.1055828,0.072166 0.2039371,0.1540179 0.2937369,0.2444502 0.068711,0.1382332 0.1563453,-0.134865 0.2319219,-0.032047 0.038668,0.093675 0.1520526,0.1331387 0.2422192,0.084305 0.1398667,-0.02314 0.2719172,-0.079262 0.3848045,-0.1635421 0.073875,0.2579535 0.017015,0.5378191 0.049817,0.8041791 0.045659,0.194505 -0.031576,0.392466 -0.020089,0.591747 0.051506,0.196361 0.081456,0.397568 0.089336,0.600183 0.05585,0.421003 -0.017094,0.848795 -0.2095648,1.229016 -0.022955,0.119183 -0.1175129,0.212656 -0.2387869,0.236043 -0.085903,0.03875 -0.2645454,0.107886 -0.2044309,0.229276 0.1992677,0.16858 0.5153612,0.150038 0.7438504,0.06406 0.1511518,-0.0725 0.020598,-0.252886 0.097902,-0.362471 0.1013658,-0.384382 0.051548,-0.795743 0.1717772,-1.180126 0.093039,-0.193789 0.1281874,-0.409495 0.1013655,-0.622094 0.024174,-0.129826 -0.030922,-0.286602 0.05498,-0.392818 0.00135,-0.130623 0.05073,-0.256369 0.1391226,-0.354035 0.027999,-0.198332 0.042348,-0.398289 0.042952,-0.5985134 0.1209903,-0.037114 0.2484004,-0.049732 0.3745071,-0.037084 0,0.1112837 -0.08074,0.2394114 -0.056682,0.3641694 0.025302,0.140151 -0.0022,0.172821 -0.077307,0.294566 -0.053249,0.219169 -0.089336,0.488899 0.049817,0.674353 0.23019,0.247818 0.5308226,0.423165 0.7489841,0.687857 0.07413,0.0587 0.07889,0.167939 0.010149,0.232645 -0.04003,0.142802 -0.1493187,0.256997 -0.2920362,0.305145 -0.091037,0.03541 -0.2370553,0.16858 -0.1305564,0.261321 0.2143615,0.04742 0.4381366,0.03277 0.6441867,-0.04215 0.1408839,-0.05059 0.08934,-0.217471 0.144316,-0.322017 0.07586,0.101129 0.1458268,0.206391 0.2095651,0.31528 0.08764,0.128127 0.2387869,0.02197 0.3435846,-0.01845 0.01235,-0.187458 -0.02618,-0.374778 -0.1116598,-0.542855 -0.04809,-0.111284 -0.235354,-0.114653 -0.2267568,-0.251217 0.09277,-0.337162 0.3229576,-0.600154 0.5050626,-0.885086 0.151151,-0.141603 0.03779,-0.352365 0.04638,-0.531052 -0.04818,-0.4592815 0.06517,-0.8091895 0.321228,-1.1965241 0.05304,0.2151545 0.121347,0.4264039 0.204431,0.6322005 0.05988,0.2412896 0.168542,0.4683186 0.319526,0.6676156 0.07041,0.239411 0.05152,0.505772 0.0979,0.75359 0.06639,0.428529 0.04183,0.760122 -0.07214,1.178896 0.01193,0.153407 -0.135719,0.26636 -0.12196,0.416399 0.04122,0.138263 0.206133,0.02695 0.292036,0.08597 0.155111,0.04727 0.322037,-0.02458 0.39167,-0.168581 -0.03584,-0.117127 -0.06001,-0.237392 -0.07217,-0.359102 -0.117874,-0.354541 -0.143849,-0.626546 -0.07558,-0.993413 0.01373,-0.198928 0.135721,-0.441708 -0.02239,-0.611988 -0.04295,-0.182085 0.03092,-0.379314 -0.01373,-0.566467 -0.105927,-0.4794793 -0.118173,-0.9743314 -0.03609,-1.4582916 0.02746,-0.067432 0,-0.1921907 0.07387,-0.2292759 0.0731,0.1071116 0.105906,0.2358689 0.09277,0.3641415 0.0668,0.1988184 0.07517,0.4120806 0.02418,0.6153564 -0.125392,0.1567761 -0.04809,0.3692086 -0.03263,0.5462256 0.0206,0.124759 0.152884,0.03541 0.171778,-0.04215 0.115439,-0.2110078 0.208688,-0.4330014 0.278306,-0.6625474 0.07901,-0.1045169 0,-0.2276061 0,-0.3371913 0.12196,-0.015232 0.07558,-0.1500383 0.01015,-0.2090348 C 12.026976,8.5814359 12.042445,8.3319187 11.894692,8.1481638 11.661104,7.9111086 11.467434,7.6390912 11.320947,7.3423108 11.164602,6.8584496 10.717981,6.5364324 10.5668,6.0475333 10.51008,5.7638255 10.336703,5.5156091 10.087526,5.3613747 9.9765486,5.31137 9.8616496,5.2702167 9.7439406,5.2383154 c -0.10015,0.020507 -0.2018459,0.032912 -0.3040642,0.037084"
         id="path51" />
      <path
         id="lpe_path-effect53"
         style="fill:#e6e6e6;stroke-width:0.264578"
         class="powerclip"
         d="M -1.7916522,-3.7813297 H 18.718883 V 20.283949 H -1.7916522 Z M 9.5585825,9.6063659 c 0.00179,-0.016703 -0.010149,-0.016703 -0.010149,-0.016703 -0.0979,0.032017 -0.06354,0.1770178 -0.0979,0.2528858 -0.042957,0.1062162 -0.0069,0.2950373 -0.130557,0.3489673 -0.06874,0.116322 -0.02579,0.161399 -0.0962,0.267615 0.01546,0.07587 0.02919,0.21917 -0.07731,0.21917 -0.106528,0 -0.1357199,0.116321 -0.2095939,0.168581 -0.068771,0.09945 -0.1425862,0.212403 -0.03952,0.337162 0.1030967,0.124759 0.1735091,0.327085 0.3642089,0.327085 0.077308,0 0.1855152,0.126428 0.2215952,0 0.1533759,-0.218173 0.2321259,-0.478518 0.2250259,-0.743484 -0.025773,-0.42548 -0.075089,-0.737542 -0.1477191,-1.1577699 M 9.4400545,5.2769788 C 9.2785755,5.2585244 9.1566155,5.3663517 9.0208945,5.4270465 8.9082519,5.4638319 8.7935446,5.4942187 8.6773407,5.5180596 8.5931683,5.6866695 8.3990343,5.7861197 8.2942375,5.9445949 8.1870055,6.2595013 7.9874124,6.5363226 7.7204932,6.7403371 7.3391211,6.9342277 7.252682,7.3556945 7.1272891,7.7518814 7.0843372,7.8412247 7.0912038,7.9727503 7.0448188,8.0485898 6.8936364,8.0907424 6.9743756,7.8968817 6.9572127,7.8041401 6.9348293,7.6659067 7.0585784,7.5765631 7.0671447,7.4416692 7.1183091,7.3458514 7.1398066,7.1052593 7.1289904,6.9976045 7.1116737,6.7565234 7.1856723,6.4631837 7.0121939,6.2659252 6.9090975,6.2069293 6.9417518,6.0821701 6.9039639,5.9860599 6.8014962,5.8487922 6.6710258,5.7339679 6.5208607,5.6488983 6.3971992,5.6371828 6.2838052,5.4802884 6.1566814,5.5527884 c -0.079009,0.091043 -0.2250267,0.089343 -0.271411,0.2107334 -0.029251,0.1517375 -0.2027,0.111284 -0.3160935,0.1483686 -0.1442872,0.055628 -0.4357874,0 -0.5543153,0.1129543 C 4.896334,6.1377982 4.7022005,6.3030101 4.7606133,6.4935316 4.896334,6.7548243 5.3527167,6.6233281 5.5434178,6.7818031 5.4831903,6.9571473 5.413811,7.2615171 5.335554,7.429864 5.3043798,7.6584636 5.299773,7.8897997 5.3218224,8.11942 c 0.036085,0.2292756 -0.024177,0.5243145 0.1718071,0.6861584 0.1116626,0.040454 0.1047971,0.1685808 0.1477196,0.2629921 0.042951,0.094411 0.125422,-0.033718 0.159778,0.057326 0.099634,0.053928 0.010147,0.1685805 0.065278,0.2360133 0.091674,0.017803 0.1759427,0.061799 0.2422193,0.126457 0.1055828,0.072166 0.2039371,0.1540179 0.2937369,0.2444502 0.068711,0.1382332 0.1563453,-0.134865 0.2319219,-0.032047 0.038668,0.093675 0.1520526,0.1331387 0.2422192,0.084305 0.1398667,-0.02314 0.2719172,-0.079262 0.3848045,-0.1635421 0.073875,0.2579535 0.017015,0.5378191 0.049817,0.8041791 0.045659,0.194505 -0.031576,0.392466 -0.020089,0.591747 0.051506,0.196361 0.081456,0.397568 0.089336,0.600183 0.05585,0.421003 -0.017094,0.848795 -0.2095648,1.229016 -0.022955,0.119183 -0.1175129,0.212656 -0.2387869,0.236043 -0.085903,0.03875 -0.2645454,0.107886 -0.2044309,0.229276 0.1992677,0.16858 0.5153612,0.150038 0.7438504,0.06406 0.1511518,-0.0725 0.020598,-0.252886 0.097902,-0.362471 0.1013658,-0.384382 0.051548,-0.795743 0.1717772,-1.180126 0.093039,-0.193789 0.1281874,-0.409495 0.1013655,-0.622094 0.024174,-0.129826 -0.030922,-0.286602 0.05498,-0.392818 0.00135,-0.130623 0.05073,-0.256369 0.1391226,-0.354035 0.027999,-0.198332 0.042348,-0.398289 0.042952,-0.5985134 0.1209903,-0.037114 0.2484004,-0.049732 0.3745071,-0.037084 0,0.1112837 -0.08074,0.2394114 -0.056682,0.3641694 0.025302,0.140151 -0.0022,0.172821 -0.077307,0.294566 -0.053249,0.219169 -0.089336,0.488899 0.049817,0.674353 0.23019,0.247818 0.5308226,0.423165 0.7489841,0.687857 0.07413,0.0587 0.07889,0.167939 0.010149,0.232645 -0.04003,0.142802 -0.1493187,0.256997 -0.2920362,0.305145 -0.091037,0.03541 -0.2370553,0.16858 -0.1305564,0.261321 0.2143615,0.04742 0.4381366,0.03277 0.6441867,-0.04215 0.1408839,-0.05059 0.08934,-0.217471 0.144316,-0.322017 0.07586,0.101129 0.1458268,0.206391 0.2095651,0.31528 0.08764,0.128127 0.2387869,0.02197 0.3435846,-0.01845 0.01235,-0.187458 -0.02618,-0.374778 -0.1116598,-0.542855 -0.04809,-0.111284 -0.235354,-0.114653 -0.2267568,-0.251217 0.09277,-0.337162 0.3229576,-0.600154 0.5050626,-0.885086 0.151151,-0.141603 0.03779,-0.352365 0.04638,-0.531052 -0.04818,-0.4592815 0.06517,-0.8091895 0.321228,-1.1965241 0.05304,0.2151545 0.121347,0.4264039 0.204431,0.6322005 0.05988,0.2412896 0.168542,0.4683186 0.319526,0.6676156 0.07041,0.239411 0.05152,0.505772 0.0979,0.75359 0.06639,0.428529 0.04183,0.760122 -0.07214,1.178896 0.01193,0.153407 -0.135719,0.26636 -0.12196,0.416399 0.04122,0.138263 0.206133,0.02695 0.292036,0.08597 0.155111,0.04727 0.322037,-0.02458 0.39167,-0.168581 -0.03584,-0.117127 -0.06001,-0.237392 -0.07217,-0.359102 -0.117874,-0.354541 -0.143849,-0.626546 -0.07558,-0.993413 0.01373,-0.198928 0.135721,-0.441708 -0.02239,-0.611988 -0.04295,-0.182085 0.03092,-0.379314 -0.01373,-0.566467 -0.105927,-0.4794793 -0.118173,-0.9743314 -0.03609,-1.4582916 0.02746,-0.067432 0,-0.1921907 0.07387,-0.2292759 0.0731,0.1071116 0.105906,0.2358689 0.09277,0.3641415 0.0668,0.1988184 0.07517,0.4120806 0.02418,0.6153564 -0.125392,0.1567761 -0.04809,0.3692086 -0.03263,0.5462256 0.0206,0.124759 0.152884,0.03541 0.171778,-0.04215 0.115439,-0.2110078 0.208688,-0.4330014 0.278306,-0.6625474 0.07901,-0.1045169 0,-0.2276061 0,-0.3371913 0.12196,-0.015232 0.07558,-0.1500383 0.01015,-0.2090348 C 12.026976,8.5814359 12.042445,8.3319187 11.894692,8.1481638 11.661104,7.9111086 11.467434,7.6390912 11.320947,7.3423108 11.164602,6.8584496 10.717981,6.5364324 10.5668,6.0475333 10.51008,5.7638255 10.336703,5.5156091 10.087526,5.3613747 9.9765486,5.31137 9.8616496,5.2702167 9.7439406,5.2383154 c -0.10015,0.020507 -0.2018459,0.032912 -0.3040642,0.037084" />
    </clipPath>
  </defs>
  <g
     transform="matrix(3.7796 0 0 3.7796 -.021092 1.0245)"
     id="g121">
    <rect
       x="8.7209"
       y="-.54211"
       width="6.6358"
       height="6.6348"
       fill="none"
       id="rect97" />
    <path
       d="m 3.6653411,1.219379 c -0.2531703,0 -0.4569933,0.2091037 -0.4569933,0.4688332 V 14.815114 c 0,0.259739 0.203823,0.468835 0.4569933,0.468835 H 13.26189 c 0.25318,0 0.456993,-0.209104 0.456993,-0.468835 V 5.6725322 c 0,-0.2344167 -0.139155,-0.6115936 -0.456993,-0.9376488 l -2.970423,-3.04738 C 9.9857202,1.2905865 9.6059778,1.2186703 9.3774984,1.2186703 Z"
       fill="url(#linearGradient6761-7)"
       stroke-width="0.231438"
       id="path93-3"
       style="fill:#2c2c2c"
       clip-path="url(#clipPath49)"
       inkscape:path-effect="#path-effect53"
       inkscape:original-d="m 3.6653411,1.219379 c -0.2531703,0 -0.4569933,0.2091037 -0.4569933,0.4688332 V 14.815114 c 0,0.259739 0.203823,0.468835 0.4569933,0.468835 H 13.26189 c 0.25318,0 0.456993,-0.209104 0.456993,-0.468835 V 5.6725322 c 0,-0.2344167 -0.139155,-0.6115936 -0.456993,-0.9376488 l -2.970423,-3.04738 C 9.9857202,1.2905865 9.6059778,1.2186703 9.3774984,1.2186703 Z" />
  </g>
</svg>
