<?xml version="1.0" encoding="UTF-8" standalone="no"?>
<svg
   width="64"
   height="64"
   version="1.1"
   id="svg125"
   sodipodi:docname="application-x-cue.svg"
   inkscape:version="1.1 (1:1.1+rc+202105240936+c4e8f9ed74)"
   xmlns:inkscape="http://www.inkscape.org/namespaces/inkscape"
   xmlns:sodipodi="http://sodipodi.sourceforge.net/DTD/sodipodi-0.dtd"
   xmlns:xlink="http://www.w3.org/1999/xlink"
   xmlns="http://www.w3.org/2000/svg"
   xmlns:svg="http://www.w3.org/2000/svg"
   xmlns:rdf="http://www.w3.org/1999/02/22-rdf-syntax-ns#"
   xmlns:cc="http://creativecommons.org/ns#"
   xmlns:dc="http://purl.org/dc/elements/1.1/">
  <metadata
     id="metadata129">
    <rdf:RDF>
      <cc:Work
         rdf:about="">
        <dc:format>image/svg+xml</dc:format>
        <dc:type
           rdf:resource="http://purl.org/dc/dcmitype/StillImage" />
        <dc:title />
      </cc:Work>
    </rdf:RDF>
  </metadata>
  <sodipodi:namedview
     pagecolor="#ffffff"
     bordercolor="#666666"
     borderopacity="1"
     objecttolerance="10"
     gridtolerance="10"
     guidetolerance="10"
     inkscape:pageopacity="0"
     inkscape:pageshadow="2"
     inkscape:window-width="1920"
     inkscape:window-height="996"
     id="namedview127"
     showgrid="false"
     inkscape:zoom="12.578125"
     inkscape:cx="38.678261"
     inkscape:cy="32"
     inkscape:window-x="0"
     inkscape:window-y="0"
     inkscape:window-maximized="1"
     inkscape:current-layer="g121"
     inkscape:document-rotation="0"
     inkscape:pagecheckerboard="0" />
  <defs
     id="defs47">
    <inkscape:path-effect
       effect="powerclip"
       id="path-effect271"
       is_visible="true"
       lpeversion="1"
       inverse="true"
       flatten="false"
       hide_clip="false"
       message="Use fill-rule evenodd on &lt;b&gt;fill and stroke&lt;/b&gt; dialog if no flatten result after convert clip to paths." />
    <linearGradient
       id="linearGradient6721-3"
       x1="7.9373"
       x2="7.9373"
       y1="15.346"
       y2="16.933"
       gradientUnits="userSpaceOnUse"
       xlink:href="#linearGradient6261" />
    <linearGradient
       id="linearGradient6261">
      <stop
         offset="0"
         id="stop3" />
      <stop
         stop-opacity="0"
         offset="1"
         id="stop5" />
    </linearGradient>
    <radialGradient
       id="radialGradient6723-5"
       cx="35"
       cy="4"
       r="3.7275"
       gradientTransform="matrix(1.696 0 0 1.0731 -24.361 -.29238)"
       gradientUnits="userSpaceOnUse"
       xlink:href="#linearGradient6261" />
    <linearGradient
       id="linearGradient6725-3"
       x1="43"
       x2="46.748"
       y1="12"
       y2="8.2517"
       gradientUnits="userSpaceOnUse"
       xlink:href="#linearGradient6261" />
    <radialGradient
       id="radialGradient6727-5"
       cx="52"
       cy="22"
       r="5.2061"
       gradientTransform="matrix(.96042 0 0 1.3331 2.0581 -7.3283)"
       gradientUnits="userSpaceOnUse"
       xlink:href="#linearGradient6261" />
    <linearGradient
       id="linearGradient6729-6"
       x1="5.8207"
       x2="5.8207"
       y1="1.0583"
       gradientUnits="userSpaceOnUse"
       xlink:href="#linearGradient6261" />
    <radialGradient
       id="radialGradient6731-2"
       cx="3.1749"
       cy="1.3229"
       r=".79373"
       gradientTransform="matrix(-2.1078e-8 -1.3333 1.6667 -2.6348e-8 .97012 5.2916)"
       gradientUnits="userSpaceOnUse"
       xlink:href="#linearGradient6261" />
    <linearGradient
       id="linearGradient6733-9"
       x1="13.758"
       x2="15.081"
       y1="10.583"
       y2="10.583"
       gradientUnits="userSpaceOnUse"
       xlink:href="#linearGradient6261" />
    <linearGradient
       id="linearGradient6735-1"
       x1="3.1749"
       x2="1.852"
       y1="8.4665"
       y2="8.4665"
       gradientUnits="userSpaceOnUse"
       xlink:href="#linearGradient6261" />
    <radialGradient
       id="radialGradient6737-2"
       cx="13.758"
       cy="15.346"
       r=".79373"
       gradientTransform="matrix(5.1718e-7 2 -1.6667 4.3098e-7 39.334 -12.171)"
       gradientUnits="userSpaceOnUse"
       xlink:href="#linearGradient6261" />
    <radialGradient
       id="radialGradient6739-7"
       cx="3.1749"
       cy="15.346"
       r=".79373"
       gradientTransform="matrix(-1.6667 -1.37e-6 1.644e-6 -2 8.4665 46.037)"
       gradientUnits="userSpaceOnUse"
       xlink:href="#linearGradient6261" />
    <linearGradient
       id="linearGradient6741-0"
       x1="7.9373"
       x2="7.9373"
       y1="15.346"
       y2="16.668"
       gradientUnits="userSpaceOnUse"
       xlink:href="#linearGradient6261" />
    <radialGradient
       id="radialGradient6743-9"
       cx="35"
       cy="4"
       r="3.7275"
       gradientTransform="matrix(1.6115 -1.9122e-7 9.5496e-8 .80482 -21.403 .78072)"
       gradientUnits="userSpaceOnUse"
       xlink:href="#linearGradient6261" />
    <linearGradient
       id="linearGradient6745-3"
       x1="43"
       x2="46.004"
       y1="12"
       y2="8.9965"
       gradientUnits="userSpaceOnUse"
       xlink:href="#linearGradient6261" />
    <radialGradient
       id="radialGradient6747-6"
       cx="52"
       cy="22"
       r="5.2061"
       gradientTransform="matrix(.76834 -9.6042e-8 1.534e-7 1.2272 12.047 -4.9986)"
       gradientUnits="userSpaceOnUse"
       xlink:href="#linearGradient6261" />
    <linearGradient
       id="linearGradient6749-0"
       x1="5.8207"
       x2="5.8207"
       y1="1.0583"
       y2=".26458"
       gradientUnits="userSpaceOnUse"
       xlink:href="#linearGradient6261" />
    <radialGradient
       id="radialGradient6751-6"
       cx="3.1749"
       cy="1.3229"
       r=".79373"
       gradientTransform="matrix(-7.442e-8 -1 1.3333 -9.9226e-8 1.4111 4.2333)"
       gradientUnits="userSpaceOnUse"
       xlink:href="#linearGradient6261" />
    <linearGradient
       id="linearGradient6753-2"
       x1="13.758"
       x2="14.816"
       y1="10.583"
       y2="10.583"
       gradientUnits="userSpaceOnUse"
       xlink:href="#linearGradient6261" />
    <linearGradient
       id="linearGradient6755-6"
       x1="3.1749"
       x2="2.1166"
       y1="8.4665"
       y2="8.4665"
       gradientUnits="userSpaceOnUse"
       xlink:href="#linearGradient6261" />
    <radialGradient
       id="radialGradient6757-1"
       cx="13.758"
       cy="15.346"
       r=".79373"
       gradientTransform="matrix(0 1.6667 -1.3333 0 34.219 -7.5846)"
       gradientUnits="userSpaceOnUse"
       xlink:href="#linearGradient6261" />
    <radialGradient
       id="radialGradient6759-8"
       cx="3.1749"
       cy="15.346"
       r=".79373"
       gradientTransform="matrix(-1.3333 0 0 -1.6667 7.4082 40.921)"
       gradientUnits="userSpaceOnUse"
       xlink:href="#linearGradient6261" />
    <linearGradient
       id="linearGradient6761-7"
       x1="21.039"
       x2="21.039"
       y1="2"
       y2="62"
       gradientTransform="matrix(.26458 0 0 .26458 0 -.26458)"
       gradientUnits="userSpaceOnUse">
      <stop
         stop-color="#ff5b59"
         offset="0"
         id="stop27" />
      <stop
         stop-color="#ff983d"
         offset="1"
         id="stop29" />
    </linearGradient>
    <radialGradient
       id="radialGradient6763-2"
       cx="40"
       cy="12"
       r="8"
       gradientTransform="matrix(1.5 0 0 -2 -14 40)"
       gradientUnits="userSpaceOnUse"
       xlink:href="#linearGradient6261" />
    <radialGradient
       id="radialGradient6765-3"
       cx="10.583"
       cy="4.2333"
       r="2.1166"
       gradientTransform="matrix(-2 3.1236e-7 -3.1236e-7 -2 31.749 12.7)"
       gradientUnits="userSpaceOnUse"
       xlink:href="#linearGradient6261" />
    <radialGradient
       id="radialGradient6767-7"
       cx="40"
       cy="12"
       r="8"
       gradientTransform="matrix(0 -1.5 2 0 16 70)"
       gradientUnits="userSpaceOnUse"
       xlink:href="#linearGradient6261" />
    <linearGradient
       id="linearGradient7282"
       x1="10.583"
       x2="6.3499"
       y1="3.1749"
       y2="3.1749"
       gradientTransform="matrix(1 0 0 .66667 0 1.4111)"
       gradientUnits="userSpaceOnUse"
       xlink:href="#linearGradient6261" />
    <linearGradient
       id="linearGradient7284"
       x1="10.583"
       x2="8.7311"
       y1="3.0426"
       y2="3.0426"
       gradientTransform="matrix(1 0 0 .66667 0 1.4111)"
       gradientUnits="userSpaceOnUse"
       xlink:href="#linearGradient6261" />
    <radialGradient
       id="radialGradient6773-5"
       cx="10.583"
       cy="4.2333"
       r="2.1166"
       gradientTransform="matrix(-.875 -1.6564e-7 1.6631e-7 -.87849 19.843 7.9521)"
       gradientUnits="userSpaceOnUse"
       xlink:href="#linearGradient6261" />
    <radialGradient
       id="radialGradient6775-9"
       cx="40"
       cy="12"
       r="8"
       gradientTransform="matrix(0 -1.3078 .87983 0 29.442 62.311)"
       gradientUnits="userSpaceOnUse"
       xlink:href="#linearGradient6261" />
    <linearGradient
       id="linearGradient7286"
       x1="10.583"
       x2="6.3499"
       y1="3.1749"
       y2="3.1749"
       gradientTransform="matrix(1 0 0 .66667 -14.816 9.3484)"
       gradientUnits="userSpaceOnUse"
       xlink:href="#linearGradient6261" />
    <linearGradient
       id="linearGradient7288"
       x1="10.583"
       x2="8.7237"
       y1="3.0426"
       y2="3.0426"
       gradientTransform="matrix(1 0 0 .66667 -14.816 9.3484)"
       gradientUnits="userSpaceOnUse"
       xlink:href="#linearGradient6261" />
    <radialGradient
       id="radialGradient6781-2"
       cx="40"
       cy="12"
       r="8"
       gradientTransform="matrix(1.4336 0 0 -.87849 -11.344 26.542)"
       gradientUnits="userSpaceOnUse"
       xlink:href="#linearGradient6261" />
    <linearGradient
       id="linearGradient7290"
       x1="40"
       x2="46"
       y1="17"
       y2="11"
       gradientTransform="matrix(.26458 0 0 .26458 -1.6667e-7 -.26458)"
       gradientUnits="userSpaceOnUse">
      <stop
         stop-color="#fefefe"
         offset="0"
         id="stop42" />
      <stop
         stop-color="#e9e9e9"
         offset="1"
         id="stop44" />
    </linearGradient>
    <clipPath
       clipPathUnits="userSpaceOnUse"
       id="clipPath267">
      <path
         id="path269"
         style="display:none;fill:#e6e6e6;stroke-width:0.0893925"
         d="m 8.3780355,4.9817483 c -1.546289,0 -2.7997754,1.1631186 -2.7997754,2.5977244 0,1.4346052 1.2534864,2.5977243 2.7997754,2.5977243 1.5462874,0 2.7997755,-1.1631191 2.7997755,-2.5977243 0,-1.4346058 -1.2534881,-2.5977244 -2.7997755,-2.5977244 z m 0,0.5772146 c 0.085905,0 0.1555432,0.06499 0.1555432,0.1446912 0,0.079699 -0.069638,0.1441745 -0.1555432,0.1441745 -1.0308591,0 -1.8665168,0.7752402 -1.8665168,1.7316441 0,0.079702 -0.069638,0.1441745 -0.1555432,0.1441745 -0.085905,0 -0.1555432,-0.064475 -0.1555432,-0.1441745 0,-1.1158041 0.9749339,-2.0205098 2.1776032,-2.0205098 z m 0,0.8660805 c 0.6872394,0 1.2443446,0.5168272 1.2443446,1.1544293 0,0.6376016 -0.5571052,1.1544293 -1.2443446,1.1544293 -0.6872396,0 -1.2443446,-0.5168277 -1.2443446,-1.1544293 0,-0.6376021 0.557105,-1.1544293 1.2443446,-1.1544293 z m 0,0.2888657 c -0.5154297,0 -0.9332583,0.3873617 -0.9332583,0.8655636 0,0.4782019 0.4178286,0.8660803 0.9332583,0.8660803 0.5154297,2e-7 0.9332586,-0.3878784 0.9332586,-0.8660803 0,-0.4782019 -0.4178289,-0.8655636 -0.9332586,-0.8655636 z m 0,0.2883488 c 0.3436197,0 0.6221725,0.2584131 0.6221725,0.5772148 0,0.3188015 -0.2785528,0.5772148 -0.6221725,0.5772148 -0.34362,0 -0.6221722,-0.2584133 -0.6221722,-0.5772148 0,-0.3188017 0.2785522,-0.5772148 0.6221722,-0.5772148 z M 5.6500889,12.031312 c -0.5250278,0 -0.9411091,0.100618 -1.2479617,0.301785 -0.3068528,0.200204 -0.4599116,0.472406 -0.4599116,0.816988 0,0.343621 0.1530588,0.616339 0.4599116,0.817506 0.3068526,0.200205 0.7229339,0.300234 1.2479617,0.300234 0.1759477,0 0.3450643,-0.01336 0.5069362,-0.04031 0.1618719,-0.02695 0.3174256,-0.06695 0.4666293,-0.119888 v -0.446475 c -0.1506112,0.07026 -0.2990539,0.121782 -0.4454424,0.154509 -0.1463885,0.03273 -0.3006234,0.04909 -0.4624953,0.04909 -0.2899616,0 -0.5180881,-0.06311 -0.6841827,-0.190166 -0.1660945,-0.127052 -0.2490755,-0.302163 -0.2490755,-0.524506 -3e-7,-0.223304 0.082981,-0.398486 0.2490755,-0.525539 0.1660946,-0.127052 0.3942211,-0.190165 0.6841827,-0.190165 0.1618719,0 0.3161068,0.01636 0.4624953,0.04909 0.1463885,0.03273 0.2948312,0.08425 0.4454424,0.15451 V 12.191506 C 6.4744507,12.138565 6.318897,12.098568 6.1570251,12.071619 5.9951532,12.04467 5.8260366,12.031312 5.6500889,12.031312 Z m 1.6468965,0.03927 v 1.291886 c 0,0.305118 0.1120849,0.532408 0.3358903,0.681599 0.2238054,0.149191 0.5641594,0.223754 1.0216235,0.223754 0.4588715,0 0.8004018,-0.07456 1.0242073,-0.223754 C 9.9025119,13.89488 10.014597,13.66759 10.014597,13.362472 V 12.070586 H 9.201742 v 1.291886 c 0,0.178066 -0.043326,0.305396 -0.1291886,0.382398 -0.084455,0.07604 -0.223808,0.114203 -0.4180542,0.114203 -0.1928387,0 -0.3321918,-0.03816 -0.4180543,-0.114203 -0.084455,-0.077 -0.126605,-0.204332 -0.126605,-0.382398 v -1.291886 z m 3.5113466,0 v 2.155382 h 2.24013 V 13.805847 H 11.621186 V 13.31183 h 1.298604 v -0.420122 h -1.298604 v -0.401001 h 1.380768 v -0.420121 z" />
      <path
         id="lpe_path-effect271"
         style="fill:#e6e6e6;stroke-width:0.0893925"
         class="powerclip"
         d="M -1.7916522,-3.7813297 H 18.718883 V 20.283949 H -1.7916522 Z m 10.1696877,8.763078 c -1.546289,0 -2.7997754,1.1631186 -2.7997754,2.5977244 0,1.4346052 1.2534864,2.5977243 2.7997754,2.5977243 1.5462874,0 2.7997755,-1.1631191 2.7997755,-2.5977243 0,-1.4346058 -1.2534881,-2.5977244 -2.7997755,-2.5977244 z m 0,0.5772146 c -1.2026693,0 -2.1776032,0.9047057 -2.1776032,2.0205098 0,0.0797 0.069638,0.1441745 0.1555432,0.1441745 0.085905,0 0.1555432,-0.064472 0.1555432,-0.1441745 0,-0.9564039 0.8356577,-1.7316441 1.8665168,-1.7316441 0.085905,0 0.1555432,-0.064475 0.1555432,-0.1441745 0,-0.079701 -0.069638,-0.1446912 -0.1555432,-0.1446912 z m 0,0.8660805 c -0.6872396,0 -1.2443446,0.5168272 -1.2443446,1.1544293 0,0.6376016 0.557105,1.1544293 1.2443446,1.1544293 0.6872394,0 1.2443446,-0.5168277 1.2443446,-1.1544293 0,-0.6376021 -0.5571052,-1.1544293 -1.2443446,-1.1544293 z m 0,0.2888657 c -0.5154297,0 -0.9332583,0.3873617 -0.9332583,0.8655636 0,0.4782019 0.4178286,0.8660803 0.9332583,0.8660803 0.5154297,2e-7 0.9332586,-0.3878784 0.9332586,-0.8660803 0,-0.4782019 -0.4178289,-0.8655636 -0.9332586,-0.8655636 z m 0,0.2883488 c -0.34362,0 -0.6221722,0.2584131 -0.6221722,0.5772148 0,0.3188015 0.2785522,0.5772148 0.6221722,0.5772148 0.3436197,0 0.6221725,-0.2584133 0.6221725,-0.5772148 0,-0.3188017 -0.2785528,-0.5772148 -0.6221725,-0.5772148 z M 5.6500889,12.031312 c -0.5250278,0 -0.9411091,0.100618 -1.2479617,0.301785 -0.3068528,0.200204 -0.4599116,0.472406 -0.4599116,0.816988 0,0.343621 0.1530588,0.616339 0.4599116,0.817506 0.3068526,0.200205 0.7229339,0.300234 1.2479617,0.300234 0.1759477,0 0.3450643,-0.01336 0.5069362,-0.04031 0.1618719,-0.02695 0.3174256,-0.06695 0.4666293,-0.119888 v -0.446475 c -0.1506112,0.07026 -0.2990539,0.121782 -0.4454424,0.154509 -0.1463885,0.03273 -0.3006234,0.04909 -0.4624953,0.04909 -0.2899616,0 -0.5180881,-0.06311 -0.6841827,-0.190166 -0.1660945,-0.127052 -0.2490755,-0.302163 -0.2490755,-0.524506 -3e-7,-0.223304 0.082981,-0.398486 0.2490755,-0.525539 0.1660946,-0.127052 0.3942211,-0.190165 0.6841827,-0.190165 0.1618719,0 0.3161068,0.01636 0.4624953,0.04909 0.1463885,0.03273 0.2948312,0.08425 0.4454424,0.15451 V 12.191506 C 6.4744507,12.138565 6.318897,12.098568 6.1570251,12.071619 5.9951532,12.04467 5.8260366,12.031312 5.6500889,12.031312 Z m 1.6468965,0.03927 v 1.291886 c 0,0.305118 0.1120849,0.532408 0.3358903,0.681599 0.2238054,0.149191 0.5641594,0.223754 1.0216235,0.223754 0.4588715,0 0.8004018,-0.07456 1.0242073,-0.223754 C 9.9025119,13.89488 10.014597,13.66759 10.014597,13.362472 V 12.070586 H 9.201742 v 1.291886 c 0,0.178066 -0.043326,0.305396 -0.1291886,0.382398 -0.084455,0.07604 -0.223808,0.114203 -0.4180542,0.114203 -0.1928387,0 -0.3321918,-0.03816 -0.4180543,-0.114203 -0.084455,-0.077 -0.126605,-0.204332 -0.126605,-0.382398 v -1.291886 z m 3.5113466,0 v 2.155382 h 2.24013 V 13.805847 H 11.621186 V 13.31183 h 1.298604 v -0.420122 h -1.298604 v -0.401001 h 1.380768 v -0.420121 z" />
    </clipPath>
  </defs>
  <g
     transform="matrix(3.7796 0 0 3.7796 -.021092 1.0245)"
     id="g121">
    <rect
       x="8.7209"
       y="-.54211"
       width="6.6358"
       height="6.6348"
       fill="none"
       id="rect97" />
    <path
       d="m 3.6653411,1.219379 c -0.2531703,0 -0.4569933,0.2091037 -0.4569933,0.4688332 V 14.815114 c 0,0.259739 0.203823,0.468835 0.4569933,0.468835 H 13.26189 c 0.25318,0 0.456993,-0.209104 0.456993,-0.468835 V 5.6725322 c 0,-0.2344167 -0.139155,-0.6115936 -0.456993,-0.9376488 l -2.970423,-3.04738 C 9.9857202,1.2905865 9.6059778,1.2186703 9.3774984,1.2186703 Z"
       fill="url(#linearGradient6761-7)"
       stroke-width="0.231438"
       id="path93-3"
       style="fill:#2c2c2c"
       clip-path="url(#clipPath267)"
       inkscape:path-effect="#path-effect271"
       inkscape:original-d="m 3.6653411,1.219379 c -0.2531703,0 -0.4569933,0.2091037 -0.4569933,0.4688332 V 14.815114 c 0,0.259739 0.203823,0.468835 0.4569933,0.468835 H 13.26189 c 0.25318,0 0.456993,-0.209104 0.456993,-0.468835 V 5.6725322 c 0,-0.2344167 -0.139155,-0.6115936 -0.456993,-0.9376488 l -2.970423,-3.04738 C 9.9857202,1.2905865 9.6059778,1.2186703 9.3774984,1.2186703 Z" />
    <g
       aria-label="CUE"
       transform="matrix(1.1901407,0,0,0.81383228,-0.15580678,-0.01916036)"
       id="text134"
       style="font-weight:bold;font-size:3.63326px;line-height:1.25;font-family:sans-serif;-inkscape-font-specification:'sans-serif Bold';fill:#e6e6e6;stroke-width:0.0908311" />
  </g>
</svg>
