<?xml version="1.0" encoding="UTF-8" standalone="no"?>
<svg
   width="64"
   height="64"
   version="1.1"
   id="svg125"
   sodipodi:docname="application-x-raw-disk-image.svg"
   inkscape:version="1.1 (1:1.1+rc+202105240936+c4e8f9ed74)"
   xmlns:inkscape="http://www.inkscape.org/namespaces/inkscape"
   xmlns:sodipodi="http://sodipodi.sourceforge.net/DTD/sodipodi-0.dtd"
   xmlns:xlink="http://www.w3.org/1999/xlink"
   xmlns="http://www.w3.org/2000/svg"
   xmlns:svg="http://www.w3.org/2000/svg"
   xmlns:rdf="http://www.w3.org/1999/02/22-rdf-syntax-ns#"
   xmlns:cc="http://creativecommons.org/ns#"
   xmlns:dc="http://purl.org/dc/elements/1.1/">
  <metadata
     id="metadata129">
    <rdf:RDF>
      <cc:Work
         rdf:about="">
        <dc:format>image/svg+xml</dc:format>
        <dc:type
           rdf:resource="http://purl.org/dc/dcmitype/StillImage" />
        <dc:title />
      </cc:Work>
    </rdf:RDF>
  </metadata>
  <sodipodi:namedview
     pagecolor="#ffffff"
     bordercolor="#666666"
     borderopacity="1"
     objecttolerance="10"
     gridtolerance="10"
     guidetolerance="10"
     inkscape:pageopacity="0"
     inkscape:pageshadow="2"
     inkscape:window-width="1920"
     inkscape:window-height="996"
     id="namedview127"
     showgrid="false"
     inkscape:zoom="12.578125"
     inkscape:cx="38.678261"
     inkscape:cy="28.819876"
     inkscape:window-x="0"
     inkscape:window-y="0"
     inkscape:window-maximized="1"
     inkscape:current-layer="g121"
     inkscape:document-rotation="0"
     inkscape:pagecheckerboard="0" />
  <defs
     id="defs47">
    <inkscape:path-effect
       effect="powerclip"
       id="path-effect341"
       is_visible="true"
       lpeversion="1"
       inverse="true"
       flatten="false"
       hide_clip="false"
       message="Use fill-rule evenodd on &lt;b&gt;fill and stroke&lt;/b&gt; dialog if no flatten result after convert clip to paths." />
    <linearGradient
       id="linearGradient6721-3"
       x1="7.9373"
       x2="7.9373"
       y1="15.346"
       y2="16.933"
       gradientUnits="userSpaceOnUse"
       xlink:href="#linearGradient6261" />
    <linearGradient
       id="linearGradient6261">
      <stop
         offset="0"
         id="stop3" />
      <stop
         stop-opacity="0"
         offset="1"
         id="stop5" />
    </linearGradient>
    <radialGradient
       id="radialGradient6723-5"
       cx="35"
       cy="4"
       r="3.7275"
       gradientTransform="matrix(1.696 0 0 1.0731 -24.361 -.29238)"
       gradientUnits="userSpaceOnUse"
       xlink:href="#linearGradient6261" />
    <linearGradient
       id="linearGradient6725-3"
       x1="43"
       x2="46.748"
       y1="12"
       y2="8.2517"
       gradientUnits="userSpaceOnUse"
       xlink:href="#linearGradient6261" />
    <radialGradient
       id="radialGradient6727-5"
       cx="52"
       cy="22"
       r="5.2061"
       gradientTransform="matrix(.96042 0 0 1.3331 2.0581 -7.3283)"
       gradientUnits="userSpaceOnUse"
       xlink:href="#linearGradient6261" />
    <linearGradient
       id="linearGradient6729-6"
       x1="5.8207"
       x2="5.8207"
       y1="1.0583"
       gradientUnits="userSpaceOnUse"
       xlink:href="#linearGradient6261" />
    <radialGradient
       id="radialGradient6731-2"
       cx="3.1749"
       cy="1.3229"
       r=".79373"
       gradientTransform="matrix(-2.1078e-8 -1.3333 1.6667 -2.6348e-8 .97012 5.2916)"
       gradientUnits="userSpaceOnUse"
       xlink:href="#linearGradient6261" />
    <linearGradient
       id="linearGradient6733-9"
       x1="13.758"
       x2="15.081"
       y1="10.583"
       y2="10.583"
       gradientUnits="userSpaceOnUse"
       xlink:href="#linearGradient6261" />
    <linearGradient
       id="linearGradient6735-1"
       x1="3.1749"
       x2="1.852"
       y1="8.4665"
       y2="8.4665"
       gradientUnits="userSpaceOnUse"
       xlink:href="#linearGradient6261" />
    <radialGradient
       id="radialGradient6737-2"
       cx="13.758"
       cy="15.346"
       r=".79373"
       gradientTransform="matrix(5.1718e-7 2 -1.6667 4.3098e-7 39.334 -12.171)"
       gradientUnits="userSpaceOnUse"
       xlink:href="#linearGradient6261" />
    <radialGradient
       id="radialGradient6739-7"
       cx="3.1749"
       cy="15.346"
       r=".79373"
       gradientTransform="matrix(-1.6667 -1.37e-6 1.644e-6 -2 8.4665 46.037)"
       gradientUnits="userSpaceOnUse"
       xlink:href="#linearGradient6261" />
    <linearGradient
       id="linearGradient6741-0"
       x1="7.9373"
       x2="7.9373"
       y1="15.346"
       y2="16.668"
       gradientUnits="userSpaceOnUse"
       xlink:href="#linearGradient6261" />
    <radialGradient
       id="radialGradient6743-9"
       cx="35"
       cy="4"
       r="3.7275"
       gradientTransform="matrix(1.6115 -1.9122e-7 9.5496e-8 .80482 -21.403 .78072)"
       gradientUnits="userSpaceOnUse"
       xlink:href="#linearGradient6261" />
    <linearGradient
       id="linearGradient6745-3"
       x1="43"
       x2="46.004"
       y1="12"
       y2="8.9965"
       gradientUnits="userSpaceOnUse"
       xlink:href="#linearGradient6261" />
    <radialGradient
       id="radialGradient6747-6"
       cx="52"
       cy="22"
       r="5.2061"
       gradientTransform="matrix(.76834 -9.6042e-8 1.534e-7 1.2272 12.047 -4.9986)"
       gradientUnits="userSpaceOnUse"
       xlink:href="#linearGradient6261" />
    <linearGradient
       id="linearGradient6749-0"
       x1="5.8207"
       x2="5.8207"
       y1="1.0583"
       y2=".26458"
       gradientUnits="userSpaceOnUse"
       xlink:href="#linearGradient6261" />
    <radialGradient
       id="radialGradient6751-6"
       cx="3.1749"
       cy="1.3229"
       r=".79373"
       gradientTransform="matrix(-7.442e-8 -1 1.3333 -9.9226e-8 1.4111 4.2333)"
       gradientUnits="userSpaceOnUse"
       xlink:href="#linearGradient6261" />
    <linearGradient
       id="linearGradient6753-2"
       x1="13.758"
       x2="14.816"
       y1="10.583"
       y2="10.583"
       gradientUnits="userSpaceOnUse"
       xlink:href="#linearGradient6261" />
    <linearGradient
       id="linearGradient6755-6"
       x1="3.1749"
       x2="2.1166"
       y1="8.4665"
       y2="8.4665"
       gradientUnits="userSpaceOnUse"
       xlink:href="#linearGradient6261" />
    <radialGradient
       id="radialGradient6757-1"
       cx="13.758"
       cy="15.346"
       r=".79373"
       gradientTransform="matrix(0 1.6667 -1.3333 0 34.219 -7.5846)"
       gradientUnits="userSpaceOnUse"
       xlink:href="#linearGradient6261" />
    <radialGradient
       id="radialGradient6759-8"
       cx="3.1749"
       cy="15.346"
       r=".79373"
       gradientTransform="matrix(-1.3333 0 0 -1.6667 7.4082 40.921)"
       gradientUnits="userSpaceOnUse"
       xlink:href="#linearGradient6261" />
    <linearGradient
       id="linearGradient6761-7"
       x1="21.039"
       x2="21.039"
       y1="2"
       y2="62"
       gradientTransform="matrix(.26458 0 0 .26458 0 -.26458)"
       gradientUnits="userSpaceOnUse">
      <stop
         stop-color="#ff5b59"
         offset="0"
         id="stop27" />
      <stop
         stop-color="#ff983d"
         offset="1"
         id="stop29" />
    </linearGradient>
    <radialGradient
       id="radialGradient6763-2"
       cx="40"
       cy="12"
       r="8"
       gradientTransform="matrix(1.5 0 0 -2 -14 40)"
       gradientUnits="userSpaceOnUse"
       xlink:href="#linearGradient6261" />
    <radialGradient
       id="radialGradient6765-3"
       cx="10.583"
       cy="4.2333"
       r="2.1166"
       gradientTransform="matrix(-2 3.1236e-7 -3.1236e-7 -2 31.749 12.7)"
       gradientUnits="userSpaceOnUse"
       xlink:href="#linearGradient6261" />
    <radialGradient
       id="radialGradient6767-7"
       cx="40"
       cy="12"
       r="8"
       gradientTransform="matrix(0 -1.5 2 0 16 70)"
       gradientUnits="userSpaceOnUse"
       xlink:href="#linearGradient6261" />
    <linearGradient
       id="linearGradient7282"
       x1="10.583"
       x2="6.3499"
       y1="3.1749"
       y2="3.1749"
       gradientTransform="matrix(1 0 0 .66667 0 1.4111)"
       gradientUnits="userSpaceOnUse"
       xlink:href="#linearGradient6261" />
    <linearGradient
       id="linearGradient7284"
       x1="10.583"
       x2="8.7311"
       y1="3.0426"
       y2="3.0426"
       gradientTransform="matrix(1 0 0 .66667 0 1.4111)"
       gradientUnits="userSpaceOnUse"
       xlink:href="#linearGradient6261" />
    <radialGradient
       id="radialGradient6773-5"
       cx="10.583"
       cy="4.2333"
       r="2.1166"
       gradientTransform="matrix(-.875 -1.6564e-7 1.6631e-7 -.87849 19.843 7.9521)"
       gradientUnits="userSpaceOnUse"
       xlink:href="#linearGradient6261" />
    <radialGradient
       id="radialGradient6775-9"
       cx="40"
       cy="12"
       r="8"
       gradientTransform="matrix(0 -1.3078 .87983 0 29.442 62.311)"
       gradientUnits="userSpaceOnUse"
       xlink:href="#linearGradient6261" />
    <linearGradient
       id="linearGradient7286"
       x1="10.583"
       x2="6.3499"
       y1="3.1749"
       y2="3.1749"
       gradientTransform="matrix(1 0 0 .66667 -14.816 9.3484)"
       gradientUnits="userSpaceOnUse"
       xlink:href="#linearGradient6261" />
    <linearGradient
       id="linearGradient7288"
       x1="10.583"
       x2="8.7237"
       y1="3.0426"
       y2="3.0426"
       gradientTransform="matrix(1 0 0 .66667 -14.816 9.3484)"
       gradientUnits="userSpaceOnUse"
       xlink:href="#linearGradient6261" />
    <radialGradient
       id="radialGradient6781-2"
       cx="40"
       cy="12"
       r="8"
       gradientTransform="matrix(1.4336 0 0 -.87849 -11.344 26.542)"
       gradientUnits="userSpaceOnUse"
       xlink:href="#linearGradient6261" />
    <linearGradient
       id="linearGradient7290"
       x1="40"
       x2="46"
       y1="17"
       y2="11"
       gradientTransform="matrix(.26458 0 0 .26458 -1.6667e-7 -.26458)"
       gradientUnits="userSpaceOnUse">
      <stop
         stop-color="#fefefe"
         offset="0"
         id="stop42" />
      <stop
         stop-color="#e9e9e9"
         offset="1"
         id="stop44" />
    </linearGradient>
    <clipPath
       clipPathUnits="userSpaceOnUse"
       id="clipPath337">
      <path
         id="path339"
         style="display:none;fill:#e6e6e6;stroke-width:0.0812737"
         d="m 8.4390126,4.9863991 c -1.5462893,0 -2.8002921,1.1631186 -2.8002921,2.5977244 0,1.4346055 1.2540028,2.5972075 2.8002921,2.5972075 1.5462874,0 2.7997754,-1.162602 2.7997754,-2.5972075 0,-1.4346058 -1.253488,-2.5977244 -2.7997754,-2.5977244 z m 0,0.5772145 c 0.085905,0 0.1555432,0.064474 0.1555432,0.1441745 0,0.079699 -0.069638,0.1441745 -0.1555432,0.1441745 -1.0308591,0 -1.8670338,0.775757 -1.8670338,1.7321609 0,0.079702 -0.069638,0.1441745 -0.1555429,0.1441745 -0.085905,0 -0.1555432,-0.064475 -0.1555432,-0.1441745 0,-1.1158041 0.9754506,-2.0205099 2.1781199,-2.0205099 z m 0,0.8655638 c 0.6872394,0 1.2443446,0.5173439 1.2443446,1.1549461 0,0.6376016 -0.5571052,1.1544295 -1.2443446,1.1544295 -0.6872397,0 -1.2443446,-0.5168279 -1.2443446,-1.1544295 0,-0.6376022 0.5571049,-1.1549461 1.2443446,-1.1549461 z m 0,0.2888658 c -0.5154297,0 -0.9332586,0.3878783 -0.9332586,0.8660803 0,0.4782019 0.4178289,0.865564 0.9332586,0.865564 0.5154294,0 0.9332585,-0.3873621 0.9332585,-0.865564 0,-0.478202 -0.4178291,-0.8660803 -0.9332585,-0.8660803 z m 0,0.2883487 c 0.3436197,0 0.6221722,0.2589298 0.6221722,0.5777316 0,0.3188014 -0.2785525,0.5772147 -0.6221722,0.5772147 -0.3436202,0 -0.6221722,-0.2584133 -0.6221722,-0.5772147 -3e-7,-0.3188018 0.278552,-0.5777316 0.6221722,-0.5777316 z M 3.9835559,12.119677 v 2.155383 h 0.6717809 v -0.815439 h 0.1906824 c 0.1093703,0 0.1963207,0.01945 0.2614776,0.05891 0.06632,0.03946 0.1313398,0.113368 0.1953331,0.22117 l 0.317804,0.535358 H 6.3363388 L 5.9715102,13.663223 c -0.074465,-0.124165 -0.1483861,-0.216859 -0.2216875,-0.277497 -0.072138,-0.0616 -0.1540575,-0.101014 -0.2459752,-0.118337 0.167546,-0.04331 0.2925542,-0.110612 0.3751638,-0.202051 0.083773,-0.09144 0.1255712,-0.208423 0.1255712,-0.350876 0,-0.20598 -0.080243,-0.356871 -0.2408075,-0.45216 -0.1594015,-0.09529 -0.410708,-0.142625 -0.7539449,-0.142625 z m 3.4069619,0 -0.9652971,2.155383 h 0.6753979 l 0.1658781,-0.392733 h 1.0505617 l 0.164328,0.392733 H 9.1567846 L 8.1914872,12.119677 Z m 1.7295772,0 0.6195886,2.155383 h 0.7746144 l 0.467663,-1.638628 0.473347,1.638628 h 0.774615 l 0.614421,-2.155383 H 12.205636 L 11.755542,13.68596 11.30855,12.119677 H 10.661057 L 10.214064,13.68596 9.7639708,12.119677 Z m -4.4647582,0.402552 h 0.2831813 c 0.1407853,0 0.2412819,0.02121 0.3017846,0.06356 0.061666,0.04235 0.092499,0.112658 0.092499,0.210836 0,0.09914 -0.030833,0.170623 -0.092499,0.213936 -0.060503,0.04331 -0.1609993,0.06459 -0.3017846,0.06459 H 4.6553368 Z M 7.7920362,12.625063 8.14808,13.482359 H 7.4339253 Z" />
      <path
         id="lpe_path-effect341"
         style="fill:#e6e6e6;stroke-width:0.0812737"
         class="powerclip"
         d="M -1.7916522,-3.7813297 H 18.718883 V 20.283949 H -1.7916522 Z M 8.4390126,4.9863991 c -1.5462893,0 -2.8002921,1.1631186 -2.8002921,2.5977244 0,1.4346055 1.2540028,2.5972075 2.8002921,2.5972075 1.5462874,0 2.7997754,-1.162602 2.7997754,-2.5972075 0,-1.4346058 -1.253488,-2.5977244 -2.7997754,-2.5977244 z m 0,0.5772145 c -1.2026693,0 -2.1781199,0.9047058 -2.1781199,2.0205099 0,0.0797 0.069638,0.1441745 0.1555432,0.1441745 0.085905,0 0.1555429,-0.064472 0.1555429,-0.1441745 0,-0.9564039 0.8361747,-1.7321609 1.8670338,-1.7321609 0.085905,0 0.1555432,-0.064476 0.1555432,-0.1441745 0,-0.079701 -0.069638,-0.1441745 -0.1555432,-0.1441745 z m 0,0.8655638 c -0.6872397,0 -1.2443446,0.5173439 -1.2443446,1.1549461 0,0.6376016 0.5571049,1.1544295 1.2443446,1.1544295 0.6872394,0 1.2443446,-0.5168279 1.2443446,-1.1544295 0,-0.6376022 -0.5571052,-1.1549461 -1.2443446,-1.1549461 z m 0,0.2888658 c -0.5154297,0 -0.9332586,0.3878783 -0.9332586,0.8660803 0,0.4782019 0.4178289,0.865564 0.9332586,0.865564 0.5154294,0 0.9332585,-0.3873621 0.9332585,-0.865564 0,-0.478202 -0.4178291,-0.8660803 -0.9332585,-0.8660803 z m 0,0.2883487 c -0.3436202,0 -0.6221725,0.2589298 -0.6221722,0.5777316 0,0.3188014 0.278552,0.5772147 0.6221722,0.5772147 0.3436197,0 0.6221722,-0.2584133 0.6221722,-0.5772147 0,-0.3188018 -0.2785525,-0.5777316 -0.6221722,-0.5777316 z M 3.9835559,12.119677 v 2.155383 h 0.6717809 v -0.815439 h 0.1906824 c 0.1093703,0 0.1963207,0.01945 0.2614776,0.05891 0.06632,0.03946 0.1313398,0.113368 0.1953331,0.22117 l 0.317804,0.535358 H 6.3363388 L 5.9715102,13.663223 c -0.074465,-0.124165 -0.1483861,-0.216859 -0.2216875,-0.277497 -0.072138,-0.0616 -0.1540575,-0.101014 -0.2459752,-0.118337 0.167546,-0.04331 0.2925542,-0.110612 0.3751638,-0.202051 0.083773,-0.09144 0.1255712,-0.208423 0.1255712,-0.350876 0,-0.20598 -0.080243,-0.356871 -0.2408075,-0.45216 -0.1594015,-0.09529 -0.410708,-0.142625 -0.7539449,-0.142625 z m 3.4069619,0 -0.9652971,2.155383 h 0.6753979 l 0.1658781,-0.392733 h 1.0505617 l 0.164328,0.392733 H 9.1567846 L 8.1914872,12.119677 Z m 1.7295772,0 0.6195886,2.155383 h 0.7746144 l 0.467663,-1.638628 0.473347,1.638628 h 0.774615 l 0.614421,-2.155383 H 12.205636 L 11.755542,13.68596 11.30855,12.119677 H 10.661057 L 10.214064,13.68596 9.7639708,12.119677 Z m -4.4647582,0.402552 v 0.552922 h 0.2831813 c 0.1407853,0 0.2412816,-0.02128 0.3017846,-0.06459 0.061666,-0.04331 0.092499,-0.114796 0.092499,-0.213936 0,-0.09818 -0.030833,-0.168486 -0.092499,-0.210836 -0.060503,-0.04235 -0.1609993,-0.06356 -0.3017846,-0.06356 z m 3.1366994,0.102834 -0.3581109,0.857296 H 8.14808 Z" />
    </clipPath>
  </defs>
  <g
     transform="matrix(3.7796 0 0 3.7796 -.021092 1.0245)"
     id="g121">
    <rect
       x="8.7209"
       y="-.54211"
       width="6.6358"
       height="6.6348"
       fill="none"
       id="rect97" />
    <path
       d="m 3.6653411,1.219379 c -0.2531703,0 -0.4569933,0.2091037 -0.4569933,0.4688332 V 14.815114 c 0,0.259739 0.203823,0.468835 0.4569933,0.468835 H 13.26189 c 0.25318,0 0.456993,-0.209104 0.456993,-0.468835 V 5.6725322 c 0,-0.2344167 -0.139155,-0.6115936 -0.456993,-0.9376488 l -2.970423,-3.04738 C 9.9857202,1.2905865 9.6059778,1.2186703 9.3774984,1.2186703 Z"
       fill="url(#linearGradient6761-7)"
       stroke-width="0.231438"
       id="path93-3"
       style="fill:#2c2c2c"
       clip-path="url(#clipPath337)"
       inkscape:path-effect="#path-effect341"
       inkscape:original-d="m 3.6653411,1.219379 c -0.2531703,0 -0.4569933,0.2091037 -0.4569933,0.4688332 V 14.815114 c 0,0.259739 0.203823,0.468835 0.4569933,0.468835 H 13.26189 c 0.25318,0 0.456993,-0.209104 0.456993,-0.468835 V 5.6725322 c 0,-0.2344167 -0.139155,-0.6115936 -0.456993,-0.9376488 l -2.970423,-3.04738 C 9.9857202,1.2905865 9.6059778,1.2186703 9.3774984,1.2186703 Z" />
    <g
       aria-label="RAW"
       transform="matrix(1.0258204,0,0,0.84861405,0.58614475,0)"
       id="text134"
       style="font-weight:bold;font-size:3.48435px;line-height:1.25;font-family:sans-serif;-inkscape-font-specification:'sans-serif Bold';fill:#e6e6e6;stroke-width:0.0871083" />
  </g>
</svg>
