<?xml version="1.0" encoding="UTF-8" standalone="no"?>
<svg
   width="64"
   height="64"
   version="1.1"
   id="svg73"
   sodipodi:docname="application-x-zoo.svg"
   inkscape:version="1.1 (1:1.1+rc+202105240936+c4e8f9ed74)"
   xmlns:inkscape="http://www.inkscape.org/namespaces/inkscape"
   xmlns:sodipodi="http://sodipodi.sourceforge.net/DTD/sodipodi-0.dtd"
   xmlns="http://www.w3.org/2000/svg"
   xmlns:svg="http://www.w3.org/2000/svg"
   xmlns:rdf="http://www.w3.org/1999/02/22-rdf-syntax-ns#"
   xmlns:cc="http://creativecommons.org/ns#"
   xmlns:dc="http://purl.org/dc/elements/1.1/">
  <metadata
     id="metadata77">
    <rdf:RDF>
      <cc:Work
         rdf:about="">
        <dc:format>image/svg+xml</dc:format>
        <dc:type
           rdf:resource="http://purl.org/dc/dcmitype/StillImage" />
        <dc:title />
      </cc:Work>
    </rdf:RDF>
  </metadata>
  <sodipodi:namedview
     pagecolor="#ffffff"
     bordercolor="#666666"
     borderopacity="1"
     objecttolerance="10"
     gridtolerance="10"
     guidetolerance="10"
     inkscape:pageopacity="0"
     inkscape:pageshadow="2"
     inkscape:window-width="1920"
     inkscape:window-height="996"
     id="namedview75"
     showgrid="false"
     inkscape:zoom="17.788155"
     inkscape:cx="26.393968"
     inkscape:cy="28.249135"
     inkscape:window-x="0"
     inkscape:window-y="0"
     inkscape:window-maximized="1"
     inkscape:current-layer="svg73"
     inkscape:document-rotation="0"
     inkscape:pagecheckerboard="0" />
  <defs
     id="defs29">
    <inkscape:path-effect
       effect="powerclip"
       id="path-effect214"
       is_visible="true"
       lpeversion="1"
       inverse="true"
       flatten="false"
       hide_clip="false"
       message="Use fill-rule evenodd on &lt;b&gt;fill and stroke&lt;/b&gt; dialog if no flatten result after convert clip to paths." />
    <linearGradient
       id="b"
       x1="399.57"
       x2="399.57"
       y1="545.8"
       y2="517.8"
       gradientTransform="matrix(2.1429,0,0,2.1429,-826.36,-1107.5)"
       gradientUnits="userSpaceOnUse">
      <stop
         stop-color="#3889e9"
         offset="0"
         id="stop2" />
      <stop
         stop-color="#5ea5fb"
         offset="1"
         id="stop4" />
    </linearGradient>
    <linearGradient
       id="linearGradient862"
       x1="7.9373"
       x2="7.9373"
       y1="15.081"
       y2="1.852"
       gradientTransform="matrix(3.3743 0 0 3.3743 3.4312 3.4278)"
       gradientUnits="userSpaceOnUse">
      <stop
         stop-color="#f1efeb"
         offset="0"
         id="stop7" />
      <stop
         stop-color="#fff"
         offset="1"
         id="stop9" />
    </linearGradient>
    <linearGradient
       id="linearGradient910"
       x1="7.9373"
       x2="7.9373"
       y1="15.081"
       y2="1.852"
       gradientTransform="scale(3.7796)"
       gradientUnits="userSpaceOnUse">
      <stop
         stop-color="#613583"
         offset="0"
         id="stop12" />
      <stop
         stop-color="#a663c0"
         offset="1"
         id="stop14" />
    </linearGradient>
    <linearGradient
       id="linearGradient932"
       x1="379.24"
       x2="374.24"
       y1="546.85"
       y2="546.85"
       gradientTransform="matrix(2.1429 0 0 2.1429 -769.68 -1134.5)"
       gradientUnits="userSpaceOnUse">
      <stop
         stop-color="#f6f5f4"
         offset="0"
         id="stop17" />
      <stop
         stop-color="#fff"
         offset=".6"
         id="stop19" />
      <stop
         stop-color="#dddbd8"
         offset="1"
         id="stop21" />
    </linearGradient>
    <linearGradient
       id="linearGradient1146"
       x1="18"
       x2="18"
       y1="52"
       y2="12"
       gradientUnits="userSpaceOnUse">
      <stop
         stop-color="#5e337f"
         offset="0"
         id="stop24" />
      <stop
         stop-color="#ab60bf"
         offset="1"
         id="stop26" />
    </linearGradient>
    <clipPath
       clipPathUnits="userSpaceOnUse"
       id="clipPath210">
      <path
         id="path212"
         style="display:none;opacity:0.2;fill:#e6e6e6"
         d="m 32.1875,6.0332031 v 1 h 1 v -1 z m 0,1 h -1 v 1 h 1 z m 0,1 v 1 h 1 v -1 z m 0,1 h -1 v 0.9999999 h 1 z m 0,0.9999999 v 1 h 1 v -1 z m 0,1 h -1 v 1 h 1 z m 0,1 v 1 h 1 v -1 z m 0,1 h -1 v 1 h 1 z m 0,1 v 1 h 1 v -1 z m 0,1 h -1 v 1 h 1 z m 0,1 v 1 h 1 v -1 z m 0,1 h -1 v 1 h 1 z m 0,1 v 1 h 1 v -1 z m 0,1 h -1 v 1 h 1 c 0.04125,-0.367529 0,-1 0,-1 z m 0,1 v 1 h 1 v -1 z m 0,1 h -1 v 1 h 1 z m 0,1 v 1 h 1 v -1 z m 0,1 h -1 v 1 h 1 z m 0,1 v 1 h 1 v -1 z m 0,1 h -1 v 1 h 1 z m 0,1 v 1 h 1 v -1 z m 0,1 h -1 c -0.0049,0.04347 -0.0074,0.08816 -0.0098,0.128906 -1.721073,0.449126 -2.990234,2.018304 -2.990234,3.871094 v 8 c 0,2.2 1.79,4 4,4 2.21,0 4,-1.8 4,-4 v -8 c 0,-2.2 -1.789334,-4 -4,-4 z m 0,2 c 1.104,0 2,0.8 2,2 0,0.999998 -0.896,2 -2,2 -1.104,0 -2,-1.000002 -2,-2 0,-1.2 0.896,-2 2,-2 z m 0,6 c 1.10457,0 2,0.89543 2,2 v 2 c 0,1.10457 -0.89543,2 -2,2 -1.10457,0 -2,-0.89543 -2,-2 v -2 c 0,-1.10457 0.89543,-2 2,-2 z m -1.642578,11.541016 c -1.645028,0 -2.937591,0.316332 -3.876953,0.949219 -0.934779,0.632886 -1.402344,1.507814 -1.402344,2.623046 0,1.11216 0.467565,1.984302 1.402344,2.617188 0.939362,0.632886 2.231925,0.949219 3.876953,0.949219 1.649611,0 2.940221,-0.316333 3.875,-0.949219 0.934779,-0.632886 1.402344,-1.505028 1.402344,-2.617188 0,-1.115232 -0.467565,-1.99016 -1.402344,-2.623046 -0.934779,-0.632887 -2.225389,-0.949219 -3.875,-0.949219 z m 11.964844,0 c -1.645028,0 -2.935639,0.316332 -3.875,0.949219 -0.934779,0.632886 -1.402344,1.507814 -1.402344,2.623046 0,1.11216 0.467565,1.984302 1.402344,2.617188 0.939361,0.632886 2.229972,0.949219 3.875,0.949219 1.64961,0 2.942173,-0.316333 3.876953,-0.949219 0.934778,-0.632886 1.402343,-1.505028 1.402343,-2.617188 10e-7,-1.115232 -0.467565,-1.99016 -1.402343,-2.623046 -0.93478,-0.632887 -2.227343,-0.949219 -3.876953,-0.949219 z m -27.361328,0.125 v 1.339843 h 5.347656 l -5.50586,4.466797 v 1.072266 h 8.941407 v -1.339844 h -5.664063 l 5.50586,-4.464843 v -1.074219 z m 15.396484,1.160156 c 0.811059,0 1.438334,0.200215 1.882812,0.599609 0.444479,0.399395 0.666016,0.962446 0.666016,1.6875 0,0.721982 -0.221537,1.282247 -0.666016,1.681641 -0.444478,0.399394 -1.071753,0.599609 -1.882812,0.599609 -0.806476,0 -1.432475,-0.200215 -1.876953,-0.599609 C 28.22349,51.428731 28,50.868466 28,50.146484 c 0,-0.725054 0.22349,-1.288105 0.667969,-1.6875 0.444478,-0.399394 1.070477,-0.599609 1.876953,-0.599609 z m 11.964844,0 c 0.811058,0 1.440287,0.200215 1.884765,0.599609 0.444479,0.399395 0.666016,0.962446 0.666016,1.6875 0,0.721982 -0.221537,1.282247 -0.666016,1.681641 -0.444478,0.399394 -1.073707,0.599609 -1.884765,0.599609 -0.806476,0 -1.430522,-0.200215 -1.875,-0.599609 -0.444479,-0.399394 -0.667969,-0.959659 -0.667969,-1.681641 0,-0.725054 0.22349,-1.288105 0.667969,-1.6875 0.444478,-0.399394 1.068524,-0.599609 1.875,-0.599609 z" />
      <path
         id="lpe_path-effect214"
         style="opacity:0.2;fill:#e6e6e6"
         class="powerclip"
         d="M 4.6784649,1.9709001 H 58.021723 V 61.968901 H 4.6784649 Z M 32.1875,6.0332031 v 1 h 1 v -1 z m 0,1 h -1 v 1 h 1 z m 0,1 v 1 h 1 v -1 z m 0,1 h -1 v 0.9999999 h 1 z m 0,0.9999999 v 1 h 1 v -1 z m 0,1 h -1 v 1 h 1 z m 0,1 v 1 h 1 v -1 z m 0,1 h -1 v 1 h 1 z m 0,1 v 1 h 1 v -1 z m 0,1 h -1 v 1 h 1 z m 0,1 v 1 h 1 v -1 z m 0,1 h -1 v 1 h 1 z m 0,1 v 1 h 1 v -1 z m 0,1 h -1 v 1 h 1 c 0.04125,-0.367529 0,-1 0,-1 z m 0,1 v 1 h 1 v -1 z m 0,1 h -1 v 1 h 1 z m 0,1 v 1 h 1 v -1 z m 0,1 h -1 v 1 h 1 z m 0,1 v 1 h 1 v -1 z m 0,1 h -1 v 1 h 1 z m 0,1 v 1 h 1 v -1 z m 0,1 h -1 c -0.0049,0.04347 -0.0074,0.08816 -0.0098,0.128906 -1.721073,0.449126 -2.990234,2.018304 -2.990234,3.871094 v 8 c 0,2.2 1.79,4 4,4 2.21,0 4,-1.8 4,-4 v -8 c 0,-2.2 -1.789334,-4 -4,-4 z m 0,2 c -1.104,0 -2,0.8 -2,2 0,0.999998 0.896,2 2,2 1.104,0 2,-1.000002 2,-2 0,-1.2 -0.896,-2 -2,-2 z m 0,6 c -1.10457,0 -2,0.89543 -2,2 v 2 c 0,1.10457 0.89543,2 2,2 1.10457,0 2,-0.89543 2,-2 v -2 c 0,-1.10457 -0.89543,-2 -2,-2 z m -1.642578,11.541016 c -1.645028,0 -2.937591,0.316332 -3.876953,0.949219 -0.934779,0.632886 -1.402344,1.507814 -1.402344,2.623046 0,1.11216 0.467565,1.984302 1.402344,2.617188 0.939362,0.632886 2.231925,0.949219 3.876953,0.949219 1.649611,0 2.940221,-0.316333 3.875,-0.949219 0.934779,-0.632886 1.402344,-1.505028 1.402344,-2.617188 0,-1.115232 -0.467565,-1.99016 -1.402344,-2.623046 -0.934779,-0.632887 -2.225389,-0.949219 -3.875,-0.949219 z m 11.964844,0 c -1.645028,0 -2.935639,0.316332 -3.875,0.949219 -0.934779,0.632886 -1.402344,1.507814 -1.402344,2.623046 0,1.11216 0.467565,1.984302 1.402344,2.617188 0.939361,0.632886 2.229972,0.949219 3.875,0.949219 1.64961,0 2.942173,-0.316333 3.876953,-0.949219 0.934778,-0.632886 1.402343,-1.505028 1.402343,-2.617188 10e-7,-1.115232 -0.467565,-1.99016 -1.402343,-2.623046 -0.93478,-0.632887 -2.227343,-0.949219 -3.876953,-0.949219 z m -27.361328,0.125 v 1.339843 h 5.347656 l -5.50586,4.466797 v 1.072266 h 8.941407 v -1.339844 h -5.664063 l 5.50586,-4.464843 v -1.074219 z m 15.396484,1.160156 c -0.806476,0 -1.432475,0.200215 -1.876953,0.599609 C 28.22349,48.858379 28,49.42143 28,50.146484 c 0,0.721982 0.22349,1.282247 0.667969,1.681641 0.444478,0.399394 1.070477,0.599609 1.876953,0.599609 0.811059,0 1.438334,-0.200215 1.882812,-0.599609 0.444479,-0.399394 0.666016,-0.959659 0.666016,-1.681641 0,-0.725054 -0.221537,-1.288105 -0.666016,-1.6875 -0.444478,-0.399394 -1.071753,-0.599609 -1.882812,-0.599609 z m 11.964844,0 c -0.806476,0 -1.430522,0.200215 -1.875,0.599609 -0.444479,0.399395 -0.667969,0.962446 -0.667969,1.6875 0,0.721982 0.22349,1.282247 0.667969,1.681641 0.444478,0.399394 1.068524,0.599609 1.875,0.599609 0.811058,0 1.440287,-0.200215 1.884765,-0.599609 0.444479,-0.399394 0.666016,-0.959659 0.666016,-1.681641 0,-0.725054 -0.221537,-1.288105 -0.666016,-1.6875 -0.444478,-0.399394 -1.073707,-0.599609 -1.884765,-0.599609 z" />
    </clipPath>
  </defs>
  <path
     x="9.6784649"
     y="6.9709001"
     width="43.343258"
     height="49.998001"
     rx="8.6689987"
     ry="10"
     fill="url(#linearGradient862)"
     stroke-width="3.14173"
     id="rect35"
     style="fill:#2c2c2c;fill-opacity:1"
     clip-path="url(#clipPath210)"
     inkscape:path-effect="#path-effect214"
     d="m 18.347464,6.9709001 h 26.00526 c 4.802625,0 8.668999,4.4599999 8.668999,9.9999999 v 29.998001 c 0,5.54 -3.866374,10 -8.668999,10 h -26.00526 c -4.802626,0 -8.6689991,-4.46 -8.6689991,-10 V 16.9709 c 0,-5.54 3.8663731,-9.9999999 8.6689991,-9.9999999 z"
     sodipodi:type="rect" />
  <ellipse
     cx="31.366306"
     cy="32.043999"
     fill-opacity="0"
     stroke-width="1.46319"
     id="circle39"
     rx="26.007862"
     ry="30.000999" />
  <circle
     cx="32.02"
     cy="32.044"
     r="0"
     fill="url(#b)"
     stroke-width="1.5715"
     id="circle41" />
  <g
     aria-label="ZOO"
     transform="matrix(1.2212657,0,0,0.81882264,-2.7300265,-0.03223979)"
     id="text93"
     style="font-weight:bold;font-size:11.5263px;line-height:1.25;font-family:sans-serif;-inkscape-font-specification:'sans-serif Bold';fill:#e6e6e6;stroke-width:0.288159" />
</svg>
