<?xml version="1.0" encoding="UTF-8" standalone="no"?>
<svg
   width="64"
   height="64"
   version="1.1"
   id="svg125"
   sodipodi:docname="application-x-php.svg"
   inkscape:version="1.1 (1:1.1+rc+202105240936+c4e8f9ed74)"
   xmlns:inkscape="http://www.inkscape.org/namespaces/inkscape"
   xmlns:sodipodi="http://sodipodi.sourceforge.net/DTD/sodipodi-0.dtd"
   xmlns:xlink="http://www.w3.org/1999/xlink"
   xmlns="http://www.w3.org/2000/svg"
   xmlns:svg="http://www.w3.org/2000/svg"
   xmlns:rdf="http://www.w3.org/1999/02/22-rdf-syntax-ns#"
   xmlns:cc="http://creativecommons.org/ns#"
   xmlns:dc="http://purl.org/dc/elements/1.1/">
  <metadata
     id="metadata129">
    <rdf:RDF>
      <cc:Work
         rdf:about="">
        <dc:format>image/svg+xml</dc:format>
        <dc:type
           rdf:resource="http://purl.org/dc/dcmitype/StillImage" />
        <dc:title />
      </cc:Work>
    </rdf:RDF>
  </metadata>
  <sodipodi:namedview
     pagecolor="#ffffff"
     bordercolor="#666666"
     borderopacity="1"
     objecttolerance="10"
     gridtolerance="10"
     guidetolerance="10"
     inkscape:pageopacity="0"
     inkscape:pageshadow="2"
     inkscape:window-width="1920"
     inkscape:window-height="996"
     id="namedview127"
     showgrid="false"
     inkscape:zoom="12.578125"
     inkscape:cx="55.373913"
     inkscape:cy="28.024845"
     inkscape:window-x="0"
     inkscape:window-y="0"
     inkscape:window-maximized="1"
     inkscape:current-layer="g121"
     inkscape:document-rotation="0"
     inkscape:pagecheckerboard="0" />
  <defs
     id="defs47">
    <inkscape:path-effect
       effect="powerclip"
       id="path-effect170"
       is_visible="true"
       lpeversion="1"
       inverse="true"
       flatten="false"
       hide_clip="false"
       message="Use fill-rule evenodd on &lt;b&gt;fill and stroke&lt;/b&gt; dialog if no flatten result after convert clip to paths." />
    <linearGradient
       id="linearGradient6721-3"
       x1="7.9373"
       x2="7.9373"
       y1="15.346"
       y2="16.933"
       gradientUnits="userSpaceOnUse"
       xlink:href="#linearGradient6261" />
    <linearGradient
       id="linearGradient6261">
      <stop
         offset="0"
         id="stop3" />
      <stop
         stop-opacity="0"
         offset="1"
         id="stop5" />
    </linearGradient>
    <radialGradient
       id="radialGradient6723-5"
       cx="35"
       cy="4"
       r="3.7275"
       gradientTransform="matrix(1.696 0 0 1.0731 -24.361 -.29238)"
       gradientUnits="userSpaceOnUse"
       xlink:href="#linearGradient6261" />
    <linearGradient
       id="linearGradient6725-3"
       x1="43"
       x2="46.748"
       y1="12"
       y2="8.2517"
       gradientUnits="userSpaceOnUse"
       xlink:href="#linearGradient6261" />
    <radialGradient
       id="radialGradient6727-5"
       cx="52"
       cy="22"
       r="5.2061"
       gradientTransform="matrix(.96042 0 0 1.3331 2.0581 -7.3283)"
       gradientUnits="userSpaceOnUse"
       xlink:href="#linearGradient6261" />
    <linearGradient
       id="linearGradient6729-6"
       x1="5.8207"
       x2="5.8207"
       y1="1.0583"
       gradientUnits="userSpaceOnUse"
       xlink:href="#linearGradient6261" />
    <radialGradient
       id="radialGradient6731-2"
       cx="3.1749"
       cy="1.3229"
       r=".79373"
       gradientTransform="matrix(-2.1078e-8 -1.3333 1.6667 -2.6348e-8 .97012 5.2916)"
       gradientUnits="userSpaceOnUse"
       xlink:href="#linearGradient6261" />
    <linearGradient
       id="linearGradient6733-9"
       x1="13.758"
       x2="15.081"
       y1="10.583"
       y2="10.583"
       gradientUnits="userSpaceOnUse"
       xlink:href="#linearGradient6261" />
    <linearGradient
       id="linearGradient6735-1"
       x1="3.1749"
       x2="1.852"
       y1="8.4665"
       y2="8.4665"
       gradientUnits="userSpaceOnUse"
       xlink:href="#linearGradient6261" />
    <radialGradient
       id="radialGradient6737-2"
       cx="13.758"
       cy="15.346"
       r=".79373"
       gradientTransform="matrix(5.1718e-7 2 -1.6667 4.3098e-7 39.334 -12.171)"
       gradientUnits="userSpaceOnUse"
       xlink:href="#linearGradient6261" />
    <radialGradient
       id="radialGradient6739-7"
       cx="3.1749"
       cy="15.346"
       r=".79373"
       gradientTransform="matrix(-1.6667 -1.37e-6 1.644e-6 -2 8.4665 46.037)"
       gradientUnits="userSpaceOnUse"
       xlink:href="#linearGradient6261" />
    <linearGradient
       id="linearGradient6741-0"
       x1="7.9373"
       x2="7.9373"
       y1="15.346"
       y2="16.668"
       gradientUnits="userSpaceOnUse"
       xlink:href="#linearGradient6261" />
    <radialGradient
       id="radialGradient6743-9"
       cx="35"
       cy="4"
       r="3.7275"
       gradientTransform="matrix(1.6115 -1.9122e-7 9.5496e-8 .80482 -21.403 .78072)"
       gradientUnits="userSpaceOnUse"
       xlink:href="#linearGradient6261" />
    <linearGradient
       id="linearGradient6745-3"
       x1="43"
       x2="46.004"
       y1="12"
       y2="8.9965"
       gradientUnits="userSpaceOnUse"
       xlink:href="#linearGradient6261" />
    <radialGradient
       id="radialGradient6747-6"
       cx="52"
       cy="22"
       r="5.2061"
       gradientTransform="matrix(.76834 -9.6042e-8 1.534e-7 1.2272 12.047 -4.9986)"
       gradientUnits="userSpaceOnUse"
       xlink:href="#linearGradient6261" />
    <linearGradient
       id="linearGradient6749-0"
       x1="5.8207"
       x2="5.8207"
       y1="1.0583"
       y2=".26458"
       gradientUnits="userSpaceOnUse"
       xlink:href="#linearGradient6261" />
    <radialGradient
       id="radialGradient6751-6"
       cx="3.1749"
       cy="1.3229"
       r=".79373"
       gradientTransform="matrix(-7.442e-8 -1 1.3333 -9.9226e-8 1.4111 4.2333)"
       gradientUnits="userSpaceOnUse"
       xlink:href="#linearGradient6261" />
    <linearGradient
       id="linearGradient6753-2"
       x1="13.758"
       x2="14.816"
       y1="10.583"
       y2="10.583"
       gradientUnits="userSpaceOnUse"
       xlink:href="#linearGradient6261" />
    <linearGradient
       id="linearGradient6755-6"
       x1="3.1749"
       x2="2.1166"
       y1="8.4665"
       y2="8.4665"
       gradientUnits="userSpaceOnUse"
       xlink:href="#linearGradient6261" />
    <radialGradient
       id="radialGradient6757-1"
       cx="13.758"
       cy="15.346"
       r=".79373"
       gradientTransform="matrix(0 1.6667 -1.3333 0 34.219 -7.5846)"
       gradientUnits="userSpaceOnUse"
       xlink:href="#linearGradient6261" />
    <radialGradient
       id="radialGradient6759-8"
       cx="3.1749"
       cy="15.346"
       r=".79373"
       gradientTransform="matrix(-1.3333 0 0 -1.6667 7.4082 40.921)"
       gradientUnits="userSpaceOnUse"
       xlink:href="#linearGradient6261" />
    <linearGradient
       id="linearGradient6761-7"
       x1="21.039"
       x2="21.039"
       y1="2"
       y2="62"
       gradientTransform="matrix(.26458 0 0 .26458 0 -.26458)"
       gradientUnits="userSpaceOnUse">
      <stop
         stop-color="#ff5b59"
         offset="0"
         id="stop27" />
      <stop
         stop-color="#ff983d"
         offset="1"
         id="stop29" />
    </linearGradient>
    <radialGradient
       id="radialGradient6763-2"
       cx="40"
       cy="12"
       r="8"
       gradientTransform="matrix(1.5 0 0 -2 -14 40)"
       gradientUnits="userSpaceOnUse"
       xlink:href="#linearGradient6261" />
    <radialGradient
       id="radialGradient6765-3"
       cx="10.583"
       cy="4.2333"
       r="2.1166"
       gradientTransform="matrix(-2 3.1236e-7 -3.1236e-7 -2 31.749 12.7)"
       gradientUnits="userSpaceOnUse"
       xlink:href="#linearGradient6261" />
    <radialGradient
       id="radialGradient6767-7"
       cx="40"
       cy="12"
       r="8"
       gradientTransform="matrix(0 -1.5 2 0 16 70)"
       gradientUnits="userSpaceOnUse"
       xlink:href="#linearGradient6261" />
    <linearGradient
       id="linearGradient7282"
       x1="10.583"
       x2="6.3499"
       y1="3.1749"
       y2="3.1749"
       gradientTransform="matrix(1 0 0 .66667 0 1.4111)"
       gradientUnits="userSpaceOnUse"
       xlink:href="#linearGradient6261" />
    <linearGradient
       id="linearGradient7284"
       x1="10.583"
       x2="8.7311"
       y1="3.0426"
       y2="3.0426"
       gradientTransform="matrix(1 0 0 .66667 0 1.4111)"
       gradientUnits="userSpaceOnUse"
       xlink:href="#linearGradient6261" />
    <radialGradient
       id="radialGradient6773-5"
       cx="10.583"
       cy="4.2333"
       r="2.1166"
       gradientTransform="matrix(-.875 -1.6564e-7 1.6631e-7 -.87849 19.843 7.9521)"
       gradientUnits="userSpaceOnUse"
       xlink:href="#linearGradient6261" />
    <radialGradient
       id="radialGradient6775-9"
       cx="40"
       cy="12"
       r="8"
       gradientTransform="matrix(0 -1.3078 .87983 0 29.442 62.311)"
       gradientUnits="userSpaceOnUse"
       xlink:href="#linearGradient6261" />
    <linearGradient
       id="linearGradient7286"
       x1="10.583"
       x2="6.3499"
       y1="3.1749"
       y2="3.1749"
       gradientTransform="matrix(1 0 0 .66667 -14.816 9.3484)"
       gradientUnits="userSpaceOnUse"
       xlink:href="#linearGradient6261" />
    <linearGradient
       id="linearGradient7288"
       x1="10.583"
       x2="8.7237"
       y1="3.0426"
       y2="3.0426"
       gradientTransform="matrix(1 0 0 .66667 -14.816 9.3484)"
       gradientUnits="userSpaceOnUse"
       xlink:href="#linearGradient6261" />
    <radialGradient
       id="radialGradient6781-2"
       cx="40"
       cy="12"
       r="8"
       gradientTransform="matrix(1.4336 0 0 -.87849 -11.344 26.542)"
       gradientUnits="userSpaceOnUse"
       xlink:href="#linearGradient6261" />
    <linearGradient
       id="linearGradient7290"
       x1="40"
       x2="46"
       y1="17"
       y2="11"
       gradientTransform="matrix(.26458 0 0 .26458 -1.6667e-7 -.26458)"
       gradientUnits="userSpaceOnUse">
      <stop
         stop-color="#fefefe"
         offset="0"
         id="stop42" />
      <stop
         stop-color="#e9e9e9"
         offset="1"
         id="stop44" />
    </linearGradient>
    <clipPath
       clipPathUnits="userSpaceOnUse"
       id="clipPath166">
      <path
         id="path168"
         style="font-style:italic;font-variant:normal;font-weight:bold;font-stretch:normal;font-family:sans-serif;-inkscape-font-specification:'sans-serif Bold Italic';display:none;fill:#e6e6e6;stroke-width:0.108343"
         d="m 7.8400942,6.5671508 -0.6190719,3.39766 H 7.9568806 L 8.1785684,8.7618068 C 8.2209496,8.5390877 8.2958718,8.365073 8.4038734,8.2398849 8.513244,8.1132406 8.6438213,8.0497193 8.7955731,8.0497193 c 0.088864,0 0.1573021,0.025532 0.2051516,0.076479 0.049218,0.050949 0.073896,0.12284 0.073896,0.2160035 0,0.03348 -0.0049,0.079229 -0.01447,0.1374567 -0.0082,0.056771 -0.020285,0.1268285 -0.03669,0.2098023 l -0.2320222,1.27535 h 0.736375 L 9.8006599,8.4755249 c 0.012282,-0.066961 0.020862,-0.1287432 0.026355,-0.1855148 0.00684,-0.056772 0.010334,-0.1084449 0.010334,-0.1550265 0,-0.2139851 -0.05724,-0.380241 -0.172079,-0.4981511 C 9.550431,7.5189224 9.3867758,7.4601024 9.1748698,7.4601024 c -0.1490179,0 -0.2916761,0.034417 -0.4283895,0.1028342 C 8.6097669,7.6313536 8.4735909,7.7359221 8.3382445,7.8771232 L 8.5785353,6.5671508 Z M 6.0888136,7.4601024 c -0.1462834,0 -0.2810599,0.034417 -0.404102,0.1028342 -0.1230421,0.066961 -0.2403215,0.17153 -0.3524267,0.3141866 L 5.3999799,7.5190123 H 4.6615377 L 4.0440163,10.894969 H 4.7824585 L 5.0180982,9.610834 c 0.075193,0.1426568 0.1676098,0.2483535 0.2769806,0.3167705 0.110738,0.066961 0.2448146,0.1002505 0.4020349,0.1002505 0.1790946,0 0.3464319,-0.046972 0.5022852,-0.1415908 C 6.3566192,9.7916449 6.4976947,9.652659 6.6221039,9.4692436 6.7205376,9.3236755 6.795458,9.1621209 6.847409,8.984528 6.9007273,8.8069349 6.9275058,8.6240343 6.9275058,8.4362515 6.9275058,8.1349257 6.8525857,7.8967788 6.702201,7.722097 6.5518161,7.5474153 6.3472018,7.4601024 6.0888136,7.4601024 Z m 5.9964184,0 c -0.146283,0 -0.28106,0.034417 -0.404102,0.1028342 -0.123043,0.066961 -0.240839,0.17153 -0.352943,0.3141866 l 0.06769,-0.3581109 H 10.657952 L 10.04043,10.894969 h 0.738443 l 0.23564,-1.284135 c 0.07519,0.1426568 0.167612,0.2483532 0.27698,0.3167705 0.110738,0.066961 0.244815,0.1002505 0.402035,0.1002505 0.179094,0 0.346432,-0.046972 0.502285,-0.1415908 0.157221,-0.094619 0.29778,-0.2336052 0.422189,-0.4170206 0.09843,-0.1455681 0.173871,-0.3071227 0.225821,-0.4847156 0.05332,-0.1775931 0.0801,-0.3604937 0.0801,-0.5482765 0,-0.3013258 -0.07544,-0.5394727 -0.225822,-0.7141545 C 12.547717,7.5474153 12.34362,7.4601024 12.085232,7.4601024 Z M 5.7896127,8.0280157 c 0.1230421,0 0.2163424,0.039213 0.2805976,0.1178198 0.065622,0.077151 0.0987,0.1899947 0.0987,0.3384742 0,0.2853135 -0.060556,0.5193703 -0.1808641,0.702786 -0.1203078,0.18196 -0.2722479,0.2733631 -0.4568108,0.2733631 -0.120308,0 -0.2148249,-0.03799 -0.2831816,-0.1136861 -0.06699,-0.077151 -0.100767,-0.1828477 -0.100767,-0.3167703 0,-0.296959 0.059856,-0.5375511 0.178797,-0.7224228 C 5.4463917,8.1212525 5.6009482,8.0280157 5.7896127,8.0280157 Z m 5.9959013,0 c 0.12304,-3e-7 0.216856,0.039213 0.281115,0.1178198 0.06562,0.077151 0.09818,0.1899947 0.09818,0.3384742 0,0.2853135 -0.06004,0.5193703 -0.180347,0.702786 -0.120308,0.18196 -0.272765,0.2733631 -0.457328,0.2733631 -0.120308,0 -0.214308,-0.03799 -0.282665,-0.1136861 -0.06699,-0.077151 -0.100767,-0.1828477 -0.100767,-0.3167703 0,-0.296959 0.05934,-0.5375511 0.17828,-0.7224228 0.120309,-0.1863271 0.274865,-0.2795642 0.463529,-0.2795639 z" />
      <path
         id="lpe_path-effect170"
         style="font-style:italic;font-variant:normal;font-weight:bold;font-stretch:normal;font-family:sans-serif;-inkscape-font-specification:'sans-serif Bold Italic';fill:#e6e6e6;stroke-width:0.108343"
         class="powerclip"
         d="M -1.7916522,-3.7813297 H 18.718883 V 20.283949 H -1.7916522 Z M 7.8400942,6.5671508 7.2210223,9.9648108 H 7.9568806 L 8.1785684,8.7618068 C 8.2209496,8.5390877 8.2958718,8.365073 8.4038734,8.2398849 8.513244,8.1132406 8.6438213,8.0497193 8.7955731,8.0497193 c 0.088864,0 0.1573021,0.025532 0.2051516,0.076479 0.049218,0.050949 0.073896,0.12284 0.073896,0.2160035 0,0.03348 -0.0049,0.079229 -0.01447,0.1374567 -0.0082,0.056771 -0.020285,0.1268285 -0.03669,0.2098023 l -0.2320222,1.27535 h 0.736375 L 9.8006599,8.4755249 c 0.012282,-0.066961 0.020862,-0.1287432 0.026355,-0.1855148 0.00684,-0.056772 0.010334,-0.1084449 0.010334,-0.1550265 0,-0.2139851 -0.05724,-0.380241 -0.172079,-0.4981511 C 9.550431,7.5189224 9.3867758,7.4601024 9.1748698,7.4601024 c -0.1490179,0 -0.2916761,0.034417 -0.4283895,0.1028342 C 8.6097669,7.6313536 8.4735909,7.7359221 8.3382445,7.8771232 L 8.5785353,6.5671508 Z M 6.0888136,7.4601024 c -0.1462834,0 -0.2810599,0.034417 -0.404102,0.1028342 -0.1230421,0.066961 -0.2403215,0.17153 -0.3524267,0.3141866 L 5.3999799,7.5190123 H 4.6615377 L 4.0440163,10.894969 H 4.7824585 L 5.0180982,9.610834 c 0.075193,0.1426568 0.1676098,0.2483535 0.2769806,0.3167705 0.110738,0.066961 0.2448146,0.1002505 0.4020349,0.1002505 0.1790946,0 0.3464319,-0.046972 0.5022852,-0.1415908 C 6.3566192,9.7916449 6.4976947,9.652659 6.6221039,9.4692436 6.7205376,9.3236755 6.795458,9.1621209 6.847409,8.984528 6.9007273,8.8069349 6.9275058,8.6240343 6.9275058,8.4362515 6.9275058,8.1349257 6.8525857,7.8967788 6.702201,7.722097 6.5518161,7.5474153 6.3472018,7.4601024 6.0888136,7.4601024 Z m 5.9964184,0 c -0.146283,0 -0.28106,0.034417 -0.404102,0.1028342 -0.123043,0.066961 -0.240839,0.17153 -0.352943,0.3141866 l 0.06769,-0.3581109 H 10.657952 L 10.04043,10.894969 h 0.738443 l 0.23564,-1.284135 c 0.07519,0.1426568 0.167612,0.2483532 0.27698,0.3167705 0.110738,0.066961 0.244815,0.1002505 0.402035,0.1002505 0.179094,0 0.346432,-0.046972 0.502285,-0.1415908 0.157221,-0.094619 0.29778,-0.2336052 0.422189,-0.4170206 0.09843,-0.1455681 0.173871,-0.3071227 0.225821,-0.4847156 0.05332,-0.1775931 0.0801,-0.3604937 0.0801,-0.5482765 0,-0.3013258 -0.07544,-0.5394727 -0.225822,-0.7141545 C 12.547717,7.5474153 12.34362,7.4601024 12.085232,7.4601024 Z M 5.7896127,8.0280157 c -0.1886645,0 -0.343221,0.093237 -0.4635289,0.2795639 -0.118941,0.1848717 -0.178797,0.4254638 -0.178797,0.7224228 0,0.1339226 0.033777,0.2396193 0.100767,0.3167703 0.068357,0.075696 0.1628736,0.1136861 0.2831816,0.1136861 0.1845629,0 0.336503,-0.091403 0.4568108,-0.2733631 0.1203081,-0.1834157 0.1808641,-0.4174725 0.1808641,-0.702786 0,-0.1484795 -0.033078,-0.2613232 -0.0987,-0.3384742 C 6.0059551,8.0672287 5.9126548,8.0280157 5.7896127,8.0280157 Z m 5.9959013,0 h -3e-6 c -0.188664,-3e-7 -0.34322,0.093237 -0.463529,0.2795639 -0.11894,0.1848717 -0.17828,0.4254638 -0.17828,0.7224228 0,0.1339226 0.03378,0.2396193 0.100767,0.3167703 0.06836,0.075696 0.162357,0.1136861 0.282665,0.1136861 0.184563,0 0.33702,-0.091403 0.457328,-0.2733631 0.120307,-0.1834157 0.180347,-0.4174725 0.180347,-0.702786 0,-0.1484795 -0.03256,-0.2613232 -0.09818,-0.3384742 -0.06426,-0.078607 -0.158075,-0.1178201 -0.281115,-0.1178198 z" />
    </clipPath>
  </defs>
  <g
     transform="matrix(3.7796 0 0 3.7796 -.021092 1.0245)"
     id="g121">
    <rect
       x="8.7209"
       y="-.54211"
       width="6.6358"
       height="6.6348"
       fill="none"
       id="rect97" />
    <path
       d="m 3.6653411,1.219379 c -0.2531703,0 -0.4569933,0.2091037 -0.4569933,0.4688332 V 14.815114 c 0,0.259739 0.203823,0.468835 0.4569933,0.468835 H 13.26189 c 0.25318,0 0.456993,-0.209104 0.456993,-0.468835 V 5.6725322 c 0,-0.2344167 -0.139155,-0.6115936 -0.456993,-0.9376488 l -2.970423,-3.04738 C 9.9857202,1.2905865 9.6059778,1.2186703 9.3774984,1.2186703 Z"
       fill="url(#linearGradient6761-7)"
       stroke-width="0.231438"
       id="path93-3"
       style="fill:#2c2c2c"
       clip-path="url(#clipPath166)"
       inkscape:path-effect="#path-effect170"
       inkscape:original-d="m 3.6653411,1.219379 c -0.2531703,0 -0.4569933,0.2091037 -0.4569933,0.4688332 V 14.815114 c 0,0.259739 0.203823,0.468835 0.4569933,0.468835 H 13.26189 c 0.25318,0 0.456993,-0.209104 0.456993,-0.468835 V 5.6725322 c 0,-0.2344167 -0.139155,-0.6115936 -0.456993,-0.9376488 l -2.970423,-3.04738 C 9.9857202,1.2905865 9.6059778,1.2186703 9.3774984,1.2186703 Z" />
    <g
       aria-label="php"
       transform="matrix(0.96910869,0,0,1.031876,-0.75429583,-0.02103479)"
       id="text909"
       style="font-style:italic;font-variant:normal;font-weight:bold;font-stretch:normal;font-size:4.33371px;line-height:1.25;font-family:sans-serif;-inkscape-font-specification:'sans-serif Bold Italic';fill:#e6e6e6;stroke-width:0.108343" />
  </g>
</svg>
