<?xml version="1.0" encoding="UTF-8" standalone="no"?>
<svg
   width="64"
   height="64"
   version="1.1"
   id="svg125"
   sodipodi:docname="application-x-cda.svg"
   inkscape:version="1.1 (1:1.1+rc+202105240936+c4e8f9ed74)"
   xmlns:inkscape="http://www.inkscape.org/namespaces/inkscape"
   xmlns:sodipodi="http://sodipodi.sourceforge.net/DTD/sodipodi-0.dtd"
   xmlns:xlink="http://www.w3.org/1999/xlink"
   xmlns="http://www.w3.org/2000/svg"
   xmlns:svg="http://www.w3.org/2000/svg"
   xmlns:rdf="http://www.w3.org/1999/02/22-rdf-syntax-ns#"
   xmlns:cc="http://creativecommons.org/ns#"
   xmlns:dc="http://purl.org/dc/elements/1.1/">
  <metadata
     id="metadata129">
    <rdf:RDF>
      <cc:Work
         rdf:about="">
        <dc:format>image/svg+xml</dc:format>
        <dc:type
           rdf:resource="http://purl.org/dc/dcmitype/StillImage" />
        <dc:title />
      </cc:Work>
    </rdf:RDF>
  </metadata>
  <sodipodi:namedview
     pagecolor="#ffffff"
     bordercolor="#666666"
     borderopacity="1"
     objecttolerance="10"
     gridtolerance="10"
     guidetolerance="10"
     inkscape:pageopacity="0"
     inkscape:pageshadow="2"
     inkscape:window-width="1920"
     inkscape:window-height="996"
     id="namedview127"
     showgrid="false"
     inkscape:zoom="12.578125"
     inkscape:cx="38.678261"
     inkscape:cy="35.180124"
     inkscape:window-x="0"
     inkscape:window-y="0"
     inkscape:window-maximized="1"
     inkscape:current-layer="g121"
     inkscape:document-rotation="0"
     inkscape:pagecheckerboard="0" />
  <defs
     id="defs47">
    <inkscape:path-effect
       effect="powerclip"
       id="path-effect478"
       is_visible="true"
       lpeversion="1"
       inverse="true"
       flatten="false"
       hide_clip="false"
       message="Use fill-rule evenodd on &lt;b&gt;fill and stroke&lt;/b&gt; dialog if no flatten result after convert clip to paths." />
    <linearGradient
       id="linearGradient6721-3"
       x1="7.9373"
       x2="7.9373"
       y1="15.346"
       y2="16.933"
       gradientUnits="userSpaceOnUse"
       xlink:href="#linearGradient6261" />
    <linearGradient
       id="linearGradient6261">
      <stop
         offset="0"
         id="stop3" />
      <stop
         stop-opacity="0"
         offset="1"
         id="stop5" />
    </linearGradient>
    <radialGradient
       id="radialGradient6723-5"
       cx="35"
       cy="4"
       r="3.7275"
       gradientTransform="matrix(1.696 0 0 1.0731 -24.361 -.29238)"
       gradientUnits="userSpaceOnUse"
       xlink:href="#linearGradient6261" />
    <linearGradient
       id="linearGradient6725-3"
       x1="43"
       x2="46.748"
       y1="12"
       y2="8.2517"
       gradientUnits="userSpaceOnUse"
       xlink:href="#linearGradient6261" />
    <radialGradient
       id="radialGradient6727-5"
       cx="52"
       cy="22"
       r="5.2061"
       gradientTransform="matrix(.96042 0 0 1.3331 2.0581 -7.3283)"
       gradientUnits="userSpaceOnUse"
       xlink:href="#linearGradient6261" />
    <linearGradient
       id="linearGradient6729-6"
       x1="5.8207"
       x2="5.8207"
       y1="1.0583"
       gradientUnits="userSpaceOnUse"
       xlink:href="#linearGradient6261" />
    <radialGradient
       id="radialGradient6731-2"
       cx="3.1749"
       cy="1.3229"
       r=".79373"
       gradientTransform="matrix(-2.1078e-8 -1.3333 1.6667 -2.6348e-8 .97012 5.2916)"
       gradientUnits="userSpaceOnUse"
       xlink:href="#linearGradient6261" />
    <linearGradient
       id="linearGradient6733-9"
       x1="13.758"
       x2="15.081"
       y1="10.583"
       y2="10.583"
       gradientUnits="userSpaceOnUse"
       xlink:href="#linearGradient6261" />
    <linearGradient
       id="linearGradient6735-1"
       x1="3.1749"
       x2="1.852"
       y1="8.4665"
       y2="8.4665"
       gradientUnits="userSpaceOnUse"
       xlink:href="#linearGradient6261" />
    <radialGradient
       id="radialGradient6737-2"
       cx="13.758"
       cy="15.346"
       r=".79373"
       gradientTransform="matrix(5.1718e-7 2 -1.6667 4.3098e-7 39.334 -12.171)"
       gradientUnits="userSpaceOnUse"
       xlink:href="#linearGradient6261" />
    <radialGradient
       id="radialGradient6739-7"
       cx="3.1749"
       cy="15.346"
       r=".79373"
       gradientTransform="matrix(-1.6667 -1.37e-6 1.644e-6 -2 8.4665 46.037)"
       gradientUnits="userSpaceOnUse"
       xlink:href="#linearGradient6261" />
    <linearGradient
       id="linearGradient6741-0"
       x1="7.9373"
       x2="7.9373"
       y1="15.346"
       y2="16.668"
       gradientUnits="userSpaceOnUse"
       xlink:href="#linearGradient6261" />
    <radialGradient
       id="radialGradient6743-9"
       cx="35"
       cy="4"
       r="3.7275"
       gradientTransform="matrix(1.6115 -1.9122e-7 9.5496e-8 .80482 -21.403 .78072)"
       gradientUnits="userSpaceOnUse"
       xlink:href="#linearGradient6261" />
    <linearGradient
       id="linearGradient6745-3"
       x1="43"
       x2="46.004"
       y1="12"
       y2="8.9965"
       gradientUnits="userSpaceOnUse"
       xlink:href="#linearGradient6261" />
    <radialGradient
       id="radialGradient6747-6"
       cx="52"
       cy="22"
       r="5.2061"
       gradientTransform="matrix(.76834 -9.6042e-8 1.534e-7 1.2272 12.047 -4.9986)"
       gradientUnits="userSpaceOnUse"
       xlink:href="#linearGradient6261" />
    <linearGradient
       id="linearGradient6749-0"
       x1="5.8207"
       x2="5.8207"
       y1="1.0583"
       y2=".26458"
       gradientUnits="userSpaceOnUse"
       xlink:href="#linearGradient6261" />
    <radialGradient
       id="radialGradient6751-6"
       cx="3.1749"
       cy="1.3229"
       r=".79373"
       gradientTransform="matrix(-7.442e-8 -1 1.3333 -9.9226e-8 1.4111 4.2333)"
       gradientUnits="userSpaceOnUse"
       xlink:href="#linearGradient6261" />
    <linearGradient
       id="linearGradient6753-2"
       x1="13.758"
       x2="14.816"
       y1="10.583"
       y2="10.583"
       gradientUnits="userSpaceOnUse"
       xlink:href="#linearGradient6261" />
    <linearGradient
       id="linearGradient6755-6"
       x1="3.1749"
       x2="2.1166"
       y1="8.4665"
       y2="8.4665"
       gradientUnits="userSpaceOnUse"
       xlink:href="#linearGradient6261" />
    <radialGradient
       id="radialGradient6757-1"
       cx="13.758"
       cy="15.346"
       r=".79373"
       gradientTransform="matrix(0 1.6667 -1.3333 0 34.219 -7.5846)"
       gradientUnits="userSpaceOnUse"
       xlink:href="#linearGradient6261" />
    <radialGradient
       id="radialGradient6759-8"
       cx="3.1749"
       cy="15.346"
       r=".79373"
       gradientTransform="matrix(-1.3333 0 0 -1.6667 7.4082 40.921)"
       gradientUnits="userSpaceOnUse"
       xlink:href="#linearGradient6261" />
    <linearGradient
       id="linearGradient6761-7"
       x1="21.039"
       x2="21.039"
       y1="2"
       y2="62"
       gradientTransform="matrix(.26458 0 0 .26458 0 -.26458)"
       gradientUnits="userSpaceOnUse">
      <stop
         stop-color="#ff5b59"
         offset="0"
         id="stop27" />
      <stop
         stop-color="#ff983d"
         offset="1"
         id="stop29" />
    </linearGradient>
    <radialGradient
       id="radialGradient6763-2"
       cx="40"
       cy="12"
       r="8"
       gradientTransform="matrix(1.5 0 0 -2 -14 40)"
       gradientUnits="userSpaceOnUse"
       xlink:href="#linearGradient6261" />
    <radialGradient
       id="radialGradient6765-3"
       cx="10.583"
       cy="4.2333"
       r="2.1166"
       gradientTransform="matrix(-2 3.1236e-7 -3.1236e-7 -2 31.749 12.7)"
       gradientUnits="userSpaceOnUse"
       xlink:href="#linearGradient6261" />
    <radialGradient
       id="radialGradient6767-7"
       cx="40"
       cy="12"
       r="8"
       gradientTransform="matrix(0 -1.5 2 0 16 70)"
       gradientUnits="userSpaceOnUse"
       xlink:href="#linearGradient6261" />
    <linearGradient
       id="linearGradient7282"
       x1="10.583"
       x2="6.3499"
       y1="3.1749"
       y2="3.1749"
       gradientTransform="matrix(1 0 0 .66667 0 1.4111)"
       gradientUnits="userSpaceOnUse"
       xlink:href="#linearGradient6261" />
    <linearGradient
       id="linearGradient7284"
       x1="10.583"
       x2="8.7311"
       y1="3.0426"
       y2="3.0426"
       gradientTransform="matrix(1 0 0 .66667 0 1.4111)"
       gradientUnits="userSpaceOnUse"
       xlink:href="#linearGradient6261" />
    <radialGradient
       id="radialGradient6773-5"
       cx="10.583"
       cy="4.2333"
       r="2.1166"
       gradientTransform="matrix(-.875 -1.6564e-7 1.6631e-7 -.87849 19.843 7.9521)"
       gradientUnits="userSpaceOnUse"
       xlink:href="#linearGradient6261" />
    <radialGradient
       id="radialGradient6775-9"
       cx="40"
       cy="12"
       r="8"
       gradientTransform="matrix(0 -1.3078 .87983 0 29.442 62.311)"
       gradientUnits="userSpaceOnUse"
       xlink:href="#linearGradient6261" />
    <linearGradient
       id="linearGradient7286"
       x1="10.583"
       x2="6.3499"
       y1="3.1749"
       y2="3.1749"
       gradientTransform="matrix(1 0 0 .66667 -14.816 9.3484)"
       gradientUnits="userSpaceOnUse"
       xlink:href="#linearGradient6261" />
    <linearGradient
       id="linearGradient7288"
       x1="10.583"
       x2="8.7237"
       y1="3.0426"
       y2="3.0426"
       gradientTransform="matrix(1 0 0 .66667 -14.816 9.3484)"
       gradientUnits="userSpaceOnUse"
       xlink:href="#linearGradient6261" />
    <radialGradient
       id="radialGradient6781-2"
       cx="40"
       cy="12"
       r="8"
       gradientTransform="matrix(1.4336 0 0 -.87849 -11.344 26.542)"
       gradientUnits="userSpaceOnUse"
       xlink:href="#linearGradient6261" />
    <linearGradient
       id="linearGradient7290"
       x1="40"
       x2="46"
       y1="17"
       y2="11"
       gradientTransform="matrix(.26458 0 0 .26458 -1.6667e-7 -.26458)"
       gradientUnits="userSpaceOnUse">
      <stop
         stop-color="#fefefe"
         offset="0"
         id="stop42" />
      <stop
         stop-color="#e9e9e9"
         offset="1"
         id="stop44" />
    </linearGradient>
    <clipPath
       clipPathUnits="userSpaceOnUse"
       id="clipPath474">
      <path
         id="path476"
         style="display:none;fill:#e6e6e6;stroke-width:0.0848849"
         d="m 8.4633001,4.9667624 c -1.5462893,0 -2.7997754,1.1631188 -2.7997754,2.5977243 0,1.4346055 1.2534861,2.5977243 2.7997754,2.5977243 1.5462879,0 2.7997749,-1.1631188 2.7997749,-2.5977243 0,-1.4346055 -1.253487,-2.5977243 -2.7997749,-2.5977243 z m 0,0.5772147 c 0.085905,0 0.1555432,0.06499 0.1555432,0.1446913 0,0.079699 -0.069638,0.1441742 -0.1555432,0.1441742 -1.0308594,3e-7 -1.8665171,0.7752405 -1.8665171,1.7316441 0,0.079702 -0.069638,0.1441745 -0.1555429,0.1441745 -0.085905,0 -0.1555432,-0.064475 -0.1555432,-0.1441745 0,-1.1158038 0.9749339,-2.0205096 2.1776032,-2.0205096 z m 0,0.8660803 c 0.6872394,0 1.2443446,0.5168272 1.2443446,1.1544293 0,0.6376016 -0.5571052,1.1544296 -1.2443446,1.1544296 -0.6872397,0 -1.2443447,-0.516828 -1.2443447,-1.1544296 0,-0.6376021 0.557105,-1.1544293 1.2443447,-1.1544293 z m 0,0.2888658 c -0.5154297,0 -0.9332586,0.3873616 -0.9332586,0.8655635 0,0.4782019 0.4178289,0.8660806 0.9332586,0.8660806 0.5154294,0 0.9332585,-0.3878787 0.9332585,-0.8660806 0,-0.4782019 -0.4178291,-0.8655635 -0.9332585,-0.8655635 z m 0,0.288349 c 0.3436197,0 0.6221722,0.2584128 0.6221722,0.5772145 0,0.3188017 -0.2785525,0.5772148 -0.6221722,0.5772148 -0.3436202,0 -0.6221725,-0.2584131 -0.6221725,-0.5772148 0,-0.3188017 0.2785523,-0.5772145 0.6221725,-0.5772145 z M 5.5400204,12.056633 c -0.4734131,0 -0.8482879,0.100617 -1.1249744,0.301785 -0.2766864,0.200204 -0.4149539,0.472922 -0.4149539,0.817505 0,0.34362 0.1382675,0.615822 0.4149539,0.816989 0.2766865,0.200205 0.6515613,0.300234 1.1249744,0.300234 0.1586504,0 0.3108524,-0.01336 0.4568107,-0.04031 0.1459586,-0.02695 0.2866193,-0.06695 0.4211549,-0.119887 V 13.68699 c -0.1358048,0.07026 -0.2700378,0.121784 -0.4020348,0.15451 -0.1319973,0.03273 -0.2710626,0.04909 -0.4170209,0.04909 -0.261456,0 -0.4667219,-0.06363 -0.616488,-0.190683 -0.1497661,-0.127053 -0.2247881,-0.301646 -0.2247881,-0.523989 -2e-7,-0.223306 0.075022,-0.398486 0.2247881,-0.525539 0.1497661,-0.127053 0.355032,-0.190682 0.616488,-0.190682 0.1459583,0 0.2850236,0.01636 0.4170209,0.04909 0.131997,0.03273 0.26623,0.08424 0.4020348,0.15451 V 12.217344 C 6.2834504,12.164404 6.1427897,12.124406 5.9968311,12.097457 5.8508728,12.070507 5.6986708,12.056633 5.5400204,12.056633 Z m 1.4851521,0.03927 v 2.155383 h 0.7730646 c 0.4264523,0 0.7458699,-0.02304 0.9590962,-0.06925 0.2132263,-0.04716 0.3959721,-0.126571 0.5482766,-0.238224 0.1332659,-0.09721 0.2324039,-0.209354 0.2971338,-0.336407 0.06473,-0.128015 0.09715,-0.273474 0.09715,-0.43614 0,-0.160742 -0.03242,-0.304438 -0.09715,-0.431491 C 9.5380141,12.612729 9.4388761,12.50059 9.3056099,12.403375 9.1545746,12.291723 8.9734244,12.212903 8.7614674,12.166702 c -0.210688,-0.04717 -0.531701,-0.0708 -0.9632303,-0.0708 z m 3.9500705,0 -1.0526284,2.155383 h 0.7368914 l 0.180864,-0.392733 h 1.146162 l 0.178797,0.392733 h 0.736892 l -1.053146,-2.155383 z m -3.2173128,0.420122 h 0.2630281 c 0.3008011,0 0.5299021,0.05577 0.6872833,0.167428 0.1573812,0.111652 0.23564,0.274136 0.23564,0.487817 0,0.214642 -0.079057,0.378301 -0.2377069,0.490916 -0.1573814,0.112615 -0.3856844,0.168979 -0.6852164,0.168979 H 7.7579302 Z m 3.6555208,0.08526 0.388082,0.857296 h -0.778232 z" />
      <path
         id="lpe_path-effect478"
         style="fill:#e6e6e6;stroke-width:0.0848849"
         class="powerclip"
         d="M -1.7916522,-3.7813297 H 18.718883 V 20.283949 H -1.7916522 Z M 8.4633001,4.9667624 c -1.5462893,0 -2.7997754,1.1631188 -2.7997754,2.5977243 0,1.4346055 1.2534861,2.5977243 2.7997754,2.5977243 1.5462879,0 2.7997749,-1.1631188 2.7997749,-2.5977243 0,-1.4346055 -1.253487,-2.5977243 -2.7997749,-2.5977243 z m 0,0.5772147 c -1.2026693,0 -2.1776032,0.9047058 -2.1776032,2.0205096 0,0.0797 0.069638,0.1441745 0.1555432,0.1441745 0.085905,0 0.1555429,-0.064472 0.1555429,-0.1441745 0,-0.9564036 0.8356577,-1.7316438 1.8665171,-1.7316441 0.085905,0 0.1555432,-0.064475 0.1555432,-0.1441742 0,-0.079701 -0.069638,-0.1446913 -0.1555432,-0.1446913 z m 0,0.8660803 c -0.6872397,0 -1.2443447,0.5168272 -1.2443447,1.1544293 0,0.6376016 0.557105,1.1544296 1.2443447,1.1544296 0.6872394,0 1.2443446,-0.516828 1.2443446,-1.1544296 0,-0.6376021 -0.5571052,-1.1544293 -1.2443446,-1.1544293 z m 0,0.2888658 c -0.5154297,0 -0.9332586,0.3873616 -0.9332586,0.8655635 0,0.4782019 0.4178289,0.8660806 0.9332586,0.8660806 0.5154294,0 0.9332585,-0.3878787 0.9332585,-0.8660806 0,-0.4782019 -0.4178291,-0.8655635 -0.9332585,-0.8655635 z m 0,0.288349 c -0.3436202,0 -0.6221725,0.2584128 -0.6221725,0.5772145 0,0.3188017 0.2785523,0.5772148 0.6221725,0.5772148 0.3436197,0 0.6221722,-0.2584131 0.6221722,-0.5772148 0,-0.3188017 -0.2785525,-0.5772145 -0.6221722,-0.5772145 z M 5.5400204,12.056633 c -0.4734131,0 -0.8482879,0.100617 -1.1249744,0.301785 -0.2766864,0.200204 -0.4149539,0.472922 -0.4149539,0.817505 0,0.34362 0.1382675,0.615822 0.4149539,0.816989 0.2766865,0.200205 0.6515613,0.300234 1.1249744,0.300234 0.1586504,0 0.3108524,-0.01336 0.4568107,-0.04031 0.1459586,-0.02695 0.2866193,-0.06695 0.4211549,-0.119887 V 13.68699 c -0.1358048,0.07026 -0.2700378,0.121784 -0.4020348,0.15451 -0.1319973,0.03273 -0.2710626,0.04909 -0.4170209,0.04909 -0.261456,0 -0.4667219,-0.06363 -0.616488,-0.190683 -0.1497661,-0.127053 -0.2247881,-0.301646 -0.2247881,-0.523989 -2e-7,-0.223306 0.075022,-0.398486 0.2247881,-0.525539 0.1497661,-0.127053 0.355032,-0.190682 0.616488,-0.190682 0.1459583,0 0.2850236,0.01636 0.4170209,0.04909 0.131997,0.03273 0.26623,0.08424 0.4020348,0.15451 V 12.217344 C 6.2834504,12.164404 6.1427897,12.124406 5.9968311,12.097457 5.8508728,12.070507 5.6986708,12.056633 5.5400204,12.056633 Z m 1.4851521,0.03927 v 2.155383 h 0.7730646 c 0.4264523,0 0.7458699,-0.02304 0.9590962,-0.06925 0.2132263,-0.04716 0.3959721,-0.126571 0.5482766,-0.238224 0.1332659,-0.09721 0.2324039,-0.209354 0.2971338,-0.336407 0.06473,-0.128015 0.09715,-0.273474 0.09715,-0.43614 0,-0.160742 -0.03242,-0.304438 -0.09715,-0.431491 C 9.5380141,12.612729 9.4388761,12.50059 9.3056099,12.403375 9.1545746,12.291723 8.9734244,12.212903 8.7614674,12.166702 c -0.210688,-0.04717 -0.531701,-0.0708 -0.9632303,-0.0708 z m 3.9500705,0 -1.0526284,2.155383 h 0.7368914 l 0.180864,-0.392733 h 1.146162 l 0.178797,0.392733 h 0.736892 l -1.053146,-2.155383 z m -3.2173128,0.420122 v 1.31514 h 0.2630281 c 0.299532,0 0.527835,-0.05636 0.6852164,-0.168979 0.1586499,-0.112615 0.2377069,-0.276274 0.2377069,-0.490916 0,-0.213681 -0.078259,-0.376165 -0.23564,-0.487817 C 8.5508604,12.571795 8.3217594,12.516025 8.0209583,12.516025 Z m 3.6555208,0.08526 -0.39015,0.857296 h 0.778232 z" />
    </clipPath>
  </defs>
  <g
     transform="matrix(3.7796 0 0 3.7796 -.021092 1.0245)"
     id="g121">
    <rect
       x="8.7209"
       y="-.54211"
       width="6.6358"
       height="6.6348"
       fill="none"
       id="rect97" />
    <path
       d="m 3.6653411,1.219379 c -0.2531703,0 -0.4569933,0.2091037 -0.4569933,0.4688332 V 14.815114 c 0,0.259739 0.203823,0.468835 0.4569933,0.468835 H 13.26189 c 0.25318,0 0.456993,-0.209104 0.456993,-0.468835 V 5.6725322 c 0,-0.2344167 -0.139155,-0.6115936 -0.456993,-0.9376488 l -2.970423,-3.04738 C 9.9857202,1.2905865 9.6059778,1.2186703 9.3774984,1.2186703 Z"
       fill="url(#linearGradient6761-7)"
       stroke-width="0.231438"
       id="path93-3"
       style="fill:#2c2c2c"
       clip-path="url(#clipPath474)"
       inkscape:path-effect="#path-effect478"
       inkscape:original-d="m 3.6653411,1.219379 c -0.2531703,0 -0.4569933,0.2091037 -0.4569933,0.4688332 V 14.815114 c 0,0.259739 0.203823,0.468835 0.4569933,0.468835 H 13.26189 c 0.25318,0 0.456993,-0.209104 0.456993,-0.468835 V 5.6725322 c 0,-0.2344167 -0.139155,-0.6115936 -0.456993,-0.9376488 l -2.970423,-3.04738 C 9.9857202,1.2905865 9.6059778,1.2186703 9.3774984,1.2186703 Z" />
    <g
       aria-label="CDA"
       transform="scale(1.148313,0.87084268)"
       id="text134"
       style="font-weight:bold;font-size:3.39541px;line-height:1.25;font-family:sans-serif;-inkscape-font-specification:'sans-serif Bold';fill:#e6e6e6;stroke-width:0.0848848" />
  </g>
</svg>
