<?xml version="1.0" encoding="UTF-8" standalone="no"?>
<svg
   width="64"
   height="64"
   version="1.1"
   id="svg125"
   sodipodi:docname="application-pdf.svg"
   inkscape:version="1.1 (1:1.1+202105261517+ce6663b3b7)"
   xmlns:inkscape="http://www.inkscape.org/namespaces/inkscape"
   xmlns:sodipodi="http://sodipodi.sourceforge.net/DTD/sodipodi-0.dtd"
   xmlns:xlink="http://www.w3.org/1999/xlink"
   xmlns="http://www.w3.org/2000/svg"
   xmlns:svg="http://www.w3.org/2000/svg"
   xmlns:rdf="http://www.w3.org/1999/02/22-rdf-syntax-ns#"
   xmlns:cc="http://creativecommons.org/ns#"
   xmlns:dc="http://purl.org/dc/elements/1.1/">
  <metadata
     id="metadata129">
    <rdf:RDF>
      <cc:Work
         rdf:about="">
        <dc:format>image/svg+xml</dc:format>
        <dc:type
           rdf:resource="http://purl.org/dc/dcmitype/StillImage" />
        <dc:title />
      </cc:Work>
    </rdf:RDF>
  </metadata>
  <sodipodi:namedview
     pagecolor="#ffffff"
     bordercolor="#666666"
     borderopacity="1"
     objecttolerance="10"
     gridtolerance="10"
     guidetolerance="10"
     inkscape:pageopacity="0"
     inkscape:pageshadow="2"
     inkscape:window-width="1920"
     inkscape:window-height="996"
     id="namedview127"
     showgrid="false"
     inkscape:zoom="8.8940775"
     inkscape:cx="63.918939"
     inkscape:cy="39.183378"
     inkscape:window-x="0"
     inkscape:window-y="0"
     inkscape:window-maximized="1"
     inkscape:current-layer="g121"
     inkscape:document-rotation="0"
     inkscape:pagecheckerboard="0" />
  <defs
     id="defs47">
    <inkscape:path-effect
       effect="powerclip"
       id="path-effect55"
       is_visible="true"
       lpeversion="1"
       inverse="true"
       flatten="false"
       hide_clip="false"
       message="Use fill-rule evenodd on &lt;b&gt;fill and stroke&lt;/b&gt; dialog if no flatten result after convert clip to paths." />
    <linearGradient
       id="linearGradient6721-3"
       x1="7.9373"
       x2="7.9373"
       y1="15.346"
       y2="16.933"
       gradientUnits="userSpaceOnUse"
       xlink:href="#linearGradient6261" />
    <linearGradient
       id="linearGradient6261">
      <stop
         offset="0"
         id="stop3" />
      <stop
         stop-opacity="0"
         offset="1"
         id="stop5" />
    </linearGradient>
    <radialGradient
       id="radialGradient6723-5"
       cx="35"
       cy="4"
       r="3.7275"
       gradientTransform="matrix(1.696 0 0 1.0731 -24.361 -.29238)"
       gradientUnits="userSpaceOnUse"
       xlink:href="#linearGradient6261" />
    <linearGradient
       id="linearGradient6725-3"
       x1="43"
       x2="46.748"
       y1="12"
       y2="8.2517"
       gradientUnits="userSpaceOnUse"
       xlink:href="#linearGradient6261" />
    <radialGradient
       id="radialGradient6727-5"
       cx="52"
       cy="22"
       r="5.2061"
       gradientTransform="matrix(.96042 0 0 1.3331 2.0581 -7.3283)"
       gradientUnits="userSpaceOnUse"
       xlink:href="#linearGradient6261" />
    <linearGradient
       id="linearGradient6729-6"
       x1="5.8207"
       x2="5.8207"
       y1="1.0583"
       gradientUnits="userSpaceOnUse"
       xlink:href="#linearGradient6261" />
    <radialGradient
       id="radialGradient6731-2"
       cx="3.1749"
       cy="1.3229"
       r=".79373"
       gradientTransform="matrix(-2.1078e-8 -1.3333 1.6667 -2.6348e-8 .97012 5.2916)"
       gradientUnits="userSpaceOnUse"
       xlink:href="#linearGradient6261" />
    <linearGradient
       id="linearGradient6733-9"
       x1="13.758"
       x2="15.081"
       y1="10.583"
       y2="10.583"
       gradientUnits="userSpaceOnUse"
       xlink:href="#linearGradient6261" />
    <linearGradient
       id="linearGradient6735-1"
       x1="3.1749"
       x2="1.852"
       y1="8.4665"
       y2="8.4665"
       gradientUnits="userSpaceOnUse"
       xlink:href="#linearGradient6261" />
    <radialGradient
       id="radialGradient6737-2"
       cx="13.758"
       cy="15.346"
       r=".79373"
       gradientTransform="matrix(5.1718e-7 2 -1.6667 4.3098e-7 39.334 -12.171)"
       gradientUnits="userSpaceOnUse"
       xlink:href="#linearGradient6261" />
    <radialGradient
       id="radialGradient6739-7"
       cx="3.1749"
       cy="15.346"
       r=".79373"
       gradientTransform="matrix(-1.6667 -1.37e-6 1.644e-6 -2 8.4665 46.037)"
       gradientUnits="userSpaceOnUse"
       xlink:href="#linearGradient6261" />
    <linearGradient
       id="linearGradient6741-0"
       x1="7.9373"
       x2="7.9373"
       y1="15.346"
       y2="16.668"
       gradientUnits="userSpaceOnUse"
       xlink:href="#linearGradient6261" />
    <radialGradient
       id="radialGradient6743-9"
       cx="35"
       cy="4"
       r="3.7275"
       gradientTransform="matrix(1.6115 -1.9122e-7 9.5496e-8 .80482 -21.403 .78072)"
       gradientUnits="userSpaceOnUse"
       xlink:href="#linearGradient6261" />
    <linearGradient
       id="linearGradient6745-3"
       x1="43"
       x2="46.004"
       y1="12"
       y2="8.9965"
       gradientUnits="userSpaceOnUse"
       xlink:href="#linearGradient6261" />
    <radialGradient
       id="radialGradient6747-6"
       cx="52"
       cy="22"
       r="5.2061"
       gradientTransform="matrix(.76834 -9.6042e-8 1.534e-7 1.2272 12.047 -4.9986)"
       gradientUnits="userSpaceOnUse"
       xlink:href="#linearGradient6261" />
    <linearGradient
       id="linearGradient6749-0"
       x1="5.8207"
       x2="5.8207"
       y1="1.0583"
       y2=".26458"
       gradientUnits="userSpaceOnUse"
       xlink:href="#linearGradient6261" />
    <radialGradient
       id="radialGradient6751-6"
       cx="3.1749"
       cy="1.3229"
       r=".79373"
       gradientTransform="matrix(-7.442e-8 -1 1.3333 -9.9226e-8 1.4111 4.2333)"
       gradientUnits="userSpaceOnUse"
       xlink:href="#linearGradient6261" />
    <linearGradient
       id="linearGradient6753-2"
       x1="13.758"
       x2="14.816"
       y1="10.583"
       y2="10.583"
       gradientUnits="userSpaceOnUse"
       xlink:href="#linearGradient6261" />
    <linearGradient
       id="linearGradient6755-6"
       x1="3.1749"
       x2="2.1166"
       y1="8.4665"
       y2="8.4665"
       gradientUnits="userSpaceOnUse"
       xlink:href="#linearGradient6261" />
    <radialGradient
       id="radialGradient6757-1"
       cx="13.758"
       cy="15.346"
       r=".79373"
       gradientTransform="matrix(0 1.6667 -1.3333 0 34.219 -7.5846)"
       gradientUnits="userSpaceOnUse"
       xlink:href="#linearGradient6261" />
    <radialGradient
       id="radialGradient6759-8"
       cx="3.1749"
       cy="15.346"
       r=".79373"
       gradientTransform="matrix(-1.3333 0 0 -1.6667 7.4082 40.921)"
       gradientUnits="userSpaceOnUse"
       xlink:href="#linearGradient6261" />
    <linearGradient
       id="linearGradient6761-7"
       x1="21.039"
       x2="21.039"
       y1="2"
       y2="62"
       gradientTransform="matrix(.26458 0 0 .26458 0 -.26458)"
       gradientUnits="userSpaceOnUse">
      <stop
         stop-color="#ff5b59"
         offset="0"
         id="stop27" />
      <stop
         stop-color="#ff983d"
         offset="1"
         id="stop29" />
    </linearGradient>
    <radialGradient
       id="radialGradient6763-2"
       cx="40"
       cy="12"
       r="8"
       gradientTransform="matrix(1.5 0 0 -2 -14 40)"
       gradientUnits="userSpaceOnUse"
       xlink:href="#linearGradient6261" />
    <radialGradient
       id="radialGradient6765-3"
       cx="10.583"
       cy="4.2333"
       r="2.1166"
       gradientTransform="matrix(-2 3.1236e-7 -3.1236e-7 -2 31.749 12.7)"
       gradientUnits="userSpaceOnUse"
       xlink:href="#linearGradient6261" />
    <radialGradient
       id="radialGradient6767-7"
       cx="40"
       cy="12"
       r="8"
       gradientTransform="matrix(0 -1.5 2 0 16 70)"
       gradientUnits="userSpaceOnUse"
       xlink:href="#linearGradient6261" />
    <linearGradient
       id="linearGradient7282"
       x1="10.583"
       x2="6.3499"
       y1="3.1749"
       y2="3.1749"
       gradientTransform="matrix(1 0 0 .66667 0 1.4111)"
       gradientUnits="userSpaceOnUse"
       xlink:href="#linearGradient6261" />
    <linearGradient
       id="linearGradient7284"
       x1="10.583"
       x2="8.7311"
       y1="3.0426"
       y2="3.0426"
       gradientTransform="matrix(1 0 0 .66667 0 1.4111)"
       gradientUnits="userSpaceOnUse"
       xlink:href="#linearGradient6261" />
    <radialGradient
       id="radialGradient6773-5"
       cx="10.583"
       cy="4.2333"
       r="2.1166"
       gradientTransform="matrix(-.875 -1.6564e-7 1.6631e-7 -.87849 19.843 7.9521)"
       gradientUnits="userSpaceOnUse"
       xlink:href="#linearGradient6261" />
    <radialGradient
       id="radialGradient6775-9"
       cx="40"
       cy="12"
       r="8"
       gradientTransform="matrix(0 -1.3078 .87983 0 29.442 62.311)"
       gradientUnits="userSpaceOnUse"
       xlink:href="#linearGradient6261" />
    <linearGradient
       id="linearGradient7286"
       x1="10.583"
       x2="6.3499"
       y1="3.1749"
       y2="3.1749"
       gradientTransform="matrix(1 0 0 .66667 -14.816 9.3484)"
       gradientUnits="userSpaceOnUse"
       xlink:href="#linearGradient6261" />
    <linearGradient
       id="linearGradient7288"
       x1="10.583"
       x2="8.7237"
       y1="3.0426"
       y2="3.0426"
       gradientTransform="matrix(1 0 0 .66667 -14.816 9.3484)"
       gradientUnits="userSpaceOnUse"
       xlink:href="#linearGradient6261" />
    <radialGradient
       id="radialGradient6781-2"
       cx="40"
       cy="12"
       r="8"
       gradientTransform="matrix(1.4336 0 0 -.87849 -11.344 26.542)"
       gradientUnits="userSpaceOnUse"
       xlink:href="#linearGradient6261" />
    <linearGradient
       id="linearGradient7290"
       x1="40"
       x2="46"
       y1="17"
       y2="11"
       gradientTransform="matrix(.26458 0 0 .26458 -1.6667e-7 -.26458)"
       gradientUnits="userSpaceOnUse">
      <stop
         stop-color="#fefefe"
         offset="0"
         id="stop42" />
      <stop
         stop-color="#e9e9e9"
         offset="1"
         id="stop44" />
    </linearGradient>
    <clipPath
       clipPathUnits="userSpaceOnUse"
       id="clipPath51">
      <path
         fill="#ffffff"
         d="m 11.510313,10.116828 c -0.359193,-0.0047 -0.789684,0.03198 -1.257257,0.109629 C 10.038936,10.083522 9.8127447,9.926806 9.6337049,9.7323952 9.1794013,9.2396873 8.7985385,8.5552463 8.5622754,7.7882527 8.5784385,7.7148177 8.5940189,7.6430871 8.6080678,7.5705212 8.6738049,7.22725 8.7208996,6.09269 8.7208996,6.09269 c 0,0 -0.186773,0.8523354 -0.2162332,0.9808905 C 8.485831,7.1551876 8.4620214,7.2422526 8.4349812,7.3328688 8.2916602,6.7475548 8.2187208,6.179755 8.2187208,5.7495809 c 0,-0.1217547 0.00896,-0.3579712 0.038666,-0.5450942 0.014411,-0.1334448 0.056361,-0.2028294 0.09959,-0.2363499 0.085486,0.024146 0.1809596,0.1763079 0.2808553,0.4310763 0.085793,0.2201744 0.080451,0.4753091 0.080451,0.6332329 0,0 0.091968,-0.391026 0.070712,-0.6220822 C 8.7760864,5.2716285 8.6623092,4.9148267 8.4208168,4.9191137 H 8.4011508 L 8.293632,4.9172637 c -0.176424,0 -0.3414438,0.100426 -0.3813081,0.2658504 -0.1482443,0.6346743 0.017605,1.6161676 0.2943206,2.8389686 l -0.083762,0.236733 C 7.9110721,8.8583739 7.6464652,9.455645 7.4135879,9.985726 c -0.961231,2.184411 -1.708934,3.36301 -2.2074698,3.445532 l -0.00214,-0.02375 c -0.010813,-0.272448 0.4223619,-0.975219 1.009296,-1.533795 0.061184,-0.05761 0.3221716,-0.350999 0.3221716,-0.350999 0,0 -0.3525605,0.216551 -0.4317041,0.272124 -0.7353625,0.510006 -1.101443,1.02069 -1.1610962,1.359747 -0.017674,0.100756 -0.00599,0.224425 0.070465,0.275254 l 0.1881871,0.109857 c 0.5118002,0.297586 1.1409152,-0.484736 1.9777953,-2.188059 0.8515374,-0.324406 1.9138416,-0.629996 2.8812022,-0.795459 0.865823,0.574584 1.859053,0.848129 2.240556,0.729913 0.07261,-0.02226 0.149162,-0.08836 0.188109,-0.149391 0.0306,-0.05615 0.07317,-0.280902 0.07317,-0.280902 0,0 -0.0716,0.113987 -0.130663,0.147423 -0.241632,0.132447 -1.003913,-0.08852 -1.786447,-0.533114 0.676518,-0.08362 1.240397,-0.08714 1.541588,0.02469 0.382477,0.141773 0.382477,0.287421 0.377414,0.317048 0.0051,-0.02443 0.02247,-0.121991 0.02039,-0.163429 -0.0088,-0.10662 -0.03683,-0.201696 -0.106238,-0.280506 -0.14168,-0.161944 -0.491358,-0.243819 -0.967861,-0.251082 z m -4.2544351,1.02582 C 7.4007286,10.843673 7.5576331,10.518073 7.718235,10.16685 8.0289393,9.4842811 8.2174373,8.9573653 8.3759197,8.4615261 c 0.2498097,0.5837181 0.5946478,1.1384541 1.0467261,1.5829779 0.1008421,0.09908 0.2079987,0.192797 0.3182993,0.281322 -0.8211184,0.177306 -1.6836584,0.426871 -2.4850672,0.816822 z"
         id="path53"
         style="display:none;fill:#e6e6e6;stroke-width:0.0370367" />
      <path
         id="lpe_path-effect55"
         style="fill:#e6e6e6;stroke-width:0.0370367"
         class="powerclip"
         d="M -1.7916522,-3.7813297 H 18.718883 V 20.283949 H -1.7916522 Z M 11.510313,10.116828 c -0.359193,-0.0047 -0.789684,0.03198 -1.257257,0.109629 C 10.038936,10.083522 9.8127447,9.926806 9.6337049,9.7323952 9.1794013,9.2396873 8.7985385,8.5552463 8.5622754,7.7882527 8.5784385,7.7148177 8.5940189,7.6430871 8.6080678,7.5705212 8.6738049,7.22725 8.7208996,6.09269 8.7208996,6.09269 c 0,0 -0.186773,0.8523354 -0.2162332,0.9808905 C 8.485831,7.1551876 8.4620214,7.2422526 8.4349812,7.3328688 8.2916602,6.7475548 8.2187208,6.179755 8.2187208,5.7495809 c 0,-0.1217547 0.00896,-0.3579712 0.038666,-0.5450942 0.014411,-0.1334448 0.056361,-0.2028294 0.09959,-0.2363499 0.085486,0.024146 0.1809596,0.1763079 0.2808553,0.4310763 0.085793,0.2201744 0.080451,0.4753091 0.080451,0.6332329 0,0 0.091968,-0.391026 0.070712,-0.6220822 C 8.7760864,5.2716285 8.6623092,4.9148267 8.4208168,4.9191137 H 8.4011508 L 8.293632,4.9172637 c -0.176424,0 -0.3414438,0.100426 -0.3813081,0.2658504 -0.1482443,0.6346743 0.017605,1.6161676 0.2943206,2.8389686 l -0.083762,0.236733 C 7.9110721,8.8583739 7.6464652,9.455645 7.4135879,9.985726 c -0.961231,2.184411 -1.708934,3.36301 -2.2074698,3.445532 l -0.00214,-0.02375 c -0.010813,-0.272448 0.4223619,-0.975219 1.009296,-1.533795 0.061184,-0.05761 0.3221716,-0.350999 0.3221716,-0.350999 0,0 -0.3525605,0.216551 -0.4317041,0.272124 -0.7353625,0.510006 -1.101443,1.02069 -1.1610962,1.359747 -0.017674,0.100756 -0.00599,0.224425 0.070465,0.275254 l 0.1881871,0.109857 c 0.5118002,0.297586 1.1409152,-0.484736 1.9777953,-2.188059 0.8515374,-0.324406 1.9138416,-0.629996 2.8812022,-0.795459 0.865823,0.574584 1.859053,0.848129 2.240556,0.729913 0.07261,-0.02226 0.149162,-0.08836 0.188109,-0.149391 0.0306,-0.05615 0.07317,-0.280902 0.07317,-0.280902 0,0 -0.0716,0.113987 -0.130663,0.147423 -0.241632,0.132447 -1.003913,-0.08852 -1.786447,-0.533114 0.676518,-0.08362 1.240397,-0.08714 1.541588,0.02469 0.382477,0.141773 0.382477,0.287421 0.377414,0.317048 0.0051,-0.02443 0.02247,-0.121991 0.02039,-0.163429 -0.0088,-0.10662 -0.03683,-0.201696 -0.106238,-0.280506 -0.14168,-0.161944 -0.491358,-0.243819 -0.967861,-0.251082 z m -4.2544351,1.02582 C 8.0572867,10.752697 8.9198267,10.503132 9.7409451,10.325826 9.6306445,10.237301 9.5234879,10.143584 9.4226458,10.044504 8.9705675,9.5999802 8.6257294,9.0452442 8.3759197,8.4615261 8.2174373,8.9573653 8.0289393,9.4842811 7.718235,10.16685 7.5576331,10.518073 7.4007286,10.843673 7.2558779,11.142648 Z" />
    </clipPath>
  </defs>
  <g
     transform="matrix(3.7796 0 0 3.7796 -.021092 1.0245)"
     id="g121">
    <rect
       x="8.7209"
       y="-.54211"
       width="6.6358"
       height="6.6348"
       fill="none"
       id="rect97" />
    <path
       d="m 3.6653411,1.219379 c -0.2531703,0 -0.4569933,0.2091037 -0.4569933,0.4688332 V 14.815114 c 0,0.259739 0.203823,0.468835 0.4569933,0.468835 H 13.26189 c 0.25318,0 0.456993,-0.209104 0.456993,-0.468835 V 5.6725322 c 0,-0.2344167 -0.139155,-0.6115936 -0.456993,-0.9376488 l -2.970423,-3.04738 C 9.9857202,1.2905865 9.6059778,1.2186703 9.3774984,1.2186703 Z"
       fill="url(#linearGradient6761-7)"
       stroke-width="0.231438"
       id="path93-3"
       style="fill:#2c2c2c"
       clip-path="url(#clipPath51)"
       inkscape:path-effect="#path-effect55"
       inkscape:original-d="m 3.6653411,1.219379 c -0.2531703,0 -0.4569933,0.2091037 -0.4569933,0.4688332 V 14.815114 c 0,0.259739 0.203823,0.468835 0.4569933,0.468835 H 13.26189 c 0.25318,0 0.456993,-0.209104 0.456993,-0.468835 V 5.6725322 c 0,-0.2344167 -0.139155,-0.6115936 -0.456993,-0.9376488 l -2.970423,-3.04738 C 9.9857202,1.2905865 9.6059778,1.2186703 9.3774984,1.2186703 Z" />
    <text
       xml:space="preserve"
       style="font-weight:bold;font-size:2.89813px;line-height:1.25;font-family:sans-serif;-inkscape-font-specification:'sans-serif Bold';fill:#f2f2f2;stroke-width:0.0724533"
       x="3.1518662"
       y="18.611214"
       id="text80"
       transform="scale(1.3094601,0.76367352)"><tspan
         sodipodi:role="line"
         id="tspan78"
         x="3.1518662"
         y="18.611214"
         style="fill:#f2f2f2;stroke-width:0.0724533" /></text>
  </g>
</svg>
