<?xml version="1.0" encoding="UTF-8" standalone="no"?>
<svg
   width="64"
   height="64"
   version="1.1"
   id="svg125"
   sodipodi:docname="application-x-object.svg"
   inkscape:version="1.1 (1:1.1+rc+202105240936+c4e8f9ed74)"
   xmlns:inkscape="http://www.inkscape.org/namespaces/inkscape"
   xmlns:sodipodi="http://sodipodi.sourceforge.net/DTD/sodipodi-0.dtd"
   xmlns:xlink="http://www.w3.org/1999/xlink"
   xmlns="http://www.w3.org/2000/svg"
   xmlns:svg="http://www.w3.org/2000/svg"
   xmlns:rdf="http://www.w3.org/1999/02/22-rdf-syntax-ns#"
   xmlns:cc="http://creativecommons.org/ns#"
   xmlns:dc="http://purl.org/dc/elements/1.1/">
  <metadata
     id="metadata129">
    <rdf:RDF>
      <cc:Work
         rdf:about="">
        <dc:format>image/svg+xml</dc:format>
        <dc:type
           rdf:resource="http://purl.org/dc/dcmitype/StillImage" />
        <dc:title />
      </cc:Work>
    </rdf:RDF>
  </metadata>
  <sodipodi:namedview
     pagecolor="#ffffff"
     bordercolor="#666666"
     borderopacity="1"
     objecttolerance="10"
     gridtolerance="10"
     guidetolerance="10"
     inkscape:pageopacity="0"
     inkscape:pageshadow="2"
     inkscape:window-width="1920"
     inkscape:window-height="996"
     id="namedview127"
     showgrid="false"
     inkscape:zoom="8.8940775"
     inkscape:cx="63.918939"
     inkscape:cy="39.183378"
     inkscape:window-x="0"
     inkscape:window-y="0"
     inkscape:window-maximized="1"
     inkscape:current-layer="g121"
     inkscape:document-rotation="0"
     inkscape:pagecheckerboard="0" />
  <defs
     id="defs47">
    <inkscape:path-effect
       effect="powerclip"
       id="path-effect55"
       is_visible="true"
       lpeversion="1"
       inverse="true"
       flatten="false"
       hide_clip="false"
       message="Use fill-rule evenodd on &lt;b&gt;fill and stroke&lt;/b&gt; dialog if no flatten result after convert clip to paths." />
    <linearGradient
       id="linearGradient6721-3"
       x1="7.9373"
       x2="7.9373"
       y1="15.346"
       y2="16.933"
       gradientUnits="userSpaceOnUse"
       xlink:href="#linearGradient6261" />
    <linearGradient
       id="linearGradient6261">
      <stop
         offset="0"
         id="stop3" />
      <stop
         stop-opacity="0"
         offset="1"
         id="stop5" />
    </linearGradient>
    <radialGradient
       id="radialGradient6723-5"
       cx="35"
       cy="4"
       r="3.7275"
       gradientTransform="matrix(1.696 0 0 1.0731 -24.361 -.29238)"
       gradientUnits="userSpaceOnUse"
       xlink:href="#linearGradient6261" />
    <linearGradient
       id="linearGradient6725-3"
       x1="43"
       x2="46.748"
       y1="12"
       y2="8.2517"
       gradientUnits="userSpaceOnUse"
       xlink:href="#linearGradient6261" />
    <radialGradient
       id="radialGradient6727-5"
       cx="52"
       cy="22"
       r="5.2061"
       gradientTransform="matrix(.96042 0 0 1.3331 2.0581 -7.3283)"
       gradientUnits="userSpaceOnUse"
       xlink:href="#linearGradient6261" />
    <linearGradient
       id="linearGradient6729-6"
       x1="5.8207"
       x2="5.8207"
       y1="1.0583"
       gradientUnits="userSpaceOnUse"
       xlink:href="#linearGradient6261" />
    <radialGradient
       id="radialGradient6731-2"
       cx="3.1749"
       cy="1.3229"
       r=".79373"
       gradientTransform="matrix(-2.1078e-8 -1.3333 1.6667 -2.6348e-8 .97012 5.2916)"
       gradientUnits="userSpaceOnUse"
       xlink:href="#linearGradient6261" />
    <linearGradient
       id="linearGradient6733-9"
       x1="13.758"
       x2="15.081"
       y1="10.583"
       y2="10.583"
       gradientUnits="userSpaceOnUse"
       xlink:href="#linearGradient6261" />
    <linearGradient
       id="linearGradient6735-1"
       x1="3.1749"
       x2="1.852"
       y1="8.4665"
       y2="8.4665"
       gradientUnits="userSpaceOnUse"
       xlink:href="#linearGradient6261" />
    <radialGradient
       id="radialGradient6737-2"
       cx="13.758"
       cy="15.346"
       r=".79373"
       gradientTransform="matrix(5.1718e-7 2 -1.6667 4.3098e-7 39.334 -12.171)"
       gradientUnits="userSpaceOnUse"
       xlink:href="#linearGradient6261" />
    <radialGradient
       id="radialGradient6739-7"
       cx="3.1749"
       cy="15.346"
       r=".79373"
       gradientTransform="matrix(-1.6667 -1.37e-6 1.644e-6 -2 8.4665 46.037)"
       gradientUnits="userSpaceOnUse"
       xlink:href="#linearGradient6261" />
    <linearGradient
       id="linearGradient6741-0"
       x1="7.9373"
       x2="7.9373"
       y1="15.346"
       y2="16.668"
       gradientUnits="userSpaceOnUse"
       xlink:href="#linearGradient6261" />
    <radialGradient
       id="radialGradient6743-9"
       cx="35"
       cy="4"
       r="3.7275"
       gradientTransform="matrix(1.6115 -1.9122e-7 9.5496e-8 .80482 -21.403 .78072)"
       gradientUnits="userSpaceOnUse"
       xlink:href="#linearGradient6261" />
    <linearGradient
       id="linearGradient6745-3"
       x1="43"
       x2="46.004"
       y1="12"
       y2="8.9965"
       gradientUnits="userSpaceOnUse"
       xlink:href="#linearGradient6261" />
    <radialGradient
       id="radialGradient6747-6"
       cx="52"
       cy="22"
       r="5.2061"
       gradientTransform="matrix(.76834 -9.6042e-8 1.534e-7 1.2272 12.047 -4.9986)"
       gradientUnits="userSpaceOnUse"
       xlink:href="#linearGradient6261" />
    <linearGradient
       id="linearGradient6749-0"
       x1="5.8207"
       x2="5.8207"
       y1="1.0583"
       y2=".26458"
       gradientUnits="userSpaceOnUse"
       xlink:href="#linearGradient6261" />
    <radialGradient
       id="radialGradient6751-6"
       cx="3.1749"
       cy="1.3229"
       r=".79373"
       gradientTransform="matrix(-7.442e-8 -1 1.3333 -9.9226e-8 1.4111 4.2333)"
       gradientUnits="userSpaceOnUse"
       xlink:href="#linearGradient6261" />
    <linearGradient
       id="linearGradient6753-2"
       x1="13.758"
       x2="14.816"
       y1="10.583"
       y2="10.583"
       gradientUnits="userSpaceOnUse"
       xlink:href="#linearGradient6261" />
    <linearGradient
       id="linearGradient6755-6"
       x1="3.1749"
       x2="2.1166"
       y1="8.4665"
       y2="8.4665"
       gradientUnits="userSpaceOnUse"
       xlink:href="#linearGradient6261" />
    <radialGradient
       id="radialGradient6757-1"
       cx="13.758"
       cy="15.346"
       r=".79373"
       gradientTransform="matrix(0 1.6667 -1.3333 0 34.219 -7.5846)"
       gradientUnits="userSpaceOnUse"
       xlink:href="#linearGradient6261" />
    <radialGradient
       id="radialGradient6759-8"
       cx="3.1749"
       cy="15.346"
       r=".79373"
       gradientTransform="matrix(-1.3333 0 0 -1.6667 7.4082 40.921)"
       gradientUnits="userSpaceOnUse"
       xlink:href="#linearGradient6261" />
    <linearGradient
       id="linearGradient6761-7"
       x1="21.039"
       x2="21.039"
       y1="2"
       y2="62"
       gradientTransform="matrix(.26458 0 0 .26458 0 -.26458)"
       gradientUnits="userSpaceOnUse">
      <stop
         stop-color="#ff5b59"
         offset="0"
         id="stop27" />
      <stop
         stop-color="#ff983d"
         offset="1"
         id="stop29" />
    </linearGradient>
    <radialGradient
       id="radialGradient6763-2"
       cx="40"
       cy="12"
       r="8"
       gradientTransform="matrix(1.5 0 0 -2 -14 40)"
       gradientUnits="userSpaceOnUse"
       xlink:href="#linearGradient6261" />
    <radialGradient
       id="radialGradient6765-3"
       cx="10.583"
       cy="4.2333"
       r="2.1166"
       gradientTransform="matrix(-2 3.1236e-7 -3.1236e-7 -2 31.749 12.7)"
       gradientUnits="userSpaceOnUse"
       xlink:href="#linearGradient6261" />
    <radialGradient
       id="radialGradient6767-7"
       cx="40"
       cy="12"
       r="8"
       gradientTransform="matrix(0 -1.5 2 0 16 70)"
       gradientUnits="userSpaceOnUse"
       xlink:href="#linearGradient6261" />
    <linearGradient
       id="linearGradient7282"
       x1="10.583"
       x2="6.3499"
       y1="3.1749"
       y2="3.1749"
       gradientTransform="matrix(1 0 0 .66667 0 1.4111)"
       gradientUnits="userSpaceOnUse"
       xlink:href="#linearGradient6261" />
    <linearGradient
       id="linearGradient7284"
       x1="10.583"
       x2="8.7311"
       y1="3.0426"
       y2="3.0426"
       gradientTransform="matrix(1 0 0 .66667 0 1.4111)"
       gradientUnits="userSpaceOnUse"
       xlink:href="#linearGradient6261" />
    <radialGradient
       id="radialGradient6773-5"
       cx="10.583"
       cy="4.2333"
       r="2.1166"
       gradientTransform="matrix(-.875 -1.6564e-7 1.6631e-7 -.87849 19.843 7.9521)"
       gradientUnits="userSpaceOnUse"
       xlink:href="#linearGradient6261" />
    <radialGradient
       id="radialGradient6775-9"
       cx="40"
       cy="12"
       r="8"
       gradientTransform="matrix(0 -1.3078 .87983 0 29.442 62.311)"
       gradientUnits="userSpaceOnUse"
       xlink:href="#linearGradient6261" />
    <linearGradient
       id="linearGradient7286"
       x1="10.583"
       x2="6.3499"
       y1="3.1749"
       y2="3.1749"
       gradientTransform="matrix(1 0 0 .66667 -14.816 9.3484)"
       gradientUnits="userSpaceOnUse"
       xlink:href="#linearGradient6261" />
    <linearGradient
       id="linearGradient7288"
       x1="10.583"
       x2="8.7237"
       y1="3.0426"
       y2="3.0426"
       gradientTransform="matrix(1 0 0 .66667 -14.816 9.3484)"
       gradientUnits="userSpaceOnUse"
       xlink:href="#linearGradient6261" />
    <radialGradient
       id="radialGradient6781-2"
       cx="40"
       cy="12"
       r="8"
       gradientTransform="matrix(1.4336 0 0 -.87849 -11.344 26.542)"
       gradientUnits="userSpaceOnUse"
       xlink:href="#linearGradient6261" />
    <linearGradient
       id="linearGradient7290"
       x1="40"
       x2="46"
       y1="17"
       y2="11"
       gradientTransform="matrix(.26458 0 0 .26458 -1.6667e-7 -.26458)"
       gradientUnits="userSpaceOnUse">
      <stop
         stop-color="#fefefe"
         offset="0"
         id="stop42" />
      <stop
         stop-color="#e9e9e9"
         offset="1"
         id="stop44" />
    </linearGradient>
    <clipPath
       clipPathUnits="userSpaceOnUse"
       id="clipPath51">
      <path
         fill="#ffffff"
         d="m 8.5523124,7.0212681 c 0.3821619,0 0.692322,-0.1532876 0.692322,-0.3033408 V 6.1116486 c 0,-0.1678487 -0.3101601,-0.3041497 -0.692322,-0.3041497 -0.3821616,0 -0.6923217,0.136301 -0.6923217,0.3041497 v 7.937e-4 0.6066825 c 4.498e-4,0.1500534 0.3110832,0.302128 0.6923217,0.302128 z m 0,1.6133726 c 0.3821619,0 0.692322,-0.1532887 0.692322,-0.3033419 V 7.7254249 c 0,-0.1678487 -0.3101601,-0.3041494 -0.692322,-0.3041494 -0.3821616,0 -0.6923217,0.1363007 -0.6923217,0.3041494 v 7.937e-4 0.6066825 c 4.498e-4,0.1500532 0.3110832,0.3017243 0.6923217,0.3017243 z M 10.39158,7.8322016 c 0.382162,0 0.692322,-0.1532885 0.692322,-0.3033419 V 6.922986 c 0,-0.1678487 -0.31016,-0.3041507 -0.692322,-0.3041507 -0.382161,0 -0.6923213,0.136302 -0.6923213,0.3041507 v 7.938e-4 0.6066824 c 0,0.1496484 0.3106223,0.3017232 0.6923213,0.3017232 z m 1.15387,-0.766038 v 0.4626961 c 0,0.4032429 -0.496164,0.7073923 -1.15387,0.7073923 -0.261697,0 -0.4957021,-0.049743 -0.6849367,-0.1326617 v 0.2281136 c 0,0.4032416 -0.4961639,0.7073923 -1.1538695,0.7073923 -0.6577058,0 -1.1538694,-0.3037459 -1.1538694,-0.7061798 V 8.0898391 c -0.1920042,0.087359 -0.4310856,0.1403461 -0.6997069,0.1403461 -0.6577053,0 -1.1538694,-0.3037456 -1.1538694,-0.7061784 V 7.0714216 L 5.079165,7.2069134 V 10.58088 l 3.4653008,1.689005 3.4653012,-1.686579 V 7.2012517 Z M 6.6991975,7.8257297 c 0.3821619,0 0.692322,-0.1532887 0.692322,-0.3033419 V 6.9165152 c 0,-0.16785 -0.3101601,-0.3041507 -0.692322,-0.3041507 -0.3821613,0 -0.6923214,0.1363007 -0.6923214,0.3041507 v 7.938e-4 0.6066827 c 0,0.1500521 0.3106218,0.3017229 0.6923214,0.3017229 z"
         id="path53"
         style="display:none;fill:#e6e6e6;stroke-width:0.0405056" />
      <path
         id="lpe_path-effect55"
         style="fill:#e6e6e6;stroke-width:0.0405056"
         class="powerclip"
         d="M -1.7916522,-3.7813297 H 18.718883 V 20.283949 H -1.7916522 Z M 8.5523124,7.0212681 c 0.3821619,0 0.692322,-0.1532876 0.692322,-0.3033408 V 6.1116486 c 0,-0.1678487 -0.3101601,-0.3041497 -0.692322,-0.3041497 -0.3821616,0 -0.6923217,0.136301 -0.6923217,0.3041497 v 7.937e-4 0.6066825 c 4.498e-4,0.1500534 0.3110832,0.302128 0.6923217,0.302128 z m 0,1.6133726 c 0.3821619,0 0.692322,-0.1532887 0.692322,-0.3033419 V 7.7254249 c 0,-0.1678487 -0.3101601,-0.3041494 -0.692322,-0.3041494 -0.3821616,0 -0.6923217,0.1363007 -0.6923217,0.3041494 v 7.937e-4 0.6066825 c 4.498e-4,0.1500532 0.3110832,0.3017243 0.6923217,0.3017243 z M 10.39158,7.8322016 c 0.382162,0 0.692322,-0.1532885 0.692322,-0.3033419 V 6.922986 c 0,-0.1678487 -0.31016,-0.3041507 -0.692322,-0.3041507 -0.382161,0 -0.6923213,0.136302 -0.6923213,0.3041507 v 7.938e-4 0.6066824 c 0,0.1496484 0.3106223,0.3017232 0.6923213,0.3017232 z m 1.15387,-0.766038 v 0.4626961 c 0,0.4032429 -0.496164,0.7073923 -1.15387,0.7073923 -0.261697,0 -0.4957021,-0.049743 -0.6849367,-0.1326617 v 0.2281136 c 0,0.4032416 -0.4961639,0.7073923 -1.1538695,0.7073923 -0.6577058,0 -1.1538694,-0.3037459 -1.1538694,-0.7061798 V 8.0898391 c -0.1920042,0.087359 -0.4310856,0.1403461 -0.6997069,0.1403461 -0.6577053,0 -1.1538694,-0.3037456 -1.1538694,-0.7061784 V 7.0714216 L 5.079165,7.2069134 V 10.58088 l 3.4653008,1.689005 3.4653012,-1.686579 V 7.2012517 Z M 6.6991975,7.8257297 c 0.3821619,0 0.692322,-0.1532887 0.692322,-0.3033419 V 6.9165152 c 0,-0.16785 -0.3101601,-0.3041507 -0.692322,-0.3041507 -0.3821613,0 -0.6923214,0.1363007 -0.6923214,0.3041507 v 7.938e-4 0.6066827 c 0,0.1500521 0.3106218,0.3017229 0.6923214,0.3017229 z" />
    </clipPath>
  </defs>
  <g
     transform="matrix(3.7796 0 0 3.7796 -.021092 1.0245)"
     id="g121">
    <rect
       x="8.7209"
       y="-.54211"
       width="6.6358"
       height="6.6348"
       fill="none"
       id="rect97" />
    <path
       d="m 3.6653411,1.219379 c -0.2531703,0 -0.4569933,0.2091037 -0.4569933,0.4688332 V 14.815114 c 0,0.259739 0.203823,0.468835 0.4569933,0.468835 H 13.26189 c 0.25318,0 0.456993,-0.209104 0.456993,-0.468835 V 5.6725322 c 0,-0.2344167 -0.139155,-0.6115936 -0.456993,-0.9376488 l -2.970423,-3.04738 C 9.9857202,1.2905865 9.6059778,1.2186703 9.3774984,1.2186703 Z"
       fill="url(#linearGradient6761-7)"
       stroke-width="0.231438"
       id="path93-3"
       style="fill:#2c2c2c"
       clip-path="url(#clipPath51)"
       inkscape:path-effect="#path-effect55"
       inkscape:original-d="m 3.6653411,1.219379 c -0.2531703,0 -0.4569933,0.2091037 -0.4569933,0.4688332 V 14.815114 c 0,0.259739 0.203823,0.468835 0.4569933,0.468835 H 13.26189 c 0.25318,0 0.456993,-0.209104 0.456993,-0.468835 V 5.6725322 c 0,-0.2344167 -0.139155,-0.6115936 -0.456993,-0.9376488 l -2.970423,-3.04738 C 9.9857202,1.2905865 9.6059778,1.2186703 9.3774984,1.2186703 Z" />
    <text
       xml:space="preserve"
       style="font-weight:bold;font-size:2.89813px;line-height:1.25;font-family:sans-serif;-inkscape-font-specification:'sans-serif Bold';fill:#f2f2f2;stroke-width:0.0724533"
       x="3.1518662"
       y="18.611214"
       id="text80"
       transform="scale(1.3094601,0.76367352)"><tspan
         sodipodi:role="line"
         id="tspan78"
         x="3.1518662"
         y="18.611214"
         style="fill:#f2f2f2;stroke-width:0.0724533" /></text>
  </g>
</svg>
