<?xml version="1.0" encoding="UTF-8" standalone="no"?>
<svg
   width="64"
   height="64"
   version="1.1"
   id="svg73"
   sodipodi:docname="application-x-jar.svg"
   inkscape:version="1.1 (1:1.1+rc+202105240936+c4e8f9ed74)"
   xmlns:inkscape="http://www.inkscape.org/namespaces/inkscape"
   xmlns:sodipodi="http://sodipodi.sourceforge.net/DTD/sodipodi-0.dtd"
   xmlns="http://www.w3.org/2000/svg"
   xmlns:svg="http://www.w3.org/2000/svg"
   xmlns:rdf="http://www.w3.org/1999/02/22-rdf-syntax-ns#"
   xmlns:cc="http://creativecommons.org/ns#"
   xmlns:dc="http://purl.org/dc/elements/1.1/">
  <metadata
     id="metadata77">
    <rdf:RDF>
      <cc:Work
         rdf:about="">
        <dc:format>image/svg+xml</dc:format>
        <dc:type
           rdf:resource="http://purl.org/dc/dcmitype/StillImage" />
        <dc:title />
      </cc:Work>
    </rdf:RDF>
  </metadata>
  <sodipodi:namedview
     pagecolor="#ffffff"
     bordercolor="#666666"
     borderopacity="1"
     objecttolerance="10"
     gridtolerance="10"
     guidetolerance="10"
     inkscape:pageopacity="0"
     inkscape:pageshadow="2"
     inkscape:window-width="1920"
     inkscape:window-height="996"
     id="namedview75"
     showgrid="false"
     inkscape:zoom="17.788155"
     inkscape:cx="26.393968"
     inkscape:cy="28.249135"
     inkscape:window-x="0"
     inkscape:window-y="0"
     inkscape:window-maximized="1"
     inkscape:current-layer="svg73"
     inkscape:document-rotation="0"
     inkscape:pagecheckerboard="0" />
  <defs
     id="defs29">
    <inkscape:path-effect
       effect="powerclip"
       id="path-effect614"
       is_visible="true"
       lpeversion="1"
       inverse="true"
       flatten="false"
       hide_clip="false"
       message="Use fill-rule evenodd on &lt;b&gt;fill and stroke&lt;/b&gt; dialog if no flatten result after convert clip to paths." />
    <linearGradient
       id="b"
       x1="399.57"
       x2="399.57"
       y1="545.8"
       y2="517.8"
       gradientTransform="matrix(2.1429,0,0,2.1429,-826.36,-1107.5)"
       gradientUnits="userSpaceOnUse">
      <stop
         stop-color="#3889e9"
         offset="0"
         id="stop2" />
      <stop
         stop-color="#5ea5fb"
         offset="1"
         id="stop4" />
    </linearGradient>
    <linearGradient
       id="linearGradient862"
       x1="7.9373"
       x2="7.9373"
       y1="15.081"
       y2="1.852"
       gradientTransform="matrix(3.3743 0 0 3.3743 3.4312 3.4278)"
       gradientUnits="userSpaceOnUse">
      <stop
         stop-color="#f1efeb"
         offset="0"
         id="stop7" />
      <stop
         stop-color="#fff"
         offset="1"
         id="stop9" />
    </linearGradient>
    <linearGradient
       id="linearGradient910"
       x1="7.9373"
       x2="7.9373"
       y1="15.081"
       y2="1.852"
       gradientTransform="scale(3.7796)"
       gradientUnits="userSpaceOnUse">
      <stop
         stop-color="#613583"
         offset="0"
         id="stop12" />
      <stop
         stop-color="#a663c0"
         offset="1"
         id="stop14" />
    </linearGradient>
    <linearGradient
       id="linearGradient932"
       x1="379.24"
       x2="374.24"
       y1="546.85"
       y2="546.85"
       gradientTransform="matrix(2.1429 0 0 2.1429 -769.68 -1134.5)"
       gradientUnits="userSpaceOnUse">
      <stop
         stop-color="#f6f5f4"
         offset="0"
         id="stop17" />
      <stop
         stop-color="#fff"
         offset=".6"
         id="stop19" />
      <stop
         stop-color="#dddbd8"
         offset="1"
         id="stop21" />
    </linearGradient>
    <linearGradient
       id="linearGradient1146"
       x1="18"
       x2="18"
       y1="52"
       y2="12"
       gradientUnits="userSpaceOnUse">
      <stop
         stop-color="#5e337f"
         offset="0"
         id="stop24" />
      <stop
         stop-color="#ab60bf"
         offset="1"
         id="stop26" />
    </linearGradient>
    <clipPath
       clipPathUnits="userSpaceOnUse"
       id="clipPath610">
      <path
         id="path612"
         style="display:none;opacity:0.2;fill:#e6e6e6"
         d="m 32.1875,6.0332031 v 1 h 1 v -1 z m 0,1 h -1 v 1 h 1 z m 0,1 v 1 h 1 v -1 z m 0,1 h -1 v 0.9999999 h 1 z m 0,0.9999999 v 1 h 1 v -1 z m 0,1 h -1 v 1 h 1 z m 0,1 v 1 h 1 v -1 z m 0,1 h -1 v 1 h 1 z m 0,1 v 1 h 1 v -1 z m 0,1 h -1 v 1 h 1 z m 0,1 v 1 h 1 v -1 z m 0,1 h -1 v 1 h 1 z m 0,1 v 1 h 1 v -1 z m 0,1 h -1 v 1 h 1 c 0.04125,-0.367529 0,-1 0,-1 z m 0,1 v 1 h 1 v -1 z m 0,1 h -1 v 1 h 1 z m 0,1 v 1 h 1 v -1 z m 0,1 h -1 v 1 h 1 z m 0,1 v 1 h 1 v -1 z m 0,1 h -1 v 1 h 1 z m 0,1 v 1 h 1 v -1 z m 0,1 h -1 c -0.005,0.04418 -0.0074,0.08753 -0.0098,0.128906 -1.721073,0.449126 -2.990234,2.018304 -2.990234,3.871094 v 8 c 0,2.2 1.79,4 4,4 2.21,0 4,-1.8 4,-4 v -8 c 0,-2.2 -1.789334,-4 -4,-4 z m 0,2 c 1.104,0 2,0.8 2,2 0,0.999998 -0.896,2 -2,2 -1.104,0 -2,-1.000002 -2,-2 0,-1.2 0.896,-2 2,-2 z m 0,6 c 1.10457,0 2,0.89543 2,2 v 2 c 0,1.10457 -0.89543,2 -2,2 -1.10457,0 -2,-0.89543 -2,-2 v -2 c 0,-1.10457 0.89543,-2 2,-2 z M 19.849609,46.058594 v 6.210937 c 0,0.399395 -0.141681,0.702362 -0.425781,0.908203 -0.279517,0.205842 -0.69427,0.308594 -1.24414,0.308594 h -0.414063 v 1.341797 h 0.537109 c 1.406751,0 2.456518,-0.212747 3.148438,-0.636719 0.696502,-0.423972 1.044922,-1.064713 1.044922,-1.921875 v -6.210937 z m 7.814453,0 -3.800781,6.878906 h 2.660157 l 0.652343,-1.251953 h 4.138672 l 0.646485,1.251953 h 2.658203 l -3.800782,-6.878906 z m 8.316407,0 V 52.9375 h 2.646484 v -2.603516 h 0.75 c 0.430732,0 0.774644,0.06349 1.03125,0.189454 0.261189,0.125962 0.517508,0.360984 0.769531,0.705078 l 1.25,1.708984 h 2.81836 l -1.435547,-1.953125 c -0.293264,-0.396322 -0.584365,-0.691213 -0.873047,-0.884766 -0.284099,-0.196625 -0.608705,-0.323605 -0.970703,-0.378906 0.659844,-0.138252 1.153176,-0.352666 1.478515,-0.644531 0.329922,-0.291865 0.494141,-0.664445 0.494141,-1.119141 0,-0.657464 -0.314915,-1.139205 -0.947265,-1.443359 -0.627769,-0.304154 -1.616987,-0.455078 -2.96875,-0.455078 z m 2.646484,1.285156 h 1.113281 c 0.554453,0 0.951176,0.06795 1.189454,0.203125 0.242859,0.135179 0.365234,0.358504 0.365234,0.671875 0,0.316443 -0.122375,0.543389 -0.365234,0.681641 -0.238278,0.138251 -0.635001,0.208984 -1.189454,0.208984 h -1.113281 z m -9.382812,0.326172 1.402343,2.738281 h -2.810546 z" />
      <path
         id="lpe_path-effect614"
         style="opacity:0.2;fill:#e6e6e6"
         class="powerclip"
         d="M 4.6784649,1.9709001 H 58.021723 V 61.968901 H 4.6784649 Z M 32.1875,6.0332031 v 1 h 1 v -1 z m 0,1 h -1 v 1 h 1 z m 0,1 v 1 h 1 v -1 z m 0,1 h -1 v 0.9999999 h 1 z m 0,0.9999999 v 1 h 1 v -1 z m 0,1 h -1 v 1 h 1 z m 0,1 v 1 h 1 v -1 z m 0,1 h -1 v 1 h 1 z m 0,1 v 1 h 1 v -1 z m 0,1 h -1 v 1 h 1 z m 0,1 v 1 h 1 v -1 z m 0,1 h -1 v 1 h 1 z m 0,1 v 1 h 1 v -1 z m 0,1 h -1 v 1 h 1 c 0.04125,-0.367529 0,-1 0,-1 z m 0,1 v 1 h 1 v -1 z m 0,1 h -1 v 1 h 1 z m 0,1 v 1 h 1 v -1 z m 0,1 h -1 v 1 h 1 z m 0,1 v 1 h 1 v -1 z m 0,1 h -1 v 1 h 1 z m 0,1 v 1 h 1 v -1 z m 0,1 h -1 c -0.005,0.04418 -0.0074,0.08753 -0.0098,0.128906 -1.721073,0.449126 -2.990234,2.018304 -2.990234,3.871094 v 8 c 0,2.2 1.79,4 4,4 2.21,0 4,-1.8 4,-4 v -8 c 0,-2.2 -1.789334,-4 -4,-4 z m 0,2 c -1.104,0 -2,0.8 -2,2 0,0.999998 0.896,2 2,2 1.104,0 2,-1.000002 2,-2 0,-1.2 -0.896,-2 -2,-2 z m 0,6 c -1.10457,0 -2,0.89543 -2,2 v 2 c 0,1.10457 0.89543,2 2,2 1.10457,0 2,-0.89543 2,-2 v -2 c 0,-1.10457 -0.89543,-2 -2,-2 z M 19.849609,46.058594 v 6.210937 c 0,0.399395 -0.141681,0.702362 -0.425781,0.908203 -0.279517,0.205842 -0.69427,0.308594 -1.24414,0.308594 h -0.414063 v 1.341797 h 0.537109 c 1.406751,0 2.456518,-0.212747 3.148438,-0.636719 0.696502,-0.423972 1.044922,-1.064713 1.044922,-1.921875 v -6.210937 z m 7.814453,0 -3.800781,6.878906 h 2.660157 l 0.652343,-1.251953 h 4.138672 l 0.646485,1.251953 h 2.658203 l -3.800782,-6.878906 z m 8.316407,0 V 52.9375 h 2.646484 v -2.603516 h 0.75 c 0.430732,0 0.774644,0.06349 1.03125,0.189454 0.261189,0.125962 0.517508,0.360984 0.769531,0.705078 l 1.25,1.708984 h 2.81836 l -1.435547,-1.953125 c -0.293264,-0.396322 -0.584365,-0.691213 -0.873047,-0.884766 -0.284099,-0.196625 -0.608705,-0.323605 -0.970703,-0.378906 0.659844,-0.138252 1.153176,-0.352666 1.478515,-0.644531 0.329922,-0.291865 0.494141,-0.664445 0.494141,-1.119141 0,-0.657464 -0.314915,-1.139205 -0.947265,-1.443359 -0.627769,-0.304154 -1.616987,-0.455078 -2.96875,-0.455078 z m 2.646484,1.285156 v 1.765625 h 1.113281 c 0.554453,0 0.951176,-0.07073 1.189454,-0.208984 0.242859,-0.138252 0.365234,-0.365198 0.365234,-0.681641 0,-0.313371 -0.122375,-0.536696 -0.365234,-0.671875 C 40.69141,47.4117 40.294687,47.34375 39.740234,47.34375 Z m -9.382812,0.326172 -1.408203,2.738281 h 2.810546 z" />
    </clipPath>
  </defs>
  <path
     x="9.6784649"
     y="6.9709001"
     width="43.343258"
     height="49.998001"
     rx="8.6689987"
     ry="10"
     fill="url(#linearGradient862)"
     stroke-width="3.14173"
     id="rect35"
     style="fill:#2c2c2c;fill-opacity:1"
     sodipodi:type="rect"
     clip-path="url(#clipPath610)"
     inkscape:path-effect="#path-effect614"
     d="m 18.347464,6.9709001 h 26.00526 c 4.802625,0 8.668999,4.4599999 8.668999,9.9999999 v 29.998001 c 0,5.54 -3.866374,10 -8.668999,10 h -26.00526 c -4.802626,0 -8.6689991,-4.46 -8.6689991,-10 V 16.9709 c 0,-5.54 3.8663731,-9.9999999 8.6689991,-9.9999999 z" />
  <ellipse
     cx="31.366306"
     cy="32.043999"
     fill-opacity="0"
     stroke-width="1.46319"
     id="circle39"
     rx="26.007862"
     ry="30.000999" />
  <circle
     cx="32.02"
     cy="32.044"
     r="0"
     fill="url(#b)"
     stroke-width="1.5715"
     id="circle41" />
  <g
     aria-label="JAR"
     transform="matrix(1.2212657,0,0,0.81882264,-1.8395688,-0.07180524)"
     id="text93"
     style="font-weight:bold;font-size:11.5263px;line-height:1.25;font-family:sans-serif;-inkscape-font-specification:'sans-serif Bold';fill:#e6e6e6;stroke-width:0.288159" />
</svg>
