<?xml version="1.0" encoding="UTF-8" standalone="no"?>
<svg
   width="64"
   height="64"
   version="1.1"
   id="svg125"
   sodipodi:docname="application-x-virtualbox-hdd.svg"
   inkscape:version="1.1 (1:1.1+rc+202105240936+c4e8f9ed74)"
   xmlns:inkscape="http://www.inkscape.org/namespaces/inkscape"
   xmlns:sodipodi="http://sodipodi.sourceforge.net/DTD/sodipodi-0.dtd"
   xmlns:xlink="http://www.w3.org/1999/xlink"
   xmlns="http://www.w3.org/2000/svg"
   xmlns:svg="http://www.w3.org/2000/svg"
   xmlns:rdf="http://www.w3.org/1999/02/22-rdf-syntax-ns#"
   xmlns:cc="http://creativecommons.org/ns#"
   xmlns:dc="http://purl.org/dc/elements/1.1/">
  <metadata
     id="metadata129">
    <rdf:RDF>
      <cc:Work
         rdf:about="">
        <dc:format>image/svg+xml</dc:format>
        <dc:type
           rdf:resource="http://purl.org/dc/dcmitype/StillImage" />
        <dc:title />
      </cc:Work>
    </rdf:RDF>
  </metadata>
  <sodipodi:namedview
     pagecolor="#ffffff"
     bordercolor="#666666"
     borderopacity="1"
     objecttolerance="10"
     gridtolerance="10"
     guidetolerance="10"
     inkscape:pageopacity="0"
     inkscape:pageshadow="2"
     inkscape:window-width="1920"
     inkscape:window-height="996"
     id="namedview127"
     showgrid="false"
     inkscape:zoom="8.8940775"
     inkscape:cx="48.965168"
     inkscape:cy="36.260084"
     inkscape:window-x="0"
     inkscape:window-y="0"
     inkscape:window-maximized="1"
     inkscape:current-layer="g121"
     inkscape:document-rotation="0"
     inkscape:pagecheckerboard="0" />
  <defs
     id="defs47">
    <inkscape:path-effect
       effect="powerclip"
       id="path-effect197"
       is_visible="true"
       lpeversion="1"
       inverse="true"
       flatten="false"
       hide_clip="false"
       message="Use fill-rule evenodd on &lt;b&gt;fill and stroke&lt;/b&gt; dialog if no flatten result after convert clip to paths." />
    <linearGradient
       id="linearGradient6721-3"
       x1="7.9373"
       x2="7.9373"
       y1="15.346"
       y2="16.933"
       gradientUnits="userSpaceOnUse"
       xlink:href="#linearGradient6261" />
    <linearGradient
       id="linearGradient6261">
      <stop
         offset="0"
         id="stop3" />
      <stop
         stop-opacity="0"
         offset="1"
         id="stop5" />
    </linearGradient>
    <radialGradient
       id="radialGradient6723-5"
       cx="35"
       cy="4"
       r="3.7275"
       gradientTransform="matrix(1.696 0 0 1.0731 -24.361 -.29238)"
       gradientUnits="userSpaceOnUse"
       xlink:href="#linearGradient6261" />
    <linearGradient
       id="linearGradient6725-3"
       x1="43"
       x2="46.748"
       y1="12"
       y2="8.2517"
       gradientUnits="userSpaceOnUse"
       xlink:href="#linearGradient6261" />
    <radialGradient
       id="radialGradient6727-5"
       cx="52"
       cy="22"
       r="5.2061"
       gradientTransform="matrix(.96042 0 0 1.3331 2.0581 -7.3283)"
       gradientUnits="userSpaceOnUse"
       xlink:href="#linearGradient6261" />
    <linearGradient
       id="linearGradient6729-6"
       x1="5.8207"
       x2="5.8207"
       y1="1.0583"
       gradientUnits="userSpaceOnUse"
       xlink:href="#linearGradient6261" />
    <radialGradient
       id="radialGradient6731-2"
       cx="3.1749"
       cy="1.3229"
       r=".79373"
       gradientTransform="matrix(-2.1078e-8 -1.3333 1.6667 -2.6348e-8 .97012 5.2916)"
       gradientUnits="userSpaceOnUse"
       xlink:href="#linearGradient6261" />
    <linearGradient
       id="linearGradient6733-9"
       x1="13.758"
       x2="15.081"
       y1="10.583"
       y2="10.583"
       gradientUnits="userSpaceOnUse"
       xlink:href="#linearGradient6261" />
    <linearGradient
       id="linearGradient6735-1"
       x1="3.1749"
       x2="1.852"
       y1="8.4665"
       y2="8.4665"
       gradientUnits="userSpaceOnUse"
       xlink:href="#linearGradient6261" />
    <radialGradient
       id="radialGradient6737-2"
       cx="13.758"
       cy="15.346"
       r=".79373"
       gradientTransform="matrix(5.1718e-7 2 -1.6667 4.3098e-7 39.334 -12.171)"
       gradientUnits="userSpaceOnUse"
       xlink:href="#linearGradient6261" />
    <radialGradient
       id="radialGradient6739-7"
       cx="3.1749"
       cy="15.346"
       r=".79373"
       gradientTransform="matrix(-1.6667 -1.37e-6 1.644e-6 -2 8.4665 46.037)"
       gradientUnits="userSpaceOnUse"
       xlink:href="#linearGradient6261" />
    <linearGradient
       id="linearGradient6741-0"
       x1="7.9373"
       x2="7.9373"
       y1="15.346"
       y2="16.668"
       gradientUnits="userSpaceOnUse"
       xlink:href="#linearGradient6261" />
    <radialGradient
       id="radialGradient6743-9"
       cx="35"
       cy="4"
       r="3.7275"
       gradientTransform="matrix(1.6115 -1.9122e-7 9.5496e-8 .80482 -21.403 .78072)"
       gradientUnits="userSpaceOnUse"
       xlink:href="#linearGradient6261" />
    <linearGradient
       id="linearGradient6745-3"
       x1="43"
       x2="46.004"
       y1="12"
       y2="8.9965"
       gradientUnits="userSpaceOnUse"
       xlink:href="#linearGradient6261" />
    <radialGradient
       id="radialGradient6747-6"
       cx="52"
       cy="22"
       r="5.2061"
       gradientTransform="matrix(.76834 -9.6042e-8 1.534e-7 1.2272 12.047 -4.9986)"
       gradientUnits="userSpaceOnUse"
       xlink:href="#linearGradient6261" />
    <linearGradient
       id="linearGradient6749-0"
       x1="5.8207"
       x2="5.8207"
       y1="1.0583"
       y2=".26458"
       gradientUnits="userSpaceOnUse"
       xlink:href="#linearGradient6261" />
    <radialGradient
       id="radialGradient6751-6"
       cx="3.1749"
       cy="1.3229"
       r=".79373"
       gradientTransform="matrix(-7.442e-8 -1 1.3333 -9.9226e-8 1.4111 4.2333)"
       gradientUnits="userSpaceOnUse"
       xlink:href="#linearGradient6261" />
    <linearGradient
       id="linearGradient6753-2"
       x1="13.758"
       x2="14.816"
       y1="10.583"
       y2="10.583"
       gradientUnits="userSpaceOnUse"
       xlink:href="#linearGradient6261" />
    <linearGradient
       id="linearGradient6755-6"
       x1="3.1749"
       x2="2.1166"
       y1="8.4665"
       y2="8.4665"
       gradientUnits="userSpaceOnUse"
       xlink:href="#linearGradient6261" />
    <radialGradient
       id="radialGradient6757-1"
       cx="13.758"
       cy="15.346"
       r=".79373"
       gradientTransform="matrix(0 1.6667 -1.3333 0 34.219 -7.5846)"
       gradientUnits="userSpaceOnUse"
       xlink:href="#linearGradient6261" />
    <radialGradient
       id="radialGradient6759-8"
       cx="3.1749"
       cy="15.346"
       r=".79373"
       gradientTransform="matrix(-1.3333 0 0 -1.6667 7.4082 40.921)"
       gradientUnits="userSpaceOnUse"
       xlink:href="#linearGradient6261" />
    <linearGradient
       id="linearGradient6761-7"
       x1="21.039"
       x2="21.039"
       y1="2"
       y2="62"
       gradientTransform="matrix(.26458 0 0 .26458 0 -.26458)"
       gradientUnits="userSpaceOnUse">
      <stop
         stop-color="#ff5b59"
         offset="0"
         id="stop27" />
      <stop
         stop-color="#ff983d"
         offset="1"
         id="stop29" />
    </linearGradient>
    <radialGradient
       id="radialGradient6763-2"
       cx="40"
       cy="12"
       r="8"
       gradientTransform="matrix(1.5 0 0 -2 -14 40)"
       gradientUnits="userSpaceOnUse"
       xlink:href="#linearGradient6261" />
    <radialGradient
       id="radialGradient6765-3"
       cx="10.583"
       cy="4.2333"
       r="2.1166"
       gradientTransform="matrix(-2 3.1236e-7 -3.1236e-7 -2 31.749 12.7)"
       gradientUnits="userSpaceOnUse"
       xlink:href="#linearGradient6261" />
    <radialGradient
       id="radialGradient6767-7"
       cx="40"
       cy="12"
       r="8"
       gradientTransform="matrix(0 -1.5 2 0 16 70)"
       gradientUnits="userSpaceOnUse"
       xlink:href="#linearGradient6261" />
    <linearGradient
       id="linearGradient7282"
       x1="10.583"
       x2="6.3499"
       y1="3.1749"
       y2="3.1749"
       gradientTransform="matrix(1 0 0 .66667 0 1.4111)"
       gradientUnits="userSpaceOnUse"
       xlink:href="#linearGradient6261" />
    <linearGradient
       id="linearGradient7284"
       x1="10.583"
       x2="8.7311"
       y1="3.0426"
       y2="3.0426"
       gradientTransform="matrix(1 0 0 .66667 0 1.4111)"
       gradientUnits="userSpaceOnUse"
       xlink:href="#linearGradient6261" />
    <radialGradient
       id="radialGradient6773-5"
       cx="10.583"
       cy="4.2333"
       r="2.1166"
       gradientTransform="matrix(-.875 -1.6564e-7 1.6631e-7 -.87849 19.843 7.9521)"
       gradientUnits="userSpaceOnUse"
       xlink:href="#linearGradient6261" />
    <radialGradient
       id="radialGradient6775-9"
       cx="40"
       cy="12"
       r="8"
       gradientTransform="matrix(0 -1.3078 .87983 0 29.442 62.311)"
       gradientUnits="userSpaceOnUse"
       xlink:href="#linearGradient6261" />
    <linearGradient
       id="linearGradient7286"
       x1="10.583"
       x2="6.3499"
       y1="3.1749"
       y2="3.1749"
       gradientTransform="matrix(1 0 0 .66667 -14.816 9.3484)"
       gradientUnits="userSpaceOnUse"
       xlink:href="#linearGradient6261" />
    <linearGradient
       id="linearGradient7288"
       x1="10.583"
       x2="8.7237"
       y1="3.0426"
       y2="3.0426"
       gradientTransform="matrix(1 0 0 .66667 -14.816 9.3484)"
       gradientUnits="userSpaceOnUse"
       xlink:href="#linearGradient6261" />
    <radialGradient
       id="radialGradient6781-2"
       cx="40"
       cy="12"
       r="8"
       gradientTransform="matrix(1.4336 0 0 -.87849 -11.344 26.542)"
       gradientUnits="userSpaceOnUse"
       xlink:href="#linearGradient6261" />
    <linearGradient
       id="linearGradient7290"
       x1="40"
       x2="46"
       y1="17"
       y2="11"
       gradientTransform="matrix(.26458 0 0 .26458 -1.6667e-7 -.26458)"
       gradientUnits="userSpaceOnUse">
      <stop
         stop-color="#fefefe"
         offset="0"
         id="stop42" />
      <stop
         stop-color="#e9e9e9"
         offset="1"
         id="stop44" />
    </linearGradient>
    <clipPath
       clipPathUnits="userSpaceOnUse"
       id="clipPath193">
      <path
         id="path195"
         style="display:none;fill:#e6e6e6;stroke-width:0.263826"
         d="M 8.2064732,4.495999 6.6277884,9.6552752 5.6154665,6.6126251 H 3.2079077 V 7.6709382 H 5.0041459 L 6.6277884,12.168769 8.2064732,7.1417817 9.258585,10.316721 10.574242,7.1417817 11.560726,10.316721 h 2.170369 V 9.2584078 H 12.15241 L 10.574242,5.0251556 9.258585,7.9355165 Z m -3.7826424,8.446868 v 1.772984 h 0.6454263 v -0.751878 h 0.9523783 v 0.751878 H 6.6670616 V 12.942867 H 6.0216354 v 0.675915 H 5.0692571 v -0.675915 z m 2.8736713,0 v 1.772984 h 0.6805654 c 0.375539,0 0.6571241,-0.01885 0.8448937,-0.05684 0.1877693,-0.03879 0.3485276,-0.10454 0.4826487,-0.196366 0.1173558,-0.07995 0.2049928,-0.171974 0.2619943,-0.276464 0.057001,-0.105284 0.085265,-0.224845 0.085265,-0.358628 0,-0.132199 -0.028263,-0.250517 -0.085265,-0.35501 C 9.5106027,13.368048 9.4229657,13.276029 9.3056099,13.196077 9.1726064,13.104247 9.0132302,13.039255 8.8265785,13.00126 8.6410443,12.962469 8.3580773,12.942867 7.9780675,12.942867 Z m 2.8499009,0 v 1.772984 h 0.680565 c 0.375539,0 0.657124,-0.01885 0.844894,-0.05684 0.187769,-0.03879 0.349043,-0.104542 0.483165,-0.196366 0.117354,-0.07995 0.204474,-0.171972 0.261478,-0.276464 0.057,-0.105284 0.08526,-0.224845 0.08526,-0.358628 0,-0.132199 -0.02826,-0.250517 -0.08526,-0.35501 -0.057,-0.104492 -0.144122,-0.196511 -0.261478,-0.276463 -0.133004,-0.09183 -0.292897,-0.156822 -0.479548,-0.194817 -0.185534,-0.03879 -0.468501,-0.05839 -0.848511,-0.05839 z m -2.2044746,0.345709 h 0.2315059 c 0.2648889,0 0.4665277,0.04563 0.6051194,0.137456 0.1385919,0.09183 0.2077354,0.225781 0.2077354,0.401518 0,0.17653 -0.070093,0.310968 -0.2098023,0.403586 -0.1385917,0.09262 -0.3392812,0.139007 -0.6030525,0.139007 H 7.9429284 Z m 2.8499006,0 h 0.231506 c 0.264889,0 0.466528,0.04563 0.605119,0.137456 0.138592,0.09183 0.207736,0.225781 0.207736,0.401518 0,0.17653 -0.06958,0.310968 -0.209286,0.403586 -0.138592,0.09262 -0.339798,0.139007 -0.603569,0.139007 h -0.231506 z" />
      <path
         id="lpe_path-effect197"
         style="fill:#e6e6e6;stroke-width:0.263826"
         class="powerclip"
         d="M -1.7916522,-3.7813297 H 18.718883 V 20.283949 H -1.7916522 Z M 8.2064732,4.495999 6.6277884,9.6552752 5.6154665,6.6126251 H 3.2079077 V 7.6709382 H 5.0041459 L 6.6277884,12.168769 8.2064732,7.1417817 9.258585,10.316721 10.574242,7.1417817 11.560726,10.316721 h 2.170369 V 9.2584078 H 12.15241 L 10.574242,5.0251556 9.258585,7.9355165 Z m -3.7826424,8.446868 v 1.772984 h 0.6454263 v -0.751878 h 0.9523783 v 0.751878 H 6.6670616 V 12.942867 H 6.0216354 v 0.675915 H 5.0692571 v -0.675915 z m 2.8736713,0 v 1.772984 h 0.6805654 c 0.375539,0 0.6571241,-0.01885 0.8448937,-0.05684 0.1877693,-0.03879 0.3485276,-0.10454 0.4826487,-0.196366 0.1173558,-0.07995 0.2049928,-0.171974 0.2619943,-0.276464 0.057001,-0.105284 0.085265,-0.224845 0.085265,-0.358628 0,-0.132199 -0.028263,-0.250517 -0.085265,-0.35501 C 9.5106027,13.368048 9.4229657,13.276029 9.3056099,13.196077 9.1726064,13.104247 9.0132302,13.039255 8.8265785,13.00126 8.6410443,12.962469 8.3580773,12.942867 7.9780675,12.942867 Z m 2.8499009,0 v 1.772984 h 0.680565 c 0.375539,0 0.657124,-0.01885 0.844894,-0.05684 0.187769,-0.03879 0.349043,-0.104542 0.483165,-0.196366 0.117354,-0.07995 0.204474,-0.171972 0.261478,-0.276464 0.057,-0.105284 0.08526,-0.224845 0.08526,-0.358628 0,-0.132199 -0.02826,-0.250517 -0.08526,-0.35501 -0.057,-0.104492 -0.144122,-0.196511 -0.261478,-0.276463 -0.133004,-0.09183 -0.292897,-0.156822 -0.479548,-0.194817 -0.185534,-0.03879 -0.468501,-0.05839 -0.848511,-0.05839 z m -2.2044746,0.345709 v 1.081567 h 0.2315059 c 0.2637713,0 0.4644608,-0.04639 0.6030525,-0.139007 0.1397093,-0.09262 0.2098023,-0.227056 0.2098023,-0.403586 0,-0.175737 -0.069143,-0.309688 -0.2077354,-0.401518 C 8.640962,13.334206 8.4393232,13.288576 8.1744343,13.288576 Z m 2.8499006,0 v 1.081567 h 0.231506 c 0.263771,0 0.464977,-0.04639 0.603569,-0.139007 0.139706,-0.09262 0.209286,-0.227056 0.209286,-0.403586 0,-0.175737 -0.06914,-0.309688 -0.207736,-0.401518 -0.138591,-0.09183 -0.34023,-0.137456 -0.605119,-0.137456 z" />
    </clipPath>
  </defs>
  <g
     transform="matrix(3.7796 0 0 3.7796 -.021092 1.0245)"
     id="g121">
    <rect
       x="8.7209"
       y="-.54211"
       width="6.6358"
       height="6.6348"
       fill="none"
       id="rect97" />
    <path
       d="m 3.6653411,1.219379 c -0.2531703,0 -0.4569933,0.2091037 -0.4569933,0.4688332 V 14.815114 c 0,0.259739 0.203823,0.468835 0.4569933,0.468835 H 13.26189 c 0.25318,0 0.456993,-0.209104 0.456993,-0.468835 V 5.6725322 c 0,-0.2344167 -0.139155,-0.6115936 -0.456993,-0.9376488 l -2.970423,-3.04738 C 9.9857202,1.2905865 9.6059778,1.2186703 9.3774984,1.2186703 Z"
       fill="url(#linearGradient6761-7)"
       stroke-width="0.231438"
       id="path93-3"
       style="fill:#2c2c2c"
       clip-path="url(#clipPath193)"
       inkscape:path-effect="#path-effect197"
       inkscape:original-d="m 3.6653411,1.219379 c -0.2531703,0 -0.4569933,0.2091037 -0.4569933,0.4688332 V 14.815114 c 0,0.259739 0.203823,0.468835 0.4569933,0.468835 H 13.26189 c 0.25318,0 0.456993,-0.209104 0.456993,-0.468835 V 5.6725322 c 0,-0.2344167 -0.139155,-0.6115936 -0.456993,-0.9376488 l -2.970423,-3.04738 C 9.9857202,1.2905865 9.6059778,1.2186703 9.3774984,1.2186703 Z" />
    <g
       aria-label="HDD"
       transform="scale(1.1882343,0.84158487)"
       id="text80"
       style="font-weight:bold;font-size:2.88958px;line-height:1.25;font-family:sans-serif;-inkscape-font-specification:'sans-serif Bold';fill:#e6e6e6;stroke-width:0.0722398" />
    <text
       xml:space="preserve"
       style="font-weight:bold;font-size:3.06432px;line-height:1.25;font-family:sans-serif;-inkscape-font-specification:'sans-serif Bold';fill:#333333;stroke-width:0.0766078;"
       x="16.113657"
       y="6.023231"
       id="text80-3"
       transform="scale(1.2600832,0.7935984)"><tspan
         sodipodi:role="line"
         id="tspan78-6"
         x="16.113657"
         y="6.023231"
         style="fill:#333333;stroke-width:0.0766078;">HDD</tspan></text>
  </g>
</svg>
