<?xml version="1.0" encoding="UTF-8" standalone="no"?>
<svg
   width="64"
   height="64"
   version="1.1"
   id="svg125"
   sodipodi:docname="application-wps-office.docx.svg"
   inkscape:version="1.1 (1:1.1+202105261517+ce6663b3b7)"
   xmlns:inkscape="http://www.inkscape.org/namespaces/inkscape"
   xmlns:sodipodi="http://sodipodi.sourceforge.net/DTD/sodipodi-0.dtd"
   xmlns:xlink="http://www.w3.org/1999/xlink"
   xmlns="http://www.w3.org/2000/svg"
   xmlns:svg="http://www.w3.org/2000/svg"
   xmlns:rdf="http://www.w3.org/1999/02/22-rdf-syntax-ns#"
   xmlns:cc="http://creativecommons.org/ns#"
   xmlns:dc="http://purl.org/dc/elements/1.1/">
  <metadata
     id="metadata129">
    <rdf:RDF>
      <cc:Work
         rdf:about="">
        <dc:format>image/svg+xml</dc:format>
        <dc:type
           rdf:resource="http://purl.org/dc/dcmitype/StillImage" />
        <dc:title />
      </cc:Work>
    </rdf:RDF>
  </metadata>
  <sodipodi:namedview
     pagecolor="#ffffff"
     bordercolor="#666666"
     borderopacity="1"
     objecttolerance="10"
     gridtolerance="10"
     guidetolerance="10"
     inkscape:pageopacity="0"
     inkscape:pageshadow="2"
     inkscape:window-width="1920"
     inkscape:window-height="996"
     id="namedview127"
     showgrid="false"
     inkscape:zoom="12.578125"
     inkscape:cx="63.801242"
     inkscape:cy="42.653416"
     inkscape:window-x="0"
     inkscape:window-y="0"
     inkscape:window-maximized="1"
     inkscape:current-layer="g121"
     inkscape:document-rotation="0"
     inkscape:pagecheckerboard="0" />
  <defs
     id="defs47">
    <inkscape:path-effect
       effect="powerclip"
       id="path-effect158"
       is_visible="true"
       lpeversion="1"
       inverse="true"
       flatten="false"
       hide_clip="false"
       message="Use fill-rule evenodd on &lt;b&gt;fill and stroke&lt;/b&gt; dialog if no flatten result after convert clip to paths." />
    <linearGradient
       id="linearGradient6721-3"
       x1="7.9373"
       x2="7.9373"
       y1="15.346"
       y2="16.933"
       gradientUnits="userSpaceOnUse"
       xlink:href="#linearGradient6261" />
    <linearGradient
       id="linearGradient6261">
      <stop
         offset="0"
         id="stop3" />
      <stop
         stop-opacity="0"
         offset="1"
         id="stop5" />
    </linearGradient>
    <radialGradient
       id="radialGradient6723-5"
       cx="35"
       cy="4"
       r="3.7275"
       gradientTransform="matrix(1.696 0 0 1.0731 -24.361 -.29238)"
       gradientUnits="userSpaceOnUse"
       xlink:href="#linearGradient6261" />
    <linearGradient
       id="linearGradient6725-3"
       x1="43"
       x2="46.748"
       y1="12"
       y2="8.2517"
       gradientUnits="userSpaceOnUse"
       xlink:href="#linearGradient6261" />
    <radialGradient
       id="radialGradient6727-5"
       cx="52"
       cy="22"
       r="5.2061"
       gradientTransform="matrix(.96042 0 0 1.3331 2.0581 -7.3283)"
       gradientUnits="userSpaceOnUse"
       xlink:href="#linearGradient6261" />
    <linearGradient
       id="linearGradient6729-6"
       x1="5.8207"
       x2="5.8207"
       y1="1.0583"
       gradientUnits="userSpaceOnUse"
       xlink:href="#linearGradient6261" />
    <radialGradient
       id="radialGradient6731-2"
       cx="3.1749"
       cy="1.3229"
       r=".79373"
       gradientTransform="matrix(-2.1078e-8 -1.3333 1.6667 -2.6348e-8 .97012 5.2916)"
       gradientUnits="userSpaceOnUse"
       xlink:href="#linearGradient6261" />
    <linearGradient
       id="linearGradient6733-9"
       x1="13.758"
       x2="15.081"
       y1="10.583"
       y2="10.583"
       gradientUnits="userSpaceOnUse"
       xlink:href="#linearGradient6261" />
    <linearGradient
       id="linearGradient6735-1"
       x1="3.1749"
       x2="1.852"
       y1="8.4665"
       y2="8.4665"
       gradientUnits="userSpaceOnUse"
       xlink:href="#linearGradient6261" />
    <radialGradient
       id="radialGradient6737-2"
       cx="13.758"
       cy="15.346"
       r=".79373"
       gradientTransform="matrix(5.1718e-7 2 -1.6667 4.3098e-7 39.334 -12.171)"
       gradientUnits="userSpaceOnUse"
       xlink:href="#linearGradient6261" />
    <radialGradient
       id="radialGradient6739-7"
       cx="3.1749"
       cy="15.346"
       r=".79373"
       gradientTransform="matrix(-1.6667 -1.37e-6 1.644e-6 -2 8.4665 46.037)"
       gradientUnits="userSpaceOnUse"
       xlink:href="#linearGradient6261" />
    <linearGradient
       id="linearGradient6741-0"
       x1="7.9373"
       x2="7.9373"
       y1="15.346"
       y2="16.668"
       gradientUnits="userSpaceOnUse"
       xlink:href="#linearGradient6261" />
    <radialGradient
       id="radialGradient6743-9"
       cx="35"
       cy="4"
       r="3.7275"
       gradientTransform="matrix(1.6115 -1.9122e-7 9.5496e-8 .80482 -21.403 .78072)"
       gradientUnits="userSpaceOnUse"
       xlink:href="#linearGradient6261" />
    <linearGradient
       id="linearGradient6745-3"
       x1="43"
       x2="46.004"
       y1="12"
       y2="8.9965"
       gradientUnits="userSpaceOnUse"
       xlink:href="#linearGradient6261" />
    <radialGradient
       id="radialGradient6747-6"
       cx="52"
       cy="22"
       r="5.2061"
       gradientTransform="matrix(.76834 -9.6042e-8 1.534e-7 1.2272 12.047 -4.9986)"
       gradientUnits="userSpaceOnUse"
       xlink:href="#linearGradient6261" />
    <linearGradient
       id="linearGradient6749-0"
       x1="5.8207"
       x2="5.8207"
       y1="1.0583"
       y2=".26458"
       gradientUnits="userSpaceOnUse"
       xlink:href="#linearGradient6261" />
    <radialGradient
       id="radialGradient6751-6"
       cx="3.1749"
       cy="1.3229"
       r=".79373"
       gradientTransform="matrix(-7.442e-8 -1 1.3333 -9.9226e-8 1.4111 4.2333)"
       gradientUnits="userSpaceOnUse"
       xlink:href="#linearGradient6261" />
    <linearGradient
       id="linearGradient6753-2"
       x1="13.758"
       x2="14.816"
       y1="10.583"
       y2="10.583"
       gradientUnits="userSpaceOnUse"
       xlink:href="#linearGradient6261" />
    <linearGradient
       id="linearGradient6755-6"
       x1="3.1749"
       x2="2.1166"
       y1="8.4665"
       y2="8.4665"
       gradientUnits="userSpaceOnUse"
       xlink:href="#linearGradient6261" />
    <radialGradient
       id="radialGradient6757-1"
       cx="13.758"
       cy="15.346"
       r=".79373"
       gradientTransform="matrix(0 1.6667 -1.3333 0 34.219 -7.5846)"
       gradientUnits="userSpaceOnUse"
       xlink:href="#linearGradient6261" />
    <radialGradient
       id="radialGradient6759-8"
       cx="3.1749"
       cy="15.346"
       r=".79373"
       gradientTransform="matrix(-1.3333 0 0 -1.6667 7.4082 40.921)"
       gradientUnits="userSpaceOnUse"
       xlink:href="#linearGradient6261" />
    <linearGradient
       id="linearGradient6761-7"
       x1="21.039"
       x2="21.039"
       y1="2"
       y2="62"
       gradientTransform="matrix(.26458 0 0 .26458 0 -.26458)"
       gradientUnits="userSpaceOnUse">
      <stop
         stop-color="#ff5b59"
         offset="0"
         id="stop27" />
      <stop
         stop-color="#ff983d"
         offset="1"
         id="stop29" />
    </linearGradient>
    <radialGradient
       id="radialGradient6763-2"
       cx="40"
       cy="12"
       r="8"
       gradientTransform="matrix(1.5 0 0 -2 -14 40)"
       gradientUnits="userSpaceOnUse"
       xlink:href="#linearGradient6261" />
    <radialGradient
       id="radialGradient6765-3"
       cx="10.583"
       cy="4.2333"
       r="2.1166"
       gradientTransform="matrix(-2 3.1236e-7 -3.1236e-7 -2 31.749 12.7)"
       gradientUnits="userSpaceOnUse"
       xlink:href="#linearGradient6261" />
    <radialGradient
       id="radialGradient6767-7"
       cx="40"
       cy="12"
       r="8"
       gradientTransform="matrix(0 -1.5 2 0 16 70)"
       gradientUnits="userSpaceOnUse"
       xlink:href="#linearGradient6261" />
    <linearGradient
       id="linearGradient7282"
       x1="10.583"
       x2="6.3499"
       y1="3.1749"
       y2="3.1749"
       gradientTransform="matrix(1 0 0 .66667 0 1.4111)"
       gradientUnits="userSpaceOnUse"
       xlink:href="#linearGradient6261" />
    <linearGradient
       id="linearGradient7284"
       x1="10.583"
       x2="8.7311"
       y1="3.0426"
       y2="3.0426"
       gradientTransform="matrix(1 0 0 .66667 0 1.4111)"
       gradientUnits="userSpaceOnUse"
       xlink:href="#linearGradient6261" />
    <radialGradient
       id="radialGradient6773-5"
       cx="10.583"
       cy="4.2333"
       r="2.1166"
       gradientTransform="matrix(-.875 -1.6564e-7 1.6631e-7 -.87849 19.843 7.9521)"
       gradientUnits="userSpaceOnUse"
       xlink:href="#linearGradient6261" />
    <radialGradient
       id="radialGradient6775-9"
       cx="40"
       cy="12"
       r="8"
       gradientTransform="matrix(0 -1.3078 .87983 0 29.442 62.311)"
       gradientUnits="userSpaceOnUse"
       xlink:href="#linearGradient6261" />
    <linearGradient
       id="linearGradient7286"
       x1="10.583"
       x2="6.3499"
       y1="3.1749"
       y2="3.1749"
       gradientTransform="matrix(1 0 0 .66667 -14.816 9.3484)"
       gradientUnits="userSpaceOnUse"
       xlink:href="#linearGradient6261" />
    <linearGradient
       id="linearGradient7288"
       x1="10.583"
       x2="8.7237"
       y1="3.0426"
       y2="3.0426"
       gradientTransform="matrix(1 0 0 .66667 -14.816 9.3484)"
       gradientUnits="userSpaceOnUse"
       xlink:href="#linearGradient6261" />
    <radialGradient
       id="radialGradient6781-2"
       cx="40"
       cy="12"
       r="8"
       gradientTransform="matrix(1.4336 0 0 -.87849 -11.344 26.542)"
       gradientUnits="userSpaceOnUse"
       xlink:href="#linearGradient6261" />
    <linearGradient
       id="linearGradient7290"
       x1="40"
       x2="46"
       y1="17"
       y2="11"
       gradientTransform="matrix(.26458 0 0 .26458 -1.6667e-7 -.26458)"
       gradientUnits="userSpaceOnUse">
      <stop
         stop-color="#fefefe"
         offset="0"
         id="stop42" />
      <stop
         stop-color="#e9e9e9"
         offset="1"
         id="stop44" />
    </linearGradient>
    <clipPath
       clipPathUnits="userSpaceOnUse"
       id="clipPath154">
      <path
         id="path156"
         style="display:none;fill:#e6e6e6;stroke-width:0.0359025"
         d="M 9.0022748,4.9342068 5.1354016,6.2994719 V 10.05421 L 6.4241872,9.542106 V 6.8115756 L 9.0022748,6.128943 v 4.43737 l -3.8668732,-0.512103 3.8668732,1.28 2.2556332,-0.512103 -0.01033,-5.198033 z M 7.3047367,12.616278 c -0.3617874,0 -0.6460532,0.07431 -0.8526449,0.222721 -0.2055837,0.148413 -0.3085023,0.353414 -0.3085023,0.614938 0,0.260803 0.1029186,0.465491 0.3085023,0.613904 0.2065917,0.148413 0.4908575,0.222721 0.8526449,0.222721 0.362795,0 0.6470608,-0.07431 0.8526448,-0.222721 0.2055839,-0.148413 0.3079855,-0.353101 0.3079855,-0.613904 0,-0.261524 -0.1024016,-0.466525 -0.3079855,-0.614938 -0.205584,-0.148413 -0.4898498,-0.222721 -0.8526448,-0.222721 z m 2.6938407,0 c -0.3758962,0 -0.6737758,0.07525 -0.8934684,0.225822 -0.2196926,0.149853 -0.3296894,0.353915 -0.3296894,0.611837 0,0.257201 0.1099968,0.461263 0.3296894,0.611837 0.2196926,0.149854 0.5175722,0.224788 0.8934684,0.224788 0.1259706,0 0.2468686,-0.01032 0.3627616,-0.03049 0.115893,-0.02017 0.227,-0.05029 0.333823,-0.08992 v -0.333823 c -0.10783,0.05259 -0.21403,0.09126 -0.318837,0.115753 -0.104808,0.02449 -0.215347,0.03669 -0.33124,0.03669 -0.207599,0 -0.3704499,-0.04753 -0.4893661,-0.142624 -0.1189163,-0.0951 -0.178797,-0.225793 -0.178797,-0.392217 0,-0.167145 0.059881,-0.29815 0.178797,-0.39325 0.1189162,-0.0951 0.2817671,-0.142625 0.4893661,-0.142625 0.115893,0 0.226432,0.01219 0.33124,0.03669 0.104807,0.0245 0.211007,0.06264 0.318837,0.115236 v -0.333823 c -0.106823,-0.03963 -0.21793,-0.06923 -0.333823,-0.0894 -0.115893,-0.02018 -0.236791,-0.03049 -0.3627616,-0.03049 z m -6.2945854,0.02946 v 1.613307 h 0.6139041 c 0.3386088,0 0.5923915,-0.0171 0.7616959,-0.05168 0.1693044,-0.0353 0.3141756,-0.09522 0.4351074,-0.178797 0.1058152,-0.07277 0.1847609,-0.15656 0.2361568,-0.25166 0.051396,-0.09582 0.076996,-0.204315 0.076996,-0.326072 0,-0.120315 -0.025601,-0.228388 -0.076996,-0.323488 -0.051396,-0.0951 -0.1303416,-0.178894 -0.2361568,-0.251659 -0.119924,-0.08357 -0.2637101,-0.142668 -0.4320068,-0.177247 -0.1672889,-0.0353 -0.4221566,-0.05271 -0.7647965,-0.05271 z m 7.278486,0 0.752911,0.789601 -0.782883,0.823706 h 0.608737 l 0.523472,-0.551377 0.527089,0.551377 h 0.606153 l -0.782882,-0.823706 0.752911,-0.789601 h -0.610804 l -0.492467,0.519855 -0.494534,-0.519855 z m -3.6777413,0.272329 c 0.1783742,0 0.3161671,0.04638 0.4139203,0.140041 0.097753,0.09366 0.1467581,0.225807 0.1467581,0.395834 0,0.169306 -0.049005,0.300625 -0.1467581,0.394283 -0.097753,0.09366 -0.2355461,0.140558 -0.4139203,0.140558 -0.1773666,0 -0.3151336,-0.0469 -0.4128868,-0.140558 -0.097753,-0.09366 -0.1467584,-0.224977 -0.1467584,-0.394283 0,-0.170027 0.049005,-0.302175 0.1467584,-0.395834 0.097753,-0.09366 0.2355202,-0.140041 0.4128868,-0.140041 z m -3.0188795,0.04186 h 0.208769 c 0.23884,0 0.4207299,0.042 0.5456926,0.125571 0.1249627,0.08357 0.1875818,0.205405 0.1875818,0.365345 0,0.160661 -0.063161,0.28312 -0.1891319,0.367413 -0.1249627,0.08429 -0.3063102,0.126088 -0.5441425,0.126088 h -0.208769 z" />
      <path
         id="lpe_path-effect158"
         style="fill:#e6e6e6;stroke-width:0.0359025"
         class="powerclip"
         d="M -1.7916522,-3.7813297 H 18.718883 V 20.283949 H -1.7916522 Z M 9.0022748,4.9342068 5.1354016,6.2994719 V 10.05421 L 6.4241872,9.542106 V 6.8115756 L 9.0022748,6.128943 v 4.43737 l -3.8668732,-0.512103 3.8668732,1.28 2.2556332,-0.512103 -0.01033,-5.198033 z M 7.3047367,12.616278 c -0.3617874,0 -0.6460532,0.07431 -0.8526449,0.222721 -0.2055837,0.148413 -0.3085023,0.353414 -0.3085023,0.614938 0,0.260803 0.1029186,0.465491 0.3085023,0.613904 0.2065917,0.148413 0.4908575,0.222721 0.8526449,0.222721 0.362795,0 0.6470608,-0.07431 0.8526448,-0.222721 0.2055839,-0.148413 0.3079855,-0.353101 0.3079855,-0.613904 0,-0.261524 -0.1024016,-0.466525 -0.3079855,-0.614938 -0.205584,-0.148413 -0.4898498,-0.222721 -0.8526448,-0.222721 z m 2.6938407,0 c -0.3758962,0 -0.6737758,0.07525 -0.8934684,0.225822 -0.2196926,0.149853 -0.3296894,0.353915 -0.3296894,0.611837 0,0.257201 0.1099968,0.461263 0.3296894,0.611837 0.2196926,0.149854 0.5175722,0.224788 0.8934684,0.224788 0.1259706,0 0.2468686,-0.01032 0.3627616,-0.03049 0.115893,-0.02017 0.227,-0.05029 0.333823,-0.08992 v -0.333823 c -0.10783,0.05259 -0.21403,0.09126 -0.318837,0.115753 -0.104808,0.02449 -0.215347,0.03669 -0.33124,0.03669 -0.207599,0 -0.3704499,-0.04753 -0.4893661,-0.142624 -0.1189163,-0.0951 -0.178797,-0.225793 -0.178797,-0.392217 0,-0.167145 0.059881,-0.29815 0.178797,-0.39325 0.1189162,-0.0951 0.2817671,-0.142625 0.4893661,-0.142625 0.115893,0 0.226432,0.01219 0.33124,0.03669 0.104807,0.0245 0.211007,0.06264 0.318837,0.115236 v -0.333823 c -0.106823,-0.03963 -0.21793,-0.06923 -0.333823,-0.0894 -0.115893,-0.02018 -0.236791,-0.03049 -0.3627616,-0.03049 z m -6.2945854,0.02946 v 1.613307 h 0.6139041 c 0.3386088,0 0.5923915,-0.0171 0.7616959,-0.05168 0.1693044,-0.0353 0.3141756,-0.09522 0.4351074,-0.178797 0.1058152,-0.07277 0.1847609,-0.15656 0.2361568,-0.25166 0.051396,-0.09582 0.076996,-0.204315 0.076996,-0.326072 0,-0.120315 -0.025601,-0.228388 -0.076996,-0.323488 -0.051396,-0.0951 -0.1303416,-0.178894 -0.2361568,-0.251659 -0.119924,-0.08357 -0.2637101,-0.142668 -0.4320068,-0.177247 -0.1672889,-0.0353 -0.4221566,-0.05271 -0.7647965,-0.05271 z m 7.278486,0 0.752911,0.789601 -0.782883,0.823706 h 0.608737 l 0.523472,-0.551377 0.527089,0.551377 h 0.606153 l -0.782882,-0.823706 0.752911,-0.789601 h -0.610804 l -0.492467,0.519855 -0.494534,-0.519855 z m -3.6777413,0.272329 c -0.1773666,0 -0.3151338,0.04638 -0.4128868,0.140041 -0.097753,0.09366 -0.1467584,0.225807 -0.1467584,0.395834 0,0.169306 0.049005,0.300623 0.1467584,0.394283 0.097753,0.09366 0.2355202,0.140558 0.4128868,0.140558 0.1783742,0 0.3161673,-0.0469 0.4139203,-0.140558 0.097753,-0.09366 0.1467581,-0.224977 0.1467581,-0.394283 0,-0.170027 -0.049005,-0.302174 -0.1467581,-0.395834 -0.097753,-0.09366 -0.2355461,-0.140041 -0.4139203,-0.140041 z m -3.0188795,0.04186 v 0.984417 h 0.208769 c 0.2378323,0 0.4191798,-0.0418 0.5441425,-0.126088 0.1259709,-0.08429 0.1891319,-0.206752 0.1891319,-0.367413 0,-0.15994 -0.062619,-0.281775 -0.1875818,-0.365345 -0.1249627,-0.08357 -0.3068526,-0.125571 -0.5456926,-0.125571 z" />
    </clipPath>
  </defs>
  <g
     transform="matrix(3.7796 0 0 3.7796 -.021092 1.0245)"
     id="g121">
    <rect
       x="8.7209"
       y="-.54211"
       width="6.6358"
       height="6.6348"
       fill="none"
       id="rect97" />
    <path
       d="m 3.6653411,1.219379 c -0.2531703,0 -0.4569933,0.2091037 -0.4569933,0.4688332 V 14.815114 c 0,0.259739 0.203823,0.468835 0.4569933,0.468835 H 13.26189 c 0.25318,0 0.456993,-0.209104 0.456993,-0.468835 V 5.6725322 c 0,-0.2344167 -0.139155,-0.6115936 -0.456993,-0.9376488 l -2.970423,-3.04738 C 9.9857202,1.2905865 9.6059778,1.2186703 9.3774984,1.2186703 Z"
       fill="url(#linearGradient6761-7)"
       stroke-width="0.231438"
       id="path93-3"
       style="fill:#2c2c2c"
       clip-path="url(#clipPath154)"
       inkscape:path-effect="#path-effect158"
       inkscape:original-d="m 3.6653411,1.219379 c -0.2531703,0 -0.4569933,0.2091037 -0.4569933,0.4688332 V 14.815114 c 0,0.259739 0.203823,0.468835 0.4569933,0.468835 H 13.26189 c 0.25318,0 0.456993,-0.209104 0.456993,-0.468835 V 5.6725322 c 0,-0.2344167 -0.139155,-0.6115936 -0.456993,-0.9376488 l -2.970423,-3.04738 C 9.9857202,1.2905865 9.6059778,1.2186703 9.3774984,1.2186703 Z" />
    <g
       aria-label="DOCX"
       transform="matrix(1.1413361,0,0,0.81594192,0.09674773,0.0099679)"
       id="text80"
       style="font-weight:bold;font-size:2.71248px;line-height:1.25;font-family:sans-serif;-inkscape-font-specification:'sans-serif Bold';fill:#e6e6e6;stroke-width:0.067812" />
  </g>
</svg>
