<?xml version="1.0" encoding="UTF-8" standalone="no"?>
<svg
   width="64"
   height="64"
   version="1.1"
   id="svg125"
   sodipodi:docname="application-wps-office.xlsx.svg"
   inkscape:version="1.1 (1:1.1+rc+202105240936+c4e8f9ed74)"
   xmlns:inkscape="http://www.inkscape.org/namespaces/inkscape"
   xmlns:sodipodi="http://sodipodi.sourceforge.net/DTD/sodipodi-0.dtd"
   xmlns:xlink="http://www.w3.org/1999/xlink"
   xmlns="http://www.w3.org/2000/svg"
   xmlns:svg="http://www.w3.org/2000/svg"
   xmlns:rdf="http://www.w3.org/1999/02/22-rdf-syntax-ns#"
   xmlns:cc="http://creativecommons.org/ns#"
   xmlns:dc="http://purl.org/dc/elements/1.1/">
  <metadata
     id="metadata129">
    <rdf:RDF>
      <cc:Work
         rdf:about="">
        <dc:format>image/svg+xml</dc:format>
        <dc:type
           rdf:resource="http://purl.org/dc/dcmitype/StillImage" />
        <dc:title />
      </cc:Work>
    </rdf:RDF>
  </metadata>
  <sodipodi:namedview
     pagecolor="#ffffff"
     bordercolor="#666666"
     borderopacity="1"
     objecttolerance="10"
     gridtolerance="10"
     guidetolerance="10"
     inkscape:pageopacity="0"
     inkscape:pageshadow="2"
     inkscape:window-width="1920"
     inkscape:window-height="996"
     id="namedview127"
     showgrid="false"
     inkscape:zoom="12.578125"
     inkscape:cx="63.801242"
     inkscape:cy="42.653416"
     inkscape:window-x="0"
     inkscape:window-y="0"
     inkscape:window-maximized="1"
     inkscape:current-layer="g121"
     inkscape:document-rotation="0"
     inkscape:pagecheckerboard="0" />
  <defs
     id="defs47">
    <inkscape:path-effect
       effect="powerclip"
       id="path-effect196"
       is_visible="true"
       lpeversion="1"
       inverse="true"
       flatten="false"
       hide_clip="false"
       message="Use fill-rule evenodd on &lt;b&gt;fill and stroke&lt;/b&gt; dialog if no flatten result after convert clip to paths." />
    <linearGradient
       id="linearGradient6721-3"
       x1="7.9373"
       x2="7.9373"
       y1="15.346"
       y2="16.933"
       gradientUnits="userSpaceOnUse"
       xlink:href="#linearGradient6261" />
    <linearGradient
       id="linearGradient6261">
      <stop
         offset="0"
         id="stop3" />
      <stop
         stop-opacity="0"
         offset="1"
         id="stop5" />
    </linearGradient>
    <radialGradient
       id="radialGradient6723-5"
       cx="35"
       cy="4"
       r="3.7275"
       gradientTransform="matrix(1.696 0 0 1.0731 -24.361 -.29238)"
       gradientUnits="userSpaceOnUse"
       xlink:href="#linearGradient6261" />
    <linearGradient
       id="linearGradient6725-3"
       x1="43"
       x2="46.748"
       y1="12"
       y2="8.2517"
       gradientUnits="userSpaceOnUse"
       xlink:href="#linearGradient6261" />
    <radialGradient
       id="radialGradient6727-5"
       cx="52"
       cy="22"
       r="5.2061"
       gradientTransform="matrix(.96042 0 0 1.3331 2.0581 -7.3283)"
       gradientUnits="userSpaceOnUse"
       xlink:href="#linearGradient6261" />
    <linearGradient
       id="linearGradient6729-6"
       x1="5.8207"
       x2="5.8207"
       y1="1.0583"
       gradientUnits="userSpaceOnUse"
       xlink:href="#linearGradient6261" />
    <radialGradient
       id="radialGradient6731-2"
       cx="3.1749"
       cy="1.3229"
       r=".79373"
       gradientTransform="matrix(-2.1078e-8 -1.3333 1.6667 -2.6348e-8 .97012 5.2916)"
       gradientUnits="userSpaceOnUse"
       xlink:href="#linearGradient6261" />
    <linearGradient
       id="linearGradient6733-9"
       x1="13.758"
       x2="15.081"
       y1="10.583"
       y2="10.583"
       gradientUnits="userSpaceOnUse"
       xlink:href="#linearGradient6261" />
    <linearGradient
       id="linearGradient6735-1"
       x1="3.1749"
       x2="1.852"
       y1="8.4665"
       y2="8.4665"
       gradientUnits="userSpaceOnUse"
       xlink:href="#linearGradient6261" />
    <radialGradient
       id="radialGradient6737-2"
       cx="13.758"
       cy="15.346"
       r=".79373"
       gradientTransform="matrix(5.1718e-7 2 -1.6667 4.3098e-7 39.334 -12.171)"
       gradientUnits="userSpaceOnUse"
       xlink:href="#linearGradient6261" />
    <radialGradient
       id="radialGradient6739-7"
       cx="3.1749"
       cy="15.346"
       r=".79373"
       gradientTransform="matrix(-1.6667 -1.37e-6 1.644e-6 -2 8.4665 46.037)"
       gradientUnits="userSpaceOnUse"
       xlink:href="#linearGradient6261" />
    <linearGradient
       id="linearGradient6741-0"
       x1="7.9373"
       x2="7.9373"
       y1="15.346"
       y2="16.668"
       gradientUnits="userSpaceOnUse"
       xlink:href="#linearGradient6261" />
    <radialGradient
       id="radialGradient6743-9"
       cx="35"
       cy="4"
       r="3.7275"
       gradientTransform="matrix(1.6115 -1.9122e-7 9.5496e-8 .80482 -21.403 .78072)"
       gradientUnits="userSpaceOnUse"
       xlink:href="#linearGradient6261" />
    <linearGradient
       id="linearGradient6745-3"
       x1="43"
       x2="46.004"
       y1="12"
       y2="8.9965"
       gradientUnits="userSpaceOnUse"
       xlink:href="#linearGradient6261" />
    <radialGradient
       id="radialGradient6747-6"
       cx="52"
       cy="22"
       r="5.2061"
       gradientTransform="matrix(.76834 -9.6042e-8 1.534e-7 1.2272 12.047 -4.9986)"
       gradientUnits="userSpaceOnUse"
       xlink:href="#linearGradient6261" />
    <linearGradient
       id="linearGradient6749-0"
       x1="5.8207"
       x2="5.8207"
       y1="1.0583"
       y2=".26458"
       gradientUnits="userSpaceOnUse"
       xlink:href="#linearGradient6261" />
    <radialGradient
       id="radialGradient6751-6"
       cx="3.1749"
       cy="1.3229"
       r=".79373"
       gradientTransform="matrix(-7.442e-8 -1 1.3333 -9.9226e-8 1.4111 4.2333)"
       gradientUnits="userSpaceOnUse"
       xlink:href="#linearGradient6261" />
    <linearGradient
       id="linearGradient6753-2"
       x1="13.758"
       x2="14.816"
       y1="10.583"
       y2="10.583"
       gradientUnits="userSpaceOnUse"
       xlink:href="#linearGradient6261" />
    <linearGradient
       id="linearGradient6755-6"
       x1="3.1749"
       x2="2.1166"
       y1="8.4665"
       y2="8.4665"
       gradientUnits="userSpaceOnUse"
       xlink:href="#linearGradient6261" />
    <radialGradient
       id="radialGradient6757-1"
       cx="13.758"
       cy="15.346"
       r=".79373"
       gradientTransform="matrix(0 1.6667 -1.3333 0 34.219 -7.5846)"
       gradientUnits="userSpaceOnUse"
       xlink:href="#linearGradient6261" />
    <radialGradient
       id="radialGradient6759-8"
       cx="3.1749"
       cy="15.346"
       r=".79373"
       gradientTransform="matrix(-1.3333 0 0 -1.6667 7.4082 40.921)"
       gradientUnits="userSpaceOnUse"
       xlink:href="#linearGradient6261" />
    <linearGradient
       id="linearGradient6761-7"
       x1="21.039"
       x2="21.039"
       y1="2"
       y2="62"
       gradientTransform="matrix(.26458 0 0 .26458 0 -.26458)"
       gradientUnits="userSpaceOnUse">
      <stop
         stop-color="#ff5b59"
         offset="0"
         id="stop27" />
      <stop
         stop-color="#ff983d"
         offset="1"
         id="stop29" />
    </linearGradient>
    <radialGradient
       id="radialGradient6763-2"
       cx="40"
       cy="12"
       r="8"
       gradientTransform="matrix(1.5 0 0 -2 -14 40)"
       gradientUnits="userSpaceOnUse"
       xlink:href="#linearGradient6261" />
    <radialGradient
       id="radialGradient6765-3"
       cx="10.583"
       cy="4.2333"
       r="2.1166"
       gradientTransform="matrix(-2 3.1236e-7 -3.1236e-7 -2 31.749 12.7)"
       gradientUnits="userSpaceOnUse"
       xlink:href="#linearGradient6261" />
    <radialGradient
       id="radialGradient6767-7"
       cx="40"
       cy="12"
       r="8"
       gradientTransform="matrix(0 -1.5 2 0 16 70)"
       gradientUnits="userSpaceOnUse"
       xlink:href="#linearGradient6261" />
    <linearGradient
       id="linearGradient7282"
       x1="10.583"
       x2="6.3499"
       y1="3.1749"
       y2="3.1749"
       gradientTransform="matrix(1 0 0 .66667 0 1.4111)"
       gradientUnits="userSpaceOnUse"
       xlink:href="#linearGradient6261" />
    <linearGradient
       id="linearGradient7284"
       x1="10.583"
       x2="8.7311"
       y1="3.0426"
       y2="3.0426"
       gradientTransform="matrix(1 0 0 .66667 0 1.4111)"
       gradientUnits="userSpaceOnUse"
       xlink:href="#linearGradient6261" />
    <radialGradient
       id="radialGradient6773-5"
       cx="10.583"
       cy="4.2333"
       r="2.1166"
       gradientTransform="matrix(-.875 -1.6564e-7 1.6631e-7 -.87849 19.843 7.9521)"
       gradientUnits="userSpaceOnUse"
       xlink:href="#linearGradient6261" />
    <radialGradient
       id="radialGradient6775-9"
       cx="40"
       cy="12"
       r="8"
       gradientTransform="matrix(0 -1.3078 .87983 0 29.442 62.311)"
       gradientUnits="userSpaceOnUse"
       xlink:href="#linearGradient6261" />
    <linearGradient
       id="linearGradient7286"
       x1="10.583"
       x2="6.3499"
       y1="3.1749"
       y2="3.1749"
       gradientTransform="matrix(1 0 0 .66667 -14.816 9.3484)"
       gradientUnits="userSpaceOnUse"
       xlink:href="#linearGradient6261" />
    <linearGradient
       id="linearGradient7288"
       x1="10.583"
       x2="8.7237"
       y1="3.0426"
       y2="3.0426"
       gradientTransform="matrix(1 0 0 .66667 -14.816 9.3484)"
       gradientUnits="userSpaceOnUse"
       xlink:href="#linearGradient6261" />
    <radialGradient
       id="radialGradient6781-2"
       cx="40"
       cy="12"
       r="8"
       gradientTransform="matrix(1.4336 0 0 -.87849 -11.344 26.542)"
       gradientUnits="userSpaceOnUse"
       xlink:href="#linearGradient6261" />
    <linearGradient
       id="linearGradient7290"
       x1="40"
       x2="46"
       y1="17"
       y2="11"
       gradientTransform="matrix(.26458 0 0 .26458 -1.6667e-7 -.26458)"
       gradientUnits="userSpaceOnUse">
      <stop
         stop-color="#fefefe"
         offset="0"
         id="stop42" />
      <stop
         stop-color="#e9e9e9"
         offset="1"
         id="stop44" />
    </linearGradient>
    <clipPath
       clipPathUnits="userSpaceOnUse"
       id="clipPath192">
      <path
         id="path194"
         style="display:none;fill:#e6e6e6;stroke-width:0.0359025"
         d="M 9.0022748,4.9342068 5.1354016,6.2994719 V 10.05421 L 6.4241872,9.542106 V 6.8115756 L 9.0022748,6.128943 v 4.43737 l -3.8668732,-0.512103 3.8668732,1.28 2.2556332,-0.512103 -0.01033,-5.198033 z m 0.3787811,7.6867222 c -0.2839385,0 -0.5017438,0.04325 -0.6531776,0.129705 -0.1514337,0.08645 -0.2268552,0.210369 -0.2268552,0.37103 0,0.12824 0.053944,0.229754 0.1622608,0.305402 0.109369,0.07565 0.2817076,0.130782 0.5172712,0.165361 l 0.2351233,0.03566 c 0.1430207,0.02162 0.2384419,0.04652 0.2857651,0.0739 0.048375,0.02738 0.072346,0.06584 0.072346,0.11627 0,0.0562 -0.035476,0.09945 -0.1059348,0.129705 -0.070459,0.03026 -0.1718637,0.04547 -0.3043682,0.04547 -0.1304013,10e-7 -0.2657683,-0.01345 -0.4066858,-0.04082 -0.1398659,-0.0281 -0.2852416,-0.06978 -0.4356239,-0.124538 v 0.351393 c 0.1503823,0.03818 0.3007445,0.06684 0.4511266,0.0863 0.1503823,0.01945 0.3002457,0.02946 0.4495764,0.02946 0.3165388,0 0.5518327,-0.04325 0.7053692,-0.129705 0.154589,-0.08718 0.232023,-0.21995 0.232023,-0.397901 0,-0.135445 -0.05546,-0.239667 -0.165878,-0.313153 -0.110421,-0.0735 -0.2967573,-0.128317 -0.5586117,-0.164342 L 9.3764052,13.25447 C 9.2533654,13.23718 9.167935,13.21675 9.1206117,13.19298 c -0.046272,-0.02449 -0.069245,-0.05857 -0.069245,-0.101801 0,-0.05764 0.03446,-0.100263 0.1038677,-0.127638 0.069407,-0.02738 0.1768139,-0.04082 0.321938,-0.04082 0.109369,-10e-7 0.2257694,0.0098 0.3488094,0.02997 0.1230397,0.02017 0.2489142,0.05029 0.3782642,0.08991 v -0.341574 c -0.146176,-0.02666 -0.2875443,-0.04646 -0.4242556,-0.05943 -0.136711,-0.01369 -0.2695846,-0.02067 -0.3989343,-0.02067 z m -5.5685456,0.02946 0.7854667,0.790117 -0.8169888,0.82319 h 0.635608 l 0.5462094,-0.55086 0.5503434,0.55086 H 6.1456564 L 5.3286678,13.440501 6.1141346,12.650384 H 5.4769764 L 4.9628056,13.170239 4.4465679,12.650384 Z m 2.6943576,0 v 1.613307 H 8.1806355 V 13.949504 H 7.1140544 v -1.29912 z m 4.1820931,0 0.785467,0.790117 -0.817506,0.82319 h 0.636125 l 0.545693,-0.55086 0.550344,0.55086 h 0.632507 l -0.816989,-0.82319 0.785467,-0.790117 h -0.637158 l -0.514171,0.519855 -0.515721,-0.519855 z" />
      <path
         id="lpe_path-effect196"
         style="fill:#e6e6e6;stroke-width:0.0359025"
         class="powerclip"
         d="M -1.7916522,-3.7813297 H 18.718883 V 20.283949 H -1.7916522 Z M 9.0022748,4.9342068 5.1354016,6.2994719 V 10.05421 L 6.4241872,9.542106 V 6.8115756 L 9.0022748,6.128943 v 4.43737 l -3.8668732,-0.512103 3.8668732,1.28 2.2556332,-0.512103 -0.01033,-5.198033 z m 0.3787811,7.6867222 c -0.2839385,0 -0.5017438,0.04325 -0.6531776,0.129705 -0.1514337,0.08645 -0.2268552,0.210369 -0.2268552,0.37103 0,0.12824 0.053944,0.229754 0.1622608,0.305402 0.109369,0.07565 0.2817076,0.130782 0.5172712,0.165361 l 0.2351233,0.03566 c 0.1430207,0.02162 0.2384419,0.04652 0.2857651,0.0739 0.048375,0.02738 0.072346,0.06584 0.072346,0.11627 0,0.0562 -0.035476,0.09945 -0.1059348,0.129705 -0.070459,0.03026 -0.1718637,0.04547 -0.3043682,0.04547 -0.1304013,10e-7 -0.2657683,-0.01345 -0.4066858,-0.04082 -0.1398659,-0.0281 -0.2852416,-0.06978 -0.4356239,-0.124538 v 0.351393 c 0.1503823,0.03818 0.3007445,0.06684 0.4511266,0.0863 0.1503823,0.01945 0.3002457,0.02946 0.4495764,0.02946 0.3165388,0 0.5518327,-0.04325 0.7053692,-0.129705 0.154589,-0.08718 0.232023,-0.21995 0.232023,-0.397901 0,-0.135445 -0.05546,-0.239667 -0.165878,-0.313153 -0.110421,-0.0735 -0.2967573,-0.128317 -0.5586117,-0.164342 L 9.3764052,13.25447 C 9.2533654,13.23718 9.167935,13.21675 9.1206117,13.19298 c -0.046272,-0.02449 -0.069245,-0.05857 -0.069245,-0.101801 0,-0.05764 0.03446,-0.100263 0.1038677,-0.127638 0.069407,-0.02738 0.1768139,-0.04082 0.321938,-0.04082 0.109369,-10e-7 0.2257694,0.0098 0.3488094,0.02997 0.1230397,0.02017 0.2489142,0.05029 0.3782642,0.08991 v -0.341574 c -0.146176,-0.02666 -0.2875443,-0.04646 -0.4242556,-0.05943 -0.136711,-0.01369 -0.2695846,-0.02067 -0.3989343,-0.02067 z m -5.5685456,0.02946 0.7854667,0.790117 -0.8169888,0.82319 h 0.635608 l 0.5462094,-0.55086 0.5503434,0.55086 H 6.1456564 L 5.3286678,13.440501 6.1141346,12.650384 H 5.4769764 L 4.9628056,13.170239 4.4465679,12.650384 Z m 2.6943576,0 v 1.613307 H 8.1806355 V 13.949504 H 7.1140544 v -1.29912 z m 4.1820931,0 0.785467,0.790117 -0.817506,0.82319 h 0.636125 l 0.545693,-0.55086 0.550344,0.55086 h 0.632507 l -0.816989,-0.82319 0.785467,-0.790117 h -0.637158 l -0.514171,0.519855 -0.515721,-0.519855 z" />
    </clipPath>
  </defs>
  <g
     transform="matrix(3.7796 0 0 3.7796 -.021092 1.0245)"
     id="g121">
    <rect
       x="8.7209"
       y="-.54211"
       width="6.6358"
       height="6.6348"
       fill="none"
       id="rect97" />
    <path
       d="m 3.6653411,1.219379 c -0.2531703,0 -0.4569933,0.2091037 -0.4569933,0.4688332 V 14.815114 c 0,0.259739 0.203823,0.468835 0.4569933,0.468835 H 13.26189 c 0.25318,0 0.456993,-0.209104 0.456993,-0.468835 V 5.6725322 c 0,-0.2344167 -0.139155,-0.6115936 -0.456993,-0.9376488 l -2.970423,-3.04738 C 9.9857202,1.2905865 9.6059778,1.2186703 9.3774984,1.2186703 Z"
       fill="url(#linearGradient6761-7)"
       stroke-width="0.231438"
       id="path93-3"
       style="fill:#2c2c2c"
       clip-path="url(#clipPath192)"
       inkscape:path-effect="#path-effect196"
       inkscape:original-d="m 3.6653411,1.219379 c -0.2531703,0 -0.4569933,0.2091037 -0.4569933,0.4688332 V 14.815114 c 0,0.259739 0.203823,0.468835 0.4569933,0.468835 H 13.26189 c 0.25318,0 0.456993,-0.209104 0.456993,-0.468835 V 5.6725322 c 0,-0.2344167 -0.139155,-0.6115936 -0.456993,-0.9376488 l -2.970423,-3.04738 C 9.9857202,1.2905865 9.6059778,1.2186703 9.3774984,1.2186703 Z" />
    <g
       aria-label="XLSX"
       transform="matrix(1.1147148,0,0,0.76367352,0.56233437,0)"
       id="text80"
       style="font-weight:bold;font-size:2.89813px;line-height:1.25;font-family:sans-serif;-inkscape-font-specification:'sans-serif Bold';fill:#e6e6e6;stroke-width:0.0724533" />
  </g>
</svg>
