<?xml version="1.0" encoding="UTF-8" standalone="no"?>
<svg
   width="64"
   height="64"
   version="1.1"
   id="svg125"
   sodipodi:docname="application-x-font-bdf.svg"
   inkscape:version="1.1 (1:1.1+rc+202105240936+c4e8f9ed74)"
   xmlns:inkscape="http://www.inkscape.org/namespaces/inkscape"
   xmlns:sodipodi="http://sodipodi.sourceforge.net/DTD/sodipodi-0.dtd"
   xmlns:xlink="http://www.w3.org/1999/xlink"
   xmlns="http://www.w3.org/2000/svg"
   xmlns:svg="http://www.w3.org/2000/svg"
   xmlns:rdf="http://www.w3.org/1999/02/22-rdf-syntax-ns#"
   xmlns:cc="http://creativecommons.org/ns#"
   xmlns:dc="http://purl.org/dc/elements/1.1/">
  <metadata
     id="metadata129">
    <rdf:RDF>
      <cc:Work
         rdf:about="">
        <dc:format>image/svg+xml</dc:format>
        <dc:type
           rdf:resource="http://purl.org/dc/dcmitype/StillImage" />
        <dc:title />
      </cc:Work>
    </rdf:RDF>
  </metadata>
  <sodipodi:namedview
     pagecolor="#ffffff"
     bordercolor="#666666"
     borderopacity="1"
     objecttolerance="10"
     gridtolerance="10"
     guidetolerance="10"
     inkscape:pageopacity="0"
     inkscape:pageshadow="2"
     inkscape:window-width="1920"
     inkscape:window-height="996"
     id="namedview127"
     showgrid="false"
     inkscape:zoom="12.578125"
     inkscape:cx="32"
     inkscape:cy="32"
     inkscape:window-x="0"
     inkscape:window-y="0"
     inkscape:window-maximized="1"
     inkscape:current-layer="g121"
     inkscape:document-rotation="0"
     inkscape:pagecheckerboard="0" />
  <defs
     id="defs47">
    <inkscape:path-effect
       effect="powerclip"
       id="path-effect53"
       is_visible="true"
       lpeversion="1"
       inverse="true"
       flatten="false"
       hide_clip="false"
       message="Use fill-rule evenodd on &lt;b&gt;fill and stroke&lt;/b&gt; dialog if no flatten result after convert clip to paths." />
    <linearGradient
       id="linearGradient6721-3"
       x1="7.9373"
       x2="7.9373"
       y1="15.346"
       y2="16.933"
       gradientUnits="userSpaceOnUse"
       xlink:href="#linearGradient6261" />
    <linearGradient
       id="linearGradient6261">
      <stop
         offset="0"
         id="stop3" />
      <stop
         stop-opacity="0"
         offset="1"
         id="stop5" />
    </linearGradient>
    <radialGradient
       id="radialGradient6723-5"
       cx="35"
       cy="4"
       r="3.7275"
       gradientTransform="matrix(1.696 0 0 1.0731 -24.361 -.29238)"
       gradientUnits="userSpaceOnUse"
       xlink:href="#linearGradient6261" />
    <linearGradient
       id="linearGradient6725-3"
       x1="43"
       x2="46.748"
       y1="12"
       y2="8.2517"
       gradientUnits="userSpaceOnUse"
       xlink:href="#linearGradient6261" />
    <radialGradient
       id="radialGradient6727-5"
       cx="52"
       cy="22"
       r="5.2061"
       gradientTransform="matrix(.96042 0 0 1.3331 2.0581 -7.3283)"
       gradientUnits="userSpaceOnUse"
       xlink:href="#linearGradient6261" />
    <linearGradient
       id="linearGradient6729-6"
       x1="5.8207"
       x2="5.8207"
       y1="1.0583"
       gradientUnits="userSpaceOnUse"
       xlink:href="#linearGradient6261" />
    <radialGradient
       id="radialGradient6731-2"
       cx="3.1749"
       cy="1.3229"
       r=".79373"
       gradientTransform="matrix(-2.1078e-8 -1.3333 1.6667 -2.6348e-8 .97012 5.2916)"
       gradientUnits="userSpaceOnUse"
       xlink:href="#linearGradient6261" />
    <linearGradient
       id="linearGradient6733-9"
       x1="13.758"
       x2="15.081"
       y1="10.583"
       y2="10.583"
       gradientUnits="userSpaceOnUse"
       xlink:href="#linearGradient6261" />
    <linearGradient
       id="linearGradient6735-1"
       x1="3.1749"
       x2="1.852"
       y1="8.4665"
       y2="8.4665"
       gradientUnits="userSpaceOnUse"
       xlink:href="#linearGradient6261" />
    <radialGradient
       id="radialGradient6737-2"
       cx="13.758"
       cy="15.346"
       r=".79373"
       gradientTransform="matrix(5.1718e-7 2 -1.6667 4.3098e-7 39.334 -12.171)"
       gradientUnits="userSpaceOnUse"
       xlink:href="#linearGradient6261" />
    <radialGradient
       id="radialGradient6739-7"
       cx="3.1749"
       cy="15.346"
       r=".79373"
       gradientTransform="matrix(-1.6667 -1.37e-6 1.644e-6 -2 8.4665 46.037)"
       gradientUnits="userSpaceOnUse"
       xlink:href="#linearGradient6261" />
    <linearGradient
       id="linearGradient6741-0"
       x1="7.9373"
       x2="7.9373"
       y1="15.346"
       y2="16.668"
       gradientUnits="userSpaceOnUse"
       xlink:href="#linearGradient6261" />
    <radialGradient
       id="radialGradient6743-9"
       cx="35"
       cy="4"
       r="3.7275"
       gradientTransform="matrix(1.6115 -1.9122e-7 9.5496e-8 .80482 -21.403 .78072)"
       gradientUnits="userSpaceOnUse"
       xlink:href="#linearGradient6261" />
    <linearGradient
       id="linearGradient6745-3"
       x1="43"
       x2="46.004"
       y1="12"
       y2="8.9965"
       gradientUnits="userSpaceOnUse"
       xlink:href="#linearGradient6261" />
    <radialGradient
       id="radialGradient6747-6"
       cx="52"
       cy="22"
       r="5.2061"
       gradientTransform="matrix(.76834 -9.6042e-8 1.534e-7 1.2272 12.047 -4.9986)"
       gradientUnits="userSpaceOnUse"
       xlink:href="#linearGradient6261" />
    <linearGradient
       id="linearGradient6749-0"
       x1="5.8207"
       x2="5.8207"
       y1="1.0583"
       y2=".26458"
       gradientUnits="userSpaceOnUse"
       xlink:href="#linearGradient6261" />
    <radialGradient
       id="radialGradient6751-6"
       cx="3.1749"
       cy="1.3229"
       r=".79373"
       gradientTransform="matrix(-7.442e-8 -1 1.3333 -9.9226e-8 1.4111 4.2333)"
       gradientUnits="userSpaceOnUse"
       xlink:href="#linearGradient6261" />
    <linearGradient
       id="linearGradient6753-2"
       x1="13.758"
       x2="14.816"
       y1="10.583"
       y2="10.583"
       gradientUnits="userSpaceOnUse"
       xlink:href="#linearGradient6261" />
    <linearGradient
       id="linearGradient6755-6"
       x1="3.1749"
       x2="2.1166"
       y1="8.4665"
       y2="8.4665"
       gradientUnits="userSpaceOnUse"
       xlink:href="#linearGradient6261" />
    <radialGradient
       id="radialGradient6757-1"
       cx="13.758"
       cy="15.346"
       r=".79373"
       gradientTransform="matrix(0 1.6667 -1.3333 0 34.219 -7.5846)"
       gradientUnits="userSpaceOnUse"
       xlink:href="#linearGradient6261" />
    <radialGradient
       id="radialGradient6759-8"
       cx="3.1749"
       cy="15.346"
       r=".79373"
       gradientTransform="matrix(-1.3333 0 0 -1.6667 7.4082 40.921)"
       gradientUnits="userSpaceOnUse"
       xlink:href="#linearGradient6261" />
    <linearGradient
       id="linearGradient6761-7"
       x1="21.039"
       x2="21.039"
       y1="2"
       y2="62"
       gradientTransform="matrix(.26458 0 0 .26458 0 -.26458)"
       gradientUnits="userSpaceOnUse">
      <stop
         stop-color="#ff5b59"
         offset="0"
         id="stop27" />
      <stop
         stop-color="#ff983d"
         offset="1"
         id="stop29" />
    </linearGradient>
    <radialGradient
       id="radialGradient6763-2"
       cx="40"
       cy="12"
       r="8"
       gradientTransform="matrix(1.5 0 0 -2 -14 40)"
       gradientUnits="userSpaceOnUse"
       xlink:href="#linearGradient6261" />
    <radialGradient
       id="radialGradient6765-3"
       cx="10.583"
       cy="4.2333"
       r="2.1166"
       gradientTransform="matrix(-2 3.1236e-7 -3.1236e-7 -2 31.749 12.7)"
       gradientUnits="userSpaceOnUse"
       xlink:href="#linearGradient6261" />
    <radialGradient
       id="radialGradient6767-7"
       cx="40"
       cy="12"
       r="8"
       gradientTransform="matrix(0 -1.5 2 0 16 70)"
       gradientUnits="userSpaceOnUse"
       xlink:href="#linearGradient6261" />
    <linearGradient
       id="linearGradient7282"
       x1="10.583"
       x2="6.3499"
       y1="3.1749"
       y2="3.1749"
       gradientTransform="matrix(1 0 0 .66667 0 1.4111)"
       gradientUnits="userSpaceOnUse"
       xlink:href="#linearGradient6261" />
    <linearGradient
       id="linearGradient7284"
       x1="10.583"
       x2="8.7311"
       y1="3.0426"
       y2="3.0426"
       gradientTransform="matrix(1 0 0 .66667 0 1.4111)"
       gradientUnits="userSpaceOnUse"
       xlink:href="#linearGradient6261" />
    <radialGradient
       id="radialGradient6773-5"
       cx="10.583"
       cy="4.2333"
       r="2.1166"
       gradientTransform="matrix(-.875 -1.6564e-7 1.6631e-7 -.87849 19.843 7.9521)"
       gradientUnits="userSpaceOnUse"
       xlink:href="#linearGradient6261" />
    <radialGradient
       id="radialGradient6775-9"
       cx="40"
       cy="12"
       r="8"
       gradientTransform="matrix(0 -1.3078 .87983 0 29.442 62.311)"
       gradientUnits="userSpaceOnUse"
       xlink:href="#linearGradient6261" />
    <linearGradient
       id="linearGradient7286"
       x1="10.583"
       x2="6.3499"
       y1="3.1749"
       y2="3.1749"
       gradientTransform="matrix(1 0 0 .66667 -14.816 9.3484)"
       gradientUnits="userSpaceOnUse"
       xlink:href="#linearGradient6261" />
    <linearGradient
       id="linearGradient7288"
       x1="10.583"
       x2="8.7237"
       y1="3.0426"
       y2="3.0426"
       gradientTransform="matrix(1 0 0 .66667 -14.816 9.3484)"
       gradientUnits="userSpaceOnUse"
       xlink:href="#linearGradient6261" />
    <radialGradient
       id="radialGradient6781-2"
       cx="40"
       cy="12"
       r="8"
       gradientTransform="matrix(1.4336 0 0 -.87849 -11.344 26.542)"
       gradientUnits="userSpaceOnUse"
       xlink:href="#linearGradient6261" />
    <linearGradient
       id="linearGradient7290"
       x1="40"
       x2="46"
       y1="17"
       y2="11"
       gradientTransform="matrix(.26458 0 0 .26458 -1.6667e-7 -.26458)"
       gradientUnits="userSpaceOnUse">
      <stop
         stop-color="#fefefe"
         offset="0"
         id="stop42" />
      <stop
         stop-color="#e9e9e9"
         offset="1"
         id="stop44" />
    </linearGradient>
    <clipPath
       clipPathUnits="userSpaceOnUse"
       id="clipPath49">
      <path
         fill="#ffffff"
         d="M 9.3047873,10.367272 H 7.3299299 v -0.232427 c 0.1737618,-0.01095 0.3180037,-0.03274 0.4327315,-0.06547 C 7.8773881,10.036635 7.934751,9.996267 7.934751,9.948244 7.934751,9.928591 7.932531,9.904601 7.928071,9.87623 7.923611,9.84786 7.916932,9.82276 7.908021,9.800945 L 7.5137141,8.7599336 H 5.8529617 c -0.062376,0.1527667 -0.1130554,0.2858908 -0.1520404,0.3993788 -0.038984,0.113481 -0.074071,0.2182387 -0.1052588,0.3142652 -0.02896,0.093842 -0.049009,0.1702268 -0.060148,0.2291531 -0.011139,0.05893 -0.016708,0.1069394 -0.016708,0.1440383 0,0.0873 0.070172,0.154951 0.2105178,0.202964 0.1403458,0.04801 0.2985115,0.07638 0.4745005,0.08511 v 0.232426 H 4.4194354 v -0.232426 c 0.057921,-0.0044 0.1303201,-0.0169 0.217201,-0.03765 0.086881,-0.02075 0.158167,-0.04856 0.2138594,-0.08348 C 4.9396047,9.954783 5.0086626,9.8931297 5.0576722,9.8287554 5.1066811,9.7643785 5.1545772,9.6754424 5.2013589,9.5619547 5.4397243,8.9792602 5.7025902,8.3245465 5.9899653,7.5978003 6.2773405,6.8710567 6.5335237,6.2239811 6.7585226,5.6565523 h 0.2673241 l 1.580555,4.0068952 c 0.033415,0.085124 0.071286,0.1538591 0.1136126,0.2062377 0.042326,0.052375 0.1013604,0.1036683 0.1771026,0.1538578 0.05124,0.03055 0.1180675,0.05619 0.2004929,0.07693 0.082425,0.02075 0.1514838,0.03219 0.2071759,0.03436 z M 7.3934194,8.4685821 6.6749854,6.6680974 5.9699177,8.4685821 Z m 5.1159176,1.8397649 c -0.104702,0.0371 -0.196594,0.0671 -0.275678,0.09002 -0.07908,0.02292 -0.168747,0.03437 -0.268995,0.03437 -0.173761,0 -0.312434,-0.03983 -0.416023,-0.119489 -0.103589,-0.07966 -0.169862,-0.19587 -0.198823,-0.3486385 h -0.02005 c -0.144802,0.1571325 -0.300182,0.2771665 -0.466146,0.3600965 -0.165965,0.08294 -0.365899,0.124403 -0.599809,0.124403 -0.247277,0 -0.4505518,-0.0742 -0.6098332,-0.222606 -0.159278,-0.148404 -0.2389176,-0.3426367 -0.2389176,-0.5827026 0,-0.1244021 0.017819,-0.235699 0.053465,-0.3339081 0.035645,-0.098208 0.089108,-0.1865938 0.1603947,-0.2651601 0.055691,-0.065472 0.1292063,-0.1238546 0.2205422,-0.1751386 0.091333,-0.051294 0.1770989,-0.092214 0.2572959,-0.1227601 0.100247,-0.037101 0.303523,-0.1058442 0.609834,-0.2062377 0.306311,-0.1003839 0.512927,-0.1789573 0.619858,-0.2357003 V 7.9808128 c 0,-0.02837 -0.0061,-0.082931 -0.01838,-0.1636803 -0.01225,-0.080749 -0.03843,-0.1571325 -0.07853,-0.2291512 -0.04455,-0.08075 -0.107485,-0.151133 -0.188798,-0.2111478 -0.08131,-0.060017 -0.196594,-0.090024 -0.345851,-0.090024 -0.102474,0 -0.197707,0.016925 -0.285702,0.050741 -0.088,0.033827 -0.149813,0.069292 -0.185457,0.1063907 0,0.043649 0.01058,0.1080286 0.03174,0.1931442 0.02117,0.085113 0.03174,0.1636779 0.03174,0.235699 0,0.076383 -0.03508,0.14622 -0.105258,0.2095108 -0.07017,0.063296 -0.167634,0.094937 -0.2923861,0.094937 -0.1113853,0 -0.1932522,-0.038744 -0.2456038,-0.1162152 -0.052353,-0.077475 -0.078527,-0.1642235 -0.078527,-0.2602501 0,-0.1003921 0.036202,-0.1964178 0.1086006,-0.2880794 0.072397,-0.091661 0.1665166,-0.1734988 0.2823577,-0.2455199 0.1002466,-0.061106 0.2216556,-0.1129389 0.3642286,-0.1554955 0.142574,-0.042558 0.281804,-0.063834 0.417695,-0.063834 0.187128,0 0.350305,0.012549 0.489537,0.037646 0.139233,0.025098 0.265653,0.079112 0.379267,0.1620434 0.113613,0.080749 0.199935,0.1904138 0.25897,0.3289972 0.05904,0.1385832 0.08855,0.3169933 0.08855,0.5352339 0,0.3120854 -0.0034,0.5887014 -0.01003,0.8298582 -0.0067,0.241158 -0.01003,0.5046798 -0.01003,0.7905778 0,0.085111 0.01504,0.1527662 0.04511,0.2029622 0.03008,0.050199 0.0763,0.092747 0.138674,0.1276732 0.03341,0.01965 0.08632,0.03055 0.158724,0.03274 0.0724,0.0022 0.146471,0.0033 0.222213,0.0033 z M 11.343136,8.5798844 c -0.189356,0.054564 -0.355319,0.1080204 -0.497892,0.1604061 -0.142574,0.052375 -0.27512,0.1178469 -0.397645,0.1964158 -0.111385,0.074203 -0.19938,0.162043 -0.263983,0.263526 -0.06461,0.1014787 -0.09691,0.2220584 -0.09691,0.3617322 0,0.1811401 0.04845,0.3142679 0.145358,0.3993814 0.09691,0.085124 0.219985,0.1276731 0.369242,0.1276731 0.158168,0 0.297397,-0.03765 0.417694,-0.1129475 0.120296,-0.075284 0.221656,-0.1642255 0.304081,-0.2667978 z"
         id="path51"
         style="display:none;fill:#e6e6e6;stroke-width:0.0352789" />
      <path
         id="lpe_path-effect53"
         style="fill:#e6e6e6;stroke-width:0.0352789"
         class="powerclip"
         d="M -1.7916522,-3.7813297 H 18.718883 V 20.283949 H -1.7916522 Z m 11.0964395,14.1486017 -1.6e-6,-0.232439 c -0.055692,-0.0022 -0.1247509,-0.01361 -0.2071759,-0.03436 -0.082425,-0.02074 -0.1492529,-0.04638 -0.2004929,-0.07693 C 8.8213747,9.9733535 8.7623403,9.9220602 8.7200143,9.8696852 8.6776877,9.8173066 8.6398167,9.7485715 8.6064017,9.6634475 L 7.0258467,5.6565523 H 6.7585226 C 6.5335237,6.2239811 6.2773405,6.8710567 5.9899653,7.5978003 5.7025902,8.3245465 5.4397243,8.9792602 5.2013589,9.5619547 5.1545772,9.6754424 5.1066811,9.7643785 5.0576722,9.8287554 5.0086626,9.8931297 4.9396047,9.954783 4.8504958,10.013713 c -0.055692,0.03492 -0.1269784,0.06273 -0.2138594,0.08348 -0.086881,0.02075 -0.15928,0.03325 -0.217201,0.03765 v 0.232426 h 1.7843894 v -0.232426 c -0.175989,-0.0087 -0.3341547,-0.0371 -0.4745005,-0.08511 C 5.5889785,10.00172 5.5188065,9.934069 5.5188065,9.846769 c 0,-0.037099 0.00557,-0.085108 0.016708,-0.1440383 0.011139,-0.058926 0.031188,-0.1353111 0.060148,-0.2291531 0.031188,-0.096027 0.066275,-0.2007842 0.1052588,-0.3142652 0.038985,-0.113488 0.089664,-0.2466121 0.1520404,-0.3993788 H 7.5137141 L 7.908021,9.800945 c 0.00891,0.021815 0.01559,0.046915 0.02005,0.075285 0.00446,0.028371 0.00668,0.052361 0.00668,0.072014 0,0.048023 -0.057363,0.088391 -0.1720896,0.121131 -0.1147278,0.03273 -0.2589697,0.05452 -0.4327315,0.06547 v 0.232427 z M 7.3934194,8.4685821 6.6749854,6.6680974 5.9699177,8.4685821 Z m 5.1159176,1.8397649 -3.1e-5,-0.209477 c -0.07574,0 -0.149813,-0.0011 -0.222213,-0.0033 -0.0724,-0.0022 -0.125314,-0.01309 -0.158724,-0.03274 -0.06237,-0.03493 -0.108594,-0.077474 -0.138674,-0.1276732 -0.03007,-0.050196 -0.04511,-0.1178512 -0.04511,-0.2029622 0,-0.285898 0.0033,-0.5494198 0.01003,-0.7905778 0.0066,-0.2411568 0.01003,-0.5177728 0.01003,-0.8298582 0,-0.2182406 -0.02951,-0.3966507 -0.08855,-0.5352339 -0.05903,-0.1385834 -0.145357,-0.2482482 -0.25897,-0.3289972 -0.113614,-0.082931 -0.240034,-0.1369454 -0.379267,-0.1620434 -0.139232,-0.025097 -0.302409,-0.037646 -0.489537,-0.037646 -0.135891,0 -0.275121,0.021276 -0.417695,0.063834 -0.142573,0.042557 -0.263982,0.09439 -0.3642286,0.1554955 -0.1158411,0.072021 -0.2099607,0.1538589 -0.2823577,0.2455199 -0.072399,0.091662 -0.1086006,0.1876873 -0.1086006,0.2880794 0,0.096027 0.026174,0.1827751 0.078527,0.2602501 0.052352,0.077471 0.1342185,0.1162152 0.2456038,0.1162152 0.1247521,0 0.2222161,-0.031641 0.2923861,-0.094937 0.07018,-0.063291 0.105258,-0.1331278 0.105258,-0.2095108 0,-0.072021 -0.01057,-0.150586 -0.03174,-0.235699 -0.02116,-0.085116 -0.03174,-0.1494952 -0.03174,-0.1931442 0.03564,-0.037099 0.09746,-0.072564 0.185457,-0.1063907 0.088,-0.033816 0.183228,-0.050741 0.285702,-0.050741 0.149257,0 0.264541,0.030007 0.345851,0.090024 0.08131,0.060015 0.144248,0.1303978 0.188798,0.2111478 0.0401,0.072019 0.06628,0.1484022 0.07853,0.2291512 0.01228,0.080749 0.01838,0.1353103 0.01838,0.1636803 v 0.3240827 c -0.106931,0.056743 -0.313547,0.1353164 -0.619858,0.2357003 -0.306311,0.1003935 -0.509587,0.1691367 -0.609834,0.2062377 -0.0802,0.030546 -0.1659629,0.071466 -0.2572959,0.1227601 -0.091336,0.051284 -0.1648512,0.1096666 -0.2205422,0.1751386 -0.071287,0.078566 -0.1247497,0.1669521 -0.1603947,0.2651601 -0.035646,0.098209 -0.053465,0.209506 -0.053465,0.3339081 0,0.2400659 0.07964,0.4342986 0.2389176,0.5827026 0.1592814,0.148406 0.3625562,0.222606 0.6098332,0.222606 0.23391,0 0.433844,-0.04146 0.599809,-0.124403 0.165964,-0.08293 0.321344,-0.202964 0.466146,-0.3600965 h 0.02005 c 0.02896,0.1527685 0.09523,0.2689785 0.198823,0.3486385 0.103589,0.07966 0.242262,0.119489 0.416023,0.119489 0.100248,0 0.189915,-0.01145 0.268995,-0.03437 0.07908,-0.02292 0.170976,-0.05292 0.275678,-0.09002 z M 11.343136,8.5798844 c -0.189356,0.054564 -0.355319,0.1080204 -0.497892,0.1604061 -0.142574,0.052375 -0.27512,0.1178469 -0.397645,0.1964158 -0.111385,0.074203 -0.19938,0.162043 -0.263983,0.263526 -0.06461,0.1014787 -0.09691,0.2220584 -0.09691,0.3617322 0,0.1811401 0.04845,0.3142679 0.145358,0.3993814 0.09691,0.085124 0.219985,0.1276731 0.369242,0.1276731 0.158168,0 0.297397,-0.03765 0.417694,-0.1129475 0.120296,-0.075284 0.221656,-0.1642255 0.304081,-0.2667978 z" />
    </clipPath>
  </defs>
  <g
     transform="matrix(3.7796 0 0 3.7796 -.021092 1.0245)"
     id="g121">
    <rect
       x="8.7209"
       y="-.54211"
       width="6.6358"
       height="6.6348"
       fill="none"
       id="rect97" />
    <path
       d="m 3.6653411,1.219379 c -0.2531703,0 -0.4569933,0.2091037 -0.4569933,0.4688332 V 14.815114 c 0,0.259739 0.203823,0.468835 0.4569933,0.468835 H 13.26189 c 0.25318,0 0.456993,-0.209104 0.456993,-0.468835 V 5.6725322 c 0,-0.2344167 -0.139155,-0.6115936 -0.456993,-0.9376488 l -2.970423,-3.04738 C 9.9857202,1.2905865 9.6059778,1.2186703 9.3774984,1.2186703 Z"
       fill="url(#linearGradient6761-7)"
       stroke-width="0.231438"
       id="path93-3"
       style="fill:#2c2c2c"
       clip-path="url(#clipPath49)"
       inkscape:path-effect="#path-effect53"
       inkscape:original-d="m 3.6653411,1.219379 c -0.2531703,0 -0.4569933,0.2091037 -0.4569933,0.4688332 V 14.815114 c 0,0.259739 0.203823,0.468835 0.4569933,0.468835 H 13.26189 c 0.25318,0 0.456993,-0.209104 0.456993,-0.468835 V 5.6725322 c 0,-0.2344167 -0.139155,-0.6115936 -0.456993,-0.9376488 l -2.970423,-3.04738 C 9.9857202,1.2905865 9.6059778,1.2186703 9.3774984,1.2186703 Z" />
  </g>
</svg>
