<?xml version="1.0" encoding="UTF-8" standalone="no"?>
<svg
   width="64"
   height="64"
   version="1.1"
   id="svg125"
   sodipodi:docname="application-x-font-otf.svg"
   inkscape:version="1.1 (1:1.1+rc+202105240936+c4e8f9ed74)"
   xmlns:inkscape="http://www.inkscape.org/namespaces/inkscape"
   xmlns:sodipodi="http://sodipodi.sourceforge.net/DTD/sodipodi-0.dtd"
   xmlns:xlink="http://www.w3.org/1999/xlink"
   xmlns="http://www.w3.org/2000/svg"
   xmlns:svg="http://www.w3.org/2000/svg"
   xmlns:rdf="http://www.w3.org/1999/02/22-rdf-syntax-ns#"
   xmlns:cc="http://creativecommons.org/ns#"
   xmlns:dc="http://purl.org/dc/elements/1.1/">
  <metadata
     id="metadata129">
    <rdf:RDF>
      <cc:Work
         rdf:about="">
        <dc:format>image/svg+xml</dc:format>
        <dc:type
           rdf:resource="http://purl.org/dc/dcmitype/StillImage" />
        <dc:title />
      </cc:Work>
    </rdf:RDF>
  </metadata>
  <sodipodi:namedview
     pagecolor="#ffffff"
     bordercolor="#666666"
     borderopacity="1"
     objecttolerance="10"
     gridtolerance="10"
     guidetolerance="10"
     inkscape:pageopacity="0"
     inkscape:pageshadow="2"
     inkscape:window-width="1920"
     inkscape:window-height="996"
     id="namedview127"
     showgrid="false"
     inkscape:zoom="12.578125"
     inkscape:cx="38.678261"
     inkscape:cy="32"
     inkscape:window-x="0"
     inkscape:window-y="0"
     inkscape:window-maximized="1"
     inkscape:current-layer="g121"
     inkscape:document-rotation="0"
     inkscape:pagecheckerboard="0" />
  <defs
     id="defs47">
    <inkscape:path-effect
       effect="powerclip"
       id="path-effect258"
       is_visible="true"
       lpeversion="1"
       inverse="true"
       flatten="false"
       hide_clip="false"
       message="Use fill-rule evenodd on &lt;b&gt;fill and stroke&lt;/b&gt; dialog if no flatten result after convert clip to paths." />
    <linearGradient
       id="linearGradient6721-3"
       x1="7.9373"
       x2="7.9373"
       y1="15.346"
       y2="16.933"
       gradientUnits="userSpaceOnUse"
       xlink:href="#linearGradient6261" />
    <linearGradient
       id="linearGradient6261">
      <stop
         offset="0"
         id="stop3" />
      <stop
         stop-opacity="0"
         offset="1"
         id="stop5" />
    </linearGradient>
    <radialGradient
       id="radialGradient6723-5"
       cx="35"
       cy="4"
       r="3.7275"
       gradientTransform="matrix(1.696 0 0 1.0731 -24.361 -.29238)"
       gradientUnits="userSpaceOnUse"
       xlink:href="#linearGradient6261" />
    <linearGradient
       id="linearGradient6725-3"
       x1="43"
       x2="46.748"
       y1="12"
       y2="8.2517"
       gradientUnits="userSpaceOnUse"
       xlink:href="#linearGradient6261" />
    <radialGradient
       id="radialGradient6727-5"
       cx="52"
       cy="22"
       r="5.2061"
       gradientTransform="matrix(.96042 0 0 1.3331 2.0581 -7.3283)"
       gradientUnits="userSpaceOnUse"
       xlink:href="#linearGradient6261" />
    <linearGradient
       id="linearGradient6729-6"
       x1="5.8207"
       x2="5.8207"
       y1="1.0583"
       gradientUnits="userSpaceOnUse"
       xlink:href="#linearGradient6261" />
    <radialGradient
       id="radialGradient6731-2"
       cx="3.1749"
       cy="1.3229"
       r=".79373"
       gradientTransform="matrix(-2.1078e-8 -1.3333 1.6667 -2.6348e-8 .97012 5.2916)"
       gradientUnits="userSpaceOnUse"
       xlink:href="#linearGradient6261" />
    <linearGradient
       id="linearGradient6733-9"
       x1="13.758"
       x2="15.081"
       y1="10.583"
       y2="10.583"
       gradientUnits="userSpaceOnUse"
       xlink:href="#linearGradient6261" />
    <linearGradient
       id="linearGradient6735-1"
       x1="3.1749"
       x2="1.852"
       y1="8.4665"
       y2="8.4665"
       gradientUnits="userSpaceOnUse"
       xlink:href="#linearGradient6261" />
    <radialGradient
       id="radialGradient6737-2"
       cx="13.758"
       cy="15.346"
       r=".79373"
       gradientTransform="matrix(5.1718e-7 2 -1.6667 4.3098e-7 39.334 -12.171)"
       gradientUnits="userSpaceOnUse"
       xlink:href="#linearGradient6261" />
    <radialGradient
       id="radialGradient6739-7"
       cx="3.1749"
       cy="15.346"
       r=".79373"
       gradientTransform="matrix(-1.6667 -1.37e-6 1.644e-6 -2 8.4665 46.037)"
       gradientUnits="userSpaceOnUse"
       xlink:href="#linearGradient6261" />
    <linearGradient
       id="linearGradient6741-0"
       x1="7.9373"
       x2="7.9373"
       y1="15.346"
       y2="16.668"
       gradientUnits="userSpaceOnUse"
       xlink:href="#linearGradient6261" />
    <radialGradient
       id="radialGradient6743-9"
       cx="35"
       cy="4"
       r="3.7275"
       gradientTransform="matrix(1.6115 -1.9122e-7 9.5496e-8 .80482 -21.403 .78072)"
       gradientUnits="userSpaceOnUse"
       xlink:href="#linearGradient6261" />
    <linearGradient
       id="linearGradient6745-3"
       x1="43"
       x2="46.004"
       y1="12"
       y2="8.9965"
       gradientUnits="userSpaceOnUse"
       xlink:href="#linearGradient6261" />
    <radialGradient
       id="radialGradient6747-6"
       cx="52"
       cy="22"
       r="5.2061"
       gradientTransform="matrix(.76834 -9.6042e-8 1.534e-7 1.2272 12.047 -4.9986)"
       gradientUnits="userSpaceOnUse"
       xlink:href="#linearGradient6261" />
    <linearGradient
       id="linearGradient6749-0"
       x1="5.8207"
       x2="5.8207"
       y1="1.0583"
       y2=".26458"
       gradientUnits="userSpaceOnUse"
       xlink:href="#linearGradient6261" />
    <radialGradient
       id="radialGradient6751-6"
       cx="3.1749"
       cy="1.3229"
       r=".79373"
       gradientTransform="matrix(-7.442e-8 -1 1.3333 -9.9226e-8 1.4111 4.2333)"
       gradientUnits="userSpaceOnUse"
       xlink:href="#linearGradient6261" />
    <linearGradient
       id="linearGradient6753-2"
       x1="13.758"
       x2="14.816"
       y1="10.583"
       y2="10.583"
       gradientUnits="userSpaceOnUse"
       xlink:href="#linearGradient6261" />
    <linearGradient
       id="linearGradient6755-6"
       x1="3.1749"
       x2="2.1166"
       y1="8.4665"
       y2="8.4665"
       gradientUnits="userSpaceOnUse"
       xlink:href="#linearGradient6261" />
    <radialGradient
       id="radialGradient6757-1"
       cx="13.758"
       cy="15.346"
       r=".79373"
       gradientTransform="matrix(0 1.6667 -1.3333 0 34.219 -7.5846)"
       gradientUnits="userSpaceOnUse"
       xlink:href="#linearGradient6261" />
    <radialGradient
       id="radialGradient6759-8"
       cx="3.1749"
       cy="15.346"
       r=".79373"
       gradientTransform="matrix(-1.3333 0 0 -1.6667 7.4082 40.921)"
       gradientUnits="userSpaceOnUse"
       xlink:href="#linearGradient6261" />
    <linearGradient
       id="linearGradient6761-7"
       x1="21.039"
       x2="21.039"
       y1="2"
       y2="62"
       gradientTransform="matrix(.26458 0 0 .26458 0 -.26458)"
       gradientUnits="userSpaceOnUse">
      <stop
         stop-color="#ff5b59"
         offset="0"
         id="stop27" />
      <stop
         stop-color="#ff983d"
         offset="1"
         id="stop29" />
    </linearGradient>
    <radialGradient
       id="radialGradient6763-2"
       cx="40"
       cy="12"
       r="8"
       gradientTransform="matrix(1.5 0 0 -2 -14 40)"
       gradientUnits="userSpaceOnUse"
       xlink:href="#linearGradient6261" />
    <radialGradient
       id="radialGradient6765-3"
       cx="10.583"
       cy="4.2333"
       r="2.1166"
       gradientTransform="matrix(-2 3.1236e-7 -3.1236e-7 -2 31.749 12.7)"
       gradientUnits="userSpaceOnUse"
       xlink:href="#linearGradient6261" />
    <radialGradient
       id="radialGradient6767-7"
       cx="40"
       cy="12"
       r="8"
       gradientTransform="matrix(0 -1.5 2 0 16 70)"
       gradientUnits="userSpaceOnUse"
       xlink:href="#linearGradient6261" />
    <linearGradient
       id="linearGradient7282"
       x1="10.583"
       x2="6.3499"
       y1="3.1749"
       y2="3.1749"
       gradientTransform="matrix(1 0 0 .66667 0 1.4111)"
       gradientUnits="userSpaceOnUse"
       xlink:href="#linearGradient6261" />
    <linearGradient
       id="linearGradient7284"
       x1="10.583"
       x2="8.7311"
       y1="3.0426"
       y2="3.0426"
       gradientTransform="matrix(1 0 0 .66667 0 1.4111)"
       gradientUnits="userSpaceOnUse"
       xlink:href="#linearGradient6261" />
    <radialGradient
       id="radialGradient6773-5"
       cx="10.583"
       cy="4.2333"
       r="2.1166"
       gradientTransform="matrix(-.875 -1.6564e-7 1.6631e-7 -.87849 19.843 7.9521)"
       gradientUnits="userSpaceOnUse"
       xlink:href="#linearGradient6261" />
    <radialGradient
       id="radialGradient6775-9"
       cx="40"
       cy="12"
       r="8"
       gradientTransform="matrix(0 -1.3078 .87983 0 29.442 62.311)"
       gradientUnits="userSpaceOnUse"
       xlink:href="#linearGradient6261" />
    <linearGradient
       id="linearGradient7286"
       x1="10.583"
       x2="6.3499"
       y1="3.1749"
       y2="3.1749"
       gradientTransform="matrix(1 0 0 .66667 -14.816 9.3484)"
       gradientUnits="userSpaceOnUse"
       xlink:href="#linearGradient6261" />
    <linearGradient
       id="linearGradient7288"
       x1="10.583"
       x2="8.7237"
       y1="3.0426"
       y2="3.0426"
       gradientTransform="matrix(1 0 0 .66667 -14.816 9.3484)"
       gradientUnits="userSpaceOnUse"
       xlink:href="#linearGradient6261" />
    <radialGradient
       id="radialGradient6781-2"
       cx="40"
       cy="12"
       r="8"
       gradientTransform="matrix(1.4336 0 0 -.87849 -11.344 26.542)"
       gradientUnits="userSpaceOnUse"
       xlink:href="#linearGradient6261" />
    <linearGradient
       id="linearGradient7290"
       x1="40"
       x2="46"
       y1="17"
       y2="11"
       gradientTransform="matrix(.26458 0 0 .26458 -1.6667e-7 -.26458)"
       gradientUnits="userSpaceOnUse">
      <stop
         stop-color="#fefefe"
         offset="0"
         id="stop42" />
      <stop
         stop-color="#e9e9e9"
         offset="1"
         id="stop44" />
    </linearGradient>
    <clipPath
       clipPathUnits="userSpaceOnUse"
       id="clipPath254">
      <path
         id="path256"
         style="color:#000000;-inkscape-font-specification:'sans-serif Bold';display:none;stroke-width:0.115548;-inkscape-stroke:none"
         d="m 12.344126,10.890835 c -0.348739,0 -0.606327,0.06121 -0.772548,0.183448 -0.166221,0.120846 -0.249593,0.308551 -0.249593,0.562745 v 0.162261 h -0.435107 v 0.533808 h 0.435107 v 1.799855 h 0.875382 v -1.799855 h 0.747744 v -0.533808 h -0.747744 v -0.162261 c 0,-0.09446 0.02449,-0.160415 0.07338,-0.197916 0.04889,-0.03889 0.135044,-0.05839 0.258894,-0.05839 H 13.01384 V 10.890835 Z M 8.8999574,11.13681 v 0.662479 H 8.46485 v 0.533808 h 0.4351074 v 0.989584 c 0,0.294477 0.071563,0.503199 0.2149698,0.626823 0.145036,0.122236 0.3903789,0.183448 0.7358583,0.183448 h 0.7503275 v -0.53329 h -0.449577 c -0.149924,0 -0.2502322,-0.01882 -0.3007505,-0.05633 -0.050519,-0.03889 -0.075963,-0.112309 -0.075963,-0.220655 v -0.98958 H 10.677076 V 11.799289 H 9.7748225 V 11.13681 Z m -2.2173931,0.606153 c -0.4725894,0 -0.8422143,0.108348 -1.1094716,0.325039 -0.2656279,0.216689 -0.3984179,0.516811 -0.3984179,0.900186 0,0.383374 0.13279,0.683496 0.3984179,0.900186 0.2672573,0.21669 0.6368822,0.325039 1.1094716,0.325039 0.4709599,0 0.8387554,-0.108349 1.1027537,-0.325039 0.2656279,-0.21669 0.3984176,-0.516812 0.3984176,-0.900186 0,-0.383375 -0.1327897,-0.683497 -0.3984176,-0.900186 C 7.5213197,11.851311 7.1535242,11.742963 6.6825643,11.742963 Z m 0,0.533807 c 0.1906654,0 0.3366547,0.05934 0.437691,0.178797 0.1010364,0.118069 0.1514092,0.288985 0.1514092,0.512621 0,0.223635 -0.050373,0.39523 -0.1514092,0.514687 -0.1010363,0.118069 -0.2470256,0.177247 -0.437691,0.177247 -0.1939245,0 -0.3422595,-0.05918 -0.4449254,-0.177247 -0.1010366,-0.119457 -0.1514091,-0.291052 -0.1514091,-0.514687 0,-0.223636 0.050372,-0.394552 0.1514091,-0.512621 C 6.3403048,12.33611 6.4886398,12.27677 6.6825643,12.27677 Z" />
      <path
         id="lpe_path-effect258"
         style="color:#000000;-inkscape-font-specification:'sans-serif Bold';stroke-width:0.115548;-inkscape-stroke:none"
         class="powerclip"
         d="M -1.7916522,-3.7813297 H 18.718883 V 20.283949 H -1.7916522 Z M 12.344126,10.890835 c -0.348739,0 -0.606327,0.06121 -0.772548,0.183448 -0.166221,0.120846 -0.249593,0.308551 -0.249593,0.562745 v 0.162261 h -0.435107 v 0.533808 h 0.435107 v 1.799855 h 0.875382 v -1.799855 h 0.747744 v -0.533808 h -0.747744 v -0.162261 c 0,-0.09446 0.02449,-0.160415 0.07338,-0.197916 0.04889,-0.03889 0.135044,-0.05839 0.258894,-0.05839 H 13.01384 V 10.890835 Z M 8.8999574,11.13681 v 0.662479 H 8.46485 v 0.533808 h 0.4351074 v 0.989584 c 0,0.294477 0.071563,0.503199 0.2149698,0.626823 0.145036,0.122236 0.3903789,0.183448 0.7358583,0.183448 h 0.7503275 v -0.53329 h -0.449577 c -0.149924,0 -0.2502322,-0.01882 -0.3007505,-0.05633 -0.050519,-0.03889 -0.075963,-0.112309 -0.075963,-0.220655 v -0.98958 H 10.677076 V 11.799289 H 9.7748225 V 11.13681 Z m -2.2173931,0.606153 c -0.4725894,0 -0.8422143,0.108348 -1.1094716,0.325039 -0.2656279,0.216689 -0.3984179,0.516811 -0.3984179,0.900186 0,0.383374 0.13279,0.683496 0.3984179,0.900186 0.2672573,0.21669 0.6368822,0.325039 1.1094716,0.325039 0.4709599,0 0.8387554,-0.108349 1.1027537,-0.325039 0.2656279,-0.21669 0.3984176,-0.516812 0.3984176,-0.900186 0,-0.383375 -0.1327897,-0.683497 -0.3984176,-0.900186 C 7.5213197,11.851311 7.1535242,11.742963 6.6825643,11.742963 Z m 0,0.533807 c -0.1939245,0 -0.3422595,0.05934 -0.4449254,0.178797 -0.1010371,0.118069 -0.1514091,0.288985 -0.1514091,0.512621 0,0.223635 0.050372,0.39523 0.1514091,0.514687 0.1026659,0.118067 0.2510009,0.177247 0.4449254,0.177247 0.1906654,0 0.3366547,-0.05918 0.437691,-0.177247 0.1010362,-0.119457 0.1514092,-0.291052 0.1514092,-0.514687 0,-0.223636 -0.050373,-0.394552 -0.1514092,-0.512621 C 7.019219,12.33611 6.8732297,12.27677 6.6825643,12.27677 Z" />
    </clipPath>
  </defs>
  <g
     transform="matrix(3.7796 0 0 3.7796 -.021092 1.0245)"
     id="g121">
    <rect
       x="8.7209"
       y="-.54211"
       width="6.6358"
       height="6.6348"
       fill="none"
       id="rect97" />
    <path
       d="m 3.6653411,1.219379 c -0.2531703,0 -0.4569933,0.2091037 -0.4569933,0.4688332 V 14.815114 c 0,0.259739 0.203823,0.468835 0.4569933,0.468835 H 13.26189 c 0.25318,0 0.456993,-0.209104 0.456993,-0.468835 V 5.6725322 c 0,-0.2344167 -0.139155,-0.6115936 -0.456993,-0.9376488 l -2.970423,-3.04738 C 9.9857202,1.2905865 9.6059778,1.2186703 9.3774984,1.2186703 Z"
       fill="url(#linearGradient6761-7)"
       stroke-width="0.231438"
       id="path93-3"
       style="fill:#2c2c2c"
       clip-path="url(#clipPath254)"
       inkscape:path-effect="#path-effect258"
       inkscape:original-d="m 3.6653411,1.219379 c -0.2531703,0 -0.4569933,0.2091037 -0.4569933,0.4688332 V 14.815114 c 0,0.259739 0.203823,0.468835 0.4569933,0.468835 H 13.26189 c 0.25318,0 0.456993,-0.209104 0.456993,-0.468835 V 5.6725322 c 0,-0.2344167 -0.139155,-0.6115936 -0.456993,-0.9376488 l -2.970423,-3.04738 C 9.9857202,1.2905865 9.6059778,1.2186703 9.3774984,1.2186703 Z" />
    <g
       aria-label="otf"
       transform="matrix(1.083143,0,0,0.92323913,-0.34502633,0.00466042)"
       id="text134"
       style="font-weight:bold;font-size:4.62191px;font-family:sans-serif;-inkscape-font-specification:'sans-serif Bold';fill:#e6e6e6;stroke-width:0.115548" />
  </g>
</svg>
