<?xml version="1.0" encoding="UTF-8" standalone="no"?>
<svg
   width="64"
   height="64"
   version="1.1"
   id="svg125"
   sodipodi:docname="application-wps-office.doc.svg"
   inkscape:version="1.1 (1:1.1+202105261517+ce6663b3b7)"
   xmlns:inkscape="http://www.inkscape.org/namespaces/inkscape"
   xmlns:sodipodi="http://sodipodi.sourceforge.net/DTD/sodipodi-0.dtd"
   xmlns:xlink="http://www.w3.org/1999/xlink"
   xmlns="http://www.w3.org/2000/svg"
   xmlns:svg="http://www.w3.org/2000/svg"
   xmlns:rdf="http://www.w3.org/1999/02/22-rdf-syntax-ns#"
   xmlns:cc="http://creativecommons.org/ns#"
   xmlns:dc="http://purl.org/dc/elements/1.1/">
  <metadata
     id="metadata129">
    <rdf:RDF>
      <cc:Work
         rdf:about="">
        <dc:format>image/svg+xml</dc:format>
        <dc:type
           rdf:resource="http://purl.org/dc/dcmitype/StillImage" />
        <dc:title />
      </cc:Work>
    </rdf:RDF>
  </metadata>
  <sodipodi:namedview
     pagecolor="#ffffff"
     bordercolor="#666666"
     borderopacity="1"
     objecttolerance="10"
     gridtolerance="10"
     guidetolerance="10"
     inkscape:pageopacity="0"
     inkscape:pageshadow="2"
     inkscape:window-width="1920"
     inkscape:window-height="996"
     id="namedview127"
     showgrid="false"
     inkscape:zoom="12.578125"
     inkscape:cx="63.801242"
     inkscape:cy="42.653416"
     inkscape:window-x="0"
     inkscape:window-y="0"
     inkscape:window-maximized="1"
     inkscape:current-layer="g121"
     inkscape:document-rotation="0"
     inkscape:pagecheckerboard="0" />
  <defs
     id="defs47">
    <inkscape:path-effect
       effect="powerclip"
       id="path-effect157"
       is_visible="true"
       lpeversion="1"
       inverse="true"
       flatten="false"
       hide_clip="false"
       message="Use fill-rule evenodd on &lt;b&gt;fill and stroke&lt;/b&gt; dialog if no flatten result after convert clip to paths." />
    <linearGradient
       id="linearGradient6721-3"
       x1="7.9373"
       x2="7.9373"
       y1="15.346"
       y2="16.933"
       gradientUnits="userSpaceOnUse"
       xlink:href="#linearGradient6261" />
    <linearGradient
       id="linearGradient6261">
      <stop
         offset="0"
         id="stop3" />
      <stop
         stop-opacity="0"
         offset="1"
         id="stop5" />
    </linearGradient>
    <radialGradient
       id="radialGradient6723-5"
       cx="35"
       cy="4"
       r="3.7275"
       gradientTransform="matrix(1.696 0 0 1.0731 -24.361 -.29238)"
       gradientUnits="userSpaceOnUse"
       xlink:href="#linearGradient6261" />
    <linearGradient
       id="linearGradient6725-3"
       x1="43"
       x2="46.748"
       y1="12"
       y2="8.2517"
       gradientUnits="userSpaceOnUse"
       xlink:href="#linearGradient6261" />
    <radialGradient
       id="radialGradient6727-5"
       cx="52"
       cy="22"
       r="5.2061"
       gradientTransform="matrix(.96042 0 0 1.3331 2.0581 -7.3283)"
       gradientUnits="userSpaceOnUse"
       xlink:href="#linearGradient6261" />
    <linearGradient
       id="linearGradient6729-6"
       x1="5.8207"
       x2="5.8207"
       y1="1.0583"
       gradientUnits="userSpaceOnUse"
       xlink:href="#linearGradient6261" />
    <radialGradient
       id="radialGradient6731-2"
       cx="3.1749"
       cy="1.3229"
       r=".79373"
       gradientTransform="matrix(-2.1078e-8 -1.3333 1.6667 -2.6348e-8 .97012 5.2916)"
       gradientUnits="userSpaceOnUse"
       xlink:href="#linearGradient6261" />
    <linearGradient
       id="linearGradient6733-9"
       x1="13.758"
       x2="15.081"
       y1="10.583"
       y2="10.583"
       gradientUnits="userSpaceOnUse"
       xlink:href="#linearGradient6261" />
    <linearGradient
       id="linearGradient6735-1"
       x1="3.1749"
       x2="1.852"
       y1="8.4665"
       y2="8.4665"
       gradientUnits="userSpaceOnUse"
       xlink:href="#linearGradient6261" />
    <radialGradient
       id="radialGradient6737-2"
       cx="13.758"
       cy="15.346"
       r=".79373"
       gradientTransform="matrix(5.1718e-7 2 -1.6667 4.3098e-7 39.334 -12.171)"
       gradientUnits="userSpaceOnUse"
       xlink:href="#linearGradient6261" />
    <radialGradient
       id="radialGradient6739-7"
       cx="3.1749"
       cy="15.346"
       r=".79373"
       gradientTransform="matrix(-1.6667 -1.37e-6 1.644e-6 -2 8.4665 46.037)"
       gradientUnits="userSpaceOnUse"
       xlink:href="#linearGradient6261" />
    <linearGradient
       id="linearGradient6741-0"
       x1="7.9373"
       x2="7.9373"
       y1="15.346"
       y2="16.668"
       gradientUnits="userSpaceOnUse"
       xlink:href="#linearGradient6261" />
    <radialGradient
       id="radialGradient6743-9"
       cx="35"
       cy="4"
       r="3.7275"
       gradientTransform="matrix(1.6115 -1.9122e-7 9.5496e-8 .80482 -21.403 .78072)"
       gradientUnits="userSpaceOnUse"
       xlink:href="#linearGradient6261" />
    <linearGradient
       id="linearGradient6745-3"
       x1="43"
       x2="46.004"
       y1="12"
       y2="8.9965"
       gradientUnits="userSpaceOnUse"
       xlink:href="#linearGradient6261" />
    <radialGradient
       id="radialGradient6747-6"
       cx="52"
       cy="22"
       r="5.2061"
       gradientTransform="matrix(.76834 -9.6042e-8 1.534e-7 1.2272 12.047 -4.9986)"
       gradientUnits="userSpaceOnUse"
       xlink:href="#linearGradient6261" />
    <linearGradient
       id="linearGradient6749-0"
       x1="5.8207"
       x2="5.8207"
       y1="1.0583"
       y2=".26458"
       gradientUnits="userSpaceOnUse"
       xlink:href="#linearGradient6261" />
    <radialGradient
       id="radialGradient6751-6"
       cx="3.1749"
       cy="1.3229"
       r=".79373"
       gradientTransform="matrix(-7.442e-8 -1 1.3333 -9.9226e-8 1.4111 4.2333)"
       gradientUnits="userSpaceOnUse"
       xlink:href="#linearGradient6261" />
    <linearGradient
       id="linearGradient6753-2"
       x1="13.758"
       x2="14.816"
       y1="10.583"
       y2="10.583"
       gradientUnits="userSpaceOnUse"
       xlink:href="#linearGradient6261" />
    <linearGradient
       id="linearGradient6755-6"
       x1="3.1749"
       x2="2.1166"
       y1="8.4665"
       y2="8.4665"
       gradientUnits="userSpaceOnUse"
       xlink:href="#linearGradient6261" />
    <radialGradient
       id="radialGradient6757-1"
       cx="13.758"
       cy="15.346"
       r=".79373"
       gradientTransform="matrix(0 1.6667 -1.3333 0 34.219 -7.5846)"
       gradientUnits="userSpaceOnUse"
       xlink:href="#linearGradient6261" />
    <radialGradient
       id="radialGradient6759-8"
       cx="3.1749"
       cy="15.346"
       r=".79373"
       gradientTransform="matrix(-1.3333 0 0 -1.6667 7.4082 40.921)"
       gradientUnits="userSpaceOnUse"
       xlink:href="#linearGradient6261" />
    <linearGradient
       id="linearGradient6761-7"
       x1="21.039"
       x2="21.039"
       y1="2"
       y2="62"
       gradientTransform="matrix(.26458 0 0 .26458 0 -.26458)"
       gradientUnits="userSpaceOnUse">
      <stop
         stop-color="#ff5b59"
         offset="0"
         id="stop27" />
      <stop
         stop-color="#ff983d"
         offset="1"
         id="stop29" />
    </linearGradient>
    <radialGradient
       id="radialGradient6763-2"
       cx="40"
       cy="12"
       r="8"
       gradientTransform="matrix(1.5 0 0 -2 -14 40)"
       gradientUnits="userSpaceOnUse"
       xlink:href="#linearGradient6261" />
    <radialGradient
       id="radialGradient6765-3"
       cx="10.583"
       cy="4.2333"
       r="2.1166"
       gradientTransform="matrix(-2 3.1236e-7 -3.1236e-7 -2 31.749 12.7)"
       gradientUnits="userSpaceOnUse"
       xlink:href="#linearGradient6261" />
    <radialGradient
       id="radialGradient6767-7"
       cx="40"
       cy="12"
       r="8"
       gradientTransform="matrix(0 -1.5 2 0 16 70)"
       gradientUnits="userSpaceOnUse"
       xlink:href="#linearGradient6261" />
    <linearGradient
       id="linearGradient7282"
       x1="10.583"
       x2="6.3499"
       y1="3.1749"
       y2="3.1749"
       gradientTransform="matrix(1 0 0 .66667 0 1.4111)"
       gradientUnits="userSpaceOnUse"
       xlink:href="#linearGradient6261" />
    <linearGradient
       id="linearGradient7284"
       x1="10.583"
       x2="8.7311"
       y1="3.0426"
       y2="3.0426"
       gradientTransform="matrix(1 0 0 .66667 0 1.4111)"
       gradientUnits="userSpaceOnUse"
       xlink:href="#linearGradient6261" />
    <radialGradient
       id="radialGradient6773-5"
       cx="10.583"
       cy="4.2333"
       r="2.1166"
       gradientTransform="matrix(-.875 -1.6564e-7 1.6631e-7 -.87849 19.843 7.9521)"
       gradientUnits="userSpaceOnUse"
       xlink:href="#linearGradient6261" />
    <radialGradient
       id="radialGradient6775-9"
       cx="40"
       cy="12"
       r="8"
       gradientTransform="matrix(0 -1.3078 .87983 0 29.442 62.311)"
       gradientUnits="userSpaceOnUse"
       xlink:href="#linearGradient6261" />
    <linearGradient
       id="linearGradient7286"
       x1="10.583"
       x2="6.3499"
       y1="3.1749"
       y2="3.1749"
       gradientTransform="matrix(1 0 0 .66667 -14.816 9.3484)"
       gradientUnits="userSpaceOnUse"
       xlink:href="#linearGradient6261" />
    <linearGradient
       id="linearGradient7288"
       x1="10.583"
       x2="8.7237"
       y1="3.0426"
       y2="3.0426"
       gradientTransform="matrix(1 0 0 .66667 -14.816 9.3484)"
       gradientUnits="userSpaceOnUse"
       xlink:href="#linearGradient6261" />
    <radialGradient
       id="radialGradient6781-2"
       cx="40"
       cy="12"
       r="8"
       gradientTransform="matrix(1.4336 0 0 -.87849 -11.344 26.542)"
       gradientUnits="userSpaceOnUse"
       xlink:href="#linearGradient6261" />
    <linearGradient
       id="linearGradient7290"
       x1="40"
       x2="46"
       y1="17"
       y2="11"
       gradientTransform="matrix(.26458 0 0 .26458 -1.6667e-7 -.26458)"
       gradientUnits="userSpaceOnUse">
      <stop
         stop-color="#fefefe"
         offset="0"
         id="stop42" />
      <stop
         stop-color="#e9e9e9"
         offset="1"
         id="stop44" />
    </linearGradient>
    <clipPath
       clipPathUnits="userSpaceOnUse"
       id="clipPath153">
      <path
         id="path155"
         style="display:none;fill:#e6e6e6;stroke-width:0.0359025"
         d="M 9.0022748,4.9342068 5.1354016,6.2994719 V 10.05421 L 6.4241872,9.542106 V 6.8115756 L 9.0022748,6.128943 v 4.43737 l -3.8668732,-0.512103 3.8668732,1.28 2.2556332,-0.512103 -0.01033,-5.198033 z M 8.5733686,12.572871 c -0.4434892,0 -0.7921478,0.07431 -1.0453939,0.222721 -0.2520108,0.148413 -0.3777477,0.353414 -0.3777477,0.614938 0,0.260803 0.1257369,0.46549 0.3777477,0.613904 0.2532461,0.148413 0.6019047,0.222721 1.0453939,0.222721 0.4447251,0 0.7928667,-0.07431 1.0448775,-0.222721 0.2520108,-0.148414 0.3782644,-0.353101 0.3782644,-0.613904 0,-0.261524 -0.1262536,-0.466525 -0.3782644,-0.614938 C 9.3662353,12.647179 9.0180937,12.572871 8.5733686,12.572871 Z m 3.3020604,0 c -0.460784,0 -0.825696,0.07576 -1.095002,0.226338 -0.269306,0.149854 -0.404102,0.353399 -0.404102,0.611321 0,0.257201 0.134796,0.461263 0.404102,0.611837 0.269306,0.149854 0.634218,0.224788 1.095002,0.224788 0.154419,0 0.302344,-0.01032 0.444409,-0.03049 0.142065,-0.02017 0.27884,-0.04977 0.409787,-0.0894 v -0.33434 c -0.132182,0.0526 -0.262707,0.09126 -0.391184,0.115753 -0.128476,0.02449 -0.263587,0.03669 -0.405652,0.03669 -0.254481,0 -0.454697,-0.04753 -0.600468,-0.142624 -0.145771,-0.0951 -0.218588,-0.225792 -0.218588,-0.392216 0,-0.167145 0.07282,-0.298151 0.218588,-0.393251 0.145771,-0.0951 0.345987,-0.142624 0.600468,-0.142624 0.142065,0 0.277176,0.0122 0.405652,0.03669 0.128477,0.02449 0.259002,0.06316 0.391184,0.115753 v -0.333824 c -0.130947,-0.03963 -0.267722,-0.06974 -0.409787,-0.08992 -0.142065,-0.02017 -0.28999,-0.03049 -0.444409,-0.03049 z m -7.7161764,0.02946 v 1.613307 H 4.911647 c 0.4150765,0 0.7262369,-0.0171 0.9337753,-0.05168 0.2075381,-0.0353 0.3855656,-0.09471 0.5338072,-0.178281 0.1297117,-0.07277 0.2258631,-0.157077 0.2888658,-0.252176 0.063002,-0.09582 0.094566,-0.204316 0.094566,-0.326072 3e-7,-0.120315 -0.031563,-0.227872 -0.094566,-0.322971 -0.063003,-0.0951 -0.1591544,-0.179411 -0.2888658,-0.252177 -0.1470062,-0.08357 -0.3238871,-0.142667 -0.5301899,-0.177246 -0.2050678,-0.0353 -0.5173749,-0.05271 -0.9373926,-0.05271 z m 4.414116,0.272329 c 0.2186565,0 0.3876244,0.0469 0.5074529,0.140557 0.1198286,0.09366 0.1798307,0.225291 0.1798307,0.395318 0,0.169305 -0.060002,0.300624 -0.1798307,0.394283 -0.1198285,0.09366 -0.2887964,0.140557 -0.5074529,0.140557 -0.2174209,0 -0.3860736,-0.0469 -0.5059025,-0.140557 -0.1198285,-0.09366 -0.1798304,-0.224978 -0.1798304,-0.394283 0,-0.170027 0.060002,-0.301659 0.1798304,-0.395318 0.1198289,-0.09366 0.2884816,-0.140557 0.5059025,-0.140557 z m -3.7004783,0.04186 h 0.2557934 c 0.2927773,0 0.5154974,0.042 0.6686803,0.125572 0.1531829,0.08357 0.2299558,0.205405 0.2299558,0.365345 0,0.160661 -0.077604,0.28312 -0.2320229,0.367413 -0.1531829,0.08429 -0.3750712,0.126604 -0.6666132,0.126604 H 4.8728903 Z" />
      <path
         id="lpe_path-effect157"
         style="fill:#e6e6e6;stroke-width:0.0359025"
         class="powerclip"
         d="M -1.7916522,-3.7813297 H 18.718883 V 20.283949 H -1.7916522 Z M 9.0022748,4.9342068 5.1354016,6.2994719 V 10.05421 L 6.4241872,9.542106 V 6.8115756 L 9.0022748,6.128943 v 4.43737 l -3.8668732,-0.512103 3.8668732,1.28 2.2556332,-0.512103 -0.01033,-5.198033 z M 8.5733686,12.572871 c -0.4434892,0 -0.7921478,0.07431 -1.0453939,0.222721 -0.2520108,0.148413 -0.3777477,0.353414 -0.3777477,0.614938 0,0.260803 0.1257369,0.46549 0.3777477,0.613904 0.2532461,0.148413 0.6019047,0.222721 1.0453939,0.222721 0.4447251,0 0.7928667,-0.07431 1.0448775,-0.222721 0.2520108,-0.148414 0.3782644,-0.353101 0.3782644,-0.613904 0,-0.261524 -0.1262536,-0.466525 -0.3782644,-0.614938 C 9.3662353,12.647179 9.0180937,12.572871 8.5733686,12.572871 Z m 3.3020604,0 c -0.460784,0 -0.825696,0.07576 -1.095002,0.226338 -0.269306,0.149854 -0.404102,0.353399 -0.404102,0.611321 0,0.257201 0.134796,0.461263 0.404102,0.611837 0.269306,0.149854 0.634218,0.224788 1.095002,0.224788 0.154419,0 0.302344,-0.01032 0.444409,-0.03049 0.142065,-0.02017 0.27884,-0.04977 0.409787,-0.0894 v -0.33434 c -0.132182,0.0526 -0.262707,0.09126 -0.391184,0.115753 -0.128476,0.02449 -0.263587,0.03669 -0.405652,0.03669 -0.254481,0 -0.454697,-0.04753 -0.600468,-0.142624 -0.145771,-0.0951 -0.218588,-0.225792 -0.218588,-0.392216 0,-0.167145 0.07282,-0.298151 0.218588,-0.393251 0.145771,-0.0951 0.345987,-0.142624 0.600468,-0.142624 0.142065,0 0.277176,0.0122 0.405652,0.03669 0.128477,0.02449 0.259002,0.06316 0.391184,0.115753 v -0.333824 c -0.130947,-0.03963 -0.267722,-0.06974 -0.409787,-0.08992 -0.142065,-0.02017 -0.28999,-0.03049 -0.444409,-0.03049 z m -7.7161764,0.02946 v 1.613307 H 4.911647 c 0.4150765,0 0.7262369,-0.0171 0.9337753,-0.05168 0.2075381,-0.0353 0.3855656,-0.09471 0.5338072,-0.178281 0.1297117,-0.07277 0.2258631,-0.157077 0.2888658,-0.252176 0.063002,-0.09582 0.094566,-0.204316 0.094566,-0.326072 3e-7,-0.120315 -0.031563,-0.227872 -0.094566,-0.322971 -0.063003,-0.0951 -0.1591544,-0.179411 -0.2888658,-0.252177 -0.1470062,-0.08357 -0.3238871,-0.142667 -0.5301899,-0.177246 -0.2050678,-0.0353 -0.5173749,-0.05271 -0.9373926,-0.05271 z m 4.414116,0.272329 c -0.2174209,0 -0.3860736,0.0469 -0.5059025,0.140557 -0.1198284,0.09366 -0.1798304,0.225291 -0.1798304,0.395318 0,0.169305 0.060002,0.300623 0.1798304,0.394283 0.1198289,0.09366 0.2884816,0.140557 0.5059025,0.140557 0.2186565,0 0.3876244,-0.0469 0.5074529,-0.140557 0.1198287,-0.09366 0.1798307,-0.224978 0.1798307,-0.394283 0,-0.170027 -0.060002,-0.301658 -0.1798307,-0.395318 C 8.960993,12.92156 8.7920251,12.87466 8.5733686,12.87466 Z m -3.7004783,0.04186 v 0.984934 h 0.2557934 c 0.291542,0 0.5134303,-0.04231 0.6666132,-0.126604 0.1544189,-0.08429 0.2320229,-0.206752 0.2320229,-0.367413 0,-0.15994 -0.076773,-0.281775 -0.2299558,-0.365345 C 5.6441811,12.95852 5.421461,12.91652 5.1286837,12.91652 Z" />
    </clipPath>
  </defs>
  <g
     transform="matrix(3.7796 0 0 3.7796 -.021092 1.0245)"
     id="g121">
    <rect
       x="8.7209"
       y="-.54211"
       width="6.6358"
       height="6.6348"
       fill="none"
       id="rect97" />
    <path
       d="m 3.6653411,1.219379 c -0.2531703,0 -0.4569933,0.2091037 -0.4569933,0.4688332 V 14.815114 c 0,0.259739 0.203823,0.468835 0.4569933,0.468835 H 13.26189 c 0.25318,0 0.456993,-0.209104 0.456993,-0.468835 V 5.6725322 c 0,-0.2344167 -0.139155,-0.6115936 -0.456993,-0.9376488 l -2.970423,-3.04738 C 9.9857202,1.2905865 9.6059778,1.2186703 9.3774984,1.2186703 Z"
       fill="url(#linearGradient6761-7)"
       stroke-width="0.231438"
       id="path93-3"
       style="fill:#2c2c2c"
       clip-path="url(#clipPath153)"
       inkscape:path-effect="#path-effect157"
       inkscape:original-d="m 3.6653411,1.219379 c -0.2531703,0 -0.4569933,0.2091037 -0.4569933,0.4688332 V 14.815114 c 0,0.259739 0.203823,0.468835 0.4569933,0.468835 H 13.26189 c 0.25318,0 0.456993,-0.209104 0.456993,-0.468835 V 5.6725322 c 0,-0.2344167 -0.139155,-0.6115936 -0.456993,-0.9376488 l -2.970423,-3.04738 C 9.9857202,1.2905865 9.6059778,1.2186703 9.3774984,1.2186703 Z" />
    <g
       aria-label="DOC"
       transform="matrix(1.3094601,0,0,0.76367352,-0.31627296,0.00283477)"
       id="text80"
       style="font-weight:bold;font-size:2.89813px;line-height:1.25;font-family:sans-serif;-inkscape-font-specification:'sans-serif Bold';fill:#e6e6e6;stroke-width:0.0724533" />
  </g>
</svg>
