<?xml version="1.0" encoding="UTF-8" standalone="no"?>
<svg
   width="64"
   height="64"
   version="1.1"
   id="svg125"
   sodipodi:docname="audio-x-mp2.svg"
   inkscape:version="1.1 (1:1.1+rc+202105240936+c4e8f9ed74)"
   xmlns:inkscape="http://www.inkscape.org/namespaces/inkscape"
   xmlns:sodipodi="http://sodipodi.sourceforge.net/DTD/sodipodi-0.dtd"
   xmlns:xlink="http://www.w3.org/1999/xlink"
   xmlns="http://www.w3.org/2000/svg"
   xmlns:svg="http://www.w3.org/2000/svg"
   xmlns:rdf="http://www.w3.org/1999/02/22-rdf-syntax-ns#"
   xmlns:cc="http://creativecommons.org/ns#"
   xmlns:dc="http://purl.org/dc/elements/1.1/">
  <metadata
     id="metadata129">
    <rdf:RDF>
      <cc:Work
         rdf:about="">
        <dc:format>image/svg+xml</dc:format>
        <dc:type
           rdf:resource="http://purl.org/dc/dcmitype/StillImage" />
        <dc:title />
      </cc:Work>
    </rdf:RDF>
  </metadata>
  <sodipodi:namedview
     pagecolor="#ffffff"
     bordercolor="#666666"
     borderopacity="1"
     objecttolerance="10"
     gridtolerance="10"
     guidetolerance="10"
     inkscape:pageopacity="0"
     inkscape:pageshadow="2"
     inkscape:window-width="1541"
     inkscape:window-height="738"
     id="namedview127"
     showgrid="false"
     inkscape:zoom="12.578125"
     inkscape:cx="13.277019"
     inkscape:cy="47.10559"
     inkscape:window-x="207"
     inkscape:window-y="258"
     inkscape:window-maximized="0"
     inkscape:current-layer="g121"
     inkscape:document-rotation="0"
     inkscape:pagecheckerboard="0" />
  <defs
     id="defs47">
    <inkscape:path-effect
       effect="powerclip"
       id="path-effect157"
       is_visible="true"
       lpeversion="1"
       inverse="true"
       flatten="false"
       hide_clip="false"
       message="Use fill-rule evenodd on &lt;b&gt;fill and stroke&lt;/b&gt; dialog if no flatten result after convert clip to paths." />
    <linearGradient
       id="linearGradient6721-3"
       x1="7.9373"
       x2="7.9373"
       y1="15.346"
       y2="16.933"
       gradientUnits="userSpaceOnUse"
       xlink:href="#linearGradient6261" />
    <linearGradient
       id="linearGradient6261">
      <stop
         offset="0"
         id="stop3" />
      <stop
         stop-opacity="0"
         offset="1"
         id="stop5" />
    </linearGradient>
    <radialGradient
       id="radialGradient6723-5"
       cx="35"
       cy="4"
       r="3.7275"
       gradientTransform="matrix(1.696 0 0 1.0731 -24.361 -.29238)"
       gradientUnits="userSpaceOnUse"
       xlink:href="#linearGradient6261" />
    <linearGradient
       id="linearGradient6725-3"
       x1="43"
       x2="46.748"
       y1="12"
       y2="8.2517"
       gradientUnits="userSpaceOnUse"
       xlink:href="#linearGradient6261" />
    <radialGradient
       id="radialGradient6727-5"
       cx="52"
       cy="22"
       r="5.2061"
       gradientTransform="matrix(.96042 0 0 1.3331 2.0581 -7.3283)"
       gradientUnits="userSpaceOnUse"
       xlink:href="#linearGradient6261" />
    <linearGradient
       id="linearGradient6729-6"
       x1="5.8207"
       x2="5.8207"
       y1="1.0583"
       gradientUnits="userSpaceOnUse"
       xlink:href="#linearGradient6261" />
    <radialGradient
       id="radialGradient6731-2"
       cx="3.1749"
       cy="1.3229"
       r=".79373"
       gradientTransform="matrix(-2.1078e-8 -1.3333 1.6667 -2.6348e-8 .97012 5.2916)"
       gradientUnits="userSpaceOnUse"
       xlink:href="#linearGradient6261" />
    <linearGradient
       id="linearGradient6733-9"
       x1="13.758"
       x2="15.081"
       y1="10.583"
       y2="10.583"
       gradientUnits="userSpaceOnUse"
       xlink:href="#linearGradient6261" />
    <linearGradient
       id="linearGradient6735-1"
       x1="3.1749"
       x2="1.852"
       y1="8.4665"
       y2="8.4665"
       gradientUnits="userSpaceOnUse"
       xlink:href="#linearGradient6261" />
    <radialGradient
       id="radialGradient6737-2"
       cx="13.758"
       cy="15.346"
       r=".79373"
       gradientTransform="matrix(5.1718e-7 2 -1.6667 4.3098e-7 39.334 -12.171)"
       gradientUnits="userSpaceOnUse"
       xlink:href="#linearGradient6261" />
    <radialGradient
       id="radialGradient6739-7"
       cx="3.1749"
       cy="15.346"
       r=".79373"
       gradientTransform="matrix(-1.6667 -1.37e-6 1.644e-6 -2 8.4665 46.037)"
       gradientUnits="userSpaceOnUse"
       xlink:href="#linearGradient6261" />
    <linearGradient
       id="linearGradient6741-0"
       x1="7.9373"
       x2="7.9373"
       y1="15.346"
       y2="16.668"
       gradientUnits="userSpaceOnUse"
       xlink:href="#linearGradient6261" />
    <radialGradient
       id="radialGradient6743-9"
       cx="35"
       cy="4"
       r="3.7275"
       gradientTransform="matrix(1.6115 -1.9122e-7 9.5496e-8 .80482 -21.403 .78072)"
       gradientUnits="userSpaceOnUse"
       xlink:href="#linearGradient6261" />
    <linearGradient
       id="linearGradient6745-3"
       x1="43"
       x2="46.004"
       y1="12"
       y2="8.9965"
       gradientUnits="userSpaceOnUse"
       xlink:href="#linearGradient6261" />
    <radialGradient
       id="radialGradient6747-6"
       cx="52"
       cy="22"
       r="5.2061"
       gradientTransform="matrix(.76834 -9.6042e-8 1.534e-7 1.2272 12.047 -4.9986)"
       gradientUnits="userSpaceOnUse"
       xlink:href="#linearGradient6261" />
    <linearGradient
       id="linearGradient6749-0"
       x1="5.8207"
       x2="5.8207"
       y1="1.0583"
       y2=".26458"
       gradientUnits="userSpaceOnUse"
       xlink:href="#linearGradient6261" />
    <radialGradient
       id="radialGradient6751-6"
       cx="3.1749"
       cy="1.3229"
       r=".79373"
       gradientTransform="matrix(-7.442e-8 -1 1.3333 -9.9226e-8 1.4111 4.2333)"
       gradientUnits="userSpaceOnUse"
       xlink:href="#linearGradient6261" />
    <linearGradient
       id="linearGradient6753-2"
       x1="13.758"
       x2="14.816"
       y1="10.583"
       y2="10.583"
       gradientUnits="userSpaceOnUse"
       xlink:href="#linearGradient6261" />
    <linearGradient
       id="linearGradient6755-6"
       x1="3.1749"
       x2="2.1166"
       y1="8.4665"
       y2="8.4665"
       gradientUnits="userSpaceOnUse"
       xlink:href="#linearGradient6261" />
    <radialGradient
       id="radialGradient6757-1"
       cx="13.758"
       cy="15.346"
       r=".79373"
       gradientTransform="matrix(0 1.6667 -1.3333 0 34.219 -7.5846)"
       gradientUnits="userSpaceOnUse"
       xlink:href="#linearGradient6261" />
    <radialGradient
       id="radialGradient6759-8"
       cx="3.1749"
       cy="15.346"
       r=".79373"
       gradientTransform="matrix(-1.3333 0 0 -1.6667 7.4082 40.921)"
       gradientUnits="userSpaceOnUse"
       xlink:href="#linearGradient6261" />
    <linearGradient
       id="linearGradient6761-7"
       x1="21.039"
       x2="21.039"
       y1="2"
       y2="62"
       gradientTransform="matrix(.26458 0 0 .26458 0 -.26458)"
       gradientUnits="userSpaceOnUse">
      <stop
         stop-color="#ff5b59"
         offset="0"
         id="stop27" />
      <stop
         stop-color="#ff983d"
         offset="1"
         id="stop29" />
    </linearGradient>
    <radialGradient
       id="radialGradient6763-2"
       cx="40"
       cy="12"
       r="8"
       gradientTransform="matrix(1.5 0 0 -2 -14 40)"
       gradientUnits="userSpaceOnUse"
       xlink:href="#linearGradient6261" />
    <radialGradient
       id="radialGradient6765-3"
       cx="10.583"
       cy="4.2333"
       r="2.1166"
       gradientTransform="matrix(-2 3.1236e-7 -3.1236e-7 -2 31.749 12.7)"
       gradientUnits="userSpaceOnUse"
       xlink:href="#linearGradient6261" />
    <radialGradient
       id="radialGradient6767-7"
       cx="40"
       cy="12"
       r="8"
       gradientTransform="matrix(0 -1.5 2 0 16 70)"
       gradientUnits="userSpaceOnUse"
       xlink:href="#linearGradient6261" />
    <linearGradient
       id="linearGradient7282"
       x1="10.583"
       x2="6.3499"
       y1="3.1749"
       y2="3.1749"
       gradientTransform="matrix(1 0 0 .66667 0 1.4111)"
       gradientUnits="userSpaceOnUse"
       xlink:href="#linearGradient6261" />
    <linearGradient
       id="linearGradient7284"
       x1="10.583"
       x2="8.7311"
       y1="3.0426"
       y2="3.0426"
       gradientTransform="matrix(1 0 0 .66667 0 1.4111)"
       gradientUnits="userSpaceOnUse"
       xlink:href="#linearGradient6261" />
    <radialGradient
       id="radialGradient6773-5"
       cx="10.583"
       cy="4.2333"
       r="2.1166"
       gradientTransform="matrix(-.875 -1.6564e-7 1.6631e-7 -.87849 19.843 7.9521)"
       gradientUnits="userSpaceOnUse"
       xlink:href="#linearGradient6261" />
    <radialGradient
       id="radialGradient6775-9"
       cx="40"
       cy="12"
       r="8"
       gradientTransform="matrix(0 -1.3078 .87983 0 29.442 62.311)"
       gradientUnits="userSpaceOnUse"
       xlink:href="#linearGradient6261" />
    <linearGradient
       id="linearGradient7286"
       x1="10.583"
       x2="6.3499"
       y1="3.1749"
       y2="3.1749"
       gradientTransform="matrix(1 0 0 .66667 -14.816 9.3484)"
       gradientUnits="userSpaceOnUse"
       xlink:href="#linearGradient6261" />
    <linearGradient
       id="linearGradient7288"
       x1="10.583"
       x2="8.7237"
       y1="3.0426"
       y2="3.0426"
       gradientTransform="matrix(1 0 0 .66667 -14.816 9.3484)"
       gradientUnits="userSpaceOnUse"
       xlink:href="#linearGradient6261" />
    <radialGradient
       id="radialGradient6781-2"
       cx="40"
       cy="12"
       r="8"
       gradientTransform="matrix(1.4336 0 0 -.87849 -11.344 26.542)"
       gradientUnits="userSpaceOnUse"
       xlink:href="#linearGradient6261" />
    <linearGradient
       id="linearGradient7290"
       x1="40"
       x2="46"
       y1="17"
       y2="11"
       gradientTransform="matrix(.26458 0 0 .26458 -1.6667e-7 -.26458)"
       gradientUnits="userSpaceOnUse">
      <stop
         stop-color="#fefefe"
         offset="0"
         id="stop42" />
      <stop
         stop-color="#e9e9e9"
         offset="1"
         id="stop44" />
    </linearGradient>
    <clipPath
       clipPathUnits="userSpaceOnUse"
       id="clipPath153">
      <path
         id="path155"
         style="display:none;fill:#e6e6e6;stroke-width:0.243004"
         d="M 6.9021849,5.0928506 V 8.311197 A 1.3228913,1.1159486 0 0 0 6.3730284,8.2176643 1.3228913,1.1159486 0 0 0 5.0501371,9.3333371 1.3228913,1.1159486 0 0 0 6.3730284,10.449527 1.3228913,1.1159486 0 0 0 7.6948862,9.3540073 l 0.00103,-0.00206 V 6.4317642 H 10.606279 V 8.311197 A 1.3228913,1.1159486 0 0 0 10.077122,8.2176643 1.3228913,1.1159486 0 0 0 8.7542311,9.3333371 1.3228913,1.1159486 0 0 0 10.077122,10.449527 1.3228913,1.1159486 0 0 0 11.396913,9.3891467 l 0.0031,-0.00517 V 5.0928508 Z m 4.4022311,6.6015374 c -0.12691,0 -0.256489,0.0094 -0.3886,0.02791 -0.13211,0.01773 -0.265769,0.04389 -0.401001,0.07855 v 0.396867 c 0.12691,-0.06125 0.245771,-0.107346 0.357077,-0.137973 0.111306,-0.03143 0.213847,-0.04703 0.307469,-0.04703 0.121709,0 0.219149,0.02593 0.291967,0.07751 0.07386,0.05158 0.110585,0.119489 0.110585,0.204118 0,0.05481 -0.01785,0.10735 -0.05426,0.158127 -0.03641,0.05078 -0.09252,0.102865 -0.168462,0.15606 l -0.850578,0.581865 v 0.342092 H 12.2015 v -0.342092 h -1.02524 l 0.498151,-0.338991 c 0.210129,-0.14266 0.347868,-0.255912 0.413404,-0.340541 0.06554,-0.08543 0.09818,-0.177616 0.09818,-0.275947 0,-0.170063 -0.07754,-0.302278 -0.23254,-0.397384 -0.153956,-0.09511 -0.370258,-0.143141 -0.649043,-0.143141 z m -6.2775327,0.03307 v 1.805024 h 0.5694631 v -1.320308 l 0.5369079,0.973049 h 0.380848 l 0.5369079,-0.973049 v 1.320308 H 7.6189234 V 11.72746 H 6.8556771 l -0.5338073,0.965814 -0.53019,-0.965814 z m 3.1801066,0 v 1.805024 h 0.6009853 v -0.626307 h 0.3963507 c 0.2964692,0 0.5234821,-0.05089 0.6815991,-0.152442 0.159157,-0.102361 0.238741,-0.248284 0.238741,-0.437691 0,-0.188601 -0.07958,-0.333553 -0.238741,-0.435107 C 9.727808,11.778576 9.5007951,11.72746 9.2043259,11.72746 Z m 0.6009853,0.336924 h 0.3322732 c 0.1165071,0 0.2062909,0.02211 0.2697458,0.06563 0.063455,0.04352 0.095083,0.105433 0.095083,0.186032 0,0.0806 -0.031628,0.143252 -0.095083,0.187582 -0.063455,0.04352 -0.1532387,0.06511 -0.2697458,0.06511 H 8.8079752 Z" />
      <path
         id="lpe_path-effect157"
         style="fill:#e6e6e6;stroke-width:0.243004"
         class="powerclip"
         d="M -1.7916522,-3.7813297 H 18.718883 V 20.283949 H -1.7916522 Z M 6.9021849,5.0928506 V 8.311197 A 1.3228913,1.1159486 0 0 0 6.3730284,8.2176643 1.3228913,1.1159486 0 0 0 5.0501371,9.3333371 1.3228913,1.1159486 0 0 0 6.3730284,10.449527 1.3228913,1.1159486 0 0 0 7.6948862,9.3540073 l 0.00103,-0.00206 V 6.4317642 H 10.606279 V 8.311197 A 1.3228913,1.1159486 0 0 0 10.077122,8.2176643 1.3228913,1.1159486 0 0 0 8.7542311,9.3333371 1.3228913,1.1159486 0 0 0 10.077122,10.449527 1.3228913,1.1159486 0 0 0 11.396913,9.3891467 l 0.0031,-0.00517 V 5.0928508 Z m 4.4022311,6.6015374 c -0.12691,0 -0.256489,0.0094 -0.3886,0.02791 -0.13211,0.01773 -0.265769,0.04389 -0.401001,0.07855 v 0.396867 c 0.12691,-0.06125 0.245771,-0.107346 0.357077,-0.137973 0.111306,-0.03143 0.213847,-0.04703 0.307469,-0.04703 0.121709,0 0.219149,0.02593 0.291967,0.07751 0.07386,0.05158 0.110585,0.119489 0.110585,0.204118 0,0.05481 -0.01785,0.10735 -0.05426,0.158127 -0.03641,0.05078 -0.09252,0.102865 -0.168462,0.15606 l -0.850578,0.581865 v 0.342092 H 12.2015 v -0.342092 h -1.02524 l 0.498151,-0.338991 c 0.210129,-0.14266 0.347868,-0.255912 0.413404,-0.340541 0.06554,-0.08543 0.09818,-0.177616 0.09818,-0.275947 0,-0.170063 -0.07754,-0.302278 -0.23254,-0.397384 -0.153956,-0.09511 -0.370258,-0.143141 -0.649043,-0.143141 z m -6.2775327,0.03307 v 1.805024 h 0.5694631 v -1.320308 l 0.5369079,0.973049 h 0.380848 l 0.5369079,-0.973049 v 1.320308 H 7.6189234 V 11.72746 H 6.8556771 l -0.5338073,0.965814 -0.53019,-0.965814 z m 3.1801066,0 v 1.805024 h 0.6009853 v -0.626307 h 0.3963507 c 0.2964692,0 0.5234821,-0.05089 0.6815991,-0.152442 0.159157,-0.102361 0.238741,-0.248284 0.238741,-0.437691 0,-0.188601 -0.07958,-0.333553 -0.238741,-0.435107 C 9.727808,11.778576 9.5007951,11.72746 9.2043259,11.72746 Z m 0.6009853,0.336924 v 0.504354 h 0.3322732 c 0.1165071,0 0.2062908,-0.02159 0.2697458,-0.06511 0.063455,-0.04433 0.095083,-0.106982 0.095083,-0.187582 0,-0.0806 -0.031628,-0.142512 -0.095083,-0.186032 -0.063455,-0.04352 -0.1532387,-0.06563 -0.2697458,-0.06563 z" />
    </clipPath>
  </defs>
  <g
     transform="matrix(3.7796 0 0 3.7796 -.021092 1.0245)"
     id="g121">
    <rect
       x="8.7209"
       y="-.54211"
       width="6.6358"
       height="6.6348"
       fill="none"
       id="rect97" />
    <path
       d="m 3.6653411,1.219379 c -0.2531703,0 -0.4569933,0.2091037 -0.4569933,0.4688332 V 14.815114 c 0,0.259739 0.203823,0.468835 0.4569933,0.468835 H 13.26189 c 0.25318,0 0.456993,-0.209104 0.456993,-0.468835 V 5.6725322 c 0,-0.2344167 -0.139155,-0.6115936 -0.456993,-0.9376488 l -2.970423,-3.04738 C 9.9857202,1.2905865 9.6059778,1.2186703 9.3774984,1.2186703 Z"
       fill="url(#linearGradient6761-7)"
       stroke-width="0.231438"
       id="path93-3"
       style="fill:#2c2c2c"
       clip-path="url(#clipPath153)"
       inkscape:path-effect="#path-effect157"
       inkscape:original-d="m 3.6653411,1.219379 c -0.2531703,0 -0.4569933,0.2091037 -0.4569933,0.4688332 V 14.815114 c 0,0.259739 0.203823,0.468835 0.4569933,0.468835 H 13.26189 c 0.25318,0 0.456993,-0.209104 0.456993,-0.468835 V 5.6725322 c 0,-0.2344167 -0.139155,-0.6115936 -0.456993,-0.9376488 l -2.970423,-3.04738 C 9.9857202,1.2905865 9.6059778,1.2186703 9.3774984,1.2186703 Z" />
    <g
       aria-label="MP2"
       transform="matrix(0.22387428,0,0,0.17345931,2.7064714,2.8038275)"
       id="text31-3"
       style="font-weight:bold;font-size:14.2742px;line-height:1.25;font-family:sans-serif;-inkscape-font-specification:'sans-serif Bold';fill:#e6e6e6;stroke-width:0.356857" />
  </g>
</svg>
