<?xml version="1.0" encoding="UTF-8" standalone="no"?>
<svg
   width="64"
   height="64"
   version="1.1"
   id="svg73"
   sodipodi:docname="deb.svg"
   inkscape:version="1.1 (1:1.1+rc+202105240936+c4e8f9ed74)"
   xmlns:inkscape="http://www.inkscape.org/namespaces/inkscape"
   xmlns:sodipodi="http://sodipodi.sourceforge.net/DTD/sodipodi-0.dtd"
   xmlns="http://www.w3.org/2000/svg"
   xmlns:svg="http://www.w3.org/2000/svg"
   xmlns:rdf="http://www.w3.org/1999/02/22-rdf-syntax-ns#"
   xmlns:cc="http://creativecommons.org/ns#"
   xmlns:dc="http://purl.org/dc/elements/1.1/">
  <metadata
     id="metadata77">
    <rdf:RDF>
      <cc:Work
         rdf:about="">
        <dc:format>image/svg+xml</dc:format>
        <dc:type
           rdf:resource="http://purl.org/dc/dcmitype/StillImage" />
        <dc:title />
      </cc:Work>
    </rdf:RDF>
  </metadata>
  <sodipodi:namedview
     pagecolor="#ffffff"
     bordercolor="#666666"
     borderopacity="1"
     objecttolerance="10"
     gridtolerance="10"
     guidetolerance="10"
     inkscape:pageopacity="0"
     inkscape:pageshadow="2"
     inkscape:window-width="1920"
     inkscape:window-height="996"
     id="namedview75"
     showgrid="false"
     inkscape:zoom="17.788155"
     inkscape:cx="26.393968"
     inkscape:cy="28.249135"
     inkscape:window-x="0"
     inkscape:window-y="0"
     inkscape:window-maximized="1"
     inkscape:current-layer="svg73"
     inkscape:document-rotation="0"
     inkscape:pagecheckerboard="0" />
  <defs
     id="defs29">
    <inkscape:path-effect
       effect="powerclip"
       id="path-effect290"
       is_visible="true"
       lpeversion="1"
       inverse="true"
       flatten="false"
       hide_clip="false"
       message="Use fill-rule evenodd on &lt;b&gt;fill and stroke&lt;/b&gt; dialog if no flatten result after convert clip to paths." />
    <linearGradient
       id="b"
       x1="399.57"
       x2="399.57"
       y1="545.8"
       y2="517.8"
       gradientTransform="matrix(2.1429,0,0,2.1429,-826.36,-1107.5)"
       gradientUnits="userSpaceOnUse">
      <stop
         stop-color="#3889e9"
         offset="0"
         id="stop2" />
      <stop
         stop-color="#5ea5fb"
         offset="1"
         id="stop4" />
    </linearGradient>
    <linearGradient
       id="linearGradient862"
       x1="7.9373"
       x2="7.9373"
       y1="15.081"
       y2="1.852"
       gradientTransform="matrix(3.3743 0 0 3.3743 3.4312 3.4278)"
       gradientUnits="userSpaceOnUse">
      <stop
         stop-color="#f1efeb"
         offset="0"
         id="stop7" />
      <stop
         stop-color="#fff"
         offset="1"
         id="stop9" />
    </linearGradient>
    <linearGradient
       id="linearGradient910"
       x1="7.9373"
       x2="7.9373"
       y1="15.081"
       y2="1.852"
       gradientTransform="scale(3.7796)"
       gradientUnits="userSpaceOnUse">
      <stop
         stop-color="#613583"
         offset="0"
         id="stop12" />
      <stop
         stop-color="#a663c0"
         offset="1"
         id="stop14" />
    </linearGradient>
    <linearGradient
       id="linearGradient932"
       x1="379.24"
       x2="374.24"
       y1="546.85"
       y2="546.85"
       gradientTransform="matrix(2.1429 0 0 2.1429 -769.68 -1134.5)"
       gradientUnits="userSpaceOnUse">
      <stop
         stop-color="#f6f5f4"
         offset="0"
         id="stop17" />
      <stop
         stop-color="#fff"
         offset=".6"
         id="stop19" />
      <stop
         stop-color="#dddbd8"
         offset="1"
         id="stop21" />
    </linearGradient>
    <linearGradient
       id="linearGradient1146"
       x1="18"
       x2="18"
       y1="52"
       y2="12"
       gradientUnits="userSpaceOnUse">
      <stop
         stop-color="#5e337f"
         offset="0"
         id="stop24" />
      <stop
         stop-color="#ab60bf"
         offset="1"
         id="stop26" />
    </linearGradient>
    <clipPath
       clipPathUnits="userSpaceOnUse"
       id="clipPath286">
      <path
         id="path288"
         style="display:none;opacity:0.2;fill:#e6e6e6"
         d="m 32.1875,6.0332031 v 1 h 1 v -1 z m 0,1 h -1 v 1 h 1 z m 0,1 v 1 h 1 v -1 z m 0,1 h -1 v 0.9999999 h 1 z m 0,0.9999999 v 1 h 1 v -1 z m 0,1 h -1 v 1 h 1 z m 0,1 v 1 h 1 v -1 z m 0,1 h -1 v 1 h 1 z m 0,1 v 1 h 1 v -1 z m 0,1 h -1 v 1 h 1 z m 0,1 v 1 h 1 v -1 z m 0,1 h -1 v 1 h 1 z m 0,1 v 1 h 1 v -1 z m 0,1 h -1 v 1 h 1 c 0.04125,-0.367529 0,-1 0,-1 z m 0,1 v 1 h 1 v -1 z m 0,1 h -1 v 1 h 1 z m 0,1 v 1 h 1 v -1 z m 0,1 h -1 v 1 h 1 z m 0,1 v 1 h 1 v -1 z m 0,1 h -1 v 1 h 1 z m 0,1 v 1 h 1 v -1 z m 0,1 h -1 c -0.0049,0.04347 -0.0074,0.08816 -0.0098,0.128906 -1.721073,0.449126 -2.990234,2.018304 -2.990234,3.871094 v 8 c 0,2.2 1.79,4 4,4 2.21,0 4,-1.8 4,-4 v -8 c 0,-2.2 -1.789334,-4 -4,-4 z m 0,2 c 1.104,0 2,0.8 2,2 0,0.999998 -0.896,2 -2,2 -1.104,0 -2,-1.000002 -2,-2 0,-1.2 0.896,-2 2,-2 z m 0,6 c 1.10457,0 2,0.89543 2,2 v 2 c 0,1.10457 -0.89543,2 -2,2 -1.10457,0 -2,-0.89543 -2,-2 v -2 c 0,-1.10457 0.89543,-2 2,-2 z M 16.960938,45.84375 v 6.878906 h 2.791015 c 1.539636,0 2.693072,-0.07323 3.462891,-0.220703 0.769818,-0.150541 1.430599,-0.403383 1.980468,-0.759765 0.481137,-0.310299 0.838571,-0.66868 1.072266,-1.074219 0.233695,-0.408611 0.349609,-0.873366 0.34961,-1.392578 -10e-7,-0.513069 -0.115915,-0.971415 -0.34961,-1.376953 -0.233695,-0.405539 -0.591129,-0.76392 -1.072266,-1.074219 -0.545287,-0.356383 -1.20156,-0.608391 -1.966796,-0.75586 -0.760654,-0.150541 -1.918597,-0.224609 -3.476563,-0.224609 z m 11.683593,0 v 6.878906 H 35.9375 v -1.339844 h -4.646484 v -1.576171 h 4.228515 v -1.341797 h -4.228515 v -1.28125 h 4.496093 V 45.84375 Z m 9.617188,0 v 6.878906 h 4.392578 c 1.36551,0 2.381772,-0.162621 3.050781,-0.488281 0.669009,-0.32566 1.003906,-0.820766 1.003906,-1.484375 0,-0.433189 -0.155204,-0.797694 -0.466796,-1.095703 -0.311594,-0.29801 -0.752114,-0.50268 -1.320313,-0.613281 0.444478,-0.113674 0.783883,-0.287993 1.017578,-0.521485 0.233695,-0.236564 0.349609,-0.520592 0.349609,-0.855469 10e-7,-0.635958 -0.319422,-1.099879 -0.960937,-1.388671 -0.636932,-0.288793 -1.66867,-0.431641 -3.09375,-0.431641 z m 2.646484,1.207031 h 1.462891 c 0.416985,0 0.733853,0.06349 0.949218,0.189453 0.215367,0.122891 0.322266,0.302498 0.322266,0.539063 0,0.239637 -0.106899,0.420078 -0.322266,0.542969 -0.215365,0.12289 -0.532233,0.183593 -0.949218,0.183593 h -1.462891 z m -21.300781,0.132813 h 0.947266 c 1.085993,0 1.914223,0.178773 2.482421,0.535156 0.5682,0.356383 0.851563,0.874598 0.851563,1.556641 0,0.685115 -0.286593,1.208904 -0.859375,1.568359 -0.568199,0.359455 -1.393198,0.539062 -2.474609,0.539062 h -0.947266 z m 21.300781,2.53125 h 1.552735 c 0.536122,0 0.937353,0.07407 1.203124,0.224609 0.265771,0.147468 0.398438,0.369959 0.398438,0.667969 0,0.304154 -0.135898,0.533053 -0.40625,0.683594 -0.265771,0.150541 -0.663772,0.224609 -1.195312,0.224609 h -1.552735 z" />
      <path
         id="lpe_path-effect290"
         style="opacity:0.2;fill:#e6e6e6"
         class="powerclip"
         d="M 4.6784649,1.9709001 H 58.021723 V 61.968901 H 4.6784649 Z M 32.1875,6.0332031 v 1 h 1 v -1 z m 0,1 h -1 v 1 h 1 z m 0,1 v 1 h 1 v -1 z m 0,1 h -1 v 0.9999999 h 1 z m 0,0.9999999 v 1 h 1 v -1 z m 0,1 h -1 v 1 h 1 z m 0,1 v 1 h 1 v -1 z m 0,1 h -1 v 1 h 1 z m 0,1 v 1 h 1 v -1 z m 0,1 h -1 v 1 h 1 z m 0,1 v 1 h 1 v -1 z m 0,1 h -1 v 1 h 1 z m 0,1 v 1 h 1 v -1 z m 0,1 h -1 v 1 h 1 c 0.04125,-0.367529 0,-1 0,-1 z m 0,1 v 1 h 1 v -1 z m 0,1 h -1 v 1 h 1 z m 0,1 v 1 h 1 v -1 z m 0,1 h -1 v 1 h 1 z m 0,1 v 1 h 1 v -1 z m 0,1 h -1 v 1 h 1 z m 0,1 v 1 h 1 v -1 z m 0,1 h -1 c -0.0049,0.04347 -0.0074,0.08816 -0.0098,0.128906 -1.721073,0.449126 -2.990234,2.018304 -2.990234,3.871094 v 8 c 0,2.2 1.79,4 4,4 2.21,0 4,-1.8 4,-4 v -8 c 0,-2.2 -1.789334,-4 -4,-4 z m 0,2 c -1.104,0 -2,0.8 -2,2 0,0.999998 0.896,2 2,2 1.104,0 2,-1.000002 2,-2 0,-1.2 -0.896,-2 -2,-2 z m 0,6 c -1.10457,0 -2,0.89543 -2,2 v 2 c 0,1.10457 0.89543,2 2,2 1.10457,0 2,-0.89543 2,-2 v -2 c 0,-1.10457 -0.89543,-2 -2,-2 z M 16.960938,45.84375 v 6.878906 h 2.791015 c 1.539636,0 2.693072,-0.07323 3.462891,-0.220703 0.769818,-0.150541 1.430599,-0.403383 1.980468,-0.759765 0.481137,-0.310299 0.838571,-0.66868 1.072266,-1.074219 0.233695,-0.408611 0.349609,-0.873366 0.34961,-1.392578 -10e-7,-0.513069 -0.115915,-0.971415 -0.34961,-1.376953 -0.233695,-0.405539 -0.591129,-0.76392 -1.072266,-1.074219 -0.545287,-0.356383 -1.20156,-0.608391 -1.966796,-0.75586 -0.760654,-0.150541 -1.918597,-0.224609 -3.476563,-0.224609 z m 11.683593,0 v 6.878906 H 35.9375 v -1.339844 h -4.646484 v -1.576171 h 4.228515 v -1.341797 h -4.228515 v -1.28125 h 4.496093 V 45.84375 Z m 9.617188,0 v 6.878906 h 4.392578 c 1.36551,0 2.381772,-0.162621 3.050781,-0.488281 0.669009,-0.32566 1.003906,-0.820766 1.003906,-1.484375 0,-0.433189 -0.155204,-0.797694 -0.466796,-1.095703 -0.311594,-0.29801 -0.752114,-0.50268 -1.320313,-0.613281 0.444478,-0.113674 0.783883,-0.287993 1.017578,-0.521485 0.233695,-0.236564 0.349609,-0.520592 0.349609,-0.855469 10e-7,-0.635958 -0.319422,-1.099879 -0.960937,-1.388671 -0.636932,-0.288793 -1.66867,-0.431641 -3.09375,-0.431641 z m 2.646484,1.207031 v 1.455078 h 1.462891 c 0.416985,0 0.733853,-0.0607 0.949218,-0.183593 0.215367,-0.122891 0.322266,-0.303332 0.322266,-0.542969 0,-0.236565 -0.106899,-0.416172 -0.322266,-0.539063 -0.215365,-0.125963 -0.532233,-0.189453 -0.949218,-0.189453 z m -21.300781,0.132813 v 4.199218 h 0.947266 c 1.081411,0 1.90641,-0.179607 2.474609,-0.539062 0.572782,-0.359455 0.859375,-0.883244 0.859375,-1.568359 0,-0.682043 -0.283363,-1.200258 -0.851563,-1.556641 -0.568198,-0.356383 -1.396428,-0.535156 -2.482421,-0.535156 z m 21.300781,2.53125 v 1.800781 h 1.552735 c 0.53154,0 0.929541,-0.07407 1.195312,-0.224609 0.270352,-0.150541 0.40625,-0.37944 0.40625,-0.683594 0,-0.29801 -0.132667,-0.520501 -0.398438,-0.667969 -0.265771,-0.150539 -0.667002,-0.224609 -1.203124,-0.224609 z" />
    </clipPath>
  </defs>
  <path
     x="9.6784649"
     y="6.9709001"
     width="43.343258"
     height="49.998001"
     rx="8.6689987"
     ry="10"
     fill="url(#linearGradient862)"
     stroke-width="3.14173"
     id="rect35"
     style="fill:#2c2c2c;fill-opacity:1"
     clip-path="url(#clipPath286)"
     inkscape:path-effect="#path-effect290"
     d="m 18.347464,6.9709001 h 26.00526 c 4.802625,0 8.668999,4.4599999 8.668999,9.9999999 v 29.998001 c 0,5.54 -3.866374,10 -8.668999,10 h -26.00526 c -4.802626,0 -8.6689991,-4.46 -8.6689991,-10 V 16.9709 c 0,-5.54 3.8663731,-9.9999999 8.6689991,-9.9999999 z"
     sodipodi:type="rect" />
  <ellipse
     cx="31.366306"
     cy="32.043999"
     fill-opacity="0"
     stroke-width="1.46319"
     id="circle39"
     rx="26.007862"
     ry="30.000999" />
  <circle
     cx="32.02"
     cy="32.044"
     r="0"
     fill="url(#b)"
     stroke-width="1.5715"
     id="circle41" />
  <g
     aria-label="DEB"
     transform="scale(1.2212657,0.81882264)"
     id="text93"
     style="font-weight:bold;font-size:11.5263px;line-height:1.25;font-family:sans-serif;-inkscape-font-specification:'sans-serif Bold';fill:#e6e6e6;stroke-width:0.288159" />
</svg>
