<?xml version="1.0" encoding="UTF-8" standalone="no"?>
<svg
   width="64"
   height="64"
   version="1.1"
   id="svg125"
   sodipodi:docname="DV_ResolveProj.svg"
   inkscape:version="1.1 (1:1.1+rc+202105240936+c4e8f9ed74)"
   xmlns:inkscape="http://www.inkscape.org/namespaces/inkscape"
   xmlns:sodipodi="http://sodipodi.sourceforge.net/DTD/sodipodi-0.dtd"
   xmlns:xlink="http://www.w3.org/1999/xlink"
   xmlns="http://www.w3.org/2000/svg"
   xmlns:svg="http://www.w3.org/2000/svg"
   xmlns:rdf="http://www.w3.org/1999/02/22-rdf-syntax-ns#"
   xmlns:cc="http://creativecommons.org/ns#"
   xmlns:dc="http://purl.org/dc/elements/1.1/">
  <metadata
     id="metadata129">
    <rdf:RDF>
      <cc:Work
         rdf:about="">
        <dc:format>image/svg+xml</dc:format>
        <dc:type
           rdf:resource="http://purl.org/dc/dcmitype/StillImage" />
        <dc:title />
      </cc:Work>
    </rdf:RDF>
  </metadata>
  <sodipodi:namedview
     pagecolor="#ffffff"
     bordercolor="#666666"
     borderopacity="1"
     objecttolerance="10"
     gridtolerance="10"
     guidetolerance="10"
     inkscape:pageopacity="0"
     inkscape:pageshadow="2"
     inkscape:window-width="1920"
     inkscape:window-height="996"
     id="namedview127"
     showgrid="false"
     inkscape:zoom="17.788155"
     inkscape:cx="32.071904"
     inkscape:cy="24.313933"
     inkscape:window-x="0"
     inkscape:window-y="0"
     inkscape:window-maximized="1"
     inkscape:current-layer="g121"
     inkscape:document-rotation="0"
     inkscape:pagecheckerboard="0" />
  <defs
     id="defs47">
    <inkscape:path-effect
       effect="powerclip"
       id="path-effect874"
       is_visible="true"
       lpeversion="1"
       inverse="true"
       flatten="false"
       hide_clip="false"
       message="Use fill-rule evenodd on &lt;b&gt;fill and stroke&lt;/b&gt; dialog if no flatten result after convert clip to paths." />
    <linearGradient
       id="linearGradient6721-3"
       x1="7.9373"
       x2="7.9373"
       y1="15.346"
       y2="16.933"
       gradientUnits="userSpaceOnUse"
       xlink:href="#linearGradient6261" />
    <linearGradient
       id="linearGradient6261">
      <stop
         offset="0"
         id="stop3" />
      <stop
         stop-opacity="0"
         offset="1"
         id="stop5" />
    </linearGradient>
    <radialGradient
       id="radialGradient6723-5"
       cx="35"
       cy="4"
       r="3.7275"
       gradientTransform="matrix(1.696 0 0 1.0731 -24.361 -.29238)"
       gradientUnits="userSpaceOnUse"
       xlink:href="#linearGradient6261" />
    <linearGradient
       id="linearGradient6725-3"
       x1="43"
       x2="46.748"
       y1="12"
       y2="8.2517"
       gradientUnits="userSpaceOnUse"
       xlink:href="#linearGradient6261" />
    <radialGradient
       id="radialGradient6727-5"
       cx="52"
       cy="22"
       r="5.2061"
       gradientTransform="matrix(.96042 0 0 1.3331 2.0581 -7.3283)"
       gradientUnits="userSpaceOnUse"
       xlink:href="#linearGradient6261" />
    <linearGradient
       id="linearGradient6729-6"
       x1="5.8207"
       x2="5.8207"
       y1="1.0583"
       gradientUnits="userSpaceOnUse"
       xlink:href="#linearGradient6261" />
    <radialGradient
       id="radialGradient6731-2"
       cx="3.1749"
       cy="1.3229"
       r=".79373"
       gradientTransform="matrix(-2.1078e-8 -1.3333 1.6667 -2.6348e-8 .97012 5.2916)"
       gradientUnits="userSpaceOnUse"
       xlink:href="#linearGradient6261" />
    <linearGradient
       id="linearGradient6733-9"
       x1="13.758"
       x2="15.081"
       y1="10.583"
       y2="10.583"
       gradientUnits="userSpaceOnUse"
       xlink:href="#linearGradient6261" />
    <linearGradient
       id="linearGradient6735-1"
       x1="3.1749"
       x2="1.852"
       y1="8.4665"
       y2="8.4665"
       gradientUnits="userSpaceOnUse"
       xlink:href="#linearGradient6261" />
    <radialGradient
       id="radialGradient6737-2"
       cx="13.758"
       cy="15.346"
       r=".79373"
       gradientTransform="matrix(5.1718e-7 2 -1.6667 4.3098e-7 39.334 -12.171)"
       gradientUnits="userSpaceOnUse"
       xlink:href="#linearGradient6261" />
    <radialGradient
       id="radialGradient6739-7"
       cx="3.1749"
       cy="15.346"
       r=".79373"
       gradientTransform="matrix(-1.6667 -1.37e-6 1.644e-6 -2 8.4665 46.037)"
       gradientUnits="userSpaceOnUse"
       xlink:href="#linearGradient6261" />
    <linearGradient
       id="linearGradient6741-0"
       x1="7.9373"
       x2="7.9373"
       y1="15.346"
       y2="16.668"
       gradientUnits="userSpaceOnUse"
       xlink:href="#linearGradient6261" />
    <radialGradient
       id="radialGradient6743-9"
       cx="35"
       cy="4"
       r="3.7275"
       gradientTransform="matrix(1.6115 -1.9122e-7 9.5496e-8 .80482 -21.403 .78072)"
       gradientUnits="userSpaceOnUse"
       xlink:href="#linearGradient6261" />
    <linearGradient
       id="linearGradient6745-3"
       x1="43"
       x2="46.004"
       y1="12"
       y2="8.9965"
       gradientUnits="userSpaceOnUse"
       xlink:href="#linearGradient6261" />
    <radialGradient
       id="radialGradient6747-6"
       cx="52"
       cy="22"
       r="5.2061"
       gradientTransform="matrix(.76834 -9.6042e-8 1.534e-7 1.2272 12.047 -4.9986)"
       gradientUnits="userSpaceOnUse"
       xlink:href="#linearGradient6261" />
    <linearGradient
       id="linearGradient6749-0"
       x1="5.8207"
       x2="5.8207"
       y1="1.0583"
       y2=".26458"
       gradientUnits="userSpaceOnUse"
       xlink:href="#linearGradient6261" />
    <radialGradient
       id="radialGradient6751-6"
       cx="3.1749"
       cy="1.3229"
       r=".79373"
       gradientTransform="matrix(-7.442e-8 -1 1.3333 -9.9226e-8 1.4111 4.2333)"
       gradientUnits="userSpaceOnUse"
       xlink:href="#linearGradient6261" />
    <linearGradient
       id="linearGradient6753-2"
       x1="13.758"
       x2="14.816"
       y1="10.583"
       y2="10.583"
       gradientUnits="userSpaceOnUse"
       xlink:href="#linearGradient6261" />
    <linearGradient
       id="linearGradient6755-6"
       x1="3.1749"
       x2="2.1166"
       y1="8.4665"
       y2="8.4665"
       gradientUnits="userSpaceOnUse"
       xlink:href="#linearGradient6261" />
    <radialGradient
       id="radialGradient6757-1"
       cx="13.758"
       cy="15.346"
       r=".79373"
       gradientTransform="matrix(0 1.6667 -1.3333 0 34.219 -7.5846)"
       gradientUnits="userSpaceOnUse"
       xlink:href="#linearGradient6261" />
    <radialGradient
       id="radialGradient6759-8"
       cx="3.1749"
       cy="15.346"
       r=".79373"
       gradientTransform="matrix(-1.3333 0 0 -1.6667 7.4082 40.921)"
       gradientUnits="userSpaceOnUse"
       xlink:href="#linearGradient6261" />
    <linearGradient
       id="linearGradient6761-7"
       x1="21.039"
       x2="21.039"
       y1="2"
       y2="62"
       gradientTransform="matrix(.26458 0 0 .26458 0 -.26458)"
       gradientUnits="userSpaceOnUse">
      <stop
         stop-color="#ff5b59"
         offset="0"
         id="stop27" />
      <stop
         stop-color="#ff983d"
         offset="1"
         id="stop29" />
    </linearGradient>
    <radialGradient
       id="radialGradient6763-2"
       cx="40"
       cy="12"
       r="8"
       gradientTransform="matrix(1.5 0 0 -2 -14 40)"
       gradientUnits="userSpaceOnUse"
       xlink:href="#linearGradient6261" />
    <radialGradient
       id="radialGradient6765-3"
       cx="10.583"
       cy="4.2333"
       r="2.1166"
       gradientTransform="matrix(-2 3.1236e-7 -3.1236e-7 -2 31.749 12.7)"
       gradientUnits="userSpaceOnUse"
       xlink:href="#linearGradient6261" />
    <radialGradient
       id="radialGradient6767-7"
       cx="40"
       cy="12"
       r="8"
       gradientTransform="matrix(0 -1.5 2 0 16 70)"
       gradientUnits="userSpaceOnUse"
       xlink:href="#linearGradient6261" />
    <linearGradient
       id="linearGradient7282"
       x1="10.583"
       x2="6.3499"
       y1="3.1749"
       y2="3.1749"
       gradientTransform="matrix(1 0 0 .66667 0 1.4111)"
       gradientUnits="userSpaceOnUse"
       xlink:href="#linearGradient6261" />
    <linearGradient
       id="linearGradient7284"
       x1="10.583"
       x2="8.7311"
       y1="3.0426"
       y2="3.0426"
       gradientTransform="matrix(1 0 0 .66667 0 1.4111)"
       gradientUnits="userSpaceOnUse"
       xlink:href="#linearGradient6261" />
    <radialGradient
       id="radialGradient6773-5"
       cx="10.583"
       cy="4.2333"
       r="2.1166"
       gradientTransform="matrix(-.875 -1.6564e-7 1.6631e-7 -.87849 19.843 7.9521)"
       gradientUnits="userSpaceOnUse"
       xlink:href="#linearGradient6261" />
    <radialGradient
       id="radialGradient6775-9"
       cx="40"
       cy="12"
       r="8"
       gradientTransform="matrix(0 -1.3078 .87983 0 29.442 62.311)"
       gradientUnits="userSpaceOnUse"
       xlink:href="#linearGradient6261" />
    <linearGradient
       id="linearGradient7286"
       x1="10.583"
       x2="6.3499"
       y1="3.1749"
       y2="3.1749"
       gradientTransform="matrix(1 0 0 .66667 -14.816 9.3484)"
       gradientUnits="userSpaceOnUse"
       xlink:href="#linearGradient6261" />
    <linearGradient
       id="linearGradient7288"
       x1="10.583"
       x2="8.7237"
       y1="3.0426"
       y2="3.0426"
       gradientTransform="matrix(1 0 0 .66667 -14.816 9.3484)"
       gradientUnits="userSpaceOnUse"
       xlink:href="#linearGradient6261" />
    <radialGradient
       id="radialGradient6781-2"
       cx="40"
       cy="12"
       r="8"
       gradientTransform="matrix(1.4336 0 0 -.87849 -11.344 26.542)"
       gradientUnits="userSpaceOnUse"
       xlink:href="#linearGradient6261" />
    <linearGradient
       id="linearGradient7290"
       x1="40"
       x2="46"
       y1="17"
       y2="11"
       gradientTransform="matrix(.26458 0 0 .26458 -1.6667e-7 -.26458)"
       gradientUnits="userSpaceOnUse">
      <stop
         stop-color="#fefefe"
         offset="0"
         id="stop42" />
      <stop
         stop-color="#e9e9e9"
         offset="1"
         id="stop44" />
    </linearGradient>
    <clipPath
       clipPathUnits="userSpaceOnUse"
       id="clipPath870">
      <path
         id="path872"
         style="display:none;fill:#ffff00;stroke-width:0.0148738;-inkscape-stroke:none;stop-color:#000000"
         d="m 8.4131749,6.667401 c -0.3377526,0 -0.6370544,0.119277 -0.8717647,0.347259 -0.2356347,0.2288801 -0.3591444,0.5152125 -0.3591444,0.8314581 0,0.2856985 0.1131623,0.552218 0.3922167,0.9249902 0.1380866,0.1844613 0.5962125,0.6607519 0.721906,0.7503276 0.083153,0.059259 0.1417452,0.06028 0.2185869,0.00414 C 8.6039089,9.4605908 8.9880741,9.059768 9.1402484,8.8734271 9.5505249,8.3710348 9.6904858,8.0065867 9.6151455,7.6347666 9.550495,7.3156995 9.3792258,7.0636678 9.1004582,6.8772034 8.8774881,6.7280612 8.6794584,6.667401 8.4131749,6.667401 Z M 6.8288057,9.5999825 c -0.044816,-1.852e-4 -0.090504,5.821e-4 -0.1374566,0.00206 -0.2993661,0.00955 -0.412827,0.033842 -0.6025355,0.1281551 -0.2960157,0.147163 -0.5287512,0.4309344 -0.6185551,0.7534274 -0.081014,0.290927 -0.013464,0.678037 0.1627775,0.932225 0.039877,0.05751 0.2211703,0.249593 0.2356401,0.249593 0.00329,0 0.041126,0.02637 0.084231,0.05891 0.1295968,0.09785 0.3436125,0.185478 0.5229553,0.213936 0.024542,0.0039 0.1313594,0.0049 0.2377072,0.0026 0.1678487,-0.0036 0.2113276,-0.0098 0.3296891,-0.04858 0.1971651,-0.06454 0.3216216,-0.139115 0.4511268,-0.270263 0.2564124,-0.259664 0.4959941,-0.739342 0.6671299,-1.33581 0.076975,-0.268283 0.083805,-0.3077781 0.062527,-0.3591438 C 8.1981273,9.8645283 8.1198383,9.8283898 7.8654151,9.7622492 7.4188803,9.6461668 7.1425196,9.6012837 6.8288057,9.5999884 Z m 3.2090453,0.0062 c -0.2186013,2.51e-5 -0.353301,0.00733 -0.475931,0.026355 -0.3718131,0.057674 -0.8598124,0.1837652 -0.9306749,0.2402908 -0.038307,0.030558 -0.043063,0.042842 -0.040307,0.1064514 0.00708,0.1633063 0.1916041,0.7167713 0.3488091,1.0459113 0.2258842,0.472934 0.4433342,0.711733 0.7560117,0.831975 0.097837,0.03762 0.1462139,0.05024 0.3271061,0.08216 0.0813,0.01435 0.340284,-0.0059 0.45371,-0.03514 0.159256,-0.04108 0.366164,-0.145102 0.480065,-0.241841 0.189026,-0.160544 0.333727,-0.391442 0.39325,-0.626823 C 11.3937,10.862265 11.3829,10.592629 11.3256,10.423168 11.192082,10.028251 10.88117,9.7412213 10.476058,9.6392565 10.35929,9.6098669 10.305022,9.6061533 10.03785,9.6061843 Z" />
      <path
         id="lpe_path-effect874"
         style="fill:#ffff00;stroke-width:0.0148738;-inkscape-stroke:none;stop-color:#000000"
         class="powerclip"
         d="M -1.7916522,-3.7813297 H 18.718883 V 20.283949 H -1.7916522 Z M 8.4131749,6.667401 c -0.3377526,0 -0.6370544,0.119277 -0.8717647,0.347259 -0.2356347,0.2288801 -0.3591444,0.5152125 -0.3591444,0.8314581 0,0.2856985 0.1131623,0.552218 0.3922167,0.9249902 0.1380866,0.1844613 0.5962125,0.6607519 0.721906,0.7503276 0.083153,0.059259 0.1417452,0.06028 0.2185869,0.00414 C 8.6039089,9.4605908 8.9880741,9.059768 9.1402484,8.8734271 9.5505249,8.3710348 9.6904858,8.0065867 9.6151455,7.6347666 9.550495,7.3156995 9.3792258,7.0636678 9.1004582,6.8772034 8.8774881,6.7280612 8.6794584,6.667401 8.4131749,6.667401 Z M 6.8288057,9.5999825 c -0.044816,-1.852e-4 -0.090504,5.821e-4 -0.1374566,0.00206 -0.2993661,0.00955 -0.412827,0.033842 -0.6025355,0.1281551 -0.2960157,0.147163 -0.5287512,0.4309344 -0.6185551,0.7534274 -0.081014,0.290927 -0.013464,0.678037 0.1627775,0.932225 0.039877,0.05751 0.2211703,0.249593 0.2356401,0.249593 0.00329,0 0.041126,0.02637 0.084231,0.05891 0.1295968,0.09785 0.3436125,0.185478 0.5229553,0.213936 0.024542,0.0039 0.1313594,0.0049 0.2377072,0.0026 0.1678487,-0.0036 0.2113276,-0.0098 0.3296891,-0.04858 0.1971651,-0.06454 0.3216216,-0.139115 0.4511268,-0.270263 0.2564124,-0.259664 0.4959941,-0.739342 0.6671299,-1.33581 0.076975,-0.268283 0.083805,-0.3077781 0.062527,-0.3591438 C 8.1981273,9.8645283 8.1198383,9.8283898 7.8654151,9.7622492 7.4188803,9.6461668 7.1425196,9.6012837 6.8288057,9.5999884 Z m 3.2090453,0.0062 c -0.2186013,2.51e-5 -0.353301,0.00733 -0.475931,0.026355 -0.3718131,0.057674 -0.8598124,0.1837652 -0.9306749,0.2402908 -0.038307,0.030558 -0.043063,0.042842 -0.040307,0.1064514 0.00708,0.1633063 0.1916041,0.7167713 0.3488091,1.0459113 0.2258842,0.472934 0.4433342,0.711733 0.7560117,0.831975 0.097837,0.03762 0.1462139,0.05024 0.3271061,0.08216 0.0813,0.01435 0.340284,-0.0059 0.45371,-0.03514 0.159256,-0.04108 0.366164,-0.145102 0.480065,-0.241841 0.189026,-0.160544 0.333727,-0.391442 0.39325,-0.626823 C 11.3937,10.862265 11.3829,10.592629 11.3256,10.423168 11.192082,10.028251 10.88117,9.7412213 10.476058,9.6392565 10.35929,9.6098669 10.305022,9.6061533 10.03785,9.6061843 Z" />
    </clipPath>
  </defs>
  <g
     transform="matrix(3.7796 0 0 3.7796 -.021092 1.0245)"
     id="g121">
    <rect
       x="8.7209"
       y="-.54211"
       width="6.6358"
       height="6.6348"
       fill="none"
       id="rect97" />
    <path
       d="m 3.6653411,1.219379 c -0.2531703,0 -0.4569933,0.2091037 -0.4569933,0.4688332 V 14.815114 c 0,0.259739 0.203823,0.468835 0.4569933,0.468835 H 13.26189 c 0.25318,0 0.456993,-0.209104 0.456993,-0.468835 V 5.6725322 c 0,-0.2344167 -0.139155,-0.6115936 -0.456993,-0.9376488 l -2.970423,-3.04738 C 9.9857202,1.2905865 9.6059778,1.2186703 9.3774984,1.2186703 Z"
       fill="url(#linearGradient6761-7)"
       stroke-width="0.231438"
       id="path93-3"
       style="fill:#2c2c2c"
       clip-path="url(#clipPath870)"
       inkscape:path-effect="#path-effect874"
       inkscape:original-d="m 3.6653411,1.219379 c -0.2531703,0 -0.4569933,0.2091037 -0.4569933,0.4688332 V 14.815114 c 0,0.259739 0.203823,0.468835 0.4569933,0.468835 H 13.26189 c 0.25318,0 0.456993,-0.209104 0.456993,-0.468835 V 5.6725322 c 0,-0.2344167 -0.139155,-0.6115936 -0.456993,-0.9376488 l -2.970423,-3.04738 C 9.9857202,1.2905865 9.6059778,1.2186703 9.3774984,1.2186703 Z" />
  </g>
</svg>
