<?xml version="1.0" encoding="UTF-8" standalone="no"?>
<svg
   width="64"
   height="64"
   version="1.1"
   id="svg73"
   sodipodi:docname="gnome-mime-application-x-deb.svg"
   inkscape:version="1.1 (1:1.1+rc+202105240936+c4e8f9ed74)"
   xmlns:inkscape="http://www.inkscape.org/namespaces/inkscape"
   xmlns:sodipodi="http://sodipodi.sourceforge.net/DTD/sodipodi-0.dtd"
   xmlns="http://www.w3.org/2000/svg"
   xmlns:svg="http://www.w3.org/2000/svg"
   xmlns:rdf="http://www.w3.org/1999/02/22-rdf-syntax-ns#"
   xmlns:cc="http://creativecommons.org/ns#"
   xmlns:dc="http://purl.org/dc/elements/1.1/">
  <metadata
     id="metadata77">
    <rdf:RDF>
      <cc:Work
         rdf:about="">
        <dc:format>image/svg+xml</dc:format>
        <dc:type
           rdf:resource="http://purl.org/dc/dcmitype/StillImage" />
        <dc:title />
      </cc:Work>
    </rdf:RDF>
  </metadata>
  <sodipodi:namedview
     pagecolor="#ffffff"
     bordercolor="#666666"
     borderopacity="1"
     objecttolerance="10"
     gridtolerance="10"
     guidetolerance="10"
     inkscape:pageopacity="0"
     inkscape:pageshadow="2"
     inkscape:window-width="1920"
     inkscape:window-height="996"
     id="namedview75"
     showgrid="false"
     inkscape:zoom="17.788155"
     inkscape:cx="26.393968"
     inkscape:cy="23.751761"
     inkscape:window-x="0"
     inkscape:window-y="0"
     inkscape:window-maximized="1"
     inkscape:current-layer="svg73"
     inkscape:document-rotation="0"
     inkscape:pagecheckerboard="0" />
  <defs
     id="defs29">
    <inkscape:path-effect
       effect="powerclip"
       id="path-effect252"
       is_visible="true"
       lpeversion="1"
       inverse="true"
       flatten="false"
       hide_clip="false"
       message="Use fill-rule evenodd on &lt;b&gt;fill and stroke&lt;/b&gt; dialog if no flatten result after convert clip to paths." />
    <linearGradient
       id="b"
       x1="399.57"
       x2="399.57"
       y1="545.8"
       y2="517.8"
       gradientTransform="matrix(2.1429,0,0,2.1429,-826.36,-1107.5)"
       gradientUnits="userSpaceOnUse">
      <stop
         stop-color="#3889e9"
         offset="0"
         id="stop2" />
      <stop
         stop-color="#5ea5fb"
         offset="1"
         id="stop4" />
    </linearGradient>
    <linearGradient
       id="linearGradient862"
       x1="7.9373"
       x2="7.9373"
       y1="15.081"
       y2="1.852"
       gradientTransform="matrix(3.3743 0 0 3.3743 3.4312 3.4278)"
       gradientUnits="userSpaceOnUse">
      <stop
         stop-color="#f1efeb"
         offset="0"
         id="stop7" />
      <stop
         stop-color="#fff"
         offset="1"
         id="stop9" />
    </linearGradient>
    <linearGradient
       id="linearGradient910"
       x1="7.9373"
       x2="7.9373"
       y1="15.081"
       y2="1.852"
       gradientTransform="scale(3.7796)"
       gradientUnits="userSpaceOnUse">
      <stop
         stop-color="#613583"
         offset="0"
         id="stop12" />
      <stop
         stop-color="#a663c0"
         offset="1"
         id="stop14" />
    </linearGradient>
    <linearGradient
       id="linearGradient932"
       x1="379.24"
       x2="374.24"
       y1="546.85"
       y2="546.85"
       gradientTransform="matrix(2.1429 0 0 2.1429 -769.68 -1134.5)"
       gradientUnits="userSpaceOnUse">
      <stop
         stop-color="#f6f5f4"
         offset="0"
         id="stop17" />
      <stop
         stop-color="#fff"
         offset=".6"
         id="stop19" />
      <stop
         stop-color="#dddbd8"
         offset="1"
         id="stop21" />
    </linearGradient>
    <linearGradient
       id="linearGradient1146"
       x1="18"
       x2="18"
       y1="52"
       y2="12"
       gradientUnits="userSpaceOnUse">
      <stop
         stop-color="#5e337f"
         offset="0"
         id="stop24" />
      <stop
         stop-color="#ab60bf"
         offset="1"
         id="stop26" />
    </linearGradient>
    <clipPath
       clipPathUnits="userSpaceOnUse"
       id="clipPath248">
      <path
         id="path250"
         style="display:none;opacity:0.2;fill:#e6e6e6"
         d="m 32.1875,6.0332031 v 1 h 1 v -1 z m 0,1 h -1 v 1 h 1 z m 0,1 v 1 h 1 v -1 z m 0,1 h -1 v 0.9999999 h 1 z m 0,0.9999999 v 1 h 1 v -1 z m 0,1 h -1 v 1 h 1 z m 0,1 v 1 h 1 v -1 z m 0,1 h -1 v 1 h 1 z m 0,1 v 1 h 1 v -1 z m 0,1 h -1 v 1 h 1 z m 0,1 v 1 h 1 v -1 z m 0,1 h -1 v 1 h 1 z m 0,1 v 1 h 1 v -1 z m 0,1 h -1 v 1 h 1 c 0.04125,-0.367529 0,-1 0,-1 z m 0,1 v 1 h 1 v -1 z m 0,1 h -1 v 1 h 1 z m 0,1 v 1 h 1 v -1 z m 0,1 h -1 v 1 h 1 z m 0,1 v 1 h 1 v -1 z m 0,1 h -1 v 1 h 1 z m 0,1 v 1 h 1 v -1 z m 0,1 h -1 c -0.0049,0.04347 -0.0074,0.08816 -0.0098,0.128906 -1.721073,0.449126 -2.990234,2.018304 -2.990234,3.871094 v 8 c 0,2.2 1.79,4 4,4 2.21,0 4,-1.8 4,-4 v -8 c 0,-2.2 -1.789334,-4 -4,-4 z m 0,2 c 1.104,0 2,0.8 2,2 0,0.999998 -0.896,2 -2,2 -1.104,0 -2,-1.000002 -2,-2 0,-1.2 0.896,-2 2,-2 z m 0,6 c 1.10457,0 2,0.89543 2,2 v 2 c 0,1.10457 -0.89543,2 -2,2 -1.10457,0 -2,-0.89543 -2,-2 v -2 c 0,-1.10457 0.89543,-2 2,-2 z M 16.669922,45.794922 v 6.878906 h 2.789062 c 1.539636,0 2.695026,-0.07323 3.464844,-0.220703 0.769818,-0.150541 1.430599,-0.403383 1.980469,-0.759766 0.481136,-0.310298 0.838571,-0.66868 1.072265,-1.074218 0.233695,-0.408611 0.34961,-0.873366 0.34961,-1.392579 0,-0.513068 -0.115915,-0.971414 -0.34961,-1.376953 -0.233694,-0.405538 -0.591129,-0.76392 -1.072265,-1.074218 C 24.359009,46.419008 23.702736,46.167 22.9375,46.019531 22.176847,45.86899 21.01695,45.794922 19.458984,45.794922 Z m 11.683594,0 v 6.878906 h 7.292968 V 51.333984 H 31 v -1.576172 h 4.226562 V 48.416016 H 31 v -1.28125 h 4.496094 v -1.339844 z m 9.617187,0 v 6.878906 h 4.390625 c 1.36551,0 2.383725,-0.162621 3.052734,-0.488281 0.669009,-0.32566 1.003907,-0.820766 1.003907,-1.484375 0,-0.43319 -0.157157,-0.797693 -0.46875,-1.095703 -0.311593,-0.29801 -0.750161,-0.50268 -1.31836,-0.613281 0.444478,-0.113674 0.78193,-0.287993 1.015625,-0.521485 0.233695,-0.236564 0.351563,-0.520591 0.351563,-0.855469 0,-0.635958 -0.321375,-1.099878 -0.962891,-1.388672 -0.636932,-0.288792 -1.666716,-0.43164 -3.091797,-0.43164 z m 2.644531,1.207031 h 1.464844 c 0.416985,0 0.733853,0.06349 0.949219,0.189453 0.215366,0.122891 0.322266,0.302498 0.322265,0.539063 10e-7,0.239636 -0.106899,0.420078 -0.322265,0.542969 -0.215366,0.12289 -0.532234,0.183593 -0.949219,0.183593 h -1.464844 z m -21.298828,0.132813 h 0.947266 c 1.085993,0 1.914223,0.178773 2.482422,0.535156 0.568199,0.356383 0.851562,0.874598 0.851562,1.55664 0,0.685115 -0.286593,1.208905 -0.859375,1.56836 -0.568199,0.359455 -1.393198,0.539062 -2.474609,0.539062 h -0.947266 z m 21.298828,2.53125 h 1.554688 c 0.536123,0 0.937354,0.07407 1.203125,0.224609 0.26577,0.147469 0.398437,0.369959 0.398437,0.667969 0,0.304154 -0.135897,0.533053 -0.40625,0.683594 -0.265771,0.150541 -0.663771,0.224609 -1.195312,0.224609 h -1.554688 z" />
      <path
         id="lpe_path-effect252"
         style="opacity:0.2;fill:#e6e6e6"
         class="powerclip"
         d="M 4.6784649,1.9709001 H 58.021723 V 61.968901 H 4.6784649 Z M 32.1875,6.0332031 v 1 h 1 v -1 z m 0,1 h -1 v 1 h 1 z m 0,1 v 1 h 1 v -1 z m 0,1 h -1 v 0.9999999 h 1 z m 0,0.9999999 v 1 h 1 v -1 z m 0,1 h -1 v 1 h 1 z m 0,1 v 1 h 1 v -1 z m 0,1 h -1 v 1 h 1 z m 0,1 v 1 h 1 v -1 z m 0,1 h -1 v 1 h 1 z m 0,1 v 1 h 1 v -1 z m 0,1 h -1 v 1 h 1 z m 0,1 v 1 h 1 v -1 z m 0,1 h -1 v 1 h 1 c 0.04125,-0.367529 0,-1 0,-1 z m 0,1 v 1 h 1 v -1 z m 0,1 h -1 v 1 h 1 z m 0,1 v 1 h 1 v -1 z m 0,1 h -1 v 1 h 1 z m 0,1 v 1 h 1 v -1 z m 0,1 h -1 v 1 h 1 z m 0,1 v 1 h 1 v -1 z m 0,1 h -1 c -0.0049,0.04347 -0.0074,0.08816 -0.0098,0.128906 -1.721073,0.449126 -2.990234,2.018304 -2.990234,3.871094 v 8 c 0,2.2 1.79,4 4,4 2.21,0 4,-1.8 4,-4 v -8 c 0,-2.2 -1.789334,-4 -4,-4 z m 0,2 c -1.104,0 -2,0.8 -2,2 0,0.999998 0.896,2 2,2 1.104,0 2,-1.000002 2,-2 0,-1.2 -0.896,-2 -2,-2 z m 0,6 c -1.10457,0 -2,0.89543 -2,2 v 2 c 0,1.10457 0.89543,2 2,2 1.10457,0 2,-0.89543 2,-2 v -2 c 0,-1.10457 -0.89543,-2 -2,-2 z M 16.669922,45.794922 v 6.878906 h 2.789062 c 1.539636,0 2.695026,-0.07323 3.464844,-0.220703 0.769818,-0.150541 1.430599,-0.403383 1.980469,-0.759766 0.481136,-0.310298 0.838571,-0.66868 1.072265,-1.074218 0.233695,-0.408611 0.34961,-0.873366 0.34961,-1.392579 0,-0.513068 -0.115915,-0.971414 -0.34961,-1.376953 -0.233694,-0.405538 -0.591129,-0.76392 -1.072265,-1.074218 C 24.359009,46.419008 23.702736,46.167 22.9375,46.019531 22.176847,45.86899 21.01695,45.794922 19.458984,45.794922 Z m 11.683594,0 v 6.878906 h 7.292968 V 51.333984 H 31 v -1.576172 h 4.226562 V 48.416016 H 31 v -1.28125 h 4.496094 v -1.339844 z m 9.617187,0 v 6.878906 h 4.390625 c 1.36551,0 2.383725,-0.162621 3.052734,-0.488281 0.669009,-0.32566 1.003907,-0.820766 1.003907,-1.484375 0,-0.43319 -0.157157,-0.797693 -0.46875,-1.095703 -0.311593,-0.29801 -0.750161,-0.50268 -1.31836,-0.613281 0.444478,-0.113674 0.78193,-0.287993 1.015625,-0.521485 0.233695,-0.236564 0.351563,-0.520591 0.351563,-0.855469 0,-0.635958 -0.321375,-1.099878 -0.962891,-1.388672 -0.636932,-0.288792 -1.666716,-0.43164 -3.091797,-0.43164 z m 2.644531,1.207031 v 1.455078 h 1.464844 c 0.416985,0 0.733853,-0.0607 0.949219,-0.183593 0.215366,-0.122891 0.322266,-0.303333 0.322265,-0.542969 10e-7,-0.236565 -0.106899,-0.416172 -0.322265,-0.539063 -0.215366,-0.125963 -0.532234,-0.189453 -0.949219,-0.189453 z m -21.298828,0.132813 v 4.199218 h 0.947266 c 1.081411,0 1.90641,-0.179607 2.474609,-0.539062 0.572782,-0.359455 0.859375,-0.883245 0.859375,-1.56836 0,-0.682042 -0.283363,-1.200257 -0.851562,-1.55664 -0.568199,-0.356383 -1.396429,-0.535156 -2.482422,-0.535156 z m 21.298828,2.53125 v 1.800781 h 1.554688 c 0.531541,0 0.929541,-0.07407 1.195312,-0.224609 0.270353,-0.150541 0.40625,-0.37944 0.40625,-0.683594 0,-0.29801 -0.132667,-0.5205 -0.398437,-0.667969 -0.265771,-0.150539 -0.667002,-0.224609 -1.203125,-0.224609 z" />
    </clipPath>
  </defs>
  <path
     x="9.6784649"
     y="6.9709001"
     width="43.343258"
     height="49.998001"
     rx="8.6689987"
     ry="10"
     fill="url(#linearGradient862)"
     stroke-width="3.14173"
     id="rect35"
     style="fill:#2c2c2c;fill-opacity:1"
     clip-path="url(#clipPath248)"
     inkscape:path-effect="#path-effect252"
     d="m 18.347464,6.9709001 h 26.00526 c 4.802625,0 8.668999,4.4599999 8.668999,9.9999999 v 29.998001 c 0,5.54 -3.866374,10 -8.668999,10 h -26.00526 c -4.802626,0 -8.6689991,-4.46 -8.6689991,-10 V 16.9709 c 0,-5.54 3.8663731,-9.9999999 8.6689991,-9.9999999 z"
     sodipodi:type="rect" />
  <ellipse
     cx="31.366306"
     cy="32.043999"
     fill-opacity="0"
     stroke-width="1.46319"
     id="circle39"
     rx="26.007862"
     ry="30.000999" />
  <circle
     cx="32.02"
     cy="32.044"
     r="0"
     fill="url(#b)"
     stroke-width="1.5715"
     id="circle41" />
  <g
     aria-label="DEB"
     transform="matrix(1.2212657,0,0,0.81882264,-2.4141513,0.01343668)"
     id="text93"
     style="font-weight:bold;font-size:11.5263px;line-height:1.25;font-family:sans-serif;-inkscape-font-specification:'sans-serif Bold';fill:#e6e6e6;stroke-width:0.288159" />
</svg>
