<?xml version="1.0" encoding="UTF-8" standalone="no"?>
<svg
   width="64"
   height="64"
   version="1.1"
   id="svg125"
   sodipodi:docname="image-jpeg2000.svg"
   inkscape:version="1.1 (1:1.1+rc+202105240936+c4e8f9ed74)"
   xmlns:inkscape="http://www.inkscape.org/namespaces/inkscape"
   xmlns:sodipodi="http://sodipodi.sourceforge.net/DTD/sodipodi-0.dtd"
   xmlns:xlink="http://www.w3.org/1999/xlink"
   xmlns="http://www.w3.org/2000/svg"
   xmlns:svg="http://www.w3.org/2000/svg"
   xmlns:rdf="http://www.w3.org/1999/02/22-rdf-syntax-ns#"
   xmlns:cc="http://creativecommons.org/ns#"
   xmlns:dc="http://purl.org/dc/elements/1.1/">
  <metadata
     id="metadata129">
    <rdf:RDF>
      <cc:Work
         rdf:about="">
        <dc:format>image/svg+xml</dc:format>
        <dc:type
           rdf:resource="http://purl.org/dc/dcmitype/StillImage" />
        <dc:title />
      </cc:Work>
    </rdf:RDF>
  </metadata>
  <sodipodi:namedview
     pagecolor="#ffffff"
     bordercolor="#666666"
     borderopacity="1"
     objecttolerance="10"
     gridtolerance="10"
     guidetolerance="10"
     inkscape:pageopacity="0"
     inkscape:pageshadow="2"
     inkscape:window-width="1541"
     inkscape:window-height="738"
     id="namedview127"
     showgrid="false"
     inkscape:zoom="12.578125"
     inkscape:cx="13.277019"
     inkscape:cy="43.925466"
     inkscape:window-x="173"
     inkscape:window-y="258"
     inkscape:window-maximized="0"
     inkscape:current-layer="g121"
     inkscape:document-rotation="0"
     inkscape:pagecheckerboard="0" />
  <defs
     id="defs47">
    <inkscape:path-effect
       effect="powerclip"
       id="path-effect165"
       is_visible="true"
       lpeversion="1"
       inverse="true"
       flatten="false"
       hide_clip="false"
       message="Use fill-rule evenodd on &lt;b&gt;fill and stroke&lt;/b&gt; dialog if no flatten result after convert clip to paths." />
    <linearGradient
       id="linearGradient6721-3"
       x1="7.9373"
       x2="7.9373"
       y1="15.346"
       y2="16.933"
       gradientUnits="userSpaceOnUse"
       xlink:href="#linearGradient6261" />
    <linearGradient
       id="linearGradient6261">
      <stop
         offset="0"
         id="stop3" />
      <stop
         stop-opacity="0"
         offset="1"
         id="stop5" />
    </linearGradient>
    <radialGradient
       id="radialGradient6723-5"
       cx="35"
       cy="4"
       r="3.7275"
       gradientTransform="matrix(1.696 0 0 1.0731 -24.361 -.29238)"
       gradientUnits="userSpaceOnUse"
       xlink:href="#linearGradient6261" />
    <linearGradient
       id="linearGradient6725-3"
       x1="43"
       x2="46.748"
       y1="12"
       y2="8.2517"
       gradientUnits="userSpaceOnUse"
       xlink:href="#linearGradient6261" />
    <radialGradient
       id="radialGradient6727-5"
       cx="52"
       cy="22"
       r="5.2061"
       gradientTransform="matrix(.96042 0 0 1.3331 2.0581 -7.3283)"
       gradientUnits="userSpaceOnUse"
       xlink:href="#linearGradient6261" />
    <linearGradient
       id="linearGradient6729-6"
       x1="5.8207"
       x2="5.8207"
       y1="1.0583"
       gradientUnits="userSpaceOnUse"
       xlink:href="#linearGradient6261" />
    <radialGradient
       id="radialGradient6731-2"
       cx="3.1749"
       cy="1.3229"
       r=".79373"
       gradientTransform="matrix(-2.1078e-8 -1.3333 1.6667 -2.6348e-8 .97012 5.2916)"
       gradientUnits="userSpaceOnUse"
       xlink:href="#linearGradient6261" />
    <linearGradient
       id="linearGradient6733-9"
       x1="13.758"
       x2="15.081"
       y1="10.583"
       y2="10.583"
       gradientUnits="userSpaceOnUse"
       xlink:href="#linearGradient6261" />
    <linearGradient
       id="linearGradient6735-1"
       x1="3.1749"
       x2="1.852"
       y1="8.4665"
       y2="8.4665"
       gradientUnits="userSpaceOnUse"
       xlink:href="#linearGradient6261" />
    <radialGradient
       id="radialGradient6737-2"
       cx="13.758"
       cy="15.346"
       r=".79373"
       gradientTransform="matrix(5.1718e-7 2 -1.6667 4.3098e-7 39.334 -12.171)"
       gradientUnits="userSpaceOnUse"
       xlink:href="#linearGradient6261" />
    <radialGradient
       id="radialGradient6739-7"
       cx="3.1749"
       cy="15.346"
       r=".79373"
       gradientTransform="matrix(-1.6667 -1.37e-6 1.644e-6 -2 8.4665 46.037)"
       gradientUnits="userSpaceOnUse"
       xlink:href="#linearGradient6261" />
    <linearGradient
       id="linearGradient6741-0"
       x1="7.9373"
       x2="7.9373"
       y1="15.346"
       y2="16.668"
       gradientUnits="userSpaceOnUse"
       xlink:href="#linearGradient6261" />
    <radialGradient
       id="radialGradient6743-9"
       cx="35"
       cy="4"
       r="3.7275"
       gradientTransform="matrix(1.6115 -1.9122e-7 9.5496e-8 .80482 -21.403 .78072)"
       gradientUnits="userSpaceOnUse"
       xlink:href="#linearGradient6261" />
    <linearGradient
       id="linearGradient6745-3"
       x1="43"
       x2="46.004"
       y1="12"
       y2="8.9965"
       gradientUnits="userSpaceOnUse"
       xlink:href="#linearGradient6261" />
    <radialGradient
       id="radialGradient6747-6"
       cx="52"
       cy="22"
       r="5.2061"
       gradientTransform="matrix(.76834 -9.6042e-8 1.534e-7 1.2272 12.047 -4.9986)"
       gradientUnits="userSpaceOnUse"
       xlink:href="#linearGradient6261" />
    <linearGradient
       id="linearGradient6749-0"
       x1="5.8207"
       x2="5.8207"
       y1="1.0583"
       y2=".26458"
       gradientUnits="userSpaceOnUse"
       xlink:href="#linearGradient6261" />
    <radialGradient
       id="radialGradient6751-6"
       cx="3.1749"
       cy="1.3229"
       r=".79373"
       gradientTransform="matrix(-7.442e-8 -1 1.3333 -9.9226e-8 1.4111 4.2333)"
       gradientUnits="userSpaceOnUse"
       xlink:href="#linearGradient6261" />
    <linearGradient
       id="linearGradient6753-2"
       x1="13.758"
       x2="14.816"
       y1="10.583"
       y2="10.583"
       gradientUnits="userSpaceOnUse"
       xlink:href="#linearGradient6261" />
    <linearGradient
       id="linearGradient6755-6"
       x1="3.1749"
       x2="2.1166"
       y1="8.4665"
       y2="8.4665"
       gradientUnits="userSpaceOnUse"
       xlink:href="#linearGradient6261" />
    <radialGradient
       id="radialGradient6757-1"
       cx="13.758"
       cy="15.346"
       r=".79373"
       gradientTransform="matrix(0 1.6667 -1.3333 0 34.219 -7.5846)"
       gradientUnits="userSpaceOnUse"
       xlink:href="#linearGradient6261" />
    <radialGradient
       id="radialGradient6759-8"
       cx="3.1749"
       cy="15.346"
       r=".79373"
       gradientTransform="matrix(-1.3333 0 0 -1.6667 7.4082 40.921)"
       gradientUnits="userSpaceOnUse"
       xlink:href="#linearGradient6261" />
    <linearGradient
       id="linearGradient6761-7"
       x1="21.039"
       x2="21.039"
       y1="2"
       y2="62"
       gradientTransform="matrix(.26458 0 0 .26458 0 -.26458)"
       gradientUnits="userSpaceOnUse">
      <stop
         stop-color="#ff5b59"
         offset="0"
         id="stop27" />
      <stop
         stop-color="#ff983d"
         offset="1"
         id="stop29" />
    </linearGradient>
    <radialGradient
       id="radialGradient6763-2"
       cx="40"
       cy="12"
       r="8"
       gradientTransform="matrix(1.5 0 0 -2 -14 40)"
       gradientUnits="userSpaceOnUse"
       xlink:href="#linearGradient6261" />
    <radialGradient
       id="radialGradient6765-3"
       cx="10.583"
       cy="4.2333"
       r="2.1166"
       gradientTransform="matrix(-2 3.1236e-7 -3.1236e-7 -2 31.749 12.7)"
       gradientUnits="userSpaceOnUse"
       xlink:href="#linearGradient6261" />
    <radialGradient
       id="radialGradient6767-7"
       cx="40"
       cy="12"
       r="8"
       gradientTransform="matrix(0 -1.5 2 0 16 70)"
       gradientUnits="userSpaceOnUse"
       xlink:href="#linearGradient6261" />
    <linearGradient
       id="linearGradient7282"
       x1="10.583"
       x2="6.3499"
       y1="3.1749"
       y2="3.1749"
       gradientTransform="matrix(1 0 0 .66667 0 1.4111)"
       gradientUnits="userSpaceOnUse"
       xlink:href="#linearGradient6261" />
    <linearGradient
       id="linearGradient7284"
       x1="10.583"
       x2="8.7311"
       y1="3.0426"
       y2="3.0426"
       gradientTransform="matrix(1 0 0 .66667 0 1.4111)"
       gradientUnits="userSpaceOnUse"
       xlink:href="#linearGradient6261" />
    <radialGradient
       id="radialGradient6773-5"
       cx="10.583"
       cy="4.2333"
       r="2.1166"
       gradientTransform="matrix(-.875 -1.6564e-7 1.6631e-7 -.87849 19.843 7.9521)"
       gradientUnits="userSpaceOnUse"
       xlink:href="#linearGradient6261" />
    <radialGradient
       id="radialGradient6775-9"
       cx="40"
       cy="12"
       r="8"
       gradientTransform="matrix(0 -1.3078 .87983 0 29.442 62.311)"
       gradientUnits="userSpaceOnUse"
       xlink:href="#linearGradient6261" />
    <linearGradient
       id="linearGradient7286"
       x1="10.583"
       x2="6.3499"
       y1="3.1749"
       y2="3.1749"
       gradientTransform="matrix(1 0 0 .66667 -14.816 9.3484)"
       gradientUnits="userSpaceOnUse"
       xlink:href="#linearGradient6261" />
    <linearGradient
       id="linearGradient7288"
       x1="10.583"
       x2="8.7237"
       y1="3.0426"
       y2="3.0426"
       gradientTransform="matrix(1 0 0 .66667 -14.816 9.3484)"
       gradientUnits="userSpaceOnUse"
       xlink:href="#linearGradient6261" />
    <radialGradient
       id="radialGradient6781-2"
       cx="40"
       cy="12"
       r="8"
       gradientTransform="matrix(1.4336 0 0 -.87849 -11.344 26.542)"
       gradientUnits="userSpaceOnUse"
       xlink:href="#linearGradient6261" />
    <linearGradient
       id="linearGradient7290"
       x1="40"
       x2="46"
       y1="17"
       y2="11"
       gradientTransform="matrix(.26458 0 0 .26458 -1.6667e-7 -.26458)"
       gradientUnits="userSpaceOnUse">
      <stop
         stop-color="#fefefe"
         offset="0"
         id="stop42" />
      <stop
         stop-color="#e9e9e9"
         offset="1"
         id="stop44" />
    </linearGradient>
    <clipPath
       clipPathUnits="userSpaceOnUse"
       id="clipPath161">
      <path
         id="path163"
         style="display:none;fill:#e6e6e6;stroke-width:0.0389438"
         d="m 8.4746687,4.9724463 c -0.4203077,0 -0.7611794,0.3456683 -0.7611794,0.7720312 0,0.4263628 0.3408717,0.7720311 0.7611794,0.7720311 0.4203075,0 0.7606626,-0.3456683 0.7606626,-0.7720311 0,-0.4263629 -0.3403551,-0.7720312 -0.7606626,-0.7720312 z M 6.6246878,5.4912679 C 6.4784699,5.4807853 6.3281464,5.5131247 6.1916475,5.5930683 5.8276508,5.8062493 5.702963,6.2780059 5.913117,6.6472476 6.1232705,7.0164877 6.588313,7.1430942 6.95231,6.9299122 7.316307,6.7167314 7.4409945,6.2444566 7.2308408,5.8752164 7.0994947,5.6444404 6.8683845,5.5087382 6.6246878,5.4912679 Z m 3.6994452,0 C 10.080436,5.508738 9.8493259,5.6444404 9.7179797,5.8752164 9.507826,6.2444566 9.6325135,6.7167314 9.9965105,6.9299122 10.360507,7.1430929 10.826067,7.0164877 11.03622,6.6472476 11.246374,6.2780059 11.121686,5.8062493 10.75769,5.5930683 10.621191,5.5131252 10.470351,5.4807855 10.324133,5.4912679 Z M 8.4746687,6.7738523 c -0.2802047,0 -0.5074529,0.2299288 -0.5074529,0.5141705 0,0.284242 0.2272482,0.5146875 0.5074529,0.5146875 0.2802051,0 0.5074527,-0.2304455 0.5074527,-0.5146875 0,-0.2842417 -0.2272481,-0.5141705 -0.5074527,-0.5141705 z M 5.1261001,6.9040745 C 4.8824034,6.9215446 4.6512933,7.0572471 4.5199471,7.2880228 4.3097934,7.6572645 4.4344806,8.129538 4.7984776,8.3427188 5.1624746,8.5559009 5.6280337,8.4292954 5.8381876,8.060054 6.0483414,7.6908125 5.9236538,7.2190557 5.5596571,7.005875 5.423158,6.9259318 5.272318,6.8935922 5.1261001,6.9040745 Z m 6.6966199,0 c -0.146217,-0.010483 -0.297057,0.021857 -0.433556,0.1018005 -0.363997,0.2131807 -0.488685,0.6849375 -0.278531,1.054179 0.210154,0.3692414 0.675713,0.4958469 1.03971,0.2826648 C 12.51434,8.129538 12.639027,7.6572645 12.428873,7.2880228 12.297527,7.0572471 12.066417,6.9215446 11.82272,6.9040745 Z M 7.3682974,7.0849384 C 7.2708189,7.0779508 7.170431,7.0993367 7.0794317,7.1526333 6.8367671,7.2947542 6.7532977,7.6097754 6.8934001,7.8559361 7.0335028,8.1020965 7.34422,8.1861557 7.5868846,8.0440346 7.8295492,7.9019137 7.9125016,7.5874092 7.7723995,7.3412485 7.6848352,7.1873984 7.530762,7.0965854 7.3682974,7.0849384 Z m 2.2127424,0 C 9.4185755,7.0965851 9.2645021,7.1873984 9.1769378,7.3412485 9.0368354,7.5874092 9.1197883,7.9019137 9.3624526,8.0440346 9.6051175,8.1861557 9.9153178,8.1020965 10.05542,7.8559361 10.195523,7.6097754 10.11257,7.2947542 9.8699055,7.1526333 9.7789062,7.099338 9.6785184,7.0779503 9.5810398,7.0849384 Z M 6.4619103,7.9329323 C 6.2994457,7.9445791 6.1453723,8.0348756 6.0578082,8.1887258 5.9177058,8.4348865 6.0011753,8.7499077 6.2438398,8.8920285 6.4865047,9.0341494 6.7967049,8.9495738 6.9368076,8.7034133 7.07691,8.4572526 6.9934403,8.1427482 6.750776,8.0006273 6.6597767,7.947332 6.5593888,7.9259443 6.4619103,7.9329323 Z m 4.0249997,0 c -0.09748,-0.00699 -0.197866,0.014398 -0.288865,0.067695 -0.2426645,0.1421209 -0.3256178,0.4566253 -0.185515,0.702786 0.140102,0.2461605 0.450303,0.3307361 0.692967,0.1886152 0.242665,-0.1421208 0.325618,-0.457142 0.185515,-0.7033027 C 10.803448,8.0348756 10.649375,7.9445793 10.48691,7.9329323 Z M 8.4746687,8.060054 c -0.1401026,0 -0.2537265,0.1152227 -0.2537265,0.2573439 5e-7,0.1421208 0.1136239,0.2573436 0.2537265,0.2573436 0.1401024,0 0.2537264,-0.1152228 0.2537264,-0.2573436 0,-0.1421212 -0.113624,-0.2573439 -0.2537264,-0.2573439 z M 7.8090891,8.2347172 c -0.032702,0.00412 -0.065267,0.01479 -0.0956,0.032555 -0.1213322,0.07106 -0.1630668,0.2283122 -0.093016,0.351393 0.070051,0.1230797 0.2254098,0.1651092 0.3467422,0.094049 C 8.0885483,8.6416536 8.1302826,8.4844015 8.0602315,8.3613218 8.0076931,8.2690113 7.9071947,8.222368 7.8090891,8.2347172 Z m 1.3311593,0 c -0.098106,-0.012351 -0.1986043,0.034294 -0.2511427,0.1266046 -0.070051,0.1230797 -0.028317,0.2803318 0.093016,0.351393 0.1213324,0.07106 0.2761742,0.02903 0.3462255,-0.094049 0.070051,-0.1230808 0.028316,-0.2803331 -0.093016,-0.351393 -0.030333,-0.017767 -0.062381,-0.028439 -0.095083,-0.032556 z m -1.7326778,0.470763 c -0.098106,-0.012348 -0.198604,0.034294 -0.2511424,0.1266049 -0.070051,0.1230811 -0.028316,0.2808499 0.093016,0.3519098 0.1213324,0.071062 0.2761742,0.028515 0.3462255,-0.094566 0.070051,-0.1230795 0.028833,-0.2803331 -0.092499,-0.351393 -0.030333,-0.017764 -0.062898,-0.028439 -0.0956,-0.032556 z m 2.134196,0 c -0.032702,0.00412 -0.065266,0.01479 -0.0956,0.032556 -0.1213325,0.07106 -0.1630673,0.228312 -0.093016,0.351393 0.070051,0.1230807 0.2254099,0.1656276 0.3467423,0.094566 C 9.8212258,9.112935 9.8629601,8.9551662 9.7929093,8.8320851 9.7403707,8.7397746 9.6398725,8.6931315 9.5417666,8.7054802 Z M 4.6692891,8.8320851 c -0.4203075,0 -0.7611792,0.3456681 -0.7611792,0.7720312 0,0.4263627 0.3408715,0.7720307 0.7611792,0.7720307 0.4203074,0 0.7611792,-0.345668 0.7611792,-0.7720307 0,-0.4263631 -0.3408718,-0.7720312 -0.7611792,-0.7720312 z m 7.6102419,0 c -0.420307,0 -0.760662,0.3456681 -0.760662,0.7720312 0,0.4263627 0.340355,0.7720307 0.760662,0.7720307 0.420308,0 0.76118,-0.345668 0.76118,-0.7720307 0,-0.4263631 -0.340872,-0.7720312 -0.76118,-0.7720312 z M 6.1916475,9.0894288 c -0.2802048,0 -0.5074526,0.2304455 -0.5074526,0.5146875 0,0.2842415 0.2272478,0.5146877 0.5074526,0.5146877 0.2802051,0 0.5069359,-0.2304462 0.5069362,-0.5146877 -3e-7,-0.284242 -0.2267311,-0.5146875 -0.5069362,-0.5146875 z m 4.5660425,0 c -0.280205,0 -0.507453,0.2304455 -0.507453,0.5146875 0,0.2842415 0.227248,0.5146877 0.507453,0.5146877 0.280204,0 0.507453,-0.2304462 0.507453,-0.5146877 0,-0.284242 -0.227249,-0.5146875 -0.507453,-0.5146875 z M 7.2060366,9.3467724 c -0.1401024,0 -0.2537266,0.1152228 -0.2537266,0.2573439 0,0.1421209 0.1136242,0.2573436 0.2537266,0.2573436 0.1401024,0 0.2537263,-0.1152227 0.2537263,-0.2573436 3e-7,-0.1421211 -0.1136239,-0.2573439 -0.2537263,-0.2573439 z m 2.5367473,0 c -0.1401021,0 -0.2537263,0.1152228 -0.2537263,0.2573439 0,0.1421209 0.1136242,0.2573436 0.2537263,0.2573436 0.1401026,0 0.2537266,-0.1152227 0.2537266,-0.2573436 0,-0.1421211 -0.113624,-0.2573439 -0.2537266,-0.2573439 z m 2.3026581,2.4416646 c -0.441813,0 -0.789745,0.0983 -1.043844,0.295067 -0.2541,0.196768 -0.380848,0.467114 -0.380848,0.810271 0,0.339354 0.124609,0.607984 0.37413,0.806654 0.249521,0.197718 0.587972,0.296616 1.014906,0.296616 0.188858,0 0.371898,-0.01634 0.54931,-0.04961 0.177412,-0.03327 0.348315,-0.08332 0.513137,-0.149859 v -1.02369 h -1.029892 v 0.367929 h 0.403585 v 0.413403 c -0.04693,0.01521 -0.100158,0.0265 -0.159677,0.03411 -0.05837,0.0067 -0.122007,0.0098 -0.190682,0.0098 -0.252955,0 -0.448132,-0.06082 -0.585483,-0.183448 -0.137351,-0.122624 -0.206185,-0.296636 -0.206185,-0.521922 0,-0.227186 0.07097,-0.401799 0.212903,-0.523472 0.143074,-0.122624 0.346514,-0.183965 0.60977,-0.183965 0.14193,0 0.282954,0.01686 0.423739,0.05013 0.141929,0.03327 0.284798,0.0834 0.427872,0.150892 v -0.440792 c -0.138495,-0.05228 -0.286566,-0.09172 -0.443375,-0.118336 -0.155664,-0.02662 -0.318822,-0.03979 -0.489366,-0.03979 z m -7.5642514,0.03876 v 1.921809 c 0,0.123575 -0.035487,0.217427 -0.1064515,0.281115 -0.06982,0.06369 -0.173735,0.0956 -0.3110861,0.0956 H 3.9608189 v 0.414954 h 0.1338393 c 0.3513898,0 0.6136668,-0.0657 0.7865001,-0.196883 0.1739782,-0.131179 0.260961,-0.329575 0.260961,-0.594785 v -1.921809 z m 1.3079053,0 v 2.128511 h 0.6614457 v -0.738442 h 0.4356239 c 0.3262091,0 0.5763493,-0.06006 0.7503275,-0.17983 0.1751228,-0.120723 0.2630281,-0.292854 0.2630281,-0.516238 0,-0.222434 -0.087905,-0.393365 -0.2630281,-0.513137 C 7.4625148,11.887335 7.2123746,11.827194 6.8861655,11.827194 Z m 2.5770542,0 v 2.128511 H 10.188226 V 13.540751 H 9.0275958 V 13.053452 H 10.083325 V 12.638498 H 9.0275958 v -0.39635 h 1.1223912 v -0.414954 z m -1.9156085,0.397901 h 0.3653453 c 0.1281945,0 0.2273137,0.02566 0.2971338,0.077 0.06982,0.05133 0.1049013,0.124047 0.1049013,0.219104 0,0.09506 -0.035081,0.168889 -0.1049013,0.221171 -0.06982,0.05133 -0.1689393,0.077 -0.2971338,0.077 H 6.4505416 Z" />
      <path
         id="lpe_path-effect165"
         style="fill:#e6e6e6;stroke-width:0.0389438"
         class="powerclip"
         d="M -1.7916522,-3.7813297 H 18.718883 V 20.283949 H -1.7916522 Z m 10.2663209,8.753776 c -0.4203077,0 -0.7611794,0.3456683 -0.7611794,0.7720312 0,0.4263628 0.3408717,0.7720311 0.7611794,0.7720311 0.4203075,0 0.7606626,-0.3456683 0.7606626,-0.7720311 0,-0.4263629 -0.3403551,-0.7720312 -0.7606626,-0.7720312 z M 6.6246878,5.4912679 C 6.4784699,5.4807853 6.3281464,5.5131247 6.1916475,5.5930683 5.8276508,5.8062493 5.702963,6.2780059 5.913117,6.6472476 6.1232705,7.0164877 6.588313,7.1430942 6.95231,6.9299122 7.316307,6.7167314 7.4409945,6.2444566 7.2308408,5.8752164 7.0994947,5.6444404 6.8683845,5.5087382 6.6246878,5.4912679 Z m 3.6994452,0 C 10.080436,5.508738 9.8493259,5.6444404 9.7179797,5.8752164 9.507826,6.2444566 9.6325135,6.7167314 9.9965105,6.9299122 10.360507,7.1430929 10.826067,7.0164877 11.03622,6.6472476 11.246374,6.2780059 11.121686,5.8062493 10.75769,5.5930683 10.621191,5.5131252 10.470351,5.4807855 10.324133,5.4912679 Z M 8.4746687,6.7738523 c -0.2802047,0 -0.5074529,0.2299288 -0.5074529,0.5141705 0,0.284242 0.2272482,0.5146875 0.5074529,0.5146875 0.2802051,0 0.5074527,-0.2304455 0.5074527,-0.5146875 0,-0.2842417 -0.2272481,-0.5141705 -0.5074527,-0.5141705 z M 5.1261001,6.9040745 C 4.8824034,6.9215446 4.6512933,7.0572471 4.5199471,7.2880228 4.3097934,7.6572645 4.4344806,8.129538 4.7984776,8.3427188 5.1624746,8.5559009 5.6280337,8.4292954 5.8381876,8.060054 6.0483414,7.6908125 5.9236538,7.2190557 5.5596571,7.005875 5.423158,6.9259318 5.272318,6.8935922 5.1261001,6.9040745 Z m 6.6966199,0 c -0.146217,-0.010483 -0.297057,0.021857 -0.433556,0.1018005 -0.363997,0.2131807 -0.488685,0.6849375 -0.278531,1.054179 0.210154,0.3692414 0.675713,0.4958469 1.03971,0.2826648 C 12.51434,8.129538 12.639027,7.6572645 12.428873,7.2880228 12.297527,7.0572471 12.066417,6.9215446 11.82272,6.9040745 Z M 7.3682974,7.0849384 C 7.2708189,7.0779508 7.170431,7.0993367 7.0794317,7.1526333 6.8367671,7.2947542 6.7532977,7.6097754 6.8934001,7.8559361 7.0335028,8.1020965 7.34422,8.1861557 7.5868846,8.0440346 7.8295492,7.9019137 7.9125016,7.5874092 7.7723995,7.3412485 7.6848352,7.1873984 7.530762,7.0965854 7.3682974,7.0849384 Z m 2.2127424,0 C 9.4185755,7.0965851 9.2645021,7.1873984 9.1769378,7.3412485 9.0368354,7.5874092 9.1197883,7.9019137 9.3624526,8.0440346 9.6051175,8.1861557 9.9153178,8.1020965 10.05542,7.8559361 10.195523,7.6097754 10.11257,7.2947542 9.8699055,7.1526333 9.7789062,7.099338 9.6785184,7.0779503 9.5810398,7.0849384 Z M 6.4619103,7.9329323 C 6.2994457,7.9445791 6.1453723,8.0348756 6.0578082,8.1887258 5.9177058,8.4348865 6.0011753,8.7499077 6.2438398,8.8920285 6.4865047,9.0341494 6.7967049,8.9495738 6.9368076,8.7034133 7.07691,8.4572526 6.9934403,8.1427482 6.750776,8.0006273 6.6597767,7.947332 6.5593888,7.9259443 6.4619103,7.9329323 Z m 4.0249997,0 c -0.09748,-0.00699 -0.197866,0.014398 -0.288865,0.067695 -0.2426645,0.1421209 -0.3256178,0.4566253 -0.185515,0.702786 0.140102,0.2461605 0.450303,0.3307361 0.692967,0.1886152 0.242665,-0.1421208 0.325618,-0.457142 0.185515,-0.7033027 C 10.803448,8.0348756 10.649375,7.9445793 10.48691,7.9329323 Z M 8.4746687,8.060054 c -0.1401026,0 -0.2537265,0.1152227 -0.2537265,0.2573439 5e-7,0.1421208 0.1136239,0.2573436 0.2537265,0.2573436 0.1401024,0 0.2537264,-0.1152228 0.2537264,-0.2573436 0,-0.1421212 -0.113624,-0.2573439 -0.2537264,-0.2573439 z M 7.8090891,8.2347172 c -0.032702,0.00412 -0.065267,0.01479 -0.0956,0.032555 -0.1213322,0.07106 -0.1630668,0.2283122 -0.093016,0.351393 0.070051,0.1230797 0.2254098,0.1651092 0.3467422,0.094049 C 8.0885483,8.6416536 8.1302826,8.4844015 8.0602315,8.3613218 8.0076931,8.2690113 7.9071947,8.222368 7.8090891,8.2347172 Z m 1.3311593,0 c -0.098106,-0.012351 -0.1986043,0.034294 -0.2511427,0.1266046 -0.070051,0.1230797 -0.028317,0.2803318 0.093016,0.351393 0.1213324,0.07106 0.2761742,0.02903 0.3462255,-0.094049 0.070051,-0.1230808 0.028316,-0.2803331 -0.093016,-0.351393 -0.030333,-0.017767 -0.062381,-0.028439 -0.095083,-0.032556 z m -1.7326778,0.470763 c -0.098106,-0.012348 -0.198604,0.034294 -0.2511424,0.1266049 -0.070051,0.1230811 -0.028316,0.2808499 0.093016,0.3519098 0.1213324,0.071062 0.2761742,0.028515 0.3462255,-0.094566 0.070051,-0.1230795 0.028833,-0.2803331 -0.092499,-0.351393 -0.030333,-0.017764 -0.062898,-0.028439 -0.0956,-0.032556 z m 2.134196,0 c -0.032702,0.00412 -0.065266,0.01479 -0.0956,0.032556 -0.1213325,0.07106 -0.1630673,0.228312 -0.093016,0.351393 0.070051,0.1230807 0.2254099,0.1656276 0.3467423,0.094566 C 9.8212258,9.112935 9.8629601,8.9551662 9.7929093,8.8320851 9.7403707,8.7397746 9.6398725,8.6931315 9.5417666,8.7054802 Z M 4.6692891,8.8320851 c -0.4203075,0 -0.7611792,0.3456681 -0.7611792,0.7720312 0,0.4263627 0.3408715,0.7720307 0.7611792,0.7720307 0.4203074,0 0.7611792,-0.345668 0.7611792,-0.7720307 0,-0.4263631 -0.3408718,-0.7720312 -0.7611792,-0.7720312 z m 7.6102419,0 c -0.420307,0 -0.760662,0.3456681 -0.760662,0.7720312 0,0.4263627 0.340355,0.7720307 0.760662,0.7720307 0.420308,0 0.76118,-0.345668 0.76118,-0.7720307 0,-0.4263631 -0.340872,-0.7720312 -0.76118,-0.7720312 z M 6.1916475,9.0894288 c -0.2802048,0 -0.5074526,0.2304455 -0.5074526,0.5146875 0,0.2842415 0.2272478,0.5146877 0.5074526,0.5146877 0.2802051,0 0.5069359,-0.2304462 0.5069362,-0.5146877 -3e-7,-0.284242 -0.2267311,-0.5146875 -0.5069362,-0.5146875 z m 4.5660425,0 c -0.280205,0 -0.507453,0.2304455 -0.507453,0.5146875 0,0.2842415 0.227248,0.5146877 0.507453,0.5146877 0.280204,0 0.507453,-0.2304462 0.507453,-0.5146877 0,-0.284242 -0.227249,-0.5146875 -0.507453,-0.5146875 z M 7.2060366,9.3467724 c -0.1401024,0 -0.2537266,0.1152228 -0.2537266,0.2573439 0,0.1421209 0.1136242,0.2573436 0.2537266,0.2573436 0.1401024,0 0.2537263,-0.1152227 0.2537263,-0.2573436 3e-7,-0.1421211 -0.1136239,-0.2573439 -0.2537263,-0.2573439 z m 2.5367473,0 c -0.1401021,0 -0.2537263,0.1152228 -0.2537263,0.2573439 0,0.1421209 0.1136242,0.2573436 0.2537263,0.2573436 0.1401026,0 0.2537266,-0.1152227 0.2537266,-0.2573436 0,-0.1421211 -0.113624,-0.2573439 -0.2537266,-0.2573439 z m 2.3026581,2.4416646 c -0.441813,0 -0.789745,0.0983 -1.043844,0.295067 -0.2541,0.196768 -0.380848,0.467114 -0.380848,0.810271 0,0.339354 0.124609,0.607984 0.37413,0.806654 0.249521,0.197718 0.587972,0.296616 1.014906,0.296616 0.188858,0 0.371898,-0.01634 0.54931,-0.04961 0.177412,-0.03327 0.348315,-0.08332 0.513137,-0.149859 v -1.02369 h -1.029892 v 0.367929 h 0.403585 v 0.413403 c -0.04693,0.01521 -0.100158,0.0265 -0.159677,0.03411 -0.05837,0.0067 -0.122007,0.0098 -0.190682,0.0098 -0.252955,0 -0.448132,-0.06082 -0.585483,-0.183448 -0.137351,-0.122624 -0.206185,-0.296636 -0.206185,-0.521922 0,-0.227186 0.07097,-0.401799 0.212903,-0.523472 0.143074,-0.122624 0.346514,-0.183965 0.60977,-0.183965 0.14193,0 0.282954,0.01686 0.423739,0.05013 0.141929,0.03327 0.284798,0.0834 0.427872,0.150892 v -0.440792 c -0.138495,-0.05228 -0.286566,-0.09172 -0.443375,-0.118336 -0.155664,-0.02662 -0.318822,-0.03979 -0.489366,-0.03979 z m -7.5642514,0.03876 v 1.921809 c 0,0.123575 -0.035487,0.217427 -0.1064515,0.281115 -0.06982,0.06369 -0.173735,0.0956 -0.3110861,0.0956 H 3.9608189 v 0.414954 h 0.1338393 c 0.3513898,0 0.6136668,-0.0657 0.7865001,-0.196883 0.1739782,-0.131179 0.260961,-0.329575 0.260961,-0.594785 v -1.921809 z m 1.3079053,0 v 2.128511 h 0.6614457 v -0.738442 h 0.4356239 c 0.3262091,0 0.5763493,-0.06006 0.7503275,-0.17983 0.1751228,-0.120723 0.2630281,-0.292854 0.2630281,-0.516238 0,-0.222434 -0.087905,-0.393365 -0.2630281,-0.513137 C 7.4625148,11.887335 7.2123746,11.827194 6.8861655,11.827194 Z m 2.5770542,0 v 2.128511 H 10.188226 V 13.540751 H 9.0275958 V 13.053452 H 10.083325 V 12.638498 H 9.0275958 v -0.39635 h 1.1223912 v -0.414954 z m -1.9156085,0.397901 v 0.594275 h 0.3653453 c 0.1281945,0 0.2273138,-0.02567 0.2971338,-0.077 0.06982,-0.05228 0.1049013,-0.126111 0.1049013,-0.221171 0,-0.09506 -0.035081,-0.167774 -0.1049013,-0.219104 -0.06982,-0.05134 -0.1689393,-0.077 -0.2971338,-0.077 z" />
    </clipPath>
  </defs>
  <g
     transform="matrix(3.7796 0 0 3.7796 -.021092 1.0245)"
     id="g121">
    <rect
       x="8.7209"
       y="-.54211"
       width="6.6358"
       height="6.6348"
       fill="none"
       id="rect97" />
    <path
       d="m 3.6653411,1.219379 c -0.2531703,0 -0.4569933,0.2091037 -0.4569933,0.4688332 V 14.815114 c 0,0.259739 0.203823,0.468835 0.4569933,0.468835 H 13.26189 c 0.25318,0 0.456993,-0.209104 0.456993,-0.468835 V 5.6725322 c 0,-0.2344167 -0.139155,-0.6115936 -0.456993,-0.9376488 l -2.970423,-3.04738 C 9.9857202,1.2905865 9.6059778,1.2186703 9.3774984,1.2186703 Z"
       fill="url(#linearGradient6761-7)"
       stroke-width="0.231438"
       id="path93-3"
       style="fill:#2c2c2c"
       clip-path="url(#clipPath161)"
       inkscape:path-effect="#path-effect165"
       inkscape:original-d="m 3.6653411,1.219379 c -0.2531703,0 -0.4569933,0.2091037 -0.4569933,0.4688332 V 14.815114 c 0,0.259739 0.203823,0.468835 0.4569933,0.468835 H 13.26189 c 0.25318,0 0.456993,-0.209104 0.456993,-0.468835 V 5.6725322 c 0,-0.2344167 -0.139155,-0.6115936 -0.456993,-0.9376488 l -2.970423,-3.04738 C 9.9857202,1.2905865 9.6059778,1.2186703 9.3774984,1.2186703 Z" />
    <g
       transform="matrix(0.03891651,0,0,0.03897105,3.8824023,4.9203073)"
       id="g62"
       style="fill:#e6e6e6" />
    <g
       aria-label="JPEG"
       transform="matrix(0.24633176,0,0,0.20457587,1.95683,1.353613)"
       id="text31-3"
       style="font-weight:bold;font-size:14.2742px;line-height:1.25;font-family:sans-serif;-inkscape-font-specification:'sans-serif Bold';fill:#f2f2f2;stroke-width:0.356857" />
  </g>
</svg>
