<?xml version="1.0" encoding="UTF-8" standalone="no"?>
<svg
   width="64"
   height="64"
   version="1.1"
   id="svg73"
   sodipodi:docname="rar.svg"
   inkscape:version="1.1 (1:1.1+rc+202105240936+c4e8f9ed74)"
   xmlns:inkscape="http://www.inkscape.org/namespaces/inkscape"
   xmlns:sodipodi="http://sodipodi.sourceforge.net/DTD/sodipodi-0.dtd"
   xmlns="http://www.w3.org/2000/svg"
   xmlns:svg="http://www.w3.org/2000/svg"
   xmlns:rdf="http://www.w3.org/1999/02/22-rdf-syntax-ns#"
   xmlns:cc="http://creativecommons.org/ns#"
   xmlns:dc="http://purl.org/dc/elements/1.1/">
  <metadata
     id="metadata77">
    <rdf:RDF>
      <cc:Work
         rdf:about="">
        <dc:format>image/svg+xml</dc:format>
        <dc:type
           rdf:resource="http://purl.org/dc/dcmitype/StillImage" />
        <dc:title />
      </cc:Work>
    </rdf:RDF>
  </metadata>
  <sodipodi:namedview
     pagecolor="#ffffff"
     bordercolor="#666666"
     borderopacity="1"
     objecttolerance="10"
     gridtolerance="10"
     guidetolerance="10"
     inkscape:pageopacity="0"
     inkscape:pageshadow="2"
     inkscape:window-width="1920"
     inkscape:window-height="996"
     id="namedview75"
     showgrid="false"
     inkscape:zoom="17.788155"
     inkscape:cx="26.393968"
     inkscape:cy="21.503073"
     inkscape:window-x="0"
     inkscape:window-y="0"
     inkscape:window-maximized="1"
     inkscape:current-layer="svg73"
     inkscape:document-rotation="0"
     inkscape:pagecheckerboard="0" />
  <defs
     id="defs29">
    <inkscape:path-effect
       effect="powerclip"
       id="path-effect214"
       is_visible="true"
       lpeversion="1"
       inverse="true"
       flatten="false"
       hide_clip="false"
       message="Use fill-rule evenodd on &lt;b&gt;fill and stroke&lt;/b&gt; dialog if no flatten result after convert clip to paths." />
    <linearGradient
       id="b"
       x1="399.57"
       x2="399.57"
       y1="545.8"
       y2="517.8"
       gradientTransform="matrix(2.1429,0,0,2.1429,-826.36,-1107.5)"
       gradientUnits="userSpaceOnUse">
      <stop
         stop-color="#3889e9"
         offset="0"
         id="stop2" />
      <stop
         stop-color="#5ea5fb"
         offset="1"
         id="stop4" />
    </linearGradient>
    <linearGradient
       id="linearGradient862"
       x1="7.9373"
       x2="7.9373"
       y1="15.081"
       y2="1.852"
       gradientTransform="matrix(3.3743 0 0 3.3743 3.4312 3.4278)"
       gradientUnits="userSpaceOnUse">
      <stop
         stop-color="#f1efeb"
         offset="0"
         id="stop7" />
      <stop
         stop-color="#fff"
         offset="1"
         id="stop9" />
    </linearGradient>
    <linearGradient
       id="linearGradient910"
       x1="7.9373"
       x2="7.9373"
       y1="15.081"
       y2="1.852"
       gradientTransform="scale(3.7796)"
       gradientUnits="userSpaceOnUse">
      <stop
         stop-color="#613583"
         offset="0"
         id="stop12" />
      <stop
         stop-color="#a663c0"
         offset="1"
         id="stop14" />
    </linearGradient>
    <linearGradient
       id="linearGradient932"
       x1="379.24"
       x2="374.24"
       y1="546.85"
       y2="546.85"
       gradientTransform="matrix(2.1429 0 0 2.1429 -769.68 -1134.5)"
       gradientUnits="userSpaceOnUse">
      <stop
         stop-color="#f6f5f4"
         offset="0"
         id="stop17" />
      <stop
         stop-color="#fff"
         offset=".6"
         id="stop19" />
      <stop
         stop-color="#dddbd8"
         offset="1"
         id="stop21" />
    </linearGradient>
    <linearGradient
       id="linearGradient1146"
       x1="18"
       x2="18"
       y1="52"
       y2="12"
       gradientUnits="userSpaceOnUse">
      <stop
         stop-color="#5e337f"
         offset="0"
         id="stop24" />
      <stop
         stop-color="#ab60bf"
         offset="1"
         id="stop26" />
    </linearGradient>
    <clipPath
       clipPathUnits="userSpaceOnUse"
       id="clipPath210">
      <path
         id="path212"
         style="display:none;opacity:0.2;fill:#e6e6e6"
         d="m 32.1875,6.0332031 v 1 h 1 v -1 z m 0,1 h -1 v 1 h 1 z m 0,1 v 1 h 1 v -1 z m 0,1 h -1 v 0.9999999 h 1 z m 0,0.9999999 v 1 h 1 v -1 z m 0,1 h -1 v 1 h 1 z m 0,1 v 1 h 1 v -1 z m 0,1 h -1 v 1 h 1 z m 0,1 v 1 h 1 v -1 z m 0,1 h -1 v 1 h 1 z m 0,1 v 1 h 1 v -1 z m 0,1 h -1 v 1 h 1 z m 0,1 v 1 h 1 v -1 z m 0,1 h -1 v 1 h 1 c 0.04125,-0.367529 0,-1 0,-1 z m 0,1 v 1 h 1 v -1 z m 0,1 h -1 v 1 h 1 z m 0,1 v 1 h 1 v -1 z m 0,1 h -1 v 1 h 1 z m 0,1 v 1 h 1 v -1 z m 0,1 h -1 v 1 h 1 z m 0,1 v 1 h 1 v -1 z m 0,1 h -1 c -0.0049,0.04347 -0.0074,0.08816 -0.0098,0.128906 -1.721073,0.449126 -2.990234,2.018304 -2.990234,3.871094 v 8 c 0,2.2 1.79,4 4,4 2.21,0 4,-1.8 4,-4 v -8 c 0,-2.2 -1.789334,-4 -4,-4 z m 0,2 c 1.104,0 2,0.8 2,2 0,0.999998 -0.896,2 -2,2 -1.104,0 -2,-1.000002 -2,-2 0,-1.2 0.896,-2 2,-2 z m 0,6 c 1.10457,0 2,0.89543 2,2 v 2 c 0,1.10457 -0.89543,2 -2,2 -1.10457,0 -2,-0.89543 -2,-2 v -2 c 0,-1.10457 0.89543,-2 2,-2 z M 16.263672,45.423828 v 6.88086 h 2.644531 v -2.603516 h 0.75 c 0.430732,0 0.774643,0.06349 1.03125,0.189453 0.261188,0.125963 0.517508,0.360985 0.769531,0.705078 l 1.251954,1.708985 h 2.816406 L 24.091797,50.351562 C 23.798534,49.95524 23.507432,49.660349 23.21875,49.466797 22.93465,49.270172 22.611998,49.143192 22.25,49.087891 c 0.659844,-0.138252 1.151223,-0.352667 1.476562,-0.644532 0.329923,-0.291865 0.496094,-0.666398 0.496094,-1.121093 0,-0.657465 -0.316867,-1.137252 -0.949218,-1.441407 -0.627769,-0.304153 -1.616986,-0.457031 -2.96875,-0.457031 z m 13.416016,0 -3.800782,6.88086 h 2.660156 l 0.652344,-1.253907 h 4.138672 l 0.644531,1.253907 h 2.660157 l -3.800782,-6.88086 z m 8.316406,0 v 6.88086 h 2.646484 v -2.603516 h 0.75 c 0.430732,0 0.772691,0.06349 1.029297,0.189453 0.261189,0.125963 0.519461,0.360985 0.771484,0.705078 l 1.25,1.708985 h 2.81836 l -1.4375,-1.953126 c -0.293264,-0.396322 -0.582412,-0.691213 -0.871094,-0.884765 -0.284099,-0.196625 -0.608705,-0.323605 -0.970703,-0.378906 0.659844,-0.138252 1.153176,-0.352667 1.478516,-0.644532 0.329921,-0.291865 0.49414,-0.666398 0.49414,-1.121093 0,-0.657465 -0.314915,-1.137252 -0.947266,-1.441407 -0.627768,-0.304153 -1.618939,-0.457031 -2.970703,-0.457031 z m -19.087891,1.28711 h 1.115235 c 0.554452,0 0.949222,0.06599 1.1875,0.201171 0.242859,0.13518 0.365234,0.360457 0.365234,0.673829 0,0.316442 -0.122375,0.543388 -0.365234,0.68164 -0.238278,0.138252 -0.633048,0.207031 -1.1875,0.207031 h -1.115235 z m 21.734375,0 h 1.113281 c 0.554453,0 0.951176,0.06599 1.189453,0.201171 0.24286,0.13518 0.363282,0.360457 0.363282,0.673829 0,0.316442 -0.120422,0.543388 -0.363282,0.68164 -0.238277,0.138252 -0.635,0.207031 -1.189453,0.207031 h -1.113281 z m -9.382812,0.326171 1.402343,2.738282 h -2.810547 z" />
      <path
         id="lpe_path-effect214"
         style="opacity:0.2;fill:#e6e6e6"
         class="powerclip"
         d="M 4.6784649,1.9709001 H 58.021723 V 61.968901 H 4.6784649 Z M 32.1875,6.0332031 v 1 h 1 v -1 z m 0,1 h -1 v 1 h 1 z m 0,1 v 1 h 1 v -1 z m 0,1 h -1 v 0.9999999 h 1 z m 0,0.9999999 v 1 h 1 v -1 z m 0,1 h -1 v 1 h 1 z m 0,1 v 1 h 1 v -1 z m 0,1 h -1 v 1 h 1 z m 0,1 v 1 h 1 v -1 z m 0,1 h -1 v 1 h 1 z m 0,1 v 1 h 1 v -1 z m 0,1 h -1 v 1 h 1 z m 0,1 v 1 h 1 v -1 z m 0,1 h -1 v 1 h 1 c 0.04125,-0.367529 0,-1 0,-1 z m 0,1 v 1 h 1 v -1 z m 0,1 h -1 v 1 h 1 z m 0,1 v 1 h 1 v -1 z m 0,1 h -1 v 1 h 1 z m 0,1 v 1 h 1 v -1 z m 0,1 h -1 v 1 h 1 z m 0,1 v 1 h 1 v -1 z m 0,1 h -1 c -0.0049,0.04347 -0.0074,0.08816 -0.0098,0.128906 -1.721073,0.449126 -2.990234,2.018304 -2.990234,3.871094 v 8 c 0,2.2 1.79,4 4,4 2.21,0 4,-1.8 4,-4 v -8 c 0,-2.2 -1.789334,-4 -4,-4 z m 0,2 c -1.104,0 -2,0.8 -2,2 0,0.999998 0.896,2 2,2 1.104,0 2,-1.000002 2,-2 0,-1.2 -0.896,-2 -2,-2 z m 0,6 c -1.10457,0 -2,0.89543 -2,2 v 2 c 0,1.10457 0.89543,2 2,2 1.10457,0 2,-0.89543 2,-2 v -2 c 0,-1.10457 -0.89543,-2 -2,-2 z M 16.263672,45.423828 v 6.88086 h 2.644531 v -2.603516 h 0.75 c 0.430732,0 0.774643,0.06349 1.03125,0.189453 0.261188,0.125963 0.517508,0.360985 0.769531,0.705078 l 1.251954,1.708985 h 2.816406 L 24.091797,50.351562 C 23.798534,49.95524 23.507432,49.660349 23.21875,49.466797 22.93465,49.270172 22.611998,49.143192 22.25,49.087891 c 0.659844,-0.138252 1.151223,-0.352667 1.476562,-0.644532 0.329923,-0.291865 0.496094,-0.666398 0.496094,-1.121093 0,-0.657465 -0.316867,-1.137252 -0.949218,-1.441407 -0.627769,-0.304153 -1.616986,-0.457031 -2.96875,-0.457031 z m 13.416016,0 -3.800782,6.88086 h 2.660156 l 0.652344,-1.253907 h 4.138672 l 0.644531,1.253907 h 2.660157 l -3.800782,-6.88086 z m 8.316406,0 v 6.88086 h 2.646484 v -2.603516 h 0.75 c 0.430732,0 0.772691,0.06349 1.029297,0.189453 0.261189,0.125963 0.519461,0.360985 0.771484,0.705078 l 1.25,1.708985 h 2.81836 l -1.4375,-1.953126 c -0.293264,-0.396322 -0.582412,-0.691213 -0.871094,-0.884765 -0.284099,-0.196625 -0.608705,-0.323605 -0.970703,-0.378906 0.659844,-0.138252 1.153176,-0.352667 1.478516,-0.644532 0.329921,-0.291865 0.49414,-0.666398 0.49414,-1.121093 0,-0.657465 -0.314915,-1.137252 -0.947266,-1.441407 -0.627768,-0.304153 -1.618939,-0.457031 -2.970703,-0.457031 z m -19.087891,1.28711 v 1.763671 h 1.115235 c 0.554452,0 0.949222,-0.06878 1.1875,-0.207031 0.242859,-0.138252 0.365234,-0.365198 0.365234,-0.68164 0,-0.313372 -0.122375,-0.538649 -0.365234,-0.673829 -0.238278,-0.135181 -0.633048,-0.201171 -1.1875,-0.201171 z m 21.734375,0 v 1.763671 h 1.113281 c 0.554453,0 0.951176,-0.06878 1.189453,-0.207031 0.24286,-0.138252 0.363282,-0.365198 0.363282,-0.68164 0,-0.313372 -0.120422,-0.538649 -0.363282,-0.673829 -0.238277,-0.135181 -0.635,-0.201171 -1.189453,-0.201171 z m -9.382812,0.326171 -1.408204,2.738282 h 2.810547 z" />
    </clipPath>
  </defs>
  <path
     x="9.6784649"
     y="6.9709001"
     width="43.343258"
     height="49.998001"
     rx="8.6689987"
     ry="10"
     fill="url(#linearGradient862)"
     stroke-width="3.14173"
     id="rect35"
     style="fill:#2c2c2c;fill-opacity:1"
     clip-path="url(#clipPath210)"
     inkscape:path-effect="#path-effect214"
     d="m 18.347464,6.9709001 h 26.00526 c 4.802625,0 8.668999,4.4599999 8.668999,9.9999999 v 29.998001 c 0,5.54 -3.866374,10 -8.668999,10 h -26.00526 c -4.802626,0 -8.6689991,-4.46 -8.6689991,-10 V 16.9709 c 0,-5.54 3.8663731,-9.9999999 8.6689991,-9.9999999 z"
     sodipodi:type="rect" />
  <ellipse
     cx="31.366306"
     cy="32.043999"
     fill-opacity="0"
     stroke-width="1.46319"
     id="circle39"
     rx="26.007862"
     ry="30.000999" />
  <circle
     cx="32.02"
     cy="32.044"
     r="0"
     fill="url(#b)"
     stroke-width="1.5715"
     id="circle41" />
  <g
     aria-label="RAR"
     transform="matrix(1.2212657,0,0,0.81882264,-2.5519596,0.03516319)"
     id="text93"
     style="font-weight:bold;font-size:11.5263px;line-height:1.25;font-family:sans-serif;-inkscape-font-specification:'sans-serif Bold';fill:#e6e6e6;stroke-width:0.288159" />
</svg>
