<?xml version="1.0" encoding="UTF-8" standalone="no"?>
<svg
   width="64"
   height="64"
   version="1.1"
   id="svg73"
   sodipodi:docname="rpm.svg"
   inkscape:version="1.1 (1:1.1+rc+202105240936+c4e8f9ed74)"
   xmlns:inkscape="http://www.inkscape.org/namespaces/inkscape"
   xmlns:sodipodi="http://sodipodi.sourceforge.net/DTD/sodipodi-0.dtd"
   xmlns="http://www.w3.org/2000/svg"
   xmlns:svg="http://www.w3.org/2000/svg"
   xmlns:rdf="http://www.w3.org/1999/02/22-rdf-syntax-ns#"
   xmlns:cc="http://creativecommons.org/ns#"
   xmlns:dc="http://purl.org/dc/elements/1.1/">
  <metadata
     id="metadata77">
    <rdf:RDF>
      <cc:Work
         rdf:about="">
        <dc:format>image/svg+xml</dc:format>
        <dc:type
           rdf:resource="http://purl.org/dc/dcmitype/StillImage" />
        <dc:title />
      </cc:Work>
    </rdf:RDF>
  </metadata>
  <sodipodi:namedview
     pagecolor="#ffffff"
     bordercolor="#666666"
     borderopacity="1"
     objecttolerance="10"
     gridtolerance="10"
     guidetolerance="10"
     inkscape:pageopacity="0"
     inkscape:pageshadow="2"
     inkscape:window-width="1920"
     inkscape:window-height="996"
     id="namedview75"
     showgrid="false"
     inkscape:zoom="12.578125"
     inkscape:cx="26.35528"
     inkscape:cy="27.229814"
     inkscape:window-x="0"
     inkscape:window-y="0"
     inkscape:window-maximized="1"
     inkscape:current-layer="svg73"
     inkscape:document-rotation="0"
     inkscape:pagecheckerboard="0" />
  <defs
     id="defs29">
    <inkscape:path-effect
       effect="powerclip"
       id="path-effect290"
       is_visible="true"
       lpeversion="1"
       inverse="true"
       flatten="false"
       hide_clip="false"
       message="Use fill-rule evenodd on &lt;b&gt;fill and stroke&lt;/b&gt; dialog if no flatten result after convert clip to paths." />
    <linearGradient
       id="b"
       x1="399.57"
       x2="399.57"
       y1="545.8"
       y2="517.8"
       gradientTransform="matrix(2.1429,0,0,2.1429,-826.36,-1107.5)"
       gradientUnits="userSpaceOnUse">
      <stop
         stop-color="#3889e9"
         offset="0"
         id="stop2" />
      <stop
         stop-color="#5ea5fb"
         offset="1"
         id="stop4" />
    </linearGradient>
    <linearGradient
       id="linearGradient862"
       x1="7.9373"
       x2="7.9373"
       y1="15.081"
       y2="1.852"
       gradientTransform="matrix(3.3743 0 0 3.3743 3.4312 3.4278)"
       gradientUnits="userSpaceOnUse">
      <stop
         stop-color="#f1efeb"
         offset="0"
         id="stop7" />
      <stop
         stop-color="#fff"
         offset="1"
         id="stop9" />
    </linearGradient>
    <linearGradient
       id="linearGradient910"
       x1="7.9373"
       x2="7.9373"
       y1="15.081"
       y2="1.852"
       gradientTransform="scale(3.7796)"
       gradientUnits="userSpaceOnUse">
      <stop
         stop-color="#613583"
         offset="0"
         id="stop12" />
      <stop
         stop-color="#a663c0"
         offset="1"
         id="stop14" />
    </linearGradient>
    <linearGradient
       id="linearGradient932"
       x1="379.24"
       x2="374.24"
       y1="546.85"
       y2="546.85"
       gradientTransform="matrix(2.1429 0 0 2.1429 -769.68 -1134.5)"
       gradientUnits="userSpaceOnUse">
      <stop
         stop-color="#f6f5f4"
         offset="0"
         id="stop17" />
      <stop
         stop-color="#fff"
         offset=".6"
         id="stop19" />
      <stop
         stop-color="#dddbd8"
         offset="1"
         id="stop21" />
    </linearGradient>
    <linearGradient
       id="linearGradient1146"
       x1="18"
       x2="18"
       y1="52"
       y2="12"
       gradientUnits="userSpaceOnUse">
      <stop
         stop-color="#5e337f"
         offset="0"
         id="stop24" />
      <stop
         stop-color="#ab60bf"
         offset="1"
         id="stop26" />
    </linearGradient>
    <clipPath
       clipPathUnits="userSpaceOnUse"
       id="clipPath286">
      <path
         id="path288"
         style="display:none;opacity:0.2;fill:#e6e6e6"
         d="m 32.1875,6.0332031 v 1 h 1 v -1 z m 0,1 h -1 v 1 h 1 z m 0,1 v 1 h 1 v -1 z m 0,1 h -1 v 0.9999999 h 1 z m 0,0.9999999 v 1 h 1 v -1 z m 0,1 h -1 v 1 h 1 z m 0,1 v 1 h 1 v -1 z m 0,1 h -1 v 1 h 1 z m 0,1 v 1 h 1 v -1 z m 0,1 h -1 v 1 h 1 z m 0,1 v 1 h 1 v -1 z m 0,1 h -1 v 1 h 1 z m 0,1 v 1 h 1 v -1 z m 0,1 h -1 v 1 h 1 c 0.04125,-0.367529 0,-1 0,-1 z m 0,1 v 1 h 1 v -1 z m 0,1 h -1 v 1 h 1 z m 0,1 v 1 h 1 v -1 z m 0,1 h -1 v 1 h 1 z m 0,1 v 1 h 1 v -1 z m 0,1 h -1 v 1 h 1 z m 0,1 v 1 h 1 v -1 z m 0,1 h -1 c -0.0049,0.04347 -0.0074,0.08816 -0.0098,0.128906 -1.721073,0.449126 -2.990234,2.018304 -2.990234,3.871094 v 8 c 0,2.2 1.79,4 4,4 2.21,0 4,-1.8 4,-4 v -8 c 0,-2.2 -1.789334,-4 -4,-4 z m 0,2 c 1.104,0 2,0.8 2,2 0,0.999998 -0.896,2 -2,2 -1.104,0 -2,-1.000002 -2,-2 0,-1.2 0.896,-2 2,-2 z m 0,6 c 1.10457,0 2,0.89543 2,2 v 2 c 0,1.10457 -0.89543,2 -2,2 -1.10457,0 -2,-0.89543 -2,-2 v -2 c 0,-1.10457 0.89543,-2 2,-2 z M 15.066406,46.130859 v 6.88086 h 2.646485 v -2.603516 h 0.748047 c 0.430732,0 0.774644,0.06154 1.03125,0.1875 0.261188,0.125963 0.517507,0.360984 0.769531,0.705078 l 1.251953,1.710938 h 2.818359 l -1.4375,-1.955078 c -0.293264,-0.396323 -0.584365,-0.691213 -0.873047,-0.884766 -0.284099,-0.196625 -0.606752,-0.321653 -0.96875,-0.376953 0.659845,-0.138252 1.153176,-0.352666 1.478516,-0.644531 0.329922,-0.291865 0.494141,-0.666399 0.494141,-1.121094 0,-0.657464 -0.314916,-1.137252 -0.947266,-1.441406 -0.627769,-0.304154 -1.618939,-0.457032 -2.970703,-0.457032 z m 10.839844,0 v 6.88086 h 2.646484 V 50.625 h 1.744141 c 1.305942,0 2.307404,-0.194926 3.003906,-0.582031 0.701084,-0.390178 1.052735,-0.945987 1.052735,-1.667969 0,-0.71891 -0.351651,-1.271098 -1.052735,-1.658203 -0.696502,-0.390178 -1.697964,-0.585938 -3.003906,-0.585938 z m 10.316406,0 v 6.88086 h 2.507813 v -5.033203 l 2.365234,3.710937 h 1.677735 l 2.363281,-3.710937 v 5.033203 h 2.501953 v -6.88086 h -3.361328 l -2.34961,3.681641 -2.33789,-3.681641 z m -18.509765,1.285157 h 1.113281 c 0.554453,0 0.951176,0.06795 1.189453,0.203125 0.242859,0.135179 0.363281,0.360457 0.363281,0.673828 0,0.316443 -0.120422,0.543389 -0.363281,0.68164 -0.238277,0.138252 -0.635,0.207032 -1.189453,0.207032 h -1.113281 z m 10.839843,0 h 1.462891 c 0.513212,0 0.909936,0.0841 1.189453,0.25 0.279518,0.165902 0.419922,0.401757 0.419922,0.708984 0,0.307227 -0.140404,0.545869 -0.419922,0.714844 -0.279517,0.165902 -0.676241,0.248047 -1.189453,0.248047 h -1.462891 z" />
      <path
         id="lpe_path-effect290"
         style="opacity:0.2;fill:#e6e6e6"
         class="powerclip"
         d="M 4.6784649,1.9709001 H 58.021723 V 61.968901 H 4.6784649 Z M 32.1875,6.0332031 v 1 h 1 v -1 z m 0,1 h -1 v 1 h 1 z m 0,1 v 1 h 1 v -1 z m 0,1 h -1 v 0.9999999 h 1 z m 0,0.9999999 v 1 h 1 v -1 z m 0,1 h -1 v 1 h 1 z m 0,1 v 1 h 1 v -1 z m 0,1 h -1 v 1 h 1 z m 0,1 v 1 h 1 v -1 z m 0,1 h -1 v 1 h 1 z m 0,1 v 1 h 1 v -1 z m 0,1 h -1 v 1 h 1 z m 0,1 v 1 h 1 v -1 z m 0,1 h -1 v 1 h 1 c 0.04125,-0.367529 0,-1 0,-1 z m 0,1 v 1 h 1 v -1 z m 0,1 h -1 v 1 h 1 z m 0,1 v 1 h 1 v -1 z m 0,1 h -1 v 1 h 1 z m 0,1 v 1 h 1 v -1 z m 0,1 h -1 v 1 h 1 z m 0,1 v 1 h 1 v -1 z m 0,1 h -1 c -0.0049,0.04347 -0.0074,0.08816 -0.0098,0.128906 -1.721073,0.449126 -2.990234,2.018304 -2.990234,3.871094 v 8 c 0,2.2 1.79,4 4,4 2.21,0 4,-1.8 4,-4 v -8 c 0,-2.2 -1.789334,-4 -4,-4 z m 0,2 c -1.104,0 -2,0.8 -2,2 0,0.999998 0.896,2 2,2 1.104,0 2,-1.000002 2,-2 0,-1.2 -0.896,-2 -2,-2 z m 0,6 c -1.10457,0 -2,0.89543 -2,2 v 2 c 0,1.10457 0.89543,2 2,2 1.10457,0 2,-0.89543 2,-2 v -2 c 0,-1.10457 -0.89543,-2 -2,-2 z M 15.066406,46.130859 v 6.88086 h 2.646485 v -2.603516 h 0.748047 c 0.430732,0 0.774644,0.06154 1.03125,0.1875 0.261188,0.125963 0.517507,0.360984 0.769531,0.705078 l 1.251953,1.710938 h 2.818359 l -1.4375,-1.955078 c -0.293264,-0.396323 -0.584365,-0.691213 -0.873047,-0.884766 -0.284099,-0.196625 -0.606752,-0.321653 -0.96875,-0.376953 0.659845,-0.138252 1.153176,-0.352666 1.478516,-0.644531 0.329922,-0.291865 0.494141,-0.666399 0.494141,-1.121094 0,-0.657464 -0.314916,-1.137252 -0.947266,-1.441406 -0.627769,-0.304154 -1.618939,-0.457032 -2.970703,-0.457032 z m 10.839844,0 v 6.88086 h 2.646484 V 50.625 h 1.744141 c 1.305942,0 2.307404,-0.194926 3.003906,-0.582031 0.701084,-0.390178 1.052735,-0.945987 1.052735,-1.667969 0,-0.71891 -0.351651,-1.271098 -1.052735,-1.658203 -0.696502,-0.390178 -1.697964,-0.585938 -3.003906,-0.585938 z m 10.316406,0 v 6.88086 h 2.507813 v -5.033203 l 2.365234,3.710937 h 1.677735 l 2.363281,-3.710937 v 5.033203 h 2.501953 v -6.88086 h -3.361328 l -2.34961,3.681641 -2.33789,-3.681641 z m -18.509765,1.285157 v 1.765625 h 1.113281 c 0.554453,0 0.951176,-0.06878 1.189453,-0.207032 0.242859,-0.138251 0.363281,-0.365197 0.363281,-0.68164 0,-0.313371 -0.120422,-0.538649 -0.363281,-0.673828 -0.238277,-0.135175 -0.635,-0.203125 -1.189453,-0.203125 z m 10.839843,0 v 1.921875 h 1.462891 c 0.513212,0 0.909936,-0.08214 1.189453,-0.248047 C 31.484596,48.920869 31.625,48.682227 31.625,48.375 c 0,-0.307227 -0.140404,-0.543082 -0.419922,-0.708984 -0.279517,-0.1659 -0.676241,-0.25 -1.189453,-0.25 z" />
    </clipPath>
  </defs>
  <path
     x="9.6784649"
     y="6.9709001"
     width="43.343258"
     height="49.998001"
     rx="8.6689987"
     ry="10"
     fill="url(#linearGradient862)"
     stroke-width="3.14173"
     id="rect35"
     style="fill:#2c2c2c;fill-opacity:1"
     clip-path="url(#clipPath286)"
     inkscape:path-effect="#path-effect290"
     d="m 18.347464,6.9709001 h 26.00526 c 4.802625,0 8.668999,4.4599999 8.668999,9.9999999 v 29.998001 c 0,5.54 -3.866374,10 -8.668999,10 h -26.00526 c -4.802626,0 -8.6689991,-4.46 -8.6689991,-10 V 16.9709 c 0,-5.54 3.8663731,-9.9999999 8.6689991,-9.9999999 z"
     sodipodi:type="rect" />
  <ellipse
     cx="31.366306"
     cy="32.043999"
     fill-opacity="0"
     stroke-width="1.46319"
     id="circle39"
     rx="26.007862"
     ry="30.000999" />
  <circle
     cx="32.02"
     cy="32.044"
     r="0"
     fill="url(#b)"
     stroke-width="1.5715"
     id="circle41" />
  <g
     aria-label="RPM"
     transform="matrix(1.2212657,0,0,0.81882264,-2.3880157,0.00139308)"
     id="text93"
     style="font-weight:bold;font-size:11.5263px;line-height:1.25;font-family:sans-serif;-inkscape-font-specification:'sans-serif Bold';fill:#e6e6e6;stroke-width:0.288159" />
</svg>
