<?xml version="1.0" encoding="UTF-8" standalone="no"?>
<svg
   width="64"
   height="64"
   version="1.1"
   id="svg125"
   sodipodi:docname="text-css.svg"
   inkscape:version="1.1 (1:1.1+rc+202105240936+c4e8f9ed74)"
   xmlns:inkscape="http://www.inkscape.org/namespaces/inkscape"
   xmlns:sodipodi="http://sodipodi.sourceforge.net/DTD/sodipodi-0.dtd"
   xmlns:xlink="http://www.w3.org/1999/xlink"
   xmlns="http://www.w3.org/2000/svg"
   xmlns:svg="http://www.w3.org/2000/svg"
   xmlns:rdf="http://www.w3.org/1999/02/22-rdf-syntax-ns#"
   xmlns:cc="http://creativecommons.org/ns#"
   xmlns:dc="http://purl.org/dc/elements/1.1/">
  <metadata
     id="metadata129">
    <rdf:RDF>
      <cc:Work
         rdf:about="">
        <dc:format>image/svg+xml</dc:format>
        <dc:type
           rdf:resource="http://purl.org/dc/dcmitype/StillImage" />
        <dc:title />
      </cc:Work>
    </rdf:RDF>
  </metadata>
  <sodipodi:namedview
     pagecolor="#ffffff"
     bordercolor="#666666"
     borderopacity="1"
     objecttolerance="10"
     gridtolerance="10"
     guidetolerance="10"
     inkscape:pageopacity="0"
     inkscape:pageshadow="2"
     inkscape:window-width="1920"
     inkscape:window-height="996"
     id="namedview127"
     showgrid="false"
     inkscape:zoom="12.578125"
     inkscape:cx="32"
     inkscape:cy="36.293168"
     inkscape:window-x="0"
     inkscape:window-y="0"
     inkscape:window-maximized="1"
     inkscape:current-layer="g121"
     inkscape:document-rotation="0"
     inkscape:pagecheckerboard="0" />
  <defs
     id="defs47">
    <inkscape:path-effect
       effect="powerclip"
       id="path-effect53"
       is_visible="true"
       lpeversion="1"
       inverse="true"
       flatten="false"
       hide_clip="false"
       message="Use fill-rule evenodd on &lt;b&gt;fill and stroke&lt;/b&gt; dialog if no flatten result after convert clip to paths." />
    <linearGradient
       id="linearGradient6721-3"
       x1="7.9373"
       x2="7.9373"
       y1="15.346"
       y2="16.933"
       gradientUnits="userSpaceOnUse"
       xlink:href="#linearGradient6261" />
    <linearGradient
       id="linearGradient6261">
      <stop
         offset="0"
         id="stop3" />
      <stop
         stop-opacity="0"
         offset="1"
         id="stop5" />
    </linearGradient>
    <radialGradient
       id="radialGradient6723-5"
       cx="35"
       cy="4"
       r="3.7275"
       gradientTransform="matrix(1.696 0 0 1.0731 -24.361 -.29238)"
       gradientUnits="userSpaceOnUse"
       xlink:href="#linearGradient6261" />
    <linearGradient
       id="linearGradient6725-3"
       x1="43"
       x2="46.748"
       y1="12"
       y2="8.2517"
       gradientUnits="userSpaceOnUse"
       xlink:href="#linearGradient6261" />
    <radialGradient
       id="radialGradient6727-5"
       cx="52"
       cy="22"
       r="5.2061"
       gradientTransform="matrix(.96042 0 0 1.3331 2.0581 -7.3283)"
       gradientUnits="userSpaceOnUse"
       xlink:href="#linearGradient6261" />
    <linearGradient
       id="linearGradient6729-6"
       x1="5.8207"
       x2="5.8207"
       y1="1.0583"
       gradientUnits="userSpaceOnUse"
       xlink:href="#linearGradient6261" />
    <radialGradient
       id="radialGradient6731-2"
       cx="3.1749"
       cy="1.3229"
       r=".79373"
       gradientTransform="matrix(-2.1078e-8 -1.3333 1.6667 -2.6348e-8 .97012 5.2916)"
       gradientUnits="userSpaceOnUse"
       xlink:href="#linearGradient6261" />
    <linearGradient
       id="linearGradient6733-9"
       x1="13.758"
       x2="15.081"
       y1="10.583"
       y2="10.583"
       gradientUnits="userSpaceOnUse"
       xlink:href="#linearGradient6261" />
    <linearGradient
       id="linearGradient6735-1"
       x1="3.1749"
       x2="1.852"
       y1="8.4665"
       y2="8.4665"
       gradientUnits="userSpaceOnUse"
       xlink:href="#linearGradient6261" />
    <radialGradient
       id="radialGradient6737-2"
       cx="13.758"
       cy="15.346"
       r=".79373"
       gradientTransform="matrix(5.1718e-7 2 -1.6667 4.3098e-7 39.334 -12.171)"
       gradientUnits="userSpaceOnUse"
       xlink:href="#linearGradient6261" />
    <radialGradient
       id="radialGradient6739-7"
       cx="3.1749"
       cy="15.346"
       r=".79373"
       gradientTransform="matrix(-1.6667 -1.37e-6 1.644e-6 -2 8.4665 46.037)"
       gradientUnits="userSpaceOnUse"
       xlink:href="#linearGradient6261" />
    <linearGradient
       id="linearGradient6741-0"
       x1="7.9373"
       x2="7.9373"
       y1="15.346"
       y2="16.668"
       gradientUnits="userSpaceOnUse"
       xlink:href="#linearGradient6261" />
    <radialGradient
       id="radialGradient6743-9"
       cx="35"
       cy="4"
       r="3.7275"
       gradientTransform="matrix(1.6115 -1.9122e-7 9.5496e-8 .80482 -21.403 .78072)"
       gradientUnits="userSpaceOnUse"
       xlink:href="#linearGradient6261" />
    <linearGradient
       id="linearGradient6745-3"
       x1="43"
       x2="46.004"
       y1="12"
       y2="8.9965"
       gradientUnits="userSpaceOnUse"
       xlink:href="#linearGradient6261" />
    <radialGradient
       id="radialGradient6747-6"
       cx="52"
       cy="22"
       r="5.2061"
       gradientTransform="matrix(.76834 -9.6042e-8 1.534e-7 1.2272 12.047 -4.9986)"
       gradientUnits="userSpaceOnUse"
       xlink:href="#linearGradient6261" />
    <linearGradient
       id="linearGradient6749-0"
       x1="5.8207"
       x2="5.8207"
       y1="1.0583"
       y2=".26458"
       gradientUnits="userSpaceOnUse"
       xlink:href="#linearGradient6261" />
    <radialGradient
       id="radialGradient6751-6"
       cx="3.1749"
       cy="1.3229"
       r=".79373"
       gradientTransform="matrix(-7.442e-8 -1 1.3333 -9.9226e-8 1.4111 4.2333)"
       gradientUnits="userSpaceOnUse"
       xlink:href="#linearGradient6261" />
    <linearGradient
       id="linearGradient6753-2"
       x1="13.758"
       x2="14.816"
       y1="10.583"
       y2="10.583"
       gradientUnits="userSpaceOnUse"
       xlink:href="#linearGradient6261" />
    <linearGradient
       id="linearGradient6755-6"
       x1="3.1749"
       x2="2.1166"
       y1="8.4665"
       y2="8.4665"
       gradientUnits="userSpaceOnUse"
       xlink:href="#linearGradient6261" />
    <radialGradient
       id="radialGradient6757-1"
       cx="13.758"
       cy="15.346"
       r=".79373"
       gradientTransform="matrix(0 1.6667 -1.3333 0 34.219 -7.5846)"
       gradientUnits="userSpaceOnUse"
       xlink:href="#linearGradient6261" />
    <radialGradient
       id="radialGradient6759-8"
       cx="3.1749"
       cy="15.346"
       r=".79373"
       gradientTransform="matrix(-1.3333 0 0 -1.6667 7.4082 40.921)"
       gradientUnits="userSpaceOnUse"
       xlink:href="#linearGradient6261" />
    <linearGradient
       id="linearGradient6761-7"
       x1="21.039"
       x2="21.039"
       y1="2"
       y2="62"
       gradientTransform="matrix(.26458 0 0 .26458 0 -.26458)"
       gradientUnits="userSpaceOnUse">
      <stop
         stop-color="#ff5b59"
         offset="0"
         id="stop27" />
      <stop
         stop-color="#ff983d"
         offset="1"
         id="stop29" />
    </linearGradient>
    <radialGradient
       id="radialGradient6763-2"
       cx="40"
       cy="12"
       r="8"
       gradientTransform="matrix(1.5 0 0 -2 -14 40)"
       gradientUnits="userSpaceOnUse"
       xlink:href="#linearGradient6261" />
    <radialGradient
       id="radialGradient6765-3"
       cx="10.583"
       cy="4.2333"
       r="2.1166"
       gradientTransform="matrix(-2 3.1236e-7 -3.1236e-7 -2 31.749 12.7)"
       gradientUnits="userSpaceOnUse"
       xlink:href="#linearGradient6261" />
    <radialGradient
       id="radialGradient6767-7"
       cx="40"
       cy="12"
       r="8"
       gradientTransform="matrix(0 -1.5 2 0 16 70)"
       gradientUnits="userSpaceOnUse"
       xlink:href="#linearGradient6261" />
    <linearGradient
       id="linearGradient7282"
       x1="10.583"
       x2="6.3499"
       y1="3.1749"
       y2="3.1749"
       gradientTransform="matrix(1 0 0 .66667 0 1.4111)"
       gradientUnits="userSpaceOnUse"
       xlink:href="#linearGradient6261" />
    <linearGradient
       id="linearGradient7284"
       x1="10.583"
       x2="8.7311"
       y1="3.0426"
       y2="3.0426"
       gradientTransform="matrix(1 0 0 .66667 0 1.4111)"
       gradientUnits="userSpaceOnUse"
       xlink:href="#linearGradient6261" />
    <radialGradient
       id="radialGradient6773-5"
       cx="10.583"
       cy="4.2333"
       r="2.1166"
       gradientTransform="matrix(-.875 -1.6564e-7 1.6631e-7 -.87849 19.843 7.9521)"
       gradientUnits="userSpaceOnUse"
       xlink:href="#linearGradient6261" />
    <radialGradient
       id="radialGradient6775-9"
       cx="40"
       cy="12"
       r="8"
       gradientTransform="matrix(0 -1.3078 .87983 0 29.442 62.311)"
       gradientUnits="userSpaceOnUse"
       xlink:href="#linearGradient6261" />
    <linearGradient
       id="linearGradient7286"
       x1="10.583"
       x2="6.3499"
       y1="3.1749"
       y2="3.1749"
       gradientTransform="matrix(1 0 0 .66667 -14.816 9.3484)"
       gradientUnits="userSpaceOnUse"
       xlink:href="#linearGradient6261" />
    <linearGradient
       id="linearGradient7288"
       x1="10.583"
       x2="8.7237"
       y1="3.0426"
       y2="3.0426"
       gradientTransform="matrix(1 0 0 .66667 -14.816 9.3484)"
       gradientUnits="userSpaceOnUse"
       xlink:href="#linearGradient6261" />
    <radialGradient
       id="radialGradient6781-2"
       cx="40"
       cy="12"
       r="8"
       gradientTransform="matrix(1.4336 0 0 -.87849 -11.344 26.542)"
       gradientUnits="userSpaceOnUse"
       xlink:href="#linearGradient6261" />
    <linearGradient
       id="linearGradient7290"
       x1="40"
       x2="46"
       y1="17"
       y2="11"
       gradientTransform="matrix(.26458 0 0 .26458 -1.6667e-7 -.26458)"
       gradientUnits="userSpaceOnUse">
      <stop
         stop-color="#fefefe"
         offset="0"
         id="stop42" />
      <stop
         stop-color="#e9e9e9"
         offset="1"
         id="stop44" />
    </linearGradient>
    <clipPath
       clipPathUnits="userSpaceOnUse"
       id="clipPath49">
      <path
         fill="#ffffff"
         d="m 6.2139319,5.9110795 c 0.4754672,0 0.8543552,0.1141023 1.1440928,0.3423068 0.2971674,0.2358115 0.4754675,0.5933303 0.5423301,1.0725604 H 7.3134498 C 7.2614454,7.0216745 7.1425788,6.7934699 6.9568494,6.6413329 6.7636906,6.4891978 6.5185279,6.4207353 6.2139319,6.4207353 c -0.3714586,0 -0.6686258,0.1445301 -0.8840719,0.43359 -0.2080172,0.2814515 -0.3120253,0.6617912 -0.3120253,1.1410213 0,0.4792282 0.096579,0.8595695 0.304596,1.1334141 0.2005876,0.2738462 0.497755,0.418376 0.8840721,0.418376 0.6537671,0 1.0326553,-0.3423068 1.1218052,-1.0193134 H 7.9226421 C 7.8334922,9.0298722 7.647763,9.4178207 7.3505958,9.6764515 7.0608578,9.927477 6.68197,10.056793 6.2065028,10.056793 c -0.5794759,0 -1.0252262,-0.1977775 -1.3446806,-0.5933323 -0.3045966,-0.3727331 -0.45318,-0.8595698 -0.45318,-1.4605072 0,-0.6009393 0.1485834,-1.0877744 0.45318,-1.468116 0.3268835,-0.4183744 0.7800632,-0.623758 1.3521097,-0.623758 z m 2.9995198,1.4806122 c 0.599723,0 0.9276963,0.259174 0.9932903,0.7873048 H 9.8412866 C 9.8084887,8.0225132 9.7475796,7.9051519 9.6538726,7.8366896 9.5507956,7.758448 9.4008649,7.7193282 9.208766,7.7193282 c -0.1686718,0 -0.2998611,0.02934 -0.3935676,0.097801 -0.1030773,0.063571 -0.1546161,0.1515936 -0.1546161,0.2640653 0,0.1075828 0.065594,0.2004942 0.2061544,0.2738443 0.089022,0.044012 0.2576934,0.097803 0.5013311,0.1662639 0.2904908,0.073352 0.4966449,0.1515917 0.623149,0.2347246 0.1920992,0.1271422 0.2904902,0.2982958 0.2904902,0.5183498 0,0.5183498 -0.3420293,0.7824159 -1.0260876,0.7824159 -0.6372053,0 -0.9839197,-0.2934068 -1.0401437,-0.8753276 h 0.3654561 c 0.02811,0.200494 0.098392,0.3423066 0.201469,0.4303273 0.1030773,0.078243 0.2576934,0.1173635 0.463848,0.1173635 0.4310509,0 0.651261,-0.1467026 0.651261,-0.4303279 0,-0.1418144 -0.07965,-0.2493949 -0.2295812,-0.3276365 C 9.5882776,8.9320706 9.4149209,8.8782805 9.1525421,8.809818 8.8667367,8.736466 8.6652675,8.6631157 8.5528196,8.5848743 8.3654064,8.4675111 8.2763851,8.3061385 8.2763851,8.0909739 c 0,-0.2151627 0.089021,-0.3814266 0.2717494,-0.5085689 C 8.7168063,7.455263 8.941702,7.3916917 9.2134517,7.3916917 Z m 2.3426673,0 c 0.599723,0 0.927696,0.259174 0.993291,0.7873048 H 12.183953 C 12.151153,8.0225132 12.090243,7.9051519 11.99654,7.8366896 11.893463,7.7584485 11.743533,7.7193282 11.551434,7.7193282 c -0.168672,0 -0.299862,0.02934 -0.393569,0.097801 -0.103077,0.063571 -0.154616,0.1515936 -0.154616,0.2640653 0,0.1075828 0.06559,0.2004942 0.206156,0.2738443 0.08902,0.044012 0.257692,0.097803 0.50133,0.1662639 0.290491,0.073352 0.496646,0.1515917 0.62315,0.2347246 0.192098,0.1271422 0.29049,0.2982958 0.29049,0.5183498 0,0.5183498 -0.34203,0.7824159 -1.026088,0.7824159 -0.637205,0 -0.983921,-0.2934068 -1.040145,-0.8753276 h 0.365456 c 0.02811,0.200494 0.09839,0.3423066 0.201471,0.4303273 0.103076,0.078243 0.257693,0.1173635 0.463847,0.1173635 0.431051,0 0.651261,-0.1467026 0.651261,-0.4303279 0,-0.1418144 -0.07965,-0.2493949 -0.229581,-0.3276365 C 11.930945,8.9320711 11.757588,8.8782808 11.495209,8.809818 11.209405,8.7364655 11.007935,8.6631157 10.895486,8.5848743 10.708073,8.4675111 10.619052,8.3061385 10.619052,8.0909739 c 0,-0.2151627 0.08902,-0.3814266 0.271749,-0.5085689 0.168673,-0.127142 0.393569,-0.1907133 0.665318,-0.1907133 z"
         id="path51"
         style="display:none;fill:#ececec;stroke-width:0.0368092" />
      <path
         id="lpe_path-effect53"
         style="fill:#ececec;stroke-width:0.0368092"
         class="powerclip"
         d="M -1.7916522,-3.7813297 H 18.718883 V 20.283949 H -1.7916522 Z m 8.0055841,9.6924092 c -0.5720465,0 -1.0252262,0.2053836 -1.3521097,0.623758 -0.3045966,0.3803416 -0.45318,0.8671767 -0.45318,1.468116 0,0.6009374 0.1485834,1.0877741 0.45318,1.4605072 0.3194544,0.3955548 0.7652047,0.5933323 1.3446806,0.5933323 0.4754672,0 0.854355,-0.129316 1.144093,-0.3803415 C 7.647763,9.4178207 7.8334922,9.0298722 7.9226421,8.5278233 H 7.328308 c -0.08915,0.6770066 -0.4680381,1.0193134 -1.1218052,1.0193134 -0.3863171,0 -0.6834845,-0.1445298 -0.8840721,-0.418376 -0.208017,-0.2738446 -0.304596,-0.6541859 -0.304596,-1.1334141 0,-0.4792301 0.1040081,-0.8595698 0.3120253,-1.1410213 0.2154461,-0.2890599 0.5126133,-0.43359 0.8840719,-0.43359 0.304596,0 0.5497587,0.068463 0.7429175,0.2205976 0.1857294,0.152137 0.304596,0.3803416 0.3566004,0.6846138 h 0.586905 C 7.8334922,6.8467166 7.6551921,6.4891978 7.3580247,6.2533863 7.0682871,6.0251818 6.6893991,5.9110795 6.2139319,5.9110795 Z m 2.9995198,1.4806122 c -0.2717497,0 -0.4966454,0.063571 -0.6653172,0.1907133 -0.1827284,0.1271423 -0.2717494,0.2934062 -0.2717494,0.5085689 0,0.2151646 0.089021,0.3765372 0.2764345,0.4939004 0.1124479,0.078241 0.3139171,0.1515917 0.5997225,0.2249437 0.2623788,0.068463 0.4357355,0.1222526 0.5153865,0.1613738 0.1499312,0.078242 0.2295812,0.1858221 0.2295812,0.3276365 0,0.2836253 -0.2202101,0.4303279 -0.651261,0.4303279 -0.2061546,0 -0.3607707,-0.039121 -0.463848,-0.1173635 C 8.6793238,9.523772 8.6090418,9.3819594 8.5809318,9.1814654 H 8.2154757 c 0.056224,0.5819208 0.4029384,0.8753276 1.0401437,0.8753276 0.6840583,0 1.0260876,-0.2640661 1.0260876,-0.7824159 0,-0.220054 -0.09839,-0.3912076 -0.2904902,-0.5183498 C 9.8647127,8.6728944 9.6585586,8.5946547 9.3680678,8.5213027 9.1244301,8.4528418 8.9557587,8.3990508 8.8667367,8.3550388 8.7261763,8.2816887 8.6605823,8.1887773 8.6605823,8.0811945 c 0,-0.1124717 0.051539,-0.2004943 0.1546161,-0.2640653 0.093706,-0.068461 0.2248958,-0.097801 0.3935676,-0.097801 0.1920989,0 0.3420296,0.03912 0.4451066,0.1173614 0.093707,0.068462 0.1546161,0.1858236 0.187414,0.3423069 H 10.206742 C 10.141148,7.6508657 9.8131747,7.3916917 9.2134517,7.3916917 Z m 2.3426673,0 c -0.271749,0 -0.496645,0.063571 -0.665318,0.1907133 -0.182729,0.1271423 -0.271749,0.2934062 -0.271749,0.5085689 0,0.2151646 0.08902,0.3765372 0.276434,0.4939004 0.112449,0.078241 0.313919,0.1515912 0.599723,0.2249437 0.262379,0.068463 0.435736,0.1222531 0.515387,0.1613738 0.149931,0.078242 0.229581,0.1858221 0.229581,0.3276365 0,0.2836253 -0.22021,0.4303279 -0.651261,0.4303279 -0.206154,0 -0.360771,-0.039121 -0.463847,-0.1173635 C 11.021988,9.523772 10.951708,9.3819594 10.923598,9.1814654 h -0.365456 c 0.05622,0.5819208 0.40294,0.8753276 1.040145,0.8753276 0.684058,0 1.026088,-0.2640661 1.026088,-0.7824159 0,-0.220054 -0.09839,-0.3912076 -0.29049,-0.5183498 -0.126504,-0.083133 -0.332659,-0.1613726 -0.62315,-0.2347246 -0.243638,-0.068461 -0.41231,-0.1222519 -0.50133,-0.1662639 -0.140566,-0.07335 -0.206156,-0.1662615 -0.206156,-0.2738443 0,-0.1124717 0.05154,-0.2004943 0.154616,-0.2640653 0.09371,-0.068461 0.224897,-0.097801 0.393569,-0.097801 0.192099,0 0.342029,0.03912 0.445106,0.1173614 0.0937,0.068462 0.154613,0.1858236 0.187413,0.3423069 H 12.54941 C 12.483815,7.6508657 12.155842,7.3916917 11.556119,7.3916917 Z" />
    </clipPath>
  </defs>
  <g
     transform="matrix(3.7796 0 0 3.7796 -.021092 1.0245)"
     id="g121">
    <rect
       x="8.7209"
       y="-.54211"
       width="6.6358"
       height="6.6348"
       fill="none"
       id="rect97" />
    <path
       d="m 3.6653411,1.219379 c -0.2531703,0 -0.4569933,0.2091037 -0.4569933,0.4688332 V 14.815114 c 0,0.259739 0.203823,0.468835 0.4569933,0.468835 H 13.26189 c 0.25318,0 0.456993,-0.209104 0.456993,-0.468835 V 5.6725322 c 0,-0.2344167 -0.139155,-0.6115936 -0.456993,-0.9376488 l -2.970423,-3.04738 C 9.9857202,1.2905865 9.6059778,1.2186703 9.3774984,1.2186703 Z"
       fill="url(#linearGradient6761-7)"
       stroke-width="0.231438"
       id="path93-3"
       style="fill:#2c2c2c"
       clip-path="url(#clipPath49)"
       inkscape:path-effect="#path-effect53"
       inkscape:original-d="m 3.6653411,1.219379 c -0.2531703,0 -0.4569933,0.2091037 -0.4569933,0.4688332 V 14.815114 c 0,0.259739 0.203823,0.468835 0.4569933,0.468835 H 13.26189 c 0.25318,0 0.456993,-0.209104 0.456993,-0.468835 V 5.6725322 c 0,-0.2344167 -0.139155,-0.6115936 -0.456993,-0.9376488 l -2.970423,-3.04738 C 9.9857202,1.2905865 9.6059778,1.2186703 9.3774984,1.2186703 Z" />
  </g>
</svg>
