<?xml version="1.0" encoding="UTF-8" standalone="no"?>
<svg
   width="64"
   height="64"
   version="1.1"
   id="svg125"
   sodipodi:docname="text-x-tex.svg"
   inkscape:version="1.1 (1:1.1+202106031931+af4d65493e)"
   xmlns:inkscape="http://www.inkscape.org/namespaces/inkscape"
   xmlns:sodipodi="http://sodipodi.sourceforge.net/DTD/sodipodi-0.dtd"
   xmlns:xlink="http://www.w3.org/1999/xlink"
   xmlns="http://www.w3.org/2000/svg"
   xmlns:svg="http://www.w3.org/2000/svg"
   xmlns:rdf="http://www.w3.org/1999/02/22-rdf-syntax-ns#"
   xmlns:cc="http://creativecommons.org/ns#"
   xmlns:dc="http://purl.org/dc/elements/1.1/">
  <metadata
     id="metadata129">
    <rdf:RDF>
      <cc:Work
         rdf:about="">
        <dc:format>image/svg+xml</dc:format>
        <dc:type
           rdf:resource="http://purl.org/dc/dcmitype/StillImage" />
        <dc:title />
      </cc:Work>
    </rdf:RDF>
  </metadata>
  <sodipodi:namedview
     pagecolor="#ffffff"
     bordercolor="#666666"
     borderopacity="1"
     objecttolerance="10"
     gridtolerance="10"
     guidetolerance="10"
     inkscape:pageopacity="0"
     inkscape:pageshadow="2"
     inkscape:window-width="1920"
     inkscape:window-height="996"
     id="namedview127"
     showgrid="false"
     inkscape:zoom="12.578125"
     inkscape:cx="32"
     inkscape:cy="33.113043"
     inkscape:window-x="0"
     inkscape:window-y="0"
     inkscape:window-maximized="1"
     inkscape:current-layer="g121"
     inkscape:document-rotation="0"
     inkscape:pagecheckerboard="0" />
  <defs
     id="defs47">
    <inkscape:path-effect
       effect="powerclip"
       id="path-effect53"
       is_visible="true"
       lpeversion="1"
       inverse="true"
       flatten="false"
       hide_clip="false"
       message="Use fill-rule evenodd on &lt;b&gt;fill and stroke&lt;/b&gt; dialog if no flatten result after convert clip to paths." />
    <linearGradient
       id="linearGradient6721-3"
       x1="7.9373"
       x2="7.9373"
       y1="15.346"
       y2="16.933"
       gradientUnits="userSpaceOnUse"
       xlink:href="#linearGradient6261" />
    <linearGradient
       id="linearGradient6261">
      <stop
         offset="0"
         id="stop3" />
      <stop
         stop-opacity="0"
         offset="1"
         id="stop5" />
    </linearGradient>
    <radialGradient
       id="radialGradient6723-5"
       cx="35"
       cy="4"
       r="3.7275"
       gradientTransform="matrix(1.696 0 0 1.0731 -24.361 -.29238)"
       gradientUnits="userSpaceOnUse"
       xlink:href="#linearGradient6261" />
    <linearGradient
       id="linearGradient6725-3"
       x1="43"
       x2="46.748"
       y1="12"
       y2="8.2517"
       gradientUnits="userSpaceOnUse"
       xlink:href="#linearGradient6261" />
    <radialGradient
       id="radialGradient6727-5"
       cx="52"
       cy="22"
       r="5.2061"
       gradientTransform="matrix(.96042 0 0 1.3331 2.0581 -7.3283)"
       gradientUnits="userSpaceOnUse"
       xlink:href="#linearGradient6261" />
    <linearGradient
       id="linearGradient6729-6"
       x1="5.8207"
       x2="5.8207"
       y1="1.0583"
       gradientUnits="userSpaceOnUse"
       xlink:href="#linearGradient6261" />
    <radialGradient
       id="radialGradient6731-2"
       cx="3.1749"
       cy="1.3229"
       r=".79373"
       gradientTransform="matrix(-2.1078e-8 -1.3333 1.6667 -2.6348e-8 .97012 5.2916)"
       gradientUnits="userSpaceOnUse"
       xlink:href="#linearGradient6261" />
    <linearGradient
       id="linearGradient6733-9"
       x1="13.758"
       x2="15.081"
       y1="10.583"
       y2="10.583"
       gradientUnits="userSpaceOnUse"
       xlink:href="#linearGradient6261" />
    <linearGradient
       id="linearGradient6735-1"
       x1="3.1749"
       x2="1.852"
       y1="8.4665"
       y2="8.4665"
       gradientUnits="userSpaceOnUse"
       xlink:href="#linearGradient6261" />
    <radialGradient
       id="radialGradient6737-2"
       cx="13.758"
       cy="15.346"
       r=".79373"
       gradientTransform="matrix(5.1718e-7 2 -1.6667 4.3098e-7 39.334 -12.171)"
       gradientUnits="userSpaceOnUse"
       xlink:href="#linearGradient6261" />
    <radialGradient
       id="radialGradient6739-7"
       cx="3.1749"
       cy="15.346"
       r=".79373"
       gradientTransform="matrix(-1.6667 -1.37e-6 1.644e-6 -2 8.4665 46.037)"
       gradientUnits="userSpaceOnUse"
       xlink:href="#linearGradient6261" />
    <linearGradient
       id="linearGradient6741-0"
       x1="7.9373"
       x2="7.9373"
       y1="15.346"
       y2="16.668"
       gradientUnits="userSpaceOnUse"
       xlink:href="#linearGradient6261" />
    <radialGradient
       id="radialGradient6743-9"
       cx="35"
       cy="4"
       r="3.7275"
       gradientTransform="matrix(1.6115 -1.9122e-7 9.5496e-8 .80482 -21.403 .78072)"
       gradientUnits="userSpaceOnUse"
       xlink:href="#linearGradient6261" />
    <linearGradient
       id="linearGradient6745-3"
       x1="43"
       x2="46.004"
       y1="12"
       y2="8.9965"
       gradientUnits="userSpaceOnUse"
       xlink:href="#linearGradient6261" />
    <radialGradient
       id="radialGradient6747-6"
       cx="52"
       cy="22"
       r="5.2061"
       gradientTransform="matrix(.76834 -9.6042e-8 1.534e-7 1.2272 12.047 -4.9986)"
       gradientUnits="userSpaceOnUse"
       xlink:href="#linearGradient6261" />
    <linearGradient
       id="linearGradient6749-0"
       x1="5.8207"
       x2="5.8207"
       y1="1.0583"
       y2=".26458"
       gradientUnits="userSpaceOnUse"
       xlink:href="#linearGradient6261" />
    <radialGradient
       id="radialGradient6751-6"
       cx="3.1749"
       cy="1.3229"
       r=".79373"
       gradientTransform="matrix(-7.442e-8 -1 1.3333 -9.9226e-8 1.4111 4.2333)"
       gradientUnits="userSpaceOnUse"
       xlink:href="#linearGradient6261" />
    <linearGradient
       id="linearGradient6753-2"
       x1="13.758"
       x2="14.816"
       y1="10.583"
       y2="10.583"
       gradientUnits="userSpaceOnUse"
       xlink:href="#linearGradient6261" />
    <linearGradient
       id="linearGradient6755-6"
       x1="3.1749"
       x2="2.1166"
       y1="8.4665"
       y2="8.4665"
       gradientUnits="userSpaceOnUse"
       xlink:href="#linearGradient6261" />
    <radialGradient
       id="radialGradient6757-1"
       cx="13.758"
       cy="15.346"
       r=".79373"
       gradientTransform="matrix(0 1.6667 -1.3333 0 34.219 -7.5846)"
       gradientUnits="userSpaceOnUse"
       xlink:href="#linearGradient6261" />
    <radialGradient
       id="radialGradient6759-8"
       cx="3.1749"
       cy="15.346"
       r=".79373"
       gradientTransform="matrix(-1.3333 0 0 -1.6667 7.4082 40.921)"
       gradientUnits="userSpaceOnUse"
       xlink:href="#linearGradient6261" />
    <linearGradient
       id="linearGradient6761-7"
       x1="21.039"
       x2="21.039"
       y1="2"
       y2="62"
       gradientTransform="matrix(.26458 0 0 .26458 0 -.26458)"
       gradientUnits="userSpaceOnUse">
      <stop
         stop-color="#ff5b59"
         offset="0"
         id="stop27" />
      <stop
         stop-color="#ff983d"
         offset="1"
         id="stop29" />
    </linearGradient>
    <radialGradient
       id="radialGradient6763-2"
       cx="40"
       cy="12"
       r="8"
       gradientTransform="matrix(1.5 0 0 -2 -14 40)"
       gradientUnits="userSpaceOnUse"
       xlink:href="#linearGradient6261" />
    <radialGradient
       id="radialGradient6765-3"
       cx="10.583"
       cy="4.2333"
       r="2.1166"
       gradientTransform="matrix(-2 3.1236e-7 -3.1236e-7 -2 31.749 12.7)"
       gradientUnits="userSpaceOnUse"
       xlink:href="#linearGradient6261" />
    <radialGradient
       id="radialGradient6767-7"
       cx="40"
       cy="12"
       r="8"
       gradientTransform="matrix(0 -1.5 2 0 16 70)"
       gradientUnits="userSpaceOnUse"
       xlink:href="#linearGradient6261" />
    <linearGradient
       id="linearGradient7282"
       x1="10.583"
       x2="6.3499"
       y1="3.1749"
       y2="3.1749"
       gradientTransform="matrix(1 0 0 .66667 0 1.4111)"
       gradientUnits="userSpaceOnUse"
       xlink:href="#linearGradient6261" />
    <linearGradient
       id="linearGradient7284"
       x1="10.583"
       x2="8.7311"
       y1="3.0426"
       y2="3.0426"
       gradientTransform="matrix(1 0 0 .66667 0 1.4111)"
       gradientUnits="userSpaceOnUse"
       xlink:href="#linearGradient6261" />
    <radialGradient
       id="radialGradient6773-5"
       cx="10.583"
       cy="4.2333"
       r="2.1166"
       gradientTransform="matrix(-.875 -1.6564e-7 1.6631e-7 -.87849 19.843 7.9521)"
       gradientUnits="userSpaceOnUse"
       xlink:href="#linearGradient6261" />
    <radialGradient
       id="radialGradient6775-9"
       cx="40"
       cy="12"
       r="8"
       gradientTransform="matrix(0 -1.3078 .87983 0 29.442 62.311)"
       gradientUnits="userSpaceOnUse"
       xlink:href="#linearGradient6261" />
    <linearGradient
       id="linearGradient7286"
       x1="10.583"
       x2="6.3499"
       y1="3.1749"
       y2="3.1749"
       gradientTransform="matrix(1 0 0 .66667 -14.816 9.3484)"
       gradientUnits="userSpaceOnUse"
       xlink:href="#linearGradient6261" />
    <linearGradient
       id="linearGradient7288"
       x1="10.583"
       x2="8.7237"
       y1="3.0426"
       y2="3.0426"
       gradientTransform="matrix(1 0 0 .66667 -14.816 9.3484)"
       gradientUnits="userSpaceOnUse"
       xlink:href="#linearGradient6261" />
    <radialGradient
       id="radialGradient6781-2"
       cx="40"
       cy="12"
       r="8"
       gradientTransform="matrix(1.4336 0 0 -.87849 -11.344 26.542)"
       gradientUnits="userSpaceOnUse"
       xlink:href="#linearGradient6261" />
    <linearGradient
       id="linearGradient7290"
       x1="40"
       x2="46"
       y1="17"
       y2="11"
       gradientTransform="matrix(.26458 0 0 .26458 -1.6667e-7 -.26458)"
       gradientUnits="userSpaceOnUse">
      <stop
         stop-color="#fefefe"
         offset="0"
         id="stop42" />
      <stop
         stop-color="#e9e9e9"
         offset="1"
         id="stop44" />
    </linearGradient>
    <clipPath
       clipPathUnits="userSpaceOnUse"
       id="clipPath49">
      <path
         fill="#ffffff"
         d="m 9.6191848,10.416843 c -0.091802,0.720782 -0.099352,0.830978 -1.0039671,0.830978 h -0.773476 c -0.2225672,0 -0.2331445,-0.03049 -0.2331445,-0.238283 V 9.6328209 h 0.5257022 c 0.5257014,0 0.4694404,0.27696 0.4694404,0.7866951 H 8.7997534 V 8.6030789 H 8.6037398 c 0,0.5012001 0.056264,0.7060692 -0.4694404,0.7060692 H 7.6085972 V 7.8123849 c 0,-0.2038938 0.01058,-0.2343809 0.2331445,-0.2343809 h 0.7619981 c 0.862368,0 0.9627373,0.371451 1.0408281,1.1699471 H 9.7897206 V 7.2727339 H 7.4153146 L 7.2574497,6.1012351 H 3.9093629 L 3.8373645,7.437032 h 0.172146 C 4.0815237,6.4365859 4.105599,6.452233 4.9697669,6.452233 h 0.3076339 c 0.1064462,0.01806 0.1615869,0.09146 0.1615869,0.2304789 v 3.096906 c 0,0.218284 -0.016877,0.2848661 -0.4863189,0.2848661 H 4.7944629 v 0.355032 c 0.2673513,-0.0056 0.5459562,-0.01149 0.8193841,-0.01149 0.2725277,0 0.5520319,0.0059 0.8191589,0.01149 V 10.064484 H 6.2775008 c -0.4624672,0 -0.4791182,-0.06658 -0.4791182,-0.2848661 v -3.096906 c 0,-0.1334069 0,-0.2058429 0.1003699,-0.2304789 h 0.305834 c 0.8031955,0 0.923898,-0.01475 0.9953913,0.8205009 H 6.7894412 V 7.578004 c 0.3947262,0 0.4579636,0 0.4579636,0.2714459 v 3.1249671 c 0,0.271478 -0.062337,0.271478 -0.4579636,0.271478 v 0.353665 h 3.0002823 v -1.180067 c 0.1521227,-5.82e-4 0.4072655,-0.01113 0.5424325,2.3e-5 v -0.35308 c -0.172384,-0.01802 -0.222343,-0.1390191 -0.222343,-0.236332 0,-0.07805 0.02723,-0.120971 0.05537,-0.163897 L 11.056581,8.25627 12.02607,9.8005921 c 0.04388,0.06685 0.04388,0.08488 0.04388,0.1029228 0,0.04756 -0.04996,0.1514581 -0.245071,0.1638961 v 0.352105 c 0.178458,-0.01146 0.485194,0 0.668829,0 0.144254,0 0.388652,-0.01146 0.523903,0 v -0.352105 c -0.35692,0 -0.413182,-0.02951 -0.523903,-0.1999671 l -1.225367,-1.942627 0.82456,-1.291897 C 12.175501,6.5060911 12.343376,6.4080511 12.800664,6.40147 V 6.09269 c -0.1276,0.011459 -0.339366,0.011459 -0.473041,0.011459 -0.183637,0 -0.412281,0 -0.551134,-0.011459 v 0.30878 c 0.17846,0.018039 0.16109,0.05414 0.16109,0.1514509 0,0.0722 -0.121482,0.2664751 -0.16109,0.326465 l -0.580162,0.932999 c 0,0 -0.742895,-1.2414208 -0.742895,-1.259464 0,-0.05439 -0.121274,-0.1514509 0.119524,-0.1514509 V 6.09269 c -0.17846,0.011459 -0.450989,0.011459 -0.6346228,0.011459 -0.1442529,0 -0.4228578,0 -0.5574339,-0.011459 v 0.30878 c 0.3060588,0 0.5117494,0.0439 0.6348487,0.2314499 l 0.96949,1.5167671 -0.96949,1.534837 c -0.2392227,0.375351 -0.6013174,0.381912 -0.7077633,0.381912 v 0.35308 c 0.083516,-0.0075 0.201901,-0.0052 0.3112062,-0.0027 z"
         id="path51"
         style="display:none;fill:#e6e6e6;stroke-width:0.0349682" />
      <path
         id="lpe_path-effect53"
         style="fill:#e6e6e6;stroke-width:0.0349682"
         class="powerclip"
         d="M -1.7916522,-3.7813297 H 18.718883 V 20.283949 H -1.7916522 Z M 9.6191848,10.416843 c -0.091802,0.720782 -0.099352,0.830978 -1.0039671,0.830978 h -0.773476 c -0.2225672,0 -0.2331445,-0.03049 -0.2331445,-0.238283 V 9.6328209 h 0.5257022 c 0.5257014,0 0.4694404,0.27696 0.4694404,0.7866951 H 8.7997534 V 8.6030789 H 8.6037398 c 0,0.5012001 0.056264,0.7060692 -0.4694404,0.7060692 H 7.6085972 V 7.8123849 c 0,-0.2038938 0.01058,-0.2343809 0.2331445,-0.2343809 h 0.7619981 c 0.862368,0 0.9627373,0.371451 1.0408281,1.1699471 H 9.7897206 V 7.2727339 H 7.4153146 L 7.2574497,6.1012351 H 3.9093629 L 3.8373645,7.437032 h 0.172146 C 4.0815237,6.4365859 4.105599,6.452233 4.9697669,6.452233 h 0.3076339 c 0.1064462,0.01806 0.1615869,0.09146 0.1615869,0.2304789 v 3.096906 c 0,0.218284 -0.016877,0.2848661 -0.4863189,0.2848661 H 4.7944629 v 0.355032 c 0.2673513,-0.0056 0.5459562,-0.01149 0.8193841,-0.01149 0.2725277,0 0.5520319,0.0059 0.8191589,0.01149 V 10.064484 H 6.2775008 c -0.4624672,0 -0.4791182,-0.06658 -0.4791182,-0.2848661 v -3.096906 c 0,-0.1334069 0,-0.2058429 0.1003699,-0.2304789 h 0.305834 c 0.8031955,0 0.923898,-0.01475 0.9953913,0.8205009 H 6.7894412 V 7.578004 c 0.3947262,0 0.4579636,0 0.4579636,0.2714459 v 3.1249671 c 0,0.271478 -0.062337,0.271478 -0.4579636,0.271478 v 0.353665 h 3.0002823 v -1.180067 c 0.1521227,-5.82e-4 0.4072655,-0.01113 0.5424325,2.3e-5 v -0.35308 c -0.172384,-0.01802 -0.222343,-0.1390191 -0.222343,-0.236332 0,-0.07805 0.02723,-0.120971 0.05537,-0.163897 L 11.056581,8.25627 12.02607,9.8005921 c 0.04388,0.06685 0.04388,0.08488 0.04388,0.1029228 0,0.04756 -0.04996,0.1514581 -0.245071,0.1638961 v 0.352105 c 0.178458,-0.01146 0.485194,0 0.668829,0 0.144254,0 0.388652,-0.01146 0.523903,0 v -0.352105 c -0.35692,0 -0.413182,-0.02951 -0.523903,-0.1999671 l -1.225367,-1.942627 0.82456,-1.291897 C 12.175501,6.5060911 12.343376,6.4080511 12.800664,6.40147 V 6.09269 c -0.1276,0.011459 -0.339366,0.011459 -0.473041,0.011459 -0.183637,0 -0.412281,0 -0.551134,-0.011459 v 0.30878 c 0.17846,0.018039 0.16109,0.05414 0.16109,0.1514509 0,0.0722 -0.121482,0.2664751 -0.16109,0.326465 l -0.580162,0.932999 c 0,0 -0.742895,-1.2414208 -0.742895,-1.259464 0,-0.05439 -0.121274,-0.1514509 0.119524,-0.1514509 V 6.09269 c -0.17846,0.011459 -0.450989,0.011459 -0.6346228,0.011459 -0.1442529,0 -0.4228578,0 -0.5574339,-0.011459 v 0.30878 c 0.3060588,0 0.5117494,0.0439 0.6348487,0.2314499 l 0.96949,1.5167671 -0.96949,1.534837 c -0.2392227,0.375351 -0.6013174,0.381912 -0.7077633,0.381912 v 0.35308 c 0.083516,-0.0075 0.201901,-0.0052 0.3112062,-0.0027 z" />
    </clipPath>
  </defs>
  <g
     transform="matrix(3.7796 0 0 3.7796 -.021092 1.0245)"
     id="g121">
    <rect
       x="8.7209"
       y="-.54211"
       width="6.6358"
       height="6.6348"
       fill="none"
       id="rect97" />
    <path
       d="m 3.6653411,1.219379 c -0.2531703,0 -0.4569933,0.2091037 -0.4569933,0.4688332 V 14.815114 c 0,0.259739 0.203823,0.468835 0.4569933,0.468835 H 13.26189 c 0.25318,0 0.456993,-0.209104 0.456993,-0.468835 V 5.6725322 c 0,-0.2344167 -0.139155,-0.6115936 -0.456993,-0.9376488 l -2.970423,-3.04738 C 9.9857202,1.2905865 9.6059778,1.2186703 9.3774984,1.2186703 Z"
       fill="url(#linearGradient6761-7)"
       stroke-width="0.231438"
       id="path93-3"
       style="fill:#2c2c2c"
       clip-path="url(#clipPath49)"
       inkscape:path-effect="#path-effect53"
       inkscape:original-d="m 3.6653411,1.219379 c -0.2531703,0 -0.4569933,0.2091037 -0.4569933,0.4688332 V 14.815114 c 0,0.259739 0.203823,0.468835 0.4569933,0.468835 H 13.26189 c 0.25318,0 0.456993,-0.209104 0.456993,-0.468835 V 5.6725322 c 0,-0.2344167 -0.139155,-0.6115936 -0.456993,-0.9376488 l -2.970423,-3.04738 C 9.9857202,1.2905865 9.6059778,1.2186703 9.3774984,1.2186703 Z" />
  </g>
</svg>
