<?xml version="1.0" encoding="UTF-8" standalone="no"?>
<svg
   width="64"
   height="64"
   version="1.1"
   id="svg125"
   sodipodi:docname="text-html.svg"
   inkscape:version="1.1 (1:1.1+rc+202105240936+c4e8f9ed74)"
   xmlns:inkscape="http://www.inkscape.org/namespaces/inkscape"
   xmlns:sodipodi="http://sodipodi.sourceforge.net/DTD/sodipodi-0.dtd"
   xmlns:xlink="http://www.w3.org/1999/xlink"
   xmlns="http://www.w3.org/2000/svg"
   xmlns:svg="http://www.w3.org/2000/svg"
   xmlns:rdf="http://www.w3.org/1999/02/22-rdf-syntax-ns#"
   xmlns:cc="http://creativecommons.org/ns#"
   xmlns:dc="http://purl.org/dc/elements/1.1/">
  <metadata
     id="metadata129">
    <rdf:RDF>
      <cc:Work
         rdf:about="">
        <dc:format>image/svg+xml</dc:format>
        <dc:type
           rdf:resource="http://purl.org/dc/dcmitype/StillImage" />
        <dc:title />
      </cc:Work>
    </rdf:RDF>
  </metadata>
  <sodipodi:namedview
     pagecolor="#ffffff"
     bordercolor="#666666"
     borderopacity="1"
     objecttolerance="10"
     gridtolerance="10"
     guidetolerance="10"
     inkscape:pageopacity="0"
     inkscape:pageshadow="2"
     inkscape:window-width="1920"
     inkscape:window-height="996"
     id="namedview127"
     showgrid="false"
     inkscape:zoom="12.578125"
     inkscape:cx="32"
     inkscape:cy="28.819876"
     inkscape:window-x="0"
     inkscape:window-y="0"
     inkscape:window-maximized="1"
     inkscape:current-layer="g121"
     inkscape:document-rotation="0"
     inkscape:pagecheckerboard="0" />
  <defs
     id="defs47">
    <inkscape:path-effect
       effect="powerclip"
       id="path-effect53"
       is_visible="true"
       lpeversion="1"
       inverse="true"
       flatten="false"
       hide_clip="false"
       message="Use fill-rule evenodd on &lt;b&gt;fill and stroke&lt;/b&gt; dialog if no flatten result after convert clip to paths." />
    <linearGradient
       id="linearGradient6721-3"
       x1="7.9373"
       x2="7.9373"
       y1="15.346"
       y2="16.933"
       gradientUnits="userSpaceOnUse"
       xlink:href="#linearGradient6261" />
    <linearGradient
       id="linearGradient6261">
      <stop
         offset="0"
         id="stop3" />
      <stop
         stop-opacity="0"
         offset="1"
         id="stop5" />
    </linearGradient>
    <radialGradient
       id="radialGradient6723-5"
       cx="35"
       cy="4"
       r="3.7275"
       gradientTransform="matrix(1.696 0 0 1.0731 -24.361 -.29238)"
       gradientUnits="userSpaceOnUse"
       xlink:href="#linearGradient6261" />
    <linearGradient
       id="linearGradient6725-3"
       x1="43"
       x2="46.748"
       y1="12"
       y2="8.2517"
       gradientUnits="userSpaceOnUse"
       xlink:href="#linearGradient6261" />
    <radialGradient
       id="radialGradient6727-5"
       cx="52"
       cy="22"
       r="5.2061"
       gradientTransform="matrix(.96042 0 0 1.3331 2.0581 -7.3283)"
       gradientUnits="userSpaceOnUse"
       xlink:href="#linearGradient6261" />
    <linearGradient
       id="linearGradient6729-6"
       x1="5.8207"
       x2="5.8207"
       y1="1.0583"
       gradientUnits="userSpaceOnUse"
       xlink:href="#linearGradient6261" />
    <radialGradient
       id="radialGradient6731-2"
       cx="3.1749"
       cy="1.3229"
       r=".79373"
       gradientTransform="matrix(-2.1078e-8 -1.3333 1.6667 -2.6348e-8 .97012 5.2916)"
       gradientUnits="userSpaceOnUse"
       xlink:href="#linearGradient6261" />
    <linearGradient
       id="linearGradient6733-9"
       x1="13.758"
       x2="15.081"
       y1="10.583"
       y2="10.583"
       gradientUnits="userSpaceOnUse"
       xlink:href="#linearGradient6261" />
    <linearGradient
       id="linearGradient6735-1"
       x1="3.1749"
       x2="1.852"
       y1="8.4665"
       y2="8.4665"
       gradientUnits="userSpaceOnUse"
       xlink:href="#linearGradient6261" />
    <radialGradient
       id="radialGradient6737-2"
       cx="13.758"
       cy="15.346"
       r=".79373"
       gradientTransform="matrix(5.1718e-7 2 -1.6667 4.3098e-7 39.334 -12.171)"
       gradientUnits="userSpaceOnUse"
       xlink:href="#linearGradient6261" />
    <radialGradient
       id="radialGradient6739-7"
       cx="3.1749"
       cy="15.346"
       r=".79373"
       gradientTransform="matrix(-1.6667 -1.37e-6 1.644e-6 -2 8.4665 46.037)"
       gradientUnits="userSpaceOnUse"
       xlink:href="#linearGradient6261" />
    <linearGradient
       id="linearGradient6741-0"
       x1="7.9373"
       x2="7.9373"
       y1="15.346"
       y2="16.668"
       gradientUnits="userSpaceOnUse"
       xlink:href="#linearGradient6261" />
    <radialGradient
       id="radialGradient6743-9"
       cx="35"
       cy="4"
       r="3.7275"
       gradientTransform="matrix(1.6115 -1.9122e-7 9.5496e-8 .80482 -21.403 .78072)"
       gradientUnits="userSpaceOnUse"
       xlink:href="#linearGradient6261" />
    <linearGradient
       id="linearGradient6745-3"
       x1="43"
       x2="46.004"
       y1="12"
       y2="8.9965"
       gradientUnits="userSpaceOnUse"
       xlink:href="#linearGradient6261" />
    <radialGradient
       id="radialGradient6747-6"
       cx="52"
       cy="22"
       r="5.2061"
       gradientTransform="matrix(.76834 -9.6042e-8 1.534e-7 1.2272 12.047 -4.9986)"
       gradientUnits="userSpaceOnUse"
       xlink:href="#linearGradient6261" />
    <linearGradient
       id="linearGradient6749-0"
       x1="5.8207"
       x2="5.8207"
       y1="1.0583"
       y2=".26458"
       gradientUnits="userSpaceOnUse"
       xlink:href="#linearGradient6261" />
    <radialGradient
       id="radialGradient6751-6"
       cx="3.1749"
       cy="1.3229"
       r=".79373"
       gradientTransform="matrix(-7.442e-8 -1 1.3333 -9.9226e-8 1.4111 4.2333)"
       gradientUnits="userSpaceOnUse"
       xlink:href="#linearGradient6261" />
    <linearGradient
       id="linearGradient6753-2"
       x1="13.758"
       x2="14.816"
       y1="10.583"
       y2="10.583"
       gradientUnits="userSpaceOnUse"
       xlink:href="#linearGradient6261" />
    <linearGradient
       id="linearGradient6755-6"
       x1="3.1749"
       x2="2.1166"
       y1="8.4665"
       y2="8.4665"
       gradientUnits="userSpaceOnUse"
       xlink:href="#linearGradient6261" />
    <radialGradient
       id="radialGradient6757-1"
       cx="13.758"
       cy="15.346"
       r=".79373"
       gradientTransform="matrix(0 1.6667 -1.3333 0 34.219 -7.5846)"
       gradientUnits="userSpaceOnUse"
       xlink:href="#linearGradient6261" />
    <radialGradient
       id="radialGradient6759-8"
       cx="3.1749"
       cy="15.346"
       r=".79373"
       gradientTransform="matrix(-1.3333 0 0 -1.6667 7.4082 40.921)"
       gradientUnits="userSpaceOnUse"
       xlink:href="#linearGradient6261" />
    <linearGradient
       id="linearGradient6761-7"
       x1="21.039"
       x2="21.039"
       y1="2"
       y2="62"
       gradientTransform="matrix(.26458 0 0 .26458 0 -.26458)"
       gradientUnits="userSpaceOnUse">
      <stop
         stop-color="#ff5b59"
         offset="0"
         id="stop27" />
      <stop
         stop-color="#ff983d"
         offset="1"
         id="stop29" />
    </linearGradient>
    <radialGradient
       id="radialGradient6763-2"
       cx="40"
       cy="12"
       r="8"
       gradientTransform="matrix(1.5 0 0 -2 -14 40)"
       gradientUnits="userSpaceOnUse"
       xlink:href="#linearGradient6261" />
    <radialGradient
       id="radialGradient6765-3"
       cx="10.583"
       cy="4.2333"
       r="2.1166"
       gradientTransform="matrix(-2 3.1236e-7 -3.1236e-7 -2 31.749 12.7)"
       gradientUnits="userSpaceOnUse"
       xlink:href="#linearGradient6261" />
    <radialGradient
       id="radialGradient6767-7"
       cx="40"
       cy="12"
       r="8"
       gradientTransform="matrix(0 -1.5 2 0 16 70)"
       gradientUnits="userSpaceOnUse"
       xlink:href="#linearGradient6261" />
    <linearGradient
       id="linearGradient7282"
       x1="10.583"
       x2="6.3499"
       y1="3.1749"
       y2="3.1749"
       gradientTransform="matrix(1 0 0 .66667 0 1.4111)"
       gradientUnits="userSpaceOnUse"
       xlink:href="#linearGradient6261" />
    <linearGradient
       id="linearGradient7284"
       x1="10.583"
       x2="8.7311"
       y1="3.0426"
       y2="3.0426"
       gradientTransform="matrix(1 0 0 .66667 0 1.4111)"
       gradientUnits="userSpaceOnUse"
       xlink:href="#linearGradient6261" />
    <radialGradient
       id="radialGradient6773-5"
       cx="10.583"
       cy="4.2333"
       r="2.1166"
       gradientTransform="matrix(-.875 -1.6564e-7 1.6631e-7 -.87849 19.843 7.9521)"
       gradientUnits="userSpaceOnUse"
       xlink:href="#linearGradient6261" />
    <radialGradient
       id="radialGradient6775-9"
       cx="40"
       cy="12"
       r="8"
       gradientTransform="matrix(0 -1.3078 .87983 0 29.442 62.311)"
       gradientUnits="userSpaceOnUse"
       xlink:href="#linearGradient6261" />
    <linearGradient
       id="linearGradient7286"
       x1="10.583"
       x2="6.3499"
       y1="3.1749"
       y2="3.1749"
       gradientTransform="matrix(1 0 0 .66667 -14.816 9.3484)"
       gradientUnits="userSpaceOnUse"
       xlink:href="#linearGradient6261" />
    <linearGradient
       id="linearGradient7288"
       x1="10.583"
       x2="8.7237"
       y1="3.0426"
       y2="3.0426"
       gradientTransform="matrix(1 0 0 .66667 -14.816 9.3484)"
       gradientUnits="userSpaceOnUse"
       xlink:href="#linearGradient6261" />
    <radialGradient
       id="radialGradient6781-2"
       cx="40"
       cy="12"
       r="8"
       gradientTransform="matrix(1.4336 0 0 -.87849 -11.344 26.542)"
       gradientUnits="userSpaceOnUse"
       xlink:href="#linearGradient6261" />
    <linearGradient
       id="linearGradient7290"
       x1="40"
       x2="46"
       y1="17"
       y2="11"
       gradientTransform="matrix(.26458 0 0 .26458 -1.6667e-7 -.26458)"
       gradientUnits="userSpaceOnUse">
      <stop
         stop-color="#fefefe"
         offset="0"
         id="stop42" />
      <stop
         stop-color="#e9e9e9"
         offset="1"
         id="stop44" />
    </linearGradient>
    <clipPath
       clipPathUnits="userSpaceOnUse"
       id="clipPath49">
      <path
         style="display:none;fill:#e6e6e6;stroke-width:0.264578"
         d="m 8.3994698,5.4493602 c -2.0457194,0 -3.7040957,1.6583766 -3.7040957,3.7040957 0,2.0457191 1.6583763,3.7040951 3.7040957,3.7040951 2.0457192,0 3.7040952,-1.658376 3.7040952,-3.7040951 0,-2.0457191 -1.658376,-3.7040957 -3.7040952,-3.7040957 z m -0.37103,0.7079538 c 0.043185,-0.0045 0.09802,0.00259 0.1415909,0 0.00519,0.020658 -0.031358,0.093972 -0.080614,0.201534 -0.3136271,0.6851487 -0.3313816,1.4882797 -0.040306,1.917159 0.052672,0.077759 0.1002503,0.151607 0.1002503,0.1612271 0,0.00961 -0.056692,0.019637 -0.1209208,0.019637 -0.1507789,0 -0.2934326,-0.0916 -0.5849661,-0.3224548 C 7.3139647,8.0318632 7.1459419,7.9459202 7.0807125,7.9328818 c -0.1024304,-0.020462 -0.13,-0.011604 -0.2625106,0.1209207 -0.12329,0.1232676 -0.1612276,0.1899699 -0.1612276,0.3028183 0,0.4279374 0.5077447,0.7671902 1.4520801,0.9673643 1.2824426,0.2718065 1.5986033,0.5162467 1.6339769,1.1906019 0.044412,0.845623 -0.4060488,1.483478 -1.3921362,1.977102 -0.1176958,0.05894 -0.1924598,0.08121 -0.2418407,0.100251 -0.021881,-0.002 -0.038126,0.002 -0.059943,0 -0.00839,-0.02615 -0.020669,-0.08661 -0.020669,-0.201534 0,-0.449136 -0.1766165,-0.911404 -0.4433749,-1.169933 C 7.5134599,11.151068 7.3123521,11.004302 7.140658,10.898019 6.9689708,10.791741 6.7958281,10.668543 6.7572259,10.615871 6.6932564,10.528461 6.6884414,10.474528 6.7375889,10.313053 6.8271603,10.018137 6.9333961,9.8534506 7.1406575,9.6671097 7.2493166,9.5694179 7.3584271,9.4882035 7.3824984,9.4862456 7.406575,9.4842878 7.2444923,9.4349545 7.0001003,9.3849619 6.7557223,9.3348719 6.3973971,9.2296518 6.2125667,9.1627574 5.8745886,9.0404646 5.4191687,8.7842666 5.2452019,8.5984617 5.2378413,8.5905879 5.2309252,8.5847672 5.224533,8.5777929 5.4737853,7.584928 6.173071,6.7716695 7.1003516,6.3795195 7.2943737,6.2974553 7.4948532,6.2408064 7.7059874,6.197622 7.8111546,6.1761276 7.9198542,6.1683543 8.0284424,6.1573161 Z m 3.0261142,1.5130569 c 0.07581,0.046862 0.361659,0.6662975 0.443375,0.9683978 0.105503,0.3900132 0.09787,1.0646417 0,1.4520793 -0.03725,0.147461 -0.08437,0.285647 -0.10025,0.302818 -0.01588,0.01717 -0.07385,-0.08149 -0.141591,-0.201534 -0.06775,-0.120027 -0.284212,-0.3755805 -0.464045,-0.5653292 -0.519084,-0.5477378 -0.600867,-0.83304 -0.383432,-1.270182 0.109654,-0.220436 0.587266,-0.7224653 0.645943,-0.6862499 z"
         id="path51" />
      <path
         id="lpe_path-effect53"
         style="fill:#e6e6e6;stroke-width:0.264578"
         class="powerclip"
         d="M -1.7916522,-3.7813297 H 18.718883 V 20.283949 H -1.7916522 Z m 10.191122,9.2306899 c -2.0457194,0 -3.7040957,1.6583766 -3.7040957,3.7040957 0,2.0457191 1.6583763,3.7040951 3.7040957,3.7040951 2.0457192,0 3.7040952,-1.658376 3.7040952,-3.7040951 0,-2.0457191 -1.658376,-3.7040957 -3.7040952,-3.7040957 z m -0.37103,0.7079538 2.6e-6,2.1e-6 C 7.9198542,6.1683543 7.8111546,6.1761276 7.7059874,6.197622 7.4948532,6.2408064 7.2943737,6.2974553 7.1003516,6.3795195 6.173071,6.7716695 5.4737853,7.584928 5.224533,8.5777929 c 0.00639,0.00697 0.013308,0.012795 0.020669,0.020669 0.1739668,0.1858049 0.6293867,0.4420029 0.9673648,0.5642957 0.1848304,0.066894 0.5431556,0.1721145 0.7875336,0.2222045 0.244392,0.049993 0.4064747,0.099326 0.3823981,0.1012837 -0.024071,0.00196 -0.1331818,0.083172 -0.2418409,0.1808641 -0.2072614,0.1863409 -0.3134972,0.3510271 -0.4030686,0.6459431 -0.049148,0.161475 -0.044333,0.215408 0.019637,0.302818 0.038602,0.05267 0.2117449,0.17587 0.3834321,0.282148 0.1716941,0.106283 0.3728019,0.253049 0.4444095,0.322454 0.2667584,0.258529 0.4433749,0.720797 0.4433749,1.169933 0,0.114924 0.012279,0.175384 0.020669,0.201534 0.021817,0.002 0.038062,-0.002 0.059943,0 C 8.1584355,12.5729 8.2331994,12.55063 8.3508952,12.491689 9.3369825,11.998065 9.7874433,11.36021 9.7430313,10.514587 9.7076577,9.8402318 9.391497,9.5957916 8.1090544,9.3239851 7.164719,9.123811 6.6569743,8.7845582 6.6569743,8.3566208 c 0,-0.1128484 0.037938,-0.1795507 0.1612276,-0.3028183 0.1325106,-0.1325247 0.1600802,-0.1413827 0.2625106,-0.1209207 0.065229,0.013038 0.2332522,0.098981 0.3627616,0.2015345 0.2915335,0.2308548 0.4341872,0.3224548 0.5849661,0.3224548 0.064229,0 0.1209208,-0.010027 0.1209208,-0.019637 0,-0.00962 -0.047578,-0.083468 -0.1002503,-0.1612271 -0.2910756,-0.4288793 -0.2733211,-1.2320103 0.040306,-1.917159 0.049256,-0.107562 0.085804,-0.180876 0.080614,-0.201534 -0.043571,0.00259 -0.098406,-0.0045 -0.1415909,0 z m 3.0261142,1.5130569 c -0.05868,-0.036215 -0.536289,0.4658139 -0.645943,0.6862499 -0.217435,0.437142 -0.135652,0.7224442 0.383432,1.270182 0.179833,0.1897487 0.396295,0.4453022 0.464045,0.5653292 0.06774,0.120044 0.125711,0.218704 0.141591,0.201534 0.01588,-0.01717 0.063,-0.155357 0.10025,-0.302818 0.09787,-0.3874376 0.105503,-1.0620661 0,-1.4520793 -0.08172,-0.3021003 -0.367565,-0.9215358 -0.443375,-0.9683978 z" />
    </clipPath>
  </defs>
  <g
     transform="matrix(3.7796 0 0 3.7796 -.021092 1.0245)"
     id="g121">
    <rect
       x="8.7209"
       y="-.54211"
       width="6.6358"
       height="6.6348"
       fill="none"
       id="rect97" />
    <path
       d="m 3.6653411,1.219379 c -0.2531703,0 -0.4569933,0.2091037 -0.4569933,0.4688332 V 14.815114 c 0,0.259739 0.203823,0.468835 0.4569933,0.468835 H 13.26189 c 0.25318,0 0.456993,-0.209104 0.456993,-0.468835 V 5.6725322 c 0,-0.2344167 -0.139155,-0.6115936 -0.456993,-0.9376488 l -2.970423,-3.04738 C 9.9857202,1.2905865 9.6059778,1.2186703 9.3774984,1.2186703 Z"
       fill="url(#linearGradient6761-7)"
       stroke-width="0.231438"
       id="path93-3"
       style="fill:#2c2c2c"
       clip-path="url(#clipPath49)"
       inkscape:path-effect="#path-effect53"
       inkscape:original-d="m 3.6653411,1.219379 c -0.2531703,0 -0.4569933,0.2091037 -0.4569933,0.4688332 V 14.815114 c 0,0.259739 0.203823,0.468835 0.4569933,0.468835 H 13.26189 c 0.25318,0 0.456993,-0.209104 0.456993,-0.468835 V 5.6725322 c 0,-0.2344167 -0.139155,-0.6115936 -0.456993,-0.9376488 l -2.970423,-3.04738 C 9.9857202,1.2905865 9.6059778,1.2186703 9.3774984,1.2186703 Z" />
  </g>
</svg>
