<?xml version="1.0" encoding="UTF-8" standalone="no"?>
<!-- Created with Inkscape (http://www.inkscape.org/) -->
<svg
   xmlns:dc="http://purl.org/dc/elements/1.1/"
   xmlns:cc="http://creativecommons.org/ns#"
   xmlns:rdf="http://www.w3.org/1999/02/22-rdf-syntax-ns#"
   xmlns:svg="http://www.w3.org/2000/svg"
   xmlns="http://www.w3.org/2000/svg"
   xmlns:xlink="http://www.w3.org/1999/xlink"
   xmlns:sodipodi="http://sodipodi.sourceforge.net/DTD/sodipodi-0.dtd"
   xmlns:inkscape="http://www.inkscape.org/namespaces/inkscape"
   width="64"
   height="64"
   id="svg3217"
   sodipodi:version="0.32"
   inkscape:version="0.46"
   sodipodi:docname="video.svg"
   inkscape:output_extension="org.inkscape.output.svg.inkscape"
   version="1.0"
   style="display:inline">
  <defs
     id="defs3219">
    <linearGradient
       inkscape:collect="always"
       id="linearGradient8780">
      <stop
         style="stop-color:#4d4d4d;stop-opacity:1;"
         offset="0"
         id="stop8782" />
      <stop
         style="stop-color:#4d4d4d;stop-opacity:0;"
         offset="1"
         id="stop8784" />
    </linearGradient>
    <linearGradient
       id="linearGradient3210">
      <stop
         id="stop3212"
         offset="0"
         style="stop-color:#ffffff;stop-opacity:0" />
      <stop
         id="stop3214"
         offset="1"
         style="stop-color:#acabab;stop-opacity:1;" />
    </linearGradient>
    <linearGradient
       id="linearGradient4152">
      <stop
         style="stop-color:#ffffff;stop-opacity:1;"
         offset="0"
         id="stop4154" />
      <stop
         style="stop-color:#acabab;stop-opacity:1;"
         offset="1"
         id="stop4156" />
    </linearGradient>
    <inkscape:perspective
       sodipodi:type="inkscape:persp3d"
       inkscape:vp_x="0 : 32 : 1"
       inkscape:vp_y="0 : 1000 : 0"
       inkscape:vp_z="64 : 32 : 1"
       inkscape:persp3d-origin="32 : 21.333333 : 1"
       id="perspective3225" />
    <inkscape:perspective
       id="perspective3591"
       inkscape:persp3d-origin="372.04724 : 350.78739 : 1"
       inkscape:vp_z="744.09448 : 526.18109 : 1"
       inkscape:vp_y="0 : 1000 : 0"
       inkscape:vp_x="0 : 526.18109 : 1"
       sodipodi:type="inkscape:persp3d" />
    <linearGradient
       inkscape:collect="always"
       xlink:href="#linearGradient4152"
       id="linearGradient4166"
       x1="23.862328"
       y1="11.303422"
       x2="21.983887"
       y2="58.758259"
       gradientUnits="userSpaceOnUse" />
    <inkscape:perspective
       id="perspective2398"
       inkscape:persp3d-origin="372.04724 : 350.78739 : 1"
       inkscape:vp_z="744.09448 : 526.18109 : 1"
       inkscape:vp_y="0 : 1000 : 0"
       inkscape:vp_x="0 : 526.18109 : 1"
       sodipodi:type="inkscape:persp3d" />
    <linearGradient
       inkscape:collect="always"
       xlink:href="#linearGradient4152"
       id="linearGradient3208"
       x1="37.414642"
       y1="17.683659"
       x2="39.18634"
       y2="55.665409"
       gradientUnits="userSpaceOnUse" />
    <linearGradient
       inkscape:collect="always"
       xlink:href="#linearGradient4152"
       id="linearGradient3220"
       gradientUnits="userSpaceOnUse"
       x1="37.414642"
       y1="17.683659"
       x2="39.18634"
       y2="55.665409" />
    <linearGradient
       inkscape:collect="always"
       xlink:href="#linearGradient4152"
       id="linearGradient3181"
       x1="33.390312"
       y1="11.289592"
       x2="58.237587"
       y2="62.322315"
       gradientUnits="userSpaceOnUse" />
    <linearGradient
       inkscape:collect="always"
       xlink:href="#linearGradient4152"
       id="linearGradient3211"
       gradientUnits="userSpaceOnUse"
       gradientTransform="matrix(0.9675461,0,0,0.9496314,0.6678752,2.1965026)"
       x1="33.390312"
       y1="11.289592"
       x2="58.237587"
       y2="62.322315" />
    <linearGradient
       inkscape:collect="always"
       xlink:href="#linearGradient4152"
       id="linearGradient3244"
       gradientUnits="userSpaceOnUse"
       gradientTransform="matrix(0.9675461,0,0,0.9496314,0.6678752,2.1965026)"
       x1="33.390312"
       y1="11.289592"
       x2="58.237587"
       y2="62.322315" />
    <linearGradient
       inkscape:collect="always"
       xlink:href="#linearGradient8780"
       id="linearGradient8786"
       x1="49.196091"
       y1="20.850372"
       x2="2.2729545"
       y2="48.67585"
       gradientUnits="userSpaceOnUse" />
  </defs>
  <sodipodi:namedview
     id="base"
     pagecolor="#ffffff"
     bordercolor="#666666"
     borderopacity="1.0"
     inkscape:pageopacity="0.0"
     inkscape:pageshadow="2"
     inkscape:zoom="4.4204093"
     inkscape:cx="-34.920369"
     inkscape:cy="19.839066"
     inkscape:current-layer="layer3"
     showgrid="true"
     inkscape:document-units="px"
     inkscape:grid-bbox="true"
     inkscape:window-width="1440"
     inkscape:window-height="845"
     inkscape:window-x="0"
     inkscape:window-y="0"
     showguides="true"
     inkscape:guide-bbox="true" />
  <metadata
     id="metadata3222">
    <rdf:RDF>
      <cc:Work
         rdf:about="">
        <dc:format>image/svg+xml</dc:format>
        <dc:type
           rdf:resource="http://purl.org/dc/dcmitype/StillImage" />
      </cc:Work>
    </rdf:RDF>
  </metadata>
  <g
     inkscape:groupmode="layer"
     id="layer3"
     style="opacity:1;display:inline">
    <g
       id="g3203"
       transform="matrix(1.1654577,0,0,1.1654577,-3.4687799,-7.6092347)">
      <g
         transform="matrix(0.9996887,2.4950375e-2,-2.4950375e-2,0.9996887,-6.3256681,-3.1043283)"
         id="g2399">
        <path
           style="fill:#4d4d4d;fill-opacity:1;fill-rule:evenodd;stroke:none;stroke-width:1px;stroke-linecap:butt;stroke-linejoin:miter;stroke-opacity:1"
           d="M 56.312205,10.106941 C 55.032004,9.5239792 54.416069,9.4157576 52.595679,9.5105711 L 21.158068,13.576454 C 17.418816,14.004331 16.096383,17.18517 16.123615,20.040344 L 17.287891,51.638808 C 17.47373,54.280102 18.364909,54.979149 20.23271,57.70378 C 21.738494,59.96303 22.677388,61.098132 23.720754,61.686144 C 24.983771,62.574354 27.299184,63.051907 29.152662,62.609557 L 57.107118,53.37543 C 59.808596,52.202436 61.36572,49.690947 61.346657,46.383875 L 61.214172,16.306999 C 60.943238,12.393965 58.478725,10.896158 56.312205,10.106941 z"
           id="path2395"
           sodipodi:nodetypes="cccccccccccc" />
        <path
           style="fill:url(#linearGradient3244);fill-opacity:1;fill-rule:evenodd;stroke:none;stroke-width:0.89167106px;stroke-linecap:butt;stroke-linejoin:miter;stroke-opacity:1"
           d="M 28.291265,61.305596 L 55.577447,52.611628 C 60.007072,50.961553 60.312971,47.189694 60.179695,42.409166 L 60.222594,18.508114 C 60.099904,12.344931 57.253066,11.624533 54.112562,11.674287 L 27.594512,16.133423 C 23.102651,16.838592 21.650902,20.558493 21.599506,25.973792 L 22.155389,53.459572 C 22.03967,58.357724 23.905175,61.946343 28.291265,61.305596 z"
           id="path2393"
           sodipodi:nodetypes="ccccccccc" />
      </g>
      <text
         transform="matrix(1.0266619,-0.2423487,-4.0320068e-2,0.9835483,0,0)"
         id="text3199"
         y="61.741108"
         x="20.984354"
         style="font-size:11px;font-style:normal;font-weight:normal;fill:#4d4d4d;fill-opacity:1;stroke:none;stroke-width:1px;stroke-linecap:butt;stroke-linejoin:miter;stroke-opacity:1;font-family:Bitstream Vera Sans"
         xml:space="preserve"><tspan
           y="61.741108"
           x="20.984354"
           id="tspan3201"
           sodipodi:role="line">video</tspan></text>
    </g>
    <path
       style="opacity:1;fill:url(#linearGradient8786);fill-opacity:1;stroke:none;stroke-width:1.33700000999999991;stroke-linejoin:round;stroke-miterlimit:4;stroke-dasharray:1.33699999999999997, 1.33699999999999997;stroke-dashoffset:0;stroke-opacity:1"
       d="M 13.315306,27.074178 C 13.262869,27.094505 13.226569,28.545483 13.226569,30.320507 L 13.226569,42.343143 C 13.226569,44.118168 13.262869,45.541 13.315306,45.520672 L 59.162934,27.747524 C 59.215371,27.727196 59.28125,26.264752 59.28125,24.489727 L 59.28125,12.467092 C 59.28125,10.692067 59.21537,9.2807015 59.162934,9.3010294 L 13.315306,27.074178 z M 14.350575,27.203259 L 15.297107,26.836329 C 15.611734,26.714362 15.85911,26.970913 15.85911,27.414081 C 15.85911,27.857249 15.611734,28.305593 15.297107,28.42756 L 14.350575,28.79449 C 14.035948,28.916456 13.758993,28.671373 13.758993,28.228205 C 13.758993,27.785038 14.035948,27.325226 14.350575,27.203259 z M 17.397224,26.022204 L 18.373335,25.643808 C 18.687963,25.521841 18.935338,25.778392 18.935338,26.22156 C 18.935338,26.664728 18.687962,27.113072 18.373335,27.235039 L 17.397224,27.613435 C 17.082597,27.735401 16.835221,27.478852 16.835221,27.035684 C 16.835221,26.592517 17.082597,26.144171 17.397224,26.022204 z M 20.473452,24.829684 L 21.449563,24.451287 C 21.764191,24.329319 22.011566,24.585871 22.011566,25.029038 C 22.011566,25.472207 21.76419,25.920552 21.449563,26.042519 L 20.473452,26.420915 C 20.158825,26.542881 19.911449,26.286331 19.911449,25.843163 C 19.911449,25.399996 20.158825,24.951651 20.473452,24.829684 z M 23.54968,23.637163 L 24.525791,23.258766 C 24.840419,23.136798 25.087794,23.393351 25.087794,23.836518 C 25.087794,24.279687 24.840418,24.728029 24.525791,24.849997 L 23.54968,25.228394 C 23.235053,25.35036 22.987677,25.093809 22.987677,24.650642 C 22.987677,24.207474 23.235053,23.75913 23.54968,23.637163 z M 26.625908,22.444641 L 27.602019,22.066245 C 27.916647,21.944278 28.164022,22.200829 28.164022,22.643997 C 28.164022,23.087165 27.916646,23.535509 27.602019,23.657476 L 26.625908,24.035873 C 26.311281,24.157839 26.063905,23.901289 26.063905,23.458122 C 26.063905,23.014954 26.311281,22.566608 26.625908,22.444641 z M 29.702136,21.25212 L 30.678246,20.873725 C 30.992875,20.751757 31.24025,21.008308 31.24025,21.451476 C 31.24025,21.894644 30.992874,22.342989 30.678246,22.464956 L 29.702136,22.843351 C 29.387509,22.965318 29.140133,22.708767 29.140133,22.2656 C 29.140133,21.822432 29.387509,21.374088 29.702136,21.25212 z M 32.778364,20.0596 L 33.754474,19.681204 C 34.069102,19.559236 34.316478,19.815787 34.316478,20.258955 C 34.316477,20.702124 34.069101,21.150468 33.754474,21.272435 L 32.778364,21.650831 C 32.463736,21.772797 32.21636,21.516247 32.21636,21.073079 C 32.21636,20.629912 32.463736,20.181567 32.778364,20.0596 z M 35.854591,18.867079 L 36.830702,18.488682 C 37.14533,18.366714 37.392705,18.623267 37.392705,19.066434 C 37.392704,19.509603 37.145329,19.957947 36.830702,20.079914 L 35.854591,20.45831 C 35.539966,20.580275 35.292588,20.323727 35.292588,19.880559 C 35.292588,19.437392 35.539964,18.989046 35.854591,18.867079 z M 38.930819,17.674558 L 39.90693,17.296162 C 40.221558,17.174194 40.468933,17.430746 40.468933,17.873913 C 40.468932,18.317082 40.221557,18.765425 39.90693,18.887393 L 38.930819,19.265789 C 38.616194,19.387755 38.368816,19.131205 38.368816,18.688038 C 38.368816,18.24487 38.616192,17.796525 38.930819,17.674558 z M 42.007047,16.482037 L 42.983158,16.103641 C 43.297786,15.981673 43.545161,16.238224 43.545161,16.681392 C 43.54516,17.12456 43.297785,17.572905 42.983158,17.694872 L 42.007047,18.073269 C 41.692422,18.195234 41.445044,17.938684 41.445044,17.495517 C 41.445044,17.052349 41.69242,16.604004 42.007047,16.482037 z M 45.083275,15.289515 L 46.029807,14.922587 C 46.344435,14.800618 46.621389,15.045704 46.621389,15.488872 C 46.621388,15.93204 46.344434,16.391849 46.029807,16.513818 L 45.083275,16.880746 C 44.76865,17.002713 44.521272,16.746163 44.521272,16.302996 C 44.521272,15.859828 44.768648,15.411483 45.083275,15.289515 z M 48.159503,14.096995 L 49.106035,13.730065 C 49.420663,13.608098 49.697617,13.853182 49.697617,14.29635 C 49.697616,14.739519 49.420662,15.199329 49.106035,15.321296 L 48.159503,15.688226 C 47.844878,15.810192 47.5975,15.553643 47.5975,15.110475 C 47.5975,14.667308 47.844876,14.218962 48.159503,14.096995 z M 51.235731,12.904475 L 52.182263,12.537545 C 52.496891,12.415577 52.773845,12.660662 52.773845,13.103829 C 52.773844,13.546998 52.49689,14.006809 52.182263,14.128776 L 51.235731,14.495706 C 50.921106,14.61767 50.673728,14.361122 50.673728,13.917954 C 50.673728,13.474787 50.921104,13.026442 51.235731,12.904475 z M 54.311959,11.711953 L 55.25849,11.345024 C 55.573119,11.223056 55.820494,11.479607 55.820494,11.922775 C 55.820493,12.365944 55.573118,12.814287 55.25849,12.936255 L 54.311959,13.303184 C 53.997334,13.42515 53.720377,13.180067 53.720377,12.736899 C 53.720377,12.293732 53.997332,11.83392 54.311959,11.711953 z M 57.388187,10.519432 L 58.334718,10.152502 C 58.649346,10.030535 58.896722,10.287087 58.896722,10.730254 C 58.896721,11.173423 58.649345,11.621767 58.334718,11.743734 L 57.388187,12.110664 C 57.073561,12.23263 56.796604,11.987547 56.796604,11.544379 C 56.796604,11.101212 57.07356,10.641399 57.388187,10.519432 z M 13.87731,29.537832 L 27.099174,24.412285 C 27.151612,24.391957 27.21749,25.773857 27.21749,27.548881 L 27.21749,34.149544 C 27.21749,35.924569 27.151612,37.387012 27.099174,37.407339 L 13.87731,42.532887 C 13.824872,42.553212 13.758993,41.141849 13.758993,39.366824 L 13.758993,32.766161 C 13.758993,30.991136 13.824872,29.55816 13.87731,29.537832 z M 29.080974,23.644027 L 44.994538,17.475024 C 45.046974,17.454697 45.083275,18.848062 45.083275,20.623086 L 45.083275,27.223749 C 45.083275,28.998774 45.046976,30.449751 44.994538,30.470079 L 29.080974,36.639081 C 29.028536,36.659407 28.962658,35.248043 28.962658,33.473018 L 28.962658,26.872356 C 28.962658,25.097331 29.028536,23.664354 29.080974,23.644027 z M 46.828443,16.764098 L 58.896722,12.085748 C 58.949159,12.06542 59.015038,13.447319 59.015038,15.222343 L 59.015038,21.823006 C 59.015036,23.598032 58.949159,25.060475 58.896722,25.080802 L 46.828443,29.759153 C 46.776007,29.779478 46.739706,28.356648 46.739706,26.581623 L 46.739706,19.980961 C 46.739706,18.205936 46.776005,16.784427 46.828443,16.764098 z M 14.350575,42.879833 L 15.297107,42.512903 C 15.611734,42.390936 15.85911,42.647487 15.85911,43.090655 C 15.85911,43.533821 15.611734,43.982167 15.297107,44.104134 L 14.350575,44.471064 C 14.035948,44.593032 13.758993,44.347947 13.758993,43.904779 C 13.758993,43.461611 14.035948,43.0018 14.350575,42.879833 z M 17.397224,41.698778 L 18.373335,41.320382 C 18.687963,41.198414 18.935338,41.454966 18.935338,41.898133 C 18.935338,42.3413 18.687962,42.789646 18.373335,42.911613 L 17.397224,43.290009 C 17.082597,43.411977 16.835221,43.155426 16.835221,42.712258 C 16.835221,42.26909 17.082597,41.820745 17.397224,41.698778 z M 20.473452,40.506258 L 21.449563,40.127861 C 21.764191,40.005893 22.011566,40.262445 22.011566,40.705612 C 22.011566,41.148779 21.76419,41.597125 21.449563,41.719092 L 20.473452,42.097489 C 20.158825,42.219457 19.911449,41.962905 19.911449,41.519737 C 19.911449,41.076568 20.158825,40.628225 20.473452,40.506258 z M 23.54968,39.313737 L 24.525791,38.93534 C 24.840419,38.813372 25.087794,39.069924 25.087794,39.513092 C 25.087794,39.956259 24.840418,40.404603 24.525791,40.526571 L 23.54968,40.904968 C 23.235053,41.026936 22.987677,40.770383 22.987677,40.327216 C 22.987677,39.884047 23.235053,39.435704 23.54968,39.313737 z M 26.625908,38.121215 L 27.602019,37.742819 C 27.916647,37.620852 28.164022,37.877403 28.164022,38.320571 C 28.164022,38.763737 27.916646,39.212083 27.602019,39.33405 L 26.625908,39.712446 C 26.311281,39.834414 26.063905,39.577863 26.063905,39.134696 C 26.063905,38.691527 26.311281,38.243182 26.625908,38.121215 z M 29.702136,36.928694 L 30.678246,36.550299 C 30.992875,36.428331 31.24025,36.684882 31.24025,37.12805 C 31.24025,37.571216 30.992874,38.019563 30.678246,38.14153 L 29.702136,38.519925 C 29.387509,38.641894 29.140133,38.385341 29.140133,37.942173 C 29.140133,37.499005 29.387509,37.050662 29.702136,36.928694 z M 32.778364,35.736174 L 33.754474,35.357778 C 34.069102,35.235809 34.316478,35.492361 34.316478,35.935528 C 34.316477,36.378696 34.069101,36.827042 33.754474,36.949009 L 32.778364,37.327405 C 32.463736,37.449373 32.21636,37.192821 32.21636,36.749653 C 32.21636,36.306485 32.463736,35.858141 32.778364,35.736174 z M 35.854591,34.543653 L 36.830702,34.165256 C 37.14533,34.043288 37.392705,34.299841 37.392705,34.743008 C 37.392704,35.186175 37.145329,35.63452 36.830702,35.756487 L 35.854591,36.134884 C 35.539966,36.256851 35.292588,36.000301 35.292588,35.557133 C 35.292588,35.113964 35.539964,34.66562 35.854591,34.543653 z M 38.930819,33.351132 L 39.90693,32.972736 C 40.221558,32.850768 40.468933,33.107319 40.468933,33.550487 C 40.468932,33.993654 40.221557,34.441999 39.90693,34.563967 L 38.930819,34.942363 C 38.616194,35.064331 38.368816,34.807779 38.368816,34.364612 C 38.368816,33.921443 38.616192,33.473099 38.930819,33.351132 z M 42.007047,32.158611 L 42.983158,31.780215 C 43.297786,31.658247 43.545161,31.914798 43.545161,32.357966 C 43.54516,32.801132 43.297785,33.249479 42.983158,33.371446 L 42.007047,33.749842 C 41.692422,33.871809 41.445044,33.615258 41.445044,33.172091 C 41.445044,32.728922 41.69242,32.280578 42.007047,32.158611 z M 45.083275,30.966089 L 46.029807,30.599161 C 46.344435,30.477192 46.621389,30.722278 46.621389,31.165446 C 46.621388,31.608612 46.344434,32.068423 46.029807,32.190392 L 45.083275,32.55732 C 44.76865,32.679288 44.521272,32.422737 44.521272,31.979569 C 44.521272,31.536401 44.768648,31.088057 45.083275,30.966089 z M 48.159503,29.773569 L 49.106035,29.406639 C 49.420663,29.284672 49.697617,29.529756 49.697617,29.972923 C 49.697616,30.416091 49.420662,30.875903 49.106035,30.99787 L 48.159503,31.3648 C 47.844878,31.486768 47.5975,31.230217 47.5975,30.787049 C 47.5975,30.343881 47.844876,29.895536 48.159503,29.773569 z M 51.235731,28.581049 L 52.182263,28.214119 C 52.496891,28.092151 52.773845,28.337236 52.773845,28.780403 C 52.773844,29.22357 52.49689,29.683383 52.182263,29.80535 L 51.235731,30.17228 C 50.921106,30.294246 50.673728,30.037696 50.673728,29.594528 C 50.673728,29.15136 50.921104,28.703016 51.235731,28.581049 z M 54.311959,27.388527 L 55.25849,27.021598 C 55.573119,26.89963 55.820494,27.156181 55.820494,27.599348 C 55.820493,28.042516 55.573118,28.490861 55.25849,28.612829 L 54.311959,28.979758 C 53.997334,29.101726 53.720377,28.856641 53.720377,28.413473 C 53.720377,27.970305 53.997332,27.510494 54.311959,27.388527 z M 57.388187,26.196006 L 58.334718,25.829076 C 58.649346,25.707109 58.896722,25.963661 58.896722,26.406828 C 58.896721,26.849995 58.649345,27.29834 58.334718,27.420308 L 57.388187,27.787238 C 57.073561,27.909205 56.796604,27.664121 56.796604,27.220953 C 56.796604,26.777785 57.07356,26.317973 57.388187,26.196006 z"
       id="rect8642" />
  </g>
</svg>
